<svg width="300" height="300" viewBox="0 0 300 300" fill="none" xmlns="http://www.w3.org/2000/svg">
<g clip-path="url(#clip0_1276_48639)">
<path d="M3.47734 245.871C12.3312 267.316 32.9979 277.47 46.2073 283.96C98.2732 309.54 177.345 306.594 234.24 260.028C247.554 249.131 313.175 192.04 297.845 114.668C284.292 46.2699 216.297 6.55288 159.05 1.24372C111.624 -3.1546 49.7002 14.0692 27.8363 55.7766C14.0878 82.0032 30.6299 90.3455 19.4084 149.784C9.6957 201.23 -7.35226 219.64 3.47734 245.871Z" fill="#99C1FB"/>
<path d="M183.413 73.0553L183.413 73.0553L295.581 72.5489C297.643 72.5395 299.329 74.2321 299.331 76.3467L299.5 253.752C299.502 255.868 297.816 257.578 295.753 257.588L183.585 258.094C181.523 258.103 179.837 256.411 179.835 254.296L179.666 76.8906C179.664 74.7745 181.349 73.0646 183.413 73.0553Z" fill="#99C1FB" stroke="#171D34"/>
<path d="M170.047 247.48L169.893 84.6489C169.89 82.2648 171.791 80.3237 174.137 80.3132L286.305 79.8067C288.651 79.796 290.555 81.7202 290.558 84.104L290.712 246.935C290.715 249.319 288.814 251.26 286.468 251.271L174.3 251.777C171.954 251.788 170.05 249.864 170.047 247.48Z" fill="white"/>
<path d="M169.383 80.0844L169.383 80.0844L281.551 79.5779C283.613 79.5686 285.3 81.261 285.302 83.3758L285.456 246.207C285.458 248.323 283.773 250.033 281.71 250.042L169.542 250.549C167.48 250.558 165.793 248.865 165.791 246.751L165.637 83.9196C165.635 81.8037 167.32 80.0936 169.383 80.0844Z" fill="#73C3FD" stroke="#171D34"/>
<path d="M163.159 69.7175L163.159 69.7175L275.327 69.211C277.389 69.2016 279.075 70.8942 279.077 73.0088L279.252 257.273C279.254 259.389 277.569 261.099 275.506 261.108L163.338 261.615C161.275 261.624 159.589 259.932 159.587 257.817L159.412 73.5527C159.41 71.4366 161.095 69.7267 163.159 69.7175Z" fill="#5B9AF8" stroke="#171D34"/>
<path d="M76.8706 248.132C82.1996 244.155 87.7458 240.447 93.3975 236.911C104.869 229.734 116.838 223.317 128.906 217.101C135.255 213.83 141.8 210.871 148.275 207.828C154.787 204.766 161.315 201.732 167.844 198.7C173.81 195.929 179.776 193.158 185.733 190.371C203.144 147.233 222.27 98.3268 219.493 98.3268L9.01299 92.4211C4.04395 92.4211 0.288642 96.4279 0.642193 101.353L11.0212 245.92C11.3748 250.845 15.7052 254.851 20.6744 254.851H67.6521C70.6649 252.538 73.8281 250.402 76.8706 248.132Z" fill="#5B9AF8"/>
<path d="M226.087 92.9263H13.3373C8.64163 92.9263 5.10563 96.6991 5.43984 101.353L15.8188 245.92C16.1529 250.574 20.2306 254.347 24.9263 254.347H237.676C242.372 254.347 245.908 250.574 245.574 245.92L235.195 101.353C234.861 96.6989 230.783 92.9263 226.087 92.9263Z" fill="white"/>
<path d="M219.383 100.011H21.7511C17.3891 100.011 14.1044 103.515 14.4148 107.839L24.0563 242.132C24.3667 246.456 28.1545 249.96 32.5166 249.96H230.148C234.51 249.96 237.795 246.456 237.485 242.132L227.843 107.839C227.533 103.515 223.745 100.011 219.383 100.011Z" fill="#CADDFF"/>
<path d="M108.967 254.99H24.0198C20.595 254.99 18.0116 257.814 18.2607 261.284C18.5099 264.755 21.4986 267.578 24.9235 267.578H112.407C115.833 267.578 108.967 254.99 108.967 254.99Z" fill="#99C1FB"/>
<path d="M112.407 268.12H24.923C21.22 268.12 17.9884 265.071 17.7194 261.323C17.5866 259.474 18.1826 257.736 19.3975 256.431C20.5876 255.152 22.2292 254.448 24.0192 254.448H109.288L109.442 254.731C110.382 256.453 115 265.163 113.639 267.455C113.384 267.884 112.947 268.12 112.407 268.12ZM24.0192 255.533C22.5339 255.533 21.1743 256.114 20.1916 257.17C19.1839 258.253 18.6904 259.7 18.8012 261.245C19.0307 264.438 21.777 267.035 24.923 267.035H112.407C112.627 267.035 112.675 266.955 112.706 266.902C113.457 265.636 110.829 259.595 108.643 255.533L24.0192 255.533Z" fill="#171D34"/>
<path d="M281.013 254.99H80.4887C77.0584 254.99 74.48 257.808 74.7296 261.284C74.9792 264.76 77.9622 267.578 81.3925 267.578H281.917C285.347 267.578 287.925 264.76 287.676 261.284C287.426 257.808 284.443 254.99 281.013 254.99Z" fill="#99C1FB"/>
<path d="M281.916 268.12H81.3919C77.6888 268.12 74.4572 265.071 74.1882 261.323C74.0552 259.471 74.6505 257.733 75.8642 256.429C77.0534 255.152 78.6954 254.448 80.4884 254.448H281.013C284.716 254.448 287.947 257.497 288.216 261.245C288.349 263.097 287.754 264.835 286.54 266.139C285.351 267.416 283.709 268.12 281.916 268.12ZM80.4884 255.533C79.0003 255.533 77.6398 256.113 76.6583 257.168C75.6518 258.249 75.1589 259.697 75.27 261.245C75.4992 264.438 78.2456 267.035 81.3919 267.035H281.917C283.405 267.035 284.765 266.455 285.746 265.4C286.753 264.319 287.246 262.871 287.135 261.323C286.905 258.13 284.159 255.533 281.013 255.533H80.4884Z" fill="#171D34"/>
<path d="M237.676 254.889H24.9262C19.9599 254.889 15.6316 250.883 15.2778 245.958L13.6089 223.727C13.5868 223.428 13.8105 223.168 14.1092 223.145C14.4072 223.124 14.6684 223.347 14.6907 223.646L16.3596 245.879C16.6735 250.249 20.5164 253.804 24.9262 253.804H237.676C239.805 253.804 241.743 252.982 243.132 251.489C244.508 250.011 245.183 248.047 245.033 245.958L238.4 154.267C238.378 153.968 238.603 153.708 238.902 153.687C239.197 153.667 239.46 153.89 239.482 154.188L246.114 245.88C246.286 248.273 245.509 250.528 243.926 252.229C242.33 253.944 240.11 254.889 237.676 254.889Z" fill="#171D34"/>
<path d="M218.859 244.313H47.0781C46.4142 244.313 45.8619 243.803 45.8089 243.141L27.5744 14.672C27.5153 13.9313 28.1004 13.2976 28.8436 13.2976H200.625C201.288 13.2976 201.841 13.8077 201.894 14.4694L220.128 242.939C220.187 243.679 219.602 244.313 218.859 244.313Z" fill="#99C1FB"/>
<path d="M103.205 152.169H55.227C54.6841 152.169 54.2129 151.753 54.1742 151.24L53.6432 144.186C53.6045 143.673 54.0133 143.257 54.5561 143.257H102.534C103.077 143.257 103.548 143.673 103.587 144.186L104.118 151.24C104.156 151.753 103.748 152.169 103.205 152.169Z" fill="#CADDFF"/>
<path d="M104.584 166.72H56.6059C56.0632 166.72 55.5918 166.304 55.5531 165.791L55.0221 158.736C54.9834 158.223 55.3922 157.807 55.9349 157.807H103.913C104.456 157.807 104.927 158.223 104.966 158.736L105.497 165.791C105.535 166.304 105.127 166.72 104.584 166.72Z" fill="#CADDFF"/>
<path d="M195.412 121.743H111.895L111.219 112.213H194.736L195.412 121.743Z" fill="#CADDFF"/>
<path d="M194.689 107.26H111.172L110.496 97.73H194.013L194.689 107.26Z" fill="#CADDFF"/>
<path d="M196.853 136.961H113.336L112.66 127.431H196.177L196.853 136.961Z" fill="#CADDFF"/>
<path d="M197.933 152.178H114.417L113.74 142.648H197.257L197.933 152.178Z" fill="#CADDFF"/>
<path d="M199.013 167.396H115.497L114.82 157.866H198.337L199.013 167.396Z" fill="#CADDFF"/>
<path d="M200.528 183.651H56.9948L56.3184 174.122H199.852L200.528 183.651Z" fill="#CADDFF"/>
<path d="M201.608 198.869H58.0747L57.3984 189.34H200.932L201.608 198.869Z" fill="#CADDFF"/>
<path d="M202.875 214.163H59.3423L58.666 204.633H202.199L202.875 214.163Z" fill="#CADDFF"/>
<path d="M203.956 229.381H60.4224L59.7461 219.851H203.279L203.956 229.381Z" fill="#CADDFF"/>
<path d="M101.354 80.8617H95.451L93.6133 44.6758H99.5158L101.354 80.8617Z" fill="white"/>
<path d="M99.5246 44.8654H93.6221L92.7702 43.7374C92.6899 43.631 92.7698 43.4937 92.9117 43.4937H99.8072C100.055 43.4937 100.222 43.7312 100.106 43.9197L99.5246 44.8654Z" fill="#CADDFF"/>
<path d="M95.4234 80.7339H101.326L102.178 81.8619C102.258 81.9683 102.178 82.1056 102.036 82.1056H95.1408C94.8928 82.1056 94.7264 81.8681 94.8423 81.6795L95.4234 80.7339Z" fill="#CADDFF"/>
<path d="M111.014 80.8617H105.111L103.273 44.6758H109.176L111.014 80.8617Z" fill="white"/>
<path d="M109.185 44.8654H103.282L102.43 43.7374C102.35 43.631 102.43 43.4937 102.572 43.4937H109.467C109.715 43.4937 109.882 43.7312 109.766 43.9197L109.185 44.8654Z" fill="#CADDFF"/>
<path d="M105.084 80.7339H110.986L111.838 81.8619C111.918 81.9683 111.839 82.1056 111.697 82.1056H104.801C104.553 82.1056 104.387 81.8681 104.502 81.6795L105.084 80.7339Z" fill="#CADDFF"/>
<path d="M120.674 80.8617H114.771L112.934 44.6758H118.836L120.674 80.8617Z" fill="white"/>
<path d="M118.845 44.8654H112.943L112.091 43.7374C112.01 43.631 112.09 43.4937 112.232 43.4937H119.127C119.375 43.4937 119.542 43.7312 119.426 43.9197L118.845 44.8654Z" fill="#CADDFF"/>
<path d="M114.744 80.7339H120.646L121.498 81.8619C121.578 81.9683 121.499 82.1056 121.357 82.1056H114.461C114.213 82.1056 114.047 81.8681 114.163 81.6795L114.744 80.7339Z" fill="#CADDFF"/>
<path d="M130.332 80.8617H124.43L122.592 44.6758H128.494L130.332 80.8617Z" fill="white"/>
<path d="M128.503 44.8654H122.601L121.749 43.7374C121.668 43.631 121.748 43.4937 121.89 43.4937H128.786C129.034 43.4937 129.2 43.7312 129.084 43.9197L128.503 44.8654Z" fill="#CADDFF"/>
<path d="M124.402 80.7339H130.304L131.156 81.8619C131.237 81.9683 131.157 82.1056 131.015 82.1056H124.119C123.871 82.1056 123.705 81.8681 123.821 81.6795L124.402 80.7339Z" fill="#CADDFF"/>
<path d="M139.51 80.8617H133.607L131.77 44.6758H137.672L139.51 80.8617Z" fill="white"/>
<path d="M137.681 44.8654H131.778L130.927 43.7374C130.846 43.631 130.926 43.4937 131.068 43.4937H137.963C138.211 43.4937 138.378 43.7312 138.262 43.9197L137.681 44.8654Z" fill="#CADDFF"/>
<path d="M133.58 80.7339H139.482L140.334 81.8619C140.414 81.9683 140.335 82.1056 140.193 82.1056H133.297C133.049 82.1056 132.883 81.8681 132.999 81.6795L133.58 80.7339Z" fill="#CADDFF"/>
<path d="M149.168 80.8617H143.265L141.428 44.6758H147.33L149.168 80.8617Z" fill="white"/>
<path d="M147.339 44.8654H141.437L140.585 43.7374C140.504 43.631 140.584 43.4937 140.726 43.4937H147.622C147.87 43.4937 148.036 43.7312 147.92 43.9197L147.339 44.8654Z" fill="#CADDFF"/>
<path d="M143.238 80.7339H149.14L149.992 81.8619C150.073 81.9683 149.993 82.1056 149.851 82.1056H142.955C142.707 82.1056 142.541 81.8681 142.657 81.6795L143.238 80.7339Z" fill="#CADDFF"/>
<path d="M151.605 84.0714H92.7313C92.4346 84.0714 92.1824 83.8418 92.1679 83.5584L92.1491 83.1861C92.1347 82.9029 92.3636 82.6731 92.6603 82.6731H151.534C151.831 82.6731 152.083 82.9027 152.097 83.1861L152.116 83.5584C152.131 83.8418 151.902 84.0714 151.605 84.0714Z" fill="white"/>
<path d="M153.221 87.3463H90.71C90.3392 87.3463 90.024 87.0593 90.0061 86.7053L89.8973 84.5612C89.8793 84.2072 90.1653 83.9202 90.5362 83.9202H153.047C153.418 83.9202 153.733 84.2072 153.751 84.5612L153.86 86.7053C153.877 87.0593 153.591 87.3463 153.221 87.3463Z" fill="white"/>
<path d="M150.817 84.4878H93.1908C92.8913 84.4878 92.6484 84.2449 92.6484 83.9454C92.6484 83.646 92.8913 83.4031 93.1908 83.4031H150.817C151.116 83.4031 151.359 83.646 151.359 83.9454C151.359 84.2449 151.116 84.4878 150.817 84.4878Z" fill="#CADDFF"/>
<path d="M149.609 43.0674H90.2088C89.5058 43.0674 89.2202 42.1727 89.8203 41.8501L118.731 26.3035C118.929 26.197 119.175 26.197 119.384 26.3035L149.874 41.8501C150.507 42.1728 150.312 43.0674 149.609 43.0674Z" fill="white"/>
<path d="M97.5862 135.601H59.1333C56.7137 135.601 54.7169 133.823 54.4972 131.53L51.8365 103.759C51.8365 103.759 51.8365 103.759 51.8365 103.759C51.5866 101.15 53.7139 98.864 56.4726 98.864H94.9255C97.345 98.864 99.3419 100.642 99.5615 102.935L102.222 130.707L102.72 130.659L102.222 130.707C102.472 133.316 100.345 135.601 97.5862 135.601Z" fill="white" stroke="#171D34"/>
<path d="M90.0423 124.496C93.7218 117.759 90.7616 109.051 83.4306 105.047C76.0996 101.044 67.1738 103.259 63.4943 109.997C59.8149 116.734 62.775 125.441 70.106 129.445C77.437 133.449 86.3628 131.233 90.0423 124.496Z" fill="#F6BD3D"/>
<path d="M80.8298 116.289C82.0234 114.104 81.0636 111.28 78.686 109.981C76.3084 108.682 73.4134 109.4 72.2198 111.585C71.0262 113.77 71.986 116.595 74.3636 117.893C76.7412 119.192 79.6362 118.474 80.8298 116.289Z" fill="white"/>
<path d="M67.6904 124.929C73.7106 117.621 81.3747 118.944 88.0616 124.132C88.6332 124.576 88.7535 125.36 88.3206 125.87C83.9285 131.04 74.5095 132.916 67.7483 126.521C67.2904 126.088 67.3189 125.38 67.6904 124.929Z" fill="white"/>
<path d="M42.9019 207.257C42.6219 207.257 42.3846 207.042 42.3619 206.758L27.2012 16.8024C27.1183 15.7628 27.4763 14.7269 28.1839 13.9608C28.8915 13.1947 29.8952 12.7551 30.9382 12.7551H198.84C200.781 12.7551 202.422 14.2708 202.577 16.2061L209.776 106.403C209.8 106.702 209.577 106.963 209.278 106.987C208.98 107.007 208.718 106.788 208.694 106.49L201.496 16.2924C201.386 14.9172 200.219 13.84 198.84 13.84H30.938C30.186 13.84 29.4909 14.1444 28.9806 14.6969C28.4704 15.2495 28.2225 15.9666 28.2822 16.7165L43.4431 206.672C43.467 206.97 43.2443 207.232 42.9456 207.255C42.9312 207.256 42.9163 207.257 42.9019 207.257Z" fill="#171D34"/>
<path d="M72.6857 60.6019C72.5469 60.6019 72.4082 60.549 72.3023 60.4431L45.9596 34.1004C45.7478 33.8886 45.7478 33.5454 45.9596 33.3336C46.1714 33.1219 46.5146 33.1219 46.7265 33.3336L73.0692 59.6762C73.281 59.8881 73.281 60.2312 73.0692 60.4431C72.9632 60.5488 72.8244 60.6019 72.6857 60.6019Z" fill="#171D34"/>
<path d="M74.4344 73.1616C74.2955 73.1616 74.1569 73.1086 74.051 73.0028L55.0515 54.0036C54.8396 53.7919 54.8396 53.4486 55.0515 53.2367C55.2633 53.0249 55.6065 53.0249 55.8185 53.2367L74.8179 72.2358C75.0298 72.4476 75.0298 72.7908 74.8179 73.0028C74.7119 73.1086 74.5732 73.1616 74.4344 73.1616Z" fill="#171D34"/>
<path d="M184.688 50.7302C184.549 50.7302 184.41 50.6773 184.305 50.5714L167.047 33.3139C166.836 33.1022 166.836 32.7589 167.047 32.547C167.259 32.3352 167.602 32.3352 167.814 32.547L185.072 49.8045C185.283 50.0164 185.283 50.3594 185.072 50.5714C184.965 50.6773 184.827 50.7302 184.688 50.7302Z" fill="#171D34"/>
<path d="M189.409 66.0381C189.27 66.0381 189.131 65.9852 189.026 65.8793L168.528 45.382C168.316 45.1703 168.316 44.8271 168.528 44.6151C168.74 44.4034 169.083 44.4034 169.295 44.6151L189.792 65.1124C190.004 65.3241 190.004 65.6674 189.792 65.8793C189.686 65.9852 189.548 66.0381 189.409 66.0381Z" fill="#171D34"/>
<path d="M124.798 244.495C124.5 244.495 124.257 244.254 124.256 243.955C124.254 243.656 124.496 243.412 124.796 243.41L201.257 243.047C201.559 243.064 201.8 243.288 201.802 243.587C201.803 243.887 201.562 244.131 201.262 244.132L124.801 244.495C124.8 244.495 124.799 244.495 124.798 244.495Z" fill="#171D34"/>
<path d="M137.317 294.874C135.035 294.874 132.755 294.802 130.471 294.658C130.172 294.639 129.945 294.381 129.964 294.082C129.983 293.783 130.238 293.556 130.54 293.575C147.302 294.636 164.044 291.755 180.294 285.011C180.571 284.895 180.887 285.027 181.003 285.304C181.117 285.581 180.986 285.898 180.709 286.013C166.518 291.903 151.95 294.874 137.317 294.874Z" fill="#171D34"/>
<path d="M139.315 289.606C139.024 289.606 138.783 289.375 138.774 289.081C138.764 288.782 138.999 288.531 139.298 288.522C156.087 287.97 172.473 283.496 188.001 275.225C188.265 275.084 188.594 275.184 188.735 275.448C188.875 275.713 188.776 276.041 188.511 276.182C172.836 284.532 156.29 289.048 139.333 289.606C139.327 289.606 139.321 289.606 139.315 289.606Z" fill="#171D34"/>
<path d="M224.964 30.5304C224.665 30.5304 224.422 30.2875 224.422 29.988V27.1832C224.422 26.8838 224.665 26.6409 224.964 26.6409C225.264 26.6409 225.507 26.8838 225.507 27.1832V29.988C225.507 30.2875 225.264 30.5304 224.964 30.5304Z" fill="#171D34"/>
<path d="M224.964 37.0639C224.665 37.0639 224.422 36.8209 224.422 36.5215V33.7167C224.422 33.4172 224.665 33.1743 224.964 33.1743C225.264 33.1743 225.507 33.4172 225.507 33.7167V36.5215C225.507 36.8209 225.264 37.0639 224.964 37.0639Z" fill="#171D34"/>
<path d="M223.101 32.3948H220.296C219.997 32.3948 219.754 32.1519 219.754 31.8524C219.754 31.553 219.997 31.3101 220.296 31.3101H223.101C223.401 31.3101 223.643 31.553 223.643 31.8524C223.643 32.1517 223.401 32.3948 223.101 32.3948Z" fill="#171D34"/>
<path d="M229.634 32.3948H226.829C226.53 32.3948 226.287 32.1519 226.287 31.8524C226.287 31.553 226.53 31.3101 226.829 31.3101H229.634C229.934 31.3101 230.176 31.553 230.176 31.8524C230.176 32.1517 229.934 32.3948 229.634 32.3948Z" fill="#171D34"/>
<path d="M234.815 45.9548C234.451 45.9548 234.087 45.8869 233.737 45.7511C232.978 45.4559 232.379 44.8761 232.052 44.1185C231.386 42.5745 232.078 40.764 233.595 40.0829C234.328 39.7538 235.143 39.7323 235.891 40.0233C236.651 40.3185 237.249 40.8982 237.576 41.6555C238.242 43.2001 237.55 45.0107 236.033 45.6917C235.643 45.8669 235.229 45.9548 234.815 45.9548ZM234.814 40.9048C234.551 40.9048 234.288 40.9608 234.041 41.0721C233.061 41.512 232.615 42.6856 233.048 43.6887C233.259 44.1774 233.644 44.5509 234.13 44.7402C234.605 44.925 235.124 44.9115 235.589 44.7025C236.568 44.2626 237.013 43.0887 236.58 42.0856C236.37 41.5969 235.985 41.2234 235.498 41.0341C235.276 40.9479 235.045 40.9048 234.814 40.9048Z" fill="#171D34"/>
<path d="M114.178 285.269H12.0643C9.01087 285.269 6.32604 282.836 6.06723 279.834L1.10999 222.33C0.851174 219.328 3.11672 216.895 6.17 216.895H108.283C111.337 216.895 114.022 219.328 114.28 222.33L119.238 279.834C119.496 282.835 117.231 285.269 114.178 285.269Z" fill="#307FF4"/>
<path d="M23.7836 250.545H14.2215C13.1001 250.545 12.114 249.651 12.0189 248.549L11.2086 239.149C11.1135 238.046 11.9455 237.153 13.067 237.153H22.6291C23.7505 237.153 24.7366 238.046 24.8317 239.149L25.642 248.549C25.7371 249.651 24.9051 250.545 23.7836 250.545Z" fill="#5B9AF8"/>
<path d="M40.6964 276.555H14.1045C13.2001 276.555 12.4046 275.834 12.3279 274.945L12.1837 273.271C12.1071 272.382 12.7782 271.661 13.6826 271.661H40.2745C41.1789 271.661 41.9744 272.382 42.0511 273.271L42.1953 274.945C42.272 275.834 41.6008 276.555 40.6964 276.555Z" fill="#99C1FB"/>
<path d="M30.6518 261.875H12.8409C11.9364 261.875 11.141 261.154 11.0643 260.265L10.92 258.592C10.8433 257.703 11.5145 256.982 12.419 256.982H30.2299C31.1344 256.982 31.9298 257.703 32.0065 258.592L32.1508 260.265C32.2275 261.154 31.5564 261.875 30.6518 261.875Z" fill="#99C1FB"/>
<path d="M56.5073 262.004H38.6963C37.7919 262.004 36.9965 261.283 36.9197 260.394L36.7755 258.721C36.6988 257.831 37.37 257.111 38.2744 257.111H56.0854C56.9898 257.111 57.7853 257.831 57.862 258.721L58.0062 260.394C58.083 261.283 57.4119 262.004 56.5073 262.004Z" fill="#99C1FB"/>
<path d="M81.3218 262.004H63.5108C62.6064 262.004 61.8109 261.283 61.7342 260.394L61.59 258.72C61.5132 257.831 62.1844 257.11 63.0889 257.11H80.9C81.8045 257.11 82.5999 257.831 82.6766 258.72L82.8209 260.394C82.8974 261.283 82.2264 262.004 81.3218 262.004Z" fill="#99C1FB"/>
<path d="M107.177 262.132H89.3663C88.4618 262.132 87.6664 261.411 87.5897 260.522L87.4454 258.849C87.3687 257.96 88.0399 257.239 88.9444 257.239H106.755C107.66 257.239 108.455 257.96 108.532 258.849L108.676 260.522C108.753 261.412 108.082 262.132 107.177 262.132Z" fill="#99C1FB"/>
<path d="M113.057 285.811H11.9525C8.69121 285.811 5.81298 283.2 5.53647 279.99L0.552831 222.183C0.420065 220.643 0.903103 219.189 1.91278 218.088C2.93983 216.969 4.38222 216.353 5.97345 216.353H108.033C111.494 216.353 114.548 219.123 114.841 222.529L119.657 276.906C119.683 277.204 119.463 277.467 119.164 277.494C118.871 277.522 118.603 277.3 118.577 277.002L113.761 222.623C113.515 219.763 110.945 217.437 108.033 217.437H5.97361C4.68955 217.437 3.53138 217.929 2.71183 218.822C1.90999 219.695 1.52693 220.856 1.63315 222.09L6.61679 279.897C6.84626 282.56 9.23998 284.726 11.9523 284.726H113.057C114.951 284.726 116.627 283.885 117.655 282.418C117.827 282.173 118.165 282.114 118.411 282.285C118.656 282.457 118.715 282.796 118.544 283.041C117.309 284.801 115.309 285.811 113.057 285.811Z" fill="#171D34"/>
<path d="M10.1856 225.871L10.1821 225.259L15.006 225.232L15.0095 225.844L12.9215 225.856L12.9629 233.104L12.3029 233.108L12.2616 225.86L10.1856 225.871ZM16.6228 233.083L16.6194 232.483L17.9874 232.475L17.9617 227.975L16.5937 227.983L16.5903 227.383L18.5943 227.372L18.6222 228.067C18.8773 227.906 19.2364 227.744 19.6995 227.581C20.1626 227.419 20.57 227.32 20.9218 227.286L21.0538 227.286L21.0579 227.994L20.9259 227.994C20.598 228.02 20.1905 228.102 19.7033 228.241C19.224 228.38 18.8648 228.522 18.6257 228.667L18.6474 232.471L20.5673 232.46L20.5708 233.06L16.6228 233.083ZM26.1387 233.029L26.1119 232.537C25.3461 232.941 24.7073 233.145 24.1953 233.148C23.6833 233.151 23.2783 232.977 22.9803 232.627C22.6823 232.276 22.5316 231.797 22.5281 231.189L22.5062 227.349L23.1422 227.346L23.1641 231.186C23.1663 231.578 23.2602 231.901 23.4456 232.156C23.6391 232.403 23.9278 232.525 24.3117 232.523C24.6957 232.521 25.2946 232.317 26.1083 231.913L26.0822 227.329L26.7181 227.325L26.7507 233.025L26.1387 233.029ZM28.585 232.739L28.7375 232.114C29.531 232.373 30.1437 232.502 30.5757 232.499C31.0077 232.497 31.3392 232.403 31.5701 232.218C31.809 232.024 31.9276 231.772 31.9258 231.46C31.924 231.148 31.8267 230.92 31.6339 230.777C31.449 230.626 31.0602 230.485 30.4675 230.352C29.8747 230.219 29.4296 230.026 29.1321 229.772C28.8348 229.533 28.6847 229.174 28.682 228.694C28.6792 228.214 28.8572 227.849 29.2157 227.599C29.5823 227.341 30.0535 227.21 30.6295 227.207C31.2055 227.204 31.8302 227.328 32.5037 227.58L32.3389 228.145C31.6576 227.925 31.109 227.816 30.693 227.819C30.277 227.821 29.9494 227.895 29.7103 228.04C29.4712 228.202 29.3524 228.418 29.354 228.69C29.3555 228.962 29.4607 229.174 29.6696 229.324C29.8865 229.475 30.2993 229.625 30.9082 229.773C31.517 229.922 31.9501 230.115 32.2075 230.354C32.4648 230.585 32.5949 230.952 32.5978 231.456C32.6007 231.96 32.431 232.361 32.0886 232.659C31.7543 232.957 31.2752 233.107 30.6512 233.111C30.0272 233.114 29.3385 232.99 28.585 232.739ZM34.2943 228.038L34.2909 227.438L35.4549 227.431L35.4466 225.979L36.0819 225.856L36.0909 227.428L38.8388 227.412L38.8423 228.012L36.0943 228.028L36.1099 230.764C36.1134 231.372 36.2039 231.811 36.3814 232.082C36.5669 232.345 36.8917 232.475 37.3557 232.473C37.5317 232.472 37.8035 232.442 38.1712 232.384C38.5388 232.318 38.7905 232.26 38.9262 232.212L39.0736 232.799C38.9219 232.856 38.6422 232.917 38.2346 232.984C37.835 233.05 37.5432 233.084 37.3592 233.085C36.6392 233.089 36.1461 232.904 35.88 232.529C35.6138 232.147 35.4785 231.567 35.4741 230.791L35.4583 228.031L34.2943 228.038ZM45.8543 232.916L48.0655 225.043L49.2175 225.037L51.4342 232.884L50.7263 232.888L50.2239 231.079L47.044 231.097L46.5503 232.912L45.8543 232.916ZM50.0645 230.48L48.7409 225.64L48.5369 225.641L47.2086 230.496L50.0645 230.48ZM51.952 233.181L56.858 224.405L57.3035 224.667L52.3854 233.443L51.952 233.181ZM62.7574 232.004L62.9169 232.615C62.2141 232.827 61.5827 232.935 61.0227 232.938C60.1027 232.943 59.4169 232.631 58.9653 232.001C58.5217 231.364 58.2958 230.337 58.2878 228.921C58.2797 227.505 58.4898 226.476 58.9182 225.834C59.3465 225.183 60.0366 224.855 60.9886 224.85C61.5726 224.846 62.1813 224.967 62.8147 225.211L62.6261 225.812C62.0487 225.576 61.5041 225.459 60.9921 225.462C60.2801 225.466 59.7657 225.741 59.4488 226.287C59.1398 226.824 58.9888 227.693 58.9956 228.893C59.0025 230.093 59.1754 230.964 59.5145 231.506C59.8536 232.048 60.3592 232.317 61.0311 232.314C61.4791 232.311 62.0546 232.208 62.7574 232.004Z" fill="white"/>
</g>
<defs>
<clipPath id="clip0_1276_48639">
<rect width="300" height="300" fill="white"/>
</clipPath>
</defs>
</svg>
