<svg width="80" height="80" viewBox="0 0 80 80" fill="none" xmlns="http://www.w3.org/2000/svg">
<g id="Capa_1" clip-path="url(#clip0_998_205747)">
<g id="Group">
<g id="Group_2">
<path id="Vector 78" d="M16.5 10L15.5 20.5V21.5L22 16.5L32 19L41 16.5L48 22.5L52 13V4.5L47 5.5L35 2H27.5L22 7L16.5 10Z" fill="#F6BD3D"/>
<path id="Vector 80" d="M9 53.5L24 48.5L45.5 50L46.5 57.5L51.5 61.5V73H5V60.5L9 53.5Z" fill="#73C3FD"/>
<path id="Vector 79" d="M9 24.5L13 21.5L15 22.5L22 17.5H24L32 19.5L41 17.5L44 20.5L47.5 24.5L50.5 21.5L54.5 24.5L52 29L47.5 30.5L44 40L38.5 44L37.5 52L32 55L25.5 50.5V45L19 38L15 30.5L10.5 29L9 24.5Z" fill="#FCD0A3"/>
<path id="Vector 81" d="M61.5 60.5V45.5H48.5L45 53.5L48.5 60.5H61.5Z" fill="#307FF4"/>
<path id="Vector 82" d="M62.5 60.5V45.5L74.5 40.5V65.5L62.5 60.5Z" fill="#73C3FD"/>
<path id="Vector 83" d="M52.5 75.5V61.5H59.5V76L56 78.5L52.5 75.5Z" fill="#307FF4"/>
<path id="Vector" d="M75.5066 38.1866C74.9336 37.9394 74.2689 38.0569 73.8152 38.485C70.1875 41.9091 66.1978 43.5736 61.6183 43.5736H51.9848C48.635 43.5736 45.7466 45.5752 44.4511 48.4422C43.9942 48.3307 43.542 48.2225 43.0975 48.1161C41.8214 47.8108 40.5981 47.5181 39.4922 47.2014V44.813C44.6345 42.2738 48.3623 37.2988 49.1514 31.4078H50.2491C53.3066 31.4078 55.7939 28.9244 55.7939 25.8721C55.7939 22.9708 53.5464 20.5853 50.6986 20.3558C53.8356 15.4155 55.2939 10.4324 53.325 3.69784C53.1892 3.23362 52.8461 2.85846 52.3958 2.68174C51.9458 2.50518 51.4387 2.5469 51.0238 2.79487C48.6787 4.19565 45.837 4.2269 44.3527 3.54456C39.0206 1.09799 28.0416 -3.94091 21.0158 5.53659C17.7402 5.97581 15.5848 7.55174 14.6036 10.228C13.738 12.5892 13.8752 15.4491 14.0205 18.4767C14.0498 19.0892 14.0789 19.7128 14.1002 20.3363H13.1848C10.13 20.3363 7.64453 22.8197 7.64453 25.8722C7.64453 28.9247 10.1298 31.408 13.1848 31.408H14.2869C15.0759 37.2989 18.8036 42.2739 23.9461 44.8131V47.2016C22.8297 47.5214 21.5941 47.8164 20.3047 48.1246C17.915 48.6955 15.2064 49.3425 12.7102 50.2992C6.46203 52.6927 3.72172 56.7553 3.54734 63.8836C3.54703 63.8964 3.54688 63.9091 3.54688 63.9219V73.0202C3.54688 73.8831 4.24641 74.5828 5.10953 74.5828H21.5131C22.3761 74.5828 23.0758 73.8833 23.0758 73.0202C23.0758 72.1572 22.3762 71.4575 21.5131 71.4575H16.3545V62.8146C16.3545 61.9516 15.655 61.2519 14.7919 61.2519C13.9289 61.2519 13.2292 61.9514 13.2292 62.8146V71.4575H6.67188V63.9411C6.81953 58.0664 8.76063 55.1586 13.8281 53.2175C16.1323 52.3344 18.6225 51.7394 21.0306 51.1642C22.1366 50.9 23.2042 50.6449 24.2131 50.3713C25.1042 53.6761 28.1309 56.1161 31.7191 56.1161C35.3073 56.1161 38.3341 53.676 39.2252 50.3711C40.2228 50.6417 41.2777 50.8942 42.3706 51.1558C42.8181 51.2628 43.2734 51.3719 43.7319 51.4838C43.7273 51.5956 43.7233 51.7075 43.7233 51.8205V54.115C43.7233 58.1289 46.6117 61.4805 50.4223 62.2119V71.4577H35.5814C34.7184 71.4577 34.0188 72.1572 34.0188 73.0203C34.0188 73.8833 34.7183 74.583 35.5814 74.583H50.4283C50.5492 77.5903 53.0366 80 56.0781 80C59.1967 80 61.7339 77.4671 61.7339 74.3535V62.363C66.2703 62.3908 70.2231 64.0547 73.8145 67.4494C74.1105 67.7292 74.4966 67.8764 74.8883 67.8764C75.0969 67.8764 75.3072 67.8347 75.5061 67.7489C76.0792 67.5021 76.4505 66.9378 76.4505 66.3138V39.6214C76.4505 38.9977 76.0795 38.4336 75.5066 38.1866ZM52.6688 25.8722C52.6688 27.2014 51.5833 28.2828 50.2492 28.2828H49.308V23.4614H50.2492C51.5833 23.4614 52.6688 24.543 52.6688 25.8722ZM22.0044 8.57346C22.4767 8.53612 22.9066 8.28659 23.1731 7.89503C28.2612 0.420494 36.1006 3.19659 43.0484 6.38456C45.1977 7.37237 48.1533 7.3294 50.7652 6.36424C51.8177 11.7057 50.1797 15.7186 47.1264 20.0808C46.3827 19.6907 45.3131 18.8402 44.2288 17.3722C43.4541 16.3261 42.5619 15.3246 41.2917 15.0819C40.1148 14.8569 39.0447 15.3461 37.9645 15.9099C36.3792 16.7328 33.6359 17.3775 31.7191 17.3775C29.8038 17.3775 27.0578 16.7325 25.4722 15.9116C24.3888 15.346 23.3186 14.8569 22.1436 15.0822C20.8758 15.3249 19.9841 16.3263 19.2081 17.3741C18.5023 18.3296 17.8031 19.0216 17.195 19.4977C17.1783 19.1044 17.1603 18.7132 17.1419 18.3272C16.8395 12.0228 16.9198 8.97471 22.0044 8.57346ZM10.7695 25.8722C10.7695 24.543 11.853 23.4614 13.1847 23.4614H14.1303V28.2828H13.1847C11.853 28.2828 10.7695 27.2014 10.7695 25.8722ZM17.2555 29.0703V23.0896C18.7442 22.4685 20.3337 21.1102 21.7209 19.2321C22.4403 18.2607 22.7059 18.1591 22.7292 18.1516C22.8162 18.1421 23.1017 18.1992 24.0308 18.6841C26.0656 19.7378 29.2989 20.5025 31.7192 20.5025C34.142 20.5025 37.3742 19.7375 39.4077 18.6817C40.3353 18.1975 40.6222 18.1433 40.7033 18.151C40.7313 18.1591 40.9967 18.2589 41.7163 19.2305C43.1044 21.1099 44.6942 22.4685 46.183 23.0896V29.0703C46.183 35.0194 42.5545 40.1386 37.3895 42.3427C37.347 42.3583 37.3055 42.3758 37.2648 42.3949C35.5561 43.1052 33.683 43.4981 31.7194 43.4981C29.7558 43.4981 27.8827 43.105 26.1739 42.3949C26.1333 42.3756 26.0917 42.3583 26.0492 42.3427C20.8839 40.1388 17.2555 35.0196 17.2555 29.0703ZM31.7191 52.9908C29.1561 52.9908 27.0709 50.9119 27.0709 48.3564V46.0002C28.5522 46.4056 30.1105 46.6235 31.7191 46.6235C33.3277 46.6235 34.8859 46.4056 36.3672 46.0002V48.3564C36.3672 50.9119 34.282 52.9908 31.7191 52.9908ZM46.8486 54.1149V51.8203C46.8486 48.9963 49.1528 46.6988 51.985 46.6988H60.0559V59.2363H51.985C49.1528 59.2364 46.8486 56.9389 46.8486 54.1149ZM56.0781 76.8749C54.6828 76.8749 53.5477 75.7438 53.5477 74.3535V62.3617H58.6087V74.3535C58.6086 75.7438 57.4734 76.8749 56.0781 76.8749ZM73.3253 62.9958C70.2273 60.7792 66.8763 59.5572 63.1811 59.2916V46.6433C66.8737 46.3777 70.2241 45.155 73.3253 42.9372V62.9958Z" fill="#171D34"/>
<path id="Vector_2" d="M28.5431 71.457C27.6802 71.457 26.9805 72.1566 26.9805 73.0197C26.9805 73.8827 27.68 74.5823 28.5431 74.5823H28.552C29.415 74.5823 30.1102 73.8828 30.1102 73.0197C30.1102 72.1566 29.4061 71.457 28.5431 71.457Z" fill="#171D34"/>
</g>
</g>
</g>
<defs>
<clipPath id="clip0_998_205747">
<rect width="80" height="80" fill="white"/>
</clipPath>
</defs>
</svg>
