<svg width="25" height="24" viewBox="0 0 25 24" fill="none" xmlns="http://www.w3.org/2000/svg">
<path d="M10.0127 14H12.0127M12.0127 14H14.0127M12.0127 14V16M12.0127 14V12" stroke="#171D34" stroke-width="1.5" stroke-linecap="round"/>
<path d="M2.0127 6.95C2.0127 6.067 2.0127 5.626 2.0827 5.258C2.23192 4.46784 2.61583 3.741 3.18435 3.17231C3.75286 2.60361 4.47958 2.21947 5.2697 2.07C5.6387 2 6.0807 2 6.9627 2C7.3487 2 7.5427 2 7.7287 2.017C8.52974 2.09223 9.28948 2.40728 9.9087 2.921C10.0527 3.04 10.1887 3.176 10.4627 3.45L11.0127 4C11.8287 4.816 12.2367 5.224 12.7247 5.495C12.9929 5.64449 13.2775 5.7626 13.5727 5.847C14.1107 6 14.6877 6 15.8407 6H16.2147C18.8467 6 20.1637 6 21.0187 6.77C21.0977 6.84 21.1727 6.915 21.2427 6.994C22.0127 7.849 22.0127 9.166 22.0127 11.798V14C22.0127 17.771 22.0127 19.657 20.8407 20.828C19.6697 22 17.7837 22 14.0127 22H10.0127C6.2417 22 4.3557 22 3.1847 20.828C2.0127 19.657 2.0127 17.771 2.0127 14V6.95Z" stroke="#171D34" stroke-width="1.5"/>
</svg>
