<svg width="80" height="80" viewBox="0 0 80 80" fill="none" xmlns="http://www.w3.org/2000/svg">
<g id="Capa_1" clip-path="url(#clip0_998_205550)">
<g id="XMLID_587_">
<g id="XMLID_1844_">
<path id="XMLID_157_" d="M9.375 29.5078H70.625V78.4356H9.375V29.5078Z" fill="white"/>
</g>
<g id="XMLID_1840_">
<path id="XMLID_153_" d="M67.6042 23.4638V5.91406H59.1667V16.5944L67.6042 23.4638Z" fill="#307FF4"/>
</g>
<path id="Vector 84" d="M9.99985 79V28H70.9998V79H9.99985Z" fill="#73C3FD"/>
<g id="XMLID_1837_">
<path id="XMLID_135_" d="M5.5 29.5097L40 1.5625L75.3125 29.5097H5.5Z" fill="#73C3FD"/>
</g>
<g id="XMLID_1414_">
<path id="XMLID_152_" d="M58.7255 39.7303C54.2622 35.267 47.0259 35.267 42.5628 39.7303L40.9044 41.3887L39.2459 39.7303C34.7828 35.2671 27.5464 35.2671 23.0833 39.7303C18.6202 44.1934 18.6202 51.4298 23.0833 55.8929L37.2283 70.0379C39.2586 72.0682 42.5503 72.0682 44.5806 70.0379L58.7256 55.8929C63.1887 51.4298 63.1887 44.1936 58.7255 39.7303Z" fill="white"/>
</g>
<g id="XMLID_1413_">
<path id="XMLID_136_" d="M40.9044 59.3633C37.0136 59.3633 33.8534 62.4831 33.7842 66.3573L37.6378 70.2109C39.4419 72.015 42.3669 72.015 44.1709 70.2109L48.0245 66.3573C47.9553 62.4831 44.7952 59.3633 40.9044 59.3633Z" fill="#F6BD3D"/>
</g>
<g id="XMLID_1410_">
<path id="XMLID_21_" d="M46.2848 53.9822C46.2848 51.0106 43.8759 48.6017 40.9042 48.6016C37.9327 48.6016 35.5238 51.0106 35.5238 53.9822C35.5238 56.9538 37.9327 59.3627 40.9042 59.3628C43.8759 59.3627 46.2848 56.9538 46.2848 53.9822Z" fill="#FCD0A3"/>
</g>
<g id="XMLID_160_">
<path id="XMLID_163_" d="M75.3125 76.8751H72.1875V31.0723H75.3125C75.9777 31.0723 76.5698 30.6513 76.7883 30.023C77.0067 29.3949 76.8037 28.6973 76.2822 28.2846L69.1667 22.6532V5.91367C69.1667 5.0507 68.467 4.35117 67.6042 4.35117H59.1667C58.3039 4.35117 57.6042 5.0507 57.6042 5.91367V13.5023L40.9697 0.337266C40.4014 -0.112422 39.5986 -0.112422 39.0303 0.337266L3.71781 28.2845C3.19625 28.6973 2.99312 29.3948 3.21172 30.0229C3.43015 30.6512 4.02234 31.0721 4.6875 31.0721H7.8125V76.8751H4.6875C3.82468 76.8751 3.125 77.5746 3.125 78.4376C3.125 79.3005 3.82468 80.0001 4.6875 80.0001H75.3125C76.1753 80.0001 76.875 79.3005 76.875 78.4376C76.875 77.5746 76.1753 76.8751 75.3125 76.8751ZM60.7292 7.47617H66.0417V20.1799L60.7292 15.9755V7.47617ZM10.9375 31.0723H32.9687C33.8316 31.0723 34.5312 30.3727 34.5312 29.5098C34.5312 28.6468 33.8316 27.9473 32.9687 27.9473H9.17953L40 3.55523L70.8205 27.9473H47.0312C46.1684 27.9473 45.4687 28.6468 45.4687 29.5098C45.4687 30.3727 46.1684 31.0723 47.0312 31.0723H69.0625V76.8751H10.9375V31.0723Z" fill="#171D34"/>
<path id="XMLID_1021_" d="M59.8305 38.6253C54.7652 33.5602 46.5233 33.56 41.458 38.6253L40.9044 39.1789L40.3508 38.6253C37.897 36.1716 34.6347 34.8203 31.1645 34.8203C27.6944 34.8203 24.432 36.1717 21.9783 38.6255C16.913 43.6908 16.913 51.9327 21.9783 56.9978L36.1233 71.1428C37.4003 72.4198 39.0983 73.1231 40.9044 73.1231C42.7105 73.1231 44.4083 72.4198 45.6855 71.1428L59.8305 56.9978C64.8958 51.9325 64.8958 43.6906 59.8305 38.6253ZM43.4756 68.933C42.7887 69.6198 41.8756 69.998 40.9044 69.998C39.933 69.998 39.0198 69.6198 38.3331 68.933L35.3708 65.9706C35.6323 63.1517 38.0319 60.9222 40.9044 60.9222C43.7769 60.9222 46.1764 63.1517 46.4378 65.9706L43.4756 68.933ZM40.9042 57.7973C38.7989 57.7973 37.0862 56.0845 37.0862 53.9792C37.0862 51.8739 38.7989 50.1612 40.9042 50.1611C43.0095 50.1611 44.7223 51.8739 44.7225 53.9792C44.7225 56.0844 43.0097 57.7972 40.9042 57.7973ZM57.6206 54.788L49.0209 63.3877C48.582 62.2348 47.8973 61.1797 46.9933 60.2903C46.5469 59.8512 46.06 59.4681 45.543 59.14C46.9566 57.8681 47.8473 56.0259 47.8473 53.9792C47.8472 50.1509 44.7323 47.0363 40.9041 47.0363C37.0758 47.0363 33.9611 50.1511 33.9611 53.9794C33.9611 56.0261 34.8519 57.8683 36.2655 59.1402C35.7484 59.4681 35.2614 59.8512 34.8152 60.2903C33.9111 61.1797 33.2264 62.2348 32.7875 63.3877L24.1878 54.788C20.3409 50.9411 20.3409 44.6819 24.1878 40.835C26.1116 38.9112 28.6375 37.9498 31.1642 37.9498C33.6905 37.9498 36.2175 38.9119 38.1406 40.835L39.7991 42.4936C40.092 42.7866 40.4895 42.9512 40.9039 42.9512C41.3183 42.9512 41.7158 42.7866 42.0087 42.4936L43.6672 40.8352C45.5306 38.9716 48.0083 37.9453 50.6436 37.9453C53.2789 37.9453 55.7567 38.9716 57.62 40.8352C61.4675 44.6819 61.4675 50.9411 57.6206 54.788Z" fill="#171D34"/>
<path id="XMLID_1107_" d="M40 31.0938C40.4109 31.0938 40.8141 30.9266 41.1045 30.6359C41.3952 30.3453 41.5625 29.9422 41.5625 29.5312C41.5625 29.1203 41.3953 28.7172 41.1045 28.4266C40.8141 28.1359 40.4109 27.9688 40 27.9688C39.5891 27.9688 39.1859 28.1359 38.8953 28.4266C38.6047 28.7172 38.4375 29.1203 38.4375 29.5312C38.4375 29.9422 38.6045 30.3453 38.8953 30.6359C39.1861 30.9266 39.5891 31.0938 40 31.0938Z" fill="#171D34"/>
</g>
</g>
</g>
<defs>
<clipPath id="clip0_998_205550">
<rect width="80" height="80" fill="white"/>
</clipPath>
</defs>
</svg>
