<svg width="20" height="20" viewBox="0 0 20 20" fill="none" xmlns="http://www.w3.org/2000/svg">
<g clip-path="url(#clip0_1094_79916)">
<path d="M10 20C15.5228 20 20 15.5228 20 10C20 4.47715 15.5228 0 10 0C4.47715 0 0 4.47715 0 10C0 15.5228 4.47715 20 10 20Z" fill="#171D34"/>
<path d="M14.25 6.25C13.1956 6.25 12.2431 6.685 11.5619 7.38531L10.6538 8.31875L11.6356 9.32781L12.5706 8.36656C12.9966 7.92875 13.5922 7.65625 14.25 7.65625C15.5422 7.65625 16.5938 8.70781 16.5938 10.0003C16.5938 11.2925 15.5422 12.3441 14.25 12.3441C13.5922 12.3441 12.9966 12.0716 12.5706 11.6334C8.89762 7.85769 8.44356 7.39091 8.43813 7.38531C7.75688 6.685 6.80438 6.25 5.75 6.25C3.67906 6.25 2 7.92906 2 10.0003C2 12.0712 3.67906 13.7503 5.75 13.7503C6.80438 13.7503 7.75688 13.3153 8.43813 12.615L9.34625 11.6816L8.36438 10.6725L7.42938 11.6334C7.00344 12.0716 6.40781 12.3441 5.75 12.3441C4.45781 12.3441 3.40625 11.2925 3.40625 10.0003C3.40625 8.70781 4.45781 7.65625 5.75 7.65625C6.40781 7.65625 7.00344 7.92875 7.42938 8.36656C7.59034 8.53206 11.5233 12.5753 11.5619 12.615C12.2431 13.3153 13.1956 13.7503 14.25 13.7503C16.3209 13.7503 18 12.0712 18 10.0003C18 7.92906 16.3209 6.25 14.25 6.25Z" fill="white"/>
</g>
<defs>
<clipPath id="clip0_1094_79916">
<rect width="20" height="20" fill="white"/>
</clipPath>
</defs>
</svg>
