<svg width="48" height="48" viewBox="0 0 48 48" fill="none" xmlns="http://www.w3.org/2000/svg">
<g clip-path="url(#clip0_1807_55215)">
<path d="M29.4188 8.89666C29.4188 8.89666 34.0182 2.92722 32.6957 1.21469C32.2449 0.631094 31.8605 1.42366 30.9284 1.42366C29.8331 1.42366 29.8331 0.707031 28.7377 0.707031C27.6425 0.707031 27.6425 1.42366 26.5473 1.42366C25.4522 1.42366 25.4522 0.707031 24.3572 0.707031C23.2621 0.707031 23.2621 1.42366 22.1669 1.42366C21.2336 1.42366 20.8508 0.620781 20.3971 1.20466C19.0739 2.90772 23.606 8.89656 23.606 8.89656C3.58993 22.0551 10.0438 39.9502 21.8616 39.9502H31.2341C43.0876 39.9502 49.5015 22.0988 29.4188 8.89666Z" fill="#F6BD3D"/>
<path d="M29.4188 8.89666C29.4188 8.89666 34.0182 2.92722 32.6957 1.21469C32.2449 0.631094 31.8605 1.42366 30.9284 1.42366C29.8331 1.42366 29.8331 0.707031 28.7377 0.707031C27.6425 0.707031 27.6425 1.42366 26.5473 1.42366C26.4934 1.42366 26.4441 1.42066 26.3953 1.41728C25.9552 3.30353 23.9722 6.24222 22.8375 7.81563C23.2844 8.47141 23.606 8.89656 23.606 8.89656C23.339 9.07206 23.0778 9.24859 22.8201 9.42578C41.9442 22.5706 35.5452 39.9501 23.8493 39.9501H31.2341C43.0876 39.9502 49.5015 22.0988 29.4188 8.89666Z" fill="#F6BD3D"/>
<path d="M30.274 11.0187C27.6015 11.6936 24.9611 11.6937 22.2881 11.0187C21.3577 10.7837 20.8304 9.73757 21.1652 8.78666C21.1689 8.77607 21.1727 8.76538 21.1764 8.75478C21.4571 7.95753 22.2532 7.51016 23.0335 7.706C25.2219 8.25547 27.3396 8.25557 29.5287 7.706C30.309 7.51007 31.105 7.95753 31.3858 8.75478C31.3896 8.76538 31.3933 8.77607 31.3971 8.78666C31.7317 9.73766 31.2044 10.7837 30.274 11.0187Z" fill="#FFE07D"/>
<path d="M5.14526 43.0201L15.3233 46.8085C16.1878 47.1303 17.1027 47.295 18.025 47.295H28.5143C29.9823 47.295 31.4199 46.8778 32.6599 46.0922L45.7935 37.7699C46.66 37.0005 46.8206 35.7074 46.1687 34.7494C45.4554 33.7012 44.2755 33.5189 42.9771 34.1329L30.1903 39.763L30.2054 37.6884C30.0361 35.9857 28.725 34.6191 27.0306 34.3793L19.2439 33.4827C17.4476 33.2286 16.55 32.6266 14.984 31.7106C12.8462 30.4599 10.4139 29.8008 7.93714 29.8008H5.14526V43.0201Z" fill="#FFDDCE"/>
<path d="M5.14526 43.0201L15.3233 46.8085C16.1878 47.1303 17.1027 47.295 18.025 47.295H28.5143C29.9823 47.295 31.4199 46.8778 32.6599 46.0922L45.7935 37.7699C46.66 37.0005 46.8206 35.7074 46.1687 34.7494C45.4554 33.7012 44.2755 33.5189 42.9771 34.1329L30.1903 39.763L30.2054 37.6884C30.0361 35.9857 28.725 34.6191 27.0306 34.3793L19.2439 33.4827C17.4476 33.2286 16.55 32.6266 14.984 31.7106C12.8462 30.4599 10.4139 29.8008 7.93714 29.8008H5.14526V43.0201Z" fill="#FCCCB7"/>
<path d="M29.2507 35.5508L29.2504 35.6008L29.2834 35.5863C29.2728 35.5742 29.2616 35.5626 29.2507 35.5508Z" fill="#F5DBCC"/>
<path d="M7.33537 45.046C7.33537 45.7844 6.73668 46.3831 5.99821 46.3831H2.77106C2.03259 46.3831 1.4339 45.7844 1.4339 45.046V28.6731C1.4339 27.9346 2.03259 27.3359 2.77106 27.3359H5.99821C6.73668 27.3359 7.33537 27.9346 7.33537 28.6731V45.046Z" fill="#73C3FD"/>
<path d="M46.75 34.3561C45.8546 33.0402 44.3358 32.7189 42.6858 33.4954L41.8113 33.8804C43.1901 30.9414 43.3612 27.6651 42.6748 24.5704C41.8865 21.016 39.9823 17.5728 37.0153 14.3363C36.753 14.05 36.3083 14.0307 36.022 14.2931C35.7358 14.5554 35.7165 15.0001 35.9789 15.2864C38.777 18.3385 40.568 21.5646 41.3022 24.8748C42.0756 28.3616 41.6256 31.9575 39.6521 34.831L30.9013 38.6841L30.9085 37.6958C30.9087 37.6708 30.9076 37.6459 30.9051 37.621C30.703 35.5898 29.1503 33.9714 27.1292 33.6854C27.1232 33.6845 27.1172 33.6837 27.1111 33.6831L19.3335 32.7876C16.3428 32.3619 15.5725 30.5696 11.5221 29.5477C11.2423 27.173 11.6153 24.6446 12.6378 22.1099C14.1776 18.2926 17.1901 14.5838 21.3663 11.3558C22.9228 12.4594 29.8671 12.5967 31.4211 11.173C32.2173 11.7776 32.9771 12.4007 33.6849 13.0314C33.8189 13.1508 33.986 13.2095 34.1524 13.2095C34.3459 13.2095 34.5386 13.1301 34.6775 12.9742C34.9357 12.6843 34.9101 12.2399 34.6202 11.9816C33.8443 11.2904 33.0097 10.6084 32.1344 9.94923C32.3395 9.07941 32.0525 8.06138 31.295 7.45538C33.4961 4.11676 34.1363 1.93154 33.252 0.786663C32.6446 0.000194192 31.889 0.369288 31.5663 0.526975C31.0193 0.793975 30.7211 0.808038 30.2179 0.478788C29.2578 -0.149431 28.2486 -0.169681 27.2576 0.478788C26.748 0.812257 26.3466 0.812257 25.8372 0.478788C24.877 -0.149431 23.8683 -0.169681 22.8771 0.478788C22.368 0.811975 22.0686 0.79135 21.5303 0.523788C21.208 0.363569 20.4532 -0.0116183 19.842 0.774944C18.9775 1.88757 19.5559 4.00388 21.6085 7.22898C21.4828 7.29694 21.363 7.37673 21.2511 7.46785C20.4348 6.60572 19.0972 5.70657 17.163 5.92257C15.5586 6.1021 14.3756 5.57194 13.6656 5.09569C13.3431 4.87969 12.9064 4.96576 12.6902 5.28807C12.474 5.61057 12.5601 6.04726 12.8826 6.26344C13.7877 6.87029 15.292 7.54585 17.319 7.31982C18.8134 7.15219 19.8274 7.91588 20.4586 8.69307C20.45 8.72307 20.442 8.75326 20.4346 8.78344C19.8962 8.79188 19.0915 8.84213 18.2054 9.02644C16.0743 9.46979 14.4923 10.4826 13.6305 11.9556C13.4345 12.2906 13.5471 12.7213 13.8822 12.9174C14.2174 13.1135 14.648 13.0007 14.844 12.6656C16.1259 10.4748 19.255 10.2069 20.4979 10.1901C20.5032 10.2055 20.5095 10.2208 20.5151 10.2362C16.08 13.6574 12.9922 17.4728 11.334 21.5837C10.2859 24.1822 9.86718 26.7854 10.0797 29.2594C9.40555 29.1596 8.72361 29.1061 8.03839 29.1014V28.6763C8.03839 27.5513 7.12321 26.6363 5.9983 26.6363H2.77105C1.64614 26.6363 0.730957 27.5514 0.730957 28.6763V45.0491C0.730957 46.1741 1.64614 47.0892 2.77105 47.0892H5.99821C7.12311 47.0892 8.0383 46.174 8.0383 45.0491V44.8489L15.0781 47.4691C16.0241 47.8211 17.0156 47.9997 18.025 47.9997H28.5143C30.118 47.9997 31.6817 47.546 33.0362 46.6877C47.0292 37.8171 46.1795 38.369 46.2603 38.2973C47.3874 37.2968 47.598 35.6024 46.75 34.3561ZM30.1019 10.34C27.5311 10.9891 25.0315 10.9891 22.4601 10.34C21.3568 10.0611 21.6765 8.09326 22.8622 8.39063C25.1627 8.96813 27.3992 8.96813 29.6998 8.39063C30.8649 8.09813 31.223 10.0567 30.1019 10.34ZM20.8882 1.77488C20.8938 1.7776 20.8993 1.78041 20.9046 1.78304C21.856 2.25591 22.6897 2.2816 23.6468 1.65544C24.8446 0.871413 24.9746 2.12851 26.5473 2.12851C27.3044 2.12851 27.7222 1.85513 28.0273 1.65544C28.537 1.32188 28.9385 1.32207 29.4481 1.65544C30.4094 2.28451 31.223 2.25348 32.2021 1.78126C32.3467 2.30269 32.0194 3.85716 29.9347 6.96085C28.8995 6.94323 27.3973 7.95994 23.1446 7.01354C21.0645 3.86972 20.7428 2.30016 20.8882 1.77488ZM45.365 37.2114L32.2836 45.5005C31.1546 46.2159 29.8512 46.5942 28.5144 46.5942H18.0251C17.1837 46.5942 16.3572 46.4454 15.5686 46.1518L8.0383 43.349V35.7782C8.0383 35.3899 7.72358 35.0752 7.33536 35.0752C6.94714 35.0752 6.63243 35.3899 6.63243 35.7782V45.0495C6.63243 45.3992 6.34789 45.6836 5.9983 45.6836H2.77105C2.42136 45.6836 2.13693 45.3991 2.13693 45.0495V28.6766C2.13693 28.3269 2.42136 28.0426 2.77105 28.0426H5.99821C6.34789 28.0426 6.63233 28.327 6.63233 28.6766V32.4917C6.63233 32.88 6.94705 33.1947 7.33527 33.1947C7.72349 33.1947 8.03821 32.88 8.03821 32.4917V30.5078C13.8536 30.5523 15.1611 33.6174 19.1453 34.181C19.1513 34.1819 19.1573 34.1827 19.1633 34.1833L26.9406 35.0787C28.3024 35.2753 29.3504 36.3597 29.5021 37.725L29.4923 39.0623H22.2394C21.8511 39.0623 21.5363 39.377 21.5363 39.7653C21.5363 40.1536 21.8511 40.4683 22.2394 40.4683H30.1902C30.279 40.4683 30.3816 40.4486 30.4708 40.4097C30.4851 40.4034 43.2455 34.7852 43.2604 34.7786C44.1801 34.3699 45.0187 34.3115 45.5874 35.1472C46.0295 35.7966 45.9317 36.6745 45.365 37.2114Z" fill="#171D34"/>
<path d="M26.4663 31.8958C26.8545 31.8958 27.1693 31.581 27.1693 31.1927V30.0274C29.1428 29.7072 30.2944 28.1097 30.5449 26.6195C30.8578 24.7579 29.8827 23.1389 28.0608 22.495C27.7388 22.3812 27.4426 22.2723 27.1692 22.1672V17.6848C28.0009 17.8227 28.5002 18.2532 28.5366 18.2853C28.8221 18.545 29.2641 18.5258 29.5261 18.2417C29.7893 17.9563 29.7713 17.5116 29.486 17.2483C29.4364 17.2026 28.5754 16.4274 27.1692 16.2653V15.2655C27.1692 14.8772 26.8545 14.5625 26.4662 14.5625C26.078 14.5625 25.7632 14.8772 25.7632 15.2655V16.3221C25.5937 16.3545 25.4201 16.3958 25.2417 16.4495C24.0492 16.8087 23.1578 17.8312 22.9153 19.1179C22.6953 20.2856 23.0655 21.4085 23.8814 22.0484C24.3499 22.4158 24.9396 22.7522 25.7632 23.1118V28.6713C24.9502 28.6369 24.4498 28.4843 23.5768 27.9132C23.252 27.7007 22.8162 27.7916 22.6037 28.1166C22.3911 28.4414 22.4822 28.8772 22.8071 29.0897C23.9547 29.8405 24.7219 30.0363 25.7632 30.0768V31.1927C25.7632 31.581 26.078 31.8958 26.4663 31.8958ZM24.7491 20.9422C24.3478 20.6274 24.1745 20.0281 24.297 19.3783C24.4106 18.7757 24.8249 18.0435 25.6473 17.7958C25.6864 17.784 25.7248 17.7739 25.7632 17.7636V21.5609C25.3423 21.3507 25.0122 21.1485 24.7491 20.9422ZM27.5922 23.8206C29.3416 24.4389 29.2332 25.9409 29.1583 26.3865C29.0032 27.3091 28.326 28.2941 27.1692 28.5905V23.6683C27.3061 23.7183 27.4459 23.7688 27.5922 23.8206Z" fill="#171D34"/>
</g>
<defs>
<clipPath id="clip0_1807_55215">
<rect width="48" height="48" fill="white"/>
</clipPath>
</defs>
</svg>
