<svg width="44" height="48" viewBox="0 0 44 48" fill="none" xmlns="http://www.w3.org/2000/svg">
<path d="M33.5886 18.76C32.6746 18.76 31.7927 18.6223 30.9625 18.3666V39.5443C30.9625 40.9109 29.8547 42.0187 28.4881 42.0187H7.88837V44.5875C7.88837 45.9541 8.99621 47.0618 10.3627 47.0618H34.8748C36.2414 47.0618 37.3491 45.954 37.3491 44.5875V17.9297C36.2066 18.4625 34.9323 18.76 33.5886 18.76Z" fill="#73C3FD"/>
<path d="M27.7406 2.96875H3.97611C2.60952 2.96875 1.50177 4.07659 1.50177 5.44309V39.5468C1.50177 40.9134 2.60961 42.0212 3.97611 42.0212H28.4882C29.8547 42.0212 30.9625 40.9133 30.9625 39.5468V18.5566" fill="white"/>
<path d="M33.5887 18.7607C38.5094 18.7607 42.4984 14.7708 42.4984 9.84909C42.4984 4.92736 38.5094 0.9375 33.5887 0.9375C28.668 0.9375 24.679 4.92736 24.679 9.84909C24.679 14.7708 28.668 18.7607 33.5887 18.7607Z" fill="#307FF4"/>
<path d="M7.78534 10.3711H24.6789V14.3305H7.78534V10.3711Z" fill="#F6BD3D"/>
<path d="M33.5927 15.9691C33.075 15.9691 32.6552 15.5493 32.6552 15.0316V8.62109C32.6552 8.10341 33.075 7.68359 33.5927 7.68359C34.1103 7.68359 34.5302 8.10341 34.5302 8.62109V15.0316C34.5302 15.5493 34.1104 15.9691 33.5927 15.9691Z" fill="#171D34"/>
<path d="M33.5886 6.54297C34.1064 6.54297 34.5261 6.12324 34.5261 5.60547C34.5261 5.0877 34.1064 4.66797 33.5886 4.66797C33.0709 4.66797 32.6511 5.0877 32.6511 5.60547C32.6511 6.12324 33.0709 6.54297 33.5886 6.54297Z" fill="#171D34"/>
<path d="M43.4358 9.84909C43.4358 4.41825 39.0184 0 33.5886 0C31.3411 0 29.2671 0.756938 27.608 2.02931H3.97611C2.09483 2.02931 0.56427 3.55978 0.56427 5.44116V39.5449C0.56427 41.4262 2.09483 42.9568 3.97611 42.9568H6.95089V44.5881C6.95089 46.4693 8.48146 48 10.3627 48H34.8747C36.756 48 38.2865 46.4694 38.2865 44.5881V31.5847C38.2865 31.0671 37.8667 30.6472 37.349 30.6472C36.8314 30.6472 36.4115 31.0671 36.4115 31.5847V44.5881C36.4115 45.4355 35.7221 46.125 34.8747 46.125H10.3627C9.51533 46.125 8.82589 45.4356 8.82589 44.5881V42.9568H28.4882C30.3695 42.9568 31.9001 41.4263 31.9001 39.5449V19.5532C32.4489 19.6485 33.013 19.6982 33.5886 19.6982C34.5694 19.6982 35.5171 19.554 36.4116 19.2858V23.1087C36.4116 23.6264 36.8315 24.0462 37.3491 24.0462C37.8668 24.0462 38.2866 23.6264 38.2866 23.1087V18.5033C41.3515 16.8321 43.4358 13.5795 43.4358 9.84909ZM30.0251 39.545C30.0251 40.3924 29.3357 41.0819 28.4882 41.0819H3.97611C3.12871 41.0819 2.43927 40.3925 2.43927 39.545V5.44116C2.43927 4.59375 3.12871 3.90431 3.97611 3.90431H25.7421C24.5654 5.45428 23.8366 7.36209 23.7501 9.43313H7.78536C7.26768 9.43313 6.84786 9.85294 6.84786 10.3706V14.3301C6.84786 14.8478 7.26768 15.2676 7.78536 15.2676H24.6789C24.892 15.2676 25.0885 15.1964 25.246 15.0766C26.366 16.8582 28.0403 18.2576 30.0251 19.0309V39.545ZM23.7414 11.3081V13.3926H8.72286V11.3081H23.7414ZM33.5886 17.8231C29.1927 17.8231 25.6164 14.246 25.6164 9.849C25.6164 5.45212 29.1927 1.87491 33.5886 1.87491C37.9845 1.87491 41.5608 5.45203 41.5608 9.849C41.5608 14.246 37.9845 17.8231 33.5886 17.8231Z" fill="#171D34"/>
<path d="M37.3488 28.2676C36.9625 28.2676 36.6084 28.0204 36.4723 27.6599C36.3325 27.2899 36.447 26.8549 36.7544 26.6047C37.0624 26.3541 37.5057 26.324 37.8435 26.5337C38.1806 26.7429 38.3532 27.1557 38.262 27.5428C38.1633 27.9615 37.7796 28.2676 37.3488 28.2676Z" fill="#171D34"/>
<path d="M24.6789 20.4023H7.78534C7.26765 20.4023 6.84784 19.9826 6.84784 19.4648C6.84784 18.9472 7.26765 18.5273 7.78534 18.5273H24.6789C25.1966 18.5273 25.6164 18.9472 25.6164 19.4648C25.6164 19.9825 25.1967 20.4023 24.6789 20.4023Z" fill="#171D34"/>
<path d="M24.6789 24.8477H7.78534C7.26765 24.8477 6.84784 24.4278 6.84784 23.9102C6.84784 23.3924 7.26765 22.9727 7.78534 22.9727H24.6789C25.1966 22.9727 25.6164 23.3924 25.6164 23.9102C25.6164 24.4278 25.1967 24.8477 24.6789 24.8477Z" fill="#171D34"/>
<path d="M24.6789 29.2969H7.78534C7.26765 29.2969 6.84784 28.8771 6.84784 28.3594C6.84784 27.8417 7.26765 27.4219 7.78534 27.4219H24.6789C25.1966 27.4219 25.6164 27.8417 25.6164 28.3594C25.6164 28.8772 25.1967 29.2969 24.6789 29.2969Z" fill="#171D34"/>
<path d="M24.6789 33.7422H7.78534C7.26765 33.7422 6.84784 33.3224 6.84784 32.8047C6.84784 32.2869 7.26765 31.8672 7.78534 31.8672H24.6789C25.1966 31.8672 25.6164 32.2869 25.6164 32.8047C25.6164 33.3224 25.1967 33.7422 24.6789 33.7422Z" fill="#171D34"/>
</svg>
