<svg width="500" height="500" viewBox="0 0 500 500" fill="none" xmlns="http://www.w3.org/2000/svg">
<g clip-path="url(#clip0_723_38813)">
<path d="M305.762 20.3693C290.816 20.3457 154.46 22.4171 79.95 134.327C40.2884 193.897 13.6765 291.309 52.5537 344.384C64.0345 360.057 70.0525 356.61 131.422 393.709C215.66 444.633 215.266 457.745 250.139 469.397C295.536 484.566 362.612 484.534 412.856 447.286C469.868 405.021 478.299 334.787 486.743 264.443C495.03 195.408 503.426 125.463 459.347 73.9467C413.65 20.5393 340.203 20.4236 305.762 20.3693Z" fill="#99C1FB"/>
<path d="M419.761 467.228H88.1777C81.9347 467.228 76.9884 461.929 77.3856 455.668L104.409 29.6085C104.772 23.886 109.496 19.4316 115.201 19.4316H446.785C453.028 19.4316 457.974 24.7297 457.577 30.9913L430.553 457.051C430.19 462.773 425.466 467.228 419.761 467.228Z" fill="white"/>
<path d="M446.376 214.931C446.359 214.931 446.341 214.931 446.324 214.93C445.866 214.902 445.517 214.507 445.545 214.049L456.746 30.9402C456.924 28.1306 455.965 25.4575 454.044 23.411C452.139 21.3809 449.561 20.2629 446.784 20.2629H115.201C109.949 20.2629 105.573 24.3909 105.239 29.6608L96.1737 172.582C96.1448 173.041 95.7559 173.39 95.2911 173.36C94.8325 173.331 94.4845 172.935 94.5134 172.477L103.579 29.5556C103.969 23.412 109.073 18.5996 115.201 18.5996H446.784C450.025 18.5996 453.034 19.9041 455.257 22.2728C457.495 24.6578 458.613 27.7725 458.406 31.0437L447.205 214.151C447.178 214.592 446.812 214.931 446.376 214.931Z" fill="#171D34"/>
<path d="M429.282 124.602H120.777C120.317 124.602 119.945 124.229 119.945 123.77C119.945 123.311 120.317 122.938 120.777 122.938H429.282C429.741 122.938 430.113 123.311 430.113 123.77C430.113 124.229 429.741 124.602 429.282 124.602Z" fill="#307FF4"/>
<path d="M419.727 192.152H393.044C391.042 192.152 389.112 191.311 387.749 189.844C386.386 188.377 385.688 186.39 385.836 184.392L387.807 157.675C388.085 153.92 391.251 150.979 395.016 150.979H421.699C423.701 150.979 425.631 151.82 426.994 153.287C428.357 154.754 429.055 156.741 428.907 158.738L426.936 185.456C426.658 189.211 423.492 192.152 419.727 192.152ZM395.015 152.642C392.117 152.642 389.679 154.907 389.466 157.797L387.495 184.515C387.379 186.075 387.902 187.566 388.967 188.712C390.032 189.858 391.48 190.489 393.044 190.489H419.727C422.626 190.489 425.063 188.225 425.276 185.334L427.248 158.616C427.363 157.056 426.84 155.566 425.775 154.42C424.711 153.274 423.263 152.642 421.698 152.642H395.015V152.642Z" fill="#307FF4"/>
<path d="M415.673 247.09H388.99C386.987 247.09 385.057 246.248 383.694 244.781C382.331 243.314 381.634 241.327 381.781 239.33L383.753 212.612C384.03 208.857 387.196 205.916 390.961 205.916H417.644C419.646 205.916 421.577 206.757 422.94 208.224C424.303 209.692 425 211.678 424.853 213.676L422.881 240.394C422.603 244.148 419.437 247.09 415.673 247.09ZM390.961 207.58C388.063 207.58 385.626 209.844 385.412 212.735L383.44 239.452C383.325 241.013 383.848 242.503 384.913 243.649C385.977 244.795 387.425 245.426 388.99 245.426H415.673C418.571 245.426 421.009 243.162 421.222 240.271L423.193 213.554C423.309 211.994 422.786 210.503 421.721 209.357C420.656 208.211 419.208 207.58 417.644 207.58H390.961Z" fill="#307FF4"/>
<path d="M411.53 304.133H384.847C382.844 304.133 380.914 303.291 379.551 301.824C378.188 300.357 377.491 298.37 377.639 296.373L379.61 269.655C379.887 265.9 383.053 262.959 386.818 262.959H413.501C415.504 262.959 417.434 263.8 418.797 265.268C420.16 266.735 420.857 268.722 420.709 270.719L418.738 297.437C418.461 301.191 415.295 304.133 411.53 304.133ZM386.818 264.622C383.919 264.622 381.482 266.887 381.269 269.777L379.298 296.495C379.182 298.055 379.705 299.546 380.77 300.692C381.834 301.838 383.282 302.469 384.847 302.469H411.53C414.429 302.469 416.866 300.205 417.079 297.314L419.05 270.596C419.166 269.036 418.643 267.546 417.578 266.4C416.514 265.254 415.066 264.623 413.501 264.623L386.818 264.622Z" fill="#99B9FF"/>
<path d="M433.972 67.4303C433.572 70.5688 428.938 73 423.356 73H137.644C131.465 73 126.585 70.044 127.028 66.5697C127.428 63.4312 132.062 61 137.644 61H423.356C429.535 61 434.415 63.956 433.972 67.4303Z" fill="#CADDFF"/>
<path d="M430.972 87.8945C430.572 90.7714 425.938 93 420.356 93H134.644C128.465 93 123.585 90.2903 124.028 87.1055C124.428 84.2284 129.062 82 134.644 82H420.356C426.535 82 431.415 84.7097 430.972 87.8945Z" fill="#CADDFF"/>
<path d="M435.972 46.4303C435.577 49.5691 431.004 52 425.494 52H143.506C137.407 52 132.59 49.044 133.028 45.5697C133.423 42.4312 137.996 40 143.506 40H425.494C431.593 40 436.41 42.9563 435.972 46.4303Z" fill="#CADDFF"/>
<path d="M297.432 397.43C297.215 400.436 294.713 402.765 291.699 402.765H106.685C103.348 402.765 100.713 399.933 100.953 396.605C101.169 393.599 103.671 391.271 106.685 391.271H291.699C295.036 391.271 297.671 394.102 297.432 397.43Z" fill="#CADDFF"/>
<path d="M296.049 418.176C295.833 421.182 293.331 423.511 290.317 423.511H105.302C101.966 423.511 99.3305 420.679 99.5698 417.352C99.786 414.345 102.288 412.017 105.302 412.017H290.317C293.653 412.017 296.288 414.848 296.049 418.176Z" fill="#CADDFF"/>
<path d="M294.666 438.923C294.45 441.929 291.948 444.258 288.934 444.258H103.919C100.583 444.258 97.9477 441.427 98.187 438.099C98.4032 435.092 100.905 432.764 103.919 432.764H288.934C292.27 432.764 294.905 435.595 294.666 438.923Z" fill="#CADDFF"/>
<path d="M350.628 192.152H312.945C312.486 192.152 312.114 191.78 312.114 191.32C312.114 190.861 312.486 190.489 312.945 190.489H350.628C353.527 190.489 355.964 188.224 356.178 185.334L358.149 158.616C358.264 157.056 357.742 155.565 356.677 154.419C355.612 153.273 354.165 152.642 352.6 152.642H241.115C240.655 152.642 240.283 152.269 240.283 151.81C240.283 151.351 240.656 150.979 241.115 150.979H352.6C354.603 150.979 356.533 151.82 357.896 153.287C359.259 154.754 359.956 156.741 359.808 158.738L357.837 185.456C357.56 189.211 354.394 192.152 350.628 192.152Z" fill="#307FF4"/>
<path d="M276.041 192.153H231.593C231.134 192.153 230.762 191.78 230.762 191.321C230.762 190.862 231.134 190.489 231.593 190.489H276.041C276.501 190.489 276.873 190.862 276.873 191.321C276.873 191.78 276.5 192.153 276.041 192.153Z" fill="#307FF4"/>
<path d="M149.126 192.152H122.011C120.008 192.152 118.078 191.311 116.715 189.844C115.353 188.376 114.655 186.389 114.803 184.392L116.774 157.675C117.051 153.92 120.218 150.979 123.983 150.979H173.496C173.955 150.979 174.327 151.351 174.327 151.81C174.327 152.269 173.955 152.642 173.496 152.642H123.983C121.084 152.642 118.647 154.906 118.433 157.797L116.462 184.514C116.346 186.075 116.869 187.565 117.934 188.711C118.999 189.857 120.446 190.488 122.011 190.488H149.126C149.585 190.488 149.957 190.861 149.957 191.32C149.957 191.78 149.585 192.152 149.126 192.152Z" fill="#307FF4"/>
<path d="M341.051 172.121C340.834 175.128 338.332 177.456 335.318 177.456H137.4C134.063 177.456 131.428 174.625 131.667 171.297C131.884 168.29 134.386 165.962 137.4 165.962H335.318C338.655 165.962 341.29 168.793 341.051 172.121Z" fill="#CADDFF"/>
<path d="M346.283 248.316H291.984C291.525 248.316 291.152 247.943 291.152 247.484C291.152 247.025 291.525 246.653 291.984 246.653H346.283C349.182 246.653 351.619 244.388 351.832 241.498L353.803 214.78C353.919 213.22 353.396 211.729 352.331 210.583C351.267 209.437 349.819 208.806 348.255 208.806H302.309C301.85 208.806 301.477 208.434 301.477 207.974C301.477 207.515 301.85 207.143 302.309 207.143H348.255C350.257 207.143 352.187 207.984 353.55 209.451C354.913 210.918 355.61 212.905 355.462 214.902L353.491 241.62C353.214 245.375 350.048 248.316 346.283 248.316Z" fill="#307FF4"/>
<path d="M183.639 248.315H117.665C115.663 248.315 113.733 247.474 112.37 246.007C111.007 244.54 110.31 242.553 110.457 240.555L112.429 213.838C112.706 210.083 115.872 207.142 119.637 207.142H150.897C151.357 207.142 151.729 207.514 151.729 207.973C151.729 208.433 151.357 208.805 150.897 208.805H119.637C116.738 208.805 114.301 211.069 114.088 213.96L112.116 240.678C112.001 242.238 112.524 243.728 113.588 244.874C114.653 246.021 116.101 246.652 117.665 246.652H183.639C184.098 246.652 184.47 247.024 184.47 247.483C184.47 247.943 184.098 248.315 183.639 248.315Z" fill="#307FF4"/>
<path d="M337.892 228.317C337.676 231.323 335.174 233.652 332.16 233.652H134.241C130.905 233.652 128.27 230.82 128.509 227.492C128.725 224.486 131.227 222.157 134.241 222.157H332.16C335.496 222.157 338.132 224.989 337.892 228.317Z" fill="#CADDFF"/>
<path d="M341.937 304.479H252.899C252.439 304.479 252.067 304.107 252.067 303.648C252.067 303.188 252.439 302.816 252.899 302.816H341.937C344.836 302.816 347.273 300.551 347.487 297.661L349.458 270.943C349.574 269.383 349.051 267.893 347.986 266.747C346.922 265.6 345.474 264.969 343.909 264.969H247.439C246.98 264.969 246.607 264.597 246.607 264.137C246.607 263.678 246.98 263.306 247.439 263.306H343.909C345.912 263.306 347.842 264.147 349.205 265.615C350.568 267.082 351.264 269.069 351.117 271.066L349.146 297.783C348.869 301.538 345.703 304.479 341.937 304.479Z" fill="#99B9FF"/>
<path d="M182.458 304.479H113.321C111.319 304.479 109.389 303.638 108.026 302.171C106.663 300.703 105.966 298.716 106.113 296.719L108.085 270.001C108.362 266.247 111.528 263.306 115.293 263.306H186.008C186.467 263.306 186.839 263.678 186.839 264.137C186.839 264.597 186.467 264.969 186.008 264.969H115.293C112.395 264.969 109.957 267.233 109.744 270.124L107.772 296.842C107.657 298.402 108.18 299.892 109.244 301.039C110.309 302.185 111.757 302.816 113.321 302.816H182.458C182.918 302.816 183.29 303.188 183.29 303.648C183.29 304.107 182.918 304.479 182.458 304.479Z" fill="#99B9FF"/>
<path d="M334.736 284.512C334.52 287.518 332.018 289.847 329.004 289.847H131.085C127.749 289.847 125.114 287.015 125.353 283.688C125.569 280.681 128.071 278.353 131.085 278.353H329.004C332.34 278.353 334.975 281.184 334.736 284.512Z" fill="#CADDFF"/>
<path d="M340.83 369.35H251.791C251.332 369.35 250.96 368.978 250.96 368.519C250.96 368.059 251.332 367.687 251.791 367.687H340.83C343.729 367.687 346.166 365.423 346.38 362.532L348.351 335.814C348.466 334.254 347.944 332.764 346.879 331.618C345.814 330.471 344.367 329.84 342.802 329.84H246.332C245.872 329.84 245.5 329.468 245.5 329.008C245.5 328.549 245.872 328.177 246.332 328.177H342.802C344.804 328.177 346.735 329.018 348.098 330.486C349.46 331.953 350.158 333.94 350.01 335.937L348.039 362.655C347.762 366.409 344.596 369.35 340.83 369.35Z" fill="#99B9FF"/>
<path d="M181.349 369.35H112.212C110.21 369.35 108.28 368.509 106.917 367.042C105.554 365.575 104.856 363.588 105.004 361.591L106.975 334.873C107.253 331.118 110.419 328.177 114.184 328.177H184.899C185.358 328.177 185.73 328.549 185.73 329.008C185.73 329.468 185.358 329.84 184.899 329.84H114.184C111.286 329.84 108.848 332.104 108.635 334.995L106.663 361.713C106.548 363.273 107.071 364.764 108.136 365.91C109.2 367.056 110.648 367.687 112.213 367.687H181.349C181.809 367.687 182.181 368.059 182.181 368.519C182.181 368.978 181.808 369.35 181.349 369.35Z" fill="#99B9FF"/>
<path d="M333.627 349.383C333.411 352.39 330.909 354.718 327.895 354.718H129.976C126.639 354.718 124.004 351.887 124.244 348.559C124.46 345.552 126.962 343.224 129.976 343.224H327.894C331.231 343.224 333.866 346.055 333.627 349.383Z" fill="#CADDFF"/>
<path d="M310.913 454.309L310.921 465.163C310.926 468.453 307.122 471.75 299.479 474.301C284.194 479.403 259.249 479.619 243.27 474.848C243.007 474.77 242.748 474.69 242.491 474.609C234.395 472.061 230.328 468.673 230.323 465.276L230.314 454.421C230.319 457.818 234.386 461.206 242.482 463.755C242.74 463.836 242.999 463.915 243.261 463.993C259.24 468.765 284.185 468.549 299.47 463.447C307.113 460.896 310.917 457.598 310.913 454.309Z" fill="#F6BD3D"/>
<path d="M297.962 444.736C298.226 444.814 298.484 444.893 298.743 444.975C314.681 449.991 315.006 458.261 299.47 463.447C284.185 468.549 259.24 468.765 243.261 463.994C242.998 463.915 242.74 463.836 242.482 463.755C226.546 458.739 226.221 450.469 241.757 445.283C257.04 440.181 281.983 439.965 297.962 444.736Z" fill="#FFE9B9"/>
<path d="M302.246 441.486L302.255 452.341C302.26 455.63 298.455 458.928 290.813 461.479C275.527 466.581 250.582 466.797 234.604 462.026C234.341 461.947 234.082 461.868 233.825 461.787C225.729 459.239 221.662 455.851 221.657 452.454L221.648 441.599C221.653 444.996 225.72 448.384 233.816 450.932C234.074 451.013 234.332 451.093 234.595 451.171C250.574 455.942 275.519 455.726 290.804 450.625C298.447 448.074 302.251 444.776 302.246 441.486Z" fill="#F6BD3D"/>
<path d="M289.296 431.913C289.559 431.992 289.818 432.071 290.077 432.153C306.015 437.168 306.34 445.439 290.804 450.625C275.519 455.727 250.574 455.942 234.595 451.171C234.332 451.093 234.074 451.014 233.816 450.932C217.88 445.916 217.555 437.646 233.091 432.46C248.374 427.359 273.317 427.143 289.296 431.913Z" fill="#FFE9B9"/>
<path d="M309.5 425.842L309.509 436.697C309.513 439.986 305.709 443.284 298.066 445.835C282.781 450.937 257.836 451.152 241.857 446.381C241.595 446.303 241.336 446.224 241.078 446.142C232.982 443.594 228.916 440.206 228.911 436.809L228.902 425.954C228.907 429.352 232.974 432.74 241.07 435.288C241.328 435.369 241.586 435.448 241.849 435.527C257.828 440.298 282.773 440.082 298.058 434.98C305.701 432.429 309.505 429.131 309.5 425.842Z" fill="#F6BD3D"/>
<path d="M269.053 450.605C259.258 450.605 249.456 449.447 241.638 447.113C241.371 447.034 241.109 446.953 240.848 446.871C232.662 444.294 228.151 440.721 228.145 436.809L228.137 425.955V425.954C228.136 425.532 228.478 425.189 228.901 425.189C228.901 425.189 228.901 425.189 228.901 425.189C229.323 425.189 229.666 425.53 229.666 425.952C229.671 429.095 233.91 432.232 241.298 434.557C241.553 434.637 241.808 434.716 242.067 434.793C257.821 439.497 282.83 439.255 297.815 434.254C304.759 431.936 308.739 428.87 308.735 425.842V425.842C308.734 425.419 309.076 425.077 309.498 425.076C309.499 425.076 309.499 425.076 309.499 425.076C309.921 425.076 310.264 425.418 310.264 425.84C310.264 425.842 310.264 425.844 310.264 425.846L310.273 436.695C310.277 440.478 306.029 443.982 298.308 446.559C290.253 449.248 279.657 450.604 269.053 450.605ZM229.669 429.798L229.675 436.807C229.679 439.95 233.919 443.086 241.307 445.412C241.561 445.492 241.816 445.57 242.075 445.647C257.831 450.351 282.84 450.11 297.824 445.108C304.768 442.79 308.747 439.724 308.743 436.696L308.738 429.684C306.867 431.964 303.317 434.03 298.3 435.704C282.804 440.876 257.911 441.12 241.629 436.258C241.363 436.179 241.101 436.099 240.839 436.016C235.434 434.315 231.631 432.179 229.669 429.798Z" fill="#171D34"/>
<path d="M296.548 416.268C296.812 416.346 297.07 416.426 297.329 416.507C313.267 421.523 313.592 429.793 298.056 434.979C282.771 440.081 257.826 440.297 241.847 435.526C241.584 435.448 241.326 435.368 241.068 435.287C225.132 430.271 224.807 422.001 240.343 416.815C255.627 411.714 280.569 411.498 296.548 416.268Z" fill="white"/>
<path d="M269.044 439.75C259.249 439.75 249.447 438.593 241.629 436.258C241.363 436.179 241.101 436.099 240.839 436.016C232.681 433.448 228.171 429.888 228.137 425.991C228.104 422.192 232.353 418.676 240.102 416.089C255.595 410.918 280.486 410.674 296.767 415.535H296.768C297.035 415.615 297.297 415.695 297.56 415.777C305.719 418.345 310.23 421.906 310.264 425.803C310.297 429.602 306.048 433.118 298.299 435.704C290.244 438.393 279.648 439.75 269.044 439.75ZM269.388 413.625C258.884 413.625 248.379 414.939 240.586 417.54C233.62 419.866 229.64 422.941 229.666 425.977C229.693 429.112 233.933 432.239 241.298 434.557C241.553 434.637 241.808 434.716 242.067 434.793C257.821 439.497 282.83 439.255 297.816 434.254C304.781 431.928 308.761 428.853 308.735 425.817C308.707 422.682 304.467 419.555 297.101 417.237C296.845 417.156 296.59 417.078 296.33 417C288.77 414.743 279.079 413.625 269.388 413.625Z" fill="#171D34"/>
<path d="M291.643 422.49L293.036 424.168L288.187 424.847C288.972 426.017 288.839 426.896 288.427 427.585L281.789 427.96C282.025 427.43 282.641 426.465 281.618 425.232C281.195 424.721 280.578 424.414 279.885 424.253C279.069 424.063 278.148 424.075 277.313 424.191C275.494 424.446 274.835 425.207 274.276 426.91C273.653 429.272 271.303 430.518 266.346 431.213C263.096 431.668 259.769 431.606 257.098 430.984C255.738 430.667 254.548 430.205 253.625 429.593L248.006 430.38L246.613 428.702L251.849 427.968C251.062 426.798 251.132 425.546 251.805 424.725L258.677 424.337C258.006 425.233 257.686 426.406 258.609 427.518C259.03 428.028 259.712 428.407 260.582 428.609C261.379 428.795 262.333 428.832 263.387 428.684C265.481 428.391 266.349 427.658 266.676 426.197C267.14 424.087 268.859 422.451 274.205 421.703C277.412 421.254 280.546 421.333 283.075 421.922C284.369 422.223 285.504 422.658 286.409 423.223L291.643 422.49Z" fill="#F6BD3D"/>
<path d="M401.703 453.185L401.711 464.576C401.716 468.028 397.724 471.488 389.704 474.166C373.663 479.52 347.485 479.746 330.716 474.739C330.441 474.657 330.169 474.574 329.899 474.488C321.403 471.814 317.135 468.259 317.13 464.694L317.121 453.303C317.126 456.867 321.394 460.423 329.89 463.097C330.16 463.183 330.432 463.266 330.707 463.348C347.476 468.355 373.654 468.128 389.695 462.774C397.715 460.097 401.707 456.637 401.703 453.185Z" fill="#F6BD3D"/>
<path d="M388.112 443.139C388.389 443.221 388.66 443.304 388.932 443.39C405.657 448.654 405.998 457.333 389.695 462.775C373.654 468.129 347.476 468.355 330.708 463.349C330.432 463.266 330.16 463.183 329.89 463.098C313.167 457.834 312.826 449.155 329.129 443.713C345.168 438.359 371.343 438.133 388.112 443.139Z" fill="#FFE9B9"/>
<path d="M404.042 437.387L404.051 448.778C404.056 452.23 400.064 455.69 392.044 458.368C376.003 463.722 349.825 463.948 333.056 458.941C332.78 458.859 332.509 458.776 332.238 458.691C323.743 456.016 319.475 452.461 319.47 448.896L319.461 437.505C319.466 441.07 323.734 444.625 332.23 447.299C332.5 447.385 332.772 447.468 333.047 447.55C349.816 452.557 375.994 452.331 392.035 446.977C400.055 444.299 404.047 440.838 404.042 437.387Z" fill="#F6BD3D"/>
<path d="M390.452 427.341C390.729 427.423 391 427.506 391.272 427.592C407.997 432.856 408.338 441.534 392.035 446.977C375.994 452.331 349.816 452.557 333.047 447.55C332.772 447.468 332.5 447.385 332.23 447.3C315.507 442.036 315.166 433.357 331.469 427.915C347.508 422.562 373.683 422.335 390.452 427.341Z" fill="#FFE9B9"/>
<path d="M397.339 421.465L397.348 432.856C397.353 436.308 393.361 439.768 385.34 442.446C369.3 447.8 343.122 448.026 326.353 443.019C326.077 442.937 325.806 442.854 325.535 442.769C317.039 440.095 312.772 436.539 312.767 432.974L312.758 421.583C312.763 425.148 317.031 428.703 325.527 431.378C325.797 431.463 326.069 431.546 326.344 431.628C343.113 436.635 369.291 436.409 385.332 431.055C393.352 428.378 397.344 424.917 397.339 421.465Z" fill="#F6BD3D"/>
<path d="M383.749 411.419C384.026 411.502 384.297 411.585 384.568 411.67C401.294 416.934 401.635 425.613 385.332 431.055C369.291 436.409 343.113 436.636 326.344 431.629C326.069 431.546 325.797 431.463 325.527 431.378C308.803 426.114 308.462 417.435 324.766 411.993C340.805 406.64 366.98 406.413 383.749 411.419Z" fill="#FFE9B9"/>
<path d="M405.648 408.35L405.657 419.741C405.661 423.193 401.669 426.653 393.649 429.331C377.608 434.685 351.43 434.911 334.662 429.904C334.386 429.822 334.114 429.739 333.844 429.653C325.348 426.979 321.08 423.424 321.075 419.859L321.066 408.468C321.071 412.033 325.339 415.588 333.835 418.262C334.106 418.348 334.377 418.431 334.653 418.513C351.421 423.52 377.599 423.294 393.64 417.94C401.661 415.262 405.653 411.802 405.648 408.35Z" fill="#F6BD3D"/>
<path d="M392.057 398.304C392.334 398.386 392.605 398.469 392.877 398.555C409.603 403.819 409.944 412.497 393.64 417.94C377.599 423.294 351.422 423.52 334.653 418.513C334.377 418.431 334.106 418.348 333.835 418.263C317.112 412.999 316.771 404.32 333.074 398.878C349.113 393.525 375.289 393.298 392.057 398.304Z" fill="#FFE9B9"/>
<path d="M395.82 395.358L395.829 406.749C395.834 410.201 391.841 413.662 383.821 416.339C367.78 421.693 341.602 421.92 324.833 416.913C324.558 416.831 324.286 416.747 324.016 416.662C315.52 413.988 311.252 410.432 311.247 406.867L311.238 395.476C311.243 399.041 315.511 402.597 324.007 405.271C324.277 405.356 324.549 405.439 324.825 405.522C341.593 410.528 367.771 410.302 383.812 404.948C391.833 402.271 395.825 398.81 395.82 395.358Z" fill="#F6BD3D"/>
<path d="M382.229 385.312C382.506 385.395 382.777 385.478 383.049 385.564C399.774 390.827 400.115 399.506 383.812 404.949C367.771 410.303 341.594 410.529 324.825 405.522C324.549 405.44 324.278 405.357 324.007 405.272C307.284 400.008 306.943 391.329 323.246 385.887C339.285 380.533 365.461 380.307 382.229 385.312Z" fill="#FFE9B9"/>
<path d="M402.98 380.716L402.989 392.107C402.994 395.559 399.001 399.019 390.981 401.697C374.94 407.051 348.762 407.277 331.994 402.27C331.718 402.188 331.446 402.105 331.176 402.02C322.68 399.345 318.412 395.79 318.407 392.225L318.398 380.834C318.404 384.399 322.671 387.954 331.167 390.629C331.438 390.714 331.709 390.797 331.985 390.879C348.754 395.886 374.931 395.66 390.972 390.306C398.993 387.628 402.985 384.168 402.98 380.716Z" fill="#F6BD3D"/>
<path d="M360.533 406.666C350.258 406.666 339.975 405.452 331.774 403.003C331.494 402.92 331.22 402.836 330.946 402.749C322.372 400.051 317.647 396.314 317.642 392.226L317.633 380.835V380.835C317.632 380.412 317.961 380.06 318.398 380.069C318.819 380.069 319.162 380.411 319.162 380.833C319.162 380.833 319.162 380.833 319.162 380.833V380.84C319.173 384.154 323.632 387.455 331.396 389.899C331.663 389.984 331.931 390.066 332.203 390.147C348.743 395.085 374.998 394.831 390.729 389.581C398.033 387.143 402.219 383.912 402.214 380.717V380.717C402.214 380.294 402.556 379.952 402.978 379.951C402.979 379.951 402.979 379.951 402.979 379.951C403.401 379.951 403.743 380.293 403.744 380.715C403.744 380.717 403.744 380.719 403.744 380.721L403.753 392.106C403.758 396.06 399.308 399.723 391.222 402.422C382.772 405.243 371.658 406.666 360.533 406.666ZM319.165 384.763L319.171 392.224C319.176 395.54 323.635 398.845 331.405 401.29C331.672 401.374 331.94 401.457 332.211 401.538C348.752 406.476 375.007 406.222 390.738 400.971C398.041 398.533 402.227 395.303 402.223 392.108L402.217 384.644C400.279 387.062 396.533 389.255 391.213 391.031C374.959 396.456 348.846 396.712 331.765 391.612C331.486 391.528 331.211 391.444 330.937 391.358C325.208 389.555 321.197 387.288 319.165 384.763Z" fill="#171D34"/>
<path d="M389.389 370.669C389.666 370.752 389.938 370.835 390.209 370.92C406.935 376.184 407.276 384.863 390.972 390.305C374.931 395.659 348.754 395.886 331.985 390.879C331.709 390.797 331.438 390.713 331.167 390.628C314.444 385.364 314.103 376.685 330.406 371.243C346.445 365.89 372.621 365.663 389.389 370.669Z" fill="white"/>
<path d="M360.524 395.275C350.249 395.275 339.967 394.061 331.765 391.612C331.486 391.528 331.211 391.444 330.937 391.358C322.393 388.669 317.668 384.945 317.633 380.872C317.599 376.904 322.049 373.227 330.164 370.518C346.417 365.093 372.528 364.837 389.607 369.936C389.888 370.02 390.163 370.105 390.438 370.191C398.983 372.88 403.709 376.604 403.744 380.676C403.778 384.645 399.328 388.322 391.213 391.031C382.764 393.851 371.649 395.275 360.524 395.275ZM360.886 367.859C349.858 367.859 338.83 369.238 330.648 371.969C323.321 374.414 319.135 377.655 319.162 380.859C319.191 384.166 323.65 387.461 331.396 389.899C331.663 389.983 331.931 390.065 332.203 390.147C348.743 395.085 374.998 394.831 390.729 389.58C398.056 387.134 402.242 383.894 402.214 380.69C402.186 377.383 397.726 374.088 389.979 371.65C389.711 371.566 389.443 371.484 389.17 371.402C381.233 369.032 371.06 367.859 360.886 367.859Z" fill="#171D34"/>
<path d="M371.065 372.708L369.036 374.483C370.872 374.721 372.255 374.997 373.327 375.284C374.07 375.484 374.663 375.688 375.153 375.889L371.172 378.021C370.66 377.836 369.967 377.557 368.936 377.281C367.99 377.027 366.76 376.775 365.125 376.599C362.044 376.266 360.403 376.724 359.756 377.289C358.996 377.954 360.172 378.556 363.465 379.637C368.139 381.092 369.148 382.447 367.071 384.263C365.019 386.058 360.28 387.268 354.364 387.083L352.011 389.141L347.365 388.64L349.555 386.723C347.805 386.496 346.193 386.176 344.888 385.826C343.877 385.555 343.05 385.265 342.484 384.987L346.605 382.78C347.338 383.12 348.282 383.471 349.43 383.779C350.576 384.086 351.924 384.351 353.464 384.517C356.167 384.808 358.523 384.564 359.446 383.756C360.321 382.991 359.357 382.343 356.425 381.461C352.181 380.187 349.874 378.805 352.109 376.849C354.14 375.074 358.669 373.999 364.228 374.122L366.419 372.206L371.065 372.708Z" fill="#F6BD3D"/>
<path d="M495.466 453.014L495.475 464.405C495.48 467.857 491.488 471.317 483.467 473.995C467.426 479.349 441.249 479.575 424.48 474.568C424.204 474.486 423.933 474.403 423.662 474.318C415.166 471.644 410.899 468.088 410.894 464.523L410.885 453.132C410.89 456.697 415.158 460.252 423.654 462.927C423.924 463.012 424.195 463.095 424.471 463.177C441.24 468.184 467.418 467.958 483.459 462.604C491.479 459.926 495.471 456.466 495.466 453.014Z" fill="#F6BD3D"/>
<path d="M481.876 442.967C482.152 443.049 482.424 443.132 482.695 443.218C499.421 448.482 499.762 457.16 483.459 462.603C467.418 467.957 441.24 468.183 424.471 463.176C424.196 463.094 423.924 463.011 423.654 462.926C406.93 457.662 406.589 448.983 422.893 443.541C438.932 438.188 465.107 437.961 481.876 442.967Z" fill="#FFE9B9"/>
<path d="M499.992 438.699L500.001 450.09C500.005 453.542 496.013 457.003 487.993 459.68C471.952 465.034 445.774 465.261 429.005 460.254C428.73 460.172 428.458 460.088 428.188 460.003C419.692 457.329 415.424 453.773 415.419 450.209L415.41 438.817C415.415 442.382 419.683 445.938 428.179 448.612C428.449 448.697 428.721 448.78 428.997 448.863C445.765 453.87 471.943 453.643 487.984 448.289C496.004 445.612 499.997 442.151 499.992 438.699Z" fill="#F6BD3D"/>
<path d="M486.401 428.653C486.678 428.736 486.949 428.819 487.221 428.904C503.946 434.168 504.287 442.847 487.984 448.29C471.943 453.644 445.766 453.87 428.997 448.863C428.721 448.781 428.449 448.698 428.179 448.612C411.456 443.349 411.115 434.67 427.418 429.227C443.457 423.874 469.633 423.647 486.401 428.653Z" fill="#FFE9B9"/>
<path d="M493.587 426.178L493.596 437.569C493.601 441.021 489.609 444.481 481.588 447.159C465.548 452.513 439.37 452.739 422.601 447.732C422.325 447.65 422.054 447.567 421.783 447.482C413.287 444.808 409.02 441.252 409.015 437.687L409.006 426.296C409.011 429.861 413.279 433.417 421.775 436.091C422.045 436.176 422.317 436.259 422.592 436.341C439.361 441.348 465.539 441.122 481.58 435.768C489.6 433.09 493.592 429.63 493.587 426.178Z" fill="#F6BD3D"/>
<path d="M479.997 416.132C480.274 416.214 480.545 416.298 480.816 416.383C497.542 421.647 497.883 430.326 481.58 435.768C465.539 441.122 439.361 441.348 422.592 436.342C422.317 436.259 422.045 436.176 421.775 436.091C405.051 430.827 404.71 422.148 421.014 416.706C437.053 411.353 463.228 411.126 479.997 416.132Z" fill="#FFE9B9"/>
<path d="M497.064 409.62L497.073 421.011C497.077 424.463 493.085 427.924 485.065 430.601C469.024 435.955 442.846 436.181 426.078 431.175C425.802 431.092 425.53 431.009 425.26 430.924C416.764 428.25 412.496 424.694 412.491 421.129L412.482 409.738C412.488 413.303 416.755 416.859 425.251 419.533C425.522 419.618 425.793 419.701 426.069 419.784C442.837 424.79 469.015 424.564 485.056 419.21C493.076 416.533 497.069 413.072 497.064 409.62Z" fill="#F6BD3D"/>
<path d="M483.473 399.574C483.75 399.657 484.022 399.74 484.293 399.826C501.019 405.089 501.36 413.768 485.056 419.211C469.015 424.565 442.838 424.791 426.069 419.784C425.793 419.702 425.522 419.619 425.251 419.533C408.528 414.27 408.187 405.591 424.49 400.148C440.529 394.795 466.705 394.568 483.473 399.574Z" fill="#FFE9B9"/>
<path d="M495.291 395.599L495.299 406.99C495.304 410.442 491.312 413.902 483.292 416.58C467.251 421.934 441.073 422.16 424.304 417.153C424.028 417.071 423.757 416.988 423.487 416.903C414.991 414.229 410.723 410.673 410.718 407.108L410.709 395.717C410.714 399.282 414.982 402.837 423.478 405.512C423.748 405.597 424.02 405.68 424.295 405.762C441.064 410.769 467.242 410.543 483.283 405.189C491.303 402.511 495.295 399.05 495.291 395.599Z" fill="#F6BD3D"/>
<path d="M481.7 385.552C481.977 385.634 482.248 385.717 482.52 385.803C499.245 391.067 499.586 399.746 483.283 405.188C467.242 410.542 441.064 410.768 424.295 405.762C424.02 405.679 423.748 405.596 423.478 405.511C406.755 400.247 406.414 391.568 422.717 386.126C438.756 380.773 464.932 380.546 481.7 385.552Z" fill="#FFE9B9"/>
<path d="M491.947 379.773L491.955 391.165C491.96 394.617 487.968 398.077 479.948 400.754C463.907 406.109 437.729 406.335 420.96 401.328C420.685 401.246 420.413 401.162 420.143 401.077C411.647 398.403 407.379 394.847 407.374 391.283L407.365 379.891C407.37 383.456 411.638 387.012 420.134 389.686C420.405 389.771 420.676 389.854 420.952 389.937C437.72 394.944 463.898 394.717 479.939 389.363C487.959 386.686 491.952 383.225 491.947 379.773Z" fill="#F6BD3D"/>
<path d="M478.356 369.727C478.633 369.81 478.904 369.893 479.176 369.979C495.901 375.243 496.242 383.921 479.939 389.364C463.898 394.718 437.72 394.944 420.952 389.938C420.676 389.855 420.404 389.772 420.134 389.687C403.411 384.423 403.07 375.744 419.373 370.302C435.412 364.948 461.587 364.722 478.356 369.727Z" fill="#FFE9B9"/>
<path d="M495.492 364.621L495.5 376.012C495.505 379.464 491.513 382.925 483.493 385.602C467.452 390.956 441.274 391.182 424.505 386.176C424.23 386.093 423.958 386.01 423.688 385.925C415.192 383.251 410.924 379.695 410.919 376.13L410.91 364.739C410.915 368.304 415.183 371.86 423.679 374.534C423.95 374.619 424.221 374.702 424.497 374.785C441.265 379.791 467.443 379.565 483.484 374.211C491.504 371.534 495.497 368.073 495.492 364.621Z" fill="#F6BD3D"/>
<path d="M481.901 354.575C482.178 354.658 482.449 354.741 482.721 354.826C499.446 360.09 499.787 368.769 483.484 374.211C467.443 379.566 441.265 379.792 424.497 374.785C424.221 374.703 423.949 374.619 423.679 374.534C406.956 369.27 406.615 360.592 422.918 355.149C438.957 349.796 465.132 349.569 481.901 354.575Z" fill="#FFE9B9"/>
<path d="M489.906 353.034L489.914 364.425C489.919 367.877 485.927 371.338 477.907 374.015C461.866 379.369 435.688 379.596 418.919 374.589C418.644 374.507 418.372 374.423 418.102 374.338C409.606 371.664 405.338 368.108 405.333 364.543L405.324 353.152C405.329 356.717 409.597 360.273 418.093 362.947C418.364 363.032 418.635 363.115 418.911 363.198C435.679 368.204 461.857 367.978 477.898 362.624C485.918 359.947 489.911 356.486 489.906 353.034Z" fill="#F6BD3D"/>
<path d="M476.315 342.988C476.592 343.071 476.864 343.154 477.135 343.239C493.86 348.503 494.201 357.182 477.898 362.625C461.857 367.979 435.679 368.205 418.911 363.198C418.635 363.116 418.363 363.032 418.093 362.948C401.37 357.684 401.029 349.005 417.332 343.562C433.371 338.209 459.547 337.982 476.315 342.988Z" fill="#FFE9B9"/>
<path d="M495.31 337.155L495.319 348.546C495.324 351.998 491.332 355.459 483.311 358.136C467.27 363.49 441.092 363.717 424.324 358.71C424.048 358.628 423.776 358.544 423.506 358.459C415.01 355.785 410.742 352.229 410.737 348.665L410.729 337.273C410.734 340.838 415.001 344.394 423.497 347.068C423.768 347.153 424.039 347.237 424.315 347.319C441.084 352.326 467.261 352.099 483.302 346.745C491.323 344.068 495.315 340.607 495.31 337.155Z" fill="#F6BD3D"/>
<path d="M481.719 327.109C481.996 327.192 482.268 327.275 482.539 327.36C499.265 332.624 499.606 341.303 483.302 346.746C467.262 352.1 441.084 352.326 424.315 347.319C424.039 347.237 423.768 347.154 423.497 347.069C406.774 341.805 406.433 333.126 422.736 327.683C438.775 322.33 464.951 322.103 481.719 327.109Z" fill="#FFE9B9"/>
<path d="M490.378 320.367L490.387 331.758C490.392 335.21 486.4 338.671 478.38 341.348C462.339 346.702 436.161 346.929 419.392 341.922C419.116 341.84 418.845 341.756 418.574 341.671C410.078 338.997 405.811 335.441 405.806 331.876L405.797 320.485C405.802 324.05 410.07 327.606 418.566 330.28C418.836 330.365 419.108 330.448 419.383 330.531C436.152 335.537 462.33 335.311 478.371 329.957C486.391 327.28 490.383 323.819 490.378 320.367Z" fill="#F6BD3D"/>
<path d="M476.788 310.321C477.064 310.404 477.336 310.487 477.607 310.572C494.333 315.836 494.674 324.515 478.371 329.958C462.33 335.312 436.152 335.538 419.383 330.531C419.108 330.449 418.836 330.365 418.566 330.281C401.843 325.017 401.501 316.338 417.805 310.895C433.843 305.542 460.019 305.315 476.788 310.321Z" fill="#FFE9B9"/>
<path d="M493.529 304.44L493.538 315.832C493.543 319.284 489.55 322.744 481.53 325.421C465.489 330.776 439.311 331.002 422.542 325.995C422.267 325.913 421.995 325.829 421.725 325.744C413.229 323.07 408.961 319.514 408.956 315.95L408.947 304.558C408.952 308.123 413.22 311.679 421.716 314.353C421.987 314.438 422.258 314.521 422.534 314.604C439.302 319.611 465.48 319.384 481.521 314.03C489.541 311.353 493.534 307.892 493.529 304.44Z" fill="#F6BD3D"/>
<path d="M451.084 330.39C440.809 330.39 430.526 329.176 422.325 326.728C422.045 326.644 421.77 326.56 421.497 326.474C412.923 323.775 408.199 320.038 408.192 315.951L408.184 304.56C408.184 304.56 408.184 304.56 408.184 304.56V304.559C408.183 304.137 408.525 303.794 408.947 303.794C408.948 303.794 408.948 303.794 408.948 303.794C409.37 303.794 409.713 304.135 409.713 304.557C409.713 304.558 409.713 304.558 409.713 304.558V304.564C409.723 307.878 414.182 311.18 421.946 313.624C422.213 313.708 422.482 313.79 422.753 313.871C439.293 318.81 465.548 318.556 481.28 313.305C488.583 310.867 492.769 307.636 492.765 304.441C492.765 304.019 493.106 303.676 493.529 303.676C493.529 303.676 493.53 303.676 493.53 303.676C493.951 303.676 494.294 304.018 494.294 304.44C494.294 304.441 494.294 304.444 494.294 304.446L494.303 315.831C494.309 319.784 489.858 323.448 481.773 326.147C473.323 328.967 462.208 330.39 451.084 330.39ZM409.716 308.487L409.722 315.949C409.726 319.265 414.186 322.569 421.956 325.015C422.222 325.099 422.49 325.181 422.762 325.262C439.302 330.201 465.556 329.947 481.289 324.696C488.592 322.258 492.778 319.027 492.774 315.833L492.768 308.369C490.829 310.787 487.083 312.98 481.764 314.756C465.51 320.181 439.396 320.437 422.316 315.337C422.036 315.253 421.761 315.169 421.487 315.083C415.759 313.28 411.748 311.012 409.716 308.487Z" fill="#171D34"/>
<path d="M479.94 294.394C480.217 294.477 480.488 294.56 480.76 294.646C497.485 299.909 497.826 308.588 481.523 314.031C465.482 319.385 439.304 319.611 422.536 314.604C422.26 314.522 421.988 314.439 421.718 314.354C404.995 309.09 404.654 300.411 420.957 294.968C436.996 289.615 463.171 289.389 479.94 294.394Z" fill="white"/>
<path d="M451.075 319C440.8 319 430.517 317.786 422.316 315.337C422.037 315.254 421.762 315.17 421.488 315.083C412.944 312.394 408.219 308.67 408.184 304.598C408.149 300.63 412.6 296.952 420.715 294.243C436.967 288.818 463.079 288.563 480.158 293.662C480.439 293.746 480.714 293.83 480.989 293.916C489.534 296.606 494.26 300.329 494.294 304.402C494.329 308.37 489.879 312.047 481.764 314.756C473.314 317.577 462.199 319 451.075 319ZM451.437 291.584C440.409 291.584 429.38 292.964 421.198 295.694C413.872 298.14 409.685 301.381 409.713 304.585C409.742 307.892 414.201 311.187 421.947 313.625C422.213 313.709 422.482 313.791 422.754 313.872C439.293 318.811 465.548 318.557 481.28 313.306C488.606 310.86 492.792 307.62 492.765 304.416C492.736 301.109 488.276 297.814 480.529 295.376C480.261 295.292 479.993 295.209 479.721 295.128C471.784 292.758 461.61 291.584 451.437 291.584Z" fill="#171D34"/>
<path d="M460.822 297.269L460.256 299.723C458.479 299.639 455.287 299.417 450.703 299.802C446.57 300.15 445.547 300.832 445.862 301.403C445.972 301.597 446.257 301.756 446.748 301.887C447.95 302.209 450.38 302.371 454.479 302.51C458.866 302.629 461.954 302.939 464.022 303.494C465.746 303.956 466.759 304.589 467.225 305.421C468.232 307.232 465.083 309.117 457.989 310.139L459.147 312.215L452.906 312.74L451.831 310.807C447.534 311.104 443.191 311.085 440.52 310.841L441.106 308.299C444.043 308.543 448.035 308.655 452.169 308.307C455.8 308.001 458.033 307.345 457.583 306.531C457.435 306.265 457.063 306.052 456.436 305.884C455.242 305.564 453.121 305.402 449.847 305.328C445.422 305.23 441.75 304.956 439.318 304.304C437.784 303.892 436.744 303.33 436.319 302.567C435.322 300.776 438.49 299.04 445.062 298.041L443.987 296.108L450.223 295.582L451.216 297.374C455.517 297.075 458.539 297.12 460.822 297.269Z" fill="#F6BD3D"/>
<path d="M409.251 264.308L358.604 277.923C355.982 278.628 355.024 281.85 356.835 283.873L362.136 289.795C363.477 291.292 363.352 293.593 361.856 294.936L332.966 320.887C331.468 322.232 329.164 322.109 327.819 320.611L296.938 286.232C295.593 284.735 293.289 284.612 291.792 285.957L214.451 355.211C212.954 356.556 212.831 358.859 214.175 360.356L225.464 372.923C226.809 374.421 229.113 374.544 230.61 373.199L289.972 320.114C291.47 318.769 293.773 318.893 295.118 320.39L325.988 354.757C327.333 356.254 329.637 356.377 331.134 355.033L377.975 312.96C379.474 311.613 381.781 311.739 383.125 313.24L388.843 319.627C390.667 321.664 394.001 321.042 394.967 318.484L413.607 269.114C414.656 266.337 412.119 263.538 409.251 264.308Z" fill="#73C3FD"/>
<path d="M68.4314 188.696C67.9611 188.696 67.492 188.595 67.0506 188.396C65.3639 187.634 64.6116 185.641 65.3739 183.955C65.7428 183.138 66.4085 182.513 67.2472 182.197C68.0859 181.88 68.9982 181.909 69.815 182.278C71.5017 183.041 72.2537 185.033 71.4916 186.719C71.1225 187.537 70.4571 188.161 69.6184 188.477C69.2327 188.623 68.8317 188.696 68.4314 188.696ZM68.4337 183.643C68.2318 183.643 68.0294 183.679 67.8348 183.753C67.4117 183.913 67.0759 184.227 66.8899 184.64C66.5052 185.491 66.8846 186.496 67.7356 186.88C68.1474 187.066 68.6074 187.082 69.031 186.921C69.4542 186.762 69.7899 186.446 69.9762 186.034C70.3606 185.183 69.9812 184.179 69.1302 183.794C68.9078 183.693 68.6707 183.643 68.4337 183.643Z" fill="#171D34"/>
<path d="M54.0571 167.044C53.3994 167.044 52.732 166.908 52.0949 166.62C50.9308 166.094 50.0411 165.146 49.5899 163.951C49.1389 162.756 49.1801 161.457 49.7064 160.293C50.792 157.89 53.6305 156.817 56.0335 157.904C58.4366 158.989 59.5083 161.828 58.4228 164.231H58.4226C57.6245 165.997 55.8796 167.044 54.0571 167.044ZM54.0689 159.143C52.8802 159.143 51.7421 159.826 51.2216 160.978C50.8786 161.737 50.8517 162.584 51.146 163.364C51.4401 164.143 52.0201 164.761 52.7795 165.104C54.3474 165.813 56.1978 165.113 56.9064 163.547C57.6143 161.979 56.9154 160.128 55.348 159.42C54.9332 159.232 54.4975 159.143 54.0689 159.143Z" fill="#171D34"/>
<path d="M56.8716 142.852C56.5349 142.852 56.2177 142.646 56.0927 142.312L55.0179 139.44C54.8567 139.01 55.0749 138.53 55.5053 138.37C55.9355 138.208 56.4151 138.427 56.5758 138.857L57.6505 141.729C57.8117 142.159 57.5933 142.638 57.1631 142.799C57.0672 142.835 56.9688 142.852 56.8716 142.852Z" fill="#171D34"/>
<path d="M53.1098 132.801C52.773 132.801 52.4559 132.594 52.3308 132.26L51.2561 129.388C51.0951 128.958 51.3133 128.479 51.7435 128.318C52.1741 128.157 52.6532 128.375 52.814 128.805L53.8887 131.677C54.0499 132.107 53.8317 132.587 53.4013 132.748C53.3051 132.784 53.2064 132.801 53.1098 132.801Z" fill="#171D34"/>
<path d="M58.0352 135.027C57.6997 135.027 57.3841 134.823 57.2578 134.491C57.0943 134.062 57.3098 133.581 57.7392 133.417L60.605 132.326C61.0359 132.163 61.5148 132.378 61.6783 132.807C61.8417 133.237 61.6263 133.717 61.1969 133.881L58.331 134.972C58.2336 135.009 58.1337 135.027 58.0352 135.027Z" fill="#171D34"/>
<path d="M48.0059 138.846C47.6705 138.846 47.3548 138.642 47.2285 138.31C47.065 137.881 47.2805 137.4 47.7099 137.237L50.5757 136.145C51.0064 135.982 51.4855 136.198 51.649 136.627C51.8124 137.056 51.597 137.537 51.1676 137.7L48.3017 138.791C48.2041 138.829 48.1044 138.846 48.0059 138.846Z" fill="#171D34"/>
<path d="M464.014 270.629C463.923 270.629 463.831 270.614 463.741 270.582C463.306 270.431 463.077 269.958 463.228 269.524L486.403 202.859C486.554 202.425 487.026 202.195 487.462 202.346C487.896 202.497 488.125 202.971 487.974 203.405L464.799 270.07C464.68 270.414 464.358 270.629 464.014 270.629Z" fill="#171D34"/>
<path d="M454.993 265.857C454.965 265.857 454.937 265.856 454.908 265.853C454.451 265.806 454.118 265.398 454.164 264.941L457.49 232.115C457.536 231.658 457.943 231.325 458.401 231.371C458.858 231.418 459.191 231.826 459.144 232.283L455.819 265.109C455.776 265.538 455.415 265.857 454.993 265.857Z" fill="#171D34"/>
<path d="M177.329 476.953H16.2937C6.62662 476.953 -0.60602 468.081 1.34202 458.612L25.7734 339.848C27.8281 329.861 36.62 322.693 46.8165 322.693H184.946L177.329 476.953Z" fill="#99C1FB"/>
<path d="M177.329 477.978H16.293C11.3761 477.978 6.77415 475.792 3.66702 471.981C0.560196 468.17 -0.653458 463.222 0.337922 458.406L24.7684 339.642C26.9108 329.228 36.1826 321.669 46.8153 321.669H184.945C185.226 321.669 185.494 321.784 185.687 321.987C185.88 322.19 185.982 322.464 185.968 322.744L178.352 477.003C178.325 477.549 177.875 477.978 177.329 477.978ZM46.8153 323.718C37.151 323.718 28.7234 330.589 26.7766 340.055L2.34547 458.819C1.47871 463.029 2.53955 467.354 5.25577 470.686C7.97168 474.018 11.9945 475.928 16.293 475.928H176.353L183.868 323.718L46.8153 323.718Z" fill="#171D34"/>
<path d="M197.946 476.953H166.696C157.029 476.953 149.796 468.081 151.744 458.612L178.654 327.802C179.266 324.828 181.883 322.693 184.92 322.693H192.957C196.288 322.693 199.062 325.25 199.333 328.571L210.341 463.506C210.931 470.749 205.213 476.953 197.946 476.953Z" fill="#5B9AF8"/>
<path d="M197.945 477.978H166.695C161.778 477.978 157.176 475.792 154.069 471.981C150.963 468.17 149.749 463.222 150.74 458.406L177.649 327.596C178.355 324.161 181.413 321.669 184.919 321.669H192.956C196.793 321.669 200.041 324.664 200.354 328.488L211.361 463.424C211.666 467.16 210.384 470.883 207.844 473.64C205.302 476.397 201.695 477.978 197.945 477.978ZM184.919 323.718C182.381 323.718 180.168 325.523 179.657 328.008L152.747 458.819C151.881 463.029 152.942 467.354 155.658 470.686C158.374 474.018 162.397 475.928 166.695 475.928H197.945C201.17 475.928 204.151 474.622 206.336 472.251C208.522 469.88 209.581 466.804 209.318 463.59L198.311 328.654C198.086 325.886 195.733 323.718 192.956 323.718H184.919Z" fill="#171D34"/>
<path d="M187.988 473.335H166.696C163.18 473.335 159.89 471.772 157.669 469.048C155.448 466.324 154.58 462.786 155.288 459.342L164.122 416.401C164.236 415.846 164.777 415.491 165.332 415.604C165.886 415.718 166.243 416.26 166.129 416.814L157.295 459.754C156.712 462.592 157.427 465.508 159.257 467.753C161.088 469.998 163.799 471.286 166.696 471.286H187.987C188.553 471.286 189.012 471.745 189.012 472.311C189.012 472.876 188.553 473.335 187.988 473.335Z" fill="#171D34"/>
<path d="M197.947 473.335C197.381 473.335 196.922 472.877 196.922 472.311C196.922 471.745 197.381 471.286 197.947 471.286C199.859 471.286 201.627 470.511 202.924 469.105C204.219 467.699 204.848 465.874 204.692 463.968L202.184 433.217C202.138 432.653 202.558 432.159 203.122 432.113C203.693 432.069 204.18 432.486 204.227 433.051L206.735 463.801C206.937 466.285 206.119 468.662 204.43 470.494C202.741 472.326 200.438 473.335 197.947 473.335Z" fill="#171D34"/>
<path d="M196.222 348.581C195.694 348.581 195.246 348.175 195.202 347.64L194.679 341.231C194.633 340.667 195.053 340.173 195.617 340.127C196.184 340.08 196.676 340.501 196.722 341.065L197.245 347.473C197.291 348.037 196.871 348.532 196.307 348.578C196.278 348.58 196.25 348.581 196.222 348.581Z" fill="#171D34"/>
<path d="M175.823 365.635C175.754 365.635 175.685 365.629 175.615 365.614C175.061 365.5 174.704 364.958 174.818 364.404L182.197 328.531C182.461 327.245 183.606 326.312 184.919 326.312H192.956C194.392 326.312 195.609 327.433 195.727 328.865L196.069 333.062C196.115 333.627 195.695 334.121 195.131 334.167C194.566 334.216 194.072 333.793 194.026 333.229L193.684 329.032C193.654 328.662 193.327 328.361 192.956 328.361H184.919C184.574 328.361 184.274 328.606 184.205 328.944L176.825 364.817C176.726 365.301 176.299 365.635 175.823 365.635Z" fill="#171D34"/>
<path d="M155.387 386.061H29.3002C28.7345 386.061 28.2754 385.602 28.2754 385.036C28.2754 384.47 28.7342 384.012 29.3002 384.012H155.387C158.664 384.012 161.48 381.784 162.235 378.595L173.349 331.676C173.48 331.125 174.031 330.783 174.583 330.915C175.134 331.045 175.474 331.597 175.344 332.148L164.23 379.067C163.255 383.186 159.618 386.061 155.387 386.061Z" fill="#171D34"/>
<path d="M106.724 385.036L103.192 399.283C102.621 401.693 100.468 403.396 97.9912 403.396H73.0189C70.3002 403.396 68.3305 400.803 69.059 398.184L72.7163 385.036L106.724 385.036Z" fill="white"/>
<path d="M97.9913 404.42H73.0189C71.3998 404.42 69.9093 403.681 68.93 402.391C67.9507 401.102 67.6382 399.469 68.0719 397.909L71.7293 384.762C71.8527 384.319 72.2563 384.012 72.7166 384.012H106.724C107.039 384.012 107.337 384.157 107.531 384.405C107.725 384.653 107.794 384.977 107.718 385.283L104.187 399.53C103.505 402.405 100.957 404.42 97.9913 404.42ZM73.4954 386.061L70.0469 398.458C69.7859 399.395 69.9735 400.377 70.5619 401.152C71.1502 401.926 72.0461 402.371 73.0189 402.371H97.9913C100.003 402.371 101.731 401.004 102.194 399.047L105.414 386.061L73.4954 386.061Z" fill="#171D34"/>
<path d="M143.881 466.046H9.93307C9.36732 466.046 8.9082 465.587 8.9082 465.021C8.9082 464.455 9.36732 463.996 9.93307 463.996H143.881C144.447 463.996 144.906 464.455 144.906 465.021C144.906 465.587 144.447 466.046 143.881 466.046Z" fill="#171D34"/>
<path d="M78.6348 317.303H68.1795C65.3547 317.303 63.0645 319.593 63.0645 322.418H83.7495C83.7495 319.593 81.4596 317.303 78.6348 317.303Z" fill="#5B9AF8"/>
<path d="M83.749 323.443H63.0639C62.4982 323.443 62.0391 322.984 62.0391 322.418C62.0391 319.033 64.7931 316.278 68.1789 316.278H78.634C82.0198 316.278 84.7738 319.033 84.7738 322.418C84.7735 322.984 84.3148 323.443 83.749 323.443ZM64.2187 321.393H82.5942C82.1385 319.632 80.5356 318.328 78.634 318.328H68.1789C66.2774 318.328 64.6744 319.633 64.2187 321.393Z" fill="#171D34"/>
<path d="M162.431 317.303H151.976C149.151 317.303 146.861 319.593 146.861 322.418H167.546C167.546 319.593 165.256 317.303 162.431 317.303Z" fill="#5B9AF8"/>
<path d="M167.546 323.443H146.86C146.295 323.443 145.836 322.984 145.836 322.418C145.836 319.033 148.59 316.278 151.976 316.278H162.431C165.817 316.278 168.571 319.033 168.571 322.418C168.57 322.984 168.111 323.443 167.546 323.443ZM148.015 321.393H166.391C165.935 319.632 164.332 318.328 162.431 318.328H151.975C150.074 318.328 148.471 319.633 148.015 321.393Z" fill="#171D34"/>
<path d="M159.702 317.028L161.386 307.02C162.581 299.923 157.796 294.169 150.698 294.169H88.0005C80.9027 294.169 74.1807 299.923 72.9856 307.02L71.3008 317.028H76.0993L77.4106 309.239C78.3406 303.715 83.5725 299.237 89.0963 299.237H147.896C153.42 299.237 157.144 303.715 156.214 309.239L154.903 317.028H159.702Z" fill="white"/>
<path d="M159.702 318.053H154.904C154.602 318.053 154.316 317.92 154.121 317.69C153.926 317.459 153.843 317.155 153.893 316.858L155.205 309.069C155.608 306.674 155.057 304.44 153.653 302.779C152.28 301.156 150.236 300.262 147.897 300.262H89.0976C84.0598 300.262 79.2713 304.365 78.4225 309.409L77.1109 317.198C77.0275 317.692 76.6006 318.053 76.1003 318.053H71.3021C71.0005 318.053 70.7143 317.92 70.5197 317.69C70.325 317.46 70.2416 317.155 70.2915 316.858L71.976 306.851C73.2483 299.293 80.4375 293.145 88.0018 293.145H150.7C154.405 293.145 157.666 294.588 159.882 297.208C162.14 299.877 163.033 303.422 162.398 307.191L160.714 317.198C160.63 317.691 160.203 318.053 159.702 318.053ZM156.115 316.003H158.836L160.376 306.85C160.909 303.686 160.177 300.731 158.316 298.531C156.496 296.378 153.791 295.193 150.699 295.193H88.0009C81.3926 295.193 75.1101 300.575 73.9966 307.19L72.513 316.003H75.2329L76.4003 309.068C77.4078 303.082 83.1032 298.212 89.097 298.212H147.896C150.848 298.212 153.448 299.363 155.217 301.455C157.017 303.584 157.73 306.408 157.225 309.409L156.115 316.003Z" fill="#171D34"/>
<path d="M147.585 290.024H92.5097C90.2901 290.024 88.188 291.824 87.8145 294.043L87.0044 298.854C86.6309 301.073 88.1273 302.873 90.3465 302.873H145.421C147.641 302.873 149.743 301.073 150.117 298.854L150.926 294.043C151.3 291.824 149.804 290.024 147.585 290.024Z" fill="#99C1FB"/>
<path d="M145.422 303.898H90.3467C88.9777 303.898 87.7669 303.358 86.9382 302.378C86.0963 301.382 85.7608 300.071 85.9943 298.684L86.8043 293.873C87.2647 291.141 89.7704 289 92.5099 289H147.585C148.954 289 150.165 289.54 150.994 290.52C151.836 291.515 152.171 292.827 151.938 294.213L151.128 299.024C150.667 301.757 148.161 303.898 145.422 303.898ZM92.5096 291.049C90.8008 291.049 89.1138 292.498 88.8255 294.213L88.0155 299.024C87.8834 299.806 88.0567 300.527 88.5025 301.054C88.9356 301.566 89.5906 301.848 90.3464 301.848H145.421C147.13 301.848 148.818 300.399 149.106 298.684L149.916 293.873C150.048 293.092 149.875 292.371 149.429 291.844C148.996 291.331 148.341 291.049 147.584 291.049H92.5096Z" fill="#171D34"/>
<path d="M166.401 466.046C166.045 466.046 165.699 465.86 165.509 465.529C165.229 465.037 165.401 464.411 165.893 464.131L186.962 452.126V331.912C186.962 331.346 187.421 330.887 187.987 330.887C188.553 330.887 189.012 331.345 189.012 331.912V452.722C189.012 453.09 188.814 453.43 188.494 453.612L166.907 465.912C166.747 466.003 166.573 466.046 166.401 466.046Z" fill="#99C1FB"/>
</g>
<defs>
<clipPath id="clip0_723_38813">
<rect width="500" height="500" fill="white"/>
</clipPath>
</defs>
</svg>
