<svg width="300" height="300" viewBox="0 0 300 300" fill="none" xmlns="http://www.w3.org/2000/svg">
<path d="M175.71 278.07H69.9057C41.3865 278.07 15.7822 259.433 6.6564 231.446C6.45022 230.814 6.24718 230.174 6.0465 229.524C-1.85081 203.965 -6.13905 174.183 20.1074 134.376C46.3539 94.5681 28.3494 57.2299 62.095 43.6373C95.8406 30.0446 123.218 46.9937 161.65 30.4885C200.082 13.9832 276.947 14.9543 281.633 81.9465C286.32 148.94 267.572 146.026 275.071 168.357C282.57 190.689 307.88 283.896 175.71 278.07Z" fill="#99C1FB"/>
<path d="M61.7104 144.39C61.4109 144.39 61.168 144.147 61.168 143.847V141.042C61.168 140.743 61.4109 140.5 61.7104 140.5C62.0098 140.5 62.2527 140.743 62.2527 141.042V143.847C62.2527 144.147 62.0098 144.39 61.7104 144.39Z" fill="#171D34"/>
<path d="M61.7104 150.923C61.4109 150.923 61.168 150.68 61.168 150.381V147.576C61.168 147.277 61.4109 147.034 61.7104 147.034C62.0098 147.034 62.2527 147.277 62.2527 147.576V150.381C62.2527 150.68 62.0098 150.923 61.7104 150.923Z" fill="#171D34"/>
<path d="M59.8472 146.254H57.0424C56.7429 146.254 56.5 146.011 56.5 145.711C56.5 145.412 56.7429 145.169 57.0424 145.169H59.8472C60.1466 145.169 60.3895 145.412 60.3895 145.711C60.3894 146.011 60.1466 146.254 59.8472 146.254Z" fill="#171D34"/>
<path d="M66.3804 146.254H63.5756C63.2761 146.254 63.0332 146.011 63.0332 145.711C63.0332 145.412 63.2761 145.169 63.5756 145.169H66.3804C66.6798 145.169 66.9226 145.412 66.9226 145.711C66.9226 146.011 66.6798 146.254 66.3804 146.254Z" fill="#171D34"/>
<path d="M71.5614 159.814C71.1973 159.814 70.833 159.746 70.4834 159.61C69.7237 159.315 69.125 158.735 68.7985 157.978C68.1323 156.434 68.8243 154.623 70.3414 153.942C71.0741 153.613 71.8889 153.591 72.6368 153.882C73.3967 154.178 73.9954 154.757 74.3219 155.515C74.9885 157.059 74.2962 158.87 72.7787 159.551C72.389 159.726 71.9756 159.814 71.5614 159.814ZM71.5601 154.764C71.297 154.764 71.0344 154.82 70.7866 154.931C69.8067 155.371 69.3616 156.545 69.7945 157.548C70.0052 158.036 70.3898 158.41 70.8766 158.599C71.3514 158.784 71.8697 158.771 72.3347 158.562C73.3144 158.122 73.7594 156.948 73.3265 155.945C73.1157 155.456 72.7312 155.083 72.2444 154.893C72.0221 154.807 71.7909 154.764 71.5601 154.764Z" fill="#171D34"/>
<path d="M96.27 242.579L47.5803 252.465L37.3246 201.957L88.3897 191.588L98.1627 239.721L98.1627 239.721C98.4293 241.033 97.5816 242.313 96.2701 242.579L96.27 242.579Z" fill="#5B9AF8" stroke="#171D34"/>
<path d="M69.4881 181.741L69.4881 181.741L87.252 190.796L36.8337 201.034L21.7109 191.359L21.7109 191.359C21.1726 191.015 21.3162 190.179 21.9706 190.047L21.9707 190.047L65.5225 181.203C65.5226 181.203 65.5226 181.203 65.5227 181.203C66.8707 180.929 68.2699 181.12 69.4881 181.741Z" fill="#5B9AF8" stroke="#171D34"/>
<path d="M20.5844 191.34C20.6507 191.525 20.7565 191.683 20.8621 191.808C21.0763 192.063 21.3565 192.266 21.5757 192.407C21.5757 192.407 21.5757 192.407 21.5757 192.407L36.2951 201.871L46.4645 251.958L31.8157 242.144C31.8156 242.143 31.8156 242.143 31.8155 242.143C30.6925 241.39 29.9125 240.234 29.6391 238.92L29.1495 239.021L29.6391 238.92L20.3446 194.226C20.3445 194.225 20.3444 194.225 20.3444 194.224C20.0631 192.838 20.2832 191.923 20.5844 191.34Z" fill="#5B9AF8" stroke="#171D34"/>
<path d="M51.213 198.626L38.9081 201.125C37.7091 201.368 36.9344 202.538 37.1778 203.737L39.8158 216.73" stroke="#171D34" stroke-width="0.5" stroke-miterlimit="10"/>
<path d="M41.4851 224.949L46.7509 250.883" stroke="#171D34" stroke-width="0.5" stroke-miterlimit="10"/>
<path d="M27.5371 195.708L36.6686 201.579" stroke="#171D34" stroke-width="0.5" stroke-miterlimit="10"/>
<path d="M21.1887 189.921L20.959 190.844C20.8509 191.317 21.3645 191.738 21.7737 192.001L25.9382 194.679" stroke="#171D34" stroke-width="0.5" stroke-miterlimit="10"/>
<path d="M190.321 278.334H108.022C100.656 278.334 94.6855 272.363 94.6855 264.998V84.4294C94.6855 77.0641 100.656 71.0933 108.022 71.0933H190.321C197.686 71.0933 203.657 77.0641 203.657 84.4294V264.998C203.657 272.363 197.686 278.334 190.321 278.334Z" fill="#1C004F"/>
<path d="M191.109 273.198H107.235C102.914 273.198 99.4102 269.694 99.4102 265.373V84.0549C99.4102 79.7336 102.914 76.23 107.235 76.23H191.109C195.43 76.23 198.934 79.7336 198.934 84.0549V265.372C198.934 269.694 195.431 273.198 191.109 273.198Z" fill="white"/>
<path d="M165.719 88.0838H132.625C128.537 88.0838 125.223 84.7699 125.223 80.6815V74.0568C125.223 73.8396 125.398 73.6641 125.615 73.6641H173.122V80.6815C173.121 84.7699 169.807 88.0838 165.719 88.0838Z" fill="#1C004F"/>
<path d="M296.804 188.056H260.667C259.179 188.056 257.973 186.85 257.973 185.362V148.032C257.973 146.544 259.179 145.338 260.667 145.338H296.804C298.292 145.338 299.499 146.545 299.499 148.032V185.362C299.499 186.85 298.292 188.056 296.804 188.056Z" fill="#307FF4" stroke="#171D34"/>
<path d="M299.498 156.927H257.973V148.033C257.973 146.544 259.179 145.338 260.667 145.338H296.804C298.292 145.338 299.498 146.544 299.498 148.032V148.033V156.927Z" fill="#CADDFF" stroke="#171D34"/>
<path d="M288.287 168.338H293.969C294.312 168.338 294.589 168.061 294.589 167.718V162.036C294.589 161.694 294.311 161.417 293.969 161.417H288.287C287.945 161.417 287.668 161.695 287.668 162.036V167.718C287.667 168.061 287.945 168.338 288.287 168.338Z" fill="white"/>
<path d="M280.174 168.338H285.856C286.198 168.338 286.475 168.061 286.475 167.718V162.036C286.475 161.694 286.198 161.417 285.856 161.417H280.174C279.832 161.417 279.555 161.695 279.555 162.036V167.718C279.555 168.061 279.832 168.338 280.174 168.338Z" fill="white"/>
<path d="M268.62 147.61C268.114 147.61 267.703 147.199 267.703 146.693V141.674C267.703 141.167 268.114 140.757 268.62 140.757C269.127 140.757 269.538 141.167 269.538 141.674V146.693C269.538 147.2 269.127 147.61 268.62 147.61Z" fill="#171D34" stroke="#171D34"/>
<path d="M275.794 147.618C275.288 147.618 274.877 147.207 274.877 146.701V141.682C274.877 141.175 275.288 140.765 275.794 140.765C276.301 140.765 276.712 141.175 276.712 141.682V146.701C276.712 147.207 276.301 147.618 275.794 147.618Z" fill="#171D34" stroke="#171D34"/>
<path d="M282.636 147.613C282.13 147.613 281.719 147.202 281.719 146.695V141.677C281.719 141.17 282.13 140.759 282.636 140.759C283.142 140.759 283.553 141.17 283.553 141.677V146.695C283.553 147.202 283.143 147.613 282.636 147.613Z" fill="#171D34" stroke="#171D34"/>
<path d="M272 168.338H277.682C278.025 168.338 278.302 168.061 278.302 167.718V162.036C278.302 161.694 278.025 161.417 277.682 161.417H272C271.658 161.417 271.381 161.695 271.381 162.036V167.718C271.381 168.061 271.658 168.338 272 168.338Z" fill="white"/>
<path d="M263.887 168.338H269.569C269.911 168.338 270.188 168.061 270.188 167.718V162.036C270.188 161.694 269.91 161.417 269.569 161.417H263.887C263.545 161.417 263.268 161.695 263.268 162.036V167.718C263.268 168.061 263.545 168.338 263.887 168.338Z" fill="white"/>
<path d="M288.231 176.043H293.913C294.255 176.043 294.532 175.765 294.532 175.424V169.742C294.532 169.4 294.255 169.123 293.913 169.123H288.231C287.888 169.123 287.611 169.4 287.611 169.742V175.424C287.611 175.765 287.888 176.043 288.231 176.043Z" fill="white"/>
<path d="M280.115 176.043H285.797C286.14 176.043 286.417 175.765 286.417 175.424V169.742C286.417 169.4 286.139 169.123 285.797 169.123H280.115C279.773 169.123 279.496 169.4 279.496 169.742V175.424C279.496 175.765 279.774 176.043 280.115 176.043Z" fill="white"/>
<path d="M271.942 176.043H277.624C277.966 176.043 278.243 175.765 278.243 175.424V169.742C278.243 169.4 277.965 169.123 277.624 169.123H271.942C271.599 169.123 271.322 169.4 271.322 169.742V175.424C271.321 175.765 271.599 176.043 271.942 176.043Z" fill="white"/>
<path d="M263.826 176.043H269.508C269.851 176.043 270.128 175.765 270.128 175.424V169.742C270.128 169.4 269.85 169.123 269.508 169.123H263.826C263.484 169.123 263.207 169.4 263.207 169.742V175.424C263.207 175.765 263.484 176.043 263.826 176.043Z" fill="white"/>
<path d="M288.176 183.813H293.858C294.2 183.813 294.477 183.535 294.477 183.193V177.511C294.477 177.169 294.2 176.892 293.858 176.892H288.176C287.834 176.892 287.557 177.17 287.557 177.511V183.193C287.557 183.535 287.834 183.813 288.176 183.813Z" fill="white"/>
<path d="M280.055 183.813H285.737C286.079 183.813 286.356 183.535 286.356 183.193V177.511C286.356 177.169 286.078 176.892 285.737 176.892H280.055C279.713 176.892 279.436 177.17 279.436 177.511V183.193C279.436 183.535 279.713 183.813 280.055 183.813Z" fill="white"/>
<path d="M271.885 183.813H277.567C277.909 183.813 278.186 183.535 278.186 183.193V177.511C278.186 177.169 277.909 176.892 277.567 176.892H271.885C271.543 176.892 271.266 177.17 271.266 177.511V183.193C271.265 183.535 271.543 183.813 271.885 183.813Z" fill="white"/>
<path d="M263.768 183.813H269.45C269.792 183.813 270.069 183.535 270.069 183.193V177.511C270.069 177.169 269.791 176.892 269.45 176.892H263.768C263.425 176.892 263.148 177.17 263.148 177.511V183.193C263.148 183.535 263.425 183.813 263.768 183.813Z" fill="white"/>
<path d="M289.494 147.613C288.987 147.613 288.576 147.202 288.576 146.695V141.677C288.576 141.17 288.987 140.759 289.494 140.759C290 140.759 290.411 141.17 290.411 141.677V146.695C290.411 147.202 290 147.613 289.494 147.613Z" fill="#171D34" stroke="#171D34"/>
<path d="M239.279 181.29H130.866C127.625 181.29 124.774 178.707 124.499 175.52L119.236 114.468C118.961 111.282 121.367 108.698 124.608 108.698H233.021C236.263 108.698 239.113 111.282 239.388 114.468L244.651 175.52C244.926 178.707 242.52 181.29 239.279 181.29Z" fill="#307FF4"/>
<path d="M143.308 144.424H133.156C131.965 144.424 130.918 143.475 130.817 142.305L129.957 132.325C129.856 131.154 130.74 130.206 131.93 130.206H142.082C143.273 130.206 144.319 131.154 144.42 132.325L145.281 142.305C145.382 143.475 144.498 144.424 143.308 144.424Z" fill="#5B9AF8"/>
<path d="M161.264 172.039H133.032C132.072 172.039 131.227 171.273 131.146 170.329L130.993 168.553C130.911 167.609 131.624 166.843 132.584 166.843H160.816C161.777 166.843 162.621 167.609 162.703 168.553L162.856 170.329C162.937 171.273 162.224 172.039 161.264 172.039Z" fill="#99C1FB"/>
<path d="M150.6 156.454H131.69C130.73 156.454 129.885 155.688 129.804 154.744L129.651 152.968C129.57 152.024 130.282 151.258 131.242 151.258H150.152C151.112 151.258 151.957 152.024 152.038 152.968L152.191 154.744C152.273 155.688 151.56 156.454 150.6 156.454Z" fill="#99C1FB"/>
<path d="M178.049 156.59H159.139C158.179 156.59 157.335 155.825 157.253 154.881L157.1 153.104C157.019 152.16 157.731 151.395 158.691 151.395H177.601C178.562 151.395 179.406 152.16 179.487 153.104L179.641 154.881C179.722 155.825 179.01 156.59 178.049 156.59Z" fill="#99C1FB"/>
<path d="M204.397 156.59H185.487C184.527 156.59 183.682 155.825 183.601 154.881L183.448 153.104C183.366 152.16 184.079 151.395 185.039 151.395H203.949C204.909 151.395 205.754 152.16 205.835 153.104L205.988 154.881C206.07 155.825 205.357 156.59 204.397 156.59Z" fill="#99C1FB"/>
<path d="M231.846 156.727H212.936C211.976 156.727 211.131 155.961 211.05 155.017L210.897 153.241C210.816 152.297 211.528 151.531 212.488 151.531H231.398C232.358 151.531 233.203 152.297 233.284 153.241L233.437 155.017C233.519 155.961 232.806 156.727 231.846 156.727Z" fill="#99C1FB"/>
<path d="M238.089 181.988H130.748C127.223 181.988 124.113 179.166 123.814 175.697L118.523 114.323C118.379 112.654 118.903 111.077 119.999 109.883C121.112 108.669 122.676 108 124.4 108H232.756C236.492 108 239.789 110.992 240.106 114.669L243.656 155.851C243.689 156.235 243.405 156.574 243.021 156.607C242.634 156.647 242.299 156.355 242.265 155.972L238.715 114.789C238.458 111.815 235.785 109.396 232.756 109.396H124.4C123.071 109.396 121.874 109.904 121.027 110.827C120.199 111.729 119.804 112.928 119.914 114.203L125.205 175.577C125.443 178.342 127.929 180.592 130.748 180.592H238.089C240.06 180.592 241.803 179.717 242.871 178.193C243.092 177.877 243.527 177.802 243.844 178.022C244.159 178.244 244.236 178.679 244.015 178.995C242.681 180.897 240.521 181.988 238.089 181.988Z" fill="#171D34"/>
<path d="M223.474 35.038C223.475 35.0287 223.475 35.0195 223.476 35.0105L238.595 34.7194L239.032 34.7109L239.47 34.7194L254.589 35.0105C254.59 35.0195 254.59 35.0287 254.591 35.038C254.609 35.3449 254.626 35.7954 254.622 36.3623C254.615 37.4966 254.522 39.0933 254.18 40.935C253.495 44.6204 251.82 49.2645 247.861 53.1614C245.83 55.1604 244.311 56.7976 243.263 58.2157C242.217 59.6318 241.611 60.8696 241.461 62.0685C241.309 63.2851 241.635 64.3944 242.314 65.5299C242.985 66.6513 244.018 67.8265 245.317 69.1884C246.08 69.9891 246.877 70.7816 247.681 71.5811C252.336 76.2103 257.226 81.0734 257.218 89.1148H239.479H238.586H220.848C220.839 81.0743 225.728 76.2119 230.383 71.5827C231.187 70.7827 231.984 69.9896 232.748 69.1883C234.047 67.8262 235.08 66.6509 235.75 65.5296C236.43 64.394 236.755 63.2848 236.603 62.0681C236.453 60.8693 235.847 59.6317 234.801 58.2155C233.754 56.7976 232.235 55.1604 230.204 53.1614C226.245 49.2645 224.569 44.6204 223.885 40.935C223.543 39.0933 223.45 37.4966 223.442 36.3623C223.438 35.7954 223.456 35.3449 223.474 35.038Z" fill="white" stroke="#171D34"/>
<path d="M259.609 90.2367V90.237C259.609 91.1157 258.898 91.8269 258.019 91.8269H220.045C219.166 91.8269 218.455 91.1153 218.455 90.2367C218.455 89.3582 219.167 88.6465 220.045 88.6465H258.019C258.897 88.6465 259.609 89.3581 259.609 90.2367Z" fill="#307FF4" stroke="#171D34"/>
<path d="M259.609 34.1385V34.1389C259.609 35.0169 258.898 35.7288 258.019 35.7288H220.045C219.166 35.7288 218.455 35.0171 218.455 34.1385C218.455 33.2601 219.167 32.5483 220.045 32.5483H258.019C258.897 32.5483 259.609 33.26 259.609 34.1385Z" fill="#307FF4" stroke="#171D34"/>
<path d="M231.821 50.646H246.558C247.055 50.646 247.325 51.1953 247.005 51.5557L240.304 59.117C240.216 59.217 240.167 59.3429 240.167 59.4735V82.3446C240.167 82.6508 240.428 82.8987 240.751 82.8987H253.276C253.531 82.8987 253.756 83.0553 253.833 83.2859L254.672 85.8034C254.791 86.1607 254.51 86.5243 254.115 86.5243H223.975C223.593 86.5243 223.313 86.1812 223.41 85.8302L224.11 83.2945C224.176 83.0513 224.408 82.8814 224.672 82.8806L237.607 82.8357C237.929 82.8349 238.189 82.587 238.189 82.2817V59.5955C238.189 59.4672 238.142 59.3421 238.056 59.2429L231.37 51.5518C231.057 51.1906 231.328 50.646 231.821 50.646Z" fill="#73C3FD"/>
<path d="M67.1572 92.5273C67.1572 91.0706 65.9767 89.8901 64.52 89.8901H25.6C24.1434 89.8901 22.9629 91.0706 22.9629 92.5273V113.558C22.9629 115.015 24.1434 116.196 25.6 116.196H57.6764L60.6953 120.31C61.6357 121.592 63.2624 121.473 64.0069 120.068L66.6165 115.142C66.951 114.7 67.1572 114.155 67.1572 113.558V92.5273Z" fill="#5B9AF8"/>
<path d="M59.7701 99.314H29.9846C29.5195 99.314 29.1426 98.937 29.1426 98.4719C29.1426 98.0068 29.5195 97.6299 29.9846 97.6299H59.7701C60.2352 97.6299 60.6122 98.0068 60.6122 98.4719C60.6122 98.9363 60.2352 99.314 59.7701 99.314Z" fill="white"/>
<path d="M50.7176 103.258H29.9846C29.5195 103.258 29.1426 102.881 29.1426 102.416C29.1426 101.951 29.5195 101.574 29.9846 101.574H50.7176C51.1827 101.574 51.5596 101.951 51.5596 102.416C51.5596 102.881 51.1827 103.258 50.7176 103.258Z" fill="white"/>
<path d="M55.7471 107.286H29.9846C29.5195 107.286 29.1426 106.909 29.1426 106.444C29.1426 105.979 29.5195 105.602 29.9846 105.602H55.7471C56.2122 105.602 56.5892 105.979 56.5892 106.444C56.59 106.909 56.2122 107.286 55.7471 107.286Z" fill="white"/>
<path d="M147.881 252.902C161.537 252.902 172.607 241.832 172.607 228.177C172.607 214.522 161.537 203.452 147.881 203.452C134.226 203.452 123.156 214.522 123.156 228.177C123.156 241.832 134.226 252.902 147.881 252.902Z" fill="#171D34"/>
<path d="M165.893 244.392C175.262 235.023 175.262 219.833 165.893 210.464C156.523 201.095 141.333 201.095 131.964 210.464C122.595 219.833 122.595 235.023 131.964 244.392C141.333 253.761 156.523 253.761 165.893 244.392Z" fill="#F6BD3D"/>
<path d="M163.164 241.665C171.027 233.802 171.027 221.054 163.164 213.192C155.302 205.329 142.554 205.329 134.691 213.192C126.829 221.054 126.829 233.802 134.691 241.665C142.554 249.527 155.302 249.527 163.164 241.665Z" fill="white"/>
<path d="M147.277 241.667L147.232 238.358C144.896 238.285 142.623 237.689 141.289 236.94L142.279 232.85C143.753 233.631 145.818 234.335 148.083 234.304C150.068 234.277 151.417 233.492 151.398 232.099C151.38 230.775 150.253 229.954 147.664 229.118C143.919 227.915 141.352 226.207 141.306 222.828C141.265 219.762 143.392 217.329 147.11 216.547L147.065 213.237L150.479 213.191L150.52 216.257C152.856 216.329 154.43 216.796 155.587 217.337L154.631 221.288C153.72 220.917 152.106 220.137 149.598 220.171C147.334 220.202 146.615 221.188 146.628 222.163C146.644 223.313 147.873 224.028 150.85 225.102C155.015 226.509 156.714 228.402 156.756 231.538C156.798 234.638 154.64 237.316 150.643 238.067L150.691 241.621L147.277 241.667Z" fill="#F6BD3D"/>
<path d="M168.255 219.569C173.545 219.569 177.833 215.281 177.833 209.992C177.833 204.702 173.545 200.414 168.255 200.414C162.966 200.414 158.678 204.702 158.678 209.992C158.678 215.281 162.966 219.569 168.255 219.569Z" fill="#5B9AF8"/>
<path d="M165.02 209.788L166.305 212.67C166.435 212.962 166.822 213.026 167.038 212.791L171.841 207.571" stroke="white" stroke-width="1.5236" stroke-miterlimit="10" stroke-linecap="round"/>
<path d="M168.23 217.904C172.615 217.904 176.169 214.349 176.169 209.965C176.169 205.58 172.615 202.026 168.23 202.026C163.845 202.026 160.291 205.58 160.291 209.965C160.291 214.349 163.845 217.904 168.23 217.904Z" stroke="white" stroke-width="0.5" stroke-miterlimit="10"/>
<path d="M96.8815 90.9022C110.537 90.9022 121.607 79.8323 121.607 66.1769C121.607 52.5215 110.537 41.4517 96.8815 41.4517C83.2261 41.4517 72.1562 52.5215 72.1562 66.1769C72.1562 79.8323 83.2261 90.9022 96.8815 90.9022Z" fill="#171D34"/>
<path d="M114.893 82.3924C124.262 73.0233 124.262 57.8331 114.893 48.464C105.523 39.095 90.3332 39.095 80.9642 48.464C71.5951 57.8331 71.5951 73.0233 80.9642 82.3924C90.3332 91.7615 105.523 91.7615 114.893 82.3924Z" fill="#F6BD3D"/>
<path d="M112.164 79.6646C120.027 71.8021 120.027 59.0544 112.164 51.1918C104.302 43.3293 91.554 43.3293 83.6915 51.1918C75.8289 59.0544 75.8289 71.8021 83.6915 79.6646C91.554 87.5272 104.302 87.5272 112.164 79.6646Z" fill="white"/>
<path d="M96.2768 79.6671L96.2318 76.3576C93.8963 76.2848 91.6234 75.6885 90.2891 74.9401L91.2787 70.8499C92.7527 71.6312 94.8182 72.335 97.0826 72.3042C99.0684 72.2772 100.417 71.4923 100.398 70.0987C100.38 68.7749 99.2534 67.954 96.6638 67.1181C92.919 65.9146 90.3521 64.2073 90.3062 60.8281C90.2646 57.7625 92.3918 55.3292 96.1095 54.5469L96.0645 51.2374L99.4785 51.1909L99.5202 54.2566C101.856 54.3293 103.43 54.7957 104.587 55.3375L103.631 59.2878C102.72 58.9169 101.106 58.1375 98.598 58.1715C96.3337 58.2023 95.6152 59.1876 95.6285 60.1632C95.6442 61.3128 96.8733 62.0278 99.8498 63.1023C104.015 64.5091 105.714 66.4025 105.756 69.5378C105.798 72.6384 103.64 75.3159 99.6429 76.067L99.6912 79.6205L96.2768 79.6671Z" fill="#F6BD3D"/>
<path d="M142.071 53.9531C149.991 53.9531 156.412 47.5326 156.412 39.6126C156.412 31.6925 149.991 25.272 142.071 25.272C134.151 25.272 127.73 31.6925 127.73 39.6126C127.73 47.5326 134.151 53.9531 142.071 53.9531Z" fill="#171D34"/>
<path d="M152.518 49.0174C157.952 43.5834 157.952 34.7731 152.518 29.339C147.083 23.905 138.273 23.905 132.839 29.339C127.405 34.7731 127.405 43.5834 132.839 49.0174C138.273 54.4514 147.083 54.4514 152.518 49.0174Z" fill="#F6BD3D"/>
<path d="M150.935 47.4353C155.496 42.875 155.496 35.4814 150.935 30.9212C146.375 26.3609 138.981 26.3609 134.421 30.9212C129.861 35.4814 129.861 42.875 134.421 47.4353C138.981 51.9955 146.375 51.9955 150.935 47.4353Z" fill="white"/>
<path d="M141.719 47.437L141.693 45.5175C140.338 45.4753 139.02 45.1295 138.246 44.6953L138.82 42.3231C139.675 42.7762 140.873 43.1844 142.186 43.1665C143.338 43.1509 144.12 42.6956 144.109 41.8874C144.099 41.1196 143.445 40.6434 141.943 40.1586C139.771 39.4606 138.283 38.4704 138.256 36.5104C138.232 34.7324 139.466 33.3211 141.622 32.8674L141.596 30.9478L143.576 30.9209L143.6 32.699C144.955 32.7412 145.868 33.0117 146.539 33.3259L145.984 35.6171C145.456 35.4019 144.52 34.9499 143.065 34.9696C141.752 34.9875 141.335 35.559 141.343 36.1248C141.352 36.7915 142.065 37.2063 143.791 37.8295C146.207 38.6454 147.192 39.7436 147.217 41.562C147.241 43.3604 145.989 44.9133 143.671 45.349L143.699 47.41L141.719 47.437Z" fill="#F6BD3D"/>
<path d="M287.617 211.467C287.27 211.356 286.902 211.309 286.528 211.331C285.713 211.38 284.966 211.749 284.423 212.371C283.315 213.638 283.42 215.576 284.658 216.689C285.255 217.226 286.026 217.496 286.827 217.448C287.642 217.399 288.389 217.03 288.932 216.408C290.039 215.141 289.934 213.204 288.697 212.09C288.379 211.804 288.012 211.594 287.617 211.467ZM286.07 216.278C285.819 216.198 285.586 216.064 285.384 215.882C284.585 215.163 284.52 213.909 285.24 213.085C285.59 212.684 286.07 212.446 286.592 212.415C287.102 212.384 287.592 212.556 287.971 212.897C288.769 213.616 288.834 214.871 288.115 215.694C287.764 216.095 287.284 216.333 286.762 216.365C286.524 216.379 286.29 216.349 286.07 216.278Z" fill="#171D34"/>
<path d="M272.533 224.116C272.412 224.077 272.264 224.131 272.146 224.273C272.084 224.347 265.877 231.759 255.429 239.379C245.792 246.407 230.47 255.055 212.203 256.345C211.991 256.36 211.788 256.609 211.752 256.901C211.715 257.193 211.859 257.417 212.071 257.402C230.509 256.1 245.974 247.365 255.701 240.266C266.247 232.57 272.526 225.068 272.588 224.993C272.766 224.778 272.811 224.444 272.689 224.245C272.648 224.179 272.594 224.136 272.533 224.116Z" fill="#171D34"/>
<path d="M276.788 223.297C276.647 223.252 276.474 223.332 276.354 223.517C276.307 223.59 271.529 230.88 262.294 239.121C253.773 246.726 239.604 256.721 220.499 261.148C220.283 261.198 220.1 261.472 220.089 261.76C220.078 262.047 220.243 262.241 220.46 262.191C239.741 257.723 254.046 247.622 262.652 239.934C271.992 231.59 276.842 224.183 276.89 224.109C277.047 223.867 277.054 223.538 276.906 223.375C276.872 223.337 276.831 223.311 276.788 223.297Z" fill="#171D34"/>
<path d="M228.687 213.383C228.387 213.383 228.145 213.14 228.145 212.84V210.044C228.145 209.743 228.387 209.5 228.687 209.5C228.987 209.5 229.229 209.743 229.229 210.044V212.84C229.229 213.14 228.987 213.383 228.687 213.383Z" fill="#171D34"/>
<path d="M228.687 219.895C228.387 219.895 228.145 219.652 228.145 219.352V216.557C228.145 216.257 228.387 216.014 228.687 216.014C228.987 216.014 229.229 216.257 229.229 216.557V219.352C229.229 219.652 228.987 219.895 228.687 219.895Z" fill="#171D34"/>
<path d="M226.832 215.24H224.042C223.742 215.24 223.5 214.997 223.5 214.697C223.5 214.396 223.742 214.153 224.042 214.153H226.832C227.132 214.153 227.374 214.396 227.374 214.697C227.374 214.997 227.132 215.24 226.832 215.24Z" fill="#171D34"/>
<path d="M233.33 215.24H230.54C230.241 215.24 229.998 214.997 229.998 214.697C229.998 214.396 230.241 214.153 230.54 214.153H233.33C233.63 214.153 233.873 214.396 233.873 214.697C233.873 214.997 233.63 215.24 233.33 215.24Z" fill="#171D34"/>
<path d="M133.559 123.678L133.718 124.289C133.016 124.501 132.384 124.608 131.824 124.612C130.904 124.617 130.218 124.305 129.767 123.675C129.323 123.038 129.097 122.011 129.089 120.595C129.081 119.179 129.291 118.15 129.72 117.507C130.148 116.857 130.838 116.529 131.79 116.524C132.374 116.52 132.983 116.641 133.616 116.885L133.428 117.486C132.85 117.25 132.306 117.133 131.794 117.136C131.082 117.14 130.567 117.415 130.25 117.96C129.941 118.498 129.79 119.367 129.797 120.567C129.804 121.767 129.977 122.638 130.316 123.18C130.655 123.722 131.161 123.991 131.833 123.988C132.281 123.985 132.856 123.882 133.559 123.678ZM135.424 124.483L135.42 123.883L136.788 123.875L136.762 119.375L135.395 119.383L135.391 118.783L137.395 118.772L137.423 119.468C137.678 119.306 138.037 119.144 138.5 118.981C138.963 118.819 139.371 118.72 139.723 118.686L139.855 118.686L139.859 119.394L139.727 119.394C139.399 119.42 138.991 119.503 138.504 119.641C138.025 119.78 137.666 119.922 137.426 120.068L137.448 123.871L139.368 123.861L139.372 124.461L135.424 124.483ZM141.239 121.606C141.234 120.686 141.418 119.969 141.791 119.455C142.172 118.932 142.727 118.669 143.455 118.665C144.183 118.661 144.724 118.898 145.079 119.376C145.441 119.854 145.625 120.493 145.63 121.293L145.597 121.893L141.925 121.914C141.968 122.514 142.131 123.001 142.413 123.375C142.695 123.742 143.081 123.923 143.569 123.921C144.065 123.918 144.644 123.798 145.307 123.563L145.49 124.162C144.843 124.413 144.236 124.541 143.668 124.544C142.884 124.549 142.283 124.292 141.864 123.774C141.453 123.249 141.245 122.526 141.239 121.606ZM143.506 119.277C142.498 119.283 141.97 119.962 141.922 121.314L144.946 121.297C144.938 119.945 144.458 119.271 143.506 119.277ZM151.542 116.423L151.582 123.395L151.708 124.438L151.096 124.514L150.972 123.878C150.375 124.298 149.824 124.509 149.32 124.512C148.608 124.516 148.051 124.255 147.647 123.729C147.252 123.204 147.052 122.489 147.047 121.585C147.042 120.673 147.258 119.955 147.695 119.433C148.132 118.902 148.73 118.635 149.49 118.631C149.938 118.628 150.415 118.733 150.92 118.947L150.906 116.427L151.542 116.423ZM147.731 121.557C147.735 122.261 147.874 122.828 148.149 123.258C148.431 123.681 148.832 123.891 149.352 123.888C149.872 123.885 150.403 123.654 150.945 123.195L150.924 119.595C150.756 119.516 150.523 119.441 150.227 119.371C149.938 119.292 149.702 119.254 149.518 119.255C148.95 119.258 148.507 119.468 148.19 119.886C147.88 120.296 147.727 120.853 147.731 121.557ZM153.447 124.38L153.444 123.78L155.196 123.77L155.17 119.27L153.418 119.28L153.415 118.68L155.803 118.667L155.832 123.767L157.584 123.757L157.587 124.357L153.447 124.38ZM154.905 116.98C154.904 116.82 154.948 116.696 155.035 116.607C155.131 116.519 155.258 116.474 155.418 116.473C155.746 116.471 155.911 116.646 155.913 116.998C155.915 117.35 155.752 117.523 155.424 117.517C155.08 117.519 154.907 117.34 154.905 116.98ZM159.095 119.404L159.092 118.804L160.256 118.797L160.247 117.345L160.883 117.222L160.892 118.794L163.64 118.778L163.643 119.378L160.895 119.394L160.911 122.13C160.914 122.738 161.005 123.177 161.182 123.448C161.368 123.711 161.692 123.841 162.156 123.839C162.332 123.838 162.604 123.808 162.972 123.75C163.339 123.684 163.591 123.626 163.727 123.578L163.874 124.165C163.723 124.222 163.443 124.283 163.035 124.35C162.636 124.416 162.344 124.45 162.16 124.451C161.44 124.455 160.947 124.27 160.681 123.895C160.414 123.513 160.279 122.933 160.275 122.157L160.259 119.397L159.095 119.404ZM175.558 123.438L175.718 124.049C175.015 124.261 174.384 124.369 173.824 124.372C172.904 124.377 172.218 124.065 171.766 123.436C171.323 122.798 171.097 121.772 171.089 120.356C171.081 118.94 171.291 117.91 171.719 117.268C172.147 116.618 172.837 116.29 173.789 116.284C174.373 116.281 174.982 116.401 175.616 116.646L175.427 117.247C174.85 117.01 174.305 116.893 173.793 116.896C173.081 116.9 172.567 117.175 172.25 117.721C171.941 118.259 171.79 119.128 171.796 120.328C171.803 121.528 171.976 122.399 172.315 122.941C172.654 123.483 173.16 123.752 173.832 123.748C174.28 123.745 174.855 123.642 175.558 123.438ZM179.064 123.718C179.36 123.717 179.679 123.623 180.022 123.437C180.373 123.243 180.628 123.065 180.787 122.904L180.779 121.476C180.251 121.439 179.747 121.422 179.267 121.425C178.787 121.428 178.427 121.534 178.189 121.743C177.95 121.945 177.831 122.217 177.833 122.561C177.838 123.337 178.248 123.723 179.064 123.718ZM179.056 124.342C178.472 124.346 178.011 124.2 177.673 123.906C177.335 123.604 177.165 123.177 177.162 122.625C177.159 122.073 177.34 121.644 177.706 121.338C178.073 121.024 178.56 120.865 179.168 120.862C179.776 120.858 180.312 120.879 180.776 120.924C180.772 120.212 180.681 119.729 180.504 119.474C180.326 119.211 179.97 119.081 179.434 119.084C178.898 119.087 178.266 119.219 177.54 119.479L177.356 118.88C178.099 118.604 178.77 118.464 179.37 118.46C180.162 118.456 180.699 118.629 180.981 118.979C181.263 119.33 181.406 119.945 181.411 120.825L181.426 123.345L181.527 124.256L180.915 124.32L180.791 123.6C180.608 123.761 180.349 123.927 180.014 124.097C179.679 124.259 179.359 124.341 179.056 124.342ZM183.423 124.209L183.419 123.609L184.787 123.602L184.762 119.102L183.394 119.109L183.39 118.509L185.394 118.498L185.422 119.194C185.677 119.032 186.036 118.87 186.499 118.708C186.963 118.545 187.37 118.447 187.722 118.413L187.854 118.412L187.858 119.12L187.726 119.121C187.398 119.147 186.99 119.229 186.503 119.368C186.024 119.506 185.665 119.648 185.426 119.794L185.447 123.598L187.367 123.587L187.371 124.187L183.423 124.209ZM193.541 116.184L193.581 123.155L193.707 124.199L193.095 124.274L192.972 123.639C192.374 124.058 191.823 124.269 191.319 124.272C190.607 124.276 190.05 124.016 189.647 123.49C189.252 122.964 189.052 122.249 189.047 121.345C189.041 120.433 189.257 119.716 189.694 119.194C190.131 118.663 190.73 118.396 191.49 118.391C191.938 118.389 192.414 118.494 192.92 118.707L192.905 116.187L193.541 116.184ZM189.73 121.317C189.734 122.021 189.874 122.589 190.148 123.019C190.431 123.441 190.832 123.651 191.352 123.648C191.872 123.645 192.402 123.414 192.944 122.955L192.923 119.355C192.755 119.276 192.522 119.201 192.226 119.131C191.938 119.053 191.701 119.014 191.517 119.015C190.949 119.018 190.507 119.229 190.189 119.647C189.879 120.056 189.726 120.613 189.73 121.317Z" fill="white"/>
</svg>
