<svg width="641" height="565" viewBox="0 0 641 565" fill="none" xmlns="http://www.w3.org/2000/svg">
<path d="M315.941 564.999C490.431 564.999 631.882 556.042 631.882 544.994C631.882 533.945 490.431 524.988 315.941 524.988C141.452 524.988 0 533.945 0 544.994C0 556.042 141.452 564.999 315.941 564.999Z" fill="#DBE6F7"/>
<path d="M193.807 59.8772C193.807 61.372 193.198 62.7339 192.207 63.7199C191.228 64.7117 189.867 65.3219 188.373 65.3219H72.0754C69.0881 65.3219 66.6406 62.8725 66.6406 59.8772C66.6406 58.3824 67.2489 57.0205 68.2413 56.0345C69.2195 55.0413 70.5818 54.4325 72.0754 54.4325H77.5716C79.7421 49.3836 84.7556 45.8553 90.5916 45.8553C94.5199 45.8553 98.0712 47.4558 100.644 50.0367C104.07 44.2219 110.389 40.3162 117.624 40.3162C119.613 40.3162 121.527 40.6178 123.335 41.1637C127.119 34.0427 134.598 29.1953 143.22 29.1953C153.574 29.1953 162.283 36.1906 164.912 45.7109C166.82 44.7563 168.972 44.2104 171.257 44.2104C177.714 44.2104 183.16 48.5248 184.873 54.4339H188.375C191.359 54.4325 193.807 56.8819 193.807 59.8772Z" fill="#DBE6F7"/>
<path d="M640.002 132.196C640.002 133.691 639.393 135.053 638.401 136.039C637.421 137.031 636.06 137.641 634.567 137.641H518.269C515.281 137.641 512.834 135.192 512.834 132.196C512.834 130.702 513.442 129.34 514.435 128.354C515.413 127.362 516.775 126.752 518.269 126.752H523.765C525.935 121.703 530.949 118.173 536.785 118.173C540.713 118.173 544.265 119.774 546.838 122.355C550.263 116.54 556.582 112.634 563.818 112.634C565.807 112.634 567.72 112.936 569.528 113.482C573.312 106.361 580.792 101.512 589.414 101.512C599.768 101.512 608.477 108.507 611.106 118.027C613.013 117.073 615.165 116.527 617.45 116.527C623.907 116.527 629.353 120.841 631.067 126.75H634.568C637.554 126.752 640.002 129.201 640.002 132.196Z" fill="#DBE6F7"/>
<path d="M426.406 73.548C426.406 75.0428 425.798 76.4061 424.806 77.3908C423.826 78.384 422.465 78.9927 420.972 78.9927H304.674C301.686 78.9927 299.24 76.5433 299.24 73.548C299.24 72.0532 299.849 70.6913 300.841 69.7053C301.819 68.7121 303.181 68.1033 304.675 68.1033H310.173C312.343 63.0545 317.357 59.5247 323.193 59.5247C327.121 59.5247 330.672 61.1252 333.245 63.7061C336.671 57.8913 342.99 53.9857 350.225 53.9857C352.214 53.9857 354.128 54.2872 355.936 54.8331C359.72 47.7121 367.199 42.8633 375.821 42.8633C386.175 42.8633 394.884 49.86 397.513 59.3789C399.421 58.4243 401.573 57.8784 403.858 57.8784C410.315 57.8784 415.761 62.1927 417.474 68.1019H420.976C423.959 68.1033 426.406 70.5527 426.406 73.548Z" fill="#DBE6F7"/>
<path d="M54.0987 201.788C58.8153 217.654 74.6498 217.16 74.3128 230.041C73.9758 242.92 82.0637 252.699 93.1789 250.34C104.298 247.978 112.348 245.618 117.421 258.431C122.49 271.244 138.663 277.649 145.063 267.533C146.658 265.016 148.381 262.288 150.064 259.61C150.524 258.878 150.984 258.151 151.435 257.434C151.541 257.268 151.646 257.102 151.749 256.936C158.526 246.168 156.289 231.899 146.297 224.028C142.252 220.843 137.414 219.052 131.926 220.668C114.744 225.724 120.935 208.43 110.698 201.113C98.9078 192.682 88.7936 202.225 80.7157 195.042C69.4778 185.055 49.3836 185.921 54.0987 201.788Z" fill="#BBD4F2"/>
<path d="M74.5986 208.652L150.064 259.616C150.524 258.885 150.984 258.157 151.435 257.44L76.038 206.521C75.4497 206.124 74.6501 206.278 74.2545 206.867C73.8561 207.454 74.0103 208.255 74.5986 208.652Z" fill="#A4C8F2"/>
<path d="M427.427 125.357C445.195 117.949 460.655 107.657 452.077 101.49C443.493 95.3169 417.224 113.532 405.066 134.989L399.186 141.298C408.319 125.816 410.992 103.447 403.092 99.1997C395.241 94.9782 394.812 110.029 396.711 123.842C398.158 134.356 396.696 141.571 395.592 145.155L367.821 174.956C382.213 150.396 386.397 115.085 373.896 108.364C361.438 101.666 360.759 125.549 363.772 147.465C366.049 164.028 363.78 175.437 362.034 181.165L356.496 187.107C357.374 188.229 358.26 189.346 359.152 190.458L392.191 155.004C396.145 154.003 401.858 153.18 409.3 153.68C423.201 154.614 438.173 153.138 433.42 145.594C429.294 139.048 412.283 141.288 398.189 148.568L409.614 136.307C413.797 133.118 419.757 128.554 427.427 125.357Z" fill="#DBE6F7"/>
<path d="M74.0607 137.741C72.2029 153.085 85.9484 158.554 80.8734 169.46C75.7999 180.364 79.0914 191.749 89.4883 193.864C99.888 195.979 107.659 196.954 107.242 209.814C106.822 222.674 118.291 234.178 127.532 227.896C129.834 226.334 132.321 224.638 134.759 222.973C135.424 222.517 136.088 222.065 136.741 221.618C136.893 221.515 137.045 221.412 137.195 221.309C146.999 214.61 150.385 201.557 144.753 191.098C142.472 186.865 138.994 183.529 133.695 182.872C117.101 180.808 128.83 168.3 122.782 158.225C115.818 146.618 103.611 151.025 99.3611 141.868C93.448 129.134 75.917 122.397 74.0607 137.741Z" fill="#DBE6F7"/>
<path d="M89.0686 151.243L134.76 222.973C135.426 222.518 136.09 222.066 136.742 221.619L91.0934 149.954C90.7379 149.396 89.9953 149.23 89.437 149.587C88.8772 149.941 88.713 150.685 89.0686 151.243Z" fill="#BBD4F2"/>
<path d="M442.348 447.166C437.517 463.418 421.297 462.912 421.642 476.108C421.988 489.3 413.703 499.318 402.316 496.9C390.927 494.48 382.681 492.062 377.484 505.187C372.291 518.311 355.727 524.872 349.17 514.51C347.535 511.932 345.772 509.137 344.046 506.396C343.575 505.647 343.105 504.901 342.642 504.166C342.534 503.996 342.425 503.826 342.321 503.658C335.38 492.628 337.672 478.01 347.906 469.949C352.05 466.687 357.005 464.852 362.625 466.508C380.226 471.688 373.883 453.971 384.369 446.477C396.445 437.841 406.804 447.616 415.081 440.258C426.594 430.025 447.178 430.911 442.348 447.166Z" fill="#BBD4F2"/>
<path d="M421.352 454.193L344.05 506.397C343.579 505.648 343.109 504.902 342.646 504.167L419.877 452.011C420.48 451.604 421.298 451.762 421.705 452.365C422.112 452.967 421.955 453.787 421.352 454.193Z" fill="#A4C8F2"/>
<path d="M414.307 387.155C416.209 402.872 402.131 408.473 407.329 419.646C412.526 430.815 409.153 442.477 398.504 444.643C387.851 446.809 379.89 447.808 380.317 460.981C380.747 474.154 368.998 485.937 359.534 479.503C357.176 477.904 354.627 476.167 352.131 474.46C351.45 473.994 350.769 473.53 350.101 473.073C349.945 472.967 349.789 472.863 349.635 472.757C339.592 465.894 336.124 452.524 341.893 441.811C344.229 437.475 347.792 434.058 353.219 433.385C370.216 431.271 358.201 418.46 364.397 408.139C371.531 396.249 384.034 400.764 388.388 391.385C394.448 378.339 412.405 371.438 414.307 387.155Z" fill="#DBE6F7"/>
<path d="M398.935 400.98L352.132 474.455C351.451 473.989 350.77 473.525 350.102 473.067L396.861 399.659C397.225 399.086 397.986 398.918 398.558 399.282C399.13 399.647 399.3 400.407 398.935 400.98Z" fill="#BBD4F2"/>
<path d="M629.071 343.5C633.375 343.5 636.876 347.004 636.876 351.311C636.876 355.618 633.375 359.122 629.071 359.122C624.767 359.122 621.266 355.618 621.266 351.311C621.266 347.004 624.767 343.5 629.071 343.5ZM629.071 345.949C626.118 345.949 623.715 348.355 623.715 351.31C623.715 354.265 626.118 356.67 629.071 356.67C632.025 356.67 634.427 354.265 634.427 351.31C634.428 348.355 632.025 345.949 629.071 345.949Z" fill="#4F60D9"/>
<path d="M621.133 303.797C625.437 303.797 628.938 307.301 628.938 311.608C628.938 315.915 625.437 319.419 621.133 319.419C616.829 319.419 613.328 315.915 613.328 311.608C613.327 307.302 616.829 303.797 621.133 303.797ZM621.133 306.248C618.179 306.248 615.777 308.653 615.777 311.608C615.777 314.563 618.18 316.968 621.133 316.968C624.088 316.968 626.49 314.563 626.49 311.608C626.49 308.653 624.086 306.248 621.133 306.248Z" fill="#707FFF"/>
<path d="M597.393 292.799C597.393 293.475 597.941 294.024 598.616 294.024H604.015C604.692 294.024 605.239 293.475 605.239 292.799C605.239 292.123 604.691 291.574 604.015 291.574H598.616C597.939 291.573 597.393 292.122 597.393 292.799Z" fill="#1D38C8"/>
<path d="M587.943 292.799C587.943 293.475 588.492 294.024 589.167 294.024H594.566C595.243 294.024 595.79 293.475 595.79 292.799C595.79 292.123 595.242 291.574 594.566 291.574H589.167C588.492 291.573 587.943 292.122 587.943 292.799Z" fill="#1D38C8"/>
<path d="M595.369 285.213V290.067C595.369 290.745 595.917 291.294 596.594 291.294C597.271 291.294 597.818 290.745 597.818 290.067V285.213C597.818 284.537 597.27 283.988 596.594 283.988C595.917 283.988 595.369 284.537 595.369 285.213Z" fill="#1D38C8"/>
<path d="M595.369 295.529V300.384C595.369 301.06 595.917 301.609 596.594 301.609C597.271 301.609 597.818 301.06 597.818 300.384V295.529C597.818 294.852 597.27 294.305 596.594 294.305C595.917 294.303 595.369 294.852 595.369 295.529Z" fill="#1D38C8"/>
<path d="M606.197 334.515C606.197 335.191 606.746 335.74 607.421 335.74H612.82C613.497 335.74 614.044 335.191 614.044 334.515C614.044 333.838 613.496 333.289 612.82 333.289H607.421C606.746 333.289 606.197 333.838 606.197 334.515Z" fill="#707FFF"/>
<path d="M596.748 334.515C596.748 335.191 597.296 335.74 597.973 335.74H603.372C604.049 335.74 604.598 335.191 604.598 334.515C604.598 333.838 604.049 333.289 603.372 333.289H597.973C597.296 333.289 596.748 333.838 596.748 334.515Z" fill="#707FFF"/>
<path d="M604.17 326.928V331.782C604.17 332.458 604.718 333.007 605.394 333.007C606.071 333.007 606.617 332.458 606.617 331.782V326.928C606.617 326.252 606.069 325.703 605.394 325.703C604.718 325.703 604.17 326.252 604.17 326.928Z" fill="#707FFF"/>
<path d="M604.17 337.248V342.103C604.17 342.779 604.718 343.327 605.394 343.327C606.071 343.327 606.617 342.779 606.617 342.103V337.248C606.617 336.572 606.069 336.023 605.394 336.023C604.718 336.023 604.17 336.572 604.17 337.248Z" fill="#707FFF"/>
<path d="M37.3643 154.483C37.3643 158.79 33.8629 162.294 29.5591 162.294C25.2552 162.294 21.7539 158.79 21.7539 154.483C21.7539 150.176 25.2552 146.672 29.5591 146.672C33.8629 146.672 37.3643 150.176 37.3643 154.483ZM24.2028 154.483C24.2028 157.438 26.6061 159.844 29.5591 159.844C32.5135 159.844 34.9153 157.438 34.9153 154.483C34.9153 151.528 32.5121 149.123 29.5591 149.123C26.6061 149.123 24.2028 151.526 24.2028 154.483Z" fill="#4F60D9"/>
<path d="M45.3057 114.784C45.3057 119.091 41.8043 122.595 37.5005 122.595C33.1966 122.595 29.6953 119.091 29.6953 114.784C29.6953 110.477 33.1966 106.973 37.5005 106.973C41.8043 106.973 45.3057 110.477 45.3057 114.784ZM32.1442 114.784C32.1442 117.739 34.5475 120.144 37.5005 120.144C40.4549 120.144 42.8567 117.739 42.8567 114.784C42.8567 111.829 40.4535 109.423 37.5005 109.423C34.5475 109.422 32.1442 111.827 32.1442 114.784Z" fill="#1D38C8"/>
<path d="M61.2411 95.9708C61.2411 96.6467 60.6928 97.1955 60.0174 97.1955H54.6183C53.9429 97.1955 53.3945 96.6467 53.3945 95.9708C53.3945 95.2934 53.9429 94.7461 54.6183 94.7461H60.0174C60.6928 94.7461 61.2411 95.2949 61.2411 95.9708Z" fill="#4F60D9"/>
<path d="M70.6903 95.9708C70.6903 96.6467 70.142 97.1955 69.4666 97.1955H64.0675C63.3907 97.1955 62.8438 96.6467 62.8438 95.9708C62.8438 95.2934 63.3921 94.7461 64.0675 94.7461H69.4666C70.142 94.7461 70.6903 95.2949 70.6903 95.9708Z" fill="#4F60D9"/>
<path d="M63.2639 88.377V93.2316C63.2639 93.9089 62.7156 94.4577 62.0402 94.4577C61.3633 94.4577 60.8164 93.9089 60.8164 93.2316V88.377C60.8164 87.7011 61.3647 87.1523 62.0402 87.1523C62.7156 87.1509 63.2639 87.6997 63.2639 88.377Z" fill="#4F60D9"/>
<path d="M63.2639 98.6974V103.552C63.2639 104.228 62.7156 104.777 62.0402 104.777C61.3633 104.777 60.8164 104.228 60.8164 103.552V98.6974C60.8164 98.02 61.3647 97.4727 62.0402 97.4727C62.7156 97.4727 63.2639 98.02 63.2639 98.6974Z" fill="#4F60D9"/>
<path d="M52.4286 137.693C52.4286 138.369 51.8803 138.918 51.2049 138.918H45.8058C45.1289 138.918 44.582 138.369 44.582 137.693C44.582 137.016 45.1304 136.469 45.8058 136.469H51.2049C51.8803 136.467 52.4286 137.016 52.4286 137.693Z" fill="#707FFF"/>
<path d="M61.8787 137.693C61.8787 138.369 61.3304 138.918 60.6536 138.918H55.2545C54.5776 138.918 54.0293 138.369 54.0293 137.693C54.0293 137.016 54.5776 136.469 55.2545 136.469H60.6536C61.3304 136.467 61.8787 137.016 61.8787 137.693Z" fill="#707FFF"/>
<path d="M54.4592 130.108V134.962C54.4592 135.638 53.9109 136.187 53.2355 136.187C52.5586 136.187 52.0117 135.638 52.0117 134.962V130.108C52.0117 129.432 52.5601 128.883 53.2355 128.883C53.9109 128.883 54.4592 129.432 54.4592 130.108Z" fill="#707FFF"/>
<path d="M54.4592 140.424V145.278C54.4592 145.954 53.9109 146.503 53.2355 146.503C52.5586 146.503 52.0117 145.954 52.0117 145.278V140.424C52.0117 139.748 52.5601 139.199 53.2355 139.199C53.9109 139.198 54.4592 139.747 54.4592 140.424Z" fill="#707FFF"/>
<path d="M515.105 156.97V176.687C515.105 179.294 517.219 181.407 519.822 181.407H555.595L566.395 185.286C567.504 185.684 568.565 184.592 568.14 183.495L564.054 172.937V156.97C564.054 154.364 561.941 152.25 559.335 152.25H519.822C517.217 152.25 515.105 154.364 515.105 156.97Z" fill="#4F60D9"/>
<g opacity="0.5">
<path d="M546.186 167.388C546.186 169.274 547.713 170.804 549.598 170.804C551.483 170.804 553.011 169.274 553.011 167.388C553.011 165.502 551.483 163.973 549.598 163.973C547.713 163.974 546.186 165.502 546.186 167.388Z" fill="#707FFF"/>
<path d="M535.383 167.388C535.383 169.274 536.911 170.804 538.796 170.804C540.681 170.804 542.208 169.274 542.208 167.388C542.208 165.502 540.681 163.973 538.796 163.973C536.911 163.974 535.383 165.502 535.383 167.388Z" fill="#707FFF"/>
<path d="M524.582 167.388C524.582 169.274 526.11 170.804 527.995 170.804C529.88 170.804 531.408 169.274 531.408 167.388C531.408 165.502 529.88 163.973 527.995 163.973C526.11 163.973 524.582 165.502 524.582 167.388Z" fill="#707FFF"/>
</g>
<path d="M129.836 153.624V522.2C129.836 533.754 139.192 543.117 150.737 543.117H334.137C339.937 543.117 345.181 540.755 348.971 536.941C352.72 533.156 355.038 527.95 355.038 522.2V153.624C355.038 142.07 345.682 132.707 334.137 132.707H150.737C147.324 132.707 144.103 133.524 141.257 134.978C134.475 138.435 129.836 145.486 129.836 153.624Z" fill="#3B3E7D"/>
<path d="M137.621 153.624V522.2C137.621 533.754 146.977 543.117 158.522 543.117H341.922C347.723 543.117 352.966 540.755 356.754 536.941C360.504 533.156 362.823 527.95 362.823 522.2V153.624C362.823 142.07 353.467 132.707 341.922 132.707H158.522C155.109 132.707 151.888 133.524 149.042 134.978C142.261 138.435 137.621 145.486 137.621 153.624Z" fill="#18285D"/>
<path d="M133.663 223.361H131.29C128.306 223.361 125.887 220.94 125.887 217.954V195.482C125.887 192.495 128.306 190.074 131.29 190.074H133.663V223.361Z" fill="#18285D"/>
<path d="M133.663 266.896H131.29C128.306 266.896 125.887 264.476 125.887 261.489V239.017C125.887 236.03 128.306 233.609 131.29 233.609H133.663V266.896Z" fill="#18285D"/>
<path d="M362.826 223.361H364.685C367.024 223.361 368.919 221.463 368.919 219.124V194.311C368.919 191.972 367.024 190.074 364.685 190.074H362.826V223.361Z" fill="#18285D"/>
<path d="M352.397 152.358V523.463C352.397 524.742 352.137 525.96 351.666 527.067C350.26 530.373 346.997 532.676 343.191 532.676H157.261C152.181 532.676 148.055 528.561 148.055 523.462V152.358C148.055 151.844 148.093 151.336 148.179 150.843C148.697 147.709 150.806 145.106 153.644 143.877C154.236 143.627 154.853 143.434 155.497 143.312C156.065 143.198 156.658 143.141 157.261 143.141H343.191C348.275 143.141 352.397 147.271 352.397 152.358Z" fill="white"/>
<path d="M352.395 152.358V171.386H148.053V152.358C148.053 151.844 148.091 151.336 148.177 150.843C148.695 147.709 150.804 145.106 153.642 143.877C154.234 143.627 154.851 143.434 155.495 143.312C156.064 143.198 156.656 143.141 157.259 143.141H343.189C348.273 143.141 352.395 147.271 352.395 152.358Z" fill="#DBE6F7"/>
<path d="M320.134 143.125L310.652 157.562C308.008 161.59 303.515 164.016 298.699 164.016H207.066C202.249 164.016 197.757 161.591 195.112 157.562L185.631 143.125C185.631 141.628 186.853 140.402 188.353 140.402H317.414C318.909 140.402 320.134 141.63 320.134 143.125Z" fill="#18285D"/>
<path opacity="0.3" d="M285.393 153.56H205.841C204.531 153.56 203.459 152.487 203.459 151.177V150.138C203.459 148.827 204.531 147.754 205.841 147.754H285.393C286.703 147.754 287.775 148.827 287.775 150.138V151.177C287.777 152.488 286.704 153.56 285.393 153.56Z" fill="#DBE6F7"/>
<path opacity="0.3" d="M303.166 150.468C303.166 152.392 301.608 153.952 299.684 153.952C297.761 153.952 296.203 152.393 296.203 150.468C296.203 148.545 297.761 146.984 299.684 146.984C301.608 146.984 303.166 148.543 303.166 150.468Z" fill="#DBE6F7"/>
<path d="M165.521 399.957C165.521 401.658 166.898 403.035 168.597 403.035H242.11C243.807 403.035 245.185 401.658 245.185 399.957C245.185 398.258 243.809 396.879 242.11 396.879H168.597C166.898 396.88 165.521 398.258 165.521 399.957Z" fill="#DBE6F7"/>
<path d="M258.766 399.957C258.766 401.658 260.142 403.035 261.841 403.035H335.355C337.053 403.035 338.431 401.658 338.431 399.957C338.431 398.258 337.054 396.879 335.355 396.879H261.841C260.142 396.88 258.766 398.258 258.766 399.957Z" fill="#DBE6F7"/>
<path d="M165.521 417.117C165.521 418.818 166.898 420.195 168.597 420.195H242.11C243.807 420.195 245.185 418.818 245.185 417.117C245.185 415.418 243.809 414.039 242.11 414.039H168.597C166.898 414.04 165.521 415.418 165.521 417.117Z" fill="#DBE6F7"/>
<path d="M258.766 417.117C258.766 418.818 260.142 420.195 261.841 420.195H335.355C337.053 420.195 338.431 418.818 338.431 417.117C338.431 415.418 337.054 414.039 335.355 414.039H261.841C260.142 414.04 258.766 415.418 258.766 417.117Z" fill="#DBE6F7"/>
<path d="M165.521 434.274C165.521 435.973 166.898 437.352 168.597 437.352H242.11C243.807 437.352 245.185 435.974 245.185 434.274C245.185 432.574 243.809 431.195 242.11 431.195H168.597C166.898 431.197 165.521 432.574 165.521 434.274Z" fill="#DBE6F7"/>
<path d="M258.766 434.274C258.766 435.973 260.142 437.352 261.841 437.352H335.355C337.053 437.352 338.431 435.974 338.431 434.274C338.431 432.574 337.054 431.195 335.355 431.195H261.841C260.142 431.197 258.766 432.574 258.766 434.274Z" fill="#DBE6F7"/>
<path d="M165.521 451.438C165.521 453.137 166.898 454.516 168.597 454.516H242.11C243.807 454.516 245.185 453.138 245.185 451.438C245.185 449.738 243.809 448.359 242.11 448.359H168.597C166.898 448.359 165.521 449.738 165.521 451.438Z" fill="#DBE6F7"/>
<path d="M258.766 451.438C258.766 453.137 260.142 454.516 261.841 454.516H335.355C337.053 454.516 338.431 453.138 338.431 451.438C338.431 449.738 337.054 448.359 335.355 448.359H261.841C260.142 448.359 258.766 449.738 258.766 451.438Z" fill="#DBE6F7"/>
<path d="M212.551 491.447H170.77C167.884 491.447 165.547 489.106 165.547 486.22V481.108C165.547 478.22 167.886 475.879 170.77 475.879H212.549C215.435 475.879 217.774 478.22 217.774 481.108V486.22C217.774 489.106 215.435 491.447 212.551 491.447Z" fill="#DBE6F7"/>
<path d="M273.342 491.447H231.563C228.677 491.447 226.338 489.106 226.338 486.22V481.108C226.338 478.22 228.677 475.879 231.563 475.879H273.342C276.228 475.879 278.565 478.22 278.565 481.108V486.22C278.567 489.106 276.228 491.447 273.342 491.447Z" fill="#DBE6F7"/>
<path d="M333.199 491.447H291.419C288.534 491.447 286.195 489.106 286.195 486.22V481.108C286.195 478.22 288.534 475.879 291.419 475.879H333.199C336.084 475.879 338.423 478.22 338.423 481.108V486.22C338.423 489.106 336.084 491.447 333.199 491.447Z" fill="#DBE6F7"/>
<path d="M352.392 226.715V366.85H176.512V226.715H184.6L184.525 226.637L184.614 226.715H352.392Z" fill="#DBE6F7"/>
<path d="M389.032 215.883H186.318V356.019H389.032V215.883Z" fill="#1D38C8"/>
<path d="M397.147 215.883H194.434V356.019H397.147V215.883Z" fill="#4F60D9"/>
<path d="M194.33 215.805L288.194 313.585C292.31 317.874 299.166 317.874 303.283 313.585L397.146 215.805L302.694 299.935C298.729 303.466 292.749 303.466 288.783 299.935L194.33 215.805Z" fill="#1D38C8"/>
<path d="M276.263 288.406L200.307 356.019H194.436V352.447L271.896 283.496L276.263 288.406Z" fill="#1D38C8"/>
<path d="M397.147 352.921V356.019H390.744L314.787 288.406L319.154 283.496L397.147 352.921Z" fill="#1D38C8"/>
<path d="M194.428 215.883L289.104 300.15C292.913 303.541 298.657 303.541 302.466 300.15L397.142 215.883H194.428Z" fill="#707FFF"/>
<g opacity="0.5">
<path d="M293.337 229.007H223.172C220.837 229.007 218.945 227.113 218.945 224.777C218.945 222.44 220.837 220.547 223.172 220.547H293.337C295.672 220.547 297.564 222.44 297.564 224.777C297.564 227.113 295.672 229.007 293.337 229.007Z" fill="#707FFF"/>
</g>
<g opacity="0.5">
<path d="M314.806 229.007H307.705C305.371 229.007 303.479 227.113 303.479 224.777C303.479 222.44 305.371 220.547 307.705 220.547H314.806C317.141 220.547 319.033 222.44 319.033 224.777C319.033 227.113 317.141 229.007 314.806 229.007Z" fill="#707FFF"/>
</g>
<path d="M365.337 227.685H343.95C338.281 227.685 333.686 223.087 333.686 217.413V196.009C333.686 190.337 338.281 185.738 343.948 185.738H365.337C371.006 185.738 375.6 190.337 375.6 196.009V217.413C375.6 223.088 371.005 227.685 365.337 227.685Z" fill="#1D38C8"/>
<path d="M369.046 227.685H347.659C341.99 227.685 337.395 223.087 337.395 217.413V196.009C337.395 190.337 341.99 185.738 347.657 185.738H369.045C374.714 185.738 379.309 190.337 379.309 196.009V217.413C379.309 223.088 374.714 227.685 369.046 227.685Z" fill="#4F60D9"/>
<path d="M359.397 193.664L359.155 211.476H356.347L356.105 193.664H359.397ZM357.751 218.639C357.154 218.639 356.642 218.425 356.214 217.998C355.787 217.57 355.573 217.058 355.573 216.461C355.573 215.864 355.787 215.352 356.214 214.924C356.642 214.497 357.154 214.283 357.751 214.283C358.348 214.283 358.86 214.497 359.288 214.924C359.715 215.352 359.929 215.864 359.929 216.461C359.929 216.856 359.828 217.219 359.627 217.55C359.433 217.881 359.171 218.147 358.84 218.349C358.517 218.542 358.154 218.639 357.751 218.639Z" fill="white"/>
<path d="M436.696 519.364L435.896 533.784L447.587 534.04L449.016 518.891L436.696 519.364Z" fill="#FDA893"/>
<path d="M440.536 531.759C440.536 531.759 446.555 530.395 448.201 530.489C449.848 530.585 460.416 543.353 464.104 544.222C470.793 545.797 470.403 556.328 466.282 556.695C454.363 557.757 434.263 551.972 434.263 551.972C434.263 551.972 432.905 538.389 433.879 534.179C434.85 529.972 437.175 532.881 440.536 531.759Z" fill="#707FFF"/>
<path d="M449.924 543.662C449.71 543.7 449.483 543.655 449.293 543.518C448.926 543.25 448.846 542.736 449.113 542.369C449.201 542.246 451.33 539.349 453.864 538.409C457.234 537.154 459.52 539.238 459.615 539.326C459.948 539.635 459.965 540.156 459.655 540.489C459.347 540.821 458.826 540.84 458.493 540.529C458.432 540.474 456.835 539.062 454.435 539.951C452.371 540.717 450.461 543.31 450.442 543.338C450.312 543.515 450.124 543.625 449.924 543.662Z" fill="#FEFDFF"/>
<path d="M447.745 541.092C447.532 541.13 447.304 541.085 447.114 540.947C446.747 540.68 446.665 540.166 446.934 539.798C447.022 539.676 449.151 536.779 451.685 535.839C455.057 534.584 457.341 536.666 457.436 536.757C457.769 537.066 457.786 537.588 457.476 537.919C457.168 538.252 456.647 538.271 456.314 537.959C456.251 537.904 454.655 536.492 452.256 537.38C450.182 538.151 448.282 540.74 448.263 540.767C448.133 540.945 447.945 541.055 447.745 541.092Z" fill="#FEFDFF"/>
<path d="M453.01 545.902C452.798 545.941 452.569 545.896 452.379 545.758C452.012 545.491 451.931 544.976 452.199 544.607C452.288 544.485 454.417 541.588 456.95 540.648C460.323 539.391 462.606 541.476 462.702 541.565C463.035 541.875 463.052 542.395 462.742 542.728C462.433 543.061 461.912 543.08 461.58 542.768C461.517 542.713 459.92 541.301 457.521 542.19C455.448 542.96 453.547 545.549 453.529 545.575C453.399 545.755 453.212 545.866 453.01 545.902Z" fill="#FEFDFF"/>
<path d="M479.686 343.637C479.686 343.637 479.444 347.024 479.001 352.64C478.887 354.126 478.758 355.769 478.616 357.556C477.102 376.405 474.175 410.488 470.976 434.668C466.492 468.565 452.37 524.27 452.37 524.27L437.79 523.77L436.348 523.712L432.893 523.598C432.893 523.598 435.32 488.357 438.419 457.761C440.461 437.583 441.674 389.838 442.26 359.685C442.56 344.137 442.703 333.262 442.703 333.262L479.686 343.637Z" fill="#3B3E7D"/>
<path d="M479.686 343.637C479.686 343.637 479.444 347.024 479.001 352.64C478.887 354.126 478.758 355.769 478.615 357.556C471.89 358.813 453.398 359.685 442.26 359.685C442.56 344.137 442.702 333.262 442.702 333.262L479.686 343.637Z" fill="#18285D"/>
<path d="M450.56 352.393C450.545 353.551 449.203 463.402 437.794 523.766L436.352 523.709C447.775 463.531 449.117 353.522 449.132 352.379L450.56 352.393Z" fill="#18285D"/>
<path d="M528.13 522.13L527.652 535.139L515.768 534.51L515.5 520.695L528.13 522.13Z" fill="#FDA893"/>
<path d="M524.618 534.542C524.618 534.542 527.207 531.167 529.221 531.343C531.235 531.518 546.608 544.125 551.921 545.226C557.236 546.326 556.142 550.239 555.136 552.231C554.129 554.223 512.636 550.846 512.636 550.846C512.636 550.846 511.678 538.456 513.091 534.692C514.505 530.927 520.437 535.377 524.618 534.542Z" fill="#707FFF"/>
<path d="M533.087 543.302C532.897 543.355 532.687 543.335 532.504 543.226C532.149 543.016 532.031 542.559 532.24 542.203C532.31 542.084 533.979 539.279 536.187 538.207C539.123 536.777 541.37 538.46 541.464 538.532C541.791 538.782 541.854 539.252 541.603 539.579C541.353 539.906 540.885 539.969 540.556 539.718C540.495 539.672 538.93 538.537 536.838 539.552C535.04 540.425 533.541 542.937 533.526 542.963C533.425 543.135 533.265 543.25 533.087 543.302Z" fill="#FEFDFF"/>
<path d="M530.89 541.168C530.702 541.221 530.49 541.201 530.307 541.093C529.952 540.883 529.833 540.426 530.043 540.07C530.113 539.952 531.783 537.146 533.989 536.075C536.927 534.644 539.174 536.326 539.268 536.399C539.595 536.649 539.658 537.119 539.406 537.447C539.156 537.774 538.687 537.837 538.36 537.585C538.298 537.539 536.732 536.403 534.641 537.419C532.835 538.297 531.344 540.805 531.33 540.831C531.228 541.001 531.069 541.116 530.89 541.168Z" fill="#FEFDFF"/>
<path d="M536.076 545.054C535.886 545.109 535.676 545.087 535.493 544.98C535.137 544.77 535.019 544.313 535.229 543.957C535.299 543.838 536.968 541.033 539.176 539.961C542.114 538.531 544.361 540.213 544.455 540.286C544.782 540.536 544.843 541.006 544.593 541.333C544.343 541.66 543.874 541.723 543.547 541.472C543.485 541.426 541.917 540.291 539.828 541.306C538.022 542.183 536.531 544.692 536.517 544.717C536.414 544.887 536.254 545.004 536.076 545.054Z" fill="#FEFDFF"/>
<path d="M530.297 525.529L518.218 524.63L516.779 524.53L513.844 524.31C513.844 524.31 506.425 453.634 504.117 434.808C502.111 418.452 492.744 381.705 486.661 358.841C484.937 352.35 483.476 346.978 482.514 343.507C481.78 340.777 481.346 339.225 481.346 339.225L521.727 335.312C521.727 335.312 521.84 336.2 522.025 337.798C522.418 341.067 523.173 347.332 524.086 355.206C526.607 376.639 530.443 409.994 531.929 426.972C535.741 470.694 530.297 525.529 530.297 525.529Z" fill="#3B3E7D"/>
<path d="M524.086 355.206L486.66 358.838C484.937 352.348 483.476 346.976 482.514 343.505L522.025 337.797C522.418 341.067 523.173 347.332 524.086 355.206Z" fill="#18285D"/>
<path d="M518.218 524.622L516.778 524.522C516.077 502.667 513.934 448.083 509.559 424.944C504.06 395.775 491.415 353.302 491.285 352.874L492.66 352.465C492.79 352.895 505.456 395.441 510.962 424.682C515.366 447.967 517.528 502.812 518.218 524.622Z" fill="#18285D"/>
<path d="M523.725 235.688C524.354 241.197 525.02 246.482 525.605 250.911C526.549 258.053 527.279 262.96 527.279 262.96L533.065 281.617C535.045 287.999 542.258 291.086 548.24 288.116C548.341 288.069 548.447 288.015 548.551 287.963C558.878 282.664 552.436 262.267 552.436 262.267L550.449 262.176C549.572 259.948 547.207 254.267 544.201 247.134C543.837 246.258 543.458 245.356 543.075 244.443C542.435 242.926 541.774 241.359 541.1 239.757C540.142 237.486 539.152 235.145 538.153 232.787C530.79 215.368 522.948 196.934 522.948 196.934C520.146 198.374 521.731 218.152 523.725 235.688Z" fill="#FDA893"/>
<path d="M523.727 235.69C524.356 241.199 525.022 246.484 525.607 250.912C533.268 248.332 538.289 243.361 541.102 239.759C540.144 237.488 539.154 235.147 538.155 232.789L523.727 235.69Z" fill="#FD857D"/>
<path d="M539.867 269.267C539.911 269.271 539.95 269.271 539.994 269.27C540.397 269.26 540.742 268.958 540.794 268.548C542.013 258.742 543.324 251.485 544.208 247.131C543.844 246.256 543.461 245.355 543.08 244.441C542.245 248.281 540.63 256.457 539.149 268.342C539.093 268.794 539.413 269.207 539.867 269.267Z" fill="#FD857D"/>
<path d="M546.538 232.028C546.538 232.028 544.876 234.108 541.939 236.417C538.386 239.228 531.806 242.739 525.223 242.964C523.832 219.557 522.487 197.147 520.637 191.379C523.765 195.05 539.626 215.424 546.538 232.028Z" fill="#707FFF"/>
<path d="M541.381 269.694C541.381 269.694 542.071 246.201 546.91 241.053C551.748 235.906 556.252 233.857 560.945 233.875C565.639 233.894 570.067 234.334 569.841 236.273C569.841 236.273 580.558 234.297 585.457 236.936C590.357 239.574 571.384 242.632 565.733 242.962C560.081 243.291 557.197 246.551 557.075 249.932C556.956 253.313 554.41 275.762 554.41 275.762L541.381 269.694Z" fill="#FDA893"/>
<path d="M529.123 343.948C497.565 352.808 465.794 353.594 433.765 346.377C433.436 337.288 432.794 306.749 432.637 275.239C432.637 273.581 432.622 271.909 432.622 270.237V267.836C432.608 267.007 432.608 266.164 432.608 265.335C432.608 264.492 432.608 263.663 432.594 262.835C432.608 262.006 432.594 261.177 432.608 260.334C432.594 259.533 432.608 258.733 432.594 257.933C432.594 257.104 432.594 256.261 432.608 255.446C432.608 254.617 432.622 253.774 432.622 252.945C432.622 252.102 432.622 251.273 432.637 250.445C432.637 249.644 432.637 248.844 432.651 248.044C432.651 246.458 432.665 244.857 432.679 243.299V243.056C432.694 241.985 432.694 240.913 432.722 239.855C432.994 215.275 433.836 195.526 435.721 192.782C440.276 186.166 461.61 175.991 468.121 171.175L468.135 172.218C468.135 172.218 472.419 177.591 477.074 177.062C481.301 176.605 484.428 171.603 484.942 170.703C488.298 172.947 495.995 176.505 503.477 180.321C510.945 184.136 518.185 188.181 520.641 191.382C522.726 194.125 524.454 215.033 525.796 240.684V240.756C525.825 241.241 525.839 241.713 525.867 242.199V242.27C525.882 242.628 525.91 242.999 525.925 243.385C525.967 244.142 526.01 244.9 526.039 245.672C526.082 246.458 526.125 247.258 526.153 248.058C526.196 248.887 526.224 249.716 526.282 250.559C526.31 251.388 526.339 252.217 526.396 253.06C526.424 253.874 526.467 254.703 526.496 255.546C526.539 256.332 526.567 257.133 526.596 257.933C526.639 258.776 526.667 259.605 526.71 260.448C526.739 261.263 526.781 262.091 526.81 262.935C526.838 263.763 526.881 264.607 526.91 265.435C526.953 266.221 526.981 267.022 527.01 267.822C527.067 269.494 527.138 271.152 527.195 272.824C528.366 304.22 529.009 334.773 529.123 343.948Z" fill="#707FFF"/>
<path d="M463.402 195.198C463.084 195.134 462.835 194.862 462.814 194.522C462.788 194.116 463.097 193.764 463.502 193.739C482.144 192.538 488.543 178.458 488.606 178.316C488.77 177.943 489.205 177.773 489.577 177.938C489.949 178.101 490.119 178.535 489.957 178.908C489.889 179.062 488.253 182.744 484.178 186.612C480.426 190.172 473.811 194.553 463.598 195.211C463.529 195.215 463.464 195.211 463.402 195.198Z" fill="#4F60D9"/>
<path d="M526.396 253.05L432.605 255.441C432.611 254.605 432.617 253.771 432.624 252.935C432.63 252.099 432.623 251.264 432.643 250.442L526.16 248.059C526.195 248.879 526.23 249.713 526.279 250.548C526.312 251.383 526.348 252.216 526.396 253.05Z" fill="#4F60D9"/>
<path d="M526.813 262.928L432.612 265.329C432.605 264.494 432.611 263.658 432.604 262.837C432.609 262.001 432.602 261.166 432.608 260.33L526.604 257.934C526.64 258.768 526.674 259.603 526.708 260.437C526.743 261.259 526.777 262.094 526.813 262.928Z" fill="#4F60D9"/>
<path d="M527.202 272.821L432.646 275.232C432.645 273.576 432.63 271.905 432.629 270.235L527.008 267.828C527.076 269.497 527.146 271.152 527.202 272.821Z" fill="#4F60D9"/>
<path d="M515.876 227.628C518.701 231.255 522.905 239.528 524.794 243.352C525.053 243.877 525.266 244.318 525.428 244.653C525.643 245.091 525.761 245.346 525.771 245.364C525.833 245.494 525.925 245.599 526.04 245.67C526.004 244.904 525.965 244.143 525.927 243.384C525.911 243.008 525.888 242.632 525.87 242.262L525.868 242.2C525.481 241.422 525.024 240.506 524.513 239.501C522.37 235.302 519.318 229.646 517.039 226.721C516.789 226.399 516.325 226.344 516.004 226.594C515.681 226.844 515.628 227.31 515.876 227.628Z" fill="#4F60D9"/>
<path d="M499.878 319.916C500.264 319.906 500.579 319.599 500.595 319.209C500.611 318.802 500.295 318.459 499.888 318.442C479.108 317.61 466.467 307.404 459.52 298.991C451.967 289.842 449.307 280.762 449.281 280.672C449.169 280.28 448.762 280.053 448.37 280.166C447.979 280.277 447.752 280.686 447.865 281.077C447.973 281.458 450.615 290.501 458.345 299.882C465.484 308.55 478.477 319.06 499.829 319.916C499.845 319.918 499.862 319.918 499.878 319.916Z" fill="#4F60D9"/>
<path d="M488.406 307.015C488.732 307.007 489.023 306.782 489.103 306.451C489.199 306.055 488.956 305.656 488.561 305.559C470.41 301.142 466.547 286.164 466.51 286.012C466.413 285.616 466.013 285.373 465.619 285.471C465.224 285.566 464.981 285.965 465.078 286.361C465.118 286.525 466.09 290.434 469.435 294.952C472.512 299.11 478.268 304.573 488.212 306.994C488.278 307.009 488.342 307.017 488.406 307.015Z" fill="#4F60D9"/>
<path d="M442.32 225.044C439.579 228.746 435.595 237.12 433.795 240.993C433.553 241.521 433.353 241.979 433.196 242.307C432.996 242.75 432.882 243.008 432.882 243.036C432.839 243.136 432.767 243.222 432.682 243.293V243.05C432.696 241.979 432.696 240.907 432.724 239.849C433.067 239.063 433.51 238.134 433.981 237.134C436.023 232.89 438.936 227.159 441.135 224.173C441.378 223.844 441.835 223.772 442.163 224.015C442.492 224.258 442.563 224.73 442.32 225.044Z" fill="#4F60D9"/>
<path d="M533.122 238.964L597.064 237.333C598.888 237.286 600.329 235.77 600.283 233.943L600.234 232.054C600.187 230.229 598.672 228.787 596.847 228.833L532.905 230.464C531.082 230.511 529.641 232.027 529.687 233.853L529.735 235.743C529.782 237.569 531.299 239.011 533.122 238.964Z" fill="#18285D"/>
<path d="M600.354 237.249L612.351 187.212C613.025 184.401 610.853 181.716 607.965 181.791L578.787 182.534C576.817 182.584 575.122 183.938 574.638 185.849L561.361 238.243L600.354 237.249Z" fill="#3B3E7D"/>
<path d="M574.636 185.851L561.469 237.813L558.135 237.897L571.302 185.935C571.79 184.025 573.481 182.668 575.451 182.617L578.786 182.531C576.817 182.584 575.125 183.94 574.636 185.851Z" fill="#18285D"/>
<g opacity="0.5">
<path d="M582.815 212.288C582.141 215.586 584.249 218.192 587.524 218.107C590.8 218.024 594.002 215.283 594.677 211.985C595.351 208.688 593.243 206.083 589.968 206.166C586.692 206.25 583.49 208.991 582.815 212.288Z" fill="#3B3E7D"/>
</g>
<path d="M455.201 137.136C455.201 137.136 453.262 138.133 452.706 134.325C452.151 130.516 453.691 129.835 452.546 128.03C451.401 126.225 450.607 123.86 452.398 122.164C454.188 120.466 450.397 116.297 452.468 114.135C454.54 111.973 457.965 111.438 459.278 109.019C460.591 106.601 462.648 101.984 469.148 101.911C475.646 101.837 477.861 107.021 481.261 105.558C484.661 104.096 487.167 103.297 491.224 106.038C495.281 108.779 491.159 112.736 494.919 114.567C498.678 116.397 495.867 122.065 500.183 125.257C503.436 127.664 500.36 137.453 493.864 136.151C487.368 134.848 455.201 137.136 455.201 137.136Z" fill="#18285D"/>
<path d="M456.848 138.658C456.848 138.658 453.154 133.982 450.598 137.992C448.042 142.002 452.094 153.548 458.526 150.54L456.848 138.658Z" fill="#FD857D"/>
<path d="M457.013 146.977C456.773 146.983 456.549 146.83 456.473 146.589C455.374 143.02 451.615 141.657 451.578 141.644C451.292 141.543 451.141 141.23 451.242 140.942C451.342 140.655 451.657 140.505 451.942 140.605C452.118 140.667 456.259 142.154 457.525 146.264C457.615 146.554 457.453 146.863 457.161 146.952C457.113 146.969 457.063 146.976 457.013 146.977Z" fill="#F05B56"/>
<path d="M453.212 145.267C453.11 145.27 453.007 145.244 452.913 145.187C452.653 145.028 452.571 144.691 452.728 144.431C452.754 144.388 453.387 143.366 454.749 142.714C455.022 142.583 455.351 142.699 455.481 142.973C455.613 143.247 455.497 143.575 455.223 143.706C454.171 144.211 453.672 144.995 453.668 145.002C453.567 145.17 453.392 145.262 453.212 145.267Z" fill="#F05B56"/>
<path d="M493.667 137.714C493.667 137.714 497.119 132.855 499.876 136.73C502.633 140.604 499.173 152.342 492.598 149.667L493.667 137.714Z" fill="#FD857D"/>
<path d="M493.927 146.033C494.167 146.027 494.384 145.863 494.445 145.618C495.362 141.998 499.046 140.446 499.083 140.431C499.365 140.315 499.499 139.993 499.383 139.713C499.269 139.432 498.948 139.298 498.668 139.412C498.495 139.482 494.435 141.18 493.38 145.348C493.306 145.643 493.484 145.941 493.778 146.017C493.828 146.028 493.878 146.034 493.927 146.033Z" fill="#F05B56"/>
<path d="M497.633 144.12C497.736 144.117 497.837 144.087 497.927 144.025C498.178 143.853 498.243 143.512 498.073 143.26C498.044 143.219 497.36 142.23 495.968 141.648C495.689 141.531 495.365 141.664 495.25 141.944C495.133 142.224 495.265 142.547 495.545 142.663C496.622 143.113 497.16 143.87 497.164 143.877C497.273 144.04 497.453 144.125 497.633 144.12Z" fill="#F05B56"/>
<path d="M484.606 159.754L484.9 171.332C484.9 171.332 481.6 177.317 476.944 177.837C472.293 178.363 468.011 172.984 468.011 172.984L467.705 160.999L484.606 159.754Z" fill="#FDA893"/>
<path d="M484.607 159.754L484.739 164.891C481.696 168.448 476.158 169.459 467.899 168.453L467.709 161L484.607 159.754Z" fill="#FD857D"/>
<path d="M496.045 129.705C495.945 134.21 495.66 139.847 494.917 144.369C494.732 145.496 494.516 146.558 494.272 147.511C492.054 156.104 486.337 170.891 469.133 165.232C461.535 162.734 457.831 154.429 456.059 145.932C454.856 140.162 454.548 134.308 454.518 130.12C454.492 125.844 456.723 121.88 460.384 119.678C470.302 113.711 480.975 115.569 488.035 118.081C492.934 119.822 496.161 124.512 496.045 129.705Z" fill="#FDA893"/>
<path d="M468.512 139.867C468.544 141.103 467.932 142.12 467.147 142.14C466.362 142.16 465.701 141.174 465.669 139.938C465.638 138.702 466.249 137.684 467.034 137.664C467.818 137.644 468.481 138.63 468.512 139.867Z" fill="#18285D"/>
<path d="M485.59 139.433C485.622 140.669 485.011 141.687 484.225 141.707C483.44 141.727 482.779 140.741 482.747 139.504C482.716 138.268 483.327 137.251 484.112 137.231C484.896 137.211 485.559 138.197 485.59 139.433Z" fill="#18285D"/>
<path d="M488.964 131.974C488.964 131.974 483.03 129.8 478.557 131.871L479.074 134.378C479.074 134.378 485.698 133.646 489.078 134.918C489.352 133.94 489.37 132.96 488.964 131.974Z" fill="#18285D"/>
<path d="M461.031 132.698C461.031 132.698 466.89 130.207 471.496 132.061L471.105 134.609C471.105 134.609 464.402 134.213 461.068 135.665C460.741 134.697 460.673 133.711 461.031 132.698Z" fill="#18285D"/>
<path d="M476.173 148.794C475.254 148.921 474.293 148.691 474.144 148.653C473.849 148.577 473.672 148.278 473.748 147.984C473.822 147.69 474.122 147.511 474.416 147.587C474.936 147.718 476.16 147.868 476.63 147.49C476.72 147.417 476.838 147.281 476.827 146.945C476.76 145.014 475.354 138.708 475.34 138.644C475.274 138.348 475.46 138.053 475.757 137.986C476.054 137.919 476.347 138.106 476.414 138.404C476.472 138.667 477.855 144.874 477.926 146.906C477.953 147.671 477.611 148.113 477.319 148.347C476.998 148.604 476.59 148.737 476.173 148.794Z" fill="#FD857D"/>
<path d="M468.293 152.054C468.8 154.304 470.399 158.427 475.428 158.299C480.471 158.17 481.787 154.332 482.207 151.699L468.293 152.054Z" fill="white"/>
<path d="M475.449 161.709C476.872 161.673 478.06 160.922 478.11 160.889C478.365 160.724 478.44 160.384 478.275 160.129C478.111 159.873 477.771 159.798 477.516 159.961C477.507 159.967 476.529 160.58 475.421 160.607C474.404 160.633 473.416 160.074 473.406 160.068C473.143 159.916 472.808 160.004 472.655 160.267C472.502 160.53 472.591 160.866 472.853 161.019C472.903 161.05 474.107 161.743 475.449 161.709Z" fill="#FD857D"/>
<path d="M496.045 129.701C495.945 134.206 495.66 139.843 494.917 144.365L492.456 144.253C492.456 144.253 492.954 140.439 493.165 137.957C493.377 135.475 493.726 130.836 491.602 130.313C489.483 129.794 490.584 124.485 487.595 122.272C484.608 120.052 478.048 118.2 473.797 120.973C469.544 123.739 464.593 122.396 462.616 122.909C460.632 123.416 457.998 126.236 458.795 128.785C459.596 131.331 457.438 132.948 456.972 135.618C456.507 138.287 458.393 145.395 458.393 145.395L456.059 145.928C454.856 140.158 454.548 134.304 454.518 130.116C454.492 125.84 456.723 121.876 460.384 119.674C470.302 113.707 480.975 115.565 488.035 118.077C492.934 119.818 496.161 124.508 496.045 129.701Z" fill="#18285D"/>
<path d="M437.073 331.635L431.204 339.652C431.204 339.652 427.805 337.523 423.193 333.821C423.179 333.807 423.179 333.807 423.164 333.793C416.139 328.177 407.608 317.747 402.273 307.019C393.944 290.268 397.718 278.251 397.718 278.251C398.546 270.191 403.059 259.025 407.357 246.863C408.928 242.447 410.356 238.603 411.355 235.902L424.478 238.918L430.09 242.376L427.934 248.078C424.221 260.386 420.023 272.491 414.404 283.999C415.675 295.274 420.437 308.884 425.934 317.23C431.618 325.89 437.073 331.635 437.073 331.635Z" fill="#FDA893"/>
<path d="M437.074 331.631L431.205 339.648C431.205 339.648 427.806 337.519 423.194 333.818C423.18 333.804 423.18 333.804 423.166 333.789C422.152 327.73 422.766 319.17 425.936 317.227C431.619 325.887 437.074 331.631 437.074 331.631Z" fill="#FD857D"/>
<path d="M433.939 322.386C435.12 322.463 441.417 322.776 440.736 320.62C439.985 318.242 433.805 315.457 433.805 315.457C433.805 315.457 433.769 315.335 433.829 315.175L433.762 314.666L433.489 309.555C432.295 309.563 431.199 309.796 430.605 309.981C427.896 310.819 428.267 317.02 428.267 317.02C428.267 317.02 424.851 318.242 424.976 320.744C425.101 323.248 427.853 323.624 427.853 323.624C427.853 323.624 424.095 325.502 424.973 327.629C425.851 329.757 428.7 330.383 428.7 330.383C428.7 330.383 425.475 332.511 426.602 334.013C427.727 335.515 430.355 336.267 430.355 336.267C430.355 336.267 428.106 339.313 430.392 340.974C432.677 342.635 436.038 342.274 438.2 341.523C440.362 340.771 439.986 338.017 435.734 336.015C435.734 336.015 439.487 336.391 441.361 333.261C442.926 330.652 438.935 329.524 435.531 329.076C438.206 329.256 442.821 329.18 443.613 326.626C444.651 323.279 435.385 322.489 433.939 322.386Z" fill="#FDA893"/>
<path d="M430.09 242.376L427.934 248.078C423.579 248.349 415.782 248.478 407.357 246.863C408.928 242.447 410.356 238.603 411.356 235.902L424.479 238.918L430.09 242.376Z" fill="#FD857D"/>
<path d="M435.716 192.789C435.716 192.789 415.922 212.053 404.26 240.024C413.4 242.982 422.053 245.075 430.087 246.076C431.037 243.479 436.035 232.73 440.458 225.142L435.716 192.789Z" fill="#707FFF"/>
<path d="M275.638 41.3763L275.66 41.3149C275.991 40.5818 276.294 39.8387 276.565 39.097C280.553 28.2047 280.946 5.84707 256.144 0.55812C256.144 0.55812 235.703 -4.22065 226.611 14.1885C226.611 14.1885 222.517 22.7171 219.608 28.9121C219.608 28.9121 217.168 41.9294 204.895 43.0783C192.621 44.2273 185.777 48.9432 186.957 58.0406C188.136 67.138 186.249 65.6903 177.752 73.3829C169.256 81.0756 163.328 95.4619 170.658 104.931C177.988 114.4 205.412 91.9964 222.973 102.007C240.533 112.018 270.022 109.091 273.451 94.846C276.879 80.6025 263.144 71.2151 263.875 63.9797C264.607 56.7458 273.412 48.2987 275.638 41.3763Z" fill="#29245D"/>
<path d="M282.306 132.697L264.785 132.711L256.317 116.234L255.361 114.347L251.748 107.331C251.748 107.331 252.473 77.4634 260.127 73.3906L282.306 132.697Z" fill="#707FFF"/>
<path d="M256.314 116.234L255.357 114.348C257.042 110.933 259.955 103.073 257.642 92.9551C257.542 92.4835 257.828 92.0262 258.285 91.9262C258.742 91.8262 259.213 92.112 259.313 92.5693C262.055 104.573 257.942 113.391 256.314 116.234Z" fill="#4F60D9"/>
<path d="M286.609 130.623C286.609 130.623 288.119 137.135 290.69 138.929C293.262 140.722 292.612 131.616 292.612 131.616C292.612 131.616 293.478 142.606 296.14 142.9C298.801 143.194 298.266 132.495 298.266 132.495C298.266 132.495 299.985 139.852 302.001 140.281C304.019 140.711 303.948 132.874 303.948 132.874C303.948 132.874 305.901 138.566 307.393 139.06C308.887 139.555 309.609 132.942 308.771 129.574C307.932 126.206 303.742 128.251 303.742 128.251C303.742 128.251 299.782 127.106 298.409 128.471C298.409 128.471 294.859 126.927 292.871 127.926C292.871 127.929 287.073 126.254 286.609 130.623Z" fill="#FDA893"/>
<path d="M257.113 87.6818C257.785 93.4409 259.612 99.2571 257.171 108.417C256.4 111.318 255.2 113.633 252.944 117.606V117.621C252.93 117.621 252.93 117.621 252.93 117.621C252.83 117.849 252.701 118.064 252.558 118.292C252.516 118.707 252.458 119.107 252.416 119.507C250.945 129.71 251.33 124.294 251.502 132.711H198.725L199.11 111.804L199.196 107.346L199.953 66.303L216.617 64.8311H216.631L219.501 64.5739L219.673 64.5453L224.156 64.1595C224.556 64.1166 224.942 64.088 225.342 64.0594C231.382 63.6879 237.436 64.631 243.105 66.8175L243.291 66.889L245.79 67.8464V67.8607L245.947 67.9179L248.389 68.8611L260.126 73.3912C259.527 76.0349 257.656 85.0237 257.113 87.6818Z" fill="#707FFF"/>
<path d="M205.766 96.6164L199.111 111.807L199.197 107.349L204.195 95.9304C204.38 95.5017 204.895 95.3016 205.323 95.4874C205.751 95.6732 205.951 96.1877 205.766 96.6164Z" fill="#4F60D9"/>
<path d="M216.623 64.8332C222.066 75.8112 235.393 88.0782 242.222 84.2926C246.423 81.969 248.139 74.335 248.386 68.8645L245.939 67.9242L245.79 67.8685V67.8642L243.293 66.901L243.102 66.8267C237.44 64.6431 231.384 63.7028 225.341 64.0757C225.135 64.1043 224.927 64.1315 224.721 64.1601C224.531 64.1829 224.344 64.2072 224.158 64.2301L219.669 64.5659L219.496 64.5802L216.623 64.8332Z" fill="#FDA893"/>
<path d="M252.565 118.299C252.515 118.705 252.459 119.108 252.416 119.51C249.525 120.127 240.449 121.403 225.02 117.706C223.019 117.226 220.91 116.663 218.695 116.001C218.24 115.868 217.984 115.39 218.117 114.934C218.254 114.485 218.734 114.224 219.182 114.361C241.44 120.977 252.802 117.656 252.916 117.625C252.929 117.622 252.936 117.618 252.948 117.615C252.822 117.836 252.698 118.065 252.565 118.299Z" fill="#4F60D9"/>
<path d="M267.15 39.7728C267.15 39.7728 272.061 36.6946 273.31 41.1376C274.559 45.582 267.267 54.7808 262.023 50.0235L267.15 39.7728Z" fill="#FD857D"/>
<path d="M265.039 50.2773C264.817 50.8989 265.14 51.582 265.761 51.805C266.382 52.0265 267.065 51.7035 267.288 51.0818C267.509 50.4602 267.186 49.7757 266.565 49.5542C265.944 49.3327 265.26 49.6557 265.039 50.2773Z" fill="white"/>
<path d="M264.525 47.2688C264.752 47.3503 265.012 47.2817 265.155 47.0859C267.263 44.1949 271.252 44.1434 271.292 44.1434C271.595 44.142 271.832 43.9048 271.821 43.6133C271.811 43.3217 271.557 43.0859 271.254 43.0859C271.068 43.0859 266.676 43.1317 264.248 46.4614C264.077 46.6972 264.141 47.0273 264.391 47.2002C264.433 47.2288 264.478 47.2516 264.525 47.2688Z" fill="#F05B56"/>
<path d="M268.661 46.9113C268.758 46.9456 268.864 46.9556 268.971 46.9327C269.265 46.8712 269.444 46.5897 269.371 46.3039C269.359 46.2567 269.058 45.1292 267.953 44.1103C267.732 43.9045 267.383 43.9059 267.176 44.1146C266.969 44.3218 266.983 44.6562 267.205 44.862C268.059 45.6508 268.301 46.5197 268.304 46.5283C268.351 46.7098 268.49 46.8498 268.661 46.9113Z" fill="#F05B56"/>
<path d="M233.267 52.3516L228.684 65.1959C228.684 65.1959 233.005 71.934 237.515 73.9989C242.019 76.0668 245.586 71.1508 245.586 71.1508L249.853 59.1968L233.267 52.3516Z" fill="#FDA893"/>
<path d="M232.819 53.6094L230.99 58.7325C232.875 63.317 237.98 66.5266 246.619 68.2486L249.404 60.4531L232.819 53.6094Z" fill="#FD857D"/>
<path d="M267.438 45.3754C266.847 46.5629 266.221 47.7619 265.55 48.9394C261.095 56.7635 252.596 63.8988 245.39 63.0299C229.83 61.1536 227.892 47.7033 228.569 38.5344C228.646 37.5155 229.502 36.6252 229.691 35.4548C230.143 32.6839 230.147 29.3527 230.949 26.3546C231.506 24.2767 232.1 22.2432 232.657 20.4126C234.235 15.2537 238.837 11.6396 244.079 11.4581C251.636 11.1894 262.427 12.6956 269.951 21.6844C272.73 25.0041 273.572 29.6128 272.159 33.8214C271.078 37.0354 269.507 41.1839 267.438 45.3754Z" fill="#FDA893"/>
<path d="M247.565 45.5601C247.297 45.4643 247.13 45.1857 247.181 44.897C247.24 44.574 247.547 44.3582 247.869 44.4168L249.904 44.7798L249.776 36.7842C249.77 36.457 250.031 36.1855 250.36 36.1797C250.687 36.1755 250.958 36.4355 250.962 36.7642L251.114 46.2017L247.66 45.5844C247.628 45.5801 247.595 45.5715 247.565 45.5601Z" fill="#FD857D"/>
<path d="M266.916 29.3264C271.626 33.9065 267.452 39.9557 268.154 43.9914C268.198 44.2529 268.314 44.3387 268.488 44.2744C270.616 40.0086 272.22 35.7815 273.319 32.5046C274.757 28.2117 273.82 23.4887 270.866 20.0604C262.866 10.7801 251.516 9.11952 243.582 9.31101C238.079 9.4382 233.285 13.0852 231.684 18.347C231.119 20.2133 230.518 22.2883 229.955 24.4076C230.69 25.2979 232.881 26.3668 232.44 27.9031C231.274 31.9659 230.498 34.754 231.412 34.814C232.952 34.9112 235.538 30.4096 235.05 26.7269C235.05 26.7269 237.083 25.0921 243.047 24.9435C250.696 24.7534 258.538 23.2286 258.538 23.2286C258.538 23.2286 261.64 22.6027 263.219 21.2751C263.222 21.2765 263.329 25.8381 266.916 29.3264Z" fill="#29245D"/>
<path d="M257.806 38.9883C257.366 40.2216 257.645 41.4478 258.427 41.7278C259.21 42.0079 260.202 41.2348 260.642 40.003C261.082 38.7711 260.804 37.545 260.021 37.2649C259.237 36.9834 258.246 37.7565 257.806 38.9883Z" fill="#29245D"/>
<path d="M241.65 33.2024C241.21 34.4356 241.489 35.6618 242.271 35.9419C243.054 36.222 244.046 35.4489 244.486 34.217C244.926 32.9837 244.647 31.7576 243.865 31.4789C243.082 31.2003 242.09 31.9691 241.65 33.2024Z" fill="#29245D"/>
<path d="M264.768 34.0458C263.707 33.4156 261.534 32.2252 259.048 31.4335C258.394 31.2248 257.703 31.5278 257.607 32.0737L257.604 32.088C257.529 32.5239 257.87 32.9583 258.4 33.1041C260.119 33.5757 264.486 35.1676 266.306 36.5024C266.468 36.228 266.383 35.8436 266.193 35.4663C265.908 34.8947 265.388 34.4131 264.768 34.0458Z" fill="#29245D"/>
<path d="M241.882 26.1672C243.104 26.3358 245.546 26.7589 247.983 27.6906C248.624 27.935 248.977 28.6023 248.711 29.0896L248.704 29.1011C248.492 29.4898 247.955 29.6155 247.449 29.3998C245.811 28.6981 241.405 27.2204 239.148 27.1304C239.193 26.8146 239.498 26.5674 239.882 26.3901C240.462 26.1215 241.168 26.0686 241.882 26.1672Z" fill="#29245D"/>
<path d="M252.574 51.1082C251.46 52.9217 248.794 56.0385 244.155 54.3794C239.504 52.7174 239.377 48.9518 239.74 46.5195L252.574 51.1082Z" fill="white"/>
<path d="M243.02 57.773C244.359 58.2517 245.799 57.953 245.86 57.9402C246.174 57.873 246.374 57.5629 246.307 57.2485C246.24 56.9341 245.931 56.734 245.617 56.7998C245.606 56.8026 244.432 57.0413 243.411 56.6754C242.306 56.281 241.525 55.3407 241.518 55.3307C241.313 55.082 240.948 55.0449 240.698 55.2492C240.45 55.4522 240.412 55.818 240.615 56.0667C240.655 56.1167 241.602 57.2656 243.02 57.773Z" fill="#FD857D"/>
<path d="M232.49 27.3398C232.49 27.3398 230.263 21.1606 226.714 23.7729C223.166 26.3852 222.817 37.7248 229.382 37.2746L232.49 27.3398Z" fill="#FDA893"/>
<path d="M225.73 36.2271C225.509 36.8487 225.831 37.5318 226.452 37.7547C227.074 37.9762 227.758 37.6533 227.979 37.0316C228.2 36.41 227.878 35.7255 227.256 35.504C226.634 35.281 225.951 35.6054 225.73 36.2271Z" fill="white"/>
<path d="M229.264 33.6855C229.054 33.6112 228.911 33.4026 228.927 33.1696C229.167 29.7156 226.373 27.2819 226.344 27.2576C226.131 27.0747 226.106 26.7532 226.287 26.5388C226.47 26.3244 226.791 26.2987 227.005 26.4802C227.136 26.5917 230.221 29.2626 229.945 33.2396C229.925 33.5212 229.683 33.7327 229.401 33.7127C229.353 33.7098 229.307 33.6998 229.264 33.6855Z" fill="#FD857D"/>
<path d="M226.549 30.9412C226.461 30.9098 226.379 30.8526 226.317 30.7726C226.145 30.5497 226.187 30.2296 226.409 30.0566C226.447 30.0281 227.335 29.3564 228.73 29.2478C229.01 29.2249 229.255 29.4364 229.277 29.7165C229.298 29.9966 229.088 30.2424 228.808 30.2653C227.73 30.3496 227.038 30.8612 227.031 30.8669C226.889 30.9741 226.708 30.997 226.549 30.9412Z" fill="#FD857D"/>
<path d="M249.775 34.1688C249.895 33.8359 249.936 33.49 249.908 33.1556C249.836 32.2382 249.252 31.4022 248.337 31.052L240.256 27.9596C239.621 27.7166 238.95 27.7552 238.374 28.0124C238.059 28.1539 237.776 28.3597 237.543 28.6241C237.347 28.8413 237.189 29.0942 237.079 29.3801L236.683 30.4133C236.014 32.1653 236.061 34.1002 236.812 35.7294C237.563 37.3471 238.695 38.4731 240.183 39.0791L240.396 39.1605C242.125 39.8222 244.007 39.7736 245.705 39.0205C247.429 38.2574 248.747 36.8669 249.419 35.1049L249.753 34.2303C249.762 34.2117 249.771 34.1888 249.775 34.1688ZM248.468 34.7404C247.893 36.2481 246.765 37.4342 245.295 38.0859C243.843 38.7289 242.237 38.7704 240.762 38.2059L240.567 38.1316C239.329 37.6257 238.378 36.674 237.742 35.3006C237.103 33.923 237.066 32.2725 237.637 30.7777L238.033 29.7445C238.317 28.9999 239.148 28.6298 239.891 28.9142L247.971 32.0067C248.711 32.2896 249.087 33.1228 248.801 33.8659L248.468 34.7404Z" fill="white"/>
<path d="M267.035 40.1322C267.072 39.7849 267.028 39.4362 266.919 39.1104C266.689 38.443 266.178 37.8757 265.47 37.6042L257.386 34.5103C256.45 34.1516 255.427 34.4059 254.76 35.0804C254.536 35.3048 254.352 35.5763 254.231 35.8864C254.221 35.9007 254.216 35.9136 254.211 35.9293L253.815 36.9625C253.145 38.7145 253.195 40.6509 253.946 42.28C254.695 43.8963 255.83 45.0238 257.315 45.6283L257.531 45.7112C259.26 46.3729 261.142 46.3243 262.84 45.5712C264.559 44.808 265.881 43.4176 266.554 41.6555L266.888 40.781C266.969 40.5709 267.019 40.3522 267.035 40.1322ZM265.6 41.294C265.024 42.8016 263.896 43.9878 262.424 44.638C260.976 45.2825 259.368 45.3239 257.895 44.7595L257.698 44.6837C256.46 44.1764 255.509 43.2261 254.872 41.8527C254.236 40.4751 254.196 38.8246 254.767 37.3298L255.163 36.2966C255.447 35.552 256.281 35.1819 257.021 35.4663L265.104 38.5602C265.844 38.8432 266.218 39.6763 265.934 40.4194L265.6 41.294Z" fill="white"/>
<path d="M238.375 28.0078C237.715 27.289 235.917 25.6198 232.861 24.7109V25.7884C235.383 26.6116 236.928 27.9835 237.544 28.6194C237.748 28.8281 237.851 28.9595 237.856 28.9652L238.665 28.345C238.646 28.3193 238.55 28.195 238.375 28.0078Z" fill="white"/>
<path d="M249.422 34.1375L249.453 33.1172C249.518 33.1186 251.031 33.1701 252.501 33.7331C254.066 34.3319 254.89 35.1993 254.924 35.2351L254.18 35.9339C254.174 35.9281 253.469 35.1965 252.136 34.6863C250.833 34.1876 249.436 34.1375 249.422 34.1375Z" fill="white"/>
<path d="M270.21 39.3627C268.311 38.9795 266.59 39.1282 266.479 39.1382L266.571 40.1549C266.6 40.1535 268.366 40.0034 270.21 40.4109V39.3627Z" fill="white"/>
<path d="M241.803 132.765C241.803 132.765 242.131 139.277 240.065 141.072C237.998 142.865 236.081 133.759 236.081 133.759C236.081 133.759 238.315 144.749 235.737 145.043C233.158 145.337 230.674 134.638 230.674 134.638C230.674 134.638 231.031 141.995 229.135 142.424C227.239 142.854 225.098 135.017 225.098 135.017C225.098 135.017 224.751 140.709 223.398 141.203C222.044 141.698 219.455 135.085 219.344 131.719C219.232 128.35 223.999 130.395 223.999 130.395C223.999 130.395 227.636 129.252 229.394 130.615C229.394 130.615 232.508 129.072 234.778 130.071C234.781 130.071 240.106 128.396 241.803 132.765Z" fill="#FDA893"/>
<path d="M212.737 132.691L175.254 132.705C175.225 132.691 175.139 132.377 175.139 132.362C174.482 122.402 180.78 105.625 185.178 90.9624C188.091 81.2591 191.918 69.5837 199.957 66.2969C201.371 67.9689 203.984 74.8569 204.17 78.3724C204.598 86.861 203.527 95.8355 201.956 100.551C199.686 107.325 196.844 115.571 194.774 122.345C194.774 122.345 194.774 122.359 194.759 122.402C194.716 122.587 194.574 123.259 194.574 123.273C194.631 123.288 195.002 123.488 195.659 123.859C198.101 125.217 204.484 128.804 212.737 132.691Z" fill="#707FFF"/>
<path d="M195.655 123.86C191.728 125.689 186.173 129.548 186.116 129.591C185.959 129.705 185.788 129.748 185.631 129.748C185.359 129.748 185.088 129.619 184.917 129.376C184.646 128.99 184.745 128.462 185.131 128.19C185.374 128.019 190.729 124.303 194.755 122.402C194.713 122.588 194.57 123.26 194.57 123.274C194.627 123.288 194.998 123.488 195.655 123.86Z" fill="#4F60D9"/>
<path d="M224.162 64.1484C224.162 64.1484 227.017 77.1514 237.241 77.866C247.465 78.5805 248.392 68.2441 248.392 68.2441" stroke="white" stroke-width="1.71598" stroke-miterlimit="10" stroke-linecap="round"/>
<path d="M585.004 490.181C585.004 490.181 583.839 491.321 581.452 491.497C580.731 491.556 579.902 491.523 578.947 491.33C577.933 491.145 576.785 490.784 575.511 490.181C575.511 490.181 576.064 466.686 566.571 450.502C557.078 434.318 544.509 411.963 554.563 400.499C564.618 389.036 580.815 404.969 586.118 431.801C591.432 458.636 585.004 490.181 585.004 490.181Z" fill="#4F60D9"/>
<path d="M581.455 491.492C580.733 491.55 579.905 491.517 578.95 491.325C582 449.616 563.08 417.399 562.888 417.072C562.529 416.476 562.721 415.706 563.315 415.344C563.911 414.991 564.682 415.184 565.042 415.78C565.242 416.107 584.563 448.961 581.455 491.492Z" fill="#1D38C8"/>
<path d="M617.562 452.262C595.35 488.201 596.884 496.511 596.884 496.511L593.968 495.991L591.487 495.555L587.95 494.926C585.981 478.985 598.215 411.609 620.025 411.609C642.23 411.609 625.129 440.028 617.562 452.262Z" fill="#4F60D9"/>
<path d="M616.726 431.582C616.516 431.935 597.915 465.141 593.969 495.99L591.488 495.554C595.544 464.209 614.33 430.702 614.53 430.342C614.872 429.739 615.645 429.529 616.247 429.872C616.852 430.216 617.061 430.979 616.726 431.582Z" fill="#1D38C8"/>
<path d="M575.31 493.367L572.754 494.055L570.308 494.718L568.841 495.112C568.933 494.793 567.819 492.042 552.193 471.147C545.741 462.51 528.53 439.283 544.309 435.383C558.779 431.81 575.728 481.333 575.31 493.367Z" fill="#4F60D9"/>
<path d="M572.758 494.057L570.312 494.72C565.804 474.586 547.514 449.875 547.312 449.606C546.901 449.053 547.018 448.264 547.572 447.846C548.126 447.434 548.913 447.544 549.331 448.106C550.137 449.195 568.117 473.463 572.758 494.057Z" fill="#1D38C8"/>
<path d="M606.258 546.53C606.258 550.552 556.578 550.552 556.578 546.53V487.412C556.578 486.801 557.074 486.305 557.685 486.305H605.15C605.761 486.305 606.257 486.801 606.257 487.412L606.258 546.53Z" fill="#3B3E7D"/>
<path d="M90.7511 548.003H55.0438C50.1873 548.003 45.8835 544.285 44.3827 538.793L29.2393 483.373C28.6196 481.105 29.949 478.748 31.9481 478.564C59.519 476.023 86.8214 476.02 113.851 478.557C115.847 478.744 117.174 481.099 116.556 483.364L101.411 538.792C99.9114 544.285 95.6076 548.003 90.7511 548.003Z" fill="#3B3E7D"/>
<path d="M113.388 482.584C113.388 484.058 95.3703 485.253 73.1443 485.253C50.9183 485.253 32.9004 484.058 32.9004 482.584C32.9004 481.109 50.9183 479.914 73.1443 479.914C95.3703 479.914 113.388 481.11 113.388 482.584Z" fill="#18285D"/>
<path d="M118.72 407.682C104.238 403.864 82.1104 433.947 75.3904 463.277V420.544C78.769 414.549 85.209 405.529 96.9025 395.998C115.087 381.176 131.827 362.155 117.319 358.331C103.724 354.747 83.3898 381.043 75.3904 408.544V353.667C77.7337 350.027 81.572 345.251 87.7079 340.249C99.1687 330.908 109.718 318.921 100.575 316.51C92.6401 314.418 81.0637 328.475 75.3904 344.329V326.543C76.3286 321.041 77.6537 313.183 81.2907 305.149C89.7199 286.534 94.2736 267.354 83.1599 268.782C72.0362 270.21 64.8236 303.364 70.9067 328.815V337.969C66.797 319.342 52.7003 300.053 43.4986 302.478C34.3554 304.889 44.9051 316.876 56.3658 326.217C65.0892 333.328 69.1717 339.984 70.9067 343.563V386.794C64.3167 357.317 42.0321 326.892 27.4727 330.73C12.9647 334.555 29.7046 353.577 47.8895 368.397C61.6307 379.598 68.1207 390.093 70.9067 395.803V447.643C63.8626 418.705 42.1478 389.5 27.8668 393.266C13.3588 397.09 25.8006 410.992 46.2374 427.805C60.1256 439.232 67.5653 451.29 70.9067 457.845V482.263C72.5274 482.718 74.0453 482.715 75.3904 482.263V472.547C78.2335 466.792 84.7292 456.418 98.3047 445.354C116.488 430.529 133.228 411.507 118.72 407.682Z" fill="#4F60D9"/>
</svg>
