<svg width="80" height="80" viewBox="0 0 80 80" fill="none" xmlns="http://www.w3.org/2000/svg">
<g id="Capa_1" clip-path="url(#clip0_998_205597)">
<g id="Group">
<g id="Group_2">
<g id="Vector 71">
<path d="M1.5 5.5L7.5 13L15 5.5L11.5 1L7.5 2.5L4 1L1.5 5.5Z" fill="#F6BD3D"/>
<path d="M65.5 15L72 22H73L78.5 14L76 9.5L72 11L67.5 9.5L65.5 15Z" fill="#F6BD3D"/>
</g>
<path id="Vector 70" d="M10 39L12.5 43.5L33 65L44.5 70H53L61 78.5L78.5 61L70 51.5V41L65 31.5L59 22L54.5 20.5L51.5 24L53 33L37 17L33 12.5H28L25 17L19.5 15.5L16.5 18.5L17.5 24L13.5 28.5L14.5 34L10 39Z" fill="#73C3FD"/>
<path id="Vector 69" d="M8.5 59.5L2 66L14.5 78.5L21.5 71.5H29.5L37.5 68L44 62.5L43 58.5L37.5 57.5L46.5 46L44 41.5L43 36.5H37.5L33 34L27.5 37.5L23.5 35L14.5 43L9.5 50L8.5 59.5Z" fill="#FCD0A3"/>
<path id="Vector" d="M61.9436 77.1873L53.552 68.7946C53.2589 68.5017 52.8615 68.337 52.4471 68.337C52.4464 68.337 52.4456 68.337 52.445 68.337L47.9426 68.3434C47.9328 68.3434 47.9229 68.3434 47.9131 68.3434C45.4278 68.3434 42.9381 67.8863 40.6079 67.0143L43.3097 65.2026C44.4156 64.461 45.1592 63.3318 45.4037 62.0229C45.6481 60.7139 45.3621 59.3923 44.5984 58.3013C43.6487 56.9451 42.1193 56.2088 40.5621 56.2088C40.5368 56.2088 40.5115 56.209 40.4861 56.2095L46.7093 49.9862C48.5973 48.0981 48.5973 45.0259 46.7093 43.1378C46.25 42.6784 45.7145 42.3229 45.1314 42.0826C45.5636 41.3479 45.7946 40.5087 45.7946 39.6339C45.7946 38.3404 45.2909 37.1242 44.3764 36.2095C43.4617 35.2948 42.2456 34.791 40.952 34.791C40.0771 34.791 39.2381 35.0223 38.5032 35.4545C38.2629 34.8714 37.9075 34.3359 37.4481 33.8764C36.5334 32.9617 35.3173 32.4579 34.0237 32.4579C32.7301 32.4579 31.514 32.9617 30.5993 33.8764L28.3648 36.1109C28.1271 35.5873 27.7957 35.1048 27.377 34.6859C26.4623 33.7712 25.2462 33.2676 23.9526 33.2676C22.659 33.2676 21.4429 33.7713 20.5282 34.6859L19.5378 35.6764L15.5111 31.6723C14.3414 30.5026 14.3414 28.5993 15.5111 27.4296C16.6068 26.3338 18.3462 26.2648 19.5232 27.2218L23.4229 31.1217C23.7281 31.4268 24.1279 31.5793 24.5278 31.5793C24.9276 31.5793 25.3276 31.4267 25.6326 31.1217C26.2428 30.5115 26.2428 29.5221 25.6326 28.912L18.9051 22.1845C17.7354 21.0146 17.7354 19.1113 18.9051 17.9417C20.0748 16.7718 21.9782 16.772 23.1479 17.9417L34.935 29.7513C35.2401 30.0565 35.64 30.209 36.0398 30.209C36.4396 30.209 36.8396 30.0563 37.1446 29.7513C37.7548 29.1412 37.7548 28.1518 37.1446 27.5417L28.1854 18.5596C27.2284 17.3824 27.2976 15.6432 28.3932 14.5476C29.5631 13.3779 31.4665 13.3779 32.6361 14.5476L35.9186 17.8303C36.5289 18.4406 37.5182 18.4406 38.1282 17.8303C38.7384 17.2201 38.7386 16.2307 38.1282 15.6206L34.8457 12.3379C32.4575 9.94979 28.5717 9.94994 26.1836 12.3379C25.3943 13.1271 24.8678 14.0803 24.6001 15.0885C23.5656 14.342 22.3275 13.9381 21.0265 13.9381C19.3904 13.9381 17.8523 14.5753 16.6954 15.732C14.5457 17.8817 14.3323 21.2443 16.0526 23.6365C15.0442 23.904 14.0907 24.4307 13.3014 25.2201C11.0476 27.474 10.922 31.061 12.9221 33.4649C11.9361 33.7373 11.005 34.2587 10.2314 35.0323C7.8434 37.4204 7.8434 41.3062 10.2314 43.6945L10.9287 44.3918C8.29199 47.5578 6.85902 51.5079 6.86496 55.6793L6.86871 58.2674L0.457617 64.679C-0.152539 65.2892 -0.152539 66.2785 0.457617 66.8889C0.762773 67.1939 1.16262 67.3465 1.56246 67.3465C1.9623 67.3465 2.3623 67.1939 2.6673 66.8889L9.53699 60.019C9.83059 59.7254 9.99527 59.327 9.99465 58.9118L9.98996 55.6751C9.98434 51.7917 11.4939 48.1403 14.24 45.3942L21.994 37.6399L21.9942 37.6398L22.7379 36.896C23.0623 36.5715 23.4936 36.3929 23.9525 36.3929C24.4114 36.3929 24.8426 36.5715 25.167 36.896C25.4915 37.2204 25.6701 37.6517 25.6701 38.1106C25.6701 38.5045 25.5376 38.8778 25.2948 39.1809L23.2293 41.2464C22.6192 41.8565 22.6192 42.8459 23.2293 43.4562C23.2307 43.4576 23.2323 43.4587 23.2336 43.4601C23.235 43.4615 23.2361 43.4629 23.2375 43.4643C23.5426 43.7693 23.9425 43.922 24.3423 43.922C24.7421 43.922 25.1421 43.7693 25.4471 43.4643L32.8087 36.0864C33.1331 35.7618 33.5643 35.5832 34.0232 35.5832C34.4821 35.5832 34.9134 35.762 35.2378 36.0864C35.8612 36.7098 35.9036 37.697 35.3661 38.3707L27.8679 45.8853C27.2578 46.4954 27.2578 47.4848 27.8679 48.0951C28.1731 48.4001 28.5729 48.5528 28.9728 48.5528C29.3726 48.5528 29.7726 48.4001 30.0776 48.0951L39.7368 38.4195C40.0612 38.0949 40.4925 37.9164 40.9514 37.9164C41.4103 37.9164 41.8415 38.0951 42.1659 38.4195C42.8356 39.0892 42.8356 40.1789 42.1659 40.8485L32.4904 50.5076C31.8803 51.1178 31.8801 52.1071 32.4904 52.7174C33.1007 53.3274 34.0901 53.3276 34.7001 52.7174L42.2148 45.2193C42.8884 44.6817 43.8756 44.724 44.499 45.3478C45.1687 46.0173 45.1687 47.1071 44.499 47.7767L33.9498 58.3262C33.2067 59.0692 33.1379 60.2085 33.7865 61.0354C34.435 61.8623 35.5581 62.0671 36.4568 61.5223L39.6439 59.5903C40.4473 59.1029 41.4989 59.3243 42.0378 60.0942C42.3161 60.4915 42.4201 60.9728 42.3311 61.4496C42.242 61.9262 41.9712 62.3374 41.5686 62.6074L34.1953 67.5518C31.7961 69.1607 29.0021 70.0106 26.1137 70.0106C26.107 70.0106 26.1 70.0106 26.0932 70.0106L21.0853 70.0034C21.0845 70.0034 21.0839 70.0034 21.0831 70.0034C20.6687 70.0034 20.2712 70.1681 19.9782 70.461L13.1084 77.3309C12.4982 77.941 12.4982 78.9304 13.1084 79.5407C13.4136 79.8457 13.8134 79.9984 14.2132 79.9984C14.6131 79.9984 15.0131 79.8457 15.3181 79.5407L21.7293 73.1295L26.0889 73.1357C26.0971 73.1357 26.1051 73.1357 26.1136 73.1357C29.6237 73.1357 33.02 72.1026 35.9356 70.1474L37.5145 69.0887C40.7409 70.6456 44.3306 71.4688 47.9123 71.4688C47.9234 71.4688 47.9351 71.4688 47.9464 71.4688L51.8001 71.4634L59.7339 79.3971C60.039 79.7021 60.4389 79.8548 60.8387 79.8548C61.2386 79.8548 61.6386 79.7021 61.9436 79.3971C62.5537 78.787 62.5537 77.7976 61.9436 77.1873ZM16.3054 38.9093L16.3051 38.9096L13.0854 42.1293L12.4412 41.4851C11.2715 40.3153 11.2715 38.412 12.4412 37.2423C13.537 36.1465 15.2764 36.0774 16.4534 37.0345L17.3168 37.8979L16.3054 38.9093Z" fill="#171D34"/>
</g>
</g>
<g id="Group_3">
<g id="Group_4">
<path id="Vector_2" d="M79.5422 59.5906C79.2516 59.2984 78.8484 59.1328 78.4375 59.1328C78.0266 59.1328 77.6234 59.2984 77.3328 59.5906C77.0422 59.8812 76.875 60.2828 76.875 60.6953C76.875 61.1063 77.0422 61.5094 77.3328 61.7998C77.6234 62.0905 78.0266 62.2578 78.4375 62.2578C78.8484 62.2578 79.2516 62.0906 79.5422 61.7998C79.8328 61.5077 80 61.1063 80 60.6953C80 60.2827 79.8328 59.8812 79.5422 59.5906Z" fill="#171D34"/>
</g>
</g>
<g id="Group_5">
<g id="Group_6">
<path id="Vector_3" d="M75.3406 55.3907L71.6084 51.6585L71.6175 45.341C71.6242 40.5679 70.2228 35.9496 67.5644 31.9852L60.687 21.7293C59.7476 20.3283 58.3172 19.3863 56.6592 19.0766C55.0011 18.7669 53.3272 19.1293 51.9456 20.0968C49.6819 21.6819 48.7817 24.5419 49.5822 27.0772L45.4986 22.9935C44.8884 22.3835 43.899 22.3835 43.2887 22.9935C42.6786 23.6036 42.6786 24.593 43.2887 25.2033L52.0612 33.9758C52.8728 34.7874 54.1176 34.8626 55.0208 34.154C55.9239 33.4455 56.1476 32.2188 55.5525 31.2371L52.865 26.804C52.0212 25.4121 52.4047 23.5904 53.738 22.6568C54.4261 22.1751 55.2603 21.9946 56.0854 22.1488C56.9112 22.303 57.6236 22.7722 58.0914 23.4699L64.9687 33.7258C67.2798 37.1724 68.4983 41.1872 68.4923 45.3366L68.4825 52.3026C68.4819 52.7177 68.6465 53.1161 68.9401 53.4097L73.1309 57.6005C73.4361 57.9055 73.8359 58.0582 74.2358 58.0582C74.6356 58.0582 75.0356 57.9055 75.3406 57.6005C75.9508 56.9904 75.9508 56.001 75.3406 55.3907Z" fill="#171D34"/>
</g>
</g>
<g id="Group_7">
<g id="Group_8">
<path id="Vector_4" d="M41.825 19.3172C41.536 19.0266 41.1328 18.8594 40.7219 18.8594C40.3094 18.8594 39.9078 19.0266 39.6156 19.3172C39.325 19.6078 39.1578 20.0109 39.1578 20.4219C39.1578 20.8344 39.325 21.2359 39.6156 21.5266C39.9078 21.8172 40.3094 21.9844 40.7219 21.9844C41.1328 21.9844 41.5344 21.8172 41.825 21.5266C42.1172 21.2359 42.2844 20.8328 42.2844 20.4219C42.2844 20.0109 42.1172 19.6078 41.825 19.3172Z" fill="#171D34"/>
</g>
</g>
<g id="Group_9">
<g id="Group_10">
<path id="Vector_5" d="M56.3258 43.5658C56.936 42.9556 56.936 41.9662 56.3258 41.3559C55.7156 40.7459 54.7263 40.7459 54.116 41.3559L53.4344 42.0375C50.5166 44.9555 50.5166 49.7033 53.4344 52.6211C53.7395 52.9261 54.1394 53.0788 54.5392 53.0788C54.9391 53.0788 55.3391 52.9261 55.6441 52.6211C56.2542 52.0109 56.2544 51.0216 55.6441 50.4113C53.9447 48.7119 53.9447 45.9466 55.6441 44.2472L56.3258 43.5658Z" fill="#171D34"/>
</g>
</g>
<g id="Group_11">
<g id="Group_12">
<path id="Vector_6" d="M74.578 8.4375C73.5847 8.4375 72.6138 8.71938 71.7742 9.23484C70.9347 8.71938 69.9638 8.4375 68.9705 8.4375C65.9808 8.4375 63.5485 10.9144 63.5485 13.9586C63.5485 15.6839 64.7889 17.7559 67.3408 20.2934C69.0589 22.0019 70.7538 23.3022 70.8252 23.3567C71.1052 23.5709 71.4397 23.678 71.7742 23.678C72.1088 23.678 72.4431 23.5709 72.7233 23.3567C72.7947 23.3022 74.4896 22.0017 76.2077 20.2934C78.7596 17.7561 80 15.6839 80 13.9586C80 10.9142 77.5677 8.4375 74.578 8.4375ZM71.7738 20.1166C69.1625 17.9478 66.6735 15.1806 66.6735 13.9586C66.6735 12.6373 67.7039 11.5625 68.9705 11.5625C69.6005 11.5625 70.1883 11.8236 70.6258 12.298C70.9217 12.6186 71.338 12.8009 71.7742 12.8009C72.2105 12.8009 72.6269 12.6186 72.9227 12.298C73.3602 11.8238 73.948 11.5625 74.578 11.5625C75.8446 11.5625 76.875 12.6373 76.875 13.9586C76.875 15.1775 74.3852 17.9455 71.7738 20.1166Z" fill="#171D34"/>
</g>
</g>
<g id="Group_13">
<g id="Group_14">
<path id="Vector_7" d="M11.0295 7.39266e-09C10.0362 7.39266e-09 9.06531 0.281875 8.22578 0.797344C7.38625 0.281875 6.41531 7.39266e-09 5.42203 7.39266e-09C2.43234 -0.000156243 0 2.47656 0 5.52094C0 7.24625 1.24047 9.31828 3.79234 11.8558C5.51047 13.5642 7.20547 14.8647 7.27672 14.9192C7.55672 15.1334 7.89125 15.2405 8.22578 15.2405C8.56031 15.2405 8.89469 15.1334 9.17484 14.9192C9.24625 14.8647 10.9411 13.5642 12.6592 11.8559C15.2111 9.31844 16.4516 7.24641 16.4516 5.52109C16.4516 2.47672 14.0192 7.39266e-09 11.0295 7.39266e-09ZM8.22531 11.6789C5.61391 9.51016 3.125 6.74313 3.125 5.52094C3.125 4.19969 4.15547 3.12484 5.42203 3.12484C6.05203 3.12484 6.63984 3.38594 7.07734 3.86031C7.37328 4.18094 7.78953 4.36328 8.22578 4.36328C8.66203 4.36328 9.07844 4.18094 9.37422 3.86031C9.81172 3.38609 10.3995 3.12484 11.0295 3.12484C12.2961 3.12484 13.3266 4.19969 13.3266 5.52094C13.3266 6.73969 10.8367 9.50781 8.22531 11.6789Z" fill="#171D34"/>
</g>
</g>
</g>
<defs>
<clipPath id="clip0_998_205597">
<rect width="80" height="80" fill="white"/>
</clipPath>
</defs>
</svg>
