<svg width="80" height="80" viewBox="0 0 80 80" fill="none" xmlns="http://www.w3.org/2000/svg">
<g id="Capa_1" clip-path="url(#clip0_998_205583)">
<path id="Vector" d="M41.2765 16.9912C45.6448 16.9912 49.1861 13.4499 49.1861 9.08152C49.1861 4.71314 45.6448 1.17188 41.2765 1.17188C36.9081 1.17188 33.3668 4.71314 33.3668 9.08152C33.3668 13.4499 36.9081 16.9912 41.2765 16.9912Z" fill="#FCD0A3"/>
<path id="Vector_2" d="M70.9193 46.6318C75.2877 46.6318 78.8289 43.0905 78.8289 38.7221C78.8289 34.3538 75.2877 30.8125 70.9193 30.8125C66.5509 30.8125 63.0096 34.3538 63.0096 38.7221C63.0096 43.0905 66.5509 46.6318 70.9193 46.6318Z" fill="#FCD0A3"/>
<path id="Vector_3" d="M16.4162 78.82C24.8309 78.82 31.6523 71.9985 31.6523 63.5838C31.6523 55.1691 24.8309 48.3477 16.4162 48.3477C8.00145 48.3477 1.17999 55.1691 1.17999 63.5838C1.17999 71.9985 8.00145 78.82 16.4162 78.82Z" fill="#307FF4"/>
<path id="Vector_4" d="M71.7111 40.5908C80.8307 31.4711 80.9925 16.847 72.0724 7.92693C63.1522 -0.993175 48.5281 -0.831426 39.4085 8.28821C30.2889 17.4079 30.1271 32.032 39.0472 40.9521C47.9673 49.8722 62.5914 49.7104 71.7111 40.5908Z" fill="#FCD0A3"/>
<g id="Group">
<path id="Vector_5" d="M49.0429 19.7133C50.4883 18.2679 50.1887 15.6249 48.3737 13.8099C46.5587 11.9949 43.9156 11.6953 42.4702 13.1407C41.0248 14.5861 41.3244 17.2292 43.1394 19.0442C44.9544 20.8591 47.5975 21.1588 49.0429 19.7133Z" fill="#EC6161"/>
<path id="Vector_6" d="M60.2864 30.9546C58.841 32.4 59.1406 35.0431 60.9556 36.8581C62.7706 38.6731 65.4136 38.9727 66.8591 37.5273C68.3045 36.0819 68.0049 33.4388 66.1899 31.6238C64.3749 29.8088 61.7318 29.5092 60.2864 30.9546Z" fill="#EC6161"/>
</g>
<path id="Vector_7" d="M20.9233 34.6688C30.2225 34.7802 51.2389 36.9943 63.3386 43.3103C65.2267 44.2961 66.0807 46.5289 65.3321 48.5229C63.4345 53.579 58.4264 61.0499 53.8424 65.5443C51.5249 67.8166 48.3437 69.0006 45.1032 68.8164C32.3156 68.0894 4.10063 61.5946 2.04502 57.3854C-0.0430949 53.1099 6.51624 42.1089 14.3565 36.659C16.2796 35.3219 18.581 34.6407 20.9233 34.6688Z" fill="#73C3FD"/>
<path id="Vector_8" d="M45.3325 59.0772C45.2211 49.7781 43.0071 28.7616 36.6909 16.662C35.7052 14.7738 33.4723 13.9199 31.4782 14.6684C26.4222 16.5661 18.9513 21.5742 14.4569 26.1582C12.1846 28.4757 11.0005 31.6569 11.1848 34.8974C11.9118 47.685 18.4066 75.9 22.6158 77.9556C26.8912 80.0437 37.8923 73.4845 43.3422 65.6441C44.6793 63.7208 45.3607 61.4194 45.3325 59.0772Z" fill="#73C3FD"/>
<path id="Vector_9" d="M64.5037 26.0952C63.5998 26.0952 62.7499 26.4472 62.1107 27.0864C61.6531 27.5441 61.6532 28.2859 62.1107 28.7434C62.5685 29.2009 63.3102 29.2011 63.7679 28.7433C63.9645 28.5467 64.2257 28.4386 64.5037 28.4386C64.7816 28.4386 65.0429 28.5467 65.2394 28.7434C65.436 28.94 65.5443 29.2012 65.5443 29.479C65.5443 29.757 65.436 30.0183 65.2394 30.215C64.7818 30.6726 64.7819 31.4145 65.2394 31.872C65.4683 32.1007 65.7682 32.2151 66.068 32.2151C66.3679 32.2151 66.6679 32.1008 66.8968 31.8718C67.536 31.2326 67.8879 30.3829 67.8879 29.479C67.8879 28.5751 67.5358 27.7253 66.8968 27.0864C66.2574 26.4469 65.4077 26.0952 64.5037 26.0952ZM52.9137 13.103C51.5942 11.784 49.4473 11.784 48.128 13.103C47.6703 13.5609 47.6703 14.3026 48.128 14.7602C48.5856 15.2177 49.3275 15.2177 49.785 14.7602C50.1906 14.3543 50.8506 14.3544 51.2564 14.7601C51.6622 15.1658 51.6622 15.8258 51.2564 16.2315C50.7987 16.6893 50.7987 17.431 51.2564 17.8886C51.4851 18.1174 51.7851 18.2318 52.085 18.2318C52.3848 18.2318 52.6848 18.1174 52.9136 17.8886C54.2331 16.5697 54.2331 14.4227 52.9137 13.103ZM78.0545 33.1101C79.1859 30.3028 79.7962 27.2908 79.8305 24.1958C79.8978 18.1063 77.7339 12.3826 73.7141 7.94933C74.9063 6.8198 76.3614 5.98372 77.9398 5.52512C78.5614 5.34466 78.9189 4.6945 78.7383 4.0731C78.5578 3.45154 77.9075 3.0942 77.2862 3.27467C75.3298 3.84295 73.5282 4.88435 72.0572 6.29184C67.6227 2.26874 61.8945 0.105156 55.8042 0.169374C52.7092 0.203593 49.6972 0.813902 46.8902 1.94515C45.2927 0.684527 43.3311 0 41.2765 0C41.2308 0 41.1849 0.000312498 41.1391 0.000937495C38.7658 0.0362498 36.5343 0.979994 34.8556 2.65889C32.002 5.51231 31.4129 9.78838 33.1979 13.2341C32.4898 13.2018 31.766 13.3084 31.0665 13.5712C25.823 15.5393 18.1597 20.7075 13.6202 25.3377C11.1257 27.8817 9.81164 31.3903 10.0148 34.9637C10.0745 36.0126 10.174 37.1771 10.3091 38.4321C7.23728 41.2771 4.45636 44.8686 2.62699 48.3716C1.41356 50.6953 -0.41252 55.0231 0.99169 57.8983C0.997159 57.9095 1.00294 57.9211 1.00872 57.9331C-1.19236 63.9312 0.268101 70.6408 4.81354 75.1863C7.95884 78.3319 12.1402 80.0003 16.4057 80C18.3038 80 20.2188 79.6681 22.0659 78.9906C22.0777 78.9966 22.0897 79.003 22.1014 79.0086C22.7891 79.3444 23.6098 79.5095 24.5408 79.5095C26.8548 79.5095 29.8453 78.4884 33.1374 76.5303C36.1838 74.7183 39.1485 72.2957 41.5632 69.6922C42.8229 69.8276 43.9891 69.9263 45.0363 69.986C45.2775 69.9997 45.5182 70.0065 45.7585 70.0065C49.0784 70.0065 52.2898 68.7068 54.6623 66.3807C57.3159 63.7788 60.2223 60.0886 62.6366 56.2558C62.9816 55.7083 62.8173 54.9848 62.2698 54.6398C61.7221 54.2948 60.9987 54.4591 60.6538 55.0069C58.3325 58.6918 55.5508 62.2275 53.0217 64.7073C50.9473 66.7409 48.0852 67.8135 45.1694 67.6462C44.6191 67.6149 44.0327 67.572 43.416 67.5184C43.7277 67.1176 44.025 66.7155 44.3046 66.3137C45.7752 64.1981 46.5358 61.691 46.5044 59.0639C46.451 54.5976 45.8946 46.9086 44.4936 38.7227C44.48 38.6427 44.4655 38.5607 44.4514 38.4799C52.0009 39.9927 58.3182 42.0113 62.7963 44.3488C64.1552 45.0583 64.7738 46.6757 64.2351 48.111C63.9749 48.8039 63.6462 49.5621 63.258 50.3649C62.9763 50.9477 63.2202 51.6481 63.8029 51.93C63.9673 52.0095 64.141 52.0472 64.3123 52.0472C64.7476 52.0472 65.1659 51.8034 65.3679 51.3853C65.7871 50.5185 66.1441 49.6941 66.4291 48.9346C66.6916 48.2352 66.7982 47.5118 66.7658 46.8039C68.0718 47.4805 69.4966 47.8171 70.9188 47.8171C73.2485 47.8171 75.5695 46.9172 77.3412 45.1455C79.02 43.4666 79.964 41.2351 79.9992 38.8616C80.03 36.7565 79.3433 34.7431 78.0545 33.1101ZM36.5127 4.31607C38.6585 2.17014 41.8555 1.76061 44.406 3.11108C42.2929 4.25169 40.331 5.70887 38.5819 7.45793C37.2573 8.78261 36.0957 10.237 35.1084 11.8009C34.0021 9.3126 34.494 6.33481 36.5127 4.31607ZM6.47088 73.5288C2.83293 69.8908 1.50075 64.6352 2.8759 59.7687C4.6612 60.9175 8.21134 62.5156 15.4647 64.536C16.3269 67.6263 17.2 70.3387 18.036 72.5096C18.8846 74.713 19.6158 76.1586 20.2395 77.1217C15.3707 78.5008 10.111 77.1689 6.47088 73.5288ZM42.3804 64.9748C39.9087 68.5305 36.0057 72.0971 31.9398 74.5154C28.1306 76.781 24.7551 77.6952 23.1303 76.9021C23.0941 76.8844 23.0553 76.8605 23.0145 76.8316C22.9713 76.7903 22.9252 76.7528 22.8764 76.7189C21.9153 75.8385 19.9974 72.2471 17.56 63.3292C17.5521 63.2935 17.5424 63.2585 17.5313 63.224C17.2546 62.2085 16.9711 61.1246 16.6818 59.9682C16.5246 59.3404 15.8886 58.9586 15.2605 59.1159C14.6327 59.2729 14.2511 59.9093 14.4082 60.537C14.5233 60.9975 14.6393 61.45 14.7555 61.8981C5.86072 59.3193 3.72714 57.6247 3.23308 57.0587C3.22558 57.0494 3.21746 57.0405 3.20965 57.0314C3.1423 56.9508 3.11105 56.8964 3.09777 56.8694C1.8495 54.3134 4.93745 47.185 10.6657 41.3501C11.2251 45.4875 12.0844 50.2964 13.1482 55.1553C13.2866 55.7876 13.9116 56.1873 14.5435 56.0495C15.1757 55.9111 15.5758 55.2864 15.4377 54.6544C13.7835 47.098 12.631 39.6871 12.3551 34.8301C12.1893 31.9137 13.2605 29.0519 15.2941 26.9778C19.6297 22.5557 26.9197 17.6304 31.8904 15.7646C33.3257 15.2255 34.9431 15.8443 35.6526 17.2033C37.5015 20.7452 40.0119 27.9217 41.8279 37.0749C41.8344 37.182 41.8549 37.286 41.8891 37.3848C43.1533 43.8449 44.0677 51.2708 44.1613 59.0903C44.1866 61.2276 43.5708 63.2623 42.3804 64.9748ZM65.6043 43.6954C65.148 43.1193 64.5682 42.6291 63.8809 42.2702C58.9568 39.6999 52.2706 37.592 43.9983 36.001C42.7977 29.7797 40.8208 22.0402 37.7301 16.1193C37.3712 15.4319 36.8809 14.8521 36.3049 14.3957C37.3463 12.4612 38.6663 10.6882 40.2393 9.11526C48.8877 0.466873 62.797 0.305154 71.246 8.75417C75.3353 12.8435 77.5519 18.3182 77.4872 24.1697C77.4541 27.1594 76.8264 30.0644 75.6644 32.7501C75.6288 32.8145 75.5994 32.8814 75.5769 32.9501C74.4647 35.4525 72.8858 37.7601 70.8849 39.7609C69.3118 41.3338 67.5388 42.6538 65.6043 43.6954ZM75.6839 43.4872C73.6652 45.5061 70.6871 45.998 68.199 44.8916C69.7629 43.9041 71.2171 42.7427 72.5419 41.418C74.291 39.669 75.7481 37.7071 76.8889 35.594C78.2392 38.1441 77.8295 41.3416 75.6839 43.4872ZM57.2631 24.8061C56.7018 24.8436 56.1531 24.6395 55.7567 24.2431C55.3603 23.8469 55.1551 23.2977 55.1937 22.7367C55.2381 22.0911 54.7506 21.5319 54.1051 21.4875C53.4584 21.4452 52.9003 21.9307 52.8558 22.5763C52.7708 23.8133 53.2242 25.025 54.0997 25.9003C54.9056 26.7059 55.9959 27.1539 57.1289 27.1539C57.2268 27.1539 57.3251 27.1506 57.4235 27.1439C58.0693 27.0995 58.5565 26.5402 58.5123 25.8947C58.4679 25.2491 57.909 24.7628 57.2631 24.8061Z" fill="#171D34"/>
</g>
<defs>
<clipPath id="clip0_998_205583">
<rect width="80" height="80" fill="white"/>
</clipPath>
</defs>
</svg>
