<svg width="48" height="48" viewBox="0 0 48 48" fill="none" xmlns="http://www.w3.org/2000/svg">
<g clip-path="url(#clip0_1807_54989)">
<path d="M24.2372 17.2391C24.7917 15.1796 25.3784 12.984 25.0347 10.8374C24.6886 8.67643 23.1305 7.01424 21.2974 5.9139C20.2572 5.28943 19.1282 4.81871 17.9756 4.44577C16.1224 3.84624 14.1207 3.72943 12.2059 4.07687C10.7934 4.33318 9.47873 4.63037 8.3362 5.52043C8.1547 5.66181 7.18026 6.45709 6.60183 7.25265C5.63479 6.70843 4.22789 6.7074 3.30576 7.36881C2.49567 7.94987 2.1067 9.11902 2.00911 10.0726C1.77942 12.318 1.99083 14.6075 2.62776 16.7728L3.13692 18.8312H23.7791L24.2372 17.2391Z" fill="#F6BD3D"/>
<path d="M23.9633 47.2953H3.11597V37.6893C3.11597 31.9325 7.78275 27.2656 13.5397 27.2656C19.2965 27.2656 23.9633 31.9324 23.9633 37.6893V47.2953Z" fill="white"/>
<path d="M13.5396 27.2656V28.88C12.9664 29.8656 10.034 34.97 8.43129 33.1782C8.056 32.759 7.87947 32.1438 7.72938 31.6145C7.50513 30.8258 7.45938 29.9728 7.55294 29.1559C9.24729 27.9646 11.312 27.2656 13.5396 27.2656Z" fill="#73C3FD"/>
<path d="M19.3499 31.6145C19.1998 32.1438 19.0233 32.759 18.648 33.1782C17.0443 34.97 14.113 29.8656 13.5397 28.88V27.2656C15.7673 27.2656 17.832 27.9646 19.5264 29.1559C19.6199 29.9728 19.5741 30.8259 19.3499 31.6145Z" fill="#73C3FD"/>
<path d="M13.5276 28.9531C8.6219 28.9531 4.64502 24.9763 4.64502 20.0706V16.6403L5.14639 13.8558L13.5275 9.50781L21.583 13.1858L22.4099 16.6403V20.0706C22.4101 24.9763 18.4332 28.9531 13.5276 28.9531Z" fill="#FED2A4"/>
<path d="M22.4101 20.3713H23.6096C24.6398 20.3713 25.4749 19.5362 25.4749 18.506C25.4749 17.4757 24.6398 16.6406 23.6096 16.6406H22.4101V20.3713Z" fill="#FED2A4"/>
<path d="M4.64508 20.3713H3.44554C2.41532 20.3713 1.5802 19.5362 1.5802 18.506C1.5802 17.4757 2.41532 16.6406 3.44554 16.6406H4.64508V20.3713Z" fill="#FED2A4"/>
<path d="M4.66937 16.802C4.66937 16.802 6.48147 14.7885 6.95519 13.5996C6.95519 13.5996 8.47619 15.7291 11.6689 15.9693C11.7142 15.9727 11.7514 15.9328 11.7439 15.888C11.7027 15.6413 11.5846 14.9041 11.5007 14.0644C11.5007 14.0644 13.8459 16.3329 18.9034 16.1028C18.9459 16.1009 18.9776 16.0616 18.9698 16.0197L18.6199 14.1291L22.41 16.6471V11.8257L11.9675 8.01953L4.66937 9.90559V16.802Z" fill="#F6BD3D"/>
<path d="M38.1587 0.703125C35.9868 0.703125 34.2261 2.46384 34.2261 4.63575C34.2261 2.46384 32.4653 0.703125 30.2934 0.703125C28.1215 0.703125 26.3609 2.46375 26.3609 4.63575C26.3608 7.431 28.0166 9.50231 30.0136 11.2867C30.6034 11.8138 31.2188 12.3118 31.8488 12.7899C32.1479 13.0169 34.2261 14.4632 34.2261 14.4632C34.2261 14.4632 36.3042 13.0169 36.6033 12.7899C37.2333 12.3119 37.8487 11.8138 38.4385 11.2867C40.4355 9.50231 42.0913 7.431 42.0912 4.63575C42.0912 2.46375 40.3305 0.703125 38.1587 0.703125Z" fill="#307FF4"/>
<path d="M42.0912 4.63706C42.0912 7.43175 40.4357 9.50372 38.4381 11.2883C37.8483 11.815 37.233 12.3126 36.6036 12.7913C36.304 13.0183 34.2263 14.4647 34.2263 14.4647C34.2263 14.4647 33.2935 13.8155 32.5878 13.319C33.1475 12.9279 34.4836 11.9951 34.7191 11.817C35.3485 11.3383 35.9638 10.8408 36.5536 10.3132C38.5511 8.52853 40.2066 6.4575 40.2066 3.66281C40.2066 2.52647 39.7251 1.50225 38.9535 0.785156C40.7448 1.15266 42.0912 2.7375 42.0912 4.63706Z" fill="#307FF4"/>
<path d="M45.0907 47.2974H30.4305V40.5528C30.4305 36.5045 33.7124 33.2227 37.7607 33.2227C41.809 33.2227 45.0908 36.5045 45.0908 40.5528V47.2974H45.0907Z" fill="#FED2A4"/>
<path d="M45.091 40.552V47.2974H43.2165V40.552C43.2165 38.5276 42.3964 36.6962 41.0692 35.369C39.9511 34.2508 38.473 33.4926 36.8235 33.2827C37.13 33.2433 37.443 33.2227 37.7607 33.2227C39.7851 33.2227 41.6175 34.0428 42.9438 35.369C44.2709 36.6962 45.091 38.5276 45.091 40.552Z" fill="#FFBD86"/>
<path d="M45.0909 40.551V47.2953H30.4308V40.551C30.4308 38.2043 31.5335 36.1154 33.2489 34.7734C33.9782 36.5475 35.7236 37.796 37.7608 37.796C39.798 37.796 41.5428 36.5475 42.272 34.7734C42.5081 34.9571 42.7327 35.1562 42.9441 35.3676C44.2707 36.6941 45.0909 38.5268 45.0909 40.551Z" fill="#73C3FD"/>
<path d="M30.2302 26.4478C29.8072 24.8879 29.3837 23.1957 29.7729 21.5839C30.2488 19.6131 31.603 17.8725 33.4968 17.1051C35.403 16.3326 37.6193 16.5594 39.4149 17.5209C39.8336 17.745 40.2309 18.0093 40.5983 18.3105C40.5983 18.3105 41.2229 18.1223 41.317 18.0904C42.4266 17.7149 43.6619 17.9342 44.6131 18.604C45.979 19.5659 46.5017 21.2439 46.4093 22.8554C46.3349 24.154 45.8211 25.2509 45.4049 26.4572L30.2302 26.4478Z" fill="#171D34"/>
<path d="M31.4683 26.0627V28.4976C31.4683 31.9797 34.2911 34.8025 37.7731 34.8025C41.2552 34.8025 44.078 31.9797 44.078 28.4976V26.0627L42.9409 25.0821L38.7207 20.2773L33.5999 23.1355L31.4683 26.0627Z" fill="#FED2A4"/>
<path d="M44.0608 28.7106H44.9122C45.6435 28.7106 46.2363 28.1178 46.2363 27.3865C46.2363 26.6553 45.6435 26.0625 44.9122 26.0625H44.0608V28.7106Z" fill="#FED2A4"/>
<path d="M31.4683 28.7106H30.6169C29.8856 28.7106 29.2928 28.1178 29.2928 27.3865C29.2928 26.6553 29.8856 26.0625 30.6169 26.0625H31.4683V28.7106Z" fill="#FED2A4"/>
<path d="M31.4856 26.0596C31.4856 26.0596 36.9555 25.4521 39.188 22.0385C39.188 22.0385 40.8482 25.774 44.0608 26.0596L43.6054 25.3508L44.0608 21.7252L38.8804 19.4531L31.4683 22.0385L31.4856 26.0596Z" fill="#171D34"/>
<path d="M9.19525 17.6289C8.80703 17.6289 8.49231 17.9435 8.49231 18.3318V19.9908C8.49231 20.3792 8.80703 20.6938 9.19525 20.6938C9.58356 20.6938 9.89818 20.3791 9.89818 19.9908V18.3318C9.89818 17.9435 9.58356 17.6289 9.19525 17.6289Z" fill="#171D34"/>
<path d="M17.8598 17.6289C17.4716 17.6289 17.1569 17.9435 17.1569 18.3318V19.9908C17.1569 20.3792 17.4716 20.6938 17.8598 20.6938C18.2481 20.6938 18.5627 20.3791 18.5627 19.9908V18.3318C18.5627 17.9435 18.2481 17.6289 17.8598 17.6289Z" fill="#171D34"/>
<path d="M14.6178 22.7846C14.3266 23.0461 13.9505 23.1902 13.5584 23.1902C13.1449 23.1902 12.7534 23.032 12.4563 22.7445C12.1771 22.4745 11.7321 22.4821 11.4622 22.7612C11.1924 23.0403 11.1998 23.4854 11.4789 23.7553C12.0396 24.2974 12.7782 24.5961 13.5584 24.5961C14.2979 24.5961 15.0078 24.324 15.5574 23.8302C15.8462 23.5707 15.8699 23.1263 15.6104 22.8375C15.3511 22.5487 14.9065 22.5249 14.6178 22.7846Z" fill="#171D34"/>
<path d="M13.5396 34.5664C13.1494 34.5664 12.8329 34.8828 12.8329 35.2731C12.8329 35.6634 13.1494 35.9798 13.5396 35.9798C13.9299 35.9798 14.2463 35.6634 14.2463 35.2731C14.2463 34.8828 13.9299 34.5664 13.5396 34.5664Z" fill="#171D34"/>
<path d="M13.5396 37.8516C13.1494 37.8516 12.8329 38.168 12.8329 38.5582C12.8329 38.9485 13.1494 39.2649 13.5396 39.2649C13.9299 39.2649 14.2463 38.9485 14.2463 38.5582C14.2463 38.168 13.9299 37.8516 13.5396 37.8516Z" fill="#171D34"/>
<path d="M25.1688 16.4696C25.6372 14.6587 26.042 12.683 25.7286 10.7264C25.3892 8.60584 23.9439 6.68284 21.6591 5.31137C20.6562 4.7094 19.522 4.20756 18.1919 3.77715C16.2476 3.14818 14.1345 3.01271 12.0804 3.38546C10.6053 3.65303 9.17585 3.97543 7.90413 4.96618C7.86401 4.99749 7.05982 5.62731 6.39466 6.3894C5.23338 5.97362 3.84326 6.11865 2.8961 6.79796C1.63591 7.7019 1.36347 9.47846 1.30994 10.0015C1.0886 12.1662 1.26926 14.4072 1.82847 16.5152C1.24872 16.9864 0.87738 17.7048 0.87738 18.5085C0.87738 19.9246 2.02947 21.0767 3.44557 21.0767H3.99457C4.29363 23.9388 5.85738 26.4303 8.11535 27.9808C4.71616 29.887 2.4131 33.5247 2.4131 37.6914V47.2975C2.4131 47.6858 2.72782 48.0004 3.11604 48.0004H23.9633C24.3516 48.0004 24.6663 47.6858 24.6663 47.2975V40.5002C24.6663 40.1119 24.3516 39.7973 23.9633 39.7973C23.5751 39.7973 23.2604 40.1119 23.2604 40.5002V46.5946H19.9484V39.1792C19.9484 38.7909 19.6337 38.4763 19.2454 38.4763C18.8571 38.4763 18.5425 38.7909 18.5425 39.1792V46.5946H8.53676V39.1792C8.53676 38.7909 8.22213 38.4763 7.83382 38.4763C7.4456 38.4763 7.13088 38.7909 7.13088 39.1792V46.5946H3.81897V37.6914C3.81897 34.9255 4.98016 32.4258 6.84054 30.6541C6.87869 31.0534 6.94872 31.4416 7.05316 31.8089C7.21713 32.3868 7.42113 33.1062 7.90741 33.6494C8.26797 34.0525 8.71572 34.262 9.21138 34.262C9.7586 34.262 10.2471 34.0285 10.6808 33.7086C11.6805 32.9714 12.4444 31.9074 13.1256 30.8858C13.1719 30.8163 13.5701 30.2939 13.5395 30.2451C15.9393 34.0737 17.2349 34.2068 17.6825 34.2525C18.2526 34.3113 18.7901 34.0757 19.1717 33.6497C19.6581 33.1065 19.8621 32.3874 20.026 31.8094C20.1309 31.4405 20.2022 31.0511 20.2402 30.6499C21.4227 31.7759 22.316 33.1926 22.8089 34.7508C23.0707 35.5788 23.2195 36.4416 23.2531 37.3093C23.2681 37.6973 23.5968 37.9995 23.9825 37.9846C24.3705 37.9697 24.6728 37.6429 24.6578 37.2551C24.5466 34.3754 23.3407 31.6857 21.2623 29.6814C20.5615 29.0057 19.785 28.4343 18.9544 27.9707C21.2045 26.4195 22.7622 23.9326 23.0607 21.0766H23.6096C25.0257 21.0766 26.1779 19.9245 26.1779 18.5084C26.1778 17.6783 25.7817 16.9394 25.1688 16.4696ZM3.94216 19.6707H3.44557C2.80469 19.6707 2.28326 19.1492 2.28326 18.5084C2.28326 17.8674 2.80469 17.346 3.44557 17.346H3.94216V19.6707ZM11.2658 31.0847C10.0635 32.6585 9.42157 32.8367 9.25347 32.8539C9.17416 32.8615 9.08547 32.8578 8.95497 32.7121C8.68507 32.4105 8.5301 31.8643 8.40551 31.425C8.24304 30.8537 8.18107 30.214 8.22288 29.5577C8.65572 29.2739 9.11313 29.0247 9.59022 28.8121C10.4357 29.1945 11.3462 29.4574 12.3001 29.5799C12.0107 30.0401 11.6532 30.5775 11.2658 31.0847ZM18.6738 31.4249C18.6737 31.425 18.6737 31.4252 18.6736 31.4253C18.5492 31.8641 18.3942 32.4103 18.1241 32.712C17.9938 32.8577 17.9049 32.8619 17.8253 32.8538C17.6573 32.8366 17.0156 32.6584 15.8144 31.0862C15.4211 30.5716 15.0659 30.0373 14.7768 29.5771C15.729 29.4526 16.6377 29.188 17.4814 28.8044C17.9565 29.0153 18.4161 29.2647 18.8561 29.553C18.8985 30.2108 18.8366 30.8522 18.6738 31.4249ZM21.7071 20.0737C21.7069 24.5837 18.0377 28.2528 13.5275 28.2528C9.01751 28.2528 5.34832 24.5837 5.34804 20.0737V17.0961C5.70354 16.6896 6.53013 15.7147 7.11363 14.7904C7.92138 15.5152 9.40657 16.5042 11.6165 16.6705C11.8556 16.6887 12.0845 16.5972 12.2458 16.4203C12.4069 16.2437 12.4767 16.0074 12.4372 15.7721C12.4265 15.7086 12.412 15.6197 12.3949 15.5103C13.6628 16.1838 15.819 16.9468 18.9349 16.8052C19.1586 16.7952 19.3668 16.6887 19.5062 16.5132C19.6453 16.3379 19.7016 16.1112 19.6609 15.8921L19.6129 15.6331L21.7069 17.0242V20.0737H21.7071ZM22.6159 15.94L19.009 13.5437C18.7738 13.3874 18.4681 13.3871 18.2327 13.5425C17.9971 13.6982 17.8774 13.9795 17.9288 14.257L18.1432 15.4159C13.9885 15.3994 12.0071 13.576 11.9893 13.5593C11.7773 13.3541 11.4597 13.3031 11.1943 13.4319C10.9289 13.5604 10.7718 13.841 10.8012 14.1346C10.8385 14.5076 10.8822 14.8595 10.9233 15.1607C8.66482 14.7153 7.57554 13.2571 7.52726 13.1911C7.37782 12.9818 7.12629 12.8707 6.87082 12.9018C6.61554 12.9327 6.39747 13.1006 6.30232 13.3395C6.01676 14.0558 5.08329 15.2382 4.48779 15.94H3.44547C3.34076 15.94 3.23772 15.947 3.13619 15.9593C2.66004 14.0716 2.51088 12.0749 2.70832 10.1444C2.78379 9.40665 3.09288 8.38674 3.71529 7.94031C4.37472 7.46715 5.4911 7.43453 6.25704 7.8654C6.56791 8.04034 6.96054 7.95484 7.17035 7.66618C7.64688 7.01087 8.48529 6.29556 8.76813 6.07515C9.78926 5.27959 10.986 5.01278 12.3315 4.76874C14.158 4.43715 16.0349 4.55678 17.7591 5.11468C18.9863 5.51171 20.0253 5.97024 20.9357 6.51671C23.5301 8.07399 24.1826 9.96184 24.3406 10.9486C24.6037 12.5921 24.2753 14.286 23.8502 15.9516C23.7708 15.9442 23.6907 15.94 23.6095 15.94H22.6159ZM23.6095 19.6707H23.113V17.346H23.6095C24.2505 17.346 24.7719 17.8674 24.7719 18.5084C24.7719 19.1492 24.2505 19.6707 23.6095 19.6707Z" fill="#171D34"/>
<path d="M29.5452 11.8108C30.1112 12.3165 30.7256 12.8199 31.4241 13.3498C31.7258 13.5788 33.6107 14.8912 33.8246 15.0401C33.9453 15.124 34.0857 15.166 34.2261 15.166C34.3666 15.166 34.507 15.124 34.6277 15.0401C34.7131 14.9807 36.7211 13.5828 37.0282 13.3498C37.7261 12.8202 38.3406 12.3168 38.907 11.8108C39.2223 11.5292 39.5058 11.2618 39.7735 10.9934C40.0477 10.7186 40.0473 10.2736 39.7725 9.99928C39.4977 9.72506 39.0526 9.72544 38.7784 10.0003C38.5296 10.2495 38.2655 10.4987 37.9702 10.7624C37.4322 11.2432 36.8461 11.7232 36.1786 12.2297C35.986 12.3757 34.9231 13.1199 34.2261 13.6062C33.5292 13.1199 32.4664 12.3758 32.2738 12.2298C31.6057 11.7228 31.0197 11.2428 30.482 10.7624C28.8906 9.34041 27.0638 7.359 27.0639 4.63566C27.0639 2.85478 28.5127 1.40587 30.2935 1.40587C32.0744 1.40587 33.5232 2.85469 33.5232 4.63556C33.5232 5.02378 33.8378 5.3385 34.2261 5.3385C34.6144 5.3385 34.9291 5.02378 34.9291 4.63556C34.9291 2.85469 36.3779 1.40587 38.1587 1.40587C39.9395 1.40587 41.3883 2.85478 41.3884 4.63566C41.3884 5.65884 41.1459 6.61641 40.6471 7.56309C40.4661 7.9065 40.5978 8.33166 40.9413 8.51259C41.2846 8.69353 41.7098 8.56191 41.8908 8.21841C42.4903 7.08075 42.7942 5.87531 42.7942 4.63556C42.7941 2.07956 40.7146 0 38.1586 0C36.5023 0 35.046 0.873375 34.2261 2.18362C33.4061 0.873375 31.9499 0 30.2934 0C27.7373 0 25.658 2.07956 25.658 4.63566C25.6579 7.91663 27.7353 10.1935 29.5452 11.8108Z" fill="#171D34"/>
<path d="M34.6981 26.5586C34.3097 26.5586 33.9951 26.8733 33.9951 27.2615V28.4391C33.9951 28.8273 34.3097 29.1421 34.6981 29.1421C35.0863 29.1421 35.401 28.8273 35.401 28.4391V27.2615C35.401 26.8733 35.0864 26.5586 34.6981 26.5586Z" fill="#171D34"/>
<path d="M40.1453 27.2615V28.4391C40.1453 28.8273 40.4599 29.1421 40.8483 29.1421C41.2366 29.1421 41.5512 28.8273 41.5512 28.4391V27.2615C41.5512 26.8733 41.2366 26.5586 40.8483 26.5586C40.4599 26.5586 40.1453 26.8733 40.1453 27.2615Z" fill="#171D34"/>
<path d="M38.4108 30.2677C38.2415 30.4199 38.0227 30.5036 37.795 30.5036C37.5546 30.5036 37.3272 30.4116 37.1545 30.2446C36.8753 29.9746 36.4303 29.9821 36.1605 30.2613C35.8907 30.5404 35.8981 30.9854 36.1772 31.2553C36.6134 31.6772 37.188 31.9096 37.795 31.9096C38.3702 31.9096 38.9225 31.698 39.3502 31.3138C39.6391 31.0543 39.6629 30.6098 39.4035 30.3211C39.1441 30.0322 38.6998 30.0084 38.4108 30.2677Z" fill="#171D34"/>
<path d="M47.1111 22.8983C47.2282 20.8567 46.4456 19.0374 45.0179 18.0321C43.8568 17.2144 42.3889 16.9885 41.0917 17.4271C41.0594 17.4381 40.9174 17.4818 40.743 17.5348C40.4284 17.3015 40.0945 17.09 39.7467 16.9038C37.6917 15.8035 35.2564 15.6361 33.2328 16.4562C31.1892 17.2842 29.6404 19.1405 29.0896 21.4214C28.723 22.9396 28.9991 24.4729 29.3405 25.8309C28.9042 26.1849 28.6141 26.7091 28.5914 27.3076C28.5478 28.4607 29.4732 29.4129 30.6168 29.4129H30.827C31.0619 31.2022 31.9746 32.7802 33.2973 33.882C33.1341 33.9912 32.9702 34.1014 32.8157 34.2222C32.2158 34.6915 31.6946 35.2332 31.2593 35.83C31.2623 35.8299 31.2654 35.8302 31.2684 35.8302C30.3005 37.1569 29.7274 38.7891 29.7274 40.5533V47.2979C29.7274 47.6863 30.0421 48.0009 30.4304 48.0009H45.0905C45.4788 48.0009 45.7935 47.6863 45.7935 47.2979V40.5533C45.7935 37.7813 44.3809 35.3344 42.239 33.8903C43.5669 32.7881 44.4836 31.2066 44.719 29.4129H44.912C46.0557 29.4129 46.9812 28.4607 46.9375 27.3076C46.9174 26.7779 46.6875 26.3066 46.3327 25.9595C46.3341 25.9556 46.3356 25.9517 46.337 25.9478C46.6859 25.0033 47.0465 24.0265 47.1111 22.8983ZM30.7654 28.0071H30.6169C30.2746 28.0071 29.9959 27.7285 29.9959 27.386C29.9959 27.0436 30.2746 26.7649 30.6169 26.7649H30.7654V28.0071ZM42.4782 35.9048C43.658 37.102 44.3878 38.7438 44.3878 40.5534V46.5951H42.4981V41.9525C42.4981 41.5643 42.1834 41.2496 41.7951 41.2496C41.4069 41.2496 41.0922 41.5643 41.0922 41.9525V46.5951H34.4291V41.9525C34.4291 41.5643 34.1145 41.2496 33.7262 41.2496C33.3379 41.2496 33.0232 41.5643 33.0232 41.9525V46.5951H31.1335V40.5534C31.1335 38.7438 31.8633 37.1021 33.0429 35.905C34.0527 37.5077 35.8167 38.5017 37.7608 38.5017C39.7048 38.5017 41.4685 37.5079 42.4782 35.9048ZM34.1429 35.0052C34.2883 34.91 34.4381 34.8212 34.5911 34.7376C35.5465 35.2271 36.6277 35.5047 37.7732 35.5047C38.9135 35.5047 39.9903 35.2296 40.9426 34.7442C41.0912 34.826 41.2368 34.9125 41.3781 35.0051C40.6405 36.2906 39.2738 37.0959 37.7608 37.0959C36.2475 37.0958 34.8806 36.2906 34.1429 35.0052ZM43.3579 28.8106C43.1944 31.754 40.7568 34.0987 37.7732 34.0987C34.6843 34.0987 32.1712 31.5856 32.1712 28.4968V26.6694C33.5603 26.425 36.9814 25.6128 39.0871 23.3109C39.8002 24.4413 41.2182 26.1943 43.3579 26.6632V28.8106ZM44.9121 28.0071H44.781V26.7649H44.9121C45.2546 26.7649 45.5332 27.0435 45.5332 27.386C45.5333 27.7285 45.2547 28.0071 44.9121 28.0071ZM45.7077 22.8179C45.6568 23.7042 45.3669 24.5156 45.0525 25.3682C44.9898 25.3625 44.9265 25.359 44.8624 25.359H44.2823C44.1362 25.359 43.9897 25.3497 43.8456 25.3255C41.2672 24.893 39.8445 21.7867 39.8304 21.7554C39.7259 21.5202 39.5012 21.3609 39.2446 21.3402C38.987 21.3187 38.7406 21.4407 38.5998 21.656C36.8367 24.3517 32.717 25.1608 31.6588 25.3275C31.5246 25.3486 31.3896 25.359 31.2538 25.359H30.6717C30.3875 24.2007 30.1725 22.9259 30.4561 21.7515C30.9008 19.9099 32.1361 18.4176 33.7608 17.7592C35.4019 17.094 37.3916 17.2376 39.0831 18.1432C39.4637 18.3469 39.8235 18.5869 40.1526 18.8567C40.3336 19.0051 40.5767 19.0539 40.801 18.9861C40.9503 18.9412 41.4446 18.7918 41.5423 18.7588C42.416 18.4632 43.4126 18.6211 44.2083 19.1815C45.2516 19.916 45.798 21.2414 45.7077 22.8179Z" fill="#171D34"/>
</g>
<defs>
<clipPath id="clip0_1807_54989">
<rect width="48" height="48" fill="white"/>
</clipPath>
</defs>
</svg>
