<svg width="48" height="48" viewBox="0 0 48 48" fill="none" xmlns="http://www.w3.org/2000/svg">
<g clip-path="url(#clip0_1807_54942)">
<path d="M38.5951 32.5156L46.0638 38.4521C47.7316 39.7034 47.5963 41.3477 46.3243 42.6229C45.0523 43.8981 43.4122 44.0338 42.164 42.3618L36.0419 34.5582L38.5951 32.5156Z" fill="#C7865B"/>
<path d="M40.8179 34.2828L38.0204 37.0794L36.0422 34.5575L38.595 32.5156L40.8179 34.2828Z" fill="#C7865B"/>
<path d="M0.703125 4.45506C0.703125 2.38506 2.40094 0.707031 4.49541 0.707031H21.1003C21.856 0.707031 22.5806 1.00403 23.1142 1.5325L33.9031 12.2183C34.4354 12.7456 34.7344 13.4598 34.7344 14.2042V37.5996L33.7969 37.9587L34.7344 38.3568V41.8662C34.7344 43.9463 33.0184 45.6284 30.9117 45.6133L14.3813 45.4972H4.49541C2.40103 45.4972 0.703125 43.8192 0.703125 41.7492V4.45506Z" fill="white"/>
<path d="M2.57813 4.45516V41.7489C2.57813 43.8189 4.27594 45.497 6.37031 45.497H4.49531C2.40094 45.497 0.703125 43.8189 0.703125 41.7489V4.45516C0.703125 2.38516 2.40094 0.707031 4.49531 0.707031H6.37031C4.27594 0.707031 2.57813 2.38516 2.57813 4.45516Z" fill="white"/>
<path d="M31.231 45.6011C31.126 45.6095 31.0191 45.6133 30.9122 45.6123L14.3813 45.4961H16.2563L31.231 45.6011Z" fill="white"/>
<path d="M34.4794 13.0416H24.8447C23.4291 13.0416 22.2806 11.9044 22.2806 10.5019V0.960938C22.5881 1.09781 22.8703 1.29094 23.1141 1.53188L33.9028 12.2184C34.1456 12.4584 34.3406 12.7378 34.4794 13.0416Z" fill="#73C3FD"/>
<path d="M17.8927 13.8203H7.1026C6.71429 13.8203 6.39948 13.5055 6.39948 13.1172C6.39948 12.7289 6.71429 12.4141 7.1026 12.4141H17.8927C18.281 12.4141 18.5958 12.7289 18.5958 13.1172C18.5958 13.5055 18.281 13.8203 17.8927 13.8203Z" fill="white"/>
<path d="M18.8302 30.6953H7.1026C6.71429 30.6953 6.39948 30.3805 6.39948 29.9922C6.39948 29.6039 6.71429 29.2891 7.1026 29.2891H18.8302C19.2185 29.2891 19.5333 29.6039 19.5333 29.9922C19.5333 30.3805 19.2185 30.6953 18.8302 30.6953Z" fill="white"/>
<path d="M23.4093 25.0703H6.91296C6.52465 25.0703 6.20984 24.7555 6.20984 24.3672C6.20984 23.9789 6.52465 23.6641 6.91296 23.6641H23.4093C23.7976 23.6641 24.1124 23.9789 24.1124 24.3672C24.1124 24.7555 23.7976 25.0703 23.4093 25.0703Z" fill="white"/>
<path d="M20.5968 36.3203H6.91296C6.52465 36.3203 6.20984 36.0055 6.20984 35.6172C6.20984 35.2289 6.52465 34.9141 6.91296 34.9141H20.5968C20.9851 34.9141 21.2999 35.2289 21.2999 35.6172C21.2999 36.0055 20.9851 36.3203 20.5968 36.3203Z" fill="white"/>
<path d="M41.6935 30.7564L34.5132 37.933L30.4389 34.797L27.466 30.8877L34.666 23.6914L39.2812 27.3887L41.6935 30.7564Z" fill="#F6BD3D"/>
<path d="M27.4601 30.8867L28.8662 29.4807L35.9113 36.5259L34.5053 37.9319L27.4601 30.8867Z" fill="#F6BD3D"/>
<path d="M34.3266 40.272V40.273C33.6282 40.9695 32.611 41.0839 32.0522 40.527L24.87 33.3458C24.3122 32.7889 24.4247 31.7708 25.1232 31.0733L25.1241 31.0723C25.8216 30.3748 26.8397 30.2614 27.3975 30.8183L27.466 30.8867L34.5132 37.932L34.5797 37.9986C35.1385 38.5564 35.025 39.5745 34.3266 40.272Z" fill="#C7865B"/>
<path d="M34.8591 39.4005C34.7663 39.7098 34.5872 40.0145 34.3266 40.2742V40.2752C33.6282 40.9717 32.611 41.0861 32.0522 40.5292L24.87 33.348C24.3122 32.7911 24.4247 31.773 25.1232 31.0755L25.1241 31.0745C25.3838 30.8148 25.6885 30.6358 25.9979 30.543C25.8404 31.0623 25.9266 31.593 26.2763 31.9417L33.4585 39.123C33.8091 39.4727 34.3397 39.557 34.8591 39.4005Z" fill="#C7865B"/>
<path d="M44.0166 30.5581V30.5591C43.3201 31.2585 42.3047 31.3728 41.7488 30.8122L41.6935 30.7569L34.666 23.6919L34.5872 23.6122C34.0313 23.0525 34.1447 22.0325 34.8404 21.3322H34.8413C35.5369 20.6319 36.5522 20.5185 37.1082 21.0781L44.2707 28.2791C44.8266 28.8388 44.7132 29.8588 44.0166 30.5581Z" fill="#C7865B"/>
<path d="M44.5463 29.6872C44.4535 29.9947 44.2754 30.2984 44.0166 30.5581V30.5591C43.3201 31.2584 42.3047 31.3728 41.7488 30.8122L41.6935 30.7569L34.666 23.6919L34.5872 23.6122C34.0313 23.0525 34.1447 22.0325 34.8404 21.3322H34.8413C35.1019 21.0697 35.4085 20.8897 35.7179 20.7969C35.5585 21.3191 35.6438 21.8534 35.9935 22.2059L36.0722 22.2856L43.0997 29.3506L43.1551 29.4059C43.5029 29.7566 44.0297 29.8428 44.5463 29.6872Z" fill="#C7865B"/>
<path d="M14.3582 44.6602V42.9727C14.3582 41.9371 15.1977 41.0977 16.2332 41.0977H24.8907C25.9262 41.0977 26.7657 41.9371 26.7657 42.9727V44.6602H14.3582Z" fill="#C7865B"/>
<path d="M26.7553 42.7719H16.4652C16.3437 42.7719 16.2548 42.6582 16.2825 42.5398C16.4766 41.7113 17.2205 41.0938 18.1079 41.0938H16.2329C15.2644 41.0938 14.4669 41.8293 14.3684 42.7719H14.3682C14.3681 42.7726 14.3681 42.7735 14.368 42.7743C14.3677 42.7779 14.3676 42.7814 14.3672 42.785C14.3614 42.8455 14.3579 42.9067 14.3579 42.9688V44.1782V44.6563H26.7656V42.9688C26.7656 42.9022 26.7619 42.8366 26.7553 42.7719Z" fill="#C7865B"/>
<path d="M28.2045 47.2922H12.9193C12.6605 47.2922 12.4506 47.0823 12.4506 46.8234V46.0547C12.4506 45.0191 13.29 44.1797 14.3256 44.1797H26.7982C27.8338 44.1797 28.6732 45.0191 28.6732 46.0547V46.8234C28.6732 47.0823 28.4634 47.2922 28.2045 47.2922Z" fill="#C7865B"/>
<path d="M16.201 44.1797C15.7201 44.1797 15.2822 44.3606 14.9513 44.6578C14.5679 45.0009 14.326 45.4997 14.326 46.0547V46.8234C14.326 47.0822 14.5351 47.2922 14.7947 47.2922H12.9197C12.6601 47.2922 12.451 47.0822 12.451 46.8234V46.0547C12.451 45.0197 13.2901 44.1797 14.326 44.1797H14.3579L15.2175 43.8984L16.201 44.1797Z" fill="#C7865B"/>
<path d="M7.1026 13.8203H17.8927C18.281 13.8203 18.5958 13.5055 18.5958 13.1172C18.5958 12.7289 18.281 12.4141 17.8927 12.4141H7.1026C6.71429 12.4141 6.39948 12.7289 6.39948 13.1172C6.39948 13.5055 6.71429 13.8203 7.1026 13.8203Z" fill="#171D34"/>
<path d="M7.1026 29.2891C6.71429 29.2891 6.39948 29.6039 6.39948 29.9922C6.39948 30.3805 6.71429 30.6953 7.1026 30.6953H18.8302C19.2185 30.6953 19.5333 30.3805 19.5333 29.9922C19.5333 29.6039 19.2185 29.2891 18.8302 29.2891H7.1026Z" fill="#171D34"/>
<path d="M28.1496 19.4453C28.5379 19.4453 28.8527 19.1305 28.8527 18.7422C28.8527 18.3539 28.5379 18.0391 28.1496 18.0391H20.4376C20.0492 18.0391 19.7344 18.3539 19.7344 18.7422C19.7344 19.1305 20.0492 19.4453 20.4376 19.4453H28.1496Z" fill="#171D34"/>
<path d="M6.91296 19.4453H17.1563C17.5446 19.4453 17.8594 19.1305 17.8594 18.7422C17.8594 18.3539 17.5446 18.0391 17.1563 18.0391H6.91296C6.52465 18.0391 6.20984 18.3539 6.20984 18.7422C6.20984 19.1305 6.52465 19.4453 6.91296 19.4453Z" fill="#171D34"/>
<path d="M6.91296 25.0703H23.4093C23.7976 25.0703 24.1124 24.7555 24.1124 24.3672C24.1124 23.9789 23.7976 23.6641 23.4093 23.6641H6.91296C6.52465 23.6641 6.20984 23.9789 6.20984 24.3672C6.20984 24.7555 6.52465 25.0703 6.91296 25.0703Z" fill="#171D34"/>
<path d="M6.91296 36.3203H20.5968C20.9851 36.3203 21.2999 36.0055 21.2999 35.6172C21.2999 35.2289 20.9851 34.9141 20.5968 34.9141H6.91296C6.52465 34.9141 6.20984 35.2289 6.20984 35.6172C6.20984 36.0055 6.52465 36.3203 6.91296 36.3203Z" fill="#171D34"/>
<path d="M47.9927 40.3706C47.9461 39.7208 47.648 38.7645 46.4931 37.8948L40.3809 33.0628L41.7706 31.6739C42.0374 31.8015 42.3367 31.8709 42.6522 31.871H42.6531C43.3202 31.871 43.9988 31.5735 44.5148 31.0547C44.5164 31.0531 44.518 31.0514 44.5196 31.0497C45.4818 30.0782 45.5941 28.6141 44.7688 27.7828L37.607 20.583C36.9669 19.9182 35.8713 19.8692 35.0623 20.3073V14.2042C35.0623 13.2654 34.6931 12.3827 34.0227 11.7187L23.234 1.03291C22.564 0.369344 21.6731 0.00390625 20.7253 0.00390625H4.49541C2.01666 0.00390625 0 2.00069 0 4.45497V7.06169C0 7.45 0.314813 7.76481 0.703125 7.76481C1.09144 7.76481 1.40625 7.45 1.40625 7.06169V4.45497C1.40625 2.776 2.79206 1.41006 4.49541 1.41006L21.2027 1.46594V10.502C21.2027 12.29 22.6682 13.7447 24.4696 13.7447H33.6037L33.6563 21.9528C33.4725 22.526 33.4981 23.1254 33.7424 23.6213L27.3933 29.9672C26.5556 29.5618 25.428 29.779 24.6315 30.5717C23.7323 31.4361 23.4757 32.9507 24.3733 33.8447L31.5557 41.0257C32.0986 41.5732 32.9303 41.6983 33.6563 41.4751C33.7159 42.4097 33.4508 43.3449 32.7599 44.0094C32.1688 44.5963 31.3828 44.9197 30.5418 44.9101L29.102 44.8997C28.7753 44.2511 28.1831 43.7584 27.4687 43.5658V42.9706C27.4687 41.5489 26.3122 40.3924 24.8905 40.3924H16.2331C14.8115 40.3924 13.655 41.5489 13.655 42.9706V43.5658C12.9799 43.7478 12.4139 44.1977 12.078 44.794H4.49541C2.79206 44.794 1.40625 43.4281 1.40625 41.7491V10.3405C1.40625 9.95219 1.09144 9.63737 0.703125 9.63737C0.314813 9.63737 0 9.95219 0 10.3405V41.7491C0 44.2035 2.01666 46.2002 4.49541 46.2002H11.7474V46.8237C11.7474 47.4699 12.2731 47.9956 12.9193 47.9956H16.125C16.5133 47.9956 16.8281 47.6807 16.8281 47.2924C16.8281 46.9041 16.5133 46.5893 16.125 46.5893H13.1537V46.0549C13.1537 45.4087 13.6793 44.8831 14.3256 44.8831H26.7983C27.4445 44.8831 27.9701 45.4087 27.9701 46.0549V46.5893H19.4063C19.0179 46.5893 18.7031 46.9041 18.7031 47.2924C18.7031 47.6807 19.0179 47.9956 19.4063 47.9956H28.2045C28.8507 47.9956 29.3764 47.4699 29.3764 46.8237V46.308C29.4176 46.3082 30.5246 46.3165 30.5654 46.3163C31.7695 46.3163 32.8998 45.8522 33.7508 45.0072C34.5967 44.1674 35.0625 43.0518 35.0625 41.866V40.4995C35.6234 39.7843 35.8263 38.8121 35.4338 38.0074L36.7838 36.6582L41.6061 42.7892C43.3352 44.8906 45.0952 44.6792 46.822 43.1189C47.6448 42.2943 48.0606 41.3181 47.9927 40.3706ZM16.2332 41.7987H24.8906C25.5368 41.7987 26.0625 42.3243 26.0625 42.9706V43.4768H15.0613V42.9706C15.0613 42.3243 15.587 41.7987 16.2332 41.7987ZM35.3393 21.8276C35.707 21.4891 36.1959 21.2501 36.6097 21.5742L43.7715 28.774C44.0452 29.0496 43.9268 29.6517 43.5184 30.0624C43.1402 30.4187 42.5841 30.667 42.1909 30.2595L39.5381 27.5927C39.2643 27.3174 38.8191 27.3162 38.5438 27.59C38.2685 27.8639 38.2673 28.3091 38.5412 28.5843L40.7006 30.7553C38.8393 32.6137 36.3741 35.0793 34.5133 36.9395L28.4609 30.8883L34.6649 24.6875L36.2084 26.2393C36.4823 26.5146 36.9275 26.5158 37.2027 26.2419C37.4781 25.9681 37.4792 25.5228 37.2053 25.2476L35.1636 23.195C34.7903 22.9011 34.8998 22.2825 35.3393 21.8276ZM22.6089 10.5021V2.39303L32.6503 12.3385H24.4696C23.4436 12.3385 22.6089 11.5147 22.6089 10.5021ZM32.5495 40.0307L25.3672 32.8496C25.0444 32.4351 25.2804 31.9443 25.6168 31.575C26.0633 31.1372 26.68 31.022 26.9693 31.3852L34.083 38.4976C34.407 38.9132 34.1678 39.4079 33.8292 39.7763C33.4208 40.1846 32.8226 40.3033 32.5495 40.0307ZM45.8264 42.126C44.7617 43.1904 43.6101 43.1614 42.7167 41.9268L37.7855 35.6572L39.3796 34.0638L45.6277 39.0033C46.8608 39.8998 46.8891 41.0584 45.8264 42.126Z" fill="#171D34"/>
</g>
<defs>
<clipPath id="clip0_1807_54942">
<rect width="48" height="48" fill="white"/>
</clipPath>
</defs>
</svg>
