<svg width="300" height="300" viewBox="0 0 300 300" fill="none" xmlns="http://www.w3.org/2000/svg">
<g clip-path="url(#clip0_1081_42548)">
<path d="M72.0451 75.5114C103.508 43.8917 93.8668 24.5132 115.395 9.87385C148.521 -12.652 210.979 6.28803 247.454 37.273C292.127 75.2218 315.176 144.512 288.92 207.197C260.958 273.955 187.387 308.608 121.739 298.164C63.1166 288.838 6.47373 244.025 0.700502 188.692C0.0746861 182.695 -3.67365 148.952 15.7037 121C31.721 97.8966 47.1059 100.574 72.0468 75.5097L72.0451 75.5114Z" fill="#99C1FB"/>
<path d="M141.967 24.791L137.354 25.8085L137.332 30.9615C136.307 31.3885 135.329 31.8923 134.41 32.473L130.18 29.535L126.695 32.7201L129.256 37.1942C128.591 38.0661 127.999 38.992 127.488 39.962L122.346 39.5285L120.922 44.0272L125.375 46.62C125.235 47.6964 125.19 48.7957 125.235 49.9032L120.566 52.0953L121.585 56.7019L126.746 56.7248C127.174 57.7488 127.678 58.7254 128.26 59.6432L125.317 63.8686L128.507 67.3481L132.988 64.7912C133.861 65.4554 134.788 66.0459 135.76 66.5563L135.325 71.6913L139.831 73.1129L142.427 68.6666C143.505 68.8057 144.606 68.8515 145.715 68.8056L147.911 73.4679L152.524 72.4504L152.545 67.2974C153.571 66.8704 154.549 66.3666 155.468 65.7858L159.698 68.7239L163.182 65.5388L160.622 61.0647C161.287 60.1928 161.878 59.2669 162.39 58.2968L167.532 58.7303L168.956 54.2317L164.503 51.6389C164.642 50.5625 164.688 49.4632 164.642 48.3557L169.311 46.1636L168.292 41.557L163.132 41.5357C162.704 40.5117 162.2 39.5351 161.618 38.6174L164.56 34.3936L161.371 30.9141L156.89 33.4709C156.017 32.8068 155.089 32.2162 154.118 31.7058L154.552 26.5708L150.047 25.1493L147.45 29.5956C146.372 29.4565 145.271 29.4107 144.162 29.4565L141.967 24.7943V24.791ZM156.811 46.5071C158.261 53.0555 154.12 59.5385 147.562 60.9862C141.004 62.4339 134.511 58.2985 133.061 51.7501C131.612 45.2017 135.753 38.7188 142.311 37.271C148.869 35.8233 155.361 39.9588 156.811 46.5071Z" fill="white"/>
<path d="M182.538 14.6878L179.677 15.1573L179.49 18.3129C178.848 18.5403 178.232 18.8168 177.649 19.1407L175.156 17.1973L172.913 19.0311L174.332 21.8578C173.894 22.3699 173.501 22.9163 173.155 23.4937L170.02 23.0553L168.996 25.7627L171.637 27.5C171.515 28.1559 171.45 28.8266 171.44 29.5072L168.506 30.6932L168.976 33.5494L172.136 33.7359C172.364 34.3771 172.641 34.9922 172.965 35.5746L171.021 38.0644L172.857 40.3039L175.688 38.8872C176.201 39.324 176.748 39.7166 177.326 40.0618L176.887 43.1928L179.599 44.2152L181.338 41.5782C181.995 41.6993 182.667 41.7647 183.349 41.7745L184.536 44.7044L187.397 44.2349L187.583 41.0793C188.226 40.8519 188.842 40.5754 189.425 40.2515L191.918 42.1933L194.161 40.3595L192.742 37.5327C193.18 37.0207 193.573 36.4743 193.919 35.8969L197.054 36.3353L198.078 33.6279L195.437 31.8906C195.558 31.2346 195.624 30.5639 195.634 29.8834L198.568 28.6974L198.098 25.8412L194.938 25.6547C194.71 25.0134 194.433 24.3983 194.109 23.816L196.053 21.3262L194.217 19.0867L191.386 20.5033C190.873 20.0666 190.326 19.674 189.748 19.3288L190.187 16.1977L187.475 15.1753L185.735 17.8107C185.079 17.6897 184.407 17.6242 183.725 17.6144L182.538 14.6846V14.6878ZM190.899 28.4913C191.566 32.5515 188.81 36.3843 184.744 37.0501C180.678 37.7159 176.84 34.9644 176.173 30.9042C175.506 26.844 178.262 23.0111 182.328 22.3453C186.394 21.6795 190.232 24.4311 190.899 28.4913Z" fill="white"/>
<path d="M280.647 59.8711H275.241L255.996 260.114H260.893C266.206 260.114 270.886 256.31 271.35 251.619L289.43 68.3672C289.893 63.6749 285.962 59.8725 280.649 59.8725L280.647 59.8711Z" fill="#73C3FD"/>
<path d="M276.402 59.8701H38.908C33.5951 59.8701 28.9146 63.674 28.451 68.3648L10.3711 251.618C9.90749 256.31 13.8393 260.113 19.1522 260.113H256.646C261.959 260.113 266.639 256.309 267.103 251.618L285.183 68.3662C285.646 63.674 281.715 59.8716 276.402 59.8716V59.8701Z" fill="white"/>
<path d="M21.4662 138.813C21.4499 138.813 21.4351 138.813 21.4187 138.812C21.1189 138.789 20.8978 138.556 20.924 138.292L25.8519 88.3488C25.8781 88.084 26.1386 87.8901 26.44 87.9118C26.7398 87.935 26.961 88.1679 26.9348 88.4312L22.0069 138.375C21.9823 138.625 21.7448 138.813 21.4662 138.813Z" fill="#171D34"/>
<path d="M249.16 60.3504H87.1982C86.8984 60.3504 86.6543 60.1348 86.6543 59.87C86.6543 59.6052 86.8984 59.3896 87.1982 59.3896H249.16C249.46 59.3896 249.704 59.6052 249.704 59.87C249.704 60.1348 249.46 60.3504 249.16 60.3504Z" fill="#171D34"/>
<path d="M18.7087 260.593C15.9925 260.593 13.5253 259.659 11.7641 257.962C9.99316 256.256 9.14946 253.988 9.387 251.576L13.9807 205.019C14.0069 204.754 14.2674 204.56 14.5688 204.582C14.8686 204.605 15.0898 204.838 15.0636 205.101L10.4699 251.659C10.2586 253.799 11.0023 255.806 12.5652 257.312C14.1183 258.808 16.3005 259.633 18.7087 259.633C19.0085 259.633 19.2526 259.848 19.2526 260.113C19.2526 260.378 19.0085 260.593 18.7087 260.593Z" fill="#171D34"/>
<path d="M111.324 260.558H92.2841C91.9843 260.558 91.7402 260.343 91.7402 260.078C91.7402 259.813 91.9843 259.598 92.2841 259.598H111.324C111.624 259.598 111.868 259.813 111.868 260.078C111.868 260.343 111.624 260.558 111.324 260.558Z" fill="#171D34"/>
<path d="M221.733 260.558H192.311C192.012 260.558 191.768 260.343 191.768 260.078C191.768 259.813 192.012 259.598 192.311 259.598H221.733C222.033 259.598 222.277 259.813 222.277 260.078C222.277 260.343 222.033 260.558 221.733 260.558Z" fill="#171D34"/>
<path d="M76.3373 249.141C76.321 249.141 76.3062 249.141 76.2898 249.14C75.99 249.117 75.7689 248.884 75.7951 248.618L92.4824 76.4132C92.5086 76.1474 92.7724 75.9513 93.0705 75.9745C93.3703 75.9978 93.5915 76.2302 93.5653 76.4959L76.878 248.701C76.8534 248.953 76.6158 249.141 76.3373 249.141Z" fill="#307FF4"/>
<path d="M144.545 189.71C144.528 189.71 144.51 189.71 144.494 189.707C144.196 189.682 143.975 189.447 144.002 189.183L155.899 76.4088C155.927 76.143 156.189 75.9455 156.491 75.9745C156.791 75.9992 157.009 76.2345 156.981 76.4988L145.084 189.273C145.057 189.523 144.82 189.71 144.543 189.71H144.545Z" fill="#307FF4"/>
<path d="M202.479 232.387C202.46 232.387 202.442 232.387 202.423 232.384C202.125 232.358 201.907 232.121 201.936 231.855L219.68 76.4047C219.711 76.1403 219.978 75.9457 220.277 75.9733C220.575 75.9995 220.793 76.2362 220.763 76.502L203.019 231.952C202.991 232.201 202.755 232.385 202.479 232.385V232.387Z" fill="#307FF4"/>
<path d="M269.326 106.55H38.4853C38.1855 106.55 37.9414 106.306 37.9414 106.007C37.9414 105.708 38.1855 105.464 38.4853 105.464H269.326C269.626 105.464 269.87 105.708 269.87 106.007C269.87 106.306 269.626 106.55 269.326 106.55Z" fill="#307FF4"/>
<path d="M146.644 86.4234C146.907 83.5803 144.864 81.2197 142.079 81.2197H106.169C103.384 81.2197 100.923 83.5803 100.676 86.4234L100.255 91.2819C100.007 94.1202 102.063 96.4169 104.843 96.4169H140.688C143.469 96.4169 145.933 94.1185 146.195 91.2819L146.642 86.4234H146.644Z" fill="#73C3FD"/>
<path d="M211.072 86.4234C211.357 83.5803 209.332 81.2197 206.547 81.2197H170.636C167.851 81.2197 165.374 83.5803 165.104 86.4234L164.645 91.2819C164.376 94.1202 166.413 96.4169 169.193 96.4169H205.038C207.818 96.4169 210.3 94.1185 210.585 91.2819L211.072 86.4234Z" fill="#73C3FD"/>
<path d="M83.3027 86.4234C83.5436 83.5803 81.4859 81.2197 78.7009 81.2197H42.7902C40.0051 81.2197 37.5592 83.6065 37.3331 86.448L36.9465 91.3556C36.7204 94.1938 38.801 96.4169 41.5811 96.4169H77.4263C80.2064 96.4169 82.6523 94.1185 82.8932 91.2819L83.3027 86.4234Z" fill="#73C3FD"/>
<path d="M274.412 86.4234C274.719 83.5803 272.71 81.2197 269.927 81.2197H234.016C231.231 81.2197 228.738 83.5803 228.446 86.4234L227.95 91.2819C227.66 94.1202 229.678 96.4169 232.456 96.4169H268.302C271.082 96.4169 273.583 94.1185 273.89 91.2819L274.414 86.4234H274.412Z" fill="#73C3FD"/>
<path d="M76.6626 119.577H38.4141C36.6465 119.577 35.0967 121.092 34.9541 122.889L33.5731 140.243C33.4306 142.032 34.7444 143.459 36.5088 143.459H74.6476C76.4103 143.459 77.9634 142.06 78.1158 140.271L79.5902 122.862C79.7426 121.064 78.4336 119.575 76.6643 119.575L76.6626 119.577Z" fill="#CADDFF"/>
<path d="M47.2928 144.107H36.3345C35.3401 144.107 34.4308 143.716 33.7739 143.006C33.1022 142.279 32.7762 141.312 32.8581 140.282L34.2392 122.906C34.403 120.835 36.1985 119.151 38.2414 119.151H46.0002C46.3 119.151 46.5441 119.395 46.5441 119.694C46.5441 119.994 46.3017 120.238 46.0002 120.238H38.2414C36.7522 120.238 35.4433 121.474 35.322 122.992L33.941 140.369C33.8837 141.093 34.1081 141.767 34.5717 142.269C35.0206 142.755 35.6464 143.022 36.3345 143.022H47.2928C47.5926 143.022 47.8367 143.266 47.8367 143.565C47.8367 143.864 47.5926 144.108 47.2928 144.108V144.107Z" fill="#307FF4"/>
<path d="M74.4728 144.106H60.9834C60.6836 144.106 60.4395 143.862 60.4395 143.563C60.4395 143.264 60.6836 143.02 60.9834 143.02H74.4728C75.9571 143.02 77.271 141.79 77.3987 140.278L78.8732 122.902C78.9354 122.172 78.7143 121.494 78.249 120.988C77.8017 120.502 77.1776 120.236 76.4895 120.236H67.923C67.6232 120.236 67.3791 119.992 67.3791 119.693C67.3791 119.393 67.6216 119.149 67.923 119.149H76.4895C77.4856 119.149 78.3948 119.542 79.0501 120.254C79.7218 120.985 80.0445 121.957 79.9561 122.994L78.4816 140.37C78.3063 142.429 76.5075 144.106 74.4728 144.106Z" fill="#307FF4"/>
<path d="M76.2851 126.758C76.2196 127.535 75.5495 128.261 74.7861 128.261H47.301C46.5376 128.261 45.9658 127.533 46.0281 126.758L46.0346 126.707C46.0969 125.93 46.7653 125.367 47.5287 125.367H75.0237C75.7871 125.367 76.3572 125.932 76.2917 126.707L76.2851 126.758Z" fill="white"/>
<path d="M75.6055 134.763C75.54 135.538 74.8699 136.224 74.1065 136.224H46.6476C45.8842 136.224 45.314 135.538 45.3779 134.763L45.3828 134.871C45.4451 134.095 46.1119 133.691 46.8753 133.691H74.344C75.1075 133.691 75.6776 134.095 75.612 134.871L75.6055 134.763Z" fill="white"/>
<path d="M43.3691 126.581C43.2544 128.085 42.1126 129.348 40.6332 129.348H40.5906C39.1113 129.348 38.0939 128.086 38.2102 126.581L38.2135 126.529C38.3314 125.024 39.5323 123.92 41.0133 123.92H41.0559C42.5369 123.92 43.4887 125.024 43.3724 126.529L43.3691 126.581Z" fill="white"/>
<path d="M139.661 119.576H101.413C99.6453 119.576 98.084 121.091 97.9268 122.888L96.413 140.242C96.2574 142.031 97.5598 143.458 99.3242 143.458H137.463C139.226 143.458 140.79 142.059 140.956 140.27L142.563 122.861C142.73 121.063 141.431 119.574 139.661 119.574V119.576Z" fill="#CADDFF"/>
<path d="M137.291 144.106H110.11C109.811 144.106 109.566 143.862 109.566 143.563C109.566 143.263 109.811 143.02 110.11 143.02H137.291C138.778 143.02 140.102 141.788 140.241 140.273L141.848 122.897C141.916 122.167 141.699 121.488 141.241 120.985C140.798 120.5 140.177 120.234 139.489 120.234H130.923C130.623 120.234 130.379 119.99 130.379 119.691C130.379 119.391 130.621 119.147 130.923 119.147H139.489C140.485 119.147 141.393 119.54 142.043 120.252C142.712 120.983 143.028 121.958 142.931 122.995L141.324 140.371C141.134 142.429 139.324 144.103 137.291 144.103V144.106Z" fill="#307FF4"/>
<path d="M96.6479 136.215C96.6315 136.215 96.6168 136.215 96.6004 136.213C96.3006 136.187 96.0794 135.924 96.1056 135.626L97.2131 122.9C97.3933 120.833 99.2003 119.149 101.24 119.149H108.999C109.299 119.149 109.543 119.393 109.543 119.693C109.543 119.992 109.3 120.236 108.999 120.236H101.24C99.7491 120.236 98.4287 121.474 98.296 122.995L97.1885 135.721C97.1639 136.004 96.9264 136.216 96.6479 136.216V136.215Z" fill="#307FF4"/>
<path d="M138.96 126.757C138.888 127.534 138.213 128.26 137.449 128.26H109.964C109.201 128.26 108.634 127.532 108.703 126.757L108.711 126.706C108.78 125.929 109.453 125.366 110.217 125.366H137.712C138.475 125.366 139.039 125.931 138.968 126.706L138.96 126.757Z" fill="white"/>
<path d="M138.218 134.762C138.146 135.537 137.471 136.223 136.707 136.223H109.248C108.485 136.223 107.921 135.537 107.99 134.762L107.997 134.87C108.065 134.094 108.737 133.69 109.501 133.69H136.969C137.733 133.69 138.296 134.094 138.224 134.87L138.216 134.762H138.218Z" fill="white"/>
<path d="M106.203 126.531C106.07 128.035 104.766 129.347 103.287 129.347H103.244C101.765 129.347 100.667 128.035 100.8 126.531V126.566C100.931 125.061 102.233 123.919 103.714 123.919H103.757C105.238 123.919 106.336 125.061 106.203 126.566V126.531Z" fill="white"/>
<path d="M136.56 153.229H98.4673C96.7061 153.229 95.1531 154.736 94.9974 156.519L93.4968 173.827C93.3428 175.602 94.6403 177.112 96.3965 177.112H134.38C136.136 177.112 137.692 175.631 137.856 173.858L139.45 156.54C139.615 154.757 138.321 153.229 136.56 153.229Z" fill="#CADDFF"/>
<path d="M119.512 177.573H98.5439C98.2441 177.573 98 177.329 98 177.029C98 176.73 98.2441 176.486 98.5439 176.486H119.512C119.812 176.486 120.056 176.73 120.056 177.029C120.056 177.329 119.812 177.573 119.512 177.573Z" fill="#307FF4"/>
<path d="M98.5447 177.572H96.2249C95.2305 177.572 94.3246 177.181 93.6742 176.473C93.0107 175.75 92.6945 174.791 92.7846 173.769L93.4137 166.553C93.4399 166.253 93.7069 166.033 94.0018 166.059C94.3016 166.085 94.5228 166.348 94.4966 166.646L93.8675 173.862C93.8052 174.577 94.0215 175.243 94.4769 175.738C94.9193 176.221 95.5402 176.486 96.2266 176.486H98.5464C98.8462 176.486 99.0903 176.73 99.0903 177.029C99.0903 177.328 98.8462 177.572 98.5464 177.572H98.5447Z" fill="#307FF4"/>
<path d="M94.8256 157.122C94.8092 157.122 94.7945 157.122 94.7781 157.121C94.4783 157.095 94.2571 156.831 94.2834 156.533C94.4619 154.48 96.2624 152.809 98.2955 152.809H116.67C116.97 152.809 117.214 153.052 117.214 153.352C117.214 153.651 116.97 153.895 116.67 153.895H98.2955C96.8112 153.895 95.4989 155.122 95.3662 156.628C95.3417 156.911 95.1041 157.124 94.8256 157.124V157.122Z" fill="#307FF4"/>
<path d="M138.407 166.56C138.39 166.56 138.372 166.56 138.356 166.558C138.058 166.53 137.836 166.267 137.864 165.968L138.738 156.53C138.805 155.81 138.59 155.14 138.135 154.642C137.694 154.16 137.073 153.895 136.388 153.895H126.636C126.336 153.895 126.092 153.651 126.092 153.352C126.092 153.052 126.336 152.809 126.636 152.809H136.388C137.384 152.809 138.289 153.2 138.939 153.911C139.603 154.637 139.915 155.603 139.82 156.63L138.947 166.067C138.921 166.349 138.683 166.56 138.407 166.56Z" fill="#307FF4"/>
<path d="M135.873 159.998C135.802 160.769 135.132 161.191 134.37 161.191H106.998C106.238 161.191 105.671 160.769 105.74 159.998L105.752 159.787C105.82 159.017 106.494 158.297 107.254 158.297H134.636C135.397 158.297 135.954 159.017 135.884 159.787L135.873 159.998Z" fill="white"/>
<path d="M135.129 168.15C135.059 168.919 134.382 169.513 133.622 169.513H106.273C105.513 169.513 104.956 168.919 105.023 168.15L105.031 168.023C105.1 167.254 105.768 166.619 106.529 166.619H133.888C134.648 166.619 135.208 167.254 135.138 168.023L135.129 168.15Z" fill="white"/>
<path d="M103.238 159.959C103.107 161.451 101.799 162.639 100.327 162.639H100.284C98.8097 162.639 97.7268 161.451 97.8562 159.959L97.8644 159.915C97.9954 158.423 99.3011 157.211 100.776 157.211H100.818C102.293 157.211 103.377 158.423 103.246 159.915L103.238 159.959Z" fill="white"/>
<path d="M73.8668 153.229H35.7739C34.0128 153.229 32.4597 154.736 32.3041 156.519L30.8034 173.827C30.6494 175.602 31.9469 177.112 33.7031 177.112H71.6862C73.4424 177.112 74.9988 175.631 75.1626 173.858L76.7566 156.54C76.9221 154.757 75.6279 153.229 73.8668 153.229Z" fill="#CADDFF"/>
<path d="M56.8186 177.573H35.8505C35.5507 177.573 35.3066 177.329 35.3066 177.029C35.3066 176.73 35.5507 176.486 35.8505 176.486H56.8186C57.1184 176.486 57.3625 176.73 57.3625 177.029C57.3625 177.329 57.1184 177.573 56.8186 177.573Z" fill="#307FF4"/>
<path d="M35.8514 177.573H33.5316C32.5372 177.573 31.6312 177.182 30.9808 176.474C30.3173 175.751 30.0011 174.792 30.0912 173.77L30.7203 166.554C30.7465 166.254 31.0136 166.034 31.3085 166.06C31.6083 166.086 31.8294 166.349 31.8032 166.647L31.1741 173.863C31.1119 174.578 31.3281 175.243 31.7836 175.739C32.2259 176.222 32.8468 176.487 33.5332 176.487H35.853C36.1528 176.487 36.3969 176.73 36.3969 177.03C36.3969 177.329 36.1528 177.573 35.853 177.573H35.8514Z" fill="#307FF4"/>
<path d="M75.7133 166.56C75.6969 166.56 75.6789 166.56 75.6625 166.558C75.3643 166.531 75.1432 166.267 75.171 165.968L76.0442 156.531C76.1114 155.811 75.8968 155.14 75.4413 154.643C75.0006 154.16 74.3797 153.895 73.6949 153.895H35.6021C34.1178 153.895 32.8056 155.122 32.6729 156.629C32.6467 156.928 32.3764 157.144 32.0848 157.123C31.785 157.097 31.5638 156.833 31.59 156.535C31.7686 154.482 33.569 152.811 35.6021 152.811H73.6949C74.691 152.811 75.597 153.202 76.2457 153.913C76.9092 154.639 77.2221 155.605 77.1271 156.632L76.2539 166.069C76.2277 166.351 75.9918 166.562 75.7133 166.562V166.56Z" fill="#307FF4"/>
<path d="M73.1792 159.998C73.1088 160.769 72.4387 161.191 71.6769 161.191H44.3049C43.5447 161.191 42.9779 160.769 43.0467 159.998L43.0581 159.787C43.1269 159.017 43.8003 158.297 44.5604 158.297H71.9423C72.7041 158.297 73.2611 159.017 73.1907 159.787L73.1792 159.998Z" fill="white"/>
<path d="M72.436 168.15C72.3656 168.919 71.689 169.513 70.9288 169.513H43.5797C42.8195 169.513 42.2625 168.919 42.3297 168.15L42.3379 168.023C42.4051 167.254 43.0751 166.619 43.8353 166.619H71.1942C71.9544 166.619 72.5147 167.254 72.4442 168.023L72.436 168.15Z" fill="white"/>
<path d="M40.5445 159.959C40.4135 161.451 39.1061 162.639 37.6333 162.639H37.5907C36.1163 162.639 35.0334 161.451 35.1628 159.959L35.171 159.915C35.3021 158.423 36.6078 157.211 38.0822 157.211H38.1248C39.5992 157.211 40.6838 158.423 40.5527 159.915L40.5445 159.959Z" fill="white"/>
<path d="M204.045 119.577H165.797C164.029 119.577 162.456 121.092 162.286 122.889L160.636 140.243C160.466 142.032 161.758 143.459 163.521 143.459H201.66C203.423 143.459 204.999 142.06 205.177 140.271L206.92 122.862C207.101 121.064 205.813 119.575 204.045 119.575V119.577Z" fill="#CADDFF"/>
<path d="M174.308 144.107H163.349C162.353 144.107 161.449 143.716 160.8 143.004C160.137 142.274 159.824 141.306 159.922 140.274L161.57 122.898C161.767 120.831 163.584 119.151 165.622 119.151H173.382C173.682 119.151 173.926 119.395 173.926 119.694C173.926 119.994 173.682 120.238 173.382 120.238H165.622C164.129 120.238 162.797 121.478 162.651 123.001L161.003 140.377C160.934 141.1 161.147 141.774 161.603 142.274C162.042 142.757 162.661 143.022 163.348 143.022H174.306C174.606 143.022 174.85 143.266 174.85 143.565C174.85 143.864 174.606 144.108 174.306 144.108L174.308 144.107Z" fill="#307FF4"/>
<path d="M201.488 144.106H187.999C187.699 144.106 187.455 143.862 187.455 143.563C187.455 143.264 187.699 143.02 187.999 143.02H201.488C202.978 143.02 204.313 141.787 204.465 140.27L206.208 122.894C206.282 122.164 206.071 121.487 205.615 120.983C205.178 120.501 204.56 120.236 203.874 120.236H195.307C195.007 120.236 194.763 119.992 194.763 119.693C194.763 119.393 195.007 119.149 195.307 119.149H203.874C204.871 119.149 205.776 119.542 206.421 120.255C207.085 120.988 207.394 121.963 207.29 123.002L205.546 140.378C205.34 142.434 203.52 144.106 201.488 144.106Z" fill="#307FF4"/>
<path d="M203.436 126.758C203.359 127.535 202.678 128.261 201.914 128.261H174.429C173.666 128.261 173.105 127.533 173.181 126.758L173.19 126.707C173.266 125.93 173.944 125.367 174.707 125.367H202.202C202.966 125.367 203.524 125.932 203.446 126.707L203.434 126.758H203.436Z" fill="white"/>
<path d="M202.632 134.763C202.555 135.538 201.874 136.224 201.11 136.224H173.651C172.888 136.224 172.329 135.538 172.403 134.763L172.413 134.871C172.488 134.095 173.165 133.691 173.928 133.691H201.397C202.16 133.691 202.717 134.095 202.64 134.871L202.631 134.763H202.632Z" fill="white"/>
<path d="M170.679 126.532C170.535 128.036 169.221 129.348 167.74 129.348H167.698C166.219 129.348 165.132 128.036 165.277 126.532V126.567C165.421 125.062 166.735 123.92 168.216 123.92H168.258C169.739 123.92 170.825 125.062 170.681 126.567V126.532H170.679Z" fill="white"/>
<path d="M267.043 119.576H228.795C227.027 119.576 225.443 121.091 225.259 122.888L223.478 140.242C223.295 142.031 224.576 143.458 226.339 143.458H264.478C266.24 143.458 267.826 142.059 268.019 140.27L269.895 122.861C270.089 121.063 268.812 119.574 267.045 119.574L267.043 119.576Z" fill="#CADDFF"/>
<path d="M223.837 135.67C223.819 135.67 223.799 135.67 223.781 135.666C223.483 135.635 223.265 135.369 223.296 135.071L224.544 122.89C224.756 120.826 226.584 119.147 228.62 119.147H236.379C236.679 119.147 236.923 119.391 236.923 119.691C236.923 119.99 236.679 120.234 236.379 120.234H228.62C227.126 120.234 225.781 121.475 225.626 123.002L224.377 135.182C224.349 135.462 224.112 135.67 223.837 135.67Z" fill="#307FF4"/>
<path d="M264.303 144.106H250.813C250.514 144.106 250.27 143.862 250.27 143.563C250.27 143.264 250.514 143.02 250.813 143.02H264.303C265.794 143.02 267.14 141.785 267.304 140.265L269.178 122.889C269.257 122.161 269.052 121.482 268.6 120.982C268.168 120.501 267.552 120.236 266.868 120.236H258.302C258.002 120.236 257.758 119.992 257.758 119.693C257.758 119.393 258.002 119.149 258.302 119.149H266.868C267.866 119.149 268.769 119.542 269.409 120.255C270.07 120.99 270.371 121.966 270.26 123.005L268.385 140.381C268.164 142.434 266.333 144.105 264.303 144.105V144.106Z" fill="#307FF4"/>
<path d="M266.47 126.757C266.387 127.534 265.7 128.26 264.937 128.26H237.452C236.689 128.26 236.133 127.532 236.215 126.757L236.227 126.706C236.307 125.929 236.992 125.366 237.755 125.366H265.25C266.013 125.366 266.565 125.931 266.482 126.706L266.469 126.757H266.47Z" fill="white"/>
<path d="M265.604 134.762C265.521 135.537 264.834 136.223 264.071 136.223H236.612C235.848 136.223 235.295 135.537 235.375 134.762L235.386 134.87C235.467 134.094 236.15 133.69 236.913 133.69H264.382C265.145 133.69 265.697 134.094 265.614 134.87L265.601 134.762H265.604Z" fill="white"/>
<path d="M233.715 126.531C233.559 128.035 232.234 129.347 230.754 129.347H230.712C229.233 129.347 228.156 128.035 228.312 126.531L228.315 126.566C228.471 125.061 229.794 123.919 231.275 123.919H231.318C232.799 123.919 233.874 125.061 233.718 126.566L233.715 126.531Z" fill="white"/>
<path d="M200.682 153.229H162.589C160.828 153.229 159.264 154.735 159.093 156.518L157.458 173.826C157.289 175.601 158.577 177.111 160.333 177.111H198.316C200.073 177.111 201.64 175.63 201.819 173.857L203.547 156.54C203.726 154.756 202.443 153.229 200.682 153.229Z" fill="#CADDFF"/>
<path d="M183.45 177.572H162.481C162.182 177.572 161.938 177.328 161.938 177.028C161.938 176.729 162.182 176.485 162.481 176.485H183.45C183.749 176.485 183.993 176.729 183.993 177.028C183.993 177.328 183.749 177.572 183.45 177.572Z" fill="#307FF4"/>
<path d="M162.481 177.572H160.162C159.167 177.572 158.263 177.181 157.617 176.473C156.959 175.749 156.649 174.788 156.746 173.765L157.431 166.549C157.459 166.252 157.729 166.031 158.024 166.06C158.322 166.088 158.541 166.353 158.514 166.652L157.829 173.868C157.762 174.583 157.971 175.247 158.422 175.743C158.859 176.224 159.477 176.487 160.162 176.487H162.481C162.781 176.487 163.025 176.731 163.025 177.03C163.025 177.33 162.781 177.573 162.481 177.573V177.572Z" fill="#307FF4"/>
<path d="M158.922 157.122C158.904 157.122 158.887 157.122 158.869 157.119C158.571 157.091 158.351 156.826 158.379 156.527C158.574 154.475 160.385 152.807 162.416 152.807H176.918C177.218 152.807 177.462 153.05 177.462 153.35C177.462 153.649 177.218 153.893 176.918 153.893H162.416C160.93 153.893 159.605 155.121 159.462 156.63C159.436 156.911 159.198 157.12 158.922 157.12V157.122Z" fill="#307FF4"/>
<path d="M202.429 166.559C202.411 166.559 202.393 166.559 202.375 166.556C202.077 166.527 201.859 166.26 201.889 165.962L202.836 156.525C202.908 155.805 202.7 155.136 202.249 154.639C201.813 154.158 201.196 153.893 200.511 153.893H197.454C197.154 153.893 196.91 153.649 196.91 153.35C196.91 153.05 197.154 152.807 197.454 152.807H200.511C201.507 152.807 202.41 153.198 203.055 153.909C203.714 154.637 204.022 155.604 203.917 156.633L202.97 166.07C202.942 166.35 202.706 166.559 202.429 166.559Z" fill="#307FF4"/>
<path d="M200.086 159.997C200.009 160.768 199.332 161.19 198.571 161.19H171.199C170.438 161.19 169.878 160.768 169.952 159.997L169.963 159.786C170.037 159.016 170.715 158.296 171.477 158.296H198.859C199.621 158.296 200.174 159.016 200.097 159.786L200.086 159.997Z" fill="white"/>
<path d="M199.285 168.149C199.208 168.918 198.528 169.512 197.768 169.512H170.419C169.658 169.512 169.105 168.918 169.178 168.149L169.188 168.022C169.262 167.253 169.937 166.618 170.697 166.618H198.056C198.816 166.618 199.372 167.253 199.295 168.022L199.285 168.149Z" fill="white"/>
<path d="M167.457 159.958C167.314 161.45 166 162.638 164.526 162.638H164.483C163.009 162.638 161.933 161.45 162.075 159.958L162.082 159.914C162.224 158.422 163.538 157.21 165.013 157.21H165.055C166.53 157.21 167.606 158.422 167.463 159.914L167.457 159.958Z" fill="white"/>
<path d="M44.4551 88.1611L51.5783 88.2724" stroke="white" stroke-miterlimit="10"/>
<path d="M48.0703 84.6553L47.9591 91.7784" stroke="white" stroke-miterlimit="10"/>
<path d="M54.751 92.2015L57.1582 84.3865L58.31 84.4087L60.33 92.3091L59.6221 92.2955L59.1652 90.4743L55.9857 90.413L55.4469 92.2149L54.751 92.2015ZM59.0208 89.8714L57.8185 84.9993L57.6146 84.9954L56.1653 89.8163L59.0208 89.8714ZM61.2658 92.3272L61.4175 84.4687L63.0252 84.4997C63.617 84.5111 64.0998 84.5804 64.4734 84.7077C64.8552 84.8271 65.1752 85.0373 65.4334 85.3383C65.6917 85.6394 65.8718 86.0469 65.9739 86.561C66.0842 87.0672 66.1317 87.7122 66.1166 88.4961C66.1016 89.2719 66.0252 89.9186 65.8871 90.436C65.7493 90.9455 65.5376 91.3414 65.2521 91.624C64.9666 91.9065 64.6347 92.1042 64.2565 92.2169C63.8784 92.3216 63.4094 92.3686 62.8495 92.3578L61.2658 92.3272ZM64.2939 91.5215C64.6412 91.3522 64.9075 91.0292 65.0927 90.5527C65.2861 90.0684 65.3915 89.3783 65.4088 88.4824C65.4262 87.5786 65.3516 86.885 65.1849 86.4017C65.0183 85.9104 64.7688 85.5735 64.4362 85.3911C64.1037 85.2086 63.6295 85.1115 63.0136 85.0996L62.0658 85.0813L61.9373 91.7401L62.8611 91.7579C63.477 91.7698 63.9546 91.691 64.2939 91.5215ZM67.2647 92.443L67.4163 84.5844L69.024 84.6155C69.6159 84.6269 70.0987 84.6962 70.4723 84.8234C70.8541 84.9428 71.1741 85.1531 71.4323 85.4541C71.6905 85.7551 71.8707 86.1627 71.9728 86.6767C72.0831 87.183 72.1306 87.828 72.1155 88.6119C72.1005 89.3877 72.024 90.0344 71.886 90.5518C71.7482 91.0612 71.5365 91.4572 71.251 91.7398C70.9655 92.0223 70.6336 92.2199 70.2554 92.3327C69.8773 92.4374 69.4083 92.4843 68.8484 92.4735L67.2647 92.443ZM70.2928 91.6373C70.6401 91.4679 70.9064 91.145 71.0916 90.6685C71.285 90.1841 71.3903 89.494 71.4076 88.5982C71.4251 87.6944 71.3504 87.0008 71.1837 86.5175C71.0172 86.0262 70.7676 85.6893 70.4351 85.5069C70.1026 85.3244 69.6283 85.2272 69.0125 85.2154L68.0646 85.1971L67.9361 91.8558L68.86 91.8737C69.4758 91.8855 69.9535 91.8067 70.2928 91.6373Z" fill="white"/>
<path d="M46.6556 90.3843C66.6378 90.3843 82.8366 74.1169 82.8366 54.0501C82.8366 33.9832 66.6378 17.7158 46.6556 17.7158C26.6734 17.7158 10.4746 33.9832 10.4746 54.0501C10.4746 74.1169 26.6734 90.3843 46.6556 90.3843Z" fill="#307FF4"/>
<path d="M46.5824 90.9374C39.2987 90.9374 32.1837 88.7568 26.0271 84.5591C17.8817 79.0053 12.3903 70.5954 10.5669 60.8799C6.8169 40.8978 19.9541 21.5766 39.8524 17.8108C49.4559 15.9918 59.1987 18.0284 67.2835 23.5413C75.4289 29.0951 80.9204 37.505 82.7438 47.2205C86.4937 67.2026 73.3565 86.5238 53.4582 90.2896C51.1663 90.7231 48.8645 90.9374 46.5824 90.9374ZM46.7282 18.2476C44.5117 18.2476 42.2803 18.4554 40.0572 18.8774C20.747 22.532 7.99645 41.2855 11.6367 60.6804C13.406 70.1111 18.7352 78.2725 26.6415 83.6643C34.4855 89.0136 43.9383 90.9864 53.2567 89.2246C72.5669 85.5701 85.3175 66.8165 81.6772 47.4217C79.9079 37.9909 74.5787 29.8296 66.6724 24.4377C60.7009 20.3661 53.7957 18.2493 46.7282 18.2493V18.2476Z" fill="#171D34"/>
<path d="M46.6561 85.0353C63.696 85.0353 77.5095 71.1629 77.5095 54.0504C77.5095 36.9379 63.696 23.0654 46.6561 23.0654C29.6163 23.0654 15.8027 36.9379 15.8027 54.0504C15.8027 71.1629 29.6163 85.0353 46.6561 85.0353Z" fill="white"/>
<path d="M46.5934 85.5862C40.3664 85.5862 34.2835 83.7214 29.0198 80.1339C22.0555 75.385 17.3619 68.1953 15.8023 59.89C12.5962 42.8067 23.8281 26.2893 40.8398 23.07C49.0508 21.5159 57.3797 23.2548 64.2915 27.9677C71.2558 32.7167 75.9494 39.9063 77.509 48.2116C80.7151 65.295 69.4832 81.8123 52.4715 85.0317C50.5121 85.403 48.5446 85.5862 46.5918 85.5862H46.5934ZM46.7179 23.6C44.8339 23.6 42.9352 23.7766 41.043 24.1349C24.6194 27.243 13.7758 43.1928 16.8721 59.6888C18.3776 67.7095 22.9091 74.6521 29.6341 79.2358C36.3068 83.7852 44.3457 85.4636 52.27 83.9651C68.6936 80.857 79.5372 64.9072 76.4409 48.4112C74.9353 40.3905 70.4039 33.4479 63.6788 28.8642C58.5986 25.4011 52.7271 23.6 46.7163 23.6H46.7179Z" fill="#171D34"/>
<path d="M59.3142 68.9199C59.1635 68.9199 59.0144 68.8577 58.9063 68.7367L46.2475 54.4081C46.1557 54.305 46.1082 54.1709 46.1115 54.0318L46.5555 39.4186C46.5653 39.1193 46.8159 38.8706 47.1157 38.8919C47.4155 38.9001 47.6515 39.152 47.6433 39.4514L47.2058 53.8503L59.7222 68.0169C59.9204 68.241 59.8991 68.5845 59.6747 68.7825C59.5714 68.8741 59.4437 68.9182 59.3159 68.9182L59.3142 68.9199Z" fill="#171D34"/>
<path d="M43.8861 29.5121C44.0876 30.5852 43.3848 31.6207 42.315 31.8219C41.2453 32.0248 40.2164 31.3181 40.0149 30.245C39.8134 29.1718 40.5162 28.1363 41.586 27.9351C42.6558 27.7323 43.6846 28.439 43.8861 29.5121Z" fill="#CADDFF"/>
<path d="M32.0383 34.191C32.7476 35.0203 32.6526 36.2685 31.8286 36.9801C31.0029 37.6917 29.7594 37.5985 29.0501 36.7691C28.3407 35.9397 28.4357 34.6915 29.2598 33.9799C30.0854 33.2683 31.3289 33.3616 32.0383 34.191Z" fill="#CADDFF"/>
<path d="M24.1095 44.1904C25.1367 44.5519 25.6773 45.6807 25.3169 46.7129C24.9565 47.7435 23.8326 48.2866 22.8054 47.9251C21.7782 47.5635 21.2376 46.4348 21.598 45.4042C21.9584 44.3736 23.0823 43.8305 24.1095 44.192V44.1904Z" fill="#CADDFF"/>
<path d="M22.2227 56.8306C23.2925 56.6278 24.3214 57.3345 24.5229 58.4076C24.7244 59.4807 24.0216 60.5162 22.9518 60.7191C21.882 60.9219 20.8532 60.2152 20.6516 59.1421C20.4501 58.069 21.153 57.0335 22.2227 56.8323V56.8306Z" fill="#CADDFF"/>
<path d="M26.8809 68.729C27.7065 68.0174 28.95 68.1106 29.6593 68.94C30.3687 69.7694 30.2737 71.0175 29.4497 71.7291C28.624 72.4407 27.3805 72.3475 26.6712 71.5181C25.9618 70.6887 26.0568 69.4406 26.8809 68.729Z" fill="#CADDFF"/>
<path d="M36.8383 76.6903C37.1987 75.6597 38.3225 75.1166 39.3497 75.4782C40.3769 75.8397 40.9175 76.9684 40.5571 78.0007C40.1967 79.0313 39.0728 79.5744 38.0457 79.2128C37.0185 78.8513 36.4778 77.7226 36.8383 76.692V76.6903Z" fill="#CADDFF"/>
<path d="M49.427 78.5877C49.2255 77.5146 49.9283 76.4791 50.9981 76.2779C52.0679 76.075 53.0967 76.7817 53.2982 77.8549C53.4997 78.928 52.7969 79.9635 51.7272 80.1647C50.6574 80.3676 49.6285 79.6609 49.427 78.5877Z" fill="#CADDFF"/>
<path d="M61.2727 73.9097C60.5634 73.0803 60.6584 71.8322 61.4824 71.1206C62.3081 70.409 63.5515 70.5022 64.2609 71.3316C64.9703 72.161 64.8753 73.4091 64.0512 74.1207C63.2255 74.8323 61.9821 74.7391 61.2727 73.9097Z" fill="#CADDFF"/>
<path d="M69.2019 63.9091C68.1747 63.5476 67.6341 62.4189 67.9945 61.3866C68.3549 60.356 69.4788 59.8129 70.506 60.1744C71.5331 60.536 72.0738 61.6647 71.7134 62.6969C71.3529 63.7275 70.2291 64.2707 69.2019 63.9091Z" fill="#CADDFF"/>
<path d="M71.0904 51.2672C70.0207 51.4701 68.9918 50.7634 68.7903 49.6903C68.5888 48.6171 69.2916 47.5816 70.3614 47.3804C71.4312 47.1776 72.46 47.8843 72.6615 48.9574C72.863 50.0305 72.1602 51.066 71.0904 51.2672Z" fill="#CADDFF"/>
<path d="M66.4321 39.3717C65.6064 40.0833 64.363 39.9901 63.6536 39.1607C62.9442 38.3313 63.0392 37.0831 63.8633 36.3715C64.6873 35.6599 65.9324 35.7532 66.6418 36.5826C67.3511 37.4119 67.2561 38.6601 66.4321 39.3717Z" fill="#CADDFF"/>
<path d="M56.4731 31.4082C56.1127 32.4388 54.9889 32.9819 53.9617 32.6204C52.9345 32.2589 52.3939 31.1301 52.7543 30.0995C53.1147 29.0689 54.2385 28.5258 55.2657 28.8873C56.2929 29.2489 56.8335 30.3776 56.4731 31.4098V31.4082Z" fill="#CADDFF"/>
<path d="M92.0226 11.4146C91.944 11.4146 91.8637 11.3966 91.7867 11.3606C91.5164 11.2297 91.4017 10.9058 91.5328 10.6359L92.7517 8.10684C92.8827 7.83693 93.2071 7.72405 93.4774 7.85328C93.7477 7.98415 93.8624 8.30806 93.7313 8.57797L92.5125 11.107C92.4191 11.3017 92.2241 11.4146 92.0226 11.4146Z" fill="#171D34"/>
<path d="M89.1847 17.3071C89.1061 17.3071 89.0258 17.2892 88.9488 17.2532C88.6785 17.1239 88.5638 16.7984 88.6949 16.5285L89.9138 13.9994C90.0448 13.7295 90.3692 13.6166 90.6395 13.7459C90.9098 13.8751 91.0245 14.2006 90.8934 14.4706L89.6746 16.9996C89.5812 17.1943 89.3863 17.3071 89.1847 17.3071Z" fill="#171D34"/>
<path d="M89.53 12.2862C89.4514 12.2862 89.3711 12.2682 89.2941 12.2322L86.7613 11.0151C86.491 10.8859 86.3763 10.5604 86.5074 10.2904C86.6368 10.0205 86.9628 9.90764 87.2331 10.0369L89.7659 11.254C90.0362 11.3848 90.1509 11.7087 90.0198 11.9787C89.9264 12.1733 89.7315 12.2862 89.53 12.2862Z" fill="#171D34"/>
<path d="M95.4304 15.1231C95.3517 15.1231 95.2715 15.1051 95.1945 15.0691L92.6617 13.852C92.3914 13.7212 92.2767 13.3973 92.4078 13.1274C92.5388 12.8574 92.8632 12.7446 93.1335 12.8738L95.6663 14.0909C95.9366 14.2201 96.0513 14.5456 95.9202 14.8156C95.8268 15.0102 95.6319 15.1231 95.4304 15.1231Z" fill="#171D34"/>
<path d="M81.2836 26.5353C80.8544 26.5353 80.4284 26.4388 80.0303 26.2474C78.5919 25.5554 77.9841 23.8247 78.6771 22.3884C79.013 21.6915 79.5995 21.168 80.3285 20.9128C81.0591 20.6576 81.8439 20.7018 82.5418 21.0371C83.238 21.3725 83.7639 21.9581 84.0195 22.6877C84.275 23.4173 84.2308 24.2009 83.895 24.8978C83.5591 25.5947 82.9726 26.1181 82.242 26.3733C81.9291 26.4829 81.6047 26.5369 81.2836 26.5369V26.5353ZM81.2869 21.8354C81.0854 21.8354 80.8838 21.8698 80.6873 21.9385C80.2318 22.0972 79.8649 22.4244 79.6552 22.8595C79.2227 23.756 79.6027 24.8389 80.5005 25.2708C80.9363 25.4802 81.4277 25.508 81.8832 25.3477C82.3386 25.189 82.7056 24.8618 82.9153 24.4267C83.125 23.9915 83.1528 23.5024 82.9923 23.046C82.8317 22.5912 82.5041 22.2248 82.0699 22.0154C81.8209 21.896 81.5539 21.8354 81.2869 21.8354Z" fill="#171D34"/>
<path d="M284.377 50.1999C284.21 50.1999 284.046 50.1231 283.94 49.9791C270.345 31.5412 251.918 17.4646 230.649 9.26892C230.369 9.16095 230.229 8.84686 230.337 8.56713C230.446 8.2874 230.76 8.14835 231.04 8.25632C252.503 16.5256 271.097 30.7315 284.815 49.3362C284.993 49.5783 284.941 49.9169 284.7 50.0953C284.603 50.1672 284.49 50.2016 284.377 50.2016V50.1999Z" fill="#171D34"/>
<path d="M274.348 46.3406C274.196 46.3406 274.043 46.2768 273.937 46.1525C263.593 34.1698 251.212 24.4953 237.138 17.3956C236.869 17.2598 236.763 16.9343 236.899 16.666C237.035 16.3977 237.361 16.2914 237.63 16.4272C251.832 23.5906 264.323 33.3535 274.761 45.4442C274.957 45.6716 274.931 46.0135 274.703 46.2098C274.6 46.2981 274.474 46.3423 274.35 46.3423L274.348 46.3406Z" fill="#171D34"/>
<path d="M222.254 9.7674C221.825 9.7674 221.399 9.67088 221.001 9.47949C220.303 9.14413 219.779 8.55849 219.523 7.8289C219.268 7.0993 219.312 6.31572 219.648 5.61884C219.984 4.92196 220.57 4.39848 221.301 4.14329C222.03 3.88809 222.816 3.93226 223.514 4.26761C224.953 4.95959 225.56 6.69033 224.867 8.12663C224.532 8.8235 223.945 9.34698 223.214 9.60218C222.902 9.71178 222.577 9.76576 222.256 9.76576L222.254 9.7674ZM222.258 5.06755C222.056 5.06755 221.855 5.10191 221.658 5.17061C221.203 5.32929 220.836 5.65647 220.626 6.09161C220.416 6.52675 220.388 7.01587 220.549 7.47228C220.708 7.92705 221.036 8.29348 221.471 8.50287C221.907 8.71227 222.397 8.74008 222.854 8.57976C223.309 8.42108 223.676 8.09391 223.886 7.65877C224.319 6.76231 223.94 5.67937 223.041 5.2475C222.792 5.12808 222.525 5.06755 222.258 5.06755Z" fill="#171D34"/>
<path d="M292.114 173.593C292.036 173.593 291.956 173.575 291.879 173.539C291.608 173.408 291.494 173.085 291.625 172.815L292.843 170.286C292.973 170.016 293.299 169.903 293.569 170.032C293.84 170.163 293.954 170.487 293.823 170.757L292.604 173.286C292.511 173.48 292.316 173.593 292.114 173.593Z" fill="#171D34"/>
<path d="M289.275 179.486C289.196 179.486 289.116 179.468 289.039 179.432C288.768 179.303 288.654 178.977 288.785 178.707L290.004 176.178C290.135 175.908 290.459 175.795 290.729 175.925C291 176.055 291.114 176.379 290.983 176.649L289.764 179.178C289.671 179.373 289.476 179.486 289.275 179.486Z" fill="#171D34"/>
<path d="M289.62 174.465C289.541 174.465 289.461 174.447 289.384 174.411L286.851 173.194C286.581 173.065 286.466 172.739 286.597 172.469C286.727 172.199 287.053 172.086 287.323 172.216L289.856 173.433C290.126 173.564 290.241 173.887 290.11 174.157C290.016 174.352 289.821 174.465 289.62 174.465Z" fill="#171D34"/>
<path d="M295.522 177.302C295.444 177.302 295.363 177.284 295.286 177.248L292.754 176.031C292.483 175.9 292.369 175.576 292.5 175.306C292.631 175.036 292.955 174.923 293.225 175.053L295.758 176.27C296.028 176.4 296.143 176.724 296.012 176.994C295.919 177.189 295.724 177.302 295.522 177.302Z" fill="#171D34"/>
<path d="M6.6288 195.101C6.3765 195.101 6.15042 194.925 6.098 194.669C1.88767 174.496 3.79624 155.909 12.479 132.521C12.5839 132.24 12.8968 132.097 13.1769 132.201C13.4587 132.305 13.6012 132.618 13.498 132.897C4.8906 156.081 2.99513 174.488 7.16123 194.447C7.22185 194.74 7.03345 195.028 6.7402 195.09C6.70252 195.098 6.66484 195.101 6.6288 195.101Z" fill="#171D34"/>
<path d="M8.87294 174.63C8.57642 174.63 8.33396 174.393 8.32904 174.095C8.14883 162.193 10.2851 152.981 12.002 145.581C12.1577 144.91 12.31 144.252 12.4575 143.608C12.5246 143.315 12.8162 143.133 13.1078 143.199C13.4011 143.266 13.5829 143.557 13.5174 143.848C13.37 144.493 13.2176 145.15 13.062 145.824C11.3582 153.168 9.23991 162.307 9.41685 174.079C9.42176 174.379 9.18094 174.626 8.88113 174.63H8.87294Z" fill="#171D34"/>
<path d="M251.321 184.535L181.505 194.177C178.359 194.611 175.937 197.684 176.093 201.038L177.594 233.271C177.747 236.572 180.397 238.935 183.516 238.554L252.698 230.077C255.977 229.676 258.562 226.594 258.461 223.193L257.498 189.968C257.398 186.511 254.627 184.077 251.318 184.535H251.321Z" fill="#F6BD3D"/>
<path d="M187.342 239.064C186.855 239.064 186.433 238.702 186.37 238.206C186.306 237.669 186.687 237.182 187.224 237.115L225.109 232.472C225.643 232.413 226.134 232.788 226.202 233.324C226.267 233.861 225.886 234.348 225.348 234.416L187.463 239.058C187.422 239.064 187.384 239.064 187.342 239.064Z" fill="#307FF4"/>
<path d="M182.549 239.61C181.104 239.61 179.731 239.115 178.617 238.177C177.22 237 176.402 235.286 176.31 233.357L175.681 219.901C175.654 219.361 176.074 218.904 176.614 218.877C177.17 218.851 177.613 219.269 177.639 219.809L178.269 233.265C178.334 234.646 178.907 235.858 179.881 236.681C180.771 237.433 181.911 237.767 183.092 237.622L187.225 237.115C187.757 237.053 188.25 237.43 188.318 237.967C188.383 238.504 188.002 238.991 187.464 239.059L183.332 239.566C183.069 239.598 182.809 239.613 182.549 239.613V239.61Z" fill="#307FF4"/>
<path d="M257.706 209.22C257.177 209.22 256.743 208.801 256.728 208.27L256.199 190.039C256.158 188.608 255.582 187.355 254.58 186.508C253.638 185.712 252.412 185.372 251.133 185.549L181.331 195.189C178.682 195.555 176.635 198.177 176.767 201.032C176.794 201.572 176.375 202.029 175.834 202.056C175.288 202.088 174.836 201.663 174.809 201.123C174.629 197.283 177.435 193.749 181.063 193.248L250.864 183.609C252.705 183.355 254.474 183.853 255.848 185.013C257.28 186.222 258.102 187.989 258.161 189.983L258.689 208.214C258.704 208.754 258.279 209.206 257.738 209.22C257.729 209.22 257.718 209.22 257.709 209.22H257.706Z" fill="#307FF4"/>
<path d="M251.545 197.371C251.589 198.858 250.473 200.215 249.049 200.404L199.044 207.043C197.671 207.226 196.507 206.194 196.448 204.74C196.386 203.283 197.449 201.952 198.826 201.766L248.886 195.026C250.31 194.835 251.504 195.885 251.548 197.371H251.545Z" fill="white"/>
<path d="M252.012 212.79C252.057 214.264 250.943 215.606 249.522 215.789L199.671 222.146C198.301 222.32 197.143 221.29 197.081 219.845C197.019 218.4 198.082 217.081 199.453 216.904L249.357 210.447C250.778 210.265 251.965 211.312 252.009 212.79H252.012Z" fill="white"/>
<path d="M192.109 205.486C192.23 208.3 190.183 210.861 187.54 211.209L187.232 211.25C184.595 211.598 182.358 209.61 182.231 206.805L182.217 206.477C182.09 203.669 184.125 201.103 186.769 200.743L187.079 200.702C189.728 200.342 191.976 202.339 192.098 205.156L192.112 205.486H192.109Z" fill="white"/>
<path d="M107.014 88.1621L114.137 88.2733" stroke="white" stroke-miterlimit="10"/>
<path d="M110.629 84.6562L110.518 91.7794" stroke="white" stroke-miterlimit="10"/>
<path d="M117.31 92.2025L119.717 84.3874L120.869 84.4097L122.889 92.3101L122.181 92.2965L121.724 90.4753L118.544 90.4139L118.005 92.2159L117.31 92.2025ZM121.579 89.8724L120.377 85.0003L120.173 84.9964L118.724 89.8173L121.579 89.8724ZM123.824 92.3282L123.976 84.4696L125.584 84.5007C126.176 84.5121 126.658 84.5814 127.032 84.7087C127.414 84.828 127.734 85.0383 127.992 85.3393C128.25 85.6403 128.43 86.0479 128.533 86.562C128.643 87.0682 128.69 87.7132 128.675 88.4971C128.66 89.2729 128.584 89.9196 128.446 90.437C128.308 90.9464 128.096 91.3424 127.811 91.625C127.525 91.9075 127.193 92.1051 126.815 92.2179C126.437 92.3226 125.968 92.3696 125.408 92.3587L123.824 92.3282ZM126.853 91.5225C127.2 91.3531 127.466 91.0302 127.651 90.5537C127.845 90.0693 127.95 89.3792 127.967 88.4834C127.985 87.5796 127.91 86.886 127.743 86.4027C127.577 85.9114 127.327 85.5745 126.995 85.3921C126.662 85.2096 126.188 85.1124 125.572 85.1006L124.624 85.0823L124.496 91.741L125.42 91.7589C126.036 91.7707 126.513 91.6919 126.853 91.5225ZM129.823 92.444L129.975 84.5854L131.583 84.6164C132.175 84.6279 132.657 84.6972 133.031 84.8244C133.413 84.9438 133.733 85.154 133.991 85.4551C134.249 85.7561 134.429 86.1637 134.531 86.6777C134.642 87.1839 134.689 87.829 134.674 88.6128C134.659 89.3887 134.583 90.0353 134.445 90.5528C134.307 91.0622 134.095 91.4582 133.81 91.7407C133.524 92.0233 133.192 92.2209 132.814 92.3336C132.436 92.4384 131.967 92.4853 131.407 92.4745L129.823 92.444ZM132.851 91.6382C133.199 91.4689 133.465 91.146 133.65 90.6695C133.844 90.1851 133.949 89.495 133.966 88.5992C133.984 87.6953 133.909 87.0018 133.742 86.5185C133.576 86.0272 133.326 85.6903 132.994 85.5078C132.661 85.3254 132.187 85.2282 131.571 85.2163L130.623 85.198L130.495 91.8568L131.419 91.8746C132.034 91.8865 132.512 91.8077 132.851 91.6382Z" fill="white"/>
<path d="M171.656 88.1621L178.779 88.2733" stroke="white" stroke-miterlimit="10"/>
<path d="M175.271 84.6562L175.16 91.7794" stroke="white" stroke-miterlimit="10"/>
<path d="M181.952 92.2025L184.359 84.3874L185.511 84.4097L187.531 92.3101L186.823 92.2965L186.366 90.4753L183.187 90.4139L182.648 92.2159L181.952 92.2025ZM186.222 89.8724L185.02 85.0003L184.816 84.9964L183.366 89.8173L186.222 89.8724ZM188.467 92.3282L188.619 84.4696L190.226 84.5007C190.818 84.5121 191.301 84.5814 191.675 84.7087C192.056 84.828 192.376 85.0383 192.635 85.3393C192.893 85.6403 193.073 86.0479 193.175 86.562C193.285 87.0682 193.333 87.7132 193.318 88.4971C193.303 89.2729 193.226 89.9196 193.088 90.437C192.95 90.9464 192.739 91.3424 192.453 91.625C192.168 91.9075 191.836 92.1051 191.458 92.2179C191.08 92.3226 190.611 92.3696 190.051 92.3587L188.467 92.3282ZM191.495 91.5225C191.842 91.3531 192.109 91.0302 192.294 90.5537C192.487 90.0693 192.593 89.3792 192.61 88.4834C192.627 87.5796 192.553 86.886 192.386 86.4027C192.219 85.9114 191.97 85.5745 191.637 85.3921C191.305 85.2096 190.831 85.1124 190.215 85.1006L189.267 85.0823L189.138 91.741L190.062 91.7589C190.678 91.7707 191.156 91.6919 191.495 91.5225ZM194.466 92.444L194.618 84.5854L196.225 84.6164C196.817 84.6279 197.3 84.6972 197.673 84.8244C198.055 84.9438 198.375 85.154 198.633 85.4551C198.892 85.7561 199.072 86.1637 199.174 86.6777C199.284 87.1839 199.332 87.829 199.317 88.6128C199.302 89.3887 199.225 90.0353 199.087 90.5528C198.949 91.0622 198.738 91.4582 198.452 91.7407C198.167 92.0233 197.835 92.2209 197.457 92.3336C197.078 92.4384 196.609 92.4853 196.05 92.4745L194.466 92.444ZM197.494 91.6382C197.841 91.4689 198.108 91.146 198.293 90.6695C198.486 90.1851 198.592 89.495 198.609 88.5992C198.626 87.6953 198.552 87.0018 198.385 86.5185C198.218 86.0272 197.969 85.6903 197.636 85.5078C197.304 85.3254 196.83 85.2282 196.214 85.2163L195.266 85.198L195.137 91.8568L196.061 91.8746C196.677 91.8865 197.155 91.8077 197.494 91.6382Z" fill="white"/>
<path d="M235.254 88.1621L242.377 88.2733" stroke="white" stroke-miterlimit="10"/>
<path d="M238.871 84.6562L238.76 91.7794" stroke="white" stroke-miterlimit="10"/>
<path d="M245.55 92.2025L247.957 84.3874L249.109 84.4097L251.129 92.3101L250.421 92.2965L249.964 90.4753L246.785 90.4139L246.246 92.2159L245.55 92.2025ZM249.82 89.8724L248.617 85.0003L248.413 84.9964L246.964 89.8173L249.82 89.8724ZM252.065 92.3282L252.216 84.4696L253.824 84.5007C254.416 84.5121 254.899 84.5814 255.272 84.7087C255.654 84.828 255.974 85.0383 256.232 85.3393C256.49 85.6403 256.671 86.0479 256.773 86.562C256.883 87.0682 256.931 87.7132 256.915 88.4971C256.9 89.2729 256.824 89.9196 256.686 90.437C256.548 90.9464 256.336 91.3424 256.051 91.625C255.765 91.9075 255.434 92.1051 255.055 92.2179C254.677 92.3226 254.208 92.3696 253.648 92.3587L252.065 92.3282ZM255.093 91.5225C255.44 91.3531 255.706 91.0302 255.892 90.5537C256.085 90.0693 256.19 89.3792 256.208 88.4834C256.225 87.5796 256.15 86.886 255.984 86.4027C255.817 85.9114 255.568 85.5745 255.235 85.3921C254.903 85.2096 254.428 85.1124 253.812 85.1006L252.865 85.0823L252.736 91.741L253.66 91.7589C254.276 91.7707 254.753 91.6919 255.093 91.5225ZM258.064 92.444L258.215 84.5854L259.823 84.6164C260.415 84.6279 260.898 84.6972 261.271 84.8244C261.653 84.9438 261.973 85.154 262.231 85.4551C262.489 85.7561 262.67 86.1637 262.772 86.6777C262.882 87.1839 262.929 87.829 262.914 88.6128C262.899 89.3887 262.823 90.0353 262.685 90.5528C262.547 91.0622 262.335 91.4582 262.05 91.7407C261.764 92.0233 261.432 92.2209 261.054 92.3336C260.676 92.4384 260.207 92.4853 259.647 92.4745L258.064 92.444ZM261.092 91.6382C261.439 91.4689 261.705 91.146 261.89 90.6695C262.084 90.1851 262.189 89.495 262.206 88.5992C262.224 87.6953 262.149 87.0018 261.983 86.5185C261.816 86.0272 261.566 85.6903 261.234 85.5078C260.901 85.3254 260.427 85.2282 259.811 85.2163L258.863 85.198L258.735 91.8568L259.659 91.8746C260.275 91.8865 260.752 91.8077 261.092 91.6382Z" fill="white"/>
</g>
<defs>
<clipPath id="clip0_1081_42548">
<rect width="300" height="300" fill="white"/>
</clipPath>
</defs>
</svg>
