<svg width="48" height="48" viewBox="0 0 48 48" fill="none" xmlns="http://www.w3.org/2000/svg">
<path d="M36.2138 44.5074H14.0328C13.4978 44.5074 12.9848 44.2947 12.6068 43.916L7.72172 39.023C7.34457 38.6452 7.13269 38.1332 7.13269 37.5993V5.57491C7.13269 5.35234 7.31316 5.17188 7.53572 5.17188H36.2138C36.4364 5.17188 36.6169 5.35234 36.6169 5.57491V44.1044C36.6168 44.3269 36.4363 44.5074 36.2138 44.5074Z" fill="#73C3FD"/>
<path d="M21.1647 2.7831C21.1647 1.60916 20.1921 0.662383 19.0088 0.704476C17.8817 0.744508 17.0046 1.70516 17.0046 2.83298V4.17135H21.1646V2.7831H21.1647Z" fill="#F6BD3D"/>
<path d="M32.8193 9.14753L33.4651 46.524C33.4651 46.7471 33.2851 46.9271 33.0619 46.9271L30.057 47.2967H12.642C12.371 47.2967 12.1067 47.2385 11.8648 47.1279L11.4615 40.7887C11.4615 40.5815 11.2937 40.4137 11.0865 40.4137L4.51104 39.7648C4.40041 39.5238 4.34229 39.2585 4.34229 38.9885V8.36406C4.34229 8.14188 4.52322 7.96094 4.74541 7.96094H31.6704L32.4162 8.74441C32.6393 8.74441 32.8193 8.92534 32.8193 9.14753Z" fill="white"/>
<path d="M25.5996 9.52475H12.5696C12.3625 9.52475 12.1946 9.35684 12.1946 9.14975V4.89453C12.1946 4.11791 12.8242 3.48828 13.6008 3.48828H24.5684C25.345 3.48828 25.9746 4.11791 25.9746 4.89453V9.14966C25.9746 9.35684 25.8068 9.52475 25.5996 9.52475Z" fill="#F6BD3D"/>
<path d="M33.4236 7.96094H31.6705V45.2284C31.6705 46.3703 30.7442 47.2966 29.6024 47.2966H33.4236C33.6463 47.2966 33.8267 47.1161 33.8267 46.8934V41.8141V19.7209V8.36406C33.8267 8.14188 33.6467 7.96094 33.4236 7.96094Z" fill="#73C3FD"/>
<path d="M11.8649 40.1406V47.1288C11.6614 47.0369 11.4758 46.9075 11.3155 46.7472L4.8908 40.315C4.73142 40.1547 4.60298 39.9691 4.51111 39.7656H11.4899C11.697 39.7656 11.8649 39.9334 11.8649 40.1406Z" fill="#73C3FD"/>
<path d="M24.7684 18.6417C24.7684 22.1109 22.368 24.7525 18.899 24.7525C16.6721 24.7525 15.1217 23.5922 13.6919 22.0977C13.0696 21.1228 12.7092 19.9648 12.7092 18.7228C12.7092 15.2536 15.5214 12.4414 18.9905 12.4414C20.2333 12.4414 21.3917 12.8023 22.3668 13.425C23.8739 14.7717 24.7684 16.4154 24.7684 18.6417Z" fill="#F6BD3D"/>
<path d="M25.2721 18.7232C25.2721 22.1922 22.4598 25.0045 18.9909 25.0045C16.7633 25.0045 14.8073 23.8453 13.692 22.0982C14.6672 22.722 15.8256 23.0829 17.0694 23.0829C20.5384 23.0829 23.3506 20.2706 23.3506 16.8016C23.3506 15.5587 22.9898 14.4002 22.3667 13.4258C24.1137 14.5412 25.2721 16.4972 25.2721 18.7232Z" fill="#F6BD3D"/>
<path d="M29.588 43.5474H15.8956C15.6885 43.5474 15.5206 43.3795 15.5206 43.1724V40.1406C15.5206 39.9335 15.6885 39.7656 15.8956 39.7656H29.588C29.7951 39.7656 29.963 39.9335 29.963 40.1406V43.1724C29.963 43.3795 29.7951 43.5474 29.588 43.5474Z" fill="#307FF4"/>
<path d="M34.4981 11.5178L34.3651 11.5841L26.9822 24.3718C26.6214 24.9968 27.0724 25.778 27.7941 25.778H41.1268L42.6268 25.5427C43.3484 25.5427 43.5788 24.9942 43.2179 24.3691L35.9804 11.6964C35.6196 11.0715 34.8589 10.8928 34.4981 11.5178Z" fill="#73C3FD"/>
<path d="M42.8115 25.7748H40.9365C41.6584 25.7748 42.1093 24.9938 41.7484 24.3685L34.3655 11.581L34.4912 11.3635C34.8521 10.7382 35.754 10.7382 36.1149 11.3635L43.6234 24.3685C43.9843 24.9938 43.5334 25.7748 42.8115 25.7748Z" fill="#73C3FD"/>
<path d="M19.752 18.099C19.629 18.0555 19.5112 18.0161 19.3988 17.9785C19.0206 17.852 18.7219 17.7523 18.605 17.6176C18.4818 17.4754 18.4374 17.3028 18.4833 17.1436C18.5116 17.0464 18.5842 16.9188 18.7712 16.8625C19.1851 16.7375 19.4382 16.9711 19.4853 17.0197C19.7521 17.3016 20.1967 17.3141 20.479 17.0474C20.7612 16.7807 20.7738 16.3356 20.5069 16.0533C20.3167 15.8521 20.0358 15.6584 19.6937 15.5394V15.1914C19.6937 14.803 19.3789 14.4883 18.9905 14.4883C18.6021 14.4883 18.2874 14.803 18.2874 15.1914V15.5421C17.7256 15.7384 17.2968 16.1853 17.1326 16.7526C16.9541 17.3695 17.1075 18.0374 17.543 18.5394C17.9118 18.9641 18.4174 19.1332 18.9528 19.3122C19.0579 19.3473 19.1682 19.3842 19.2832 19.4248C19.6526 19.5554 19.6902 19.8208 19.6565 20.0205C19.6085 20.3063 19.3681 20.6151 18.9536 20.6178C18.4735 20.6205 18.3507 20.6015 17.9971 20.3703C17.672 20.1577 17.2364 20.2487 17.0238 20.5738C16.8111 20.8987 16.9023 21.3345 17.2273 21.5471C17.6262 21.8081 17.9385 21.9309 18.2874 21.9853V22.2528C18.2874 22.6412 18.6021 22.9559 18.9905 22.9559C19.3789 22.9559 19.6937 22.6412 19.6937 22.2528V21.8913C20.4476 21.6118 20.9298 20.9292 21.0434 20.2535C21.2046 19.2948 20.6856 18.4289 19.752 18.099Z" fill="#171D34"/>
<path d="M18.9906 11.8477C15.2002 11.8477 12.1166 14.9315 12.1166 18.7218C12.1166 22.5121 15.2003 25.5959 18.9906 25.5959C22.7809 25.5959 25.8647 22.5121 25.8647 18.7218C25.8647 14.9315 22.781 11.8477 18.9906 11.8477ZM18.9906 24.1898C15.9757 24.1898 13.5228 21.7369 13.5228 18.7219C13.5228 15.7069 15.9757 13.254 18.9906 13.254C22.0056 13.254 24.4585 15.7069 24.4585 18.7219C24.4585 21.7369 22.0056 24.1898 18.9906 24.1898Z" fill="#171D34"/>
<path d="M15.8956 44.2505H29.588C30.1825 44.2505 30.6662 43.7669 30.6662 43.1724V40.1406C30.6662 39.5462 30.1825 39.0625 29.588 39.0625H15.8956C15.3011 39.0625 14.8174 39.5462 14.8174 40.1406V43.1724C14.8174 43.7669 15.3011 44.2505 15.8956 44.2505ZM16.2237 40.4688H29.2599V42.8443H16.2237V40.4688Z" fill="#171D34"/>
<path d="M18.0671 29.8164C18.4555 29.8164 18.7702 29.5017 18.7702 29.1133C18.7702 28.7249 18.4555 28.4102 18.0671 28.4102H15.4846C15.0962 28.4102 14.7814 28.7249 14.7814 29.1133V35.2423C14.7814 35.6307 15.0962 35.9454 15.4846 35.9454H18.0671C18.4555 35.9454 18.7702 35.6307 18.7702 35.2423C18.7702 34.8539 18.4555 34.5392 18.0671 34.5392H16.1877V32.8809H17.7782C18.1667 32.8809 18.4814 32.5662 18.4814 32.1778C18.4814 31.7894 18.1667 31.4747 17.7782 31.4747H16.1877V29.8164H18.0671Z" fill="#171D34"/>
<path d="M8.76825 28.4102C8.37984 28.4102 8.06512 28.7249 8.06512 29.1133V35.2423C8.06512 35.6307 8.37984 35.9454 8.76825 35.9454H10.5513C10.5554 35.9454 10.5594 35.9454 10.5636 35.9453C12.3702 35.9137 13.6814 34.3307 13.6814 32.1812C13.6814 29.9256 12.403 28.4102 10.5005 28.4102H8.76825ZM12.2751 32.1812C12.2751 33.3004 11.7336 34.5146 10.5446 34.5392H9.47137V29.8164H10.5005C11.8088 29.8164 12.2751 31.038 12.2751 32.1812Z" fill="#171D34"/>
<path d="M22.3608 28.5234H20.5793C20.1909 28.5234 19.8762 28.8382 19.8762 29.2266V35.3556C19.8762 35.744 20.1909 36.0587 20.5793 36.0587H22.6718C23.9698 36.0587 25.0256 35.0012 25.0256 33.7012C25.0256 32.9417 24.6635 32.2655 24.103 31.835C24.3373 31.4942 24.4749 31.0819 24.4749 30.6378C24.475 29.472 23.5267 28.5234 22.3608 28.5234ZM21.2825 29.9297H22.3608C22.7512 29.9297 23.0688 30.2473 23.0688 30.6378C23.0688 31.0295 22.7512 31.3481 22.3608 31.3481H21.2825V29.9297ZM22.6718 34.6524H21.2825V32.7544H22.6718C23.1943 32.7544 23.6194 33.1791 23.6194 33.7012C23.6195 34.2258 23.1944 34.6524 22.6718 34.6524Z" fill="#171D34"/>
<path d="M29.2131 28.4102H25.8285C25.4401 28.4102 25.1254 28.7249 25.1254 29.1133C25.1254 29.5017 25.4401 29.8164 25.8285 29.8164H26.8108V35.2419C26.8108 35.6303 27.1255 35.945 27.5139 35.945C27.9023 35.945 28.2171 35.6303 28.2171 35.2419V29.8164H29.2131C29.6015 29.8164 29.9162 29.5017 29.9162 29.1133C29.9162 28.7249 29.6015 28.4102 29.2131 28.4102Z" fill="#171D34"/>
<path d="M44.2322 24.0187L42.7354 21.4273C42.6176 21.204 42.383 21.0519 42.1129 21.0519C41.7245 21.0519 41.4098 21.3671 41.4098 21.7555C41.4098 21.879 41.4424 22.0003 41.5041 22.1072L43.0143 24.7218C43.0733 24.824 43.0397 24.9127 43.0144 24.9563C42.9891 25.0001 42.9292 25.0734 42.8114 25.0734H27.7937C27.6765 25.0734 27.6166 25.0002 27.5914 24.9565C27.5659 24.9126 27.5322 24.8236 27.5907 24.7219L35.1001 11.7168C35.1591 11.6146 35.2526 11.5994 35.303 11.5994C35.3535 11.5994 35.4469 11.6146 35.506 11.7169L39.8588 19.2563C40.0529 19.5926 40.4831 19.7077 40.8193 19.5136C41.1556 19.3194 41.2708 18.8894 41.0766 18.5531L37.2247 11.8814C37.225 11.8735 37.2259 11.8658 37.2259 11.8578V5.57438C37.2259 4.96444 36.7297 4.46822 36.1198 4.46822H26.54C26.3423 3.50888 25.4911 2.78531 24.4741 2.78531H21.7739V2.78316C21.7738 1.24847 20.5253 0 18.9906 0C17.456 0 16.2075 1.24847 16.2075 2.78316V2.78531H13.507C12.49 2.78531 11.6388 3.50888 11.441 4.46822H7.44157C6.83163 4.46822 6.33541 4.96444 6.33541 5.57438V7.25813H4.65148C4.04145 7.25813 3.54523 7.75434 3.54523 8.36438V27.705C3.54523 28.0934 3.85995 28.4081 4.24835 28.4081C4.63676 28.4081 4.95148 28.0934 4.95148 27.705V8.66438H11.3977V9.15C11.3977 9.74447 11.8814 10.2281 12.4759 10.2281H14.5403C14.9287 10.2281 15.2434 9.91341 15.2434 9.525C15.2434 9.13659 14.9287 8.82188 14.5403 8.82188H12.804V4.89469C12.804 4.50694 13.1194 4.19156 13.5071 4.19156H24.474C24.8617 4.19156 25.1771 4.50694 25.1771 4.89469V8.82188H17.8215C17.4331 8.82188 17.1184 9.13659 17.1184 9.525C17.1184 9.91341 17.4331 10.2281 17.8215 10.2281H25.5052C26.0997 10.2281 26.5834 9.74447 26.5834 9.15V8.66456H33.0296V12.4904L26.3724 24.0195C26.0765 24.5335 26.0771 25.1469 26.374 25.6604C26.6706 26.1735 27.2014 26.4797 27.7938 26.4797H33.0297V38.4122C33.0297 38.8006 33.3444 39.1153 33.7328 39.1153C34.1212 39.1153 34.4359 38.8006 34.4359 38.4122V26.4797H35.8198V43.8037H34.4359V41.6934C34.4359 41.305 34.1212 40.9903 33.7328 40.9903C33.3444 40.9903 33.0297 41.305 33.0297 41.6934V46.5938C33.0297 46.5938 12.4985 46.5917 12.4738 46.5901V39.7651C12.4738 39.3767 12.1591 39.062 11.7707 39.062H4.95513C4.95354 39.0376 4.95148 30.9862 4.95148 30.9862C4.95148 30.5978 4.63676 30.283 4.24835 30.283C3.85995 30.283 3.54523 30.5978 3.54523 30.9862V38.9887C3.54523 39.6664 3.81991 40.3304 4.29926 40.8111L10.7236 47.243C11.2104 47.731 11.8583 47.9998 12.548 47.9998H33.3296C33.9396 47.9998 34.4359 47.5036 34.4359 46.8936V45.2097H36.1198C36.7297 45.2097 37.2259 44.7135 37.2259 44.1036V26.4797H42.8115C43.4046 26.4797 43.9358 26.173 44.2324 25.6596C44.5289 25.1461 44.5289 24.5327 44.2322 24.0187ZM11.3977 7.25813H7.74176V5.87447H11.3977V7.25813ZM20.3675 2.78531H17.6137V2.78316C17.6137 2.02388 18.2314 1.40625 18.9906 1.40625C19.7499 1.40625 20.3676 2.02388 20.3676 2.78316V2.78531H20.3675ZM26.5834 7.25831V5.87447H35.8197V10.2752C35.6563 10.2218 35.4826 10.1932 35.303 10.1932C34.9877 10.1932 34.6903 10.2806 34.4359 10.4392V8.36447C34.4359 7.75453 33.9396 7.25831 33.3297 7.25831H26.5834ZM11.0674 45.5975L5.9442 40.4682H11.0674V45.5975Z" fill="#171D34"/>
<path d="M36.006 16.2656C36.006 15.8772 35.6913 15.5625 35.3029 15.5625C34.9145 15.5625 34.5997 15.8772 34.5997 16.2656V19.5074C34.5997 19.8958 34.9145 20.2105 35.3029 20.2105C35.6913 20.2105 36.006 19.8958 36.006 19.5074V16.2656Z" fill="#171D34"/>
<path d="M35.3029 23.2539C35.6912 23.2539 36.006 22.9391 36.006 22.5508C36.006 22.1625 35.6912 21.8477 35.3029 21.8477C34.9145 21.8477 34.5997 22.1625 34.5997 22.5508C34.5997 22.9391 34.9145 23.2539 35.3029 23.2539Z" fill="#171D34"/>
</svg>
