<svg width="80" height="80" viewBox="0 0 80 80" fill="none" xmlns="http://www.w3.org/2000/svg">
<g id="Layer_1" clip-path="url(#clip0_998_205642)">
<g id="Group">
<g id="Group_2">
<g id="Vector 77">
<path d="M31 33.5L34.5 19L27.5 15L20 13L13 15L7 19L2.5 25.5L1.5 33.5L5.5 47L14 59L26.5 71.5L36.5 78L39 59L31 53.5L39 35.5L31 33.5Z" fill="#73C3FD"/>
<path d="M43.5 20L42 27L50.5 29L42 49L48.5 55L44.5 78L59.5 66.5L69 55L76 44L79 33.5L76 23L69 16L59.5 13L50.5 15L43.5 20Z" fill="#73C3FD"/>
</g>
<path id="Vector" d="M39.7294 57.506L32.5483 52.7982L41.3086 36.0171C41.5417 35.5703 41.5451 35.0382 41.3176 34.5886C41.09 34.1387 40.6592 33.8266 40.1611 33.7498L32.7472 32.6092L36.2851 19.5193C36.4326 18.9737 36.274 18.3909 35.8701 17.9954C32.8097 14.998 28.9497 13.0326 24.7075 12.312C20.5635 11.6076 16.3544 12.132 12.5364 13.8277C11.7477 14.178 11.3924 15.1013 11.7425 15.8899C12.0928 16.6783 13.0164 17.0341 13.8046 16.6836C20.2187 13.8349 27.8244 15.0252 33.0229 19.6134L29.2751 33.4802C29.1591 33.9094 29.2316 34.3678 29.4739 34.7403C29.7165 35.1129 30.1064 35.3645 30.5457 35.4321L37.5282 36.5063L29.1236 52.606C28.752 53.3179 28.9805 54.1955 29.6522 54.6358L37.2001 59.5841L35.1937 75.3832C28.7717 71.7514 19.5435 64.3034 12.4239 54.9964C7.45185 48.4966 -0.162776 36.0371 4.70474 25.6177C5.06989 24.8359 4.73224 23.9061 3.95039 23.5409C3.16822 23.1756 2.23872 23.5134 1.87342 24.2953C-0.377457 29.1137 -0.601201 34.6453 1.20844 40.736C2.7373 45.8815 5.67581 51.3184 9.94194 56.8953C18.1286 67.597 29.0734 75.9707 35.7781 79.2222C35.9935 79.3267 36.2268 79.3787 36.4598 79.3787C36.7162 79.3787 36.9721 79.3156 37.2041 79.1901C37.6465 78.9504 37.9465 78.5123 38.0099 78.0131L40.4228 59.0098C40.4981 58.4171 40.2291 57.8337 39.7294 57.506Z" fill="#171D34"/>
<path id="Vector_2" d="M73.726 18.1289C65.5283 9.95705 52.1895 9.95705 43.9914 18.1289C43.6838 18.4356 43.35 18.7066 42.9992 18.9346C42.681 19.1415 42.4491 19.4571 42.3464 19.8226L40.2926 27.1419C40.171 27.5748 40.2421 28.0392 40.4873 28.4161C40.7324 28.7931 41.1284 29.046 41.5733 29.1103L49.1838 30.2105L40.1571 48.7947C39.8312 49.4656 40.0251 50.2736 40.6201 50.7236L47.3888 55.8431L42.4308 77.2592C42.2941 77.8495 42.5111 78.4654 42.9874 78.84C43.2683 79.0609 43.6095 79.1742 43.9534 79.1742C44.1925 79.1742 44.4328 79.1193 44.6548 79.0078C51.0762 75.7799 59.075 69.3773 65.5299 62.2987C71.1035 56.1864 78.0814 46.819 79.6715 36.9029C80.8502 29.5527 78.8498 23.2364 73.726 18.1289ZM76.5861 36.4079C74.1477 51.614 57.2229 67.7587 46.2745 74.5124L50.662 55.5606C50.8011 54.96 50.574 54.3339 50.0823 53.9621L43.5291 49.0055L52.9291 29.6527C53.1471 29.2042 53.1377 28.6787 52.9041 28.2381C52.6705 27.7975 52.2407 27.495 51.7473 27.4237L43.7825 26.2722L45.205 21.2033C45.5526 20.9422 45.8851 20.6538 46.1977 20.3421C53.1793 13.3827 64.5389 13.3827 71.52 20.3421C75.8921 24.7004 77.5967 30.1057 76.5861 36.4079Z" fill="#171D34"/>
<path id="Vector_3" d="M7.37174 20.7969C8.23456 20.7969 8.93426 20.0974 8.93426 19.2344C8.93426 18.3714 8.23456 17.6719 7.37174 17.6719H7.37049C6.50767 17.6719 5.80859 18.3714 5.80859 19.2344C5.80859 20.0974 6.50876 20.7969 7.37174 20.7969Z" fill="#171D34"/>
</g>
</g>
<path id="Vector_4" d="M40.5961 2.51013L40.5962 2.51014L46.6696 3.40725C46.6696 3.40726 46.6696 3.40726 46.6696 3.40726C47.3841 3.51289 47.7657 4.40617 47.2907 5.03773L47.2907 5.03775L41.2172 13.1125L41.2172 13.1126C40.6744 13.8345 39.5 13.4837 39.5 12.4847V3.5126C39.5 2.87787 40.0362 2.42733 40.5961 2.51013ZM40.6693 2.01552L40.6693 2.01551L40.6693 2.01552Z" fill="#F6BD3D" stroke="#171D34"/>
<path id="Vector_5" d="M28.8317 3.25774L28.8317 3.25774C28.3191 2.8079 28.4244 1.91917 28.9796 1.61471L28.9797 1.61466L30.8392 0.594322C30.8393 0.594313 30.8393 0.594304 30.8393 0.594295C31.2887 0.347807 31.9164 0.613025 32.0212 1.30179C32.0212 1.30182 32.0212 1.30184 32.0212 1.30187L32.486 4.36235L32.4861 4.36239C32.5568 4.82812 32.3485 5.19229 32.0676 5.37316C31.794 5.54931 31.4524 5.558 31.1564 5.29812L30.8265 5.6739L31.1563 5.29812L28.8317 3.25774Z" fill="#307FF4" stroke="#171D34"/>
</g>
<defs>
<clipPath id="clip0_998_205642">
<rect width="80" height="80" fill="white"/>
</clipPath>
</defs>
</svg>
