<svg width="36" height="36" viewBox="0 0 36 36" fill="none" xmlns="http://www.w3.org/2000/svg">
<g id="documents_3073464 1">
<g id="Group">
<g id="Group_2">
<path id="Vector" opacity="0.5" d="M27.2165 32.2157H9.12915C8.35247 32.2157 7.7229 31.5862 7.7229 30.8095V4.83984H5.39218C4.54118 4.83984 3.85135 5.52968 3.85135 6.38067V33.9302C3.85135 34.7812 4.54118 35.471 5.39218 35.471H25.6757C26.5267 35.471 27.2165 34.7812 27.2165 33.9302V32.2157H27.2165Z" fill="#307FF4"/>
<path id="Vector_2" opacity="0.5" d="M7.72295 4.83984V30.8095C7.72295 31.5862 8.35253 32.2157 9.1292 32.2157H27.2165V33.9302C27.2165 34.2303 27.1304 34.5102 26.982 34.747H7.85753C7.00661 34.747 6.31677 34.0571 6.31677 33.2062V32.0812L7.0199 5.65666L7.72295 4.83984Z" fill="#307FF4"/>
<path id="Vector_3" opacity="0.9" d="M29.6818 29.7517H11.5945C10.8178 29.7517 10.1882 29.1221 10.1882 28.3455V2.99219H7.85753C7.00661 2.99219 6.31677 3.68202 6.31677 4.53302V32.0824C6.31677 32.9334 7.00661 33.6233 7.85753 33.6233H28.1411C28.9921 33.6233 29.6819 32.9334 29.6819 32.0824V29.7517H29.6818Z" fill="#F6BD3D"/>
<path id="Vector_4" d="M10.1882 2.99219V28.3455C10.1882 29.1221 10.8178 29.7517 11.5945 29.7517H29.6818V32.0824C29.6818 32.2079 29.6665 32.3296 29.6382 32.4463H10.3227C9.47179 32.4463 8.78195 31.7565 8.78195 30.9055V29.6171L9.48508 27.6719V3.35605L10.1882 2.99219Z" fill="#F6BD3D"/>
<path id="Vector_5" d="M30.4656 31.1584H10.3227C9.47179 31.1584 8.78195 30.4686 8.78195 29.6176V2.06817C8.78195 1.21718 9.47179 0.527344 10.3227 0.527344H25.9051L32.0064 6.76927V29.6176C32.0065 30.4686 31.3166 31.1584 30.4656 31.1584Z" fill="#F5F9FF"/>
<path id="Vector_6" opacity="0.4" d="M30.0377 4.66016V29.6179C30.0377 30.4688 29.3479 31.1587 28.4969 31.1587H30.6063C31.4573 31.1587 32.1471 30.4688 32.1471 29.6179V6.76953L30.0377 4.66016Z" fill="#73C3FD"/>
<path id="Vector_7" opacity="0.6" d="M32.1471 6.76927H27.4457C26.5949 6.76927 25.9052 6.07957 25.9052 5.22872V0.527344L32.1471 6.76927Z" fill="#73C3FD"/>
</g>
<g id="_x32_2_documents_1_">
<path id="Vector_8" d="M13.4278 12.4609H27.5013C27.7925 12.4609 28.0286 12.2248 28.0286 11.9336C28.0286 11.6424 27.7925 11.4062 27.5013 11.4062H13.4278C13.1366 11.4062 12.9005 11.6424 12.9005 11.9336C12.9005 12.2248 13.1366 12.4609 13.4278 12.4609Z" fill="#171D34"/>
<path id="Vector_9" d="M13.4278 16.3711H27.5013C27.7925 16.3711 28.0286 16.135 28.0286 15.8438C28.0286 15.5525 27.7925 15.3164 27.5013 15.3164H13.4278C13.1366 15.3164 12.9005 15.5525 12.9005 15.8438C12.9005 16.135 13.1366 16.3711 13.4278 16.3711Z" fill="#171D34"/>
<path id="Vector_10" d="M13.4278 20.2773H27.5013C27.7925 20.2773 28.0286 20.0412 28.0286 19.75C28.0286 19.4588 27.7925 19.2227 27.5013 19.2227H13.4278C13.1366 19.2227 12.9005 19.4588 12.9005 19.75C12.9005 20.0412 13.1366 20.2773 13.4278 20.2773Z" fill="#171D34"/>
<path id="Vector_11" d="M32.6735 6.75155C32.6689 6.61936 32.6137 6.49013 32.5199 6.3964L26.278 0.154477C26.1804 0.0568828 26.043 0 25.9051 0H10.3227C9.1823 0 8.2546 0.927773 8.2546 2.06817V2.4653H7.85747C6.79111 2.4653 5.91087 3.27656 5.80104 4.31423H5.39218C4.25178 4.31423 3.32401 5.24201 3.32401 6.38241V24.109C3.32401 24.4002 3.56011 24.6363 3.85135 24.6363C4.14258 24.6363 4.37869 24.4002 4.37869 24.109V6.38234C4.37869 5.82349 4.83333 5.36885 5.39218 5.36885H5.7893V32.0829C5.7893 33.2233 6.71708 34.1511 7.85747 34.1511H21.2727C21.5639 34.1511 21.8 33.915 21.8 33.6237C21.8 33.3325 21.5639 33.0964 21.2727 33.0964H7.85747C7.29863 33.0964 6.84399 32.6417 6.84399 32.0829V4.5334C6.84399 3.97455 7.29863 3.51991 7.85747 3.51991H8.2546V6.39246C8.2546 6.6837 8.49071 6.9198 8.78194 6.9198C9.07318 6.9198 9.30929 6.6837 9.30929 6.39246V2.06817C9.30929 1.50933 9.76393 1.05469 10.3227 1.05469H25.3777V5.22872C25.3777 6.36898 26.3054 7.29661 27.4456 7.29661H31.6197V29.6176C31.6197 30.1764 31.165 30.6311 30.6062 30.6311H10.3227C9.76386 30.6311 9.30929 30.1764 9.30929 29.6176V8.69069C9.30929 8.39946 9.07318 8.16335 8.78194 8.16335C8.49071 8.16335 8.2546 8.39946 8.2546 8.69069V29.6176C8.2546 30.758 9.18237 31.6858 10.3227 31.6858H29.1544V32.0829C29.1544 32.6417 28.6998 33.0964 28.1409 33.0964H23.5708C23.2796 33.0964 23.0435 33.3325 23.0435 33.6237C23.0435 33.915 23.2796 34.1511 23.5708 34.1511H26.6646C26.564 34.6048 26.1592 34.9453 25.6756 34.9453H5.39218C4.83333 34.9453 4.37869 34.4907 4.37869 33.9318V26.4071C4.37869 26.1159 4.14258 25.8798 3.85135 25.8798C3.56011 25.8798 3.32401 26.1159 3.32401 26.4071V33.9318C3.32401 35.0722 4.25178 36 5.39218 36H25.6757C26.7421 36 27.6223 35.1887 27.7321 34.1511H28.141C29.2814 34.1511 30.2092 33.2233 30.2092 32.0829V31.6858H30.6063C31.7467 31.6858 32.6745 30.758 32.6745 29.6176V6.76927C32.6744 6.76336 32.6737 6.75745 32.6735 6.75155ZM27.4457 6.24192C26.887 6.24192 26.4325 5.78742 26.4325 5.22872V1.80042L30.874 6.24192H27.4457Z" fill="#171D34"/>
</g>
</g>
</g>
</svg>
