<svg width="24" height="73" viewBox="0 0 24 73" fill="none" xmlns="http://www.w3.org/2000/svg">
<path d="M4 0V73V68.4C4 62.8772 8.77417 58.5835 13.5225 55.7631C19.7629 52.0565 24 44.8201 24 36.5C24 28.1799 19.7629 20.9435 13.5225 17.2369C8.77418 14.4165 4 10.1229 4 4.6V0Z" fill="#171D34"/>
<path d="M12 45C12.2652 45 12.5196 44.8946 12.7071 44.7071C12.8946 44.5196 13 44.2652 13 44C13 43.7348 12.8946 43.4804 12.7071 43.2929C12.5196 43.1054 12.2652 43 12 43C11.7348 43 11.4804 43.1054 11.2929 43.2929C11.1054 43.4804 11 43.7348 11 44C11 44.2652 11.1054 44.5196 11.2929 44.7071C11.4804 44.8946 11.7348 45 12 45ZM12 38C12.2652 38 12.5196 37.8946 12.7071 37.7071C12.8946 37.5196 13 37.2652 13 37C13 36.7348 12.8946 36.4804 12.7071 36.2929C12.5196 36.1054 12.2652 36 12 36C11.7348 36 11.4804 36.1054 11.2929 36.2929C11.1054 36.4804 11 36.7348 11 37C11 37.2652 11.1054 37.5196 11.2929 37.7071C11.4804 37.8946 11.7348 38 12 38ZM12 31C12.2652 31 12.5196 30.8946 12.7071 30.7071C12.8946 30.5196 13 30.2652 13 30C13 29.7348 12.8946 29.4804 12.7071 29.2929C12.5196 29.1054 12.2652 29 12 29C11.7348 29 11.4804 29.1054 11.2929 29.2929C11.1054 29.4804 11 29.7348 11 30C11 30.2652 11.1054 30.5196 11.2929 30.7071C11.4804 30.8946 11.7348 31 12 31Z" stroke="white" stroke-width="2" stroke-linecap="round" stroke-linejoin="round"/>
</svg>
