<svg width="48" height="48" viewBox="0 0 48 48" fill="none" xmlns="http://www.w3.org/2000/svg">
<path d="M45.8906 36.2721H2.10938C1.33275 36.2721 0.703125 35.6424 0.703125 34.8658V2.29678C0.703125 1.52016 1.33275 0.890531 2.10938 0.890531H45.8906C46.6673 0.890531 47.2969 1.52016 47.2969 2.29678V34.8657C47.2969 35.6424 46.6673 36.2721 45.8906 36.2721Z" fill="#F6BD3D"/>
<path d="M47.2969 2.29678V34.8657C47.2969 35.6424 46.6673 36.2721 45.8906 36.2721L41.8809 36.2719C42.6581 36.2719 43.2872 35.6428 43.2872 34.8656V2.29688C43.2872 1.51969 42.6581 0.890625 41.8809 0.890625L45.8906 0.890531C46.6673 0.890531 47.2969 1.52016 47.2969 2.29678Z" fill="#F6BD3D"/>
<path d="M47.2969 6.79959V2.29678C47.2969 1.52016 46.6673 0.890531 45.8906 0.890531H2.10938C1.33275 0.890531 0.703125 1.52016 0.703125 2.29678V6.79959H47.2969Z" fill="white"/>
<path d="M45.8906 0.890531H14.1955V6.79959H47.2969V2.29678C47.2969 1.52016 46.6673 0.890531 45.8906 0.890531Z" fill="#73C3FD"/>
<path d="M47.2969 2.29678V6.79959L43.2872 6.79969V2.29688C43.2872 1.51969 42.6581 0.890625 41.8809 0.890625L45.8906 0.890531C46.6673 0.890531 47.2969 1.52016 47.2969 2.29678Z" fill="#73C3FD"/>
<path d="M44.6784 44.9378L42.5053 47.111L35.5106 40.1163L37.6837 37.9441L44.6784 44.9378Z" fill="#73C3FD"/>
<path d="M39.878 44.4923L42.0507 42.3195L44.0515 44.3203L41.8787 46.4931L39.878 44.4923Z" fill="#73C3FD"/>
<path d="M39.4424 39.7033C39.2257 40.1655 38.9268 40.5979 38.5458 40.979C38.1688 41.3549 37.7395 41.6569 37.2722 41.8777L35.5106 40.1163L37.6837 37.9441L39.4424 39.7033Z" fill="#73C3FD"/>
<path d="M43.2355 42.7619L40.2612 45.7362C39.9416 46.0558 39.4236 46.0558 39.104 45.7362L38.0248 44.6571C37.7052 44.3375 37.7052 43.8194 38.0248 43.4998L40.9991 40.5255C41.3187 40.2059 41.8368 40.2059 42.1564 40.5255L43.2355 41.6047C43.555 41.9243 43.555 42.4424 43.2355 42.7619Z" fill="#307FF4"/>
<path d="M42.1564 40.5255L43.2355 41.6047C43.555 41.9243 43.555 42.4424 43.2355 42.7619L41.6619 44.336C41.9813 44.0166 41.9813 43.4981 41.6619 43.1787L40.5828 42.0996C40.2628 41.7796 39.7449 41.7802 39.4255 42.0996L40.9991 40.5255C41.3187 40.2059 41.8368 40.2059 42.1564 40.5255Z" fill="#307FF4"/>
<path d="M29.2859 43.0632C35.5512 43.0632 40.6303 37.9842 40.6303 31.7188C40.6303 25.4535 35.5512 20.3744 29.2859 20.3744C23.0206 20.3744 17.9415 25.4535 17.9415 31.7188C17.9415 37.9842 23.0206 43.0632 29.2859 43.0632Z" fill="#73C3FD"/>
<path d="M40.6303 31.7188C40.6303 37.9842 35.5512 43.0632 29.2859 43.0632C28.6522 43.0632 28.03 43.0109 27.4252 42.9113C32.805 42.0229 36.9082 37.3507 36.9082 31.7192C36.9082 26.0867 32.805 21.4146 27.4252 20.5261C28.0301 20.4264 28.6522 20.3744 29.2859 20.3744C35.5512 20.3744 40.6303 25.4535 40.6303 31.7188Z" fill="#73C3FD"/>
<path d="M29.2181 39.7204C33.6373 39.7204 37.2197 36.138 37.2197 31.7188C37.2197 27.2997 33.6373 23.7173 29.2181 23.7173C24.799 23.7173 21.2166 27.2997 21.2166 31.7188C21.2166 36.138 24.799 39.7204 29.2181 39.7204Z" fill="#FFD496"/>
<path d="M37.2197 31.7188C37.2197 36.138 33.6373 39.7204 29.2181 39.7204C28.6306 39.7204 28.0578 39.6565 27.5062 39.5363C31.102 38.7527 33.795 35.5503 33.795 31.7193C33.795 27.8872 31.102 24.6848 27.5062 23.9012C28.0578 23.781 28.6306 23.7173 29.2181 23.7173C33.6373 23.7173 37.2197 27.2997 37.2197 31.7188Z" fill="#F6BD3D"/>
<path d="M4.96688 4.54819H4.97662C5.36494 4.54819 5.67975 4.23347 5.67975 3.84506C5.67975 3.45666 5.36494 3.14194 4.97662 3.14194H4.96688C4.57856 3.14194 4.26375 3.45666 4.26375 3.84506C4.26375 4.23347 4.57856 4.54819 4.96688 4.54819Z" fill="#171D34"/>
<path d="M7.41347 4.54819H7.42322C7.81153 4.54819 8.12634 4.23347 8.12634 3.84506C8.12634 3.45666 7.81153 3.14194 7.42322 3.14194H7.41347C7.02516 3.14194 6.71034 3.45666 6.71034 3.84506C6.71034 4.23347 7.02516 4.54819 7.41347 4.54819Z" fill="#171D34"/>
<path d="M9.86006 4.54819H9.86981C10.2581 4.54819 10.5729 4.23347 10.5729 3.84506C10.5729 3.45666 10.2581 3.14194 9.86981 3.14194H9.86006C9.47175 3.14194 9.15694 3.45666 9.15694 3.84506C9.15694 4.23347 9.47175 4.54819 9.86006 4.54819Z" fill="#171D34"/>
<path d="M45.8906 0.1875H2.10938C0.946219 0.1875 0 1.13372 0 2.29687V34.8658C0 36.0289 0.946219 36.9752 2.10938 36.9752H6.18881C6.57713 36.9752 6.89194 36.6605 6.89194 36.2721C6.89194 35.8837 6.57713 35.5689 6.18881 35.5689H2.10938C1.72162 35.5689 1.40625 35.2536 1.40625 34.8658V7.50291H34.3893C34.7777 7.50291 35.0924 7.18819 35.0924 6.79978C35.0924 6.41137 34.7777 6.09666 34.3893 6.09666H14.8987V1.59375H45.8906C46.2784 1.59375 46.5938 1.90912 46.5938 2.29687V6.09666H37.8606C37.4722 6.09666 37.1574 6.41137 37.1574 6.79978C37.1574 7.18819 37.4722 7.50291 37.8606 7.50291H46.5938V34.8658C46.5938 35.2536 46.2784 35.5689 45.8906 35.5689H40.7033C40.9314 34.8931 41.1 34.1949 41.2046 33.4821C41.261 33.0978 40.9953 32.7407 40.611 32.6842C40.2274 32.6282 39.8697 32.8934 39.8132 33.2779C39.0534 38.4556 34.5277 42.3601 29.2859 42.3601C23.4183 42.3601 18.6445 37.5864 18.6445 31.7188C18.6445 25.8511 23.4182 21.0774 29.2858 21.0774C34.5423 21.0774 38.9607 24.8383 39.7917 30.0201C39.8532 30.4035 40.2136 30.6644 40.5973 30.603C40.9808 30.5415 41.2418 30.1808 41.1803 29.7974C40.7318 27.0008 39.2961 24.4383 37.1378 22.5817C34.9561 20.7048 32.1674 19.6712 29.2858 19.6712C24.0843 19.6712 19.6424 22.9849 17.9595 27.6119H5.81466C5.42634 27.6119 5.11153 27.9266 5.11153 28.315C5.11153 28.7034 5.42634 29.0182 5.81466 29.0182H17.5437C17.4438 29.453 17.3681 29.897 17.3167 30.3482H5.81466C5.42634 30.3482 5.11153 30.6629 5.11153 31.0513C5.11153 31.4397 5.42634 31.7544 5.81466 31.7544H17.2388C17.2428 33.0874 17.4639 34.3702 17.8692 35.5689H9.66C9.27169 35.5689 8.95687 35.8837 8.95687 36.2721C8.95687 36.6605 9.27169 36.9752 9.66 36.9752H18.447C20.4027 40.9917 24.5262 43.7663 29.2859 43.7663C31.7194 43.7663 34.0823 43.0304 36.0726 41.6727L37.4681 43.0683C36.9368 43.665 36.9555 44.5822 37.5276 45.1543L38.6067 46.2335C38.9033 46.53 39.2928 46.6782 39.6825 46.6782C40.0444 46.6782 40.4053 46.5487 40.6927 46.2928L42.0083 47.6075C42.1455 47.7447 42.3254 47.8132 42.5053 47.8132C42.6853 47.8132 42.8653 47.7446 43.0027 47.6072C43.2773 47.3325 43.2771 46.8873 43.0024 46.6129L41.6903 45.3016L42.8685 44.1234L44.1803 45.4352C44.3176 45.5724 44.4976 45.6411 44.6775 45.6411C44.8574 45.6411 45.0374 45.5724 45.1748 45.4352C45.4493 45.1605 45.4493 44.7154 45.1748 44.4408L43.8544 43.1204C44.0638 42.8538 44.1785 42.5276 44.1785 42.1834C44.1785 41.7769 44.0202 41.3948 43.7329 41.1076L42.6536 40.0282C42.1045 39.4793 41.2373 39.4396 40.6408 39.9067L39.2393 38.5054C39.5725 38.0172 39.8693 37.5058 40.127 36.9751H45.8907C47.0538 36.9751 48.0001 36.0288 48.0001 34.8657V2.29687C48 1.13372 47.0537 0.1875 45.8906 0.1875ZM13.4924 6.09666H1.40625V2.29687C1.40625 1.90912 1.72162 1.59375 2.10938 1.59375H13.4924V6.09666ZM41.5778 40.989C41.6072 40.989 41.6367 41.0002 41.6591 41.0226L42.7384 42.1019C42.7662 42.1297 42.772 42.1615 42.772 42.1833C42.772 42.2049 42.7661 42.2368 42.7383 42.2647L39.7641 45.239C39.7192 45.2839 39.6461 45.2839 39.6011 45.239L38.522 44.1599C38.4771 44.115 38.4771 44.0418 38.522 43.997L41.4962 41.0227C41.5187 41.0003 41.5482 40.989 41.5778 40.989ZM39.6377 40.8924L38.4594 42.0708L37.1951 40.8066C37.1949 40.8067 37.1953 40.8064 37.1951 40.8066C37.6163 40.4395 38.0098 40.0449 38.3729 39.6277L39.6377 40.8924Z" fill="#171D34"/>
<path d="M29.2181 23.0141C26.893 23.0141 24.7071 23.9196 23.063 25.5637C21.4189 27.2077 20.5134 29.3937 20.5134 31.7188C20.5134 36.5185 24.4183 40.4235 29.2181 40.4235C34.0179 40.4235 37.9229 36.5186 37.9229 31.7187C37.9229 26.919 34.0179 23.0141 29.2181 23.0141ZM29.2181 39.0173C25.7652 39.0173 22.8668 36.6063 22.1127 33.38H27.4854C27.8738 33.38 28.1886 33.0652 28.1886 32.6768C28.1886 32.2884 27.8738 31.9737 27.4854 31.9737H21.9263C21.9233 31.889 21.9198 31.8043 21.9198 31.7188C21.9198 31.1456 21.9872 30.583 22.1149 30.0385H27.2932C27.6817 30.0385 27.9964 29.7238 27.9964 29.3354C27.9964 28.947 27.6817 28.6323 27.2932 28.6323H22.6011C22.9567 27.8711 23.4457 27.1697 24.0574 26.558C25.4359 25.1795 27.2686 24.4203 29.2181 24.4203C33.2425 24.4203 36.5167 27.6943 36.5167 31.7187C36.5167 35.7431 33.2425 39.0173 29.2181 39.0173Z" fill="#171D34"/>
<path d="M4.70859 14.6774C4.32028 14.6774 4.00547 14.9921 4.00547 15.3805V15.9834C4.00547 17.5435 5.27466 18.8127 6.83475 18.8127C8.39484 18.8127 9.66403 17.5435 9.66403 15.9834V10.9009C9.66403 10.5125 9.34922 10.1978 8.96091 10.1978H5.85103C5.46272 10.1978 5.14791 10.5125 5.14791 10.9009C5.14791 11.2893 5.46272 11.604 5.85103 11.604H8.25778V15.9834C8.25778 16.768 7.61944 17.4065 6.83475 17.4065C6.05006 17.4065 5.41172 16.768 5.41172 15.9834V15.3805C5.41172 14.9922 5.09691 14.6774 4.70859 14.6774Z" fill="#171D34"/>
<path d="M16.4848 15.9834V13.027C16.4848 11.4669 15.2156 10.1978 13.6555 10.1978C12.0955 10.1978 10.8263 11.4669 10.8263 13.027V15.9834C10.8263 17.5435 12.0955 18.8127 13.6555 18.8127C15.2156 18.8127 16.4848 17.5434 16.4848 15.9834ZM12.2326 15.9834V13.027C12.2326 12.2424 12.8709 11.604 13.6555 11.604C14.4402 11.604 15.0786 12.2424 15.0786 13.027V15.9834C15.0786 16.768 14.4402 17.4065 13.6555 17.4065C12.8709 17.4065 12.2326 16.768 12.2326 15.9834Z" fill="#171D34"/>
<path d="M17.7207 18.1096C17.7207 18.498 18.0355 18.8127 18.4238 18.8127H21.0052C22.3143 18.8127 23.3792 17.7478 23.3792 16.4388V15.9134C23.3792 15.1193 22.9869 14.4157 22.3864 13.9844C22.6798 13.5893 22.8538 13.1005 22.8538 12.5717C22.8538 11.2627 21.7889 10.1978 20.4799 10.1978H18.4238C18.0355 10.1978 17.7207 10.5125 17.7207 10.9009V18.1096ZM21.9729 16.4387C21.9729 16.9722 21.5389 17.4064 21.0052 17.4064H19.127V14.9456H21.0052C21.5389 14.9456 21.9729 15.3798 21.9729 15.9133V16.4387ZM20.4799 11.604C21.0134 11.604 21.4476 12.0382 21.4476 12.5717C21.4476 13.1052 21.0135 13.5394 20.4799 13.5394H19.127V11.6039L20.4799 11.604Z" fill="#171D34"/>
<path d="M39.3277 10.7832C38.5483 11.5627 38.5483 12.8309 39.3278 13.6103C39.7174 14 40.2292 14.1948 40.7412 14.1948C41.023 14.1948 41.304 14.1335 41.5655 14.0154L42.3957 14.8457C42.5331 14.9829 42.7131 15.0516 42.893 15.0516C43.0729 15.0516 43.2529 14.9829 43.3902 14.8457C43.6648 14.571 43.6648 14.1259 43.3902 13.8513L42.5601 13.0211C42.8927 12.2848 42.7591 11.3876 42.1549 10.7834C41.3753 10.0041 40.1072 10.004 39.3277 10.7832ZM40.3222 12.6159C40.091 12.3848 40.091 12.0087 40.3222 11.7777C40.4377 11.6621 40.5895 11.6043 40.7413 11.6043C40.8931 11.6043 41.0449 11.662 41.1605 11.7776C41.3916 12.0088 41.3916 12.3849 41.1606 12.6159C40.9292 12.847 40.5532 12.847 40.3222 12.6159Z" fill="#171D34"/>
<path d="M26.5128 16.7236C26.5128 17.112 26.8275 17.4267 27.2159 17.4267H43.2914C43.6798 17.4267 43.9945 17.112 43.9945 16.7236C43.9945 16.3352 43.6798 16.0205 43.2914 16.0205H27.2159C26.8275 16.0205 26.5128 16.3353 26.5128 16.7236Z" fill="#171D34"/>
<path d="M5.11153 25.5788C5.11153 25.9672 5.42634 26.2819 5.81466 26.2819H12.7526C13.1409 26.2819 13.4558 25.9672 13.4558 25.5788C13.4558 25.1903 13.1409 24.8756 12.7526 24.8756H5.81466C5.42634 24.8756 5.11153 25.1904 5.11153 25.5788Z" fill="#171D34"/>
<path d="M43.2865 19.1174C42.8981 19.1174 42.5834 19.4321 42.5834 19.8205C42.5834 20.2089 42.8981 20.5237 43.2865 20.5237H43.2963C43.6847 20.5237 43.9994 20.2089 43.9994 19.8205C43.9994 19.4321 43.6847 19.1174 43.2963 19.1174H43.2865Z" fill="#171D34"/>
</svg>
