<svg width="48" height="48" viewBox="0 0 48 48" fill="none" xmlns="http://www.w3.org/2000/svg">
<g clip-path="url(#clip0_1807_55186)">
<path d="M4.31249 1.21875H27.2812C29.1451 1.21875 30.6562 2.72981 30.6562 4.59374C30.6562 6.45768 29.1451 7.96874 27.2812 7.96874H4.31249C2.44856 7.96874 0.9375 6.45768 0.9375 4.59374C0.9375 2.72981 2.44856 1.21875 4.31249 1.21875Z" fill="#F6BD3D"/>
<path d="M9.32836 14.7188H32.2971C34.161 14.7188 35.6721 16.2298 35.6721 18.0937C35.6721 19.9577 34.161 21.4687 32.2971 21.4687H9.32836C7.46443 21.4687 5.95337 19.9577 5.95337 18.0937C5.95337 16.2298 7.46434 14.7188 9.32836 14.7188Z" fill="#F6BD3D"/>
<path d="M9.32836 21.4688H32.2971C34.161 21.4688 35.6721 22.9798 35.6721 24.8437C35.6721 26.7077 34.161 28.2187 32.2971 28.2187H9.32836C7.46443 28.2187 5.95337 26.7077 5.95337 24.8437C5.95337 22.9798 7.46434 21.4688 9.32836 21.4688Z" fill="#FCDA63"/>
<path d="M9.32836 28.2188H32.2971C34.161 28.2188 35.6721 29.7298 35.6721 31.5937C35.6721 33.4577 34.161 34.9687 32.2971 34.9687H9.32836C7.46443 34.9687 5.95337 33.4577 5.95337 31.5937C5.95337 29.7298 7.46434 28.2188 9.32836 28.2188Z" fill="#F6BD3D"/>
<path d="M9.32836 34.9688H32.2971C34.161 34.9688 35.6721 36.4798 35.6721 38.3437C35.6721 40.2077 34.161 41.7187 32.2971 41.7187H9.32836C7.46443 41.7187 5.95337 40.2077 5.95337 38.3437C5.95337 36.4798 7.46434 34.9688 9.32836 34.9688Z" fill="#FCDA63"/>
<path d="M15.3749 7.96875H38.3436C40.2076 7.96875 41.7186 9.47981 41.7186 11.3437C41.7186 13.2077 40.2076 14.7187 38.3436 14.7187H15.3749C13.511 14.7187 11.9999 13.2077 11.9999 11.3437C11.9999 9.47981 13.511 7.96875 15.3749 7.96875Z" fill="#FCDA63"/>
<path d="M32.0624 46.7812C40.3467 46.7812 47.0624 40.0655 47.0624 31.7812C47.0624 23.497 40.3467 16.7812 32.0624 16.7812C23.7782 16.7812 17.0624 23.497 17.0624 31.7812C17.0624 40.0655 23.7782 46.7812 32.0624 46.7812Z" fill="#F6BD3D"/>
<path d="M32.0624 43.0312C38.2756 43.0312 43.3124 37.9944 43.3124 31.7812C43.3124 25.568 38.2756 20.5312 32.0624 20.5312C25.8492 20.5312 20.8124 25.568 20.8124 31.7812C20.8124 37.9944 25.8492 43.0312 32.0624 43.0312Z" fill="#FEDA9B"/>
<path d="M32.0581 27.214C33.1954 27.214 34.1206 28.0148 34.1206 28.9991C34.1206 29.5168 34.5404 29.9366 35.0581 29.9366C35.5758 29.9366 35.9956 29.5168 35.9956 28.9991C35.9956 27.2812 34.7155 25.8367 32.9956 25.4446V24.957C32.9956 24.4393 32.5758 24.0195 32.0581 24.0195C31.5404 24.0195 31.1206 24.4393 31.1206 24.957V25.4446C29.4007 25.8367 28.1206 27.2812 28.1206 28.9991C28.1206 31.0173 29.8869 32.6592 32.0581 32.6592C33.1954 32.6592 34.1206 33.46 34.1206 34.4444C34.1206 35.4288 33.1954 36.2296 32.0581 36.2296C30.9208 36.2296 29.9956 35.4288 29.9956 34.4444C29.9956 33.9267 29.5758 33.5069 29.0581 33.5069C28.5404 33.5069 28.1206 33.9267 28.1206 34.4444C28.1206 36.1624 29.4007 37.6069 31.1206 37.9989V38.4039C31.1206 38.9216 31.5404 39.3414 32.0581 39.3414C32.5758 39.3414 32.9956 38.9216 32.9956 38.4039V37.9989C34.7155 37.6069 35.9956 36.1624 35.9956 34.4444C35.9956 32.4262 34.2292 30.7842 32.0581 30.7842C30.9208 30.7842 29.9956 29.9834 29.9956 28.9991C29.9956 28.0148 30.9208 27.214 32.0581 27.214Z" fill="#171D34"/>
<path d="M42.3263 25.2078C41.1017 23.2995 39.3763 21.7725 37.3368 20.7921C36.87 20.5676 36.3098 20.7641 36.0856 21.2308C35.8612 21.6975 36.0577 22.2575 36.5243 22.4819C40.0785 24.1904 42.3749 27.8409 42.3749 31.782C42.3749 33.4683 41.9592 35.1407 41.1729 36.6186C40.9297 37.0756 41.1031 37.6434 41.5602 37.8866C41.7005 37.9612 41.8512 37.9966 41.9997 37.9966C42.3351 37.9966 42.6596 37.8161 42.8282 37.4993C43.7583 35.7514 44.2499 33.7743 44.2499 31.782C44.2499 29.442 43.5847 27.1686 42.3263 25.2078Z" fill="#171D34"/>
<path d="M33.4687 21.4687L33.523 21.4688C33.5245 21.4688 33.5259 21.4688 33.5275 21.4688C34.0432 21.4688 34.4624 21.052 34.4649 20.5357C34.4672 20.018 34.0495 19.5963 33.5318 19.5938L33.4687 19.5938C32.951 19.5938 32.5312 20.0135 32.5312 20.5312C32.5312 21.049 32.951 21.4687 33.4687 21.4687Z" fill="#171D34"/>
<path d="M27.6006 41.0811C24.0465 39.3725 21.7501 35.722 21.7501 31.7811C21.7501 30.0947 22.1658 28.4223 22.9521 26.9444C23.1953 26.4874 23.0219 25.9196 22.5648 25.6765C22.1079 25.4333 21.5399 25.6066 21.2968 26.0637C20.3667 27.8117 19.8751 29.7887 19.8751 31.7811C19.8751 34.1211 20.5403 36.3943 21.7987 38.3553C23.0233 40.2635 24.7487 41.7905 26.7882 42.7711C26.9192 42.8341 27.0576 42.8638 27.1938 42.8638C27.5429 42.8638 27.878 42.6679 28.0394 42.3323C28.2636 41.8656 28.0673 41.3055 27.6006 41.0811Z" fill="#171D34"/>
<path d="M30.6564 42.0939L30.6021 42.0938C30.0819 42.0928 29.6627 42.509 29.6603 43.0268C29.6579 43.5446 30.0759 43.9663 30.5935 43.9687L30.6564 43.9689C31.174 43.9689 31.5938 43.5491 31.5938 43.0314C31.5938 42.5138 31.174 42.0939 30.6564 42.0939Z" fill="#171D34"/>
<path d="M36.3195 16.422C36.2054 16.1501 36.0657 15.8939 35.903 15.6562H38.3437C40.7215 15.6562 42.6562 13.7216 42.6562 11.3437C42.6562 8.96586 40.7215 7.03124 38.3437 7.03124H30.8362C31.3135 6.3373 31.5937 5.49777 31.5937 4.59374C31.5937 2.21587 29.6591 0.28125 27.2812 0.28125H4.31249C1.93462 0.28125 0 2.21587 0 4.59374C0 6.97161 1.93462 8.90623 4.31249 8.90623H11.82C11.3427 9.60017 11.0625 10.4397 11.0625 11.3437C11.0625 12.2478 11.3426 13.0873 11.82 13.7812H9.37498C6.99711 13.7812 5.06249 15.7158 5.06249 18.0937C5.06249 19.4594 5.7013 20.678 6.69514 21.4687C5.7013 22.2594 5.06249 23.4781 5.06249 24.8437C5.06249 26.2094 5.7013 27.428 6.69514 28.2187C5.7013 29.0094 5.06249 30.228 5.06249 31.5937C5.06249 32.9593 5.7013 34.178 6.69514 34.9687C5.7013 35.7594 5.06249 36.978 5.06249 38.3437C5.06249 40.7215 6.99711 42.6562 9.37498 42.6562H20.4234C23.334 45.7693 27.4745 47.7188 32.0625 47.7188C40.8505 47.7188 48 40.5692 48 31.7813C48 24.4672 43.0472 18.289 36.3195 16.422ZM1.875 4.59374C1.875 3.24974 2.9684 2.15625 4.31249 2.15625H27.2812C28.6253 2.15625 29.7187 3.24974 29.7187 4.59374C29.7187 5.93774 28.6253 7.03124 27.2812 7.03124H4.31249C2.9684 7.03124 1.875 5.93774 1.875 4.59374ZM12.9375 11.3437C12.9375 9.99973 14.0309 8.90623 15.375 8.90623H38.3437C39.6878 8.90623 40.7812 9.99973 40.7812 11.3437C40.7812 12.6877 39.6878 13.7812 38.3437 13.7812H32.3437H15.375C14.0309 13.7812 12.9375 12.6877 12.9375 11.3437ZM6.93749 18.0937C6.93749 16.7497 8.03098 15.6562 9.37498 15.6562H32.3437C32.7213 15.6562 33.0829 15.744 33.4073 15.9011C32.9638 15.8639 32.5155 15.8438 32.0625 15.8438C27.6614 15.8438 23.6715 17.6372 20.7845 20.5312H9.37498C8.03098 20.5312 6.93749 19.4377 6.93749 18.0937ZM6.93749 24.8437C6.93749 23.4997 8.03089 22.4062 9.37498 22.4062H19.1826C18.1184 23.8643 17.2955 25.5089 16.773 27.2812H9.37498C8.03089 27.2812 6.93749 26.1878 6.93749 24.8437ZM6.93749 31.5937C6.93749 30.2496 8.03089 29.1562 9.37498 29.1562H16.3425C16.2003 30.0105 16.1251 30.8872 16.1251 31.7813C16.1251 32.545 16.1803 33.2959 16.2846 34.0312H9.37498C8.03089 34.0312 6.93749 32.9378 6.93749 31.5937ZM9.37498 40.7812C8.03089 40.7812 6.93749 39.6878 6.93749 38.3437C6.93749 36.9996 8.03089 35.9062 9.37498 35.9062H16.6674C17.1405 37.6699 17.9089 39.3136 18.9167 40.7812H9.37498ZM32.0625 45.8438C24.3085 45.8438 18.0001 39.5353 18.0001 31.7813C18.0001 24.0272 24.3085 17.7188 32.0625 17.7188C39.8166 17.7188 46.125 24.0272 46.125 31.7813C46.125 39.5353 39.8166 45.8438 32.0625 45.8438Z" fill="#171D34"/>
</g>
<defs>
<clipPath id="clip0_1807_55186">
<rect width="48" height="48" fill="white"/>
</clipPath>
</defs>
</svg>
