<svg width="80" height="80" viewBox="0 0 80 80" fill="none" xmlns="http://www.w3.org/2000/svg">
<g id="Capa_1" clip-path="url(#clip0_998_205688)">
<path id="Vector" d="M4.19122 67.212C4.19122 67.212 2.90842 76.5603 10.455 78.7912H32.3553C39.9019 76.5602 38.6191 67.212 38.6191 67.212L21.7281 61.5273L4.19122 67.212Z" fill="#FCD0A3"/>
<path id="Vector_2" d="M24.0799 61.5249H18.7304C16.3345 61.5249 14.3923 59.5827 14.3923 57.1868V50.6914H28.4181V57.1868C28.4181 59.5827 26.4759 61.5249 24.0799 61.5249Z" fill="#FCD0A3"/>
<path id="Vector_3" d="M37.9502 42.49H37.9734C39.9629 42.49 41.5751 40.8765 41.5751 38.8882C41.5751 36.8986 39.9629 35.2852 37.9734 35.2852C37.9474 35.2852 37.9216 35.2852 37.8957 35.2866H4.91456C4.88862 35.2852 4.86283 35.2852 4.83689 35.2852C2.84731 35.2852 1.23511 36.8986 1.23511 38.8882C1.23511 40.8764 2.84731 42.49 4.83689 42.49H4.86002" fill="#FCD0A3"/>
<path id="Vector_4" d="M28.4182 54.1914C28.4182 54.1914 38.6189 55.474 38.6189 60.3627C38.6189 65.2513 38.6189 67.2084 38.6189 67.2084H32.3551V78.7878H10.455V67.2086H4.19122C4.19122 67.2086 4.19122 65.2515 4.19122 60.3628C4.19122 55.4742 14.3921 54.1914 14.3921 54.1914" fill="#73C3FD"/>
<path id="Vector_5" d="M28.4175 56.6523V57.1901C28.4175 59.5862 26.4762 61.5277 24.0799 61.5277H21.729C19.3344 61.5277 17.3914 59.5862 17.3914 57.1901V56.7539C21.0663 56.8461 24.7428 56.8117 28.4175 56.6523Z" fill="#FCD0A3"/>
<path id="Vector_6" d="M28.418 50.6914V56.65L28.4164 56.6484C24.7415 56.8078 21.0652 56.8422 17.3902 56.75V57.1862C17.3902 59.5823 19.3333 61.5238 21.7279 61.5238H18.7299C16.3353 61.5238 14.3923 59.5823 14.3923 57.1862V50.6914H28.418Z" fill="#FCD0A3"/>
<path id="Vector_7" d="M37.1219 25.879C26.6442 24.8633 16.1664 24.8633 5.68873 25.879C4.87568 32.3936 4.63612 38.9083 4.97022 45.4229C5.21337 50.1653 9.00814 53.9401 13.7515 54.164C18.8539 54.405 23.9564 54.405 29.0589 54.164C33.8022 53.9401 37.5969 50.1653 37.8401 45.4229C38.1743 38.9083 37.9349 32.3936 37.1219 25.879Z" fill="#FCD0A3"/>
<path id="Vector_8" d="M37.8074 32.3667C34.4624 35.7133 27.838 29.0216 27.838 29.0216C28.0255 30.233 27.6848 31.4131 26.3717 32.351C25.4416 33.0153 24.3896 33.3077 23.3003 33.3514C18.9345 33.5265 13.9857 29.6875 13.9857 29.6875C13.1041 32.1118 10.5032 32.0633 8.34762 31.5319C6.36398 31.0426 4.68833 29.7297 3.73182 27.9243C2.08743 24.8215 -0.141554 19.5726 2.13119 17.2999C5.4606 13.9705 9.59025 17.2999 9.59025 17.2999C9.59025 17.2999 13.6011 15.7946 18.7203 14.7285C18.7218 14.7285 18.725 14.727 18.7265 14.727C24.8523 13.4515 32.5631 12.8013 36.8944 16.1024C41.365 19.5101 41.154 29.0216 37.8074 32.3667Z" fill="#171D34"/>
<path id="Vector_9" d="M70.4326 45.4258C77.6058 45.4258 77.8096 54.4189 78.828 57.2706C78.828 57.2706 71.1172 55.9324 68.7088 50.3377" fill="#F6BD3D"/>
<path id="Vector_10" d="M36.7833 67.212C36.7833 67.212 35.5005 76.5603 43.047 78.7912H64.9473C72.4939 76.5602 71.2111 67.212 71.2111 67.212L54.3201 61.5273L36.7833 67.212Z" fill="#FCD0A3"/>
<path id="Vector_11" d="M56.6719 61.5249H51.3224C48.9265 61.5249 46.9843 59.5827 46.9843 57.1868V50.6914H61.0102V57.1868C61.0102 59.5827 59.0679 61.5249 56.6719 61.5249Z" fill="#FCD0A3"/>
<path id="Vector_12" d="M70.5423 42.49H70.5654C72.555 42.49 74.1672 40.8765 74.1672 38.8882C74.1672 36.8986 72.555 35.2852 70.5654 35.2852C70.5395 35.2852 70.5137 35.2852 70.4877 35.2866H37.5066C37.4807 35.2852 37.4549 35.2852 37.4289 35.2852C35.4394 35.2852 33.8271 36.8986 33.8271 38.8882C33.8271 40.8764 35.4394 42.49 37.4289 42.49H37.4521" fill="#FCD0A3"/>
<path id="Vector_13" d="M71.2116 60.3663V67.2123H64.9469V78.7917H43.0477V67.2123H36.783C36.783 67.2123 36.783 65.2559 36.783 60.3663C36.783 55.4783 46.984 54.1953 46.984 54.1953H61.0105C61.0105 54.1953 71.2116 55.4783 71.2116 60.3663Z" fill="#73C3FD"/>
<path id="Vector_14" d="M47.8904 78.7917H43.0477V67.2123H36.783C36.783 67.2123 36.783 65.2559 36.783 60.3663C36.783 55.4783 46.984 54.1953 46.984 54.1953H49.3327L49.4452 54.2828C46.984 54.2828 43.6149 62.3055 47.8904 78.7917Z" fill="#046B74"/>
<path id="Vector_15" d="M61.0096 56.6523V57.1901C61.0096 59.5862 59.0683 61.5277 56.6719 61.5277H54.321C51.9264 61.5277 49.9834 59.5864 49.9834 57.1901V56.7539C53.6583 56.8463 57.3348 56.8119 61.0096 56.6523Z" fill="#FCD0A3"/>
<path id="Vector_16" d="M61.01 50.6953V56.6539L61.0084 56.6523C57.3335 56.8117 53.6572 56.8461 49.9823 56.7539V57.1901C49.9823 59.5863 51.9253 61.5277 54.3199 61.5277H51.322C48.9273 61.5277 46.9843 59.5863 46.9843 57.1901V50.6953H61.01Z" fill="#FCD0A3"/>
<path id="Vector_17" d="M69.7137 25.879C59.2361 24.8633 48.7583 24.8633 38.2806 25.879C37.4675 32.3936 37.228 38.9083 37.5621 45.4229C37.8052 50.1653 41.6002 53.9399 46.3433 54.164C51.4457 54.405 56.5483 54.405 61.6507 54.164C66.394 53.9401 70.1888 50.1653 70.4319 45.4229C70.7664 38.9083 70.527 32.3937 69.7137 25.879Z" fill="#FCD0A3"/>
<path id="Vector_18" d="M70.3779 33.0383C70.3779 33.0383 58.4421 32.4834 53.9982 25.1166C52.1116 28.2475 48.8712 30.1466 45.7684 31.2955C41.5667 32.8555 37.6183 33.0383 37.6183 33.0383C37.6183 33.0383 31.9771 14.6953 53.998 14.6953C76.0189 14.6953 70.3779 33.0383 70.3779 33.0383Z" fill="#F6BD3D"/>
<g id="Group">
<path id="Vector_19" d="M43.4177 44.1797C45.063 44.1797 46.3968 43.5641 46.3968 42.8047C46.3968 42.0453 45.063 41.4297 43.4177 41.4297C41.7724 41.4297 40.4387 42.0453 40.4387 42.8047C40.4387 43.5641 41.7724 44.1797 43.4177 44.1797Z" fill="#EC6161"/>
<path id="Vector_20" d="M64.5768 44.1797C66.2221 44.1797 67.5559 43.5641 67.5559 42.8047C67.5559 42.0453 66.2221 41.4297 64.5768 41.4297C62.9316 41.4297 61.5978 42.0453 61.5978 42.8047C61.5978 43.5641 62.9316 44.1797 64.5768 44.1797Z" fill="#EC6161"/>
<path id="Vector_21" d="M38.6364 22.3109C25.8096 15.6663 24.0908 4.44887 29.9585 1.7578C35.7621 -0.903259 38.6364 7.01195 38.6364 7.01195C38.6364 7.01195 41.5102 -0.903103 47.3136 1.7578C47.6266 1.90094 47.9176 2.06924 48.1863 2.25895C48.1871 2.25973 48.1887 2.26051 48.1903 2.26129C48.2298 2.28895 48.2678 2.31739 48.3057 2.34505C52.9298 5.80635 50.6766 16.0734 38.6364 22.3109Z" fill="#307FF4"/>
</g>
<path id="Vector_22" d="M51.292 69.4833H51.3101C52.8719 69.4833 54.1371 68.2169 54.1371 66.6562C54.1371 65.0945 52.8717 63.8281 51.3101 63.8281C51.2898 63.8281 51.2695 63.8281 51.2492 63.8292H22.2366C22.2163 63.8281 22.196 63.8281 22.1756 63.8281C20.6139 63.8281 19.3486 65.0945 19.3486 66.6562C19.3486 68.2169 20.6141 69.4833 22.1756 69.4833H22.1938" fill="#FCD0A3"/>
<path id="Vector_23" d="M49.0791 56.4456C40.8549 55.6483 32.6309 55.6483 24.4068 56.4456C23.7686 61.5591 23.5806 66.6725 23.8428 71.7858C24.0338 75.5081 27.0124 78.4709 30.7354 78.6467C34.7404 78.8358 38.7455 78.8358 42.7504 78.6467C46.4735 78.4709 49.4521 75.5081 49.643 71.7858C49.9053 66.6725 49.7173 61.5591 49.0791 56.4456Z" fill="#FCD0A3"/>
<path id="Vector_24" d="M49.6002 62.0656C49.6002 62.0656 40.2316 61.6301 36.7436 55.8477C35.2626 58.3052 32.7194 59.7958 30.284 60.6976C26.9861 61.9221 23.8869 62.0656 23.8869 62.0656C23.8869 62.0656 19.4591 47.668 36.7436 47.668C54.028 47.668 49.6002 62.0656 49.6002 62.0656Z" fill="#F6BD3D"/>
<path id="Vector_25" d="M21.4052 46.9913C23.2882 46.9913 25.0267 45.8918 25.8341 44.1903C26.1117 43.6056 25.8626 42.9066 25.2777 42.6291C24.6928 42.3517 23.9939 42.6007 23.7164 43.1856C23.295 44.0736 22.3878 44.6473 21.4052 44.6473C20.4226 44.6473 19.5153 44.0735 19.0939 43.1854C18.8165 42.6006 18.1177 42.3516 17.5326 42.6291C16.9479 42.9066 16.6988 43.6056 16.9763 44.1903C17.7839 45.8919 19.5224 46.9913 21.4052 46.9913Z" fill="#171D34"/>
<path id="Vector_26" d="M13.736 39.86C14.5667 39.86 15.2401 38.8586 15.2401 37.6234C15.2401 36.3881 14.5667 35.3867 13.736 35.3867C12.9053 35.3867 12.2319 36.3881 12.2319 37.6234C12.2319 38.8586 12.9053 39.86 13.736 39.86Z" fill="#171D34"/>
<path id="Vector_27" d="M29.0745 39.86C29.9039 39.86 30.5785 38.8566 30.5785 37.6234C30.5785 36.3901 29.9038 35.3867 29.0745 35.3867C28.2452 35.3867 27.5703 36.3901 27.5703 37.6234C27.5703 38.8566 28.245 39.86 29.0745 39.86Z" fill="#171D34"/>
<path id="Vector_28" d="M57.8697 42.6291C57.2848 42.3518 56.5858 42.6007 56.3083 43.1854C55.8868 44.0735 54.9797 44.6473 53.9971 44.6473C53.0145 44.6473 52.1072 44.0735 51.6857 43.1854C51.4082 42.6008 50.7092 42.3514 50.1245 42.6291C49.5397 42.9067 49.2906 43.6058 49.5682 44.1904C50.3756 45.8918 52.1141 46.9912 53.9971 46.9912C55.8801 46.9912 57.6184 45.8917 58.426 44.1902C58.7035 43.6056 58.4544 42.9067 57.8697 42.6291Z" fill="#171D34"/>
<path id="Vector_29" d="M46.328 39.86C47.1587 39.86 47.8321 38.8586 47.8321 37.6234C47.8321 36.3881 47.1587 35.3867 46.328 35.3867C45.4974 35.3867 44.824 36.3881 44.824 37.6234C44.824 38.8586 45.4974 39.86 46.328 39.86Z" fill="#171D34"/>
<path id="Vector_30" d="M61.6665 35.3867C60.8371 35.3867 60.1623 36.3901 60.1623 37.6234C60.1623 38.8566 60.8371 39.86 61.6665 39.86C62.496 39.86 63.1706 38.8566 63.1706 37.6234C63.1706 36.3901 62.4958 35.3867 61.6665 35.3867Z" fill="#171D34"/>
<path id="Vector_31" d="M79.9317 56.8768C79.7614 56.3999 79.6031 55.6577 79.4198 54.7984C78.9949 52.8071 78.4661 50.3289 77.2338 48.2312C75.9038 45.9672 74.0291 44.6638 71.653 44.3383C71.664 44.0693 71.6741 43.8003 71.6832 43.531C73.778 43.0264 75.3394 41.1381 75.3394 38.8907C75.3394 36.6171 73.7423 34.711 71.6118 34.2325C71.5946 33.8828 71.576 33.5335 71.5554 33.1848C71.8351 32.1632 72.9371 27.5418 71.3951 22.9876C71.1874 22.3745 70.5218 22.0459 69.9091 22.2533C69.2961 22.461 68.9673 23.1262 69.1748 23.7392C70.2474 26.9067 69.7971 30.2265 69.4761 31.7865C66.6555 31.4724 58.3646 30.0894 55.0024 24.5145C54.7903 24.1629 54.4097 23.9478 53.9988 23.9478C53.5882 23.9478 53.2075 24.1627 52.9953 24.5143C49.632 30.0893 41.3405 31.4724 38.5203 31.7865C38.1898 30.1782 37.7243 26.703 38.9262 23.449C39.0116 23.4272 39.0952 23.3964 39.1752 23.355C43.1294 21.3065 45.9902 18.8954 47.9716 16.4577C49.7492 16.0697 51.7724 15.8704 53.9988 15.8704C60.0631 15.8704 64.4549 17.301 67.0521 20.1223C67.2832 20.3732 67.5984 20.5004 67.9147 20.5004C68.1983 20.5004 68.483 20.3981 68.7082 20.1907C69.1843 19.7522 69.2151 19.0109 68.7766 18.5346C65.7173 15.2113 60.7453 13.5263 53.9988 13.5263C52.522 13.5263 51.124 13.6108 49.8114 13.7729C51.194 11.3253 51.752 8.97689 51.7064 7.07825C51.6355 4.12731 50.2125 1.80097 47.8024 0.695701C46.0502 -0.107821 44.3466 -0.174234 42.7384 0.498649C40.8426 1.29186 39.4876 2.98188 38.6361 4.38578C37.7846 2.98188 36.4296 1.29186 34.5338 0.498649C32.9258 -0.174234 31.2221 -0.107977 29.4698 0.695701C27.0596 1.80097 25.6366 4.12731 25.5658 7.07825C25.5241 8.81171 25.9604 10.6794 26.8153 12.5312C19.5994 12.7218 11.9535 15.2258 9.77449 15.9908C7.84288 14.7206 4.21828 13.5582 1.30234 16.4744C-1.37903 19.1558 0.58086 24.481 2.69686 28.4757C3.0619 29.1657 3.51961 29.7925 4.04935 30.3454C3.94121 31.6374 3.85527 32.9333 3.79182 34.2316C1.66097 34.7099 0.0634619 36.6162 0.0634619 38.8899C0.0634619 41.1364 1.62363 43.0241 3.71697 43.5296C3.73901 44.1826 3.76666 44.8347 3.79995 45.4857C3.99435 49.2908 6.19395 52.526 9.3721 54.176C9.21146 54.2304 9.05035 54.2867 8.88892 54.3456C6.21099 55.324 3.01862 57.1626 3.01862 60.365C3.01862 60.365 2.75156 69.9082 3.35318 72.4361C4.26672 76.2743 6.59212 78.8544 10.0789 79.9011C10.1972 79.9412 10.3234 79.9641 10.4553 79.9641L64.9473 79.9634C65.0625 79.9634 65.1736 79.9461 65.2786 79.9152C65.2789 79.9152 65.2986 79.9094 65.3041 79.9076C68.8017 78.8647 71.1339 76.2821 72.0492 72.4365C72.6538 69.896 72.383 60.3664 72.383 60.3664C72.383 57.1635 69.1908 55.3251 66.5128 54.3467C66.3512 54.2876 66.1898 54.2312 66.0292 54.1768C66.9407 53.7036 67.7715 53.1006 68.4977 52.3902C71.6909 57.1679 78.3191 58.3719 78.6277 58.4255C78.6946 58.4371 78.7616 58.4427 78.8282 58.4427C79.1704 58.4427 79.4998 58.2926 79.7247 58.0257C79.9931 57.7069 80.0721 57.2693 79.9317 56.8768ZM72.9952 38.8905C72.9952 39.8044 72.4877 40.6012 71.7401 41.016C71.7562 39.5904 71.744 38.1657 71.7062 36.7453C72.4724 37.1547 72.9952 37.9624 72.9952 38.8905ZM36.2874 36.7456C36.2496 38.1676 36.2374 39.5923 36.2535 41.0156C35.5064 40.6007 34.999 39.804 34.999 38.8905C34.9992 37.9628 35.5217 37.1553 36.2874 36.7456ZM30.447 2.82639C31.0881 2.53246 31.6957 2.38572 32.2801 2.38572C32.7403 2.38572 33.1863 2.47683 33.6231 2.65856C36.1504 3.71086 37.5216 7.38016 37.5346 7.41532C37.7029 7.8788 38.1433 8.18727 38.6363 8.18727C39.1293 8.18727 39.5697 7.87865 39.738 7.41532C40.1094 6.39208 41.5353 3.54303 43.6434 2.66106C44.6361 2.24571 45.677 2.29978 46.8254 2.82639C48.4128 3.55428 49.3141 5.08429 49.3633 7.13451C49.4152 9.29458 48.5104 11.7752 46.8156 14.119C44.9179 16.7433 42.0982 19.1097 38.6364 20.9877C35.1747 19.1097 32.3548 16.7435 30.4571 14.119C28.7623 11.775 27.8575 9.29458 27.9094 7.13451C27.9583 5.08429 28.8595 3.55428 30.447 2.82639ZM2.95955 18.1321C5.49247 15.599 8.72094 18.1102 8.85361 18.2157C9.1763 18.4759 9.61259 18.5465 10.0009 18.4009C10.1011 18.3632 19.8737 14.7361 28.1258 14.8677C28.2649 15.0771 28.4075 15.2858 28.5572 15.4927C30.512 18.196 33.3213 20.6351 36.7361 22.6085C35.3658 26.2843 35.7902 30.0702 36.1743 32.031C33.8894 32.7442 29.9769 29.5151 28.6713 28.1991C28.3141 27.8381 27.7651 27.7482 27.3115 27.9764C26.8579 28.2047 26.6028 28.6991 26.6799 29.2011C26.8225 30.1316 26.5177 30.8097 25.6912 31.3999C23.7364 32.7966 20.9377 32.0685 18.9339 31.2122C16.5786 30.2055 14.7216 28.7785 14.7038 28.7648C14.4078 28.5352 14.0199 28.4607 13.6602 28.5647C13.3003 28.6687 13.0119 28.9382 12.8839 29.2903C12.7059 29.7797 12.1643 31.2689 8.62702 30.3966C6.97403 29.9904 5.56779 28.8909 4.76833 27.3796C2.37105 22.8537 1.69488 19.3967 2.95955 18.1321ZM2.40715 38.8902C2.40715 37.9615 2.93064 37.1536 3.6976 36.7443C3.65962 38.1689 3.6479 39.5937 3.66384 41.0167C2.91548 40.6021 2.40715 39.8047 2.40715 38.8902ZM6.14067 45.3662C5.91314 40.9323 5.95737 36.4453 6.2699 31.9988C6.83683 32.2892 7.4383 32.5178 8.06665 32.6722C11.6033 33.5445 13.4272 32.5606 14.3647 31.3907C16.1016 32.5355 19.6176 34.5308 23.0223 34.5307C24.4295 34.5307 25.8179 34.1897 27.0535 33.307C27.823 32.7575 28.376 32.1006 28.7037 31.3563C29.2914 31.8304 29.9982 32.3553 30.7689 32.8358C32.7796 34.0894 34.3733 34.5035 35.6197 34.4724C33.8822 35.187 32.6552 36.8976 32.6552 38.8904C32.6552 41.1376 34.2164 43.0259 36.311 43.5307C36.3331 44.1836 36.3589 44.8358 36.3923 45.4865C36.4098 45.827 36.4443 46.1655 36.4945 46.5007C30.7244 46.5462 26.6175 48.166 24.2882 51.3196C23.8486 51.9147 23.4962 52.5343 23.2143 53.1631C20.0875 53.198 16.9271 53.1423 13.8076 52.9954C9.649 52.7998 6.35288 49.5199 6.14067 45.3662ZM59.8385 55.4141V57.1899C59.8385 58.9356 58.4184 60.3559 56.6726 60.3559H51.322C51.2609 60.3559 51.2007 60.3512 51.1404 60.3479C51.3107 59.0653 51.3883 57.3193 51.0126 55.4882C52.0022 55.5062 52.9936 55.5187 53.9868 55.5187C55.9378 55.5188 57.8927 55.4837 59.8385 55.4141ZM50.8963 65.0033H51.3095C52.2229 65.0033 52.9659 65.7463 52.9659 66.6597C52.9659 67.5721 52.2229 68.3146 51.3095 68.3146H50.9224C50.9348 67.2094 50.9252 66.1048 50.8963 65.0033ZM48.4822 63.1464C48.6211 65.989 48.6187 68.871 48.4728 71.7288C48.3118 74.8595 45.828 77.3314 42.6953 77.4791C38.7452 77.6654 34.7398 77.6654 30.7908 77.4791C27.657 77.3314 25.1733 74.8596 25.0134 71.7288C24.8669 68.881 24.8642 65.9984 25.0031 63.1446C25.9949 63.0287 27.5821 62.7787 29.3442 62.2509C32.541 61.2937 35.0636 59.7835 36.7417 57.8381C40.1353 61.7962 46.0616 62.8676 48.4822 63.1464ZM22.5629 68.3147H22.1752C21.2627 68.3147 20.5203 67.5723 20.5203 66.6598C20.5203 65.7465 21.2626 65.0034 22.1752 65.0034H22.589C22.5601 66.1064 22.5507 67.211 22.5629 68.3147ZM15.5635 55.4137C17.5142 55.483 19.4747 55.5182 21.4281 55.5182C21.775 55.5182 22.1214 55.5163 22.4677 55.514C22.098 57.3382 22.1769 59.0784 22.3474 60.3559H18.7295C16.9838 60.3559 15.5635 58.9356 15.5635 57.1899V55.4137ZM5.64843 71.956C5.31027 70.5693 5.26495 69.2487 5.28651 68.3835H9.28318V77.0477C7.45299 76.0532 6.23193 74.3486 5.64843 71.956ZM10.4552 66.0395H5.36246V60.3654C5.36246 57.6941 10.2866 56.1606 13.2195 55.5773V57.1901C13.2195 60.2282 15.6914 62.7001 18.7295 62.7001H21.6103C19.6719 62.9755 18.1763 64.6459 18.1763 66.6598C18.1763 68.8648 19.9701 70.6587 22.1752 70.6587H22.6194C22.6344 71.0559 22.6519 71.4527 22.6723 71.8488C22.7893 74.1409 23.8053 76.1777 25.3775 77.6204H11.6272V67.2115C11.6272 66.5642 11.1024 66.0395 10.4552 66.0395ZM69.7689 71.894C69.1917 74.3194 67.9656 76.0451 66.1193 77.0481V68.3844H70.1177C70.1394 69.2325 70.0957 70.5212 69.7689 71.894ZM70.039 60.3667V66.0406H64.9473C64.3001 66.0406 63.7753 66.5653 63.7753 67.2126V77.6198H48.1081C49.6798 76.1773 50.6958 74.1406 50.8137 71.8488C50.834 71.4525 50.8512 71.0558 50.8662 70.6587H51.3095C53.5154 70.6587 55.3099 68.8648 55.3099 66.6598C55.3099 64.6459 53.8137 62.9755 51.8745 62.7001H56.6726C59.7107 62.7001 62.1825 60.2282 62.1825 57.1901V55.577C65.1155 56.1575 70.039 57.688 70.039 60.3667ZM61.5959 52.9956C57.8339 53.1734 54.0238 53.2173 50.2572 53.1298C50.054 52.681 49.8145 52.2369 49.5331 51.8031C49.1805 51.2601 48.4547 51.106 47.9118 51.4582C47.3689 51.8108 47.2145 52.5365 47.5669 53.0795C49.3299 55.7949 48.9908 59.2019 48.6898 60.8075C46.3249 60.5223 40.2525 59.398 37.7476 55.2443C37.5355 54.8925 37.1547 54.6775 36.744 54.6775C36.3334 54.6775 35.9526 54.8925 35.7405 55.2443C33.2435 59.3847 27.1648 60.517 24.7981 60.8058C24.4832 59.123 24.128 55.4701 26.1825 52.7004C28.0814 50.1404 31.6348 48.8425 36.744 48.8425C39.9486 48.8425 42.5675 49.3608 44.5282 50.3833C45.1021 50.6828 45.81 50.46 46.1093 49.886C46.4087 49.3121 46.186 48.6042 45.612 48.3049C43.7893 47.3544 41.5342 46.777 38.8913 46.578C38.8099 46.1807 38.7546 45.7759 38.7335 45.366C38.5414 41.6363 38.5436 37.8607 38.7349 34.1266C41.6328 33.8223 49.6659 32.5123 53.999 27.1549C58.3296 32.5108 66.3584 33.8215 69.2589 34.1263C69.4503 37.8466 69.453 41.6224 69.2615 45.3662C69.0479 49.5198 65.7526 52.7998 61.5959 52.9956ZM70.0597 50.4413C70.7565 49.3165 71.243 48.0457 71.4699 46.6821C75.1045 47.2801 76.2307 51.0851 77.1274 55.2876C77.1522 55.404 77.1766 55.5184 77.2008 55.6307C75.0747 54.941 71.6554 53.4161 70.0597 50.4413Z" fill="#171D34"/>
<path id="Vector_32" d="M35.1565 69.9198C34.879 69.3351 34.18 69.0858 33.5951 69.3635C33.0104 69.6411 32.7613 70.3402 33.0388 70.9249C33.7142 72.3479 35.1681 73.2674 36.743 73.2674C38.3178 73.2674 39.7717 72.3479 40.4471 70.9249C40.7246 70.3402 40.4755 69.6412 39.8908 69.3635C39.3057 69.0862 38.6069 69.3351 38.3294 69.9198C38.0401 70.5294 37.4174 70.9232 36.743 70.9232C36.0685 70.9232 35.4458 70.5294 35.1565 69.9198Z" fill="#171D34"/>
<path id="Vector_33" d="M30.7232 67.4266C31.3799 67.4266 31.9122 66.6368 31.9122 65.6625C31.9122 64.6882 31.3799 63.8984 30.7232 63.8984C30.0665 63.8984 29.5342 64.6882 29.5342 65.6625C29.5342 66.6368 30.0665 67.4266 30.7232 67.4266Z" fill="#171D34"/>
<path id="Vector_34" d="M42.7626 67.4266C43.4182 67.4266 43.9517 66.6353 43.9517 65.6625C43.9517 64.6898 43.4182 63.8984 42.7626 63.8984C42.1069 63.8984 41.5736 64.6898 41.5736 65.6625C41.5736 66.6353 42.1069 67.4266 42.7626 67.4266Z" fill="#171D34"/>
</g>
<defs>
<clipPath id="clip0_998_205688">
<rect width="80" height="80" fill="white"/>
</clipPath>
</defs>
</svg>
