<svg width="48" height="48" viewBox="0 0 48 48" fill="none" xmlns="http://www.w3.org/2000/svg">
<g clip-path="url(#clip0_1807_55333)">
<path d="M24.9976 33.6562H2.75897C1.62356 33.6562 0.703125 32.7358 0.703125 31.6004V29.0129C0.703125 27.8775 1.62356 26.957 2.75897 26.957H24.9976C26.133 26.957 27.0534 27.8775 27.0534 29.0129V31.6004C27.0534 32.7358 26.133 33.6562 24.9976 33.6562Z" fill="#FCDA63"/>
<path d="M7.03753 33.6562H2.75972C1.62366 33.6562 0.703125 32.7356 0.703125 31.6007V29.0126C0.703125 27.8776 1.62375 26.957 2.75972 26.957H7.03753C5.9025 26.957 4.98197 27.8777 4.98197 29.0126V31.6007C4.98197 32.7356 5.90259 33.6562 7.03753 33.6562Z" fill="#F6BD3D"/>
<path d="M27.0536 29.9648V31.5998C27.0536 32.7352 26.1329 33.6548 24.9976 33.6548H2.75918C1.62387 33.6548 0.703247 32.7352 0.703247 31.5998V29.9648C0.703247 31.1002 1.62387 32.0208 2.75918 32.0208H24.9976C26.1329 32.0208 27.0536 31.1002 27.0536 29.9648Z" fill="#F6BD3D"/>
<path d="M28.8075 26.957H6.56878C5.43338 26.957 4.51294 26.0366 4.51294 24.9012V22.3137C4.51294 21.1783 5.43338 20.2578 6.56878 20.2578H28.8075C29.9429 20.2578 30.8633 21.1783 30.8633 22.3137V24.9012C30.8633 26.0366 29.9429 26.957 28.8075 26.957Z" fill="#FCDA63"/>
<path d="M10.8475 26.957H6.56965C5.43359 26.957 4.51306 26.0364 4.51306 24.9014V22.3134C4.51306 21.1783 5.43369 20.2578 6.56965 20.2578H10.8475C9.71244 20.2578 8.79191 21.1784 8.79191 22.3134V24.9014C8.79191 26.0365 9.71244 26.957 10.8475 26.957Z" fill="#F6BD3D"/>
<path d="M30.8634 23.2656V24.9006C30.8634 26.0359 29.9428 26.9556 28.8075 26.9556H6.56906C5.43375 26.9556 4.51312 26.0359 4.51312 24.9006V23.2656C4.51312 24.4009 5.43375 25.3216 6.56906 25.3216H28.8075C29.9428 25.3216 30.8634 24.4009 30.8634 23.2656Z" fill="#F6BD3D"/>
<path d="M26.1284 20.2578H3.88977C2.75436 20.2578 1.83392 19.3373 1.83392 18.2019V15.6144C1.83392 14.479 2.75436 13.5586 3.88977 13.5586H26.1284C27.2638 13.5586 28.1842 14.479 28.1842 15.6144V18.2019C28.1842 19.3373 27.2638 20.2578 26.1284 20.2578Z" fill="#FCDA63"/>
<path d="M8.16845 20.2578H3.89064C2.75458 20.2578 1.83405 19.3372 1.83405 18.2022V15.6142C1.83405 14.4791 2.75467 13.5586 3.89064 13.5586H8.16845C7.03342 13.5586 6.11289 14.4792 6.11289 15.6142V18.2022C6.1128 19.3372 7.03342 20.2578 8.16845 20.2578Z" fill="#F6BD3D"/>
<path d="M28.1844 16.5664V18.2014C28.1844 19.3367 27.2637 20.2564 26.1284 20.2564H3.88998C2.75467 20.2564 1.83405 19.3367 1.83405 18.2014V16.5664C1.83405 17.7017 2.75467 18.6223 3.88998 18.6223H26.1284C27.2637 18.6223 28.1844 17.7017 28.1844 16.5664Z" fill="#F6BD3D"/>
<path d="M26.8726 40.3554H4.63397C3.49856 40.3554 2.57812 39.435 2.57812 38.2996V35.7121C2.57812 34.5767 3.49856 33.6562 4.63397 33.6562H26.8726C28.008 33.6562 28.9284 34.5767 28.9284 35.7121V38.2996C28.9284 39.435 28.008 40.3554 26.8726 40.3554Z" fill="#FCDA63"/>
<path d="M28.9286 36.6641V38.2991C28.9286 39.4344 28.0079 40.3541 26.8726 40.3541H4.63418C3.49887 40.3541 2.57825 39.4344 2.57825 38.2991V36.6641C2.57825 37.7994 3.49887 38.72 4.63418 38.72H26.8726C28.0079 38.72 28.9286 37.7994 28.9286 36.6641Z" fill="#F6BD3D"/>
<path d="M8.91253 40.3554H4.63472C3.49866 40.3554 2.57812 39.4348 2.57812 38.2999V35.7118C2.57812 34.5768 3.49875 33.6562 4.63472 33.6562H8.91253C7.7775 33.6562 6.85697 34.5769 6.85697 35.7118V38.2999C6.85697 39.4348 7.77759 40.3554 8.91253 40.3554Z" fill="#F6BD3D"/>
<path d="M25.4663 47.0547H3.22772C2.09231 47.0547 1.17188 46.1342 1.17188 44.9988V42.4113C1.17188 41.2759 2.09231 40.3555 3.22772 40.3555H25.4663C26.6017 40.3555 27.5222 41.2759 27.5222 42.4113V44.9988C27.5222 46.1342 26.6017 47.0547 25.4663 47.0547Z" fill="#FCDA63"/>
<path d="M27.5223 43.3633V44.9983C27.5223 46.1336 26.6017 47.0533 25.4664 47.0533H3.22793C2.09262 47.0533 1.172 46.1336 1.172 44.9983V43.3633C1.172 44.4986 2.09262 45.4192 3.22793 45.4192H25.4664C26.6017 45.4192 27.5223 44.4986 27.5223 43.3633Z" fill="#F6BD3D"/>
<path d="M7.50628 47.0547H3.22847C2.09241 47.0547 1.17188 46.134 1.17188 44.9991V42.411C1.17188 41.276 2.0925 40.3555 3.22847 40.3555H7.50628C6.37125 40.3555 5.45072 41.2761 5.45072 42.411V44.9991C5.45072 46.134 6.37134 47.0547 7.50628 47.0547Z" fill="#F6BD3D"/>
<path d="M34.1217 47.0534C41.3981 47.0534 47.2968 41.1547 47.2968 33.8783C47.2968 26.6018 41.3981 20.7031 34.1217 20.7031C26.8453 20.7031 20.9465 26.6018 20.9465 33.8783C20.9465 41.1547 26.8453 47.0534 34.1217 47.0534Z" fill="#FCDA63"/>
<path d="M35.2359 47.0061C34.8691 47.0378 34.4972 47.0531 34.1215 47.0531C26.8448 47.0531 20.9465 41.1548 20.9465 33.8781C20.9465 26.6014 26.8448 20.7031 34.1215 20.7031C34.4973 20.7031 34.8691 20.7183 35.2359 20.7501C28.4796 21.3149 23.174 26.9758 23.174 33.8781C23.174 40.7803 28.4796 46.4412 35.2359 47.0061Z" fill="#F6BD3D"/>
<path d="M34.1217 42.7737C39.0351 42.7737 43.0183 38.7905 43.0183 33.8771C43.0183 28.9636 39.0351 24.9805 34.1217 24.9805C29.2082 24.9805 25.2251 28.9636 25.2251 33.8771C25.2251 38.7905 29.2082 42.7737 34.1217 42.7737Z" fill="#F6BD3D"/>
<path d="M18.5033 29.064V18.2176H20.3573C22.6082 18.2176 24.015 15.7807 22.8894 13.8315L16.947 3.53997C15.8215 1.59091 13.0083 1.59081 11.8827 3.53988L5.93963 13.8313C4.81397 15.7806 6.22069 18.2176 8.47172 18.2176H10.3267V29.064C10.3267 30.0802 11.1504 30.904 12.1667 30.904H16.6632C17.6795 30.904 18.5033 30.0801 18.5033 29.064Z" fill="#73C3FD"/>
<path d="M13.8595 30.9034H12.1665C11.1506 30.9034 10.3271 30.0799 10.3271 29.0641V18.2164H8.47151C6.22048 18.2164 4.81358 15.7801 5.94008 13.8303L11.8822 3.53912C12.445 2.56478 13.4298 2.07812 14.4146 2.07812C13.7549 2.07812 13.0952 2.56478 12.7188 3.53912L8.73767 13.8303C7.98289 15.7801 8.92592 18.2164 10.4335 18.2164H11.1958C11.9859 18.2164 12.6265 18.857 12.6265 19.6472V29.063C12.6265 30.0793 13.1789 30.9034 13.8595 30.9034Z" fill="#73C3FD"/>
<path d="M34.9992 15.4565L34.9454 15.2558C34.7557 14.548 35.1464 13.8141 35.8396 13.5764L37.9719 12.8454C38.7356 12.5835 39.5613 13.0233 39.7703 13.8031L39.9039 14.3018C40.1129 15.0816 39.6176 15.8754 38.8253 16.0304L36.6133 16.4635C35.8942 16.6044 35.1888 16.1643 34.9992 15.4565Z" fill="#F6BD3D"/>
<path d="M31.5929 9.45216L31.446 9.30525C30.9278 8.7871 30.8993 7.95619 31.3808 7.40382L32.8619 5.7046C33.3924 5.09597 34.3274 5.06391 34.8982 5.63485L35.2633 5.99991C35.8342 6.57085 35.8022 7.50582 35.1936 8.03625L33.4943 9.51732C32.9421 9.99882 32.1111 9.97032 31.5929 9.45216Z" fill="#F6BD3D"/>
<path d="M25.6395 5.95187L25.4388 5.89806C24.731 5.7084 24.2908 5.00303 24.4316 4.28387L24.8647 2.07184C25.0197 1.27947 25.8135 0.784278 26.5933 0.993247L27.092 1.12684C27.8718 1.33581 28.3116 2.16156 28.0497 2.92525L27.3187 5.0575C27.0812 5.75078 26.3474 6.14153 25.6395 5.95187Z" fill="#F6BD3D"/>
<path d="M44.2255 24.3649C43.9593 24.0822 43.5142 24.0691 43.2316 24.3352C42.9489 24.6015 42.9356 25.0465 43.202 25.3292C45.3892 27.6511 46.5938 30.6874 46.5938 33.8789C46.5938 40.7563 40.9986 46.3514 34.1213 46.3514C27.2444 46.3514 21.6497 40.7563 21.6497 33.8789C21.6497 27.002 27.2444 21.4073 34.1213 21.4073C36.6603 21.4073 39.1028 22.1655 41.1848 23.5997C41.5046 23.82 41.9425 23.7394 42.1628 23.4197C42.3832 23.0999 42.3024 22.6621 41.9827 22.4417C39.665 20.8451 36.9465 20.0011 34.1213 20.0011C32.9767 20.0011 31.8645 20.1413 30.7998 20.4038C30.2845 19.8647 29.5704 19.5541 28.8076 19.5541H28.5314C28.7574 19.154 28.8872 18.6926 28.8872 18.2013V15.6137C28.8872 14.0924 27.6495 12.8547 26.1281 12.8547H23.137L17.556 3.18869C16.8998 2.05291 15.7254 1.375 14.414 1.375C14.4138 1.375 14.4134 1.375 14.4132 1.375C13.1026 1.37528 11.9289 2.053 11.2739 3.18784L5.69203 12.8547H3.88969C2.36831 12.8547 1.13063 14.0924 1.13063 15.6137V18.2013C1.13063 19.7226 2.36831 20.9603 3.88969 20.9603H4.16578C3.93975 21.3603 3.81 21.8218 3.81 22.3131V24.9006C3.81 25.392 3.93975 25.8534 4.16578 26.2534H2.75906C1.23769 26.2534 0 27.4907 0 29.0116V31.5991C0 32.9492 0.974906 34.075 2.25759 34.3116C2.01487 34.7222 1.875 35.2005 1.875 35.711V38.2985C1.875 38.8538 2.04047 39.3709 2.32387 39.8042C1.24528 40.1794 0.46875 41.2056 0.46875 42.4104V44.9979C0.46875 46.5193 1.70644 47.757 3.22781 47.757H25.4663C26.5106 47.757 27.4387 47.1654 27.9055 46.2852C29.7765 47.2265 31.8879 47.7576 34.1213 47.7576C41.7741 47.7576 48 41.5317 48 33.8789C48 30.3275 46.6596 26.9488 44.2255 24.3649ZM3.28125 38.2985V35.711C3.28125 34.9651 3.88809 34.3582 4.63406 34.3582H20.2526C20.3168 36.241 20.7576 38.0297 21.5022 39.6513H4.63406C3.88809 39.6513 3.28125 39.0445 3.28125 38.2985ZM29.0108 20.9762C26.3493 22.0341 24.0905 23.8931 22.5322 26.2535H19.2066V20.9604H26.1281H28.8075C28.8763 20.9604 28.9441 20.9661 29.0108 20.9762ZM27.4809 15.6138V18.2013C27.4809 18.9473 26.8741 19.5542 26.1281 19.5542H19.2066V18.9211H20.3569C21.6683 18.9211 22.8427 18.2429 23.4983 17.1068C24.009 16.2222 24.1199 15.2043 23.835 14.2609H26.1281C26.8741 14.261 27.4809 14.8679 27.4809 15.6138ZM2.53688 18.2013V15.6138C2.53688 14.8679 3.14372 14.261 3.88969 14.261H4.9935C4.81678 14.8501 4.79231 15.4747 4.92881 16.0803C5.01413 16.4592 5.39053 16.6971 5.76928 16.6117C6.14813 16.5263 6.38606 16.15 6.30066 15.7712C6.21506 15.3913 6.18863 14.8073 6.54891 14.183L12.4918 3.89106C12.8928 3.19637 13.6112 2.78153 14.4136 2.78134H14.414C15.2171 2.78134 15.9366 3.19656 16.3383 3.89209L22.2803 14.1831C22.6818 14.8782 22.6819 15.7084 22.2804 16.4039C21.8789 17.0995 21.1598 17.5148 20.3569 17.5148H18.5034C18.1151 17.5148 17.8003 17.8296 17.8003 18.2179V29.0639C17.8003 29.6909 17.2902 30.2011 16.6631 30.2011H12.1669C11.5399 30.2011 11.0297 29.691 11.0297 29.0639V18.2179C11.0297 17.8296 10.7149 17.5148 10.3266 17.5148H8.47219C8.20509 17.5148 7.94747 17.4704 7.70653 17.3828C7.34138 17.25 6.93816 17.4383 6.8055 17.8033C6.67275 18.1682 6.861 18.5717 7.22597 18.7043C7.62141 18.8481 8.04066 18.9211 8.47219 18.9211H9.62344V19.5542H6.56906H3.88969C3.14372 19.5542 2.53688 18.9473 2.53688 18.2013ZM5.21625 24.9007V22.3132C5.21625 21.5672 5.82309 20.9604 6.56906 20.9604H9.62344V26.2535H6.56906C5.82309 26.2535 5.21625 25.6467 5.21625 24.9007ZM1.40625 31.5992V29.0117C1.40625 28.2662 2.01309 27.6598 2.75906 27.6598H6.56906H9.62344V29.0639C9.62344 30.4663 10.7644 31.6073 12.1669 31.6073H16.6631C18.0655 31.6073 19.2066 30.4664 19.2066 29.0639V27.6598H21.7175C20.9065 29.2707 20.4006 31.06 20.2751 32.952H4.63406H2.75906C2.01309 32.952 1.40625 32.3451 1.40625 31.5992ZM25.4663 46.3507H3.22781C2.48184 46.3507 1.875 45.7439 1.875 44.9979V42.4104C1.875 41.6644 2.48184 41.0576 3.22781 41.0576H4.63406H22.248C23.3581 42.887 24.8789 44.4406 26.6813 45.5898C26.4601 46.0427 25.994 46.3507 25.4663 46.3507Z" fill="#171D34"/>
<path d="M35.5096 33.1473C35.2608 33.0748 35.0058 32.9987 34.7519 32.9192V29.8036C35.5068 29.9152 35.9577 30.2331 35.9917 30.2578C36.3007 30.4888 36.7387 30.4275 36.9724 30.1198C37.2073 29.8106 37.147 29.3695 36.8378 29.1346C36.7925 29.1002 36.0155 28.5245 34.7519 28.3887V27.7812C34.7519 27.3929 34.4372 27.0781 34.0488 27.0781C33.6603 27.0781 33.3456 27.3929 33.3456 27.7812V28.4338C33.21 28.4566 33.0714 28.4852 32.9298 28.5204C31.7444 28.8145 30.8594 29.7189 30.6751 30.8245C30.5196 31.7571 30.9001 32.6445 31.668 33.1406C32.0903 33.4134 32.6185 33.6636 33.3456 33.929V37.8754C32.6157 37.8447 32.1332 37.7218 31.3391 37.2939C30.9971 37.1097 30.5706 37.2375 30.3866 37.5794C30.2024 37.9213 30.3302 38.3477 30.6721 38.5319C31.7218 39.0974 32.4014 39.2492 33.3457 39.2825V39.973C33.3457 40.3613 33.6604 40.6761 34.0488 40.6761C34.4373 40.6761 34.752 40.3613 34.752 39.973V39.2368C36.6043 38.9602 37.733 37.6451 37.9143 36.3483C38.1183 34.8884 37.1744 33.632 35.5096 33.1473ZM32.431 31.9592C32.0077 31.6858 32.0321 31.2362 32.0622 31.0556C32.1354 30.6163 32.4907 30.078 33.2683 29.8852C33.2943 29.8787 33.3198 29.8734 33.3455 29.8675V32.4203C32.9969 32.2752 32.6826 32.1218 32.431 31.9592ZM36.5215 36.1536C36.4227 36.86 35.796 37.575 34.7518 37.8061V34.3897C34.8699 34.4251 34.9907 34.461 35.1164 34.4976C36.1158 34.7885 36.6279 35.3921 36.5215 36.1536Z" fill="#171D34"/>
<path d="M34.1217 24.2773C28.8284 24.2773 24.5221 28.5838 24.5221 33.8771C24.5221 39.1704 28.8284 43.4767 34.1217 43.4767C39.415 43.4767 43.7213 39.1703 43.7213 33.877C43.7213 28.5837 39.415 24.2773 34.1217 24.2773ZM34.1217 42.0704C29.6039 42.0704 25.9283 38.3949 25.9283 33.877C25.9283 29.3591 29.6039 25.6835 34.1217 25.6835C38.6395 25.6835 42.3151 29.3591 42.3151 33.877C42.3151 38.3949 38.6395 42.0704 34.1217 42.0704Z" fill="#171D34"/>
<path d="M34.2661 15.4405L34.3198 15.6412C34.3199 15.6412 34.3199 15.6413 34.3199 15.6413C34.5687 16.5698 35.4171 17.1954 36.3475 17.1954C36.4799 17.1954 36.6141 17.1827 36.7482 17.1564L38.9603 16.7234C39.5286 16.6122 40.0302 16.2666 40.3367 15.7755C40.6432 15.2843 40.733 14.6819 40.5831 14.1227L40.4495 13.6239C40.2996 13.0647 39.9205 12.5879 39.4096 12.3158C38.8985 12.0436 38.2914 11.9954 37.7437 12.183L35.6116 12.914C34.5729 13.2703 33.9819 14.38 34.2661 15.4405ZM36.0678 14.2444L38.1999 13.5135C38.3828 13.4506 38.5778 13.4662 38.7487 13.5571C38.9195 13.6481 39.0412 13.8012 39.0912 13.988L39.2248 14.4869C39.2749 14.6737 39.2461 14.867 39.1436 15.0313C39.0412 15.1955 38.8802 15.3063 38.6903 15.3435L36.4782 15.7766C36.1221 15.846 35.7719 15.6269 35.6783 15.2775L35.6245 15.0767C35.5309 14.7272 35.7255 14.3617 36.0678 14.2444Z" fill="#171D34"/>
<path d="M31.0957 9.94557C31.5022 10.3521 32.0402 10.5575 32.5794 10.5575C33.0702 10.5575 33.5619 10.3872 33.9563 10.0435L35.6556 8.56247C36.092 8.18213 36.3536 7.6321 36.3735 7.05347C36.3934 6.47485 36.1699 5.90822 35.7606 5.49891L35.3954 5.13375C34.9861 4.72444 34.4198 4.50038 33.8407 4.52082C33.2622 4.5406 32.7122 4.80235 32.3318 5.23875L30.8507 6.93797C30.1294 7.76569 30.1724 9.02222 30.9488 9.79866L31.0957 9.94557ZM31.9109 7.86197L33.3921 6.16275C33.5191 6.01688 33.6956 5.93288 33.8891 5.92632C33.8973 5.92604 33.9055 5.92585 33.9137 5.92585C34.0979 5.92585 34.2702 5.99719 34.4012 6.12816L34.7663 6.49332C34.9031 6.6301 34.9748 6.81197 34.9682 7.00538C34.9616 7.19879 34.8775 7.37532 34.7317 7.50244L33.0324 8.9835C32.76 9.22107 32.346 9.20691 32.0902 8.95116L31.9433 8.80435C31.6875 8.5485 31.6733 8.1346 31.9109 7.86197Z" fill="#171D34"/>
<path d="M25.2569 6.57637L25.4575 6.63009C25.6372 6.67818 25.8182 6.70124 25.9967 6.70124C26.8723 6.70124 27.6881 6.14737 27.9839 5.28459L28.7149 3.15243C28.9027 2.60474 28.8542 1.99762 28.5821 1.48659C28.31 0.97565 27.8332 0.596619 27.274 0.446807L26.7754 0.313213C26.2161 0.163307 25.6137 0.253119 25.1225 0.559682C24.6313 0.86615 24.2858 1.36781 24.1747 1.93593L23.7416 4.14806C23.5308 5.22543 24.1964 6.29212 25.2569 6.57637ZM25.1217 4.41806L25.5547 2.20603C25.5919 2.01618 25.7028 1.85512 25.8669 1.75274C25.9784 1.68318 26.1034 1.64756 26.2308 1.64756C26.2909 1.64756 26.3514 1.65553 26.4114 1.67156L26.9101 1.80515C27.097 1.85521 27.25 1.9769 27.341 2.14762C27.432 2.31843 27.4476 2.51334 27.3847 2.69643L26.6538 4.82859C26.5365 5.17068 26.1711 5.36521 25.8216 5.27184C25.8216 5.27184 25.8216 5.27184 25.8215 5.27184L25.6208 5.21812C25.2714 5.12437 25.0522 4.77299 25.1217 4.41806Z" fill="#171D34"/>
</g>
<defs>
<clipPath id="clip0_1807_55333">
<rect width="48" height="48" fill="white"/>
</clipPath>
</defs>
</svg>
