<svg width="53" height="53" viewBox="0 0 53 53" fill="none" xmlns="http://www.w3.org/2000/svg">
<path d="M53 44.729H0V6.19816C0 5.02734 0.949103 4.07812 2.12003 4.07812L20 4.5C20.6969 4.5 22 5 22.5 5.5L25 7.5C25.3958 8.07369 27.1189 8.31808 27.8158 8.31808H53V44.729Z" fill="#307FF4"/>
<path d="M49.6695 22.8499H3.33071V10.4403C3.33071 9.32475 4.23505 8.42031 5.35074 8.42031H47.6495C48.7651 8.42031 49.6695 9.32465 49.6695 10.4403V22.8499Z" fill="white" stroke="#307FF4" stroke-width="0.2"/>
<path d="M34.9353 21.464H6.08594V13.3001C6.08594 12.5195 6.71871 11.8867 7.49929 11.8867H33.5221C34.3027 11.8867 34.9354 12.5195 34.9354 13.3001V21.464H34.9353Z" fill="#F5F9FF"/>
<path d="M2.82671 48.9219H50.1733C51.7345 48.9219 53 47.6563 53 46.0952V11.0977H41.9268C41.2298 11.0977 40.5775 11.4401 40.1817 12.0138L38.5207 14.4214C38.1249 14.9951 37.4726 15.3376 36.7756 15.3376H0V46.0952C0 47.6563 1.26555 48.9219 2.82671 48.9219Z" fill="#73C3FD"/>
</svg>
