<svg width="780" height="780" viewBox="0 0 780 780" fill="none" xmlns="http://www.w3.org/2000/svg">
<path d="M780 596.541H0V596.931H780V596.541Z" fill="#307FF4"/>
<path d="M492.441 607.164H452.725V607.554H492.441V607.164Z" fill="#307FF4"/>
<path d="M710.493 615.605H616.373V615.995H710.493V615.605Z" fill="#307FF4"/>
<path d="M444.277 607.357H347.037V607.747H444.277V607.357Z" fill="#307FF4"/>
<path d="M283.985 619.029H263.641V619.419H283.985V619.029Z" fill="#307FF4"/>
<path d="M396.371 619.029H303.744V619.419H396.371V619.029Z" fill="#307FF4"/>
<path d="M141.824 612.441H81.8359V612.831H141.824V612.441Z" fill="#307FF4"/>
<path d="M369.742 526.967H68.508C63.5987 526.967 59.6035 522.972 59.6035 518.063V94.6291C59.6035 89.7198 63.5987 85.7246 68.508 85.7246H369.742C374.65 85.7246 378.645 89.7198 378.645 94.6291V518.063C378.645 522.972 374.65 526.967 369.742 526.967ZM68.508 86.1162C63.8124 86.1162 59.9935 89.935 59.9935 94.6306V518.065C59.9935 522.76 63.8124 526.579 68.508 526.579H369.742C374.436 526.579 378.255 522.76 378.255 518.065V94.6291C378.255 89.935 374.436 86.1146 369.742 86.1146L68.508 86.1162Z" fill="#307FF4"/>
<path d="M707.163 526.967H405.93C401.021 526.967 397.027 522.972 397.027 518.063V94.6291C397.027 89.7198 401.023 85.7246 405.93 85.7246H707.163C712.074 85.7246 716.068 89.7198 716.068 94.6291V518.063C716.069 522.972 712.074 526.967 707.163 526.967ZM405.93 86.1162C401.236 86.1162 397.417 89.935 397.417 94.6306V518.065C397.417 522.76 401.236 526.579 405.93 526.579H707.163C711.859 526.579 715.678 522.76 715.678 518.065V94.6291C715.678 89.935 711.859 86.1146 707.163 86.1146L405.93 86.1162Z" fill="#307FF4"/>
<path d="M305.702 461.241H202.116L195.828 388.701H299.414L305.702 461.241Z" fill="#73C3FD"/>
<path d="M311.068 461.241H207.484L201.195 388.701H304.779L311.068 461.241Z" fill="#307FF4"/>
<path d="M221.641 445.663L218.188 404.277H290.618L294.071 445.663H221.641Z" fill="white"/>
<path d="M328.988 461.24H316.834V596.539H328.988V461.24Z" fill="#73C3FD"/>
<path d="M332.826 461.242H324.385V596.541H332.826V461.242Z" fill="#307FF4"/>
<path d="M215.184 476.174H332.822V461.24H215.184V476.174Z" fill="#307FF4"/>
<path d="M219.345 476.174H207.191V596.539H219.345V476.174Z" fill="#73C3FD"/>
<path d="M223.181 476.174H214.74V596.539H223.181V476.174Z" fill="#307FF4"/>
<path d="M132.832 476.174H120.678V596.539H132.832V476.174Z" fill="#73C3FD"/>
<path d="M136.668 476.174H128.227V596.539H136.668V476.174Z" fill="#307FF4"/>
<path d="M252.078 476.174H239.924V596.539H252.078V476.174Z" fill="#73C3FD"/>
<path d="M255.914 476.174H247.473V596.539H255.914V476.174Z" fill="#307FF4"/>
<path d="M215.186 461.242H120.678V476.176H215.186V461.242Z" fill="#73C3FD"/>
<path d="M567.586 123.887H202.031V327.398H567.586V123.887Z" fill="#307FF4"/>
<path d="M587.658 123.887H203.875V327.398H587.658V123.887Z" fill="#F6BD3D"/>
<path d="M581.391 321.127V130.156L210.148 130.156L210.148 321.127L581.391 321.127Z" fill="white"/>
<path d="M360.461 321.127L430.552 130.156H314.878L244.787 321.127H360.461Z" fill="#F6BD3D"/>
<path d="M471.807 321.127L541.896 130.156H454.636L384.547 321.127H471.807Z" fill="#F6BD3D"/>
<path d="M683.455 402.174H652.381V596.542H683.455V402.174Z" fill="#73C3FD"/>
<path d="M675.284 596.541H683.454V581.576H666.717L675.284 596.541Z" fill="#6EA5F7" fill-opacity="0.4"/>
<path d="M396.949 402.174H365.875V596.542H396.949V402.174Z" fill="#73C3FD"/>
<path d="M683.452 402.174H389.816V592.505H683.452V402.174Z" fill="#6EA5F7" fill-opacity="0.4"/>
<path d="M677.896 463.585H395.377V409.83H677.896V463.585ZM396.937 462.025H676.336V411.39H396.937V462.025Z" fill="#307FF4"/>
<path d="M628.161 435.928H450.599C442.352 435.928 434.414 429.276 428.821 417.679L428.281 416.561H650.48L649.94 417.679C644.347 429.276 636.409 435.928 628.161 435.928ZM430.78 418.121C436.059 428.465 443.235 434.368 450.599 434.368H628.161C635.524 434.368 642.702 428.465 647.981 418.121H430.78Z" fill="#307FF4"/>
<path d="M397.988 596.541H389.816V581.576H406.554L397.988 596.541Z" fill="#6EA5F7" fill-opacity="0.4"/>
<path d="M677.896 524.219H395.377V470.465H677.896V524.219ZM396.937 522.659H676.336V472.025H396.937V522.659Z" fill="#307FF4"/>
<path d="M628.161 496.561H450.599C442.352 496.561 434.414 489.909 428.821 478.312L428.281 477.193H650.48L649.94 478.312C644.347 489.91 636.409 496.561 628.161 496.561ZM430.78 478.753C436.059 489.098 443.235 495.001 450.599 495.001H628.161C635.526 495.001 642.702 489.098 647.981 478.753H430.78Z" fill="#307FF4"/>
<path d="M677.896 584.848H395.377V531.092H677.896V584.848ZM396.937 583.288H676.336V532.652H396.937V583.288Z" fill="#307FF4"/>
<path d="M628.161 557.192H450.599C442.352 557.192 434.414 550.54 428.821 538.943L428.281 537.824H650.48L649.94 538.943C644.347 550.541 636.409 557.192 628.161 557.192ZM430.78 539.384C436.059 549.729 443.235 555.632 450.599 555.632H628.161C635.526 555.632 642.702 549.729 647.981 539.384H430.78Z" fill="#307FF4"/>
<path d="M188.733 427.883V431.655H186.318L184.325 461.242H154.942L152.95 431.655H150.535V427.883H188.733Z" fill="#73C3FD"/>
<path d="M179.064 354.451C176.649 336.828 152.864 331.793 122.682 331.148C93.961 330.534 84.7617 320.371 84.7617 320.371C84.7617 320.371 84.8522 361.522 126.237 376.422C165.535 390.57 181.483 372.105 179.064 354.451Z" fill="#73C3FD"/>
<path d="M164.393 394.408C164.897 387.159 176.47 373.838 204.308 379.894C224.439 384.273 231.922 373.838 231.922 373.838C231.922 373.838 230.058 403.289 199.784 412.144C171.037 420.552 163.505 407.156 164.393 394.408Z" fill="#73C3FD"/>
<path d="M170.744 438.992C171.048 438.992 171.35 438.863 171.564 438.611C173.583 436.226 171.931 430.515 169.647 422.609C166.714 412.463 163.065 399.838 166.156 390.668C167.9 385.492 170.059 380.929 172.144 376.514C176.514 367.273 180.288 359.292 177.14 350.957C176.931 350.401 176.311 350.122 175.756 350.331C175.202 350.54 174.921 351.159 175.13 351.715C177.955 359.197 174.534 366.433 170.202 375.595C168.187 379.856 165.904 384.685 164.12 389.98C160.814 399.786 164.568 412.77 167.583 423.203C169.361 429.356 171.199 435.716 169.925 437.223C169.542 437.675 169.599 438.352 170.051 438.736C170.252 438.908 170.499 438.992 170.744 438.992Z" fill="#73C3FD"/>
<path d="M390.002 666.996C557.05 666.996 692.469 659.087 692.469 649.332C692.469 639.576 557.05 631.668 390.002 631.668C222.954 631.668 87.5352 639.576 87.5352 649.332C87.5352 659.087 222.954 666.996 390.002 666.996Z" fill="#F6BD3D"/>
<path d="M389.937 563.235H168.417L156.293 206.982H377.813L389.937 563.235Z" fill="#307FF4"/>
<path d="M400.992 552.178H179.472L167.346 195.926H388.866L400.992 552.178Z" fill="#307FF4"/>
<path opacity="0.3" d="M400.992 552.178H179.472L167.346 195.926H388.866L400.992 552.178Z" fill="white"/>
<path d="M326.793 342.546C350.513 318.42 349.506 278.967 324.545 254.426C299.583 229.884 260.119 229.547 236.398 253.673C212.678 277.799 213.685 317.252 238.646 341.794C263.608 366.336 303.073 366.672 326.793 342.546Z" fill="#307FF4"/>
<path d="M333.011 298.099C333.314 306.98 331.345 315.318 327.631 322.596C319.502 338.625 302.886 349.526 283.335 349.526C263.785 349.526 246.427 338.625 237.205 322.596C232.997 315.32 230.46 306.981 230.157 298.099C229.19 269.691 251.428 246.672 279.834 246.672C308.24 246.672 332.044 269.691 333.011 298.099Z" fill="white"/>
<path opacity="0.6" d="M327.63 322.595C319.501 338.624 302.886 349.525 283.334 349.525C263.784 349.525 246.426 338.624 237.205 322.595C249.858 313.946 265.223 308.896 281.951 308.896C298.682 308.896 314.389 313.945 327.63 322.595Z" fill="#307FF4"/>
<path opacity="0.6" d="M297.613 296.842C306.333 287.972 305.963 273.467 296.786 264.445C287.609 255.422 273.1 255.298 264.38 264.168C255.659 273.038 256.029 287.543 265.206 296.565C274.383 305.588 288.892 305.712 297.613 296.842Z" fill="#307FF4"/>
<path d="M356.496 423.168H215.185L214.229 395.088H355.541L356.496 423.168Z" fill="white"/>
<path d="M358.208 473.357H216.896L215.939 445.277H357.252L358.208 473.357Z" fill="white"/>
<path d="M303.665 449.137L269.612 453.767C268.212 453.958 267.292 455.232 267.557 456.586L272.028 479.406C272.295 480.769 273.654 481.724 275.053 481.535L309.106 476.905C310.506 476.715 311.428 475.45 311.161 474.086L306.69 451.267C306.425 449.911 305.064 448.947 303.665 449.137ZM293.881 472.255L287.716 473.094L287.095 465.729C285.783 465.151 284.833 463.987 284.564 462.616C284.128 460.385 285.635 458.318 287.923 458.006C290.204 457.695 292.421 459.257 292.859 461.488C293.127 462.859 292.67 464.213 291.648 465.11L293.881 472.255Z" fill="#307FF4"/>
<path d="M300.306 447.914C299.061 448.082 297.86 447.237 297.622 446.024L297.184 443.791C295.98 437.643 290.102 433.002 283.738 433.555C276.937 434.148 272.377 440.154 273.65 446.65L274.152 449.216C274.389 450.428 273.573 451.548 272.329 451.717C271.084 451.885 269.882 451.04 269.645 449.828L269.219 447.65C267.541 439.082 272.934 430.846 281.659 429.328C290.832 427.73 299.877 433.917 301.625 442.845L302.128 445.411C302.365 446.623 301.549 447.744 300.306 447.914Z" fill="#307FF4"/>
<path d="M334.88 512.677H242.896L242.275 494.398H334.258L334.88 512.677Z" fill="#307FF4"/>
<path d="M290.501 409.128C290.597 411.964 288.376 414.263 285.54 414.263C282.704 414.263 280.326 411.964 280.23 409.128C280.133 406.292 282.354 403.992 285.19 403.992C288.026 403.992 290.404 406.292 290.501 409.128Z" fill="#171D34"/>
<path d="M268.389 409.128C268.486 411.964 266.265 414.263 263.429 414.263C260.592 414.263 258.215 411.964 258.118 409.128C258.022 406.292 260.243 403.992 263.079 403.992C265.915 403.992 268.293 406.292 268.389 409.128Z" fill="#171D34"/>
<path d="M246.28 409.128C246.377 411.964 244.155 414.263 241.319 414.263C238.483 414.263 236.106 411.964 236.009 409.128C235.912 406.292 238.134 403.992 240.97 403.992C243.806 403.992 246.183 406.292 246.28 409.128Z" fill="#171D34"/>
<path d="M312.61 409.128C312.707 411.964 310.485 414.263 307.649 414.263C304.813 414.263 302.436 411.964 302.339 409.128C302.242 406.292 304.464 403.992 307.3 403.992C310.136 403.992 312.513 406.292 312.61 409.128Z" fill="#171D34"/>
<path d="M334.719 409.128C334.816 411.964 332.595 414.263 329.759 414.263C326.923 414.263 324.545 411.964 324.448 409.128C324.352 406.292 326.573 403.992 329.409 403.992C332.245 403.992 334.624 406.292 334.719 409.128Z" fill="#171D34"/>
<path d="M520.9 271.877C522.979 275.208 524.698 278.404 526.483 281.722C528.26 285.007 529.867 288.388 531.444 291.793C534.547 298.631 537.324 305.685 539.398 313.214C539.676 314.137 539.888 315.117 540.119 316.076L540.461 317.519L540.631 318.24L540.833 319.429C541.28 322.599 540.888 325.184 540.347 327.464C539.228 332.01 537.425 335.636 535.492 339.096C531.547 345.946 526.942 351.78 521.63 357.306L515.061 352.332C518.299 346.186 521.5 339.746 523.854 333.555C524.995 330.475 525.954 327.341 526.235 324.769C526.371 323.504 526.28 322.416 526.106 322.012L525.489 320.106C525.233 319.323 525.006 318.544 524.697 317.755C522.449 311.46 519.589 305.138 516.477 298.904C513.409 292.694 510.008 286.371 506.66 280.469L520.9 271.877Z" fill="#FF8B7B"/>
<path d="M516.728 350.1L509.566 353.901L517.8 363.542C517.8 363.542 522.94 360.065 523.173 354.755L516.728 350.1Z" fill="#FF8B7B"/>
<path d="M499.928 359.846L508.751 366.846L517.801 363.543L509.565 353.902L499.928 359.846Z" fill="#FF8B7B"/>
<path d="M469.795 220.837C469.619 221.705 469.017 222.315 468.449 222.199C467.883 222.084 467.566 221.288 467.742 220.421C467.918 219.553 468.521 218.944 469.088 219.059C469.655 219.174 469.971 219.972 469.795 220.837Z" fill="#171D34"/>
<path d="M469.098 222.332C469.098 222.332 466.109 226.934 463.447 228.907C464.691 230.652 467.433 230.527 467.433 230.527L469.098 222.332Z" fill="#FF5652"/>
<path d="M466.285 252.933L466.352 242.709L479.893 244.345C479.893 244.345 479.661 253.138 472.099 255.722L466.285 252.933Z" fill="#FF8B7B"/>
<path d="M470.179 235.344L479.713 238.083L479.896 244.343L466.354 242.707L470.179 235.344Z" fill="#FF8B7B"/>
<path opacity="0.2" d="M479.716 238.083L470.185 235.338L468.328 238.895C468.562 244.932 472.244 249.893 477.127 252.123C479.779 248.645 479.888 244.339 479.888 244.339L479.716 238.083Z" fill="#171D34"/>
<path d="M473.95 216.666C474.077 216.666 474.203 216.621 474.303 216.527C474.514 216.332 474.526 216.003 474.331 215.793C472.379 213.68 470.011 214.056 469.908 214.073C469.626 214.122 469.436 214.39 469.484 214.673C469.532 214.955 469.804 215.144 470.082 215.098C470.16 215.086 472.011 214.814 473.568 216.499C473.671 216.61 473.81 216.666 473.95 216.666Z" fill="#171D34"/>
<path d="M493.882 236.623C492.308 244.651 491.358 255.772 496.974 261.129C496.974 261.129 494.779 269.272 479.864 269.272C463.462 269.272 471.973 262.126 471.973 262.126C478.79 260.011 478.731 252.245 477.171 246.006L493.882 236.623Z" fill="#FF8B7B"/>
<path d="M500.046 266.497C501.506 264.429 501.449 257.894 499.889 256.741C497.371 254.88 486.602 254.452 472.096 257.788C473.657 264.118 470.312 267.436 470.312 267.436L500.046 266.497Z" fill="#307FF4"/>
<path d="M548.8 636.847C547.698 637.086 546.599 637.148 546.068 636.697C545.845 636.507 545.622 636.145 545.817 635.49C545.92 635.145 546.145 634.888 546.486 634.726C547.968 634.019 551.372 635.406 551.517 635.465C551.612 635.504 551.675 635.594 551.678 635.697C551.681 635.8 551.623 635.894 551.531 635.939C551.01 636.19 549.906 636.608 548.8 636.847ZM547.015 635.094C546.903 635.119 546.801 635.151 546.711 635.195C546.505 635.293 546.375 635.438 546.316 635.638C546.177 636.106 546.35 636.253 546.408 636.301C546.998 636.803 549.19 636.34 550.732 635.722C549.684 635.354 547.99 634.883 547.015 635.094Z" fill="#307FF4"/>
<path d="M551.475 635.96C551.433 635.969 551.389 635.967 551.347 635.955C550.107 635.593 547.453 633.707 547.42 632.464C547.414 632.237 547.494 631.829 548.085 631.623C548.469 631.489 548.855 631.52 549.236 631.715C550.702 632.464 551.629 635.502 551.668 635.632C551.696 635.724 551.671 635.822 551.604 635.889C551.567 635.925 551.523 635.949 551.475 635.96ZM548.369 632.081C548.331 632.089 548.292 632.1 548.255 632.113C547.933 632.225 547.938 632.382 547.94 632.45C547.958 633.186 549.71 634.665 550.994 635.264C550.673 634.387 549.94 632.657 549.001 632.178C548.785 632.067 548.578 632.036 548.369 632.081Z" fill="#307FF4"/>
<path d="M467.789 638.687C466.38 638.687 465.02 638.494 464.565 637.86C464.405 637.639 464.279 637.261 464.586 636.725C464.758 636.423 465.036 636.219 465.41 636.116C467.237 635.62 471.071 637.804 471.234 637.898C471.327 637.952 471.377 638.058 471.36 638.164C471.343 638.271 471.26 638.356 471.154 638.378C470.454 638.519 469.101 638.687 467.789 638.687ZM466.048 636.559C465.866 636.559 465.696 636.578 465.546 636.618C465.306 636.684 465.14 636.803 465.037 636.982C464.853 637.305 464.92 637.466 464.987 637.556C465.497 638.266 468.271 638.281 470.312 637.993C469.293 637.472 467.33 636.559 466.048 636.559Z" fill="#307FF4"/>
<path d="M471.104 638.386C471.069 638.386 471.033 638.378 470.998 638.363C469.674 637.768 467.05 635.396 467.251 634.154C467.298 633.862 467.505 633.5 468.218 633.427C468.752 633.372 469.234 633.524 469.66 633.873C471.056 635.02 471.351 637.974 471.363 638.101C471.373 638.193 471.331 638.283 471.256 638.336C471.212 638.369 471.157 638.386 471.104 638.386ZM468.427 633.937C468.376 633.937 468.324 633.94 468.271 633.945C467.803 633.992 467.774 634.176 467.764 634.237C467.644 634.981 469.426 636.846 470.778 637.658C470.638 636.795 470.246 635.026 469.331 634.274C469.055 634.049 468.757 633.937 468.427 633.937Z" fill="#307FF4"/>
<path d="M483.171 638.124H472.197L471.105 612.715H482.077L483.171 638.124Z" fill="#FF8B7B"/>
<path d="M563.705 633.045L552.982 635.367L542.215 611.7L552.938 609.377L563.705 633.045Z" fill="#FF8B7B"/>
<path d="M551.951 634.29L563.999 631.682C564.437 631.587 564.884 631.81 565.071 632.217L569.253 641.292C569.687 642.232 569.113 643.337 568.096 643.538C563.874 644.376 561.778 644.572 556.478 645.719C553.218 646.424 545.859 648.218 541.359 649.191C536.956 650.145 535.306 645.842 537.061 645.04C544.933 641.444 548.221 638.278 550.352 635.326C550.738 634.794 551.31 634.429 551.951 634.29Z" fill="#171D34"/>
<path d="M472.269 636.855H484.252C484.701 636.855 485.088 637.167 485.186 637.604L487.353 647.357C487.578 648.368 486.81 649.326 485.774 649.309C481.452 649.236 475.205 648.981 469.773 648.981C463.421 648.981 457.935 649.328 450.484 649.328C445.979 649.328 444.729 644.774 446.615 644.361C455.2 642.482 462.207 642.281 469.625 637.709C470.433 637.213 471.322 636.855 472.269 636.855Z" fill="#171D34"/>
<path d="M516.621 263.608C526.904 265.965 535.384 292.22 535.384 292.22L514.733 307.96C514.733 307.96 507.153 300.814 503.78 287.682C500.244 273.921 506.105 261.198 516.621 263.608Z" fill="#307FF4"/>
<path opacity="0.4" d="M516.621 263.608C526.904 265.965 535.384 292.22 535.384 292.22L514.733 307.96C514.733 307.96 507.153 300.814 503.78 287.682C500.244 273.921 506.105 261.198 516.621 263.608Z" fill="#171D34"/>
<path d="M462.544 294.942C459.978 297.711 457.419 300.174 454.769 302.709C453.454 303.97 452.109 305.205 450.734 306.417L448.663 308.232L448.142 308.682C447.889 308.899 447.582 309.157 447.253 309.408C446.566 309.915 445.814 310.506 444.239 311.188C443.404 311.509 442.331 311.935 440.445 311.972C439.548 311.986 438.331 311.83 437.169 311.391C435.982 310.951 434.833 310.189 434.047 309.406C432.415 307.767 431.922 306.328 431.601 305.366C431.303 304.374 431.217 303.665 431.156 303.046C431.058 301.836 431.121 301.017 431.188 300.258C431.261 299.51 431.364 298.862 431.478 298.251C431.937 295.845 432.585 293.905 433.289 291.961C434.002 290.037 434.791 288.19 435.713 286.323C436.704 284.335 437.66 282.894 438.613 281.233C442.468 274.79 446.992 268.906 451.798 263.36C456.709 257.851 461.864 252.816 467.79 248.201L473.532 254.109C469.498 259.505 465.533 265.288 461.868 270.991C458.207 276.737 454.811 282.587 451.887 288.535C451.213 290.005 450.382 291.614 449.914 292.844C449.366 294.187 448.864 295.63 448.451 297.051C448.042 298.455 447.713 299.918 447.565 300.992C447.53 301.251 447.513 301.477 447.513 301.608C447.508 301.728 447.54 301.795 447.524 301.463C447.508 301.282 447.491 301.012 447.323 300.441C447.132 299.898 446.836 298.87 445.523 297.541C444.889 296.918 443.938 296.266 442.952 295.914C441.998 295.541 441.002 295.432 440.325 295.435C438.882 295.468 438.237 295.762 437.81 295.915C437.045 296.246 437.03 296.335 437.038 296.301L437.637 295.755L439.51 294.039L443.24 290.546C445.708 288.22 448.192 285.739 450.536 283.437L462.544 294.942Z" fill="#FF8B7B"/>
<path opacity="0.2" d="M507.805 282.914C513.392 288.441 515.214 298.508 515.647 307.259L514.736 307.961C514.736 307.961 507.148 300.807 503.773 287.678C503.564 286.858 503.384 286.036 503.234 285.229L507.805 282.914Z" fill="#171D34"/>
<path d="M451.634 274.611C449.391 286.465 447.987 310.808 454.5 359.015H513.188C513.592 350.006 507.931 306.057 516.622 263.608C516.622 263.608 506.562 261.59 496.975 261.128C489.476 260.766 478.619 260.527 472.026 261.129C469.274 261.381 466.574 261.778 464.167 262.204C457.821 263.326 452.832 268.279 451.634 274.611Z" fill="#307FF4"/>
<path opacity="0.4" d="M451.634 274.611C449.391 286.465 447.987 310.808 454.5 359.015H513.188C513.592 350.006 507.931 306.057 516.622 263.608C516.622 263.608 506.562 261.59 496.975 261.128C489.476 260.766 478.619 260.527 472.026 261.129C469.274 261.381 466.574 261.778 464.167 262.204C457.821 263.326 452.832 268.279 451.634 274.611Z" fill="#171D34"/>
<path opacity="0.2" d="M460.612 292.133L450.008 289.594C449.678 296.016 449.649 303.977 450.128 313.821C455.012 308.264 461.24 299.601 460.612 292.133Z" fill="#171D34"/>
<path opacity="0.2" d="M471.107 612.721L471.669 625.818H482.647L482.085 612.721H471.107Z" fill="#171D34"/>
<path opacity="0.2" d="M552.945 609.383L542.215 611.706L547.77 623.905L558.5 621.582L552.945 609.383Z" fill="#171D34"/>
<path d="M499.099 224.878C496.28 235.397 495.164 241.697 488.673 246.071C478.909 252.649 466.754 245.099 466.373 233.95C466.031 223.914 470.699 208.398 481.985 206.278C493.107 204.191 501.917 214.359 499.099 224.878Z" fill="#FF8B7B"/>
<path d="M474.469 225.282C473.948 223.872 471.517 213.002 473.798 210.18C476.08 207.358 502.051 209.387 505.892 213.167C512.263 219.437 507.843 225.033 500.869 232.252C495.622 237.681 495.421 243.801 492.775 244.698C488.139 246.272 480.949 244.793 479.508 239.843C478.066 234.895 474.469 225.282 474.469 225.282Z" fill="#171D34"/>
<path d="M502.747 200.804C493.567 196.894 476.357 201.219 467.062 198.979C466.73 203.791 469.635 211.508 478.928 213.583C478.928 213.583 492.121 216.156 502.328 215.741C512.535 215.326 510.543 204.123 502.747 200.804Z" fill="#171D34"/>
<path d="M504.184 213.501C504.184 213.501 509.86 214.141 513.89 211.639C515.614 215.787 506.177 216.925 504.184 213.501Z" fill="#171D34"/>
<path d="M479.473 225.715C479.303 228.562 477.981 231.241 476.39 232.994C473.999 235.629 471.503 233.99 471.078 230.779C470.696 227.89 471.481 223.037 474.406 221.584C477.287 220.151 479.666 222.46 479.473 225.715Z" fill="#FF8B7B"/>
<path d="M475.316 359.016C475.316 359.016 487.768 442.87 494.606 474.286C502.092 508.688 542.234 622.507 542.234 622.507L561.876 618.255C561.876 618.255 533.807 525.5 527.523 477.404C522.697 440.46 513.187 359.016 513.187 359.016H475.316Z" fill="#307FF4"/>
<path d="M537.531 615.951C537.446 615.97 541.192 623.054 541.192 623.054L563.291 618.269L561.428 611.625L537.531 615.951Z" fill="#171D34"/>
<path opacity="0.3" d="M483.187 388.893C497.586 391.717 496.062 445.412 494.33 473.029C490.178 453.507 484.1 415.942 479.947 389.282C480.902 388.804 481.978 388.654 483.187 388.893Z" fill="#171D34"/>
<path d="M454.5 359.016C454.5 359.016 452.988 441.056 454.181 474.516C455.423 509.322 467.58 623.283 467.58 623.283H486.168C486.168 623.283 486.849 511.356 487.676 477.173C488.578 439.909 493.077 359.016 493.077 359.016H454.5Z" fill="#307FF4"/>
<path d="M464.003 615.879C463.917 615.879 465.051 623.596 465.051 623.596H487.662L488.273 616.709L464.003 615.879Z" fill="#171D34"/>
<path d="M474.633 278.21C479.895 292.389 448.983 309.09 448.983 309.09L435.602 291.886C435.602 291.886 444.529 274.118 455.485 266.107C469.018 256.212 470.627 267.416 474.633 278.21Z" fill="#307FF4"/>
<path opacity="0.4" d="M474.633 278.21C479.895 292.389 448.983 309.09 448.983 309.09L435.602 291.886C435.602 291.886 444.529 274.118 455.485 266.107C469.018 256.212 470.627 267.416 474.633 278.21Z" fill="#171D34"/>
<path d="M595.725 170.559C626.817 170.559 652.021 154.495 652.021 134.679C652.021 114.863 626.817 98.7988 595.725 98.7988C564.634 98.7988 539.43 114.863 539.43 134.679C539.43 154.495 564.634 170.559 595.725 170.559Z" fill="#307FF4"/>
<path d="M575.399 152.738C572.271 152.738 569.218 151.802 566.566 149.994C563.009 147.57 560.646 143.894 559.911 139.645C558.51 131.522 563.904 123.429 571.937 121.603C578.551 120.104 585.269 122.923 588.821 128.65L624.961 121.192C627.889 120.588 630.864 122.334 631.585 125.087C631.967 126.55 631.741 128.062 630.945 129.344C630.148 130.627 628.897 131.499 627.42 131.804L626.471 132.001C626.187 132.059 625.957 132.23 625.819 132.483C625.682 132.733 625.662 133.027 625.765 133.293L626.401 134.949C626.833 136.071 626.431 137.333 625.44 137.949C624.67 138.43 624.145 139.253 624.041 140.155C623.913 141.259 623.175 142.11 622.163 142.319L621.419 142.472C620.409 142.678 619.395 142.194 618.838 141.23C618.186 140.104 616.891 139.523 615.612 139.788C614.328 140.054 613.363 141.1 613.207 142.394C613.074 143.5 612.336 144.348 611.327 144.556L610.598 144.706C609.598 144.913 608.575 144.426 608.018 143.464C607.561 142.678 606.75 142.128 605.847 141.994C604.694 141.823 603.822 140.824 603.773 139.62L603.702 137.846C603.691 137.558 603.56 137.302 603.333 137.125C603.107 136.948 602.836 136.884 602.543 136.94L591.027 139.317C590.05 145.843 585.131 151.067 578.623 152.41C577.548 152.627 576.469 152.738 575.399 152.738ZM572.282 123.124C565.045 124.769 560.185 132.062 561.451 139.38C562.11 143.209 564.24 146.52 567.446 148.705C570.651 150.891 574.508 151.663 578.309 150.878C584.339 149.634 588.858 144.688 589.551 138.573L589.615 138.012L602.227 135.408C602.956 135.257 603.709 135.434 604.294 135.893C604.879 136.35 605.23 137.038 605.262 137.781L605.333 139.554C605.351 140.004 605.67 140.389 606.076 140.448C607.466 140.656 608.664 141.469 609.368 142.679C609.539 142.975 609.865 143.261 610.285 143.175L611.013 143.025C611.427 142.94 611.619 142.546 611.659 142.206C611.892 140.247 613.355 138.661 615.299 138.26C617.236 137.86 619.2 138.74 620.189 140.447C620.361 140.743 620.685 141.032 621.105 140.943L621.851 140.79C622.264 140.704 622.454 140.313 622.492 139.974C622.654 138.583 623.431 137.363 624.62 136.625C624.969 136.408 625.108 135.929 624.947 135.511L624.311 133.853C624.044 133.158 624.095 132.388 624.453 131.736C624.81 131.085 625.431 130.625 626.159 130.475L627.108 130.279C628.162 130.062 629.055 129.438 629.623 128.525C630.19 127.611 630.353 126.532 630.08 125.486C629.565 123.524 627.407 122.282 625.278 122.725L588.042 130.41L587.762 129.92C584.637 124.461 578.425 121.728 572.282 123.124ZM575.419 146.971C573.488 146.971 571.598 146.409 569.946 145.323C567.716 143.855 566.191 141.609 565.653 138.996C565.112 136.378 565.622 133.709 567.09 131.481C568.556 129.255 570.804 127.733 573.419 127.193C576.037 126.652 578.706 127.16 580.932 128.625C583.158 130.088 584.681 132.338 585.22 134.957C585.762 137.57 585.251 140.238 583.788 142.465C582.323 144.696 580.074 146.222 577.455 146.762C576.778 146.902 576.096 146.971 575.419 146.971ZM575.466 128.542C574.89 128.542 574.311 128.602 573.734 128.72C571.528 129.176 569.631 130.461 568.394 132.339C567.157 134.219 566.726 136.47 567.182 138.681C567.638 140.885 568.923 142.78 570.806 144.019C572.687 145.256 574.938 145.688 577.144 145.233C579.353 144.777 581.25 143.489 582.487 141.607C583.723 139.728 584.152 137.478 583.696 135.271C583.239 133.06 581.955 131.162 580.077 129.926C578.687 129.017 577.094 128.542 575.466 128.542Z" fill="white"/>
<path opacity="0.6" d="M549.892 191.595C560.111 191.595 568.395 186.315 568.395 179.801C568.395 173.288 560.111 168.008 549.892 168.008C539.673 168.008 531.389 173.288 531.389 179.801C531.389 186.315 539.673 191.595 549.892 191.595Z" fill="#307FF4"/>
<path opacity="0.3" d="M520.461 196.433C524.656 196.433 528.056 194.266 528.056 191.593C528.056 188.919 524.656 186.752 520.461 186.752C516.266 186.752 512.865 188.919 512.865 191.593C512.865 194.266 516.266 196.433 520.461 196.433Z" fill="#307FF4"/>
</svg>
