<svg width="300" height="300" viewBox="0 0 300 300" fill="none" xmlns="http://www.w3.org/2000/svg">
<g clip-path="url(#clip0_1276_44451)">
<path d="M286.801 206.103C293.245 191.68 302.768 164.077 298.82 129.786C293.754 85.7904 269.162 51.16 245.278 31.727C166.024 -32.7578 21.3686 9.42534 2.36038 70.4193C-1.08816 81.4849 -0.0819442 92.1457 1.15625 105.264C5.09431 146.986 25.2854 159.337 38.9603 203.612C51.4052 243.904 39.2535 248.475 50.838 266.371C75.9678 305.194 148.213 306.961 197.871 288.183C216.945 280.97 263.217 258.879 286.801 206.103Z" fill="#99C1FB"/>
<path d="M287.777 71.8766C287.413 71.8766 287.048 71.8088 286.698 71.6728C285.937 71.3771 285.339 70.7968 285.012 70.0393C284.345 68.4937 285.037 66.6813 286.556 65.9998C287.289 65.6708 288.105 65.6492 288.854 65.9405C289.614 66.2362 290.213 66.8165 290.54 67.5743C291.206 69.1196 290.513 70.9315 288.996 71.6135C288.605 71.7886 288.191 71.8766 287.777 71.8766ZM287.775 66.8225C287.512 66.8225 287.249 66.8784 287.001 66.9896C286.02 67.43 285.575 68.6048 286.008 69.6087C286.219 70.0978 286.604 70.4713 287.091 70.661C287.567 70.8458 288.086 70.832 288.551 70.6231C289.531 70.1829 289.976 69.0077 289.543 68.0037C289.332 67.515 288.948 67.1412 288.46 66.9518C288.238 66.8656 288.006 66.8225 287.775 66.8225Z" fill="#171D34"/>
<path d="M275.364 55.2254C275.178 55.2254 274.997 55.1296 274.896 54.9576C274.843 54.8681 269.525 45.9135 258.402 35.4639C248.144 25.8255 230.707 12.9063 205.891 6.09265C205.602 6.01352 205.432 5.71454 205.512 5.42555C205.591 5.13623 205.891 4.96684 206.179 5.04613C231.227 11.9237 248.825 24.9692 259.177 34.7021C270.401 45.2546 275.779 54.3177 275.832 54.4078C275.983 54.6664 275.897 54.9988 275.639 55.1505C275.552 55.2013 275.458 55.2254 275.364 55.2254Z" fill="#171D34"/>
<path d="M280.914 57.3057C280.698 57.3057 280.494 57.176 280.41 56.963C280.376 56.8793 276.989 48.478 267.832 37.8075C259.382 27.961 244.149 14.1125 219.568 4.05534C219.29 3.94165 219.158 3.62497 219.271 3.34729C219.384 3.07059 219.7 2.93642 219.979 3.05044C244.786 13.2001 260.162 27.192 268.692 37.1428C277.95 47.9434 281.385 56.4782 281.419 56.5633C281.529 56.8418 281.392 57.1573 281.114 57.2675C281.048 57.2934 280.981 57.3057 280.914 57.3057Z" fill="#171D34"/>
<path d="M83.9887 44.5332C83.946 44.5332 83.9026 44.5283 83.859 44.5176C83.5679 44.4462 83.3896 44.1523 83.4611 43.861L84.1296 41.1346C84.2011 40.8435 84.4943 40.6661 84.7863 40.7367C85.0774 40.8081 85.2555 41.102 85.1842 41.3931L84.5156 44.1195C84.4548 44.3676 84.2329 44.5332 83.9887 44.5332Z" fill="#171D34"/>
<path d="M82.4301 50.8837C82.3873 50.8837 82.3439 50.8788 82.3004 50.8682C82.0092 50.7968 81.8312 50.5028 81.9024 50.2117L82.5707 47.4857C82.6419 47.1945 82.9357 47.0165 83.2271 47.0877C83.5182 47.1591 83.6963 47.4531 83.6251 47.7442L82.9568 50.4702C82.8962 50.7179 82.6742 50.8837 82.4301 50.8837Z" fill="#171D34"/>
<path d="M81.7304 45.9012C81.6876 45.9012 81.6442 45.8963 81.6006 45.8857L78.8746 45.2171C78.5835 45.1457 78.4054 44.8518 78.4766 44.5607C78.5479 44.2699 78.8416 44.0928 79.1331 44.1627L81.8592 44.8313C82.1503 44.9027 82.3285 45.1966 82.2571 45.4879C82.1965 45.7354 81.9747 45.9012 81.7304 45.9012Z" fill="#171D34"/>
<path d="M88.0818 47.4582C88.039 47.4582 87.9956 47.4533 87.9522 47.4427L85.2261 46.7741C84.935 46.7027 84.7569 46.4088 84.8282 46.1177C84.8996 45.8265 85.1925 45.648 85.4846 45.7197L88.2107 46.3883C88.5018 46.4597 88.6799 46.7536 88.6086 47.0449C88.5479 47.2924 88.3259 47.4582 88.0818 47.4582Z" fill="#171D34"/>
<path d="M110.34 270.228C114.888 266.835 119.62 263.671 124.443 260.653C134.232 254.529 144.445 249.054 154.744 243.749C160.161 240.958 165.746 238.433 171.271 235.836C176.829 233.223 182.399 230.634 187.97 228.047C193.061 225.683 198.152 223.318 203.235 220.94C218.092 184.129 234.414 142.396 232.043 142.396L52.4361 137.357C48.1958 137.357 44.9914 140.776 45.2931 144.978L54.1497 268.341C54.4515 272.543 58.1467 275.962 62.3871 275.962H102.474C105.045 273.989 107.744 272.166 110.34 270.228Z" fill="#307FF4"/>
<path d="M56.125 138.288H237.67C241.417 138.288 244.676 141.307 244.942 145.014L253.799 268.376C254.063 272.055 251.279 275.031 247.559 275.031H66.014C62.2665 275.031 59.0072 272.012 58.7412 268.305L49.8845 144.943C49.8845 144.943 49.8845 144.943 49.8845 144.943C49.6205 141.264 52.4049 138.288 56.125 138.288Z" fill="white" stroke="#171D34"/>
<path d="M231.949 143.833H63.3048C59.5825 143.833 56.7798 146.824 57.0447 150.513L65.2719 265.109C65.5368 268.798 68.7691 271.789 72.4912 271.789H241.135C244.857 271.789 247.66 268.798 247.395 265.109L239.168 150.513C238.903 146.824 235.671 143.833 231.949 143.833Z" fill="#99C1FB"/>
<path d="M60.8254 280.717L60.327 280.753L60.8254 280.717C60.6329 278.037 62.617 275.883 65.241 275.883H137.429C137.459 275.939 137.493 276.004 137.532 276.077C137.685 276.368 137.901 276.785 138.151 277.285C138.651 278.286 139.286 279.616 139.829 280.943C140.377 282.28 140.814 283.573 140.943 284.513C141.009 284.994 140.983 285.305 140.914 285.474C140.884 285.547 140.854 285.575 140.835 285.587C140.815 285.6 140.769 285.624 140.664 285.624H66.0121C63.3585 285.624 61.0197 283.424 60.8254 280.717Z" fill="#5B9AF8" stroke="#171D34"/>
<path d="M137.766 275.363L137.766 275.362L137.754 275.34H65.241C63.8262 275.34 62.5388 275.895 61.6049 276.898L137.766 275.363ZM137.766 275.363C138.166 276.096 139.346 278.312 140.278 280.587C140.744 281.726 141.141 282.862 141.349 283.823C141.453 284.304 141.507 284.726 141.504 285.074C141.5 285.428 141.439 285.662 141.355 285.805C141.221 286.03 140.995 286.166 140.664 286.166H66.0123M137.766 275.363L66.0123 286.166M60.3691 280.75L60.3691 280.75C60.2667 279.323 60.7229 277.971 61.6675 276.957L60.3691 280.75ZM60.3691 280.75C60.5804 283.687 63.0988 286.081 66.0123 286.081H140.664C140.772 286.081 140.91 286.068 141.043 285.996C141.191 285.915 141.26 285.797 141.278 285.766L141.281 285.762L141.281 285.762M60.3691 280.75L141.281 285.762M141.281 285.762C141.421 285.525 141.453 285.238 141.45 284.981C141.448 284.71 141.405 284.398 141.336 284.064C141.197 283.394 140.938 282.568 140.6 281.664C139.924 279.854 138.912 277.673 137.846 275.689L137.704 275.426M141.281 285.762L137.704 275.426M137.704 275.426L137.405 275.426M137.704 275.426L137.405 275.426M137.405 275.426L65.2408 275.426C63.8615 275.426 62.5887 275.967 61.6676 276.957L137.405 275.426ZM66.0123 286.166C63.0796 286.166 60.4981 283.74 60.284 280.756M66.0123 286.166L60.284 280.756M60.284 280.756C60.1787 279.288 60.6513 277.922 61.6048 276.898L60.284 280.756ZM140.851 285.506C140.83 285.541 140.806 285.581 140.664 285.581H66.0123C63.3685 285.581 61.0608 283.398 60.8678 280.714L140.851 285.506ZM140.851 285.506C141.411 284.564 139.521 279.863 137.405 275.926L140.851 285.506Z" fill="#171D34" stroke="#171D34"/>
<path d="M113.429 275.882H284.541C287.199 275.882 289.533 278.077 289.728 280.789C289.92 283.473 287.941 285.623 285.312 285.623H114.2C111.542 285.623 109.208 283.428 109.013 280.717C108.82 278.032 110.8 275.882 113.429 275.882Z" fill="#5B9AF8" stroke="#171D34"/>
<path d="M108.472 280.756L108.472 280.756C108.366 279.286 108.838 277.919 109.79 276.896C110.723 275.894 112.011 275.34 113.429 275.34H284.541C287.473 275.34 290.055 277.766 290.269 280.75C290.374 282.22 289.902 283.586 288.95 284.609L288.95 284.609C288.017 285.612 286.729 286.166 285.312 286.166H114.2C111.267 286.166 108.685 283.739 108.472 280.756ZM109.853 276.955C108.909 277.968 108.454 279.321 108.557 280.75L108.557 280.75C108.768 283.688 111.286 286.081 114.2 286.081H285.312C286.693 286.081 287.967 285.54 288.887 284.551C289.831 283.538 290.286 282.185 290.184 280.756L290.184 280.756C289.973 277.819 287.454 275.425 284.541 275.425L113.429 275.425C112.047 275.425 110.773 275.966 109.853 276.955Z" fill="#307FF4" stroke="#171D34"/>
<path d="M55.232 226.96C54.95 226.96 54.7118 226.742 54.6913 226.456L48.8444 145.017C48.6963 142.953 49.367 141.008 50.733 139.54C52.1108 138.06 54.0256 137.245 56.1248 137.245H94.9821C95.2817 137.245 95.5249 137.488 95.5249 137.788C95.5249 138.087 95.2817 138.33 94.9821 138.33H56.125C54.3306 138.33 52.6977 139.023 51.5279 140.28C50.3693 141.525 49.8006 143.179 49.9271 144.939L55.7739 226.378C55.7955 226.677 55.5704 226.937 55.2715 226.958C55.2585 226.959 55.2451 226.96 55.232 226.96Z" fill="#171D34"/>
<path d="M232.637 148.383H63.261C61.5035 148.383 60.1799 149.795 60.3051 151.537L60.4717 153.857C60.5967 155.599 62.1229 157.012 63.8806 157.012H233.256C235.014 157.012 236.337 155.6 236.212 153.857L236.046 151.537C235.92 149.795 234.394 148.383 232.637 148.383Z" fill="#5B9AF8"/>
<path d="M68.9297 186.923H126.985L130.162 231.174H72.1066L68.9297 186.923Z" fill="#99C1FB"/>
<path d="M139.514 167.638H97.2031L133.21 183.219L172.466 182.244C172.603 182.244 172.631 182.058 172.502 182.002L139.514 167.638Z" fill="#5B9AF8"/>
<path d="M172.563 182.787H170.735C170.435 182.787 170.192 182.543 170.192 182.244C170.192 182.014 170.334 181.818 170.536 181.739L139.399 168.18H100.191C99.8916 168.18 99.6484 167.937 99.6484 167.638C99.6484 167.338 99.8916 167.095 100.191 167.095H139.512C139.587 167.095 139.661 167.11 139.729 167.14L172.809 181.545C173.097 181.67 173.255 181.971 173.191 182.277C173.129 182.577 172.871 182.787 172.563 182.787ZM172.376 182.54C172.376 182.54 172.376 182.54 172.377 182.541L172.376 182.54Z" fill="#307FF4"/>
<path d="M130.83 182.255H65.375L97.1543 167.638L130.83 182.255Z" fill="white"/>
<path d="M130.83 182.799H65.3747C65.1196 182.799 64.8991 182.621 64.8447 182.372C64.79 182.123 64.9161 181.869 65.148 181.763L96.9273 167.146C97.0678 167.081 97.2284 167.079 97.3704 167.141L131.046 181.758C131.282 181.86 131.414 182.115 131.361 182.366C131.309 182.618 131.087 182.799 130.83 182.799ZM67.8535 181.713H128.216L97.1604 168.233L67.8535 181.713Z" fill="#307FF4"/>
<path d="M170.056 186.876H127L130.175 231.095H173.231L170.056 186.876Z" fill="#99C1FB"/>
<path d="M87.2166 231.174H83.0443L79.8672 186.923H84.0395L87.2166 231.174Z" fill="white"/>
<path d="M97.9861 231.174H93.8138L90.6367 186.923H94.809L97.9861 231.174Z" fill="white"/>
<path d="M108.755 231.174H104.583L101.406 186.923H105.579L108.755 231.174Z" fill="white"/>
<path d="M119.525 231.174H115.353L112.176 186.923H116.348L119.525 231.174Z" fill="white"/>
<path d="M130.162 231.174H125.989L122.812 186.923H126.985L130.162 231.174Z" fill="white"/>
<path d="M76.4469 231.174H72.2746L69.0977 186.923H73.27L76.4469 231.174Z" fill="white"/>
<path d="M140.931 231.174H136.759L133.582 186.923H137.754L140.931 231.174Z" fill="#5B9AF8"/>
<path d="M151.701 231.174H147.529L144.352 186.923H148.524L151.701 231.174Z" fill="#5B9AF8"/>
<path d="M162.47 231.174H158.298L155.121 186.923H159.293L162.47 231.174Z" fill="#5B9AF8"/>
<path d="M173.24 231.174H169.068L165.891 186.923H170.063L173.24 231.174Z" fill="#5B9AF8"/>
<path d="M147.33 186.93H170.062L169.728 182.274H126.672L127.006 186.93H135.597H147.33Z" fill="#5B9AF8"/>
<path d="M126.671 182.274H68.7656L69.0998 186.93H127.005L126.671 182.274Z" fill="white"/>
<path d="M127.005 187.473H69.0996C68.8147 187.473 68.5788 187.253 68.5583 186.969L68.2241 182.313C68.2131 182.163 68.2654 182.015 68.3683 181.905C68.4708 181.794 68.615 181.732 68.7654 181.732H126.671C126.955 181.732 127.191 181.952 127.212 182.236L127.546 186.891C127.557 187.041 127.505 187.189 127.402 187.3C127.3 187.41 127.155 187.473 127.005 187.473ZM69.6048 186.387H126.422L126.165 182.817H69.3483L69.6048 186.387Z" fill="#307FF4"/>
<path d="M72.0703 231.174H173.271L173.991 241.201H72.7902L72.0703 231.174Z" fill="#5B9AF8"/>
<path d="M136.816 231.353C136.535 231.353 136.297 231.136 136.276 230.85L133.166 188.38C133.144 188.081 133.368 187.821 133.667 187.799C133.966 187.774 134.227 188.002 134.248 188.301L137.358 230.771C137.38 231.07 137.156 231.33 136.857 231.352C136.843 231.353 136.83 231.353 136.816 231.353Z" fill="#307FF4"/>
<path d="M157.408 221.551C157.125 221.551 156.887 221.332 156.868 221.045L154.701 189.375C154.68 189.076 154.906 188.817 155.205 188.797C155.499 188.776 155.763 189.002 155.783 189.301L157.95 220.971C157.971 221.27 157.745 221.529 157.446 221.55C157.433 221.551 157.421 221.551 157.408 221.551Z" fill="#307FF4"/>
<path d="M130.032 229.955C129.75 229.955 129.512 229.737 129.492 229.451L126.583 188.95C126.562 188.651 126.787 188.391 127.086 188.37C127.387 188.351 127.645 188.573 127.666 188.872L130.574 229.374C130.596 229.673 130.371 229.932 130.072 229.954C130.059 229.955 130.045 229.955 130.032 229.955Z" fill="#307FF4"/>
<path d="M72.1553 230.078C71.8733 230.078 71.6351 229.86 71.6146 229.574L68.6772 188.658C68.6556 188.359 68.8807 188.1 69.1797 188.078C69.479 188.056 69.7386 188.282 69.7599 188.581L72.6973 229.496C72.719 229.795 72.4939 230.055 72.1949 230.076C72.1818 230.077 72.1684 230.078 72.1553 230.078Z" fill="#307FF4"/>
<path d="M136.957 241.822C136.658 241.822 136.415 241.58 136.414 241.281C136.413 240.981 136.656 240.738 136.956 240.737L173.408 240.66L169.66 188.864C169.639 188.565 169.863 188.305 170.162 188.283C170.459 188.259 170.721 188.486 170.743 188.785L174.533 241.162C174.544 241.312 174.492 241.46 174.389 241.57C174.287 241.68 174.143 241.743 173.993 241.744L136.958 241.822C136.957 241.822 136.957 241.822 136.957 241.822Z" fill="#307FF4"/>
<path d="M135.597 187.473H127.006C126.721 187.473 126.485 187.253 126.465 186.969L126.13 182.313C126.119 182.163 126.172 182.015 126.274 181.905C126.377 181.794 126.521 181.732 126.672 181.732H136.389C136.689 181.732 136.932 181.975 136.932 182.274C136.932 182.574 136.689 182.817 136.389 182.817H127.255L127.511 186.387H135.597C135.897 186.387 136.14 186.63 136.14 186.93C136.14 187.23 135.897 187.473 135.597 187.473Z" fill="#307FF4"/>
<path d="M170.059 187.473H146.002C145.702 187.473 145.459 187.23 145.459 186.93C145.459 186.63 145.702 186.387 146.002 186.387H169.476L169.22 182.817H145.469C145.169 182.817 144.926 182.574 144.926 182.275C144.926 181.975 145.169 181.732 145.469 181.732H169.725C170.01 181.732 170.246 181.952 170.266 182.236L170.6 186.891C170.611 187.042 170.559 187.189 170.456 187.3C170.354 187.41 170.21 187.473 170.059 187.473Z" fill="#307FF4"/>
<path d="M161.947 256.985H88.8618C87.0098 256.985 85.4017 255.497 85.2699 253.661L85.1063 251.382C84.9746 249.547 86.369 248.059 88.2209 248.059H161.306C163.158 248.059 164.766 249.547 164.898 251.382L165.062 253.661C165.194 255.497 163.799 256.985 161.947 256.985Z" fill="white"/>
<path d="M235.738 256.515H187.183C186.054 256.515 185.068 255.599 184.988 254.486L179.322 175.56C179.322 175.56 179.322 175.56 179.322 175.56C179.244 174.477 180.057 173.604 181.159 173.604H229.713C230.843 173.604 231.829 174.52 231.909 175.632L237.575 254.558C237.653 255.641 236.84 256.515 235.738 256.515Z" fill="white" stroke="#171D34"/>
<path d="M229.064 217.85H188.123C187.66 217.85 187.258 217.477 187.225 217.018L186.772 210.707C186.739 210.248 187.088 209.876 187.551 209.876H228.491C228.954 209.876 229.357 210.248 229.39 210.707L229.843 217.018C229.876 217.477 229.527 217.85 229.064 217.85Z" fill="#73C3FD"/>
<path d="M230.24 232.719H189.299C188.836 232.719 188.434 232.347 188.401 231.888L187.947 225.577C187.915 225.118 188.263 224.746 188.726 224.746H229.667C230.13 224.746 230.532 225.118 230.565 225.577L231.019 231.888C231.051 232.347 230.703 232.719 230.24 232.719Z" fill="#73C3FD"/>
<path d="M231.251 246.802H190.311C189.847 246.802 189.445 246.43 189.412 245.971L188.959 239.66C188.926 239.201 189.275 238.829 189.738 238.829H230.679C231.142 238.829 231.544 239.201 231.577 239.66L232.03 245.971C232.063 246.43 231.714 246.802 231.251 246.802Z" fill="#73C3FD"/>
<path d="M215.484 201.412C219.403 196.81 218.57 189.665 213.624 185.453C208.678 181.242 201.491 181.559 197.572 186.161C193.653 190.764 194.486 197.909 199.432 202.12C204.378 206.332 211.565 206.015 215.484 201.412Z" fill="#73C3FD"/>
<path d="M210.023 191.142C210.168 193.165 208.631 194.805 206.59 194.805C204.549 194.805 202.776 193.165 202.631 191.142C202.485 189.119 204.022 187.479 206.064 187.479C208.105 187.479 209.878 189.119 210.023 191.142Z" fill="white"/>
<path d="M199.534 199.899C204.165 194.082 210.061 195.135 215.205 199.265C215.644 199.618 215.737 200.243 215.404 200.648C212.025 204.764 204.779 206.257 199.578 201.166C199.226 200.821 199.248 200.258 199.534 199.899Z" fill="white"/>
<path d="M209.606 51.88L207.683 53.2242C207.686 53.2281 207.689 53.2317 207.692 53.2356L175.004 77.466C177.1 80.5238 179.024 85.2636 178.659 89.8935C178.152 96.3098 172.689 110.119 155.266 106.585L191.77 141.892C193.503 141.268 196.205 140.213 196.431 140.029C210.735 128.395 219.61 109.893 219.625 89.9827C219.635 76.7213 219.767 60.4451 212.732 50.3408C212.732 50.3408 211.544 51.1167 209.606 51.88Z" fill="#171D34"/>
<path d="M185.304 62.4363L188.722 60.8834L219.555 36.4678C211.373 25.2422 200.161 14.6286 186.425 10.8721C186.425 10.8721 184.455 12.0134 183.007 12.425L174.531 54.8269C178.971 55.9955 182.772 58.744 185.304 62.4363Z" fill="white"/>
<path d="M194.946 140.987L193.582 138.911L172.486 105.485C169.278 107.658 163.904 108.83 159.693 108.827C148.778 108.819 139.718 99.0794 139.726 88.4965C139.734 77.9137 146.565 67.8725 157.48 67.8807C159.212 67.8818 162.807 67.1878 164.408 67.595L176.155 27.6522C176.167 27.655 173.429 27.0911 173.429 27.0911C168.954 26.1406 164.308 25.6317 159.54 25.6284C123.72 25.6016 94.6605 53.7335 94.6328 88.4628C94.6051 123.192 123.62 151.368 159.439 151.394C172.586 151.404 184.82 147.618 195.045 141.107C195.044 141.107 194.95 140.985 194.946 140.987Z" fill="#171D34"/>
<path d="M188.722 60.8834L222.973 34.9148C214.241 22.9345 201.349 14.2111 186.425 10.8718L177.949 53.2738C182.39 54.4425 186.19 57.1911 188.722 60.8834Z" fill="#171D34"/>
<path d="M224.935 87.9199C224.946 73.8603 220.411 60.8645 212.729 50.3246L212.723 50.3293C212.726 50.3331 212.729 50.3369 212.731 50.3408L177.7 76.8893C179.844 80.0163 181.1 83.8033 181.097 87.8858C181.092 94.4675 178.476 100.958 173.479 104.462C170.41 106.614 166.678 107.879 162.65 107.875C152.207 107.867 143.749 99.3663 143.757 88.8881C143.765 78.41 152.237 69.9223 162.679 69.9303C164.336 69.9318 165.943 70.1484 167.474 70.5514L175.95 28.1496C175.962 28.1519 175.974 28.1553 175.986 28.1576L176 28.0891C171.719 27.1483 167.274 26.6442 162.712 26.6409C128.445 26.6142 100.644 54.4687 100.617 88.8549C100.591 123.241 128.349 151.138 162.616 151.165C175.193 151.174 186.898 147.426 196.679 140.979C196.679 140.979 196.641 140.928 196.613 140.893C213.669 129.491 224.918 110.028 224.935 87.9199Z" fill="white"/>
<path d="M162.662 151.708C162.646 151.708 162.631 151.708 162.616 151.708C128.103 151.68 100.047 123.485 100.074 88.8542C100.087 72.0789 106.609 56.3128 118.44 44.4596C130.259 32.6184 145.964 26.0981 162.663 26.0981C162.68 26.0981 162.695 26.0981 162.712 26.0981C167.21 26.1014 171.72 26.5929 176.116 27.5593L176.639 27.6742L176.407 28.7988L176.375 28.7921L167.893 71.2232L167.336 71.0763C165.82 70.6774 164.253 70.4745 162.678 70.4731C162.673 70.4731 162.668 70.4731 162.663 70.4731C157.763 70.4731 153.157 72.3857 149.689 75.8603C146.217 79.3387 144.303 83.9655 144.299 88.8888C144.292 99.0511 152.523 107.325 162.65 107.333C162.655 107.333 162.659 107.333 162.665 107.333C166.442 107.333 170.073 106.187 173.166 104.017C177.718 100.826 180.548 94.6451 180.553 87.8857C180.556 84.0479 179.415 80.3515 177.251 77.1968L176.958 76.7701L212.831 49.5579L213.167 50.0053C221.231 61.0694 225.487 74.1805 225.477 87.9209C225.461 109.236 214.972 129.043 197.39 141.023L197.46 141.115L196.977 141.433C186.777 148.155 174.912 151.708 162.662 151.708ZM162.663 27.1835C146.252 27.1835 130.822 33.5897 119.208 45.2263C107.582 56.8745 101.172 72.369 101.16 88.8549C101.133 122.887 128.703 150.596 162.616 150.622C162.631 150.622 162.647 150.622 162.662 150.622C174.502 150.622 185.975 147.245 195.886 140.848L195.822 140.768L196.311 140.441C213.878 128.698 224.375 109.064 224.392 87.9196C224.402 74.6003 220.335 61.8837 212.622 51.1039L178.434 77.0133C180.535 80.2537 181.642 84.0012 181.639 87.886C181.633 95.1014 178.699 101.464 173.79 104.906C170.513 107.204 166.666 108.418 162.664 108.418C162.659 108.418 162.654 108.418 162.649 108.418C151.924 108.41 143.205 99.6484 143.213 88.8878C143.217 83.6752 145.244 78.7763 148.92 75.0933C152.593 71.4134 157.473 69.3874 162.663 69.3874C162.668 69.3874 162.673 69.3874 162.678 69.3874C164.154 69.3889 165.622 69.557 167.053 69.8881L175.326 28.4997C171.183 27.6291 166.941 27.1863 162.711 27.1835C162.696 27.1835 162.679 27.1835 162.663 27.1835Z" fill="#171D34"/>
<path d="M102.148 156.754C121.695 156.754 137.542 140.907 137.542 121.36C137.542 101.812 121.695 85.9661 102.148 85.9661C82.6003 85.9661 66.7539 101.812 66.7539 121.36C66.7539 140.907 82.6003 156.754 102.148 156.754Z" fill="#171D34"/>
<path d="M127.93 144.573C141.342 131.161 141.342 109.416 127.93 96.0046C114.518 82.593 92.7737 82.593 79.3621 96.0046C65.9504 109.416 65.9504 131.161 79.3621 144.573C92.7737 157.984 114.518 157.984 127.93 144.573Z" fill="#F6BD3D"/>
<path d="M124.024 140.668C135.279 129.413 135.279 111.165 124.024 99.9094C112.769 88.6543 94.521 88.6543 83.2659 99.9094C72.0108 111.165 72.0108 129.413 83.2659 140.668C94.521 151.923 112.769 151.923 124.024 140.668Z" fill="white"/>
<path d="M101.282 140.671L101.218 135.934C97.8746 135.83 94.621 134.976 92.7109 133.905L94.1275 128.05C96.2376 129.168 99.1944 130.176 102.436 130.132C105.278 130.093 107.209 128.969 107.181 126.974C107.155 125.079 105.543 123.904 101.836 122.708C96.4757 120.985 92.8012 118.541 92.7355 113.704C92.6759 109.315 95.7209 105.832 101.043 104.712L100.978 99.9747L105.866 99.9082L105.925 104.297C109.269 104.401 111.522 105.068 113.179 105.844L111.809 111.499C110.505 110.968 108.195 109.852 104.605 109.901C101.364 109.945 100.335 111.355 100.354 112.752C100.377 114.397 102.136 115.421 106.397 116.959C112.36 118.973 114.791 121.683 114.852 126.172C114.912 130.61 111.822 134.443 106.101 135.518L106.17 140.605L101.282 140.671Z" fill="#F6BD3D"/>
<path d="M62.7331 98.3557C72.7487 88.34 72.7487 72.1014 62.7331 62.0857C52.7174 52.0701 36.4788 52.0701 26.4631 62.0857C16.4474 72.1014 16.4474 88.34 26.4631 98.3557C36.4788 108.371 52.7174 108.371 62.7331 98.3557Z" fill="#171D34"/>
<path d="M45.7371 104.408C59.481 104.408 70.6226 93.2664 70.6226 79.5225C70.6226 65.7786 59.481 54.637 45.7371 54.637C31.9932 54.637 20.8516 65.7786 20.8516 79.5225C20.8516 93.2664 31.9932 104.408 45.7371 104.408Z" fill="#F6BD3D"/>
<path d="M60.5045 94.2893C68.6601 86.1337 68.6601 72.9107 60.5045 64.7551C52.3488 56.5994 39.1259 56.5994 30.9702 64.7551C22.8146 72.9107 22.8146 86.1337 30.9702 94.2893C39.1259 102.445 52.3488 102.445 60.5045 94.2893Z" fill="white"/>
<path d="M42.9938 94.1363L43.1871 90.7086C40.7756 90.464 38.467 89.6822 37.1406 88.8111L38.4611 84.6506C39.9298 85.5659 42.0161 86.4437 44.3613 86.576C46.4179 86.692 47.8701 85.9776 47.9514 84.5343C48.0287 83.1632 46.9227 82.232 44.3036 81.1794C40.5159 79.6627 37.9837 77.7101 38.1811 74.2101C38.3601 71.0348 40.7376 68.6713 44.6412 68.1314L44.8346 64.7036L48.3704 64.903L48.1913 68.0783C50.6029 68.3229 52.1982 68.9195 53.3563 69.564L52.0799 73.5823C51.1641 73.1325 49.5511 72.209 46.9532 72.0625C44.608 71.9303 43.7931 72.8979 43.7361 73.9082C43.6689 75.0989 44.8891 75.9278 47.8911 77.2555C52.0994 79.013 53.7193 81.0952 53.5362 84.3426C53.3552 87.5539 50.9274 90.1679 46.7372 90.6556L46.5297 94.336L42.9938 94.1363Z" fill="#F6BD3D"/>
<path d="M132.975 291.502H48.6806C46.16 291.502 43.9436 289.493 43.7299 287.015L39.6377 239.545C39.4241 237.068 41.2943 235.059 43.8148 235.059H128.11C130.63 235.059 132.847 237.068 133.06 239.545L137.153 287.015C137.366 289.493 135.496 291.502 132.975 291.502Z" fill="#307FF4"/>
<path d="M58.3555 262.837H50.4621C49.5363 262.837 48.7222 262.099 48.6438 261.189L47.9749 253.429C47.8964 252.519 48.5833 251.782 49.5089 251.782H57.4024C58.3282 251.782 59.1421 252.519 59.2205 253.429L59.8894 261.189C59.9681 262.099 59.2813 262.837 58.3555 262.837Z" fill="#5B9AF8"/>
<path d="M72.3197 284.308H50.3679C49.6212 284.308 48.9648 283.713 48.9014 282.979L48.7823 281.598C48.719 280.864 49.2729 280.269 50.0196 280.269H71.9714C72.7181 280.269 73.3747 280.864 73.4379 281.598L73.557 282.979C73.6203 283.713 73.0662 284.308 72.3197 284.308Z" fill="#99C1FB"/>
<path d="M64.0241 272.19H49.3211C48.5743 272.19 47.9177 271.595 47.8545 270.861L47.7354 269.48C47.6722 268.746 48.2261 268.151 48.9728 268.151H63.6758C64.4226 268.151 65.079 268.746 65.1424 269.48L65.2615 270.861C65.3248 271.595 64.7707 272.19 64.0241 272.19Z" fill="#99C1FB"/>
<path d="M85.3679 272.296H70.6648C69.9181 272.296 69.2615 271.701 69.1982 270.967L69.0791 269.586C69.0159 268.852 69.5698 268.257 70.3165 268.257H85.0196C85.7663 268.257 86.4229 268.852 86.4862 269.586L86.6053 270.967C86.6687 271.701 86.1146 272.296 85.3679 272.296Z" fill="#99C1FB"/>
<path d="M105.852 272.296H91.1492C90.4025 272.296 89.7458 271.701 89.6826 270.967L89.5635 269.586C89.5003 268.852 90.0542 268.257 90.8009 268.257H105.504C106.251 268.257 106.907 268.852 106.971 269.586L107.09 270.967C107.153 271.701 106.599 272.296 105.852 272.296Z" fill="#99C1FB"/>
<path d="M127.196 272.402H112.493C111.746 272.402 111.09 271.807 111.026 271.073L110.907 269.692C110.844 268.958 111.398 268.363 112.145 268.363H126.848C127.594 268.363 128.251 268.958 128.314 269.692L128.433 271.073C128.497 271.807 127.943 272.402 127.196 272.402Z" fill="#99C1FB"/>
<path d="M132.052 292.044H48.5893C45.849 292.044 43.4304 289.85 43.1983 287.153L39.0846 239.432C38.9726 238.134 39.38 236.908 40.2316 235.98C41.0976 235.036 42.3132 234.516 43.6537 234.516H127.905C130.81 234.516 133.373 236.842 133.62 239.701L136.38 271.722C136.406 272.021 136.185 272.284 135.886 272.31C135.586 272.341 135.325 272.114 135.299 271.816L132.538 239.795C132.339 237.482 130.26 235.602 127.905 235.602H43.6537C42.6208 235.602 41.6895 235.997 41.0315 236.714C40.3877 237.415 40.0804 238.348 40.1659 239.339L44.2796 287.059C44.465 289.209 46.3982 290.959 48.5893 290.959H132.052C133.584 290.959 134.939 290.279 135.77 289.094C135.942 288.848 136.28 288.789 136.526 288.961C136.771 289.133 136.831 289.472 136.659 289.717C135.622 291.196 133.943 292.044 132.052 292.044Z" fill="#171D34"/>
<path d="M49.744 248.858C48.816 248.864 48.1262 248.547 47.6745 247.91C47.2229 247.273 46.993 246.246 46.9849 244.83C46.9768 243.406 47.1909 242.373 47.6273 241.73C48.0636 241.088 48.7778 240.764 49.7698 240.758C50.4178 240.754 51.0985 240.878 51.8119 241.13L51.6474 241.743C50.918 241.499 50.2933 241.379 49.7733 241.382C49.0213 241.386 48.4829 241.657 48.1579 242.195C47.8409 242.725 47.6859 243.594 47.6928 244.802C47.6996 246.002 47.8726 246.877 48.2118 247.427C48.5509 247.969 49.0604 248.238 49.7404 248.234C50.1484 248.232 50.6398 248.133 51.2147 247.938L51.201 245.538L49.8451 245.546L49.8417 244.958L51.8577 244.946L51.8774 248.402C51.0551 248.703 50.3439 248.855 49.744 248.858ZM53.339 245.874C53.3337 244.954 53.5177 244.237 53.8907 243.723C54.2718 243.2 54.8263 242.937 55.5543 242.933C56.2822 242.929 56.8236 243.166 57.1783 243.644C57.5411 244.122 57.7247 244.761 57.7293 245.561L57.6967 246.161L54.0248 246.182C54.0682 246.782 54.231 247.269 54.5131 247.643C54.7952 248.009 55.1802 248.191 55.6682 248.188C56.1642 248.186 56.7435 248.066 57.4062 247.831L57.5896 248.429C56.9431 248.681 56.3358 248.809 55.7678 248.812C54.9838 248.816 54.3823 248.56 53.9634 248.042C53.5524 247.517 53.3442 246.794 53.339 245.874ZM55.6057 243.545C54.5978 243.55 54.0696 244.23 54.0213 245.582L57.0453 245.565C57.0376 244.213 56.5577 243.539 55.6057 243.545ZM60.0426 242.979L60.0693 243.459C60.8432 243.087 61.4862 242.899 61.9982 242.896C62.5101 242.893 62.9111 243.067 63.2011 243.417C63.4991 243.768 63.6499 244.247 63.6533 244.855L63.675 248.659L63.0391 248.662L63.0174 244.858C63.0151 244.466 62.9173 244.143 62.7238 243.888C62.5304 243.641 62.2417 243.519 61.8577 243.521C61.4737 243.523 60.8787 243.703 60.0728 244.059L60.0991 248.679L59.4631 248.683L59.4306 242.983L60.0426 242.979ZM65.3388 245.805C65.3336 244.885 65.5175 244.168 65.8905 243.654C66.2716 243.132 66.8261 242.869 67.5541 242.865C68.2821 242.86 68.8234 243.097 69.1781 243.575C69.5409 244.053 69.7245 244.692 69.7291 245.492L69.6965 246.092L66.0246 246.113C66.068 246.713 66.2308 247.2 66.5129 247.575C66.795 247.941 67.18 248.123 67.668 248.12C68.164 248.117 68.7434 247.998 69.406 247.762L69.5894 248.361C68.9429 248.613 68.3356 248.74 67.7676 248.743C66.9836 248.748 66.3821 248.491 65.9632 247.974C65.5522 247.448 65.344 246.725 65.3388 245.805ZM67.6056 243.476C66.5976 243.482 66.0694 244.161 66.0211 245.513L69.0451 245.496C69.0374 244.144 68.5575 243.471 67.6056 243.476ZM71.5229 248.614L71.5195 248.014L72.8875 248.006L72.8618 243.506L71.4938 243.514L71.4904 242.914L73.4944 242.903L73.5223 243.599C73.7774 243.437 74.1365 243.275 74.5996 243.112C75.0627 242.95 75.4701 242.851 75.8219 242.817L75.9539 242.817L75.958 243.525L75.826 243.525C75.4981 243.551 75.0906 243.634 74.6034 243.772C74.1241 243.911 73.7649 244.053 73.5258 244.199L73.5475 248.002L75.4674 247.992L75.4708 248.592L71.5229 248.614ZM79.1638 248.054C79.4598 248.053 79.7793 247.959 80.1223 247.773C80.4732 247.579 80.7281 247.402 80.8872 247.241L80.8791 245.813C80.3509 245.776 79.8468 245.759 79.3668 245.761C78.8868 245.764 78.5274 245.87 78.2886 246.079C78.0497 246.281 77.9313 246.553 77.9332 246.897C77.9377 247.673 78.3479 248.059 79.1638 248.054ZM79.1554 248.679C78.5714 248.682 78.1106 248.536 77.7729 248.242C77.4352 247.94 77.2647 247.513 77.2616 246.961C77.2584 246.409 77.44 245.98 77.8063 245.674C78.1725 245.36 78.6596 245.201 79.2676 245.198C79.8755 245.194 80.4117 245.215 80.8759 245.261C80.8719 244.549 80.7811 244.065 80.6037 243.81C80.4262 243.547 80.0694 243.417 79.5334 243.42C78.9974 243.423 78.3662 243.555 77.6396 243.815L77.4562 243.216C78.1987 242.94 78.8699 242.8 79.4699 242.797C80.2619 242.792 80.7989 242.965 81.0809 243.315C81.3629 243.666 81.5064 244.281 81.5114 245.161L81.5258 247.681L81.627 248.592L81.0153 248.656L80.8912 247.937C80.7081 248.098 80.4491 248.263 80.114 248.433C79.7789 248.595 79.4594 248.677 79.1554 248.679ZM83.6907 248.545L83.6873 247.945L85.5233 247.934L85.4845 241.142L83.6966 241.165L83.6813 240.577L86.1172 240.551L86.1593 247.931L88.0552 247.92L88.0586 248.52L83.6907 248.545ZM94.7545 248.482L96.9657 240.609L98.1177 240.602L100.334 248.45L99.6265 248.454L99.1241 246.645L95.9442 246.663L95.4505 248.478L94.7545 248.482ZM98.9647 246.046L97.6411 241.205L97.4371 241.206L96.1088 246.062L98.9647 246.046ZM100.852 248.747L105.758 239.971L106.204 240.232L101.286 249.008L100.852 248.747ZM111.658 247.569L111.817 248.18C111.114 248.392 110.483 248.5 109.923 248.503C109.003 248.508 108.317 248.196 107.866 247.567C107.422 246.929 107.196 245.903 107.188 244.487C107.18 243.071 107.39 242.041 107.818 241.399C108.247 240.749 108.937 240.421 109.889 240.415C110.473 240.412 111.081 240.532 111.715 240.777L111.526 241.378C110.949 241.141 110.404 241.024 109.892 241.027C109.18 241.031 108.666 241.306 108.349 241.852C108.04 242.39 107.889 243.259 107.896 244.459C107.903 245.659 108.076 246.53 108.415 247.072C108.754 247.614 109.259 247.883 109.931 247.879C110.379 247.876 110.955 247.773 111.658 247.569Z" fill="white"/>
</g>
<defs>
<clipPath id="clip0_1276_44451">
<rect width="300" height="300" fill="white"/>
</clipPath>
</defs>
</svg>
