<svg width="300" height="300" viewBox="0 0 300 300" fill="none" xmlns="http://www.w3.org/2000/svg">
<g clip-path="url(#clip0_1276_44732)">
<path d="M175.71 306.07H69.9057C41.3865 306.07 15.7822 287.433 6.6564 259.446C6.45022 258.814 6.24718 258.174 6.0465 257.524C-1.85081 231.965 -6.13905 202.183 20.1074 162.376C46.3539 122.568 28.3494 85.2299 62.095 71.6373C95.8406 58.0446 123.218 74.9937 161.65 58.4885C200.082 41.9832 276.947 42.9543 281.633 109.947C286.32 176.94 267.572 174.026 275.071 196.357C282.57 218.689 307.88 311.896 175.71 306.07Z" fill="#99C1FB"/>
<path d="M61.7104 172.39C61.4109 172.39 61.168 172.147 61.168 171.847V169.042C61.168 168.743 61.4109 168.5 61.7104 168.5C62.0098 168.5 62.2527 168.743 62.2527 169.042V171.847C62.2527 172.147 62.0098 172.39 61.7104 172.39Z" fill="#171D34"/>
<path d="M61.7104 178.923C61.4109 178.923 61.168 178.68 61.168 178.381V175.576C61.168 175.276 61.4109 175.033 61.7104 175.033C62.0098 175.033 62.2527 175.276 62.2527 175.576V178.381C62.2527 178.68 62.0098 178.923 61.7104 178.923Z" fill="#171D34"/>
<path d="M59.8472 174.254H57.0424C56.7429 174.254 56.5 174.011 56.5 173.712C56.5 173.412 56.7429 173.169 57.0424 173.169H59.8472C60.1466 173.169 60.3895 173.412 60.3895 173.712C60.3894 174.011 60.1466 174.254 59.8472 174.254Z" fill="#171D34"/>
<path d="M66.3823 174.254H63.5775C63.2781 174.254 63.0352 174.011 63.0352 173.712C63.0352 173.412 63.2781 173.169 63.5775 173.169H66.3823C66.6818 173.169 66.9245 173.412 66.9245 173.712C66.9245 174.011 66.6818 174.254 66.3823 174.254Z" fill="#171D34"/>
<path d="M71.5594 187.814C71.1954 187.814 70.831 187.746 70.4814 187.61C69.7217 187.315 69.1231 186.735 68.7966 185.978C68.1303 184.434 68.8223 182.623 70.3395 181.942C71.0721 181.613 71.8869 181.591 72.6348 181.882C73.3947 182.178 73.9935 182.757 74.32 183.515C74.9866 185.059 74.2942 186.87 72.7768 187.551C72.387 187.726 71.9736 187.814 71.5594 187.814ZM71.5581 182.764C71.2951 182.764 71.0325 182.82 70.7846 182.931C69.8048 183.371 69.3596 184.545 69.7925 185.548C70.0033 186.036 70.3878 186.41 70.8746 186.599C71.3495 186.784 71.8677 186.771 72.3327 186.562C73.3124 186.122 73.7574 184.948 73.3246 183.945C73.1138 183.456 72.7292 183.083 72.2424 182.893C72.0202 182.807 71.7889 182.764 71.5581 182.764Z" fill="#171D34"/>
<path d="M96.27 270.579L47.5803 280.465L37.3246 229.957L88.3897 219.588L98.1627 267.721L98.1627 267.722C98.4293 269.033 97.5816 270.313 96.2701 270.579L96.27 270.579Z" fill="#5B9AF8" stroke="#171D34"/>
<path d="M69.4861 209.741L69.4862 209.741L87.25 218.796L36.8317 229.034L21.709 219.359L21.7089 219.359C21.1707 219.015 21.3142 218.179 21.9687 218.047L21.9687 218.047L65.5206 209.203C65.5206 209.203 65.5207 209.203 65.5207 209.203C66.8688 208.929 68.2679 209.12 69.4861 209.741Z" fill="#5B9AF8" stroke="#171D34"/>
<path d="M20.5825 219.34C20.6487 219.525 20.7546 219.683 20.8602 219.808C21.0743 220.063 21.3545 220.266 21.5737 220.407C21.5737 220.407 21.5737 220.407 21.5737 220.407L36.2932 229.871L46.4625 279.958L31.8137 270.144C31.8137 270.143 31.8136 270.143 31.8136 270.143C30.6906 269.39 29.9105 268.234 29.6371 266.92L29.1476 267.021L29.6371 266.92L20.3426 222.226C20.3426 222.225 20.3425 222.225 20.3424 222.224C20.0612 220.838 20.2812 219.923 20.5825 219.34Z" fill="#5B9AF8" stroke="#171D34"/>
<path d="M51.2149 226.626L38.9101 229.125C37.711 229.368 36.9363 230.538 37.1798 231.737L39.8177 244.73" stroke="#171D34" stroke-width="0.5" stroke-miterlimit="10"/>
<path d="M41.4851 252.949L46.7509 278.883" stroke="#171D34" stroke-width="0.5" stroke-miterlimit="10"/>
<path d="M27.5391 223.708L36.6706 229.579" stroke="#171D34" stroke-width="0.5" stroke-miterlimit="10"/>
<path d="M21.1906 217.922L20.9609 218.844C20.8528 219.317 21.3664 219.738 21.7757 220.001L25.9401 222.679" stroke="#171D34" stroke-width="0.5" stroke-miterlimit="10"/>
<path d="M190.319 306.334H108.02C100.654 306.334 94.6836 300.363 94.6836 292.998V112.429C94.6836 105.064 100.654 99.0933 108.02 99.0933H190.319C197.684 99.0933 203.655 105.064 203.655 112.429V292.998C203.655 300.363 197.684 306.334 190.319 306.334Z" fill="#1C004F"/>
<path d="M191.105 301.197H107.231C102.91 301.197 99.4062 297.694 99.4062 293.373V112.055C99.4062 107.733 102.91 104.23 107.231 104.23H191.105C195.426 104.23 198.93 107.733 198.93 112.055V293.372C198.93 297.694 195.427 301.197 191.105 301.197Z" fill="white"/>
<path d="M165.715 116.084H132.621C128.533 116.084 125.219 112.77 125.219 108.682V102.057C125.219 101.84 125.394 101.664 125.611 101.664H173.118V108.682C173.117 112.77 169.803 116.084 165.715 116.084Z" fill="#1C004F"/>
<path d="M296.808 216.056H260.671C259.183 216.056 257.977 214.85 257.977 213.361V176.032C257.977 174.544 259.183 173.338 260.671 173.338H296.808C298.296 173.338 299.502 174.544 299.502 176.032V213.361C299.502 214.85 298.296 216.056 296.808 216.056Z" fill="#307FF4" stroke="#171D34"/>
<path d="M299.502 184.927H257.977V176.033C257.977 174.544 259.183 173.338 260.671 173.338H296.808C298.296 173.338 299.502 174.544 299.502 176.032V176.033V184.927Z" fill="#CADDFF" stroke="#171D34"/>
<path d="M288.291 196.337H293.973C294.316 196.337 294.593 196.06 294.593 195.718V190.036C294.593 189.694 294.315 189.417 293.973 189.417H288.291C287.949 189.417 287.672 189.695 287.672 190.036V195.718C287.671 196.06 287.949 196.337 288.291 196.337Z" fill="white"/>
<path d="M280.178 196.337H285.86C286.202 196.337 286.479 196.06 286.479 195.718V190.036C286.479 189.694 286.201 189.417 285.86 189.417H280.178C279.836 189.417 279.559 189.695 279.559 190.036V195.718C279.559 196.06 279.836 196.337 280.178 196.337Z" fill="white"/>
<path d="M268.624 175.61C268.118 175.61 267.707 175.199 267.707 174.692V169.674C267.707 169.167 268.118 168.757 268.624 168.757C269.131 168.757 269.542 169.167 269.542 169.674V174.692C269.542 175.199 269.131 175.61 268.624 175.61Z" fill="#171D34" stroke="#171D34"/>
<path d="M275.8 175.618C275.294 175.618 274.883 175.207 274.883 174.7V169.682C274.883 169.175 275.294 168.764 275.8 168.764C276.306 168.764 276.717 169.175 276.717 169.682V174.7C276.717 175.207 276.306 175.618 275.8 175.618Z" fill="#171D34" stroke="#171D34"/>
<path d="M282.64 175.612C282.134 175.612 281.723 175.202 281.723 174.695V169.676C281.723 169.17 282.134 168.759 282.64 168.759C283.146 168.759 283.557 169.17 283.557 169.676V174.695C283.557 175.202 283.147 175.612 282.64 175.612Z" fill="#171D34" stroke="#171D34"/>
<path d="M272.002 196.337H277.684C278.026 196.337 278.303 196.06 278.303 195.718V190.036C278.303 189.694 278.026 189.417 277.684 189.417H272.002C271.66 189.417 271.383 189.695 271.383 190.036V195.718C271.383 196.06 271.66 196.337 272.002 196.337Z" fill="white"/>
<path d="M263.889 196.337H269.571C269.913 196.337 270.19 196.06 270.19 195.718V190.036C270.19 189.694 269.912 189.417 269.571 189.417H263.889C263.547 189.417 263.27 189.695 263.27 190.036V195.718C263.27 196.06 263.547 196.337 263.889 196.337Z" fill="white"/>
<path d="M288.237 204.043H293.919C294.261 204.043 294.538 203.765 294.538 203.423V197.741C294.538 197.399 294.261 197.122 293.919 197.122H288.237C287.894 197.122 287.617 197.4 287.617 197.741V203.423C287.617 203.765 287.894 204.043 288.237 204.043Z" fill="white"/>
<path d="M280.119 204.043H285.801C286.144 204.043 286.421 203.765 286.421 203.423V197.741C286.421 197.399 286.143 197.122 285.801 197.122H280.119C279.777 197.122 279.5 197.4 279.5 197.741V203.423C279.5 203.765 279.778 204.043 280.119 204.043Z" fill="white"/>
<path d="M271.944 204.043H277.626C277.968 204.043 278.245 203.765 278.245 203.423V197.741C278.245 197.399 277.967 197.122 277.626 197.122H271.944C271.601 197.122 271.324 197.4 271.324 197.741V203.423C271.323 203.765 271.601 204.043 271.944 204.043Z" fill="white"/>
<path d="M263.83 204.043H269.512C269.855 204.043 270.132 203.765 270.132 203.423V197.741C270.132 197.399 269.854 197.122 269.512 197.122H263.83C263.488 197.122 263.211 197.4 263.211 197.741V203.423C263.211 203.765 263.488 204.043 263.83 204.043Z" fill="white"/>
<path d="M288.178 211.813H293.86C294.202 211.813 294.479 211.535 294.479 211.193V205.511C294.479 205.169 294.201 204.892 293.86 204.892H288.178C287.836 204.892 287.559 205.17 287.559 205.511V211.193C287.559 211.535 287.836 211.813 288.178 211.813Z" fill="white"/>
<path d="M280.061 211.813H285.743C286.085 211.813 286.362 211.535 286.362 211.193V205.511C286.362 205.169 286.084 204.892 285.743 204.892H280.061C279.718 204.892 279.441 205.17 279.441 205.511V211.193C279.441 211.535 279.719 211.813 280.061 211.813Z" fill="white"/>
<path d="M271.889 211.813H277.571C277.913 211.813 278.19 211.535 278.19 211.193V205.511C278.19 205.169 277.912 204.892 277.571 204.892H271.889C271.547 204.892 271.27 205.17 271.27 205.511V211.193C271.269 211.535 271.547 211.813 271.889 211.813Z" fill="white"/>
<path d="M263.772 211.813H269.454C269.796 211.813 270.073 211.535 270.073 211.193V205.511C270.073 205.169 269.795 204.892 269.454 204.892H263.772C263.429 204.892 263.152 205.17 263.152 205.511V211.193C263.152 211.535 263.429 211.813 263.772 211.813Z" fill="white"/>
<path d="M289.499 175.612C288.993 175.612 288.582 175.202 288.582 174.695V169.676C288.582 169.17 288.993 168.759 289.499 168.759C290.006 168.759 290.417 169.17 290.417 169.676V174.695C290.417 175.202 290.006 175.612 289.499 175.612Z" fill="#171D34" stroke="#171D34"/>
<path d="M239.279 209.29H130.866C127.625 209.29 124.774 206.707 124.499 203.52L119.236 142.468C118.961 139.282 121.367 136.698 124.608 136.698H233.021C236.263 136.698 239.113 139.282 239.388 142.468L244.651 203.52C244.926 206.707 242.52 209.29 239.279 209.29Z" fill="#307FF4"/>
<path d="M143.308 172.424H133.156C131.965 172.424 130.918 171.475 130.817 170.305L129.957 160.325C129.856 159.155 130.74 158.206 131.93 158.206H142.082C143.273 158.206 144.319 159.155 144.42 160.325L145.281 170.305C145.382 171.475 144.498 172.424 143.308 172.424Z" fill="#5B9AF8"/>
<path d="M161.266 200.039H133.034C132.074 200.039 131.229 199.274 131.148 198.329L130.995 196.553C130.913 195.609 131.626 194.844 132.586 194.844H160.818C161.779 194.844 162.623 195.609 162.704 196.553L162.858 198.329C162.939 199.274 162.226 200.039 161.266 200.039Z" fill="#99C1FB"/>
<path d="M150.6 184.453H131.69C130.73 184.453 129.885 183.688 129.804 182.744L129.651 180.967C129.57 180.024 130.282 179.258 131.242 179.258H150.152C151.112 179.258 151.957 180.023 152.038 180.967L152.191 182.744C152.273 183.688 151.56 184.453 150.6 184.453Z" fill="#99C1FB"/>
<path d="M178.049 184.59H159.139C158.179 184.59 157.335 183.825 157.253 182.881L157.1 181.104C157.019 180.16 157.731 179.395 158.691 179.395H177.601C178.562 179.395 179.406 180.16 179.487 181.104L179.641 182.881C179.722 183.825 179.01 184.59 178.049 184.59Z" fill="#99C1FB"/>
<path d="M204.397 184.59H185.487C184.527 184.59 183.682 183.824 183.601 182.88L183.448 181.104C183.366 180.16 184.079 179.394 185.039 179.394H203.949C204.909 179.394 205.754 180.16 205.835 181.104L205.988 182.88C206.07 183.824 205.357 184.59 204.397 184.59Z" fill="#99C1FB"/>
<path d="M231.846 184.726H212.936C211.976 184.726 211.131 183.961 211.05 183.017L210.897 181.24C210.816 180.296 211.528 179.531 212.488 179.531H231.398C232.358 179.531 233.203 180.296 233.284 181.24L233.437 183.017C233.519 183.961 232.806 184.726 231.846 184.726Z" fill="#99C1FB"/>
<path d="M238.089 209.988H130.748C127.223 209.988 124.113 207.166 123.814 203.697L118.523 142.323C118.379 140.654 118.903 139.077 119.999 137.883C121.112 136.669 122.676 136 124.4 136H232.756C236.492 136 239.789 138.992 240.106 142.669L243.656 183.851C243.689 184.235 243.405 184.574 243.021 184.607C242.634 184.647 242.299 184.355 242.265 183.972L238.715 142.789C238.458 139.815 235.785 137.396 232.756 137.396H124.4C123.071 137.396 121.874 137.904 121.027 138.827C120.199 139.729 119.804 140.928 119.914 142.203L125.205 203.577C125.443 206.342 127.929 208.592 130.748 208.592H238.089C240.06 208.592 241.803 207.717 242.871 206.193C243.092 205.877 243.527 205.802 243.844 206.022C244.159 206.244 244.236 206.679 244.015 206.995C242.681 208.897 240.521 209.988 238.089 209.988Z" fill="#171D34"/>
<path d="M223.474 63.038C223.475 63.0287 223.475 63.0195 223.476 63.0105L238.595 62.7194L239.032 62.7109L239.47 62.7194L254.589 63.0105C254.59 63.0195 254.59 63.0287 254.591 63.038C254.609 63.3449 254.626 63.7954 254.622 64.3623C254.615 65.4966 254.522 67.0933 254.18 68.935C253.495 72.6204 251.82 77.2645 247.861 81.1614C245.83 83.1604 244.311 84.7976 243.263 86.2157C242.217 87.6318 241.611 88.8696 241.461 90.0685C241.309 91.2851 241.635 92.3944 242.314 93.5299C242.985 94.6513 244.018 95.8265 245.317 97.1884C246.08 97.9891 246.877 98.7816 247.681 99.5811C252.336 104.21 257.226 109.073 257.218 117.115H239.479H238.586H220.848C220.839 109.074 225.728 104.212 230.383 99.5827C231.187 98.7827 231.984 97.9896 232.748 97.1883C234.047 95.8262 235.08 94.6509 235.75 93.5296C236.43 92.394 236.755 91.2848 236.603 90.0681C236.453 88.8693 235.847 87.6317 234.801 86.2155C233.754 84.7976 232.235 83.1604 230.204 81.1614C226.245 77.2645 224.569 72.6204 223.885 68.935C223.543 67.0933 223.45 65.4966 223.442 64.3623C223.438 63.7954 223.456 63.3449 223.474 63.038Z" fill="white" stroke="#171D34"/>
<path d="M259.611 118.236V118.237C259.611 119.115 258.9 119.827 258.021 119.827H220.046C219.168 119.827 218.457 119.115 218.457 118.236C218.457 117.358 219.169 116.646 220.046 116.646H258.021C258.899 116.646 259.611 117.358 259.611 118.236Z" fill="#307FF4" stroke="#171D34"/>
<path d="M259.611 62.1383V62.1386C259.611 63.0167 258.9 63.7285 258.021 63.7285H220.046C219.168 63.7285 218.457 63.0169 218.457 62.1383C218.457 61.2598 219.169 60.5481 220.046 60.5481H258.021C258.899 60.5481 259.611 61.2597 259.611 62.1383Z" fill="#307FF4" stroke="#171D34"/>
<path d="M231.821 78.646H246.558C247.055 78.646 247.325 79.1953 247.005 79.5557L240.304 87.117C240.216 87.217 240.167 87.3429 240.167 87.4735V110.345C240.167 110.651 240.428 110.899 240.751 110.899H253.276C253.531 110.899 253.756 111.055 253.833 111.286L254.672 113.803C254.791 114.161 254.51 114.524 254.115 114.524H223.975C223.593 114.524 223.313 114.181 223.41 113.83L224.11 111.295C224.176 111.051 224.408 110.881 224.672 110.881L237.607 110.836C237.929 110.835 238.189 110.587 238.189 110.282V87.5955C238.189 87.4672 238.142 87.3421 238.056 87.2429L231.37 79.5518C231.057 79.1906 231.328 78.646 231.821 78.646Z" fill="#73C3FD"/>
<path d="M67.1591 120.527C67.1591 119.071 65.9786 117.89 64.5219 117.89H25.602C24.1453 117.89 22.9648 119.071 22.9648 120.527V141.558C22.9648 143.015 24.1453 144.196 25.602 144.196H57.6784L60.6972 148.31C61.6377 149.592 63.2644 149.473 64.0088 148.068L66.6185 143.142C66.9529 142.7 67.1591 142.155 67.1591 141.558V120.527Z" fill="#5B9AF8"/>
<path d="M59.7721 127.314H29.9866C29.5215 127.314 29.1445 126.937 29.1445 126.472C29.1445 126.007 29.5215 125.63 29.9866 125.63H59.7721C60.2372 125.63 60.6142 126.007 60.6142 126.472C60.6142 126.937 60.2372 127.314 59.7721 127.314Z" fill="white"/>
<path d="M50.7195 131.259H29.9866C29.5215 131.259 29.1445 130.882 29.1445 130.417C29.1445 129.951 29.5215 129.574 29.9866 129.574H50.7195C51.1846 129.574 51.5616 129.951 51.5616 130.417C51.5616 130.882 51.1846 131.259 50.7195 131.259Z" fill="white"/>
<path d="M55.7491 135.286H29.9866C29.5215 135.286 29.1445 134.909 29.1445 134.444C29.1445 133.979 29.5215 133.602 29.9866 133.602H55.7491C56.2142 133.602 56.5911 133.979 56.5911 134.444C56.5919 134.909 56.2142 135.286 55.7491 135.286Z" fill="white"/>
<path d="M147.885 280.902C161.541 280.902 172.611 269.832 172.611 256.177C172.611 242.521 161.541 231.451 147.885 231.451C134.23 231.451 123.16 242.521 123.16 256.177C123.16 269.832 134.23 280.902 147.885 280.902Z" fill="#171D34"/>
<path d="M165.896 272.393C175.265 263.024 175.265 247.833 165.896 238.464C156.527 229.095 141.337 229.095 131.968 238.464C122.599 247.833 122.599 263.024 131.968 272.393C141.337 281.762 156.527 281.762 165.896 272.393Z" fill="#F6BD3D"/>
<path d="M163.166 269.665C171.029 261.802 171.029 249.054 163.166 241.192C155.304 233.329 142.556 233.329 134.693 241.192C126.831 249.054 126.831 261.802 134.693 269.665C142.556 277.527 155.304 277.527 163.166 269.665Z" fill="white"/>
<path d="M147.281 269.667L147.236 266.358C144.9 266.285 142.627 265.689 141.293 264.94L142.283 260.85C143.757 261.631 145.822 262.335 148.087 262.304C150.072 262.277 151.421 261.493 151.402 260.099C151.384 258.775 150.257 257.954 147.668 257.118C143.923 255.915 141.356 254.208 141.31 250.828C141.268 247.763 143.396 245.329 147.113 244.547L147.068 241.238L150.482 241.191L150.524 244.257C152.86 244.33 154.434 244.796 155.591 245.338L154.635 249.288C153.724 248.917 152.11 248.138 149.602 248.172C147.338 248.203 146.619 249.188 146.632 250.163C146.648 251.313 147.877 252.028 150.854 253.103C155.019 254.509 156.718 256.403 156.76 259.538C156.802 262.639 154.644 265.316 150.647 266.067L150.695 269.621L147.281 269.667Z" fill="#F6BD3D"/>
<path d="M168.257 247.569C173.547 247.569 177.835 243.281 177.835 237.992C177.835 232.702 173.547 228.414 168.257 228.414C162.968 228.414 158.68 232.702 158.68 237.992C158.68 243.281 162.968 247.569 168.257 247.569Z" fill="#5B9AF8"/>
<path d="M165.02 237.788L166.305 240.67C166.435 240.962 166.822 241.026 167.038 240.791L171.841 235.571" stroke="white" stroke-width="1.5236" stroke-miterlimit="10" stroke-linecap="round"/>
<path d="M168.232 245.904C172.617 245.904 176.171 242.349 176.171 237.965C176.171 233.58 172.617 230.026 168.232 230.026C163.847 230.026 160.293 233.58 160.293 237.965C160.293 242.349 163.847 245.904 168.232 245.904Z" stroke="white" stroke-width="0.5" stroke-miterlimit="10"/>
<path d="M96.8815 118.902C110.537 118.902 121.607 107.832 121.607 94.1767C121.607 80.5213 110.537 69.4514 96.8815 69.4514C83.2261 69.4514 72.1562 80.5213 72.1562 94.1767C72.1562 107.832 83.2261 118.902 96.8815 118.902Z" fill="#171D34"/>
<path d="M114.893 110.393C124.262 101.024 124.262 85.8333 114.893 76.4643C105.523 67.0952 90.3332 67.0952 80.9642 76.4643C71.5951 85.8333 71.5951 101.024 80.9642 110.393C90.3332 119.762 105.523 119.762 114.893 110.393Z" fill="#F6BD3D"/>
<path d="M112.162 107.665C120.025 99.8021 120.025 87.0544 112.162 79.1918C104.3 71.3293 91.5521 71.3293 83.6895 79.1918C75.827 87.0544 75.827 99.8021 83.6895 107.665C91.5521 115.527 104.3 115.527 112.162 107.665Z" fill="white"/>
<path d="M96.2768 107.667L96.2318 104.358C93.8963 104.285 91.6234 103.689 90.2891 102.94L91.2787 98.8502C92.7527 99.6315 94.8182 100.335 97.0826 100.304C99.0684 100.277 100.417 99.4926 100.398 98.099C100.38 96.7752 99.2534 95.9543 96.6638 95.1183C92.919 93.9148 90.3521 92.2076 90.3062 88.8283C90.2646 85.7627 92.3918 83.3295 96.1095 82.5471L96.0645 79.2376L99.4785 79.1912L99.5202 82.2568C101.856 82.3296 103.43 82.7959 104.587 83.3377L103.631 87.288C102.72 86.9171 101.106 86.1377 98.598 86.1717C96.3337 86.2025 95.6152 87.1879 95.6285 88.1634C95.6442 89.313 96.8733 90.0281 99.8498 91.1026C104.015 92.5093 105.714 94.4027 105.756 97.5381C105.798 100.639 103.64 103.316 99.6429 104.067L99.6912 107.621L96.2768 107.667Z" fill="#F6BD3D"/>
<path d="M142.071 81.9529C149.991 81.9529 156.412 75.5324 156.412 67.6123C156.412 59.6922 149.991 53.2717 142.071 53.2717C134.151 53.2717 127.73 59.6922 127.73 67.6123C127.73 75.5324 134.151 81.9529 142.071 81.9529Z" fill="#171D34"/>
<path d="M152.518 77.0176C157.952 71.5836 157.952 62.7733 152.518 57.3393C147.083 51.9053 138.273 51.9053 132.839 57.3393C127.405 62.7733 127.405 71.5836 132.839 77.0176C138.273 82.4517 147.083 82.4517 152.518 77.0176Z" fill="#F6BD3D"/>
<path d="M150.935 75.4355C155.496 70.8753 155.496 63.4817 150.935 58.9214C146.375 54.3611 138.981 54.3611 134.421 58.9214C129.861 63.4817 129.861 70.8753 134.421 75.4355C138.981 79.9958 146.375 79.9958 150.935 75.4355Z" fill="white"/>
<path d="M141.719 75.437L141.693 73.5175C140.338 73.4753 139.02 73.1295 138.246 72.6953L138.82 70.3231C139.675 70.7762 140.873 71.1844 142.186 71.1665C143.338 71.1509 144.12 70.6956 144.109 69.8874C144.099 69.1196 143.445 68.6434 141.943 68.1586C139.771 67.4606 138.283 66.4704 138.256 64.5104C138.232 62.7324 139.466 61.3211 141.622 60.8674L141.596 58.9478L143.576 58.9209L143.6 60.699C144.955 60.7412 145.868 61.0117 146.539 61.3259L145.984 63.6171C145.456 63.4019 144.52 62.9499 143.065 62.9696C141.752 62.9875 141.335 63.559 141.343 64.1248C141.352 64.7915 142.065 65.2063 143.791 65.8295C146.207 66.6454 147.192 67.7436 147.217 69.562C147.241 71.3604 145.989 72.9133 143.671 73.349L143.699 75.41L141.719 75.437Z" fill="#F6BD3D"/>
<path d="M287.619 239.467C287.272 239.356 286.904 239.309 286.53 239.331C285.715 239.38 284.967 239.749 284.425 240.371C283.317 241.638 283.422 243.576 284.66 244.689C285.257 245.226 286.028 245.496 286.829 245.448C287.644 245.399 288.391 245.03 288.934 244.408C290.041 243.141 289.936 241.204 288.699 240.09C288.381 239.804 288.014 239.594 287.619 239.467ZM286.072 244.278C285.821 244.198 285.588 244.064 285.386 243.882C284.587 243.163 284.522 241.909 285.242 241.085C285.592 240.684 286.072 240.446 286.594 240.415C287.104 240.384 287.594 240.556 287.973 240.897C288.771 241.616 288.836 242.871 288.117 243.694C287.766 244.095 287.286 244.333 286.764 244.365C286.526 244.379 286.292 244.349 286.072 244.278Z" fill="#171D34"/>
<path d="M272.533 252.116C272.412 252.077 272.264 252.131 272.146 252.273C272.084 252.347 265.877 259.759 255.429 267.379C245.792 274.407 230.47 283.055 212.203 284.345C211.991 284.36 211.788 284.609 211.752 284.901C211.715 285.193 211.859 285.417 212.071 285.402C230.509 284.1 245.974 275.365 255.701 268.266C266.247 260.57 272.526 253.068 272.588 252.993C272.766 252.778 272.811 252.444 272.689 252.245C272.648 252.179 272.594 252.136 272.533 252.116Z" fill="#171D34"/>
<path d="M276.786 251.297C276.645 251.252 276.472 251.332 276.352 251.517C276.305 251.59 271.527 258.88 262.292 267.121C253.771 274.726 239.602 284.721 220.497 289.148C220.281 289.198 220.098 289.472 220.087 289.76C220.076 290.047 220.241 290.241 220.458 290.191C239.739 285.723 254.044 275.622 262.65 267.934C271.99 259.59 276.84 252.183 276.888 252.109C277.045 251.867 277.052 251.538 276.904 251.375C276.87 251.337 276.829 251.311 276.786 251.297Z" fill="#171D34"/>
<path d="M228.687 241.383C228.387 241.383 228.145 241.14 228.145 240.84V238.044C228.145 237.743 228.387 237.5 228.687 237.5C228.987 237.5 229.229 237.743 229.229 238.044V240.84C229.229 241.14 228.987 241.383 228.687 241.383Z" fill="#171D34"/>
<path d="M228.687 247.896C228.387 247.896 228.145 247.653 228.145 247.352V244.557C228.145 244.257 228.387 244.014 228.687 244.014C228.987 244.014 229.229 244.257 229.229 244.557V247.352C229.229 247.653 228.987 247.896 228.687 247.896Z" fill="#171D34"/>
<path d="M226.832 243.241H224.042C223.742 243.241 223.5 242.998 223.5 242.697C223.5 242.397 223.742 242.154 224.042 242.154H226.832C227.132 242.154 227.374 242.397 227.374 242.697C227.374 242.998 227.132 243.241 226.832 243.241Z" fill="#171D34"/>
<path d="M233.328 243.241H230.538C230.239 243.241 229.996 242.998 229.996 242.697C229.996 242.397 230.239 242.154 230.538 242.154H233.328C233.628 242.154 233.871 242.397 233.871 242.697C233.871 242.998 233.628 243.241 233.328 243.241Z" fill="#171D34"/>
<path d="M131.642 124.625C130.714 124.63 130.025 124.314 129.573 123.676C129.121 123.039 128.891 122.012 128.883 120.596C128.875 119.172 129.089 118.139 129.526 117.497C129.962 116.854 130.676 116.53 131.668 116.524C132.316 116.521 132.997 116.645 133.71 116.897L133.546 117.51C132.816 117.266 132.192 117.145 131.672 117.148C130.92 117.153 130.381 117.424 130.056 117.962C129.739 118.491 129.584 119.36 129.591 120.568C129.598 121.768 129.771 122.643 130.11 123.193C130.449 123.735 130.959 124.004 131.639 124.001C132.047 123.998 132.538 123.899 133.113 123.704L133.099 121.304L131.744 121.312L131.74 120.724L133.756 120.712L133.776 124.168C132.954 124.469 132.242 124.621 131.642 124.625ZM135.237 121.64C135.232 120.72 135.416 120.003 135.789 119.489C136.17 118.967 136.725 118.704 137.453 118.699C138.181 118.695 138.722 118.932 139.077 119.41C139.44 119.888 139.623 120.527 139.628 121.327L139.595 121.927L135.923 121.948C135.967 122.548 136.129 123.035 136.412 123.409C136.694 123.776 137.079 123.958 137.567 123.955C138.063 123.952 138.642 123.833 139.305 123.597L139.488 124.196C138.841 124.448 138.234 124.575 137.666 124.578C136.882 124.583 136.281 124.326 135.862 123.809C135.451 123.283 135.243 122.56 135.237 121.64ZM137.504 119.311C136.496 119.317 135.968 119.996 135.92 121.348L138.944 121.331C138.936 119.979 138.456 119.306 137.504 119.311ZM141.941 118.746L141.968 119.226C142.742 118.853 143.385 118.666 143.897 118.663C144.409 118.66 144.81 118.833 145.1 119.184C145.398 119.534 145.548 120.013 145.552 120.621L145.573 124.425L144.937 124.429L144.916 120.625C144.914 120.233 144.816 119.909 144.622 119.655C144.429 119.408 144.14 119.285 143.756 119.287C143.372 119.29 142.777 119.469 141.971 119.826L141.998 124.446L141.362 124.449L141.329 118.749L141.941 118.746ZM147.237 121.572C147.232 120.652 147.416 119.935 147.789 119.42C148.17 118.898 148.725 118.635 149.453 118.631C150.18 118.627 150.722 118.864 151.077 119.342C151.439 119.82 151.623 120.459 151.628 121.259L151.595 121.859L147.923 121.88C147.966 122.479 148.129 122.967 148.411 123.341C148.693 123.707 149.078 123.889 149.566 123.886C150.062 123.884 150.642 123.764 151.304 123.528L151.488 124.127C150.841 124.379 150.234 124.507 149.666 124.51C148.882 124.514 148.281 124.258 147.862 123.74C147.451 123.214 147.242 122.492 147.237 121.572ZM149.504 119.243C148.496 119.248 147.968 119.927 147.92 121.28L150.944 121.262C150.936 119.911 150.456 119.237 149.504 119.243ZM153.421 124.38L153.418 123.78L154.786 123.773L154.76 119.273L153.392 119.28L153.389 118.681L155.393 118.669L155.421 119.365C155.676 119.203 156.035 119.041 156.498 118.879C156.961 118.716 157.369 118.618 157.72 118.584L157.852 118.583L157.856 119.291L157.724 119.292C157.397 119.318 156.989 119.4 156.502 119.539C156.023 119.678 155.663 119.82 155.424 119.965L155.446 123.769L157.366 123.758L157.369 124.358L153.421 124.38ZM161.062 123.821C161.358 123.819 161.678 123.725 162.021 123.539C162.372 123.345 162.627 123.168 162.786 123.007L162.778 121.579C162.249 121.542 161.745 121.525 161.265 121.528C160.785 121.53 160.426 121.636 160.187 121.846C159.948 122.047 159.83 122.32 159.832 122.664C159.836 123.44 160.246 123.825 161.062 123.821ZM161.054 124.445C160.47 124.448 160.009 124.303 159.671 124.009C159.334 123.707 159.163 123.28 159.16 122.728C159.157 122.176 159.338 121.747 159.705 121.441C160.071 121.126 160.558 120.968 161.166 120.964C161.774 120.961 162.31 120.982 162.774 121.027C162.77 120.315 162.68 119.832 162.502 119.577C162.325 119.314 161.968 119.184 161.432 119.187C160.896 119.19 160.265 119.321 159.538 119.581L159.355 118.982C160.097 118.706 160.768 118.566 161.368 118.563C162.16 118.558 162.697 118.731 162.979 119.082C163.261 119.432 163.405 120.047 163.41 120.927L163.424 123.447L163.525 124.359L162.914 124.422L162.79 123.703C162.607 123.864 162.347 124.03 162.012 124.199C161.677 124.361 161.358 124.443 161.054 124.445ZM165.589 124.311L165.586 123.711L167.422 123.701L167.383 116.909L165.595 116.931L165.58 116.343L168.016 116.317L168.058 123.697L169.954 123.686L169.957 124.286L165.589 124.311ZM176.653 124.248L178.864 116.375L180.016 116.369L182.233 124.216L181.525 124.22L181.023 122.411L177.843 122.429L177.349 124.244L176.653 124.248ZM180.863 121.812L179.54 116.971L179.336 116.973L178.007 121.828L180.863 121.812ZM182.751 124.513L187.657 115.737L188.102 115.999L183.184 124.775L182.751 124.513ZM193.556 123.336L193.716 123.947C193.013 124.159 192.381 124.266 191.821 124.269C190.901 124.275 190.216 123.963 189.764 123.333C189.32 122.696 189.094 121.669 189.086 120.253C189.078 118.837 189.288 117.808 189.717 117.165C190.145 116.515 190.835 116.187 191.787 116.182C192.371 116.178 192.98 116.299 193.613 116.543L193.425 117.144C192.847 116.907 192.303 116.791 191.791 116.794C191.079 116.798 190.564 117.072 190.247 117.618C189.938 118.156 189.787 119.025 189.794 120.225C189.801 121.425 189.974 122.296 190.313 122.838C190.652 123.38 191.158 123.649 191.83 123.645C192.278 123.643 192.853 123.54 193.556 123.336Z" fill="white"/>
</g>
<defs>
<clipPath id="clip0_1276_44732">
<rect width="300" height="300" fill="white"/>
</clipPath>
</defs>
</svg>
