<svg width="48" height="48" viewBox="0 0 48 48" fill="none" xmlns="http://www.w3.org/2000/svg">
<g id="Frame" clip-path="url(#clip0_1807_55155)">
<g id="Page-1">
<g id="059---Money-Bag">
<path id="Shape" d="M36.952 42.4015H21.6V32.8015C21.6 31.4735 19.272 30.4015 16.4 30.4015C15.729 30.3988 15.0593 30.4604 14.4 30.5855V21.8735C16.9304 15.9735 21.2464 11.6855 25.08 9.78553C25.7638 10.1948 26.5471 10.408 27.344 10.4015H31.824C32.628 10.4071 33.4176 10.1883 34.104 9.76953C35.848 10.6335 43.712 15.1375 46.552 27.2015C49.752 40.8015 40.152 42.4015 36.952 42.4015Z" fill="#73C3FD"/>
<path id="Shape_2" d="M46.552 27.2015C43.712 15.1375 35.848 10.6335 34.104 9.76953C33.6677 10.0349 33.1864 10.2179 32.684 10.3095C35.4272 11.9479 41.684 16.7215 44.152 27.2015C47.352 40.8015 37.752 42.4015 34.552 42.4015H36.952C40.152 42.4015 49.752 40.8015 46.552 27.2015Z" fill="#307FF4"/>
<path id="Shape_3" d="M37.6 1.73678C37.608 3.49678 37.256 7.33678 34.44 9.53678C34.3345 9.62314 34.2221 9.70074 34.104 9.76878C33.4176 10.1875 32.628 10.4064 31.824 10.4008H27.344C26.5471 10.4072 25.7638 10.1941 25.08 9.78478C24.96 9.70478 24.84 9.62478 24.728 9.53678C21.912 7.33678 21.568 3.49678 21.568 1.73678C21.5693 1.47071 21.7028 1.22272 21.9242 1.07513C22.1456 0.927536 22.4259 0.899671 22.672 1.00078C23.696 1.43278 24.04 2.40078 25.592 2.40078C27.584 2.40078 27.584 0.800781 29.576 0.800781C31.568 0.800781 31.576 2.40078 33.576 2.40078C35.128 2.40078 35.472 1.42478 36.496 1.00078C36.7421 0.899671 37.0224 0.927536 37.2438 1.07513C37.4652 1.22272 37.5987 1.47071 37.6 1.73678Z" fill="#73C3FD"/>
<path id="Shape_4" d="M36.496 1.00142C36.0298 1.24157 35.5946 1.53762 35.2 1.88302C35.1888 3.69982 34.7848 7.39423 32.0416 9.53743C31.9361 9.62379 31.8237 9.70138 31.7056 9.76943C31.0192 10.1882 30.2296 10.407 29.4256 10.4014H31.8256C32.6296 10.407 33.4192 10.1882 34.1056 9.76943C34.2237 9.70138 34.3361 9.62379 34.4416 9.53743C37.256 7.33743 37.608 3.49742 37.6 1.73742C37.5987 1.47136 37.4652 1.22336 37.2438 1.07577C37.0224 0.92818 36.7421 0.900314 36.496 1.00142Z" fill="#307FF4"/>
<path id="Oval" d="M14 8.8C16.8719 8.8 19.2 7.72548 19.2 6.4C19.2 5.07452 16.8719 4 14 4C11.1281 4 8.79999 5.07452 8.79999 6.4C8.79999 7.72548 11.1281 8.8 14 8.8Z" fill="#FFDC00"/>
<path id="Shape_5" d="M19.2 6.40234V14.3863C17.1855 16.591 15.5622 19.1234 14.4 21.8743V17.6023C14.4 16.2743 12.072 15.2023 9.19999 15.2023C9.06399 15.2023 8.93599 15.2023 8.79999 15.2103V6.40234C8.79999 7.73034 11.128 8.80234 14 8.80234C16.872 8.80234 19.2 7.73034 19.2 6.40234Z" fill="#F6BD3D"/>
<path id="Shape_6" d="M14.4 17.5992C14.4 18.9272 12.072 19.9992 9.2 19.9992C6.328 19.9992 4 18.9272 4 17.5992C4 16.3352 6.112 15.3032 8.8 15.2072C8.936 15.1992 9.064 15.1992 9.2 15.1992C12.072 15.1992 14.4 16.2712 14.4 17.5992Z" fill="#FFDC00"/>
<path id="Shape_7" d="M14.4 17.6016V30.5856C12.52 30.9456 11.2 31.8016 11.2 32.8016V40.8016C11.2 39.4736 8.872 38.4016 6 38.4016C5.32898 38.3988 4.65925 38.4604 4 38.5856V17.6016C4 18.9296 6.328 20.0016 9.2 20.0016C12.072 20.0016 14.4 18.9296 14.4 17.6016Z" fill="#F6BD3D"/>
<path id="Shape_8" d="M11.2 40.8024C11.2 42.1304 8.87199 43.2024 5.99999 43.2024C3.12799 43.2024 0.799988 42.1304 0.799988 40.8024C0.799988 39.8024 2.11999 38.9464 3.99999 38.5864C4.65924 38.4613 5.32897 38.3997 5.99999 38.4024C8.87199 38.4024 11.2 39.4744 11.2 40.8024Z" fill="#FFEB3A"/>
<path id="Shape_9" d="M11.2 40.8008V44.8008C11.2 46.1288 8.87199 47.2008 5.99999 47.2008C3.12799 47.2008 0.799988 46.1288 0.799988 44.8008V40.8008C0.799988 42.1288 3.12799 43.2008 5.99999 43.2008C8.87199 43.2008 11.2 42.1288 11.2 40.8008Z" fill="#F6BD3D"/>
<path id="Shape_10" d="M21.6 32.8024C21.6 34.1304 19.272 35.2024 16.4 35.2024C13.528 35.2024 11.2 34.1304 11.2 32.8024C11.2 31.8024 12.52 30.9464 14.4 30.5864C15.0593 30.4613 15.729 30.3997 16.4 30.4024C19.272 30.4024 21.6 31.4744 21.6 32.8024Z" fill="#FFEB3A"/>
<path id="Shape_11" d="M21.6 32.8008V43.2008C21.6 44.5288 19.272 45.6008 16.4 45.6008C13.528 45.6008 11.2 44.5288 11.2 43.2008V32.8008C11.2 34.1288 13.528 35.2008 16.4 35.2008C19.272 35.2008 21.6 34.1288 21.6 32.8008Z" fill="#F6BD3D"/>
<g id="Group">
<path id="Shape_12" d="M37.8128 11.2518C41.7816 11.551 43.0592 13.2022 43.0968 13.2518C43.3474 13.6096 43.8387 13.7002 44.2005 13.4553C44.5622 13.2104 44.6607 12.7206 44.4216 12.355C44.364 12.2686 43.2528 10.6814 40.0216 9.955C40.8478 9.27579 41.3366 8.26991 41.36 7.2006C41.253 5.42775 40.0189 3.92441 38.3008 3.4742C38.3712 2.89632 38.407 2.31475 38.408 1.7326C38.4071 1.19628 38.1376 0.696059 37.6902 0.400346C37.2428 0.104633 36.6769 0.0527627 36.1832 0.262197C35.7793 0.445057 35.4042 0.685711 35.0696 0.976597C34.677 1.38005 34.1365 1.60549 33.5736 1.6006C33.0116 1.60455 32.4722 1.37921 32.08 0.976597C30.6701 -0.325532 28.4963 -0.325532 27.0864 0.976597C26.6937 1.38093 26.1524 1.60649 25.5888 1.6006C25.0269 1.60527 24.4875 1.3798 24.096 0.976597C23.7623 0.686336 23.3883 0.445971 22.9856 0.262997C22.4922 0.0549664 21.9274 0.107546 21.4809 0.403083C21.0344 0.69862 20.7653 1.19793 20.764 1.7334C20.764 3.7238 21.1576 7.2742 23.6496 9.6582C22.3399 10.4546 21.1168 11.3852 20 12.435V6.4006C20 4.5766 17.42 3.2006 14 3.2006C10.58 3.2006 8 4.5766 8 6.4006V14.4606C5.1944 14.7406 3.2 16.0006 3.2 17.6006V37.9486C1.2672 38.4678 0 39.5206 0 40.8006V44.8006C0 46.6246 2.58 48.0006 6 48.0006C9.0584 48.0006 11.44 46.899 11.9096 45.3606C13.2905 46.0918 14.8382 46.4502 16.4 46.4006C19.82 46.4006 22.4 45.0246 22.4 43.2006V32.8006C22.4 30.9766 19.82 29.6006 16.4 29.6006C15.9992 29.6003 15.5987 29.6204 15.2 29.6606V17.6006C15.2 15.8486 12.8184 14.5142 9.6 14.411V8.6158C10.961 9.30755 12.474 9.64618 14 9.6006C15.526 9.64618 17.039 9.30755 18.4 8.6158V14.0718C17.8736 14.6614 17.3432 15.3038 16.8208 16.0158C16.5816 16.372 16.666 16.8535 17.0121 17.1071C17.3583 17.3607 17.8429 17.2961 18.1104 16.9606C18.6242 16.265 19.1749 15.5974 19.76 14.9606C19.7664 14.9534 19.772 14.9462 19.7784 14.9398C21.3056 13.2426 23.0989 11.8054 25.088 10.6846C25.4802 10.8738 25.895 11.0117 26.3224 11.095L24.26 13.0198C23.937 13.3216 23.9198 13.828 24.2216 14.151C24.5234 14.474 25.0298 14.4912 25.3528 14.1894L28.5528 11.2046H28.808V13.6046C28.808 14.0464 29.1662 14.4046 29.608 14.4046C30.0498 14.4046 30.408 14.0464 30.408 13.6046V11.2006H30.6632L33.8632 14.1854C34.0721 14.3806 34.3693 14.4495 34.6429 14.3662C34.9164 14.2829 35.1247 14.0599 35.1893 13.7814C35.2538 13.5029 35.1649 13.211 34.956 13.0158L32.88 11.083C33.3048 10.9989 33.717 10.8604 34.1064 10.671C36.2208 11.815 43.1712 16.335 45.7744 27.3838C46.9064 32.1934 46.4984 35.8726 44.5624 38.3166C42.0856 41.4406 37.788 41.6006 36.952 41.6006H25.6C25.1582 41.6006 24.8 41.9588 24.8 42.4006C24.8 42.8424 25.1582 43.2006 25.6 43.2006H36.952C38.312 43.2006 42.956 42.9198 45.816 39.3102C48.0704 36.463 48.5808 32.327 47.3312 27.0174C45.36 18.6406 40.9776 13.787 37.8128 11.2518ZM6 39.2006C8.6456 39.2006 10.4 40.1606 10.4 40.8006C10.4 41.4406 8.6456 42.4006 6 42.4006C3.3544 42.4006 1.6 41.4406 1.6 40.8006C1.6 40.1606 3.3544 39.2006 6 39.2006ZM6 46.4006C3.3544 46.4006 1.6 45.4406 1.6 44.8006V43.0158C2.96098 43.7076 4.47399 44.0462 6 44.0006C7.52602 44.0462 9.03902 43.7076 10.4 43.0158V44.8006C10.4 45.4406 8.6456 46.4006 6 46.4006ZM16.4 44.8006C13.7544 44.8006 12 43.8406 12 43.2006V35.0158C13.361 35.7076 14.874 36.0462 16.4 36.0006C17.926 36.0462 19.439 35.7076 20.8 35.0158V43.2006C20.8 43.8406 19.0456 44.8006 16.4 44.8006ZM20.8 32.8006C20.8 33.4406 19.0456 34.4006 16.4 34.4006C13.7544 34.4006 12 33.4406 12 32.8006C12 32.1606 13.7544 31.2006 16.4 31.2006C19.0456 31.2006 20.8 32.1606 20.8 32.8006ZM10.4 32.8006V38.5854C9.03902 37.8936 7.52602 37.555 6 37.6006C5.59924 37.6003 5.19873 37.6204 4.8 37.6606V19.8158C6.16098 20.5075 7.67399 20.8462 9.2 20.8006C10.726 20.8462 12.239 20.5075 13.6 19.8158V29.9486C11.6672 30.4678 10.4 31.5206 10.4 32.8006ZM13.6 17.6006C13.6 18.2406 11.8456 19.2006 9.2 19.2006C6.5544 19.2006 4.8 18.2406 4.8 17.6006C4.8 16.9606 6.5544 16.0006 9.2 16.0006C11.8456 16.0006 13.6 16.9606 13.6 17.6006ZM14 8.0006C11.3544 8.0006 9.6 7.0406 9.6 6.4006C9.6 5.7606 11.3544 4.8006 14 4.8006C16.6456 4.8006 18.4 5.7606 18.4 6.4006C18.4 7.0406 16.6456 8.0006 14 8.0006ZM39.76 7.2006C39.76 8.5118 38.34 9.5878 36.56 9.6006C36.2623 9.59871 35.9656 9.56465 35.6752 9.499C36.836 8.26003 37.643 6.73222 38.012 5.075C38.975 5.35873 39.6676 6.20096 39.76 7.2006ZM23.0944 2.2246C23.77 2.85767 24.663 3.20706 25.5888 3.2006C26.5152 3.20755 27.4088 2.85812 28.0848 2.2246C28.4802 1.82535 29.0189 1.60073 29.5808 1.60073C30.1427 1.60073 30.6814 1.82535 31.0768 2.2246C31.7528 2.85859 32.6469 3.20809 33.5736 3.2006C34.5003 3.20776 35.3942 2.85831 36.0704 2.2246C36.2921 2.02866 36.5388 1.86295 36.804 1.7318C36.804 3.2174 36.528 6.8902 33.9504 8.9038C33.3705 9.33931 32.6675 9.57989 31.9424 9.591C32.635 8.40149 33.1831 7.13359 33.5752 5.8142C33.6518 5.53867 33.5756 5.24322 33.3753 5.03912C33.175 4.83502 32.881 4.75329 32.6041 4.82472C32.3272 4.89614 32.1094 5.10987 32.0328 5.3854C31.5897 6.88921 30.9086 8.31231 30.0152 9.6006H29.1928C28.3012 8.31117 27.6199 6.88841 27.1744 5.3854C27.0558 4.9597 26.6145 4.71077 26.1888 4.8294C25.7631 4.94803 25.5142 5.3893 25.6328 5.815C26.0253 7.13553 26.574 8.4045 27.2672 9.595C26.5275 9.5912 25.8088 9.3491 25.2176 8.9046C22.64 6.8918 22.364 3.219 22.364 1.7382C22.6291 1.86521 22.875 2.02896 23.0944 2.2246Z" fill="#171D34"/>
<path id="Shape_13" d="M43.308 37.323C44.2561 36.0192 44.77 34.4502 44.7768 32.8382C44.787 32.6262 44.7126 32.4189 44.5699 32.2618C44.4272 32.1047 44.228 32.0107 44.016 32.0006C43.5763 31.9842 43.2042 32.3222 43.1784 32.7614C43.1844 34.039 42.7908 35.2865 42.0528 36.3294C40.492 38.3006 37.5304 38.4006 36.952 38.4006C36.5101 38.4006 36.152 38.7587 36.152 39.2006C36.152 39.6424 36.5101 40.0006 36.952 40.0006C37.6592 40.0006 41.2888 39.8718 43.308 37.323Z" fill="#171D34"/>
<path id="Shape_14" d="M27.2 27.2016C27.2 26.7597 26.8418 26.4016 26.4 26.4016C25.9581 26.4016 25.6 26.7597 25.6 27.2016C25.6 28.9689 27.0327 30.4016 28.8 30.4016V31.2016C28.8 31.6434 29.1581 32.0016 29.6 32.0016C30.0418 32.0016 30.4 31.6434 30.4 31.2016V30.4016C32.1673 30.4016 33.6 28.9689 33.6 27.2016C33.6 25.4343 32.1673 24.0016 30.4 24.0016V20.8016C31.2836 20.8016 32 21.5179 32 22.4016C32 22.8434 32.3581 23.2016 32.8 23.2016C33.2418 23.2016 33.6 22.8434 33.6 22.4016C33.6 20.6343 32.1673 19.2016 30.4 19.2016V18.4016C30.4 17.9597 30.0418 17.6016 29.6 17.6016C29.1581 17.6016 28.8 17.9597 28.8 18.4016V19.2016C27.0327 19.2016 25.6 20.6343 25.6 22.4016C25.6 24.1689 27.0327 25.6016 28.8 25.6016V28.8016C27.9163 28.8016 27.2 28.0852 27.2 27.2016ZM27.2 22.4016C27.2 21.5179 27.9163 20.8016 28.8 20.8016V24.0016C27.9163 24.0016 27.2 23.2852 27.2 22.4016ZM30.4 25.6016C31.2836 25.6016 32 26.3179 32 27.2016C32 28.0852 31.2836 28.8016 30.4 28.8016V25.6016Z" fill="#171D34"/>
</g>
</g>
</g>
</g>
<defs>
<clipPath id="clip0_1807_55155">
<rect width="48" height="48" fill="white"/>
</clipPath>
</defs>
</svg>
