<svg width="500" height="500" viewBox="0 0 500 500" fill="none" xmlns="http://www.w3.org/2000/svg">
<g clip-path="url(#clip0_1468_43083)">
<path d="M453.346 444.437C482.182 420.244 497.931 380.201 498.294 355.344C501.006 170.096 512.689 80.8945 402.819 30.3949C377.418 18.7201 225.204 -28.1318 110.177 24.4374C57.0423 48.7207 -30.9596 98.4039 10.9798 297.462C27.5836 376.272 80.1909 474.287 153.197 491.027C199.107 501.555 213.723 502.622 309.132 493.937C391.714 486.421 418.071 474.025 453.343 444.434L453.346 444.437Z" fill="#CADDFF"/>
<path d="M290.531 14.9295C290.37 14.9295 290.206 14.8858 290.059 14.7957L286.826 12.8135C286.4 12.5514 286.266 11.9944 286.528 11.5685C286.79 11.1426 287.345 11.0088 287.773 11.2709L291.006 13.2531C291.432 13.5152 291.566 14.0722 291.304 14.4981C291.134 14.7766 290.837 14.9295 290.531 14.9295Z" fill="#171D34"/>
<path d="M301.851 21.8694C301.69 21.8694 301.526 21.8257 301.379 21.7356L298.143 19.7534C297.718 19.4913 297.584 18.9343 297.846 18.5084C298.105 18.0825 298.662 17.9487 299.091 18.2108L302.326 20.193C302.752 20.4551 302.886 21.0121 302.624 21.438C302.455 21.7165 302.157 21.8694 301.851 21.8694Z" fill="#171D34"/>
<path d="M290.157 24.7119C289.999 24.7119 289.835 24.6709 289.69 24.5808C289.262 24.3214 289.125 23.7672 289.384 23.3385L291.347 20.0922C291.604 19.6635 292.161 19.527 292.59 19.7864C293.018 20.0458 293.155 20.6 292.896 21.0287L290.932 24.275C290.763 24.5562 290.463 24.7119 290.157 24.7119Z" fill="#171D34"/>
<path d="M297.03 13.3513C296.871 13.3513 296.707 13.3103 296.563 13.2202C296.134 12.9608 295.998 12.4066 296.257 11.9779L298.22 8.73158C298.479 8.30293 299.036 8.16641 299.462 8.42579C299.891 8.68517 300.028 9.23942 299.768 9.66808L297.805 12.9144C297.636 13.1956 297.335 13.3513 297.03 13.3513Z" fill="#171D34"/>
<path d="M11.7539 229.205C11.3416 229.205 10.9703 228.924 10.872 228.503C5.23394 204.209 6.15405 178.02 13.5341 152.767C13.6733 152.287 14.1784 152.014 14.6562 152.153C15.1367 152.292 15.4098 152.795 15.2705 153.275C7.9779 178.227 7.06598 204.1 12.6331 228.094C12.745 228.58 12.4447 229.066 11.9559 229.18C11.8877 229.197 11.8194 229.205 11.7512 229.205H11.7539Z" fill="#171D34"/>
<path d="M21.7337 149.043C21.5453 149.043 21.3569 148.983 21.2013 148.869L15.3803 144.626C15.0936 144.418 14.9571 144.06 15.0281 143.714C15.0991 143.367 15.3666 143.094 15.7106 143.012L22.9159 141.352C23.2135 141.284 23.5248 141.368 23.7432 141.579C23.9643 141.789 24.0626 142.095 24.008 142.395C23.462 145.396 22.6374 148.265 22.6019 148.388C22.52 148.672 22.3043 148.899 22.0258 148.994C21.9303 149.027 21.832 149.043 21.7337 149.043ZM18.0478 144.331L21.204 146.632C21.417 145.811 21.7009 144.667 21.9603 143.43L18.0478 144.331Z" fill="#171D34"/>
<path d="M281.295 488.256C263.904 488.256 246.329 486.348 228.805 482.545C228.316 482.438 228.007 481.958 228.111 481.469C228.218 480.98 228.701 480.672 229.187 480.775C278.086 491.385 328.157 486.842 370.181 467.981C370.637 467.774 371.172 467.981 371.377 468.437C371.582 468.893 371.377 469.428 370.921 469.633C349.624 479.192 326.513 485.144 302.226 487.323C295.291 487.945 288.304 488.256 281.292 488.256H281.295Z" fill="#171D34"/>
<path d="M282.627 477.056C275.58 477.056 268.489 476.726 261.371 476.06C260.874 476.013 260.508 475.571 260.554 475.074C260.601 474.577 261.051 474.206 261.54 474.258C297.535 477.627 332.979 472.349 364.035 458.993C364.496 458.793 365.026 459.009 365.223 459.465C365.419 459.924 365.209 460.456 364.75 460.653C339.559 471.487 311.512 477.054 282.624 477.054L282.627 477.056Z" fill="#171D34"/>
<path d="M476.151 46.5823C475.94 46.5823 475.725 46.5086 475.555 46.3584C457.941 30.8967 437.329 18.4575 414.293 9.37922C413.828 9.19629 413.599 8.66934 413.782 8.20519C413.965 7.74104 414.492 7.51169 414.956 7.69462C438.187 16.8493 458.979 29.3978 476.749 44.9987C477.125 45.3291 477.161 45.8997 476.83 46.2765C476.653 46.4813 476.402 46.585 476.151 46.585V46.5823Z" fill="#171D34"/>
<path d="M454.856 44.1387C454.659 44.1387 454.463 44.0759 454.296 43.9448C431.735 26.1378 405.036 13.5129 374.944 6.41956C374.458 6.30489 374.155 5.81616 374.27 5.33017C374.384 4.84418 374.87 4.54111 375.359 4.65579C405.711 11.8092 432.647 24.5488 455.418 42.5196C455.812 42.8281 455.877 43.3988 455.569 43.7919C455.391 44.0185 455.126 44.1359 454.859 44.1359L454.856 44.1387Z" fill="#171D34"/>
<path d="M482.198 334.97L195.718 295.133C188.526 294.215 183.136 288.094 183.136 280.845L179.207 81.0333C179.207 81.0333 185.738 76.3263 189.438 74.5216C191.322 73.6042 193.49 73.2001 195.745 73.4895L481.373 109.914C488.565 110.832 493.955 116.953 493.955 124.202V320.456C493.955 323.967 492.35 327.063 489.868 329.106C487.582 330.984 482.198 334.976 482.198 334.976V334.97Z" fill="#99B9FF"/>
<path d="M473.454 337.624L187.826 301.199C180.634 300.282 175.245 294.16 175.245 286.911V90.6572C175.245 83.9133 181.164 78.7012 187.854 79.5531L473.482 115.978C480.674 116.895 486.064 123.017 486.064 130.266V326.52C486.064 333.264 480.144 338.476 473.454 337.624Z" fill="white"/>
<path d="M474.872 338.62C474.364 338.62 473.853 338.587 473.342 338.522L187.714 302.097C180.091 301.125 174.341 294.597 174.341 286.911V90.6571C174.341 87.1841 175.837 83.8723 178.445 81.5761C181.052 79.2799 184.525 78.2178 187.971 78.6547L473.599 115.08C481.223 116.052 486.973 122.582 486.973 130.266V326.52C486.973 329.993 485.477 333.304 482.869 335.601C480.646 337.555 477.799 338.62 474.872 338.62ZM473.572 336.728C476.507 337.102 479.456 336.196 481.673 334.244C483.89 332.291 485.163 329.476 485.163 326.522V130.268C485.163 123.492 480.092 117.733 473.37 116.876L187.742 80.4512C184.809 80.0772 181.858 80.9836 179.64 82.9358C177.423 84.8879 176.151 87.7029 176.151 90.6571V286.911C176.151 293.688 181.221 299.446 187.944 300.303L473.572 336.728Z" fill="#5479F7"/>
<path d="M467.386 329.534L194.653 294.756C189.422 294.09 185.504 289.636 185.504 284.364V95.0588C185.504 90.5538 189.457 87.0727 193.924 87.6433L466.656 122.422C471.888 123.088 475.806 127.541 475.806 132.813V322.119C475.806 326.624 471.852 330.105 467.386 329.534Z" fill="#CADDFF"/>
<path d="M306.82 453.205L13.0633 415.322C10.7643 415.027 9.46735 413.103 9.49738 411.178C9.5165 409.851 9.62571 400.499 9.62571 400.499L164.949 311.707C172.731 307.262 182.801 305.545 191.691 306.684L481.74 344.097C483.487 344.324 484.984 345.454 485.674 347.073L486.141 348.165C486.141 348.165 485.893 355.963 485.994 357.784C486.073 359.209 485.431 360.678 483.941 361.53L332.516 448.105C324.734 452.55 315.716 454.338 306.825 453.2L306.82 453.205Z" fill="#5479F7"/>
<path d="M49.1921 409.521L14.1115 404.989C10.2261 404.492 9.20492 399.337 12.6043 397.396L163.218 311.378C171 306.933 180.018 305.145 188.909 306.283L481.617 344.092C485.502 344.589 486.523 349.744 483.124 351.685L332.51 437.703C324.729 442.148 315.71 443.937 306.82 442.798L49.1921 409.519V409.521Z" fill="white"/>
<path d="M311.994 444.032C310.227 444.032 308.461 443.92 306.705 443.696L13.9968 405.887C11.837 405.611 10.1633 404.05 9.74003 401.912C9.31682 399.774 10.2643 397.694 12.1592 396.612L162.773 310.594C170.677 306.081 179.999 304.233 189.026 305.388L481.734 343.199C483.896 343.475 485.568 345.037 485.991 347.175C486.414 349.313 485.466 351.393 483.572 352.474L332.958 438.49C326.593 442.126 319.303 444.032 311.991 444.032H311.994ZM49.3095 408.623L306.937 441.903C315.573 443.008 324.499 441.239 332.062 436.92L482.676 350.902C484.139 350.066 484.432 348.608 484.216 347.524C484 346.44 483.176 345.206 481.505 344.991L188.797 307.179C180.16 306.076 171.234 307.842 163.671 312.161L13.0575 398.182C11.594 399.018 11.3018 400.476 11.5175 401.56C11.7333 402.644 12.5578 403.878 14.2289 404.093L49.3095 408.626V408.623Z" fill="#5479F7"/>
<path d="M364.129 395.053L110.313 362.027C106.805 361.577 105.882 356.924 108.953 355.169L168.633 321.43C175.661 317.417 183.806 315.8 191.836 316.83L445.652 349.855C449.16 350.306 450.083 354.958 447.011 356.714L387.332 390.452C380.304 394.466 372.159 396.082 364.129 395.053Z" fill="#CADDFF"/>
<path d="M455.466 326.671L206.221 295.444C205.333 295.332 204.667 294.579 204.667 293.686V28.1887C204.667 27.1212 205.601 26.2966 206.66 26.4304L455.905 57.6568C456.793 57.7688 457.459 58.5224 457.459 59.4152V324.91C457.459 325.977 456.525 326.802 455.466 326.668V326.671Z" fill="#99B9FF"/>
<path d="M455.687 327.588C455.575 327.588 455.466 327.583 455.354 327.567L206.109 296.34C204.771 296.174 203.763 295.03 203.763 293.684V28.1891C203.763 27.4218 204.094 26.6901 204.67 26.1823C205.246 25.6744 206.016 25.4369 206.775 25.5325L456.02 56.7589C457.358 56.9282 458.365 58.0695 458.365 59.4155V324.91C458.365 325.677 458.035 326.409 457.459 326.917C456.967 327.351 456.337 327.586 455.687 327.586V327.588ZM455.58 325.773C455.834 325.806 456.075 325.729 456.263 325.562C456.451 325.396 456.555 325.164 456.555 324.913V59.4155C456.555 58.9787 456.227 58.6073 455.796 58.5555L206.551 27.329C206.297 27.299 206.057 27.3727 205.868 27.5392C205.68 27.7058 205.576 27.9379 205.576 28.1891V293.684C205.576 294.12 205.904 294.489 206.335 294.544L455.58 325.77V325.773Z" fill="#171D34"/>
<path d="M428.735 123.179L254.645 101.366V93.6725L428.735 115.482V123.179Z" fill="#CADDFF"/>
<path d="M383.265 132.631L254.645 116.517V108.82L383.265 124.935V132.631Z" fill="#CADDFF"/>
<path d="M428.735 164.163L254.645 142.353V134.659L428.735 156.469V164.163Z" fill="#CADDFF"/>
<path d="M383.265 173.615L254.645 157.501V149.807L383.265 165.921V173.615Z" fill="#CADDFF"/>
<path d="M428.735 205.15L254.645 183.34V175.644L428.735 197.456V205.15Z" fill="#CADDFF"/>
<path d="M383.265 214.602L254.645 198.488V190.794L383.265 206.908V214.602Z" fill="#CADDFF"/>
<path d="M428.735 246.137L254.645 224.325V216.631L428.735 238.44V246.137Z" fill="#CADDFF"/>
<path d="M383.265 255.589L254.645 239.475V231.778L383.265 247.893V255.589Z" fill="#CADDFF"/>
<path d="M243.311 96.4567C243.311 99.0915 241.16 100.959 238.506 100.626C235.852 100.293 233.701 97.8874 233.701 95.2527C233.701 92.6179 235.852 90.7504 238.506 91.0835C241.16 91.4166 243.311 93.822 243.311 96.4567Z" fill="#CADDFF"/>
<path d="M242.181 137.859C242.181 140.494 240.029 142.361 237.375 142.028C234.722 141.695 232.57 139.29 232.57 136.655C232.57 134.02 234.722 132.153 237.375 132.486C240.029 132.819 242.181 135.224 242.181 137.859Z" fill="#CADDFF"/>
<path d="M242.366 177.932C242.366 180.566 240.215 182.434 237.561 182.101C234.907 181.768 232.756 179.362 232.756 176.728C232.756 174.093 234.907 172.225 237.561 172.558C240.215 172.892 242.366 175.297 242.366 177.932Z" fill="#CADDFF"/>
<path d="M241.236 219.334C241.236 221.969 239.084 223.836 236.431 223.503C233.777 223.17 231.625 220.765 231.625 218.13C231.625 215.495 233.777 213.628 236.431 213.961C239.084 214.294 241.236 216.699 241.236 219.334Z" fill="#CADDFF"/>
<path d="M427.606 281.924L253.516 260.115V252.418L427.606 274.23V281.924Z" fill="#CADDFF"/>
<path d="M382.136 291.376L253.516 275.262V267.568L382.136 283.682V291.376Z" fill="#CADDFF"/>
<path d="M240.106 255.126C240.106 257.76 237.954 259.628 235.3 259.295C232.647 258.962 230.495 256.556 230.495 253.922C230.495 251.287 232.647 249.419 235.3 249.752C237.954 250.085 240.106 252.491 240.106 255.126Z" fill="#CADDFF"/>
<path d="M381.483 92.9245L275.921 79.6989V68.8432L381.483 82.0688V92.9245Z" fill="white"/>
<path d="M88.9482 97.7723L87.9079 92.227L81.7507 92.0032C81.2811 90.7636 80.7132 89.5759 80.0579 88.4565L83.733 83.5201L80.0606 79.239L74.6134 82.1249C73.5977 81.2976 72.5137 80.5577 71.3724 79.9079L72.0877 73.7866L66.7661 71.9163L63.4978 77.1312C62.2145 76.9237 60.9039 76.8281 59.5769 76.8391L57.1359 71.1819L51.5904 72.2221L51.3665 78.379C50.1268 78.8486 48.9391 79.4165 47.8196 80.0717L42.883 76.3968L38.6017 80.069L41.4877 85.516C40.6604 86.5316 39.9205 87.6156 39.2706 88.7568L33.149 88.0415L31.2786 93.3628L36.4938 96.631C36.2863 97.9143 36.1907 99.2248 36.2016 100.552L30.5442 102.993L31.5845 108.538L37.7416 108.762C38.2112 110.001 38.7791 111.189 39.4345 112.308L35.7593 117.245L39.4317 121.526L44.8789 118.64C45.8947 119.467 46.9786 120.207 48.12 120.857L47.4046 126.978L52.7262 128.849L55.9945 123.634C57.2778 123.841 58.5885 123.937 59.9127 123.926L62.3537 129.583L67.8992 128.543L68.1231 122.386C69.3628 121.916 70.5505 121.348 71.67 120.693L76.6066 124.368L80.8879 120.696L78.0019 115.249C78.8292 114.233 79.5691 113.149 80.219 112.008L86.3406 112.723L88.211 107.402L82.9958 104.134C83.2033 102.851 83.2989 101.54 83.288 100.213L88.9454 97.7723H88.9482ZM62.422 114.654C54.5392 116.134 46.9486 110.941 45.4687 103.058C43.9888 95.1758 49.1821 87.5855 57.0649 86.1057C64.9476 84.6259 72.5382 89.8189 74.0181 97.7013C75.498 105.584 70.3048 113.174 62.422 114.654Z" fill="#5479F7"/>
<path d="M60.0632 128.922C59.7082 128.922 59.3778 128.712 59.2331 128.376L57.0269 123.262C56.0576 123.246 55.0965 123.175 54.1572 123.049L51.2029 127.761C50.979 128.119 50.5339 128.275 50.1353 128.136L44.8137 126.265C44.415 126.126 44.1666 125.727 44.2157 125.307L44.8628 119.773C44.0437 119.278 43.2491 118.735 42.4901 118.151L37.5671 120.758C37.193 120.958 36.7316 120.87 36.4558 120.548L32.7834 116.267C32.5076 115.945 32.4912 115.478 32.7452 115.137L36.0654 110.675C35.6067 109.845 35.1916 108.974 34.8258 108.076L29.2611 107.874C28.8379 107.858 28.483 107.552 28.4038 107.137L27.3635 101.592C27.287 101.177 27.5055 100.762 27.8932 100.595L33.0073 98.3889C33.0237 97.4224 33.0947 96.4613 33.2203 95.5194L28.5075 92.5652C28.1498 92.3413 27.9942 91.899 28.1335 91.4976L30.0038 86.1763C30.1431 85.7777 30.539 85.5292 30.9622 85.5783L36.4968 86.2254C36.991 85.4063 37.5343 84.6118 38.1187 83.8528L35.5111 78.9301C35.3118 78.556 35.3991 78.0946 35.7213 77.8188L40.0027 74.1466C40.3249 73.8708 40.7918 73.8544 41.1331 74.1084L45.5946 77.4284C46.4274 76.967 47.2984 76.552 48.194 76.1888L48.396 70.6245C48.4124 70.2013 48.7182 69.8464 49.1332 69.7672L54.6787 68.7269C55.0938 68.6505 55.5088 68.8689 55.6754 69.2593L57.8816 74.3732C58.8509 74.3896 59.8092 74.4606 60.754 74.5862L63.7083 69.8737C63.9322 69.516 64.3773 69.3604 64.7759 69.4996L70.0975 71.3699C70.4962 71.5091 70.7446 71.9077 70.6955 72.3282L70.0484 77.8625C70.8675 78.3567 71.6621 78.9 72.4211 79.4843L77.3441 76.8769C77.7182 76.6776 78.1796 76.7649 78.4554 77.0871L82.1278 81.3682C82.4036 81.6904 82.42 82.1573 82.166 82.4986L78.8431 86.9599C79.3018 87.7899 79.7168 88.6609 80.0827 89.5591L85.6473 89.7612C86.0706 89.7776 86.4255 90.0833 86.5047 90.4984L87.545 96.0436C87.6215 96.4586 87.403 96.8736 87.0153 97.0402L81.9012 99.2462C81.8848 100.215 81.8138 101.177 81.6882 102.119L86.4009 105.073C86.7586 105.297 86.9143 105.739 86.775 106.14L84.9047 111.462C84.7654 111.86 84.3695 112.111 83.9463 112.06L78.4117 111.412C77.9175 112.234 77.3741 113.029 76.7898 113.785L79.3974 118.708C79.594 119.082 79.5093 119.543 79.1871 119.819L74.9058 123.491C74.5836 123.767 74.1167 123.783 73.7754 123.53L69.3139 120.207C68.4838 120.665 67.6128 121.08 66.7145 121.446L66.5125 127.011C66.4961 127.434 66.1903 127.789 65.7752 127.868L60.2297 128.908C60.1751 128.919 60.1178 128.925 60.0632 128.925V128.922ZM57.6222 121.454C57.9826 121.454 58.3102 121.67 58.4522 122.001L60.6065 126.994L64.7295 126.222L64.9261 120.788C64.9397 120.425 65.1691 120.103 65.5104 119.975C66.7036 119.521 67.8504 118.975 68.9207 118.347C69.2347 118.164 69.6279 118.184 69.92 118.402L74.2751 121.646L77.4588 118.915L74.9113 114.107C74.742 113.785 74.7802 113.395 75.0096 113.113C75.8014 112.141 76.5195 111.093 77.142 109.998C77.3223 109.681 77.669 109.504 78.0322 109.545L83.4357 110.176L84.8282 106.219L80.2274 103.336C79.9189 103.142 79.7578 102.785 79.8151 102.424C80.0117 101.204 80.1073 99.937 80.0964 98.6565C80.0936 98.2934 80.3093 97.963 80.6425 97.8183L85.6364 95.6641L84.8637 91.5413L79.4301 91.3447C79.067 91.3311 78.7448 91.1017 78.6165 90.7605C78.1632 89.5673 77.6171 88.4206 76.9891 87.3503C76.8062 87.0363 76.8253 86.6432 77.0438 86.351L80.2875 81.9962L77.5571 78.8127L72.7488 81.36C72.4266 81.5293 72.0361 81.4911 71.7549 81.2617C70.7801 80.47 69.7316 79.7519 68.6395 79.1294C68.3227 78.9492 68.1453 78.5997 68.1889 78.2393L68.8197 72.836L64.8633 71.4436L61.9799 76.0441C61.7861 76.3527 61.4257 76.5192 61.0707 76.4564C59.8447 76.2598 58.5751 76.1615 57.3027 76.1752C56.9423 76.1725 56.6092 75.9622 56.4645 75.6291L54.3101 70.6354L50.1872 71.4081L49.9879 76.8414C49.9742 77.2045 49.7449 77.5267 49.4036 77.655C48.2131 78.1082 47.0663 78.6543 45.9932 79.2823C45.6792 79.4652 45.2861 79.4461 44.9939 79.2277L40.6389 75.9868L37.4552 78.7171L40.0027 83.5252C40.1719 83.8473 40.1337 84.2378 39.9044 84.519C39.1098 85.4937 38.3944 86.5421 37.7719 87.6343C37.5917 87.951 37.2422 88.1284 36.8818 88.0848L31.4782 87.4541L30.0857 91.4103L34.6865 94.2962C34.995 94.49 35.1561 94.8477 35.0988 95.2081C34.9022 96.4313 34.8066 97.6982 34.8176 98.9759C34.8203 99.3391 34.6046 99.6694 34.2715 99.8141L29.2775 101.968L30.0502 106.091L35.4838 106.288C35.8469 106.301 36.1691 106.531 36.2975 106.872C36.7507 108.065 37.2968 109.212 37.9248 110.282C38.1077 110.596 38.0886 110.989 37.8702 111.281L34.6292 115.636L37.3596 118.82L42.1652 116.272C42.4846 116.1 42.8778 116.141 43.159 116.371C44.1338 117.165 45.1823 117.881 46.2745 118.503C46.5912 118.683 46.7687 119.033 46.725 119.393L46.0943 124.796L50.0507 126.189L52.9367 121.588C53.1306 121.28 53.4883 121.116 53.8487 121.176C55.0692 121.373 56.3389 121.474 57.6167 121.457H57.6249L57.6222 121.454ZM57.4201 114.244C54.3429 114.244 51.3367 113.321 48.7428 111.546C45.3407 109.22 43.0498 105.709 42.2908 101.657C40.7235 93.2969 46.2472 85.2179 54.6105 83.648C62.9738 82.0808 71.0504 87.607 72.6204 95.9671C74.1904 104.327 68.664 112.406 60.3007 113.976C59.3423 114.156 58.3785 114.244 57.4228 114.244H57.4201ZM57.4583 85.1934C56.6283 85.1934 55.7873 85.2698 54.9409 85.4282C47.5605 86.8124 42.6839 93.944 44.0683 101.324C44.74 104.898 46.7632 108 49.764 110.053C52.7674 112.106 56.388 112.868 59.9649 112.196C67.3452 110.812 72.2218 103.68 70.8375 96.3002C69.6115 89.7666 63.8776 85.1934 57.4583 85.1934Z" fill="#171D34"/>
<path d="M185.095 50.0816L183.315 40.5939L172.778 40.2116C171.973 38.0874 171.006 36.0588 169.879 34.1422L176.167 25.6946L169.881 18.3692L160.562 23.3056C158.823 21.8913 156.969 20.6217 155.017 19.5132L156.24 9.03704L147.134 5.8344L141.54 14.757C139.344 14.4021 137.103 14.2355 134.831 14.2546L130.653 4.573L121.165 6.35315L120.78 16.8894C118.658 17.6948 116.627 18.6641 114.71 19.789L106.262 13.5011L98.9365 19.7862L103.873 29.1047C102.459 30.844 101.189 32.6978 100.081 34.65L89.6066 33.4268L86.4038 42.5324L95.3269 48.1268C94.972 50.3219 94.8054 52.5635 94.8245 54.8351L85.1424 59.0125L86.9226 68.5003L97.4594 68.8825C98.2649 71.0067 99.2314 73.0353 100.359 74.952L94.0709 83.3995L100.356 90.7249L109.675 85.7885C111.415 87.2028 113.269 88.4724 115.221 89.5809L113.998 100.054L123.104 103.257L128.698 94.3344C130.894 94.6893 133.135 94.8559 135.404 94.8367L139.582 104.518L149.07 102.738L149.452 92.202C151.577 91.3966 153.605 90.43 155.522 89.3024L163.97 95.5903L171.296 89.3052L166.359 79.9866C167.774 78.2474 169.043 76.3908 170.152 74.4414L180.628 75.6646L183.831 66.559L174.908 60.9646C175.263 58.7722 175.43 56.5279 175.411 54.259L185.093 50.0816H185.095ZM139.705 78.971C126.214 81.502 113.228 72.6176 110.697 59.1299C108.165 45.6395 117.05 32.6541 130.539 30.1232C144.03 27.5922 157.016 36.4766 159.547 49.9642C162.078 63.4547 153.193 76.44 139.705 78.971Z" fill="#5479F7"/>
<path d="M135.666 102.743C135.311 102.743 134.981 102.533 134.836 102.197L130.894 93.0646C128.98 93.0536 127.082 92.9117 125.233 92.6414L119.956 101.059C119.732 101.417 119.287 101.572 118.888 101.433L109.779 98.2303C109.381 98.091 109.132 97.6924 109.181 97.272L110.336 87.3883C108.709 86.4299 107.139 85.3569 105.656 84.1883L96.8615 88.8462C96.4874 89.0456 96.026 88.9582 95.7502 88.636L89.4648 81.3106C89.189 80.9884 89.1726 80.5216 89.4265 80.1803L95.3598 72.2105C94.4396 70.5833 93.6177 68.8659 92.9133 67.0885L82.9718 66.7281C82.5486 66.7117 82.1936 66.4059 82.1144 65.9909L80.3342 56.5031C80.2577 56.0881 80.4762 55.6731 80.8666 55.5065L89.9999 51.5667C90.0108 49.6528 90.1528 47.7552 90.4231 45.9041L82.0052 40.6264C81.6475 40.4025 81.4919 39.9602 81.6311 39.5589L84.8339 30.4506C84.9732 30.0519 85.3718 29.8008 85.7923 29.8526L95.6765 31.0076C96.6321 29.383 97.7052 27.8131 98.8766 26.3278L94.2184 17.5335C94.0191 17.1595 94.1065 16.698 94.4287 16.4223L101.754 10.1371C102.077 9.86138 102.544 9.84499 102.885 10.0989L110.855 16.0319C112.482 15.109 114.202 14.2899 115.977 13.5855L116.338 3.64448C116.354 3.22129 116.66 2.86635 117.075 2.78717L126.563 1.00701C126.975 0.933293 127.393 1.14899 127.56 1.53669L131.503 10.6695C133.414 10.6805 135.311 10.8224 137.163 11.0927L142.441 2.67522C142.665 2.31756 143.11 2.16193 143.508 2.30117L152.617 5.50382C153.016 5.64306 153.264 6.04169 153.215 6.46215L152.06 16.3458C153.687 17.3042 155.257 18.3772 156.74 19.5458L165.535 14.8879C165.909 14.6885 166.37 14.7759 166.646 15.0981L172.931 22.4235C173.207 22.7457 173.224 23.2125 172.97 23.5538L167.036 31.5236C167.959 33.1508 168.778 34.8682 169.483 36.6456L179.424 37.006C179.848 37.0224 180.203 37.3282 180.282 37.7432L182.062 47.231C182.138 47.646 181.92 48.061 181.532 48.2276L172.399 52.1701C172.388 54.0841 172.246 55.9816 171.976 57.83L180.394 63.1077C180.751 63.3316 180.907 63.7739 180.768 64.1752L177.565 73.2835C177.426 73.6822 177.024 73.9333 176.607 73.8815L166.722 72.7265C165.764 74.3538 164.691 75.9237 163.522 77.4063L168.18 86.2006C168.38 86.5746 168.292 87.0361 167.97 87.3118L160.644 93.597C160.322 93.8727 159.853 93.8891 159.514 93.6352L151.544 87.7022C149.917 88.6224 148.199 89.4442 146.419 90.1486L146.058 100.09C146.042 100.513 145.736 100.868 145.321 100.947L135.833 102.727C135.778 102.738 135.721 102.743 135.666 102.743ZM131.489 91.2516C131.849 91.2516 132.177 91.4673 132.319 91.7977L136.21 100.816L144.276 99.3033L144.633 89.4906C144.647 89.1275 144.876 88.8053 145.217 88.677C147.293 87.8879 149.289 86.9378 151.151 85.8429C151.465 85.66 151.858 85.6791 152.15 85.8975L160.016 91.754L166.245 86.4108L161.647 77.7312C161.477 77.409 161.515 77.0186 161.745 76.7374C163.124 75.0418 164.372 73.218 165.453 71.3177C165.633 71.001 165.98 70.8235 166.343 70.8645L176.099 72.0058L178.821 64.2626L170.512 59.0532C170.204 58.8594 170.043 58.5017 170.1 58.1413C170.444 56.0144 170.608 53.8083 170.589 51.5858C170.586 51.2227 170.802 50.8923 171.135 50.7476L180.153 46.8569L178.641 38.7916L168.828 38.434C168.464 38.4203 168.142 38.191 168.014 37.8497C167.225 35.7747 166.272 33.7788 165.182 31.9195C164.997 31.6055 165.019 31.2123 165.237 30.9202L171.094 23.0515L165.75 16.8236L157.07 21.4215C156.748 21.5907 156.358 21.5525 156.076 21.3232C154.381 19.9444 152.557 18.6966 150.657 17.6154C150.34 17.4352 150.162 17.0858 150.203 16.7254L151.345 6.96999L143.601 4.24788L138.391 12.5562C138.198 12.8647 137.837 13.0313 137.482 12.9685C135.35 12.6244 133.138 12.4552 130.926 12.4797H130.918C130.558 12.4797 130.23 12.264 130.088 11.9337L126.197 2.91549L118.132 4.42808L117.774 14.2408C117.76 14.6039 117.531 14.9261 117.19 15.0544C115.117 15.8407 113.121 16.7936 111.256 17.8885C110.945 18.0714 110.549 18.0523 110.257 17.8339L102.388 11.9774L96.1598 17.3206L100.758 26.0002C100.927 26.3224 100.889 26.7128 100.66 26.994C99.2779 28.695 98.0301 30.5188 96.9516 32.4137C96.7714 32.7304 96.4219 32.9078 96.0615 32.8669L86.3056 31.7284L83.5834 39.4688L91.8921 44.6782C92.2006 44.872 92.3617 45.2297 92.3044 45.5901C91.9604 47.717 91.7965 49.9231 91.8157 52.1455C91.8184 52.5087 91.6027 52.839 91.2696 52.9837L82.2537 56.8744L83.7663 64.9397L93.5795 65.2974C93.9427 65.3111 94.2649 65.5404 94.3932 65.8817C95.1823 67.9567 96.1352 69.9526 97.2246 71.8146C97.4103 72.1286 97.3885 72.5218 97.17 72.8139L91.3133 80.6826L96.6567 86.9105L105.337 82.3126C105.656 82.1434 106.049 82.1788 106.331 82.4109C108.026 83.7897 109.85 85.0375 111.751 86.1187C112.067 86.2989 112.245 86.6484 112.204 87.0088L111.065 96.7641L118.806 99.4862L124.016 91.1779C124.21 90.8694 124.567 90.7056 124.928 90.7656C127.057 91.1097 129.269 91.2789 131.483 91.2544H131.492L131.489 91.2516ZM131.148 77.6274C126.009 77.6274 120.993 76.0875 116.66 73.1224C110.981 69.2372 107.155 63.3753 105.886 56.615C104.616 49.8521 106.058 43.0018 109.94 37.3255C113.826 31.6464 119.688 27.8213 126.448 26.5517C133.206 25.2848 140.06 26.7237 145.739 30.6062C151.418 34.4914 155.244 40.3534 156.513 47.1136C157.783 53.8766 156.341 60.7269 152.459 66.4032C148.573 72.0822 142.711 75.9073 135.95 77.1769C134.348 77.4773 132.742 77.6247 131.148 77.6247V77.6274ZM131.21 27.9169C129.75 27.9169 128.27 28.0506 126.784 28.3291C120.499 29.5086 115.046 33.0662 111.437 38.3439C107.824 43.6215 106.486 49.9913 107.666 56.2792C108.845 62.5644 112.403 68.0168 117.681 71.6262C122.962 75.2384 129.332 76.5763 135.617 75.3968C141.903 74.2173 147.355 70.6597 150.965 65.382C154.577 60.1044 155.915 53.7346 154.736 47.4467C152.579 35.9549 142.501 27.9141 131.21 27.9141V27.9169Z" fill="#171D34"/>
<path d="M175.002 193.469L172.555 180.429L158.074 179.904C156.967 176.984 155.638 174.196 154.089 171.562L162.731 159.952L154.092 149.884L141.285 156.669C138.894 154.725 136.346 152.98 133.663 151.457L135.344 137.059L122.83 132.657L115.141 144.92C112.123 144.432 109.043 144.203 105.92 144.229L100.179 130.923L87.1388 133.37L86.6096 147.851C83.6939 148.958 80.902 150.29 78.2676 151.836L66.6571 143.194L56.5889 151.832L63.3736 164.639C61.4298 167.029 59.6848 169.577 58.1613 172.26L43.7663 170.579L39.3646 183.093L51.628 190.782C51.1402 193.799 50.9113 196.879 50.9375 200.001L37.6309 205.743L40.0776 218.782L54.5588 219.308C55.6658 222.227 56.9942 225.015 58.544 227.649L49.9018 239.259L58.5403 249.327L71.3479 242.542C73.7383 244.486 76.2863 246.231 78.9694 247.755L77.2882 262.149L89.8031 266.55L97.4921 254.287C100.509 254.775 103.59 255.004 106.709 254.978L112.45 268.284L125.49 265.837L126.016 251.357C128.935 250.25 131.723 248.922 134.358 247.372L145.968 256.014L156.036 247.376L149.252 234.569C151.195 232.178 152.94 229.627 154.464 226.947L168.863 228.629L173.264 216.114L161.001 208.426C161.489 205.412 161.718 202.328 161.691 199.21L174.998 193.469H175.002ZM112.619 233.173C94.0773 236.651 76.23 224.441 72.7513 205.904C69.2727 187.363 81.4836 169.517 100.021 166.038C118.563 162.56 136.41 174.77 139.889 193.307C143.368 211.848 131.157 229.694 112.619 233.173Z" fill="#F6BD3D"/>
<path d="M107.068 265.842C106.58 265.842 106.126 265.553 105.927 265.092L100.508 252.54C97.8776 252.525 95.2695 252.33 92.729 251.958L85.4753 263.527C85.1676 264.019 84.5559 264.232 84.008 264.041L71.4894 259.64C70.9415 259.448 70.6 258.9 70.6676 258.322L72.2549 244.739C70.0184 243.422 67.8606 241.947 65.823 240.341L53.7359 246.743C53.2218 247.016 52.5876 246.896 52.2086 246.454L43.5701 236.386C43.1911 235.943 43.1686 235.301 43.5176 234.832L51.672 223.879C50.4074 221.643 49.2778 219.282 48.3097 216.84L34.6465 216.344C34.0648 216.322 33.577 215.902 33.4682 215.331L31.0215 202.292C30.9164 201.721 31.2166 201.151 31.7532 200.922L44.3056 195.507C44.3207 192.877 44.5158 190.269 44.8873 187.725L33.3181 180.471C32.8265 180.164 32.6126 179.556 32.804 179.004L37.2058 166.486C37.3971 165.938 37.945 165.593 38.5229 165.664L52.1073 167.252C53.4207 165.019 54.8955 162.861 56.5053 160.82L50.1034 148.733C49.8295 148.219 49.9495 147.585 50.3923 147.206L60.4605 138.568C60.9033 138.189 61.545 138.167 62.0141 138.516L72.9679 146.67C75.2045 145.401 77.5686 144.276 80.0078 143.308L80.5031 129.645C80.5256 129.063 80.9459 128.576 81.5163 128.467L94.5566 126.02C95.1232 125.919 95.6973 126.215 95.9262 126.748L101.345 139.3C103.972 139.315 106.58 139.51 109.124 139.882L116.378 128.313C116.686 127.821 117.297 127.607 117.845 127.799L130.364 132.2C130.912 132.392 131.253 132.94 131.186 133.517L129.598 147.101C131.835 148.418 133.993 149.893 136.03 151.499L148.117 145.097C148.631 144.823 149.266 144.944 149.645 145.386L158.283 155.454C158.662 155.897 158.685 156.538 158.336 157.008L150.181 167.961C151.45 170.197 152.575 172.557 153.543 175L167.207 175.496C167.788 175.518 168.276 175.938 168.385 176.509L170.832 189.548C170.937 190.119 170.637 190.689 170.104 190.918L157.551 196.336C157.536 198.967 157.341 201.575 156.97 204.115L168.539 211.369C169.03 211.676 169.244 212.284 169.053 212.836L164.651 225.354C164.46 225.902 163.908 226.247 163.334 226.176L149.75 224.588C148.432 226.825 146.958 228.982 145.352 231.02L151.754 243.106C152.027 243.621 151.907 244.255 151.465 244.634L141.396 253.272C140.954 253.651 140.308 253.673 139.843 253.324L128.889 245.17C126.652 246.435 124.292 247.564 121.845 248.532L121.35 262.195C121.328 262.777 120.907 263.264 120.337 263.373L107.297 265.82C107.222 265.835 107.143 265.842 107.068 265.842ZM101.326 250.048C101.822 250.048 102.272 250.345 102.467 250.799L107.814 263.193L118.9 261.114L119.391 247.628C119.41 247.129 119.725 246.686 120.194 246.51C123.046 245.425 125.789 244.12 128.349 242.615C128.78 242.363 129.321 242.39 129.722 242.69L140.533 250.739L149.093 243.395L142.774 231.466C142.541 231.024 142.593 230.487 142.909 230.101C144.804 227.77 146.519 225.264 148.005 222.652C148.252 222.217 148.729 221.973 149.228 222.029L162.636 223.598L166.377 212.956L154.958 205.796C154.534 205.53 154.313 205.038 154.392 204.543C154.864 201.62 155.09 198.588 155.063 195.533C155.06 195.034 155.356 194.58 155.814 194.381L168.209 189.034L166.13 177.95L152.643 177.458C152.144 177.439 151.701 177.124 151.525 176.655C150.44 173.803 149.13 171.06 147.633 168.505C147.378 168.073 147.408 167.533 147.708 167.132L155.758 156.317L148.414 147.758L136.484 154.077C136.041 154.31 135.505 154.257 135.118 153.942C132.788 152.047 130.281 150.332 127.669 148.846C127.234 148.598 126.99 148.118 127.046 147.623L128.615 134.215L117.973 130.474L110.813 141.893C110.546 142.317 110.051 142.546 109.563 142.459C106.632 141.987 103.593 141.754 100.553 141.788H100.542C100.047 141.788 99.5963 141.491 99.4011 141.037L94.0537 128.643L82.9686 130.722L82.477 144.208C82.4582 144.707 82.143 145.15 81.6739 145.326C78.8257 146.407 76.0826 147.717 73.5195 149.221C73.0918 149.473 72.5476 149.446 72.1461 149.146L61.3311 141.097L52.7715 148.441L59.0908 160.37C59.3235 160.812 59.271 161.349 58.9558 161.736C57.0569 164.073 55.342 166.58 53.8597 169.184C53.6121 169.619 53.1317 169.863 52.6364 169.807L39.2284 168.242L35.4871 178.88L46.9062 186.04C47.3302 186.306 47.5516 186.798 47.4728 187.293C47 190.216 46.7748 193.248 46.8011 196.303C46.8049 196.802 46.5084 197.256 46.0506 197.455L33.6596 202.802L35.7385 213.886L49.2253 214.378C49.7244 214.397 50.1672 214.712 50.3436 215.181C51.4281 218.033 52.7377 220.776 54.235 223.335C54.4902 223.767 54.4602 224.307 54.1599 224.708L46.1106 235.523L53.4545 244.082L65.3839 237.763C65.823 237.53 66.3634 237.579 66.7499 237.898C69.0802 239.793 71.587 241.508 74.1988 242.994C74.6341 243.242 74.878 243.722 74.8217 244.217L73.2569 257.624L83.8954 261.366L91.0554 249.947C91.3218 249.523 91.8134 249.298 92.3088 249.38C95.2358 249.853 98.2754 250.086 101.319 250.052H101.33L101.326 250.048ZM100.857 231.324C93.7948 231.324 86.9013 229.208 80.9459 225.132C73.1405 219.793 67.8832 211.736 66.1382 202.445C64.3932 193.151 66.3746 183.736 71.7108 175.935C77.0507 168.13 85.1075 162.873 94.3989 161.128C103.687 159.387 113.106 161.364 120.911 166.7C128.716 172.04 133.974 180.096 135.719 189.387C137.464 198.682 135.482 208.097 130.146 215.898C124.806 223.703 116.749 228.96 107.458 230.705C105.255 231.118 103.049 231.32 100.857 231.32V231.324ZM100.943 163.004C98.9358 163.004 96.9019 163.188 94.8605 163.57C86.2221 165.192 78.7281 170.081 73.7672 177.334C68.8025 184.588 66.9638 193.342 68.5849 201.984C70.206 210.622 75.0956 218.115 82.3494 223.076C89.6069 228.041 98.3617 229.879 107 228.258C115.639 226.637 123.133 221.748 128.093 214.494C133.058 207.241 134.897 198.487 133.276 189.845C130.311 174.051 116.46 163 100.943 163V163.004Z" fill="#171D34"/>
<path d="M414.231 445.157C414.231 445.157 394.823 402.616 405.955 347.467C405.955 347.467 436.036 372.673 425.191 445.157H414.231Z" fill="#5479F7"/>
<path d="M418.975 441.627C418.959 441.627 418.942 441.627 418.926 441.627C418.426 441.6 418.044 441.174 418.072 440.674C419.554 413.521 407.3 355.511 407.178 354.929C407.074 354.44 407.385 353.96 407.874 353.856C408.365 353.752 408.843 354.063 408.947 354.552C409.072 355.136 421.375 413.382 419.879 440.775C419.852 441.258 419.453 441.63 418.975 441.63V441.627Z" fill="#CADDFF"/>
<path d="M433.755 375.996C433.755 375.996 408.747 421.174 423.792 440.723H431.839C431.839 440.723 447.918 405.407 433.758 375.996H433.755Z" fill="#99B9FF"/>
<path d="M427.549 442.825C427.066 442.825 426.665 442.443 426.646 441.957C426.132 428.759 429.373 401.729 431.35 386.789C431.415 386.294 431.869 385.942 432.366 386.011C432.86 386.076 433.209 386.532 433.144 387.026C431.172 401.906 427.945 428.822 428.453 441.886C428.472 442.386 428.082 442.806 427.585 442.825C427.571 442.825 427.56 442.825 427.549 442.825Z" fill="#CADDFF"/>
<path d="M386.014 392.837C386.014 392.837 407.317 400.105 415.031 443.132H406.651C406.651 443.132 389.165 419.501 386.014 392.837Z" fill="#99B9FF"/>
<path d="M410.448 442.826C410.014 442.826 409.629 442.512 409.558 442.07C406.399 422.985 392.726 403.755 392.589 403.561C392.297 403.155 392.39 402.589 392.797 402.3C393.203 402.008 393.769 402.101 394.058 402.508C394.197 402.701 408.116 422.278 411.344 441.775C411.425 442.269 411.092 442.733 410.598 442.815C410.549 442.823 410.497 442.829 410.448 442.829V442.826Z" fill="#CADDFF"/>
<path d="M394.229 439.718H446.784L447.964 464.575C448.253 470.669 443.39 475.769 437.288 475.769H407.272C400.053 475.769 394.202 469.913 394.21 462.694L394.232 439.718H394.229Z" fill="#5479F7"/>
<path d="M437.288 476.673H407.272C403.54 476.673 400.028 475.218 397.391 472.577C394.753 469.937 393.3 466.426 393.303 462.691L393.325 439.716C393.325 439.216 393.729 438.812 394.229 438.812H446.784C447.268 438.812 447.666 439.191 447.688 439.675L448.868 464.534C449.018 467.731 447.887 470.767 445.676 473.083C443.467 475.398 440.488 476.676 437.285 476.676L437.288 476.673ZM395.135 440.622L395.113 462.694C395.111 465.943 396.375 469.001 398.671 471.3C400.968 473.599 404.023 474.865 407.272 474.865H437.288C439.988 474.865 442.503 473.79 444.368 471.835C446.233 469.88 447.188 467.319 447.06 464.621L445.921 440.625H395.133L395.135 440.622Z" fill="#171D34"/>
</g>
<defs>
<clipPath id="clip0_1468_43083">
<rect width="500" height="500" fill="white"/>
</clipPath>
</defs>
</svg>
