<svg width="20" height="20" viewBox="0 0 20 20" fill="none" xmlns="http://www.w3.org/2000/svg">
<g clip-path="url(#clip0_1807_54842)">
<path d="M18.5352 11.5039L16.7773 13.2617H17.9492C18.92 13.2617 19.707 12.4747 19.707 11.5039H18.5352Z" fill="#F6BD3D"/>
<path d="M18.5352 11.5039H12.3438C12.3438 12.4747 13.1307 13.2617 14.1016 13.2617H16.7773C17.7482 13.2617 18.5352 12.4747 18.5352 11.5039Z" fill="#F6BD3D"/>
<path d="M6.48438 11.5039L4.72656 13.2617H5.89844C6.86926 13.2617 7.65625 12.4747 7.65625 11.5039H6.48438Z" fill="#F6BD3D"/>
<path d="M6.48438 11.5039H0.292969C0.292969 12.4747 1.07996 13.2617 2.05078 13.2617H4.72656C5.69738 13.2617 6.48438 12.4747 6.48438 11.5039Z" fill="#F6BD3D"/>
<path d="M11.7578 15.0195H13.5156V17.9492H11.7578V15.0195Z" fill="#307FF4"/>
<path d="M6.48438 15.0195H12.3438V17.9492H6.48438V15.0195Z" fill="#307FF4"/>
<path d="M14.617 16.7773H3.97461L3.12773 18.0476C2.92469 18.3522 2.58285 18.5352 2.2168 18.5352V19.1211H17.079L14.617 16.7773Z" fill="#73C3FD"/>
<path d="M16.8723 18.0476L16.0254 16.7773H14.617L15.4639 18.0476C15.6669 18.3522 16.0088 18.5352 16.3748 18.5352L17.079 19.1211L17.7833 18.5352C17.4172 18.5352 17.0753 18.3522 16.8723 18.0476Z" fill="#73C3FD"/>
<path d="M9.41406 2.63672H11.1719V5.56641H9.41406V2.63672Z" fill="#73C3FD"/>
<path d="M8.82812 2.63672H10V5.56641H8.82812V2.63672Z" fill="#73C3FD"/>
<path d="M9.41406 5.56641H11.1719V15.0195H9.41406V5.56641Z" fill="#73C3FD"/>
<path d="M8.82812 5.56641H10V15.0195H8.82812V5.56641Z" fill="#73C3FD"/>
<path d="M11.1719 4.98047H10V6.15234H11.1719C11.4955 6.15234 11.7578 5.89 11.7578 5.56641C11.7578 5.24281 11.4955 4.98047 11.1719 4.98047Z" fill="#73C3FD"/>
<path d="M10.5859 5.56641C10.5859 5.24281 10.3236 4.98047 10 4.98047H8.82812C8.50453 4.98047 8.24219 5.24281 8.24219 5.56641C8.24219 5.89 8.50453 6.15234 8.82812 6.15234H10C10.3236 6.15234 10.5859 5.89 10.5859 5.56641Z" fill="#73C3FD"/>
<path d="M13.5156 14.4336H12.3438V15.6055H13.5156C13.8392 15.6055 14.1016 15.3431 14.1016 15.0195C14.1016 14.6959 13.8392 14.4336 13.5156 14.4336Z" fill="#307FF4"/>
<path d="M12.9297 15.0195C12.9297 14.6959 12.6673 14.4336 12.3438 14.4336H6.48438C6.16078 14.4336 5.89844 14.6959 5.89844 15.0195C5.89844 15.3431 6.16078 15.6055 6.48438 15.6055H12.3438C12.6673 15.6055 12.9297 15.3431 12.9297 15.0195Z" fill="#307FF4"/>
<path d="M16.0254 1.46484H14.8535V2.63672H16.0254C16.349 2.63672 16.6113 2.37437 16.6113 2.05078C16.6113 1.72719 16.349 1.46484 16.0254 1.46484Z" fill="#73C3FD"/>
<path d="M15.4395 2.05078C15.4395 1.72719 15.1771 1.46484 14.8535 1.46484H3.97461C3.65102 1.46484 3.38867 1.72719 3.38867 2.05078C3.38867 2.37437 3.65102 2.63672 3.97461 2.63672H14.8535C15.1771 2.63672 15.4395 2.37437 15.4395 2.05078Z" fill="#73C3FD"/>
<path d="M17.7832 18.5352H16.6113L17.7832 19.707H18.9551C18.9551 19.0598 18.4304 18.5352 17.7832 18.5352Z" fill="#73C3FD"/>
<path d="M16.6113 18.5352H2.2168C1.56957 18.5352 1.04492 19.0598 1.04492 19.707H17.7832C17.7832 19.0598 17.2586 18.5352 16.6113 18.5352Z" fill="#73C3FD"/>
<path d="M10 3.80859C10.9708 3.80859 11.7578 3.02159 11.7578 2.05078C11.7578 1.07997 10.9708 0.292969 10 0.292969C9.02919 0.292969 8.24219 1.07997 8.24219 2.05078C8.24219 3.02159 9.02919 3.80859 10 3.80859Z" fill="#307FF4"/>
<path d="M10 2.63672C10.3236 2.63672 10.5859 2.37439 10.5859 2.05078C10.5859 1.72718 10.3236 1.46484 10 1.46484C9.6764 1.46484 9.41406 1.72718 9.41406 2.05078C9.41406 2.37439 9.6764 2.63672 10 2.63672Z" fill="#73C3FD"/>
<path d="M3.97461 3.80859C4.29821 3.80859 4.56055 3.54626 4.56055 3.22266C4.56055 2.89905 4.29821 2.63672 3.97461 2.63672C3.65101 2.63672 3.38867 2.89905 3.38867 3.22266C3.38867 3.54626 3.65101 3.80859 3.97461 3.80859Z" fill="#73C3FD"/>
<path d="M16.0254 3.80859C16.349 3.80859 16.6113 3.54626 16.6113 3.22266C16.6113 2.89905 16.349 2.63672 16.0254 2.63672C15.7018 2.63672 15.4395 2.89905 15.4395 3.22266C15.4395 3.54626 15.7018 3.80859 16.0254 3.80859Z" fill="#73C3FD"/>
<path d="M12.0508 11.5039C12.0508 12.6347 12.9707 13.5547 14.1016 13.5547H17.9492C19.08 13.5547 20 12.6347 20 11.5039C20 11.4602 19.9902 11.417 19.9713 11.3775L16.4404 3.99715C16.7163 3.84871 16.9043 3.55727 16.9043 3.22262C16.9043 2.9977 16.8193 2.7923 16.6798 2.63668C16.8193 2.48105 16.9043 2.27566 16.9043 2.05074C16.9043 1.56609 16.51 1.17184 16.0254 1.17184H11.8525C11.5228 0.479648 10.8164 0 10 0C9.18355 0 8.47723 0.479648 8.1475 1.17188H3.97461C3.48996 1.17188 3.0957 1.56613 3.0957 2.05078C3.0957 2.2757 3.18074 2.48109 3.3202 2.63672C3.1807 2.79234 3.0957 2.99773 3.0957 3.22266C3.0957 3.55727 3.28371 3.84875 3.55961 3.99719L0.0286719 11.3775C0.00980469 11.417 0 11.4602 0 11.5039C0 12.6347 0.919961 13.5547 2.05078 13.5547H5.89844C7.02926 13.5547 7.94922 12.6347 7.94922 11.5039C7.94922 11.4602 7.93941 11.417 7.92055 11.3775L4.38961 3.99715C4.66551 3.84871 4.85352 3.55727 4.85352 3.22262C4.85352 3.11992 4.83563 3.02133 4.80312 2.92965H8.1475C8.24566 3.1357 8.37727 3.32273 8.53516 3.48402V4.73785C8.19418 4.85879 7.94922 5.18441 7.94922 5.56637C7.94922 5.94832 8.19418 6.27395 8.53516 6.39488V14.1406H6.48438C5.99973 14.1406 5.60547 14.5349 5.60547 15.0195C5.60547 15.4015 5.85039 15.7273 6.19141 15.8482V16.4844H3.97461C3.87664 16.4844 3.7852 16.5333 3.73086 16.6148L2.88398 17.8851C2.73492 18.1087 2.48551 18.2422 2.2168 18.2422C1.40906 18.2422 0.751953 18.8993 0.751953 19.707C0.751953 19.8688 0.883125 20 1.04492 20H18.9551C19.1169 20 19.248 19.8688 19.248 19.707C19.248 18.8993 18.5909 18.2422 17.7832 18.2422C17.5145 18.2422 17.2651 18.1087 17.116 17.8851L16.2691 16.6148C16.2148 16.5334 16.1234 16.4844 16.0254 16.4844H13.8086V15.848C14.1496 15.7271 14.3945 15.4015 14.3945 15.0195C14.3945 14.5349 14.0003 14.1406 13.5156 14.1406H11.4648V6.39492C11.8058 6.27398 12.0508 5.94836 12.0508 5.56641C12.0508 5.18445 11.8058 4.85883 11.4648 4.73789V3.48406C11.6227 3.32273 11.7543 3.1357 11.8525 2.92969H15.1969C15.1643 3.02137 15.1465 3.11996 15.1465 3.22266C15.1465 3.55727 15.3345 3.84875 15.6104 3.99719L12.0795 11.3775C12.0606 11.417 12.0508 11.4602 12.0508 11.5039ZM17.9492 12.9688H14.1016C13.3942 12.9688 12.8025 12.4646 12.6664 11.7969H19.3844C19.2482 12.4646 18.6566 12.9688 17.9492 12.9688ZM12.8087 11.2109L16.0254 4.48742L19.2421 11.2109H12.8087ZM3.97461 4.48742L7.19133 11.2109H0.757891L3.97461 4.48742ZM5.89844 12.9688H2.05078C1.3434 12.9688 0.751758 12.4646 0.615664 11.7969H7.33359C7.19746 12.4646 6.60582 12.9688 5.89844 12.9688ZM4.26758 3.22266C4.26758 3.38422 4.13617 3.51562 3.97461 3.51562C3.81305 3.51562 3.68164 3.38422 3.68164 3.22266C3.68164 3.06109 3.81305 2.92969 3.97461 2.92969C4.13617 2.92969 4.26758 3.06109 4.26758 3.22266ZM3.97461 2.34375C3.81305 2.34375 3.68164 2.21234 3.68164 2.05078C3.68164 1.88922 3.81305 1.75781 3.97461 1.75781H7.97047C7.95672 1.85355 7.94922 1.95129 7.94922 2.05078C7.94922 2.15027 7.95672 2.24801 7.97047 2.34375H3.97461ZM9.12109 4.6875V3.90328C9.38766 4.03023 9.68563 4.10156 10 4.10156C10.3144 4.10156 10.6123 4.03027 10.8789 3.90328V4.6875H9.12109ZM18.6119 19.4141H1.38809C1.50898 19.073 1.83484 18.8281 2.2168 18.8281H17.7832C18.1652 18.8281 18.491 19.073 18.6119 19.4141ZM16.6285 18.2101C16.6358 18.2211 16.6437 18.2315 16.6513 18.2422H3.34867C3.35625 18.2315 3.36422 18.2211 3.37152 18.2101L4.13141 17.0703H15.8686L16.6285 18.2101ZM13.8086 15.0195C13.8086 15.1811 13.6772 15.3125 13.5156 15.3125H7.65625C7.49445 15.3125 7.36328 15.4437 7.36328 15.6055C7.36328 15.7673 7.49445 15.8984 7.65625 15.8984H13.2227V16.4844H6.77734V15.6055C6.77734 15.4437 6.64617 15.3125 6.48438 15.3125C6.32281 15.3125 6.19141 15.1811 6.19141 15.0195C6.19141 14.858 6.32281 14.7266 6.48438 14.7266H13.5156C13.6772 14.7266 13.8086 14.858 13.8086 15.0195ZM9.12109 14.1406V6.44531H10.8789V14.1406H9.12109ZM11.1719 5.85938H8.82812C8.66656 5.85938 8.53516 5.72797 8.53516 5.56641C8.53516 5.40484 8.66656 5.27344 8.82812 5.27344H11.1719C11.3334 5.27344 11.4648 5.40484 11.4648 5.56641C11.4648 5.72797 11.3334 5.85938 11.1719 5.85938ZM10 3.51562C9.19227 3.51562 8.53516 2.85852 8.53516 2.05078C8.53516 1.24305 9.19227 0.585938 10 0.585938C10.8077 0.585938 11.4648 1.24305 11.4648 2.05078C11.4648 2.85852 10.8077 3.51562 10 3.51562ZM12.0295 1.75781H16.0254C16.187 1.75781 16.3184 1.88922 16.3184 2.05078C16.3184 2.21234 16.187 2.34375 16.0254 2.34375H12.0295C12.0433 2.24801 12.0508 2.15027 12.0508 2.05078C12.0508 1.95129 12.0433 1.85355 12.0295 1.75781ZM16.3184 3.22266C16.3184 3.38422 16.187 3.51562 16.0254 3.51562C15.8638 3.51562 15.7324 3.38422 15.7324 3.22266C15.7324 3.06109 15.8638 2.92969 16.0254 2.92969C16.187 2.92969 16.3184 3.06109 16.3184 3.22266Z" fill="#171D34"/>
<path d="M10 1.17188C9.51535 1.17188 9.12109 1.56613 9.12109 2.05078C9.12109 2.53543 9.51535 2.92969 10 2.92969C10.4846 2.92969 10.8789 2.53543 10.8789 2.05078C10.8789 1.56613 10.4846 1.17188 10 1.17188ZM10 2.34375C9.83844 2.34375 9.70703 2.21234 9.70703 2.05078C9.70703 1.88922 9.83844 1.75781 10 1.75781C10.1616 1.75781 10.293 1.88922 10.293 2.05078C10.293 2.21234 10.1616 2.34375 10 2.34375Z" fill="#171D34"/>
</g>
<defs>
<clipPath id="clip0_1807_54842">
<rect width="20" height="20" fill="white"/>
</clipPath>
</defs>
</svg>
