<svg width="695" height="505" viewBox="0 0 695 505" fill="none" xmlns="http://www.w3.org/2000/svg">
<path d="M640.39 247.038L526.96 185.708C524.82 184.548 522.31 186.448 522.85 188.818C526.51 204.948 523.29 227.128 522.38 226.058C523.14 225.098 374.16 228.848 297.95 239.848C262.2 245.008 203.23 259.128 150.12 282.618C80.23 313.528 18.18 347.518 18.14 347.388C16.21 341.518 -26.32 207.298 97.1 156.278C98.12 155.858 98.81 154.898 98.86 153.788C99.56 138.218 108.2 26.0077 212.93 3.91766C325.53 -19.8223 373.78 72.0877 373.78 72.0877C373.78 72.0877 458.04 34.5578 515.48 74.3878C556.51 102.838 566.76 145.198 568.71 155.538C568.96 156.878 570.13 157.838 571.49 157.838C589.06 157.858 697.52 163.308 694.72 295.748C691.7 438.228 565.85 428.408 561.88 428.058C561.81 428.048 561.76 428.048 561.69 428.048C559.77 428.008 527.83 426.978 469.15 397.448C467.72 396.728 465.98 397.318 465.3 398.768C459.93 410.318 435.19 455.678 373.78 465.788C303.62 477.348 253.63 431.968 246.09 424.648C245.45 424.028 244.56 423.748 243.68 423.888C227.19 426.538 71.75 452.628 0 504.088C0 504.088 0.609993 503.488 1.78999 502.348C16.23 488.378 116.18 393.538 225.96 337.728C276.77 311.898 336.74 289.438 390.47 275.238C452.39 258.868 505.12 251.908 518.48 250.298C520.25 250.088 521.76 251.528 521.64 253.298C521.27 258.738 519.7 270.258 513.25 284.158C512.23 286.358 514.29 288.738 516.62 288.058L639.84 252.228C642.27 251.548 642.62 248.238 640.39 247.038Z" fill="#70BEF7"/>
</svg>
