<svg width="80" height="80" viewBox="0 0 80 80" fill="none" xmlns="http://www.w3.org/2000/svg">
<g id="Capa_1">
<path id="Ellipse 1053" d="M49 47.5C49 60.4787 38.2548 71 25 71C11.7452 71 1 60.4787 1 47.5C1 34.5213 11.7452 24 25 24C38.2548 24 49 34.5213 49 47.5ZM5.82787 47.5C5.82787 57.8679 14.4115 66.2727 25 66.2727C35.5885 66.2727 44.1721 57.8679 44.1721 47.5C44.1721 37.1321 35.5885 28.7273 25 28.7273C14.4115 28.7273 5.82787 37.1321 5.82787 47.5Z" fill="#307FF4"/>
<path id="Vector 72" d="M14.5 15L20.5 23L29.5 24L36.5 15L31.5 8L18 8.5L14.5 15Z" fill="#F6BD3D"/>
<path id="Ellipse 1054" d="M79 47.5C79 60.4787 68.2548 71 55 71C41.7452 71 31 60.4787 31 47.5C31 34.5213 41.7452 24 55 24C68.2548 24 79 34.5213 79 47.5ZM35.8279 47.5C35.8279 57.8679 44.4115 66.2727 55 66.2727C65.5885 66.2727 74.1721 57.8679 74.1721 47.5C74.1721 37.1321 65.5885 28.7273 55 28.7273C44.4115 28.7273 35.8279 37.1321 35.8279 47.5Z" fill="#73C3FD"/>
<path id="Vector 73" d="M40.5 37L35.5 31.5L39.5 28L44.5 33.5L40.5 37Z" fill="#307FF4"/>
<g id="Group">
<g id="Group_2">
<path id="Vector" d="M54.8234 22.5369C49.4277 22.5369 44.3225 24.2028 40 27.3623C37.3063 25.3934 34.3088 24.0052 31.1261 23.2383L37.8903 15.4864C37.8927 15.4838 37.8942 15.4806 37.8964 15.478C37.9366 15.4313 37.9723 15.3813 38.0047 15.3288C38.0098 15.3203 38.015 15.312 38.02 15.3036C38.05 15.2519 38.0762 15.198 38.0983 15.1416C38.1017 15.1328 38.1047 15.1241 38.108 15.1152C38.1286 15.0584 38.1458 15 38.1575 14.9397C38.1586 14.9342 38.1591 14.9288 38.16 14.9234C38.1702 14.867 38.1759 14.8094 38.1778 14.7506C38.1781 14.7428 38.1789 14.7352 38.1789 14.7273C38.1789 14.7231 38.1795 14.7189 38.1795 14.7147C38.1795 14.6586 38.1742 14.6038 38.1667 14.55C38.1652 14.5394 38.1637 14.5291 38.1619 14.5184C38.1519 14.4589 38.1378 14.4008 38.1191 14.3448C38.1166 14.3375 38.1136 14.3303 38.1111 14.323C38.0898 14.2631 38.0648 14.205 38.0347 14.1502C38.0334 14.1478 38.0319 14.1456 38.0306 14.1433C37.9981 14.085 37.9608 14.0298 37.9191 13.9783C37.9178 13.9767 37.917 13.975 37.9158 13.9734L37.9114 13.9681L32.6797 7.54594C32.4567 7.27219 32.1222 7.11328 31.7692 7.11328H27.7852H22.5672H18.5834C18.2303 7.11328 17.8959 7.27219 17.673 7.54594L12.4414 13.9672L12.437 13.9725C12.4358 13.9741 12.435 13.9758 12.4337 13.9773C12.392 14.0289 12.3548 14.0841 12.3222 14.1423C12.3209 14.1447 12.3194 14.1469 12.3181 14.1492C12.288 14.2042 12.263 14.2623 12.2417 14.322C12.2391 14.3294 12.2361 14.3366 12.2337 14.3439C12.2152 14.4 12.2011 14.4581 12.1909 14.5175C12.1892 14.528 12.1877 14.5384 12.1861 14.5491C12.1784 14.6031 12.1733 14.6577 12.1733 14.7138C12.1733 14.7181 12.1739 14.7222 12.1739 14.7264C12.1741 14.7342 12.1748 14.7419 12.175 14.7497C12.1767 14.8086 12.1827 14.8663 12.1928 14.9225C12.1937 14.928 12.1942 14.9334 12.1953 14.9388C12.207 14.9992 12.2242 15.0577 12.2448 15.1142C12.2481 15.1231 12.2511 15.1319 12.2545 15.1406C12.2766 15.197 12.3028 15.2509 12.3328 15.3027C12.3377 15.3111 12.343 15.3194 12.3481 15.3278C12.3805 15.3805 12.4166 15.4303 12.4564 15.477C12.4587 15.4797 12.4602 15.4828 12.4625 15.4855L19.2342 23.2464C8.21047 25.9248 0 35.8775 0 47.7134C0 61.5959 11.2942 72.89 25.1764 72.89C30.5722 72.89 35.6773 71.2241 40 68.0645C44.3225 71.2239 49.4275 72.89 54.8236 72.89C68.7059 72.89 80 61.5958 80 47.7134C80 33.8311 68.7058 22.5369 54.8234 22.5369ZM31.2114 9.46109L34.5341 13.5398H30.7128L29.3978 9.46109H31.2114ZM30.6944 15.8884H34.4222L28.4402 22.7442C28.4039 22.7397 28.3681 22.7345 28.3322 22.73L30.6944 15.8884ZM23.4228 9.46094H26.9302L28.2452 13.5397H22.1078L23.4228 9.46094ZM28.2097 15.8886L25.9102 22.5486C25.6663 22.5417 25.4219 22.537 25.1767 22.537C25.0261 22.537 24.8716 22.5394 24.7145 22.5428C24.6241 22.5444 24.5334 22.5458 24.443 22.5484L22.1434 15.8886H28.2097ZM19.1417 9.46094H20.955L19.6402 13.5397H15.8191L19.1417 9.46094ZM15.9309 15.8886H19.6586L22.0223 22.7341C21.9869 22.7386 21.9514 22.7431 21.9161 22.7477L15.9309 15.8886ZM25.1764 70.5411C12.5892 70.5411 2.34875 60.3006 2.34875 47.7134C2.34875 36.3266 10.7294 26.8608 21.6462 25.1589C21.9187 25.1166 22.1923 25.0797 22.4669 25.0472C22.5011 25.0431 22.5356 25.0392 22.57 25.0353C22.9387 24.9933 23.3088 24.9628 23.6789 24.9386C23.6847 24.9383 23.6903 24.9394 23.6961 24.9389C23.9692 24.9214 24.2195 24.9086 24.4555 24.8997C24.6959 24.892 24.9364 24.8856 25.1763 24.8856C25.6567 24.8856 26.1337 24.9161 26.6527 24.9495C26.678 24.9511 26.7033 24.9519 26.7283 24.9519C26.7472 24.9519 26.7656 24.9484 26.7844 24.9475C27.4117 24.9947 28.0506 25.0684 28.7127 25.1714C28.773 25.1808 28.8334 25.1853 28.8933 25.1853C28.8958 25.1853 28.8984 25.185 28.9009 25.1848C32.6759 25.7983 36.2095 27.3483 39.2739 29.7577C39.5895 30.0058 39.8989 30.2628 40.2017 30.5278C40.4966 30.7859 40.7847 31.0522 41.0662 31.3255C41.2183 31.4731 41.3688 31.6225 41.5167 31.7742C41.9389 32.207 42.3441 32.6566 42.7306 33.1213C42.7306 33.1213 42.7306 33.1213 42.7308 33.1214C46.1312 37.2075 48.0041 42.3897 48.0041 47.7133C48.0041 52.6566 46.3892 57.478 43.4362 61.413C43.43 61.4077 43.4234 61.4027 43.417 61.3975C43.2545 61.2617 43.0942 61.1234 42.9364 60.982C42.9061 60.9548 42.8766 60.9262 42.8464 60.8988C42.72 60.7839 42.5948 60.668 42.4717 60.5495C42.4178 60.4977 42.3655 60.4445 42.3122 60.3919C42.2144 60.2955 42.1169 60.1984 42.0214 60.0997C41.9636 60.0398 41.9067 59.9791 41.8498 59.9186C41.7608 59.8241 41.6723 59.7286 41.5853 59.632C41.5588 59.6027 41.5327 59.5725 41.5063 59.543C43.4016 56.9295 44.6458 53.8931 45.1203 50.7038C45.2156 50.0622 44.7731 49.4647 44.1317 49.3694C43.4894 49.2736 42.8927 49.7167 42.7973 50.358C42.4122 52.9464 41.4506 55.4202 39.9977 57.5959C38.0367 54.6719 37.0073 51.2856 37.0073 47.7131C37.0073 44.1406 38.0369 40.7544 39.9977 37.8305C41.6044 40.2339 42.6019 42.9844 42.8983 45.8722C42.9605 46.4767 43.4705 46.9267 44.0652 46.9267C44.1053 46.9267 44.1458 46.9247 44.1866 46.9205C44.8319 46.8542 45.3011 46.2773 45.2348 45.6322C44.8394 41.7791 43.3458 38.1403 40.9161 35.1094C39.9383 33.8897 38.8225 32.7872 37.5928 31.825C37.4172 31.6875 37.2391 31.5528 37.0589 31.4214C33.5906 28.8878 29.4817 27.5484 25.1764 27.5484C20.3242 27.5484 15.6352 29.2969 11.9733 32.4714C11.4833 32.8963 11.4305 33.638 11.8552 34.128C12.28 34.618 13.0217 34.6708 13.5117 34.2461C16.7466 31.4416 20.8891 29.8972 25.1763 29.8972C28.5705 29.8972 31.8248 30.8416 34.6631 32.6344C31.4203 36.9694 29.6466 42.2739 29.6466 47.713C29.6466 53.1519 31.4203 58.4566 34.6631 62.7916C31.8248 64.5844 28.5705 65.5288 25.1763 65.5288C15.3525 65.5288 7.36047 57.5366 7.36047 47.713C7.36047 44.0595 8.45797 40.5489 10.5342 37.5605C10.9044 37.028 10.7725 36.2961 10.2398 35.9259C9.70719 35.5556 8.97547 35.6877 8.60547 36.2203C6.25437 39.6041 5.01172 43.5781 5.01172 47.713C5.01172 58.8317 14.0575 67.8775 25.1763 67.8775C29.1191 67.8775 32.8967 66.7545 36.1688 64.6194C36.1975 64.6511 36.2275 64.6819 36.2564 64.7133C36.3338 64.7977 36.412 64.8812 36.4906 64.9647C36.5658 65.0447 36.6411 65.1244 36.7175 65.2034C36.7973 65.2861 36.8783 65.3678 36.9592 65.4494C37.0364 65.5272 37.1136 65.6048 37.1917 65.6816C37.2738 65.762 37.3567 65.8414 37.4397 65.9208C37.5189 65.9964 37.598 66.0722 37.6781 66.1469C37.762 66.225 37.847 66.302 37.932 66.3789C37.9886 66.4302 38.0439 66.4825 38.1006 66.5331C34.2945 69.1605 29.8561 70.5411 25.1764 70.5411ZM54.8234 70.5411C49.6544 70.5411 44.7794 68.8564 40.7258 65.6692C39.4633 64.6763 38.3 63.5447 37.2687 62.3055C33.8683 58.2191 31.9955 53.037 31.9955 47.7134C31.9955 42.7703 33.6102 37.9489 36.5633 34.0137C36.5694 34.0187 36.5756 34.0236 36.5817 34.0286C36.7445 34.1644 36.905 34.303 37.063 34.4445C37.0944 34.4727 37.1248 34.5022 37.1561 34.5306C37.2814 34.6445 37.4056 34.7595 37.5277 34.877C37.5822 34.9295 37.6353 34.9834 37.6892 35.0367C37.7861 35.1323 37.8828 35.2286 37.9775 35.3264C38.0363 35.387 38.0938 35.4488 38.1514 35.5102C38.2394 35.6038 38.3269 35.698 38.413 35.7934C38.44 35.8234 38.4667 35.8541 38.4934 35.8844C36.0142 39.3075 34.6586 43.4706 34.6586 47.7136C34.6586 52.2819 36.23 56.758 39.0836 60.317C40.2009 61.7108 41.4988 62.9517 42.9406 64.0052C46.4089 66.5387 50.518 67.8781 54.8233 67.8781C60.0967 67.8781 65.0844 65.8556 68.8673 62.1834C69.3327 61.7317 69.3438 60.9883 68.8919 60.5228C68.4402 60.0573 67.6967 60.0466 67.2312 60.4983C63.8891 63.7427 59.4825 65.5294 54.8231 65.5294C51.4289 65.5294 48.1745 64.5848 45.3361 62.792C48.5789 58.4572 50.3527 53.1525 50.3527 47.7134C50.3527 42.2744 48.5789 36.9697 45.3361 32.6348C48.1745 30.842 51.4289 29.8977 54.8231 29.8977C64.6469 29.8977 72.6389 37.8898 72.6389 47.7134C72.6389 51.0203 71.7267 54.2483 70.0008 57.0481C69.6603 57.6003 69.8322 58.3237 70.3842 58.6641C70.9364 59.0045 71.6598 58.8327 72.0002 58.2806C73.9547 55.11 74.9878 51.4559 74.9878 47.7134C74.9878 36.5947 65.942 27.5489 54.8233 27.5489C50.8806 27.5489 47.1028 28.6719 43.8308 30.807C43.8028 30.7763 43.7737 30.7463 43.7456 30.7156C43.6661 30.6289 43.5858 30.543 43.505 30.4572C43.4319 30.3795 43.3587 30.302 43.2847 30.2253C43.2025 30.1403 43.1194 30.0563 43.0359 29.9723C42.9611 29.897 42.8864 29.8217 42.8106 29.7473C42.7261 29.6644 42.6406 29.5825 42.5548 29.5006C42.4781 29.4273 42.4016 29.3541 42.3241 29.2819C42.2372 29.2009 42.1491 29.1211 42.0608 29.0414C42.0064 28.9922 41.9534 28.9419 41.8988 28.8933C45.7052 26.2667 50.1434 24.8861 54.8233 24.8861C67.4105 24.8861 77.6509 35.1266 77.6509 47.7137C77.6513 60.3006 67.4108 70.5411 54.8234 70.5411Z" fill="#171D34"/>
</g>
</g>
</g>
</svg>
