<svg width="30" height="36" viewBox="0 0 30 36" fill="none" xmlns="http://www.w3.org/2000/svg">
<path d="M10.4278 12.4617H24.5013C24.7925 12.4617 25.0286 12.2256 25.0286 11.9343C25.0286 11.6431 24.7925 11.407 24.5013 11.407H10.4278C10.1366 11.407 9.90045 11.6431 9.90045 11.9343C9.90045 12.2256 10.1366 12.4617 10.4278 12.4617Z" fill="#171D34"/>
<path d="M10.4278 16.3702H24.5013C24.7925 16.3702 25.0286 16.1341 25.0286 15.8429C25.0286 15.5517 24.7925 15.3156 24.5013 15.3156H10.4278C10.1366 15.3156 9.90045 15.5517 9.90045 15.8429C9.90045 16.1341 10.1366 16.3702 10.4278 16.3702Z" fill="#171D34"/>
<path d="M10.4278 20.2787H24.5013C24.7925 20.2787 25.0286 20.0426 25.0286 19.7514C25.0286 19.4602 24.7925 19.2241 24.5013 19.2241H10.4278C10.1366 19.2241 9.90045 19.4602 9.90045 19.7514C9.90045 20.0426 10.1366 20.2787 10.4278 20.2787Z" fill="#171D34"/>
<path d="M29.6735 6.75155C29.6689 6.61936 29.6137 6.49013 29.5199 6.3964L23.278 0.154477C23.1804 0.0568828 23.043 0 22.905 0H7.32267C6.18227 0 5.25457 0.927773 5.25457 2.06817V2.4653H4.85744C3.79108 2.4653 2.91084 3.27656 2.80101 4.31423H2.39215C1.25175 4.31423 0.323975 5.24201 0.323975 6.38241V24.109C0.323975 24.4002 0.560084 24.6363 0.851318 24.6363C1.14255 24.6363 1.37866 24.4002 1.37866 24.109V6.38234C1.37866 5.82349 1.8333 5.36885 2.39215 5.36885H2.78927V32.0829C2.78927 33.2233 3.71704 34.1511 4.85744 34.1511H18.2726C18.5639 34.1511 18.8 33.915 18.8 33.6237C18.8 33.3325 18.5639 33.0964 18.2726 33.0964H4.85744C4.2986 33.0964 3.84396 32.6417 3.84396 32.0829V4.5334C3.84396 3.97455 4.2986 3.51991 4.85744 3.51991H5.25457V6.39246C5.25457 6.6837 5.49068 6.9198 5.78191 6.9198C6.07315 6.9198 6.30926 6.6837 6.30926 6.39246V2.06817C6.30926 1.50933 6.7639 1.05469 7.32267 1.05469H22.3777V5.22872C22.3777 6.36898 23.3053 7.29661 24.4456 7.29661H28.6196V29.6176C28.6196 30.1764 28.165 30.6311 27.6061 30.6311H7.32267C6.76383 30.6311 6.30926 30.1764 6.30926 29.6176V8.69069C6.30926 8.39946 6.07315 8.16335 5.78191 8.16335C5.49068 8.16335 5.25457 8.39946 5.25457 8.69069V29.6176C5.25457 30.758 6.18234 31.6858 7.32267 31.6858H26.1544V32.0829C26.1544 32.6417 25.6998 33.0964 25.1409 33.0964H20.5708C20.2796 33.0964 20.0435 33.3325 20.0435 33.6237C20.0435 33.915 20.2796 34.1511 20.5708 34.1511H23.6646C23.564 34.6048 23.1592 34.9453 22.6756 34.9453H2.39215C1.8333 34.9453 1.37866 34.4907 1.37866 33.9318V26.4071C1.37866 26.1159 1.14255 25.8798 0.851318 25.8798C0.560084 25.8798 0.323975 26.1159 0.323975 26.4071V33.9318C0.323975 35.0722 1.25175 36 2.39215 36H22.6757C23.742 36 24.6223 35.1887 24.7321 34.1511H25.141C26.2814 34.1511 27.2092 33.2233 27.2092 32.0829V31.6858H27.6063C28.7467 31.6858 29.6744 30.758 29.6744 29.6176V6.76927C29.6744 6.76336 29.6737 6.75745 29.6735 6.75155ZM24.4457 6.24192C23.887 6.24192 23.4325 5.78742 23.4325 5.22872V1.80042L27.874 6.24192H24.4457Z" fill="#171D34"/>
</svg>
