<svg width="48" height="48" viewBox="0 0 48 48" fill="none" xmlns="http://www.w3.org/2000/svg">
<g clip-path="url(#clip0_1807_55301)">
<path d="M24 7.5L7.5 24V46.5H40.5V24L24 7.5Z" fill="#73C3FD"/>
<path d="M10.5 25.5H37.5V46.5H10.5V25.5Z" fill="white"/>
<path d="M37.5 25.5H10.551C11.259 37.2262 20.1968 46.5 31.125 46.5H37.5V25.5Z" fill="white"/>
<path d="M24 30.75C23.2044 30.75 22.4413 31.0661 21.8787 31.6287C21.3161 32.1913 21 32.9544 21 33.75V35.25C21 36.0456 21.3161 36.8087 21.8787 37.3713C22.4413 37.9339 23.2044 38.25 24 38.25C24.7956 38.25 25.5587 37.9339 26.1213 37.3713C26.6839 36.8087 27 36.0456 27 35.25V33.75C27 32.9544 26.6839 32.1913 26.1213 31.6287C25.5587 31.0661 24.7956 30.75 24 30.75Z" fill="#F9E1B9"/>
<path d="M24 30.75C23.2044 30.75 22.4413 31.0661 21.8787 31.6287C21.3161 32.1913 21 32.9544 21 33.75L23.25 34.5L24.75 33.75L25.5 34.5L27 33.75C27 32.9544 26.6839 32.1913 26.1213 31.6287C25.5587 31.0661 24.7956 30.75 24 30.75Z" fill="#171D34"/>
<path d="M25.5 38.25H22.5C21.7044 38.25 20.9413 38.5661 20.3787 39.1287C19.8161 39.6913 19.5 40.4544 19.5 41.25V46.5H28.5V41.25C28.5 40.4544 28.1839 39.6913 27.6213 39.1287C27.0587 38.5661 26.2956 38.25 25.5 38.25Z" fill="#F6BD3D"/>
<path d="M28.5 41.25C28.5 40.4544 28.1839 39.6913 27.6213 39.1287C27.0587 38.5661 26.2957 38.25 25.5 38.25H22.5C22.001 38.253 21.5109 38.382 21.075 38.625C21.4928 40.9597 23.8155 42.75 26.625 42.75H28.5V41.25Z" fill="#F6BD3D"/>
<path d="M31.5 34.5C30.7044 34.5 29.9413 34.8161 29.3787 35.3787C28.8161 35.9413 28.5 36.7044 28.5 37.5V39C28.5 39.7956 28.8161 40.5587 29.3787 41.1213C29.9413 41.6839 30.7044 42 31.5 42C32.2956 42 33.0587 41.6839 33.6213 41.1213C34.1839 40.5587 34.5 39.7956 34.5 39V37.5C34.5 36.7044 34.1839 35.9413 33.6213 35.3787C33.0587 34.8161 32.2956 34.5 31.5 34.5Z" fill="#F9E1B9"/>
<path d="M31.5 34.5C30.7044 34.5 29.9413 34.8161 29.3787 35.3787C28.8161 35.9413 28.5 36.7044 28.5 37.5L30.75 38.25L32.25 37.5L33 38.25L34.5 37.5C34.5 36.7044 34.1839 35.9413 33.6213 35.3787C33.0587 34.8161 32.2956 34.5 31.5 34.5Z" fill="#171D34"/>
<path d="M40.5 24H46.5L24 1.5L1.5 24H7.5L24 7.5L40.5 24Z" fill="#307FF4"/>
<path d="M24 22.5C26.4853 22.5 28.5 20.4853 28.5 18C28.5 15.5147 26.4853 13.5 24 13.5C21.5147 13.5 19.5 15.5147 19.5 18C19.5 20.4853 21.5147 22.5 24 22.5Z" fill="white"/>
<path d="M33 42H30C29.2044 42 28.4413 42.3161 27.8787 42.8787C27.3161 43.4413 27 44.2044 27 45V46.5H36V45C36 44.2044 35.6839 43.4413 35.1213 42.8787C34.5587 42.3161 33.7956 42 33 42Z" fill="#F6BD3D"/>
<path d="M36 45C36 44.2044 35.6839 43.4413 35.1213 42.8787C34.5587 42.3161 33.7957 42 33 42H30C29.501 42.003 29.0109 42.132 28.575 42.375C28.9928 44.7097 31.3155 46.5 34.125 46.5H36V45Z" fill="#F6BD3D"/>
<path d="M16.5 34.5C15.7044 34.5 14.9413 34.8161 14.3787 35.3787C13.8161 35.9413 13.5 36.7044 13.5 37.5V39C13.5 39.7956 13.8161 40.5587 14.3787 41.1213C14.9413 41.6839 15.7044 42 16.5 42C17.2956 42 18.0587 41.6839 18.6213 41.1213C19.1839 40.5587 19.5 39.7956 19.5 39V37.5C19.5 36.7044 19.1839 35.9413 18.6213 35.3787C18.0587 34.8161 17.2956 34.5 16.5 34.5Z" fill="#F9E1B9"/>
<path d="M16.5 34.5C15.7044 34.5 14.9413 34.8161 14.3787 35.3787C13.8161 35.9413 13.5 36.7044 13.5 37.5L15.75 38.25L17.25 37.5L18 38.25L19.5 37.5C19.5 36.7044 19.1839 35.9413 18.6213 35.3787C18.0587 34.8161 17.2956 34.5 16.5 34.5Z" fill="#171D34"/>
<path d="M18 42H15C14.2044 42 13.4413 42.3161 12.8787 42.8787C12.3161 43.4413 12 44.2044 12 45V46.5H21V45C21 44.2044 20.6839 43.4413 20.1213 42.8787C19.5587 42.3161 18.7956 42 18 42Z" fill="#F6BD3D"/>
<path d="M21 45C21 44.2044 20.6839 43.4413 20.1213 42.8787C19.5587 42.3161 18.7957 42 18 42H15C14.501 42.003 14.0109 42.132 13.575 42.375C13.9928 44.7097 16.3155 46.5 19.125 46.5H21V45Z" fill="#F6BD3D"/>
<path d="M47.0303 23.4696L24.5303 0.96959C24.3896 0.828987 24.1989 0.75 24 0.75C23.8011 0.75 23.6104 0.828987 23.4698 0.96959L0.969773 23.4696C0.864916 23.5745 0.793511 23.7081 0.764586 23.8536C0.73566 23.999 0.750512 24.1498 0.807265 24.2868C0.864017 24.4239 0.960122 24.541 1.08343 24.6234C1.20674 24.7058 1.35171 24.7498 1.50002 24.7498H6.75002V46.4998C6.75002 46.6988 6.82904 46.8895 6.96969 47.0302C7.11035 47.1708 7.30111 47.2498 7.50002 47.2498H40.5C40.6989 47.2498 40.8897 47.1708 41.0304 47.0302C41.171 46.8895 41.25 46.6988 41.25 46.4998V24.7498H46.5C46.6483 24.7498 46.7933 24.7058 46.9166 24.6234C47.0399 24.541 47.136 24.4239 47.1928 24.2868C47.2495 24.1498 47.2644 23.999 47.2355 23.8536C47.2065 23.7081 47.1351 23.5745 47.0303 23.4696ZM14.25 38.5408L15.513 38.9616C15.7016 39.0245 15.9074 39.0099 16.0853 38.9211L17.1023 38.4126L17.4698 38.7801C17.6104 38.9208 17.8011 38.9998 18 38.9998C18.116 39.0008 18.2307 38.9752 18.3353 38.9248L18.75 38.7133V38.9998C18.75 39.5966 18.513 40.1689 18.091 40.5908C17.6691 41.0128 17.0968 41.2498 16.5 41.2498C15.9033 41.2498 15.331 41.0128 14.909 40.5908C14.4871 40.1689 14.25 39.5966 14.25 38.9998V38.5408ZM14.316 36.9816C14.4333 36.4822 14.7181 36.0379 15.1229 35.7228C15.5277 35.4076 16.0282 35.2405 16.5411 35.2493C17.0541 35.2581 17.5486 35.4421 17.9424 35.7709C18.3362 36.0997 18.6056 36.5534 18.7058 37.0566L18.1478 37.3348L17.7803 36.9673C17.6686 36.8567 17.5252 36.7836 17.3701 36.7584C17.2149 36.7331 17.0558 36.7569 16.9148 36.8263L15.6923 37.4376L14.316 36.9816ZM15 42.7498H18C18.5968 42.7498 19.1691 42.9869 19.591 43.4089C20.013 43.8308 20.25 44.4031 20.25 44.9998V45.7498H12.75V44.9998C12.75 44.4031 12.9871 43.8308 13.409 43.4089C13.831 42.9869 14.4033 42.7498 15 42.7498ZM20.25 42.0193V41.2498C20.25 40.6531 20.4871 40.0808 20.909 39.6589C21.331 39.2369 21.9033 38.9998 22.5 38.9998H25.5C26.0968 38.9998 26.6691 39.2369 27.091 39.6589C27.513 40.0808 27.75 40.6531 27.75 41.2498V42.0193C27.2859 42.3657 26.9088 42.8154 26.6485 43.3327C26.3881 43.85 26.2517 44.4207 26.25 44.9998V45.7498H21.75V44.9998C21.7483 44.4207 21.6119 43.85 21.3516 43.3327C21.0912 42.8154 20.7141 42.3657 20.25 42.0193ZM21.75 34.7908L23.013 35.2116C23.2016 35.2745 23.4074 35.2599 23.5853 35.1711L24.6023 34.6626L24.9698 35.0301C25.1104 35.1708 25.3011 35.2498 25.5 35.2498C25.616 35.2508 25.7307 35.2252 25.8353 35.1748L26.25 34.9633V35.2498C26.25 35.8466 26.013 36.4189 25.591 36.8408C25.1691 37.2628 24.5968 37.4998 24 37.4998C23.4033 37.4998 22.831 37.2628 22.409 36.8408C21.9871 36.4189 21.75 35.8466 21.75 35.2498V34.7908ZM21.816 33.2316C21.9333 32.7322 22.2181 32.2879 22.6229 31.9728C23.0277 31.6576 23.5282 31.4905 24.0411 31.4993C24.5541 31.5081 25.0486 31.6921 25.4424 32.0209C25.8362 32.3497 26.1056 32.8034 26.2058 33.3066L25.6478 33.5848L25.2803 33.2173C25.169 33.106 25.0256 33.0325 24.8703 33.0072C24.7149 32.9819 24.5556 33.0061 24.4148 33.0763L23.1923 33.6876L21.816 33.2316ZM31.5 41.2498C30.9033 41.2498 30.331 41.0128 29.909 40.5908C29.4871 40.1689 29.25 39.5966 29.25 38.9998V38.5408L30.513 38.9616C30.7016 39.0245 30.9074 39.0099 31.0853 38.9211L32.1023 38.4126L32.4698 38.7801C32.6104 38.9208 32.8011 38.9998 33 38.9998C33.116 39.0008 33.2307 38.9752 33.3353 38.9248L33.75 38.7133V38.9998C33.75 39.5966 33.513 40.1689 33.091 40.5908C32.6691 41.0128 32.0968 41.2498 31.5 41.2498ZM33.15 37.3371L32.7825 36.9696C32.6709 36.8588 32.5275 36.7857 32.3724 36.7604C32.2172 36.7352 32.058 36.759 31.917 36.8286L30.6945 37.4398L29.3183 36.9816C29.4356 36.4822 29.7203 36.0379 30.1251 35.7228C30.5299 35.4076 31.0304 35.2405 31.5434 35.2493C32.0563 35.2581 32.5508 35.4421 32.9446 35.7709C33.3385 36.0997 33.6078 36.5534 33.708 37.0566L33.15 37.3371ZM27.75 44.9998C27.75 44.4031 27.9871 43.8308 28.409 43.4089C28.831 42.9869 29.4033 42.7498 30 42.7498H33C33.5968 42.7498 34.1691 42.9869 34.591 43.4089C35.013 43.8308 35.25 44.4031 35.25 44.9998V45.7498H27.75V44.9998ZM36.75 44.9998C36.7478 44.2326 36.5099 43.4845 36.0686 42.8569C35.6273 42.2292 35.0038 41.7523 34.2825 41.4906C34.9021 40.8087 35.2468 39.9212 35.25 38.9998V37.4998C35.25 36.5053 34.8549 35.5515 34.1517 34.8482C33.4484 34.1449 32.4946 33.7498 31.5 33.7498C30.5055 33.7498 29.5516 34.1449 28.8484 34.8482C28.1451 35.5515 27.75 36.5053 27.75 37.4998V38.2693C27.4557 38.0458 27.1296 37.8676 26.7825 37.7406C27.4021 37.0587 27.7468 36.1712 27.75 35.2498V33.7498C27.75 32.7553 27.3549 31.8015 26.6517 31.0982C25.9484 30.3949 24.9946 29.9998 24 29.9998C23.0055 29.9998 22.0516 30.3949 21.3484 31.0982C20.6451 31.8015 20.25 32.7553 20.25 33.7498V35.2498C20.2532 36.1712 20.5979 37.0587 21.2175 37.7406C20.8705 37.8676 20.5444 38.0458 20.25 38.2693V37.4998C20.25 36.5053 19.8549 35.5515 19.1517 34.8482C18.4484 34.1449 17.4946 33.7498 16.5 33.7498C15.5055 33.7498 14.5516 34.1449 13.8484 34.8482C13.1451 35.5515 12.75 36.5053 12.75 37.4998V38.9998C12.7532 39.9212 13.0979 40.8087 13.7175 41.4906C12.9963 41.7523 12.3728 42.2292 11.9315 42.8569C11.4901 43.4845 11.2523 44.2326 11.25 44.9998V26.2498H36.75V44.9998ZM38.25 45.7498V25.4998C38.25 25.3009 38.171 25.1102 38.0304 24.9695C37.8897 24.8289 37.6989 24.7498 37.5 24.7498H10.5C10.3011 24.7498 10.1103 24.8289 9.96969 24.9695C9.82904 25.1102 9.75002 25.3009 9.75002 25.4998V45.7498H8.25002V24.3103L24 8.56034L39.75 24.3103V45.7498H38.25ZM40.8105 23.2498L24.5303 6.96959C24.3896 6.82899 24.1989 6.75 24 6.75C23.8011 6.75 23.6104 6.82899 23.4698 6.96959L7.18952 23.2498H3.31052L24 2.56034L44.6895 23.2498H40.8105Z" fill="#171D34"/>
<path d="M24 12.75C22.9617 12.75 21.9466 13.0579 21.0833 13.6348C20.2199 14.2117 19.547 15.0316 19.1496 15.9909C18.7523 16.9502 18.6483 18.0058 18.8509 19.0242C19.0535 20.0426 19.5535 20.9781 20.2877 21.7123C21.0219 22.4465 21.9574 22.9466 22.9758 23.1491C23.9942 23.3517 25.0498 23.2477 26.0091 22.8504C26.9684 22.453 27.7883 21.7801 28.3652 20.9167C28.9421 20.0534 29.25 19.0384 29.25 18C29.2484 16.6081 28.6948 15.2737 27.7106 14.2894C26.7263 13.3052 25.3919 12.7516 24 12.75ZM27.675 17.25H24.75V14.325C25.47 14.4734 26.1308 14.8296 26.6506 15.3494C27.1704 15.8692 27.5266 16.53 27.675 17.25ZM23.25 14.325V17.25H20.325C20.4734 16.53 20.8296 15.8692 21.3494 15.3494C21.8692 14.8296 22.53 14.4734 23.25 14.325ZM20.325 18.75H23.25V21.675C22.53 21.5266 21.8692 21.1704 21.3494 20.6506C20.8296 20.1308 20.4734 19.47 20.325 18.75ZM24.75 21.675V18.75H27.675C27.5266 19.47 27.1704 20.1308 26.6506 20.6506C26.1308 21.1704 25.47 21.5266 24.75 21.675Z" fill="#171D34"/>
</g>
<defs>
<clipPath id="clip0_1807_55301">
<rect width="48" height="48" fill="white"/>
</clipPath>
</defs>
</svg>
