<svg width="80" height="80" viewBox="0 0 80 80" fill="none" xmlns="http://www.w3.org/2000/svg">
<g id="Layer_1" clip-path="url(#clip0_998_206051)">
<g id="Group">
<path id="Vector 74" d="M2 27.5V10.5L7.5 2.5H29.5L35 10.5V27.5L29.5 34.5H7.5L2 27.5Z" fill="#73C3FD"/>
<path id="Vector" d="M27.1875 37.5H10.3125C4.62609 37.5 0 32.8739 0 27.1875V10.3125C0 4.62609 4.62609 0 10.3125 0H27.1875C32.8739 0 37.5 4.62609 37.5 10.3125V27.1875C37.5 32.8739 32.8739 37.5 27.1875 37.5ZM10.5 4C7.57063 4 4 7.57063 4 10.5V27C4 29.9294 7.07063 33.5 10 33.5H27.0936C30.023 33.5 33.5 30.4294 33.5 27.5V10.5C33.5 7.57063 29.9294 4 27 4H10.5Z" fill="#171D34"/>
<path id="Vector 75" d="M44 28V11L49.5 3H71.5L77 11V28L71.5 35H49.5L44 28Z" fill="#73C3FD"/>
<path id="Vector 76" d="M2 70V53L7.5 45H29.5L35 53V70L29.5 77H7.5L2 70Z" fill="#73C3FD"/>
<path id="Vector_2" d="M69.1875 37.5H52.3125C46.6261 37.5 42 32.8739 42 27.1875V10.3125C42 4.62609 46.6261 0 52.3125 0H69.1875C74.8739 0 79.5 4.62609 79.5 10.3125V27.1875C79.5 32.8739 74.8739 37.5 69.1875 37.5ZM52.5 4C49.5706 4 46 7.57063 46 10.5V27C46 29.9294 49.0706 33.5 52 33.5H69.0936C72.023 33.5 75.5 30.4294 75.5 27.5V10.5C75.5 7.57063 71.9294 4 69 4H52.5Z" fill="#171D34"/>
<path id="Vector_3" d="M27.1875 79.5H10.3125C4.62609 79.5 0 74.8739 0 69.1875V52.3125C0 46.6261 4.62609 42 10.3125 42H27.1875C32.8739 42 37.5 46.6261 37.5 52.3125V69.1875C37.5 74.8739 32.8739 79.5 27.1875 79.5ZM10.5 46C7.57063 46 4 49.5706 4 52.5V69C4 71.9294 7.07063 75.5 10 75.5H27.0936C30.023 75.5 33.5 72.4294 33.5 69.5V52.5C33.5 49.5706 29.9294 46 27 46H10.5Z" fill="#171D34"/>
<ellipse id="Ellipse 1055" cx="61.5" cy="61" rx="16.5" ry="16" fill="#F6BD3D"/>
<path id="Vector_4" d="M61.25 80C50.9113 80 42.5 71.5887 42.5 61.25C42.5 50.9113 50.9113 42.5 61.25 42.5C71.5887 42.5 80 50.9113 80 61.25C80 71.5887 71.5887 80 61.25 80ZM61.5 46.5C53.9183 46.5 46.5 52.5 46.5 61.5C46.5 70 53.6683 76 61.25 76C68.8317 76 76 69.5 76 61.25C76 53 69.0817 46.5 61.5 46.5Z" fill="#171D34"/>
</g>
</g>
<defs>
<clipPath id="clip0_998_206051">
<rect width="80" height="80" fill="white"/>
</clipPath>
</defs>
</svg>
