<svg width="300" height="300" viewBox="0 0 300 300" fill="none" xmlns="http://www.w3.org/2000/svg">
<g clip-path="url(#clip0_1276_49362)">
<path d="M174.371 267.577C218.284 252.91 231.459 270.807 255.268 257.452C291.901 236.902 306.574 169.29 297.157 120.194C285.622 60.0602 234.254 5.56159 165.236 0.57807C91.7337 -4.73057 30.353 26.3183 10.2204 103.538C-5.47089 163.721 -7.97907 251.012 38.4853 282.713C43.5213 286.15 71.0556 304.138 105.662 299.126C134.266 294.985 139.561 279.206 174.371 267.578V267.577Z" fill="#99C1FB"/>
<path d="M252.041 279.324H134.506C129.506 279.324 125.451 275.201 125.451 270.115L136.911 27.7929C136.911 22.7076 140.964 18.5845 145.965 18.5845H263.501C268.501 18.5845 272.556 22.7076 272.556 27.7929L261.096 270.115C261.096 275.201 257.043 279.324 252.041 279.324Z" fill="#171D34"/>
<path d="M247.197 278.747H129.662C124.662 278.747 120.607 274.642 120.607 269.58L132.067 28.3183C132.067 23.2543 136.12 19.1509 141.122 19.1509H258.657C263.657 19.1509 267.712 23.2559 267.712 28.3183L256.252 269.58C256.252 274.644 252.199 278.747 247.197 278.747Z" fill="white"/>
<path d="M247.197 279.293H129.661C124.37 279.293 120.064 274.936 120.064 269.58L131.524 28.292C131.524 22.962 135.828 18.6057 141.121 18.6057H258.656C263.948 18.6057 268.253 22.962 268.253 28.3183L256.794 269.606C256.794 274.936 252.49 279.293 247.197 279.293ZM141.121 19.6944C136.427 19.6944 132.61 23.563 132.61 28.3183L121.151 269.606C121.151 274.335 124.969 278.204 129.663 278.204H247.198C251.892 278.204 255.709 274.335 255.709 269.58L267.169 28.292C267.169 23.563 263.35 19.6944 258.656 19.6944H141.121Z" fill="#171D34"/>
<path d="M174.982 18.6387L177.816 22.8685C179.538 25.4383 182.423 26.9801 185.511 26.9801H214.132C217.153 26.9801 219.985 25.5039 221.722 23.0245L224.792 18.6387H174.98H174.982Z" fill="#171D34"/>
<path d="M148.564 52.3804H164.717C166.182 52.3804 167.371 53.5725 167.371 55.0404V55.3262C167.371 56.7941 166.182 57.9862 164.717 57.9862H148.564C147.1 57.9862 145.91 56.7941 145.91 55.3262V55.0404C145.91 53.5725 147.1 52.3804 148.564 52.3804Z" fill="#99C1FB"/>
<path d="M248.624 68.3162H147.904C146.438 68.3162 145.25 69.5071 145.25 70.9762V71.2603C145.25 72.7294 146.438 73.9204 147.904 73.9204H248.624C250.09 73.9204 251.278 72.7294 251.278 71.2603V70.9762C251.278 69.5071 250.09 68.3162 248.624 68.3162Z" fill="#99C1FB"/>
<path d="M142.685 204.27H243.407C244.872 204.27 246.061 205.462 246.061 206.93V207.216C246.061 208.684 244.872 209.876 243.407 209.876H142.685C141.221 209.876 140.031 208.684 140.031 207.216V206.93C140.031 205.462 141.221 204.27 142.685 204.27Z" fill="#99C1FB"/>
<path d="M141.361 219.708H242.083C243.548 219.708 244.737 220.901 244.737 222.369V222.654C244.737 224.122 243.548 225.314 242.083 225.314H141.361C139.896 225.314 138.707 224.122 138.707 222.654V222.369C138.707 220.901 139.896 219.708 141.361 219.708Z" fill="#99C1FB"/>
<path d="M195.814 236.516H140.988C139.522 236.516 138.334 237.707 138.334 239.176V239.46C138.334 240.93 139.522 242.121 140.988 242.121H195.814C197.28 242.121 198.468 240.93 198.468 239.46V239.176C198.468 237.707 197.28 236.516 195.814 236.516Z" fill="#99C1FB"/>
<path d="M176.886 52.3804H193.04C194.504 52.3804 195.694 53.5725 195.694 55.0404V55.3262C195.694 56.7941 194.504 57.9862 193.04 57.9862H176.886C175.422 57.9862 174.232 56.7941 174.232 55.3262V55.0404C174.232 53.5725 175.422 52.3804 176.886 52.3804Z" fill="#99C1FB"/>
<path d="M221.362 52.3804H205.209C203.743 52.3804 202.555 53.5713 202.555 55.0404V55.3245C202.555 56.7936 203.743 57.9846 205.209 57.9846H221.362C222.828 57.9846 224.016 56.7936 224.016 55.3245V55.0404C224.016 53.5713 222.828 52.3804 221.362 52.3804Z" fill="#99C1FB"/>
<path d="M233.529 52.3804H249.682C251.147 52.3804 252.336 53.5725 252.336 55.0404V55.3262C252.336 56.7941 251.147 57.9862 249.682 57.9862H233.529C232.064 57.9862 230.875 56.7941 230.875 55.3262V55.0404C230.875 53.5725 232.064 52.3804 233.529 52.3804Z" fill="#99C1FB"/>
<path d="M243.083 271.219H139.119V281.118H243.083V271.219Z" fill="#171D34"/>
<path d="M243.963 275.268H138.243C136.012 275.268 134.203 273.455 134.203 271.219C134.203 268.982 136.012 267.169 138.243 267.169H243.963C246.195 267.169 248.003 268.982 248.003 271.219C248.003 273.455 246.195 275.268 243.963 275.268Z" fill="#307FF4"/>
<path d="M243.963 275.813H138.242C135.716 275.813 133.66 273.752 133.66 271.22C133.66 268.688 135.716 266.628 138.242 266.628H243.963C246.489 266.628 248.545 268.688 248.545 271.22C248.545 273.752 246.489 275.813 243.963 275.813ZM138.242 267.715C136.314 267.715 134.745 269.288 134.745 271.22C134.745 273.153 136.314 274.726 138.242 274.726H243.963C245.891 274.726 247.46 273.153 247.46 271.22C247.46 269.288 245.891 267.715 243.963 267.715H138.242Z" fill="#171D34"/>
<path d="M249.901 277.961H132.304C129.43 280.623 127.797 284.366 127.797 288.288V289.754C127.797 291.627 129.312 293.145 131.18 293.145H251.025C252.894 293.145 254.408 291.626 254.408 289.754V288.288C254.408 284.366 252.775 280.623 249.901 277.961Z" fill="#307FF4"/>
<path d="M251.025 293.69H131.179C129.015 293.69 127.254 291.925 127.254 289.756V288.289C127.254 284.229 128.959 280.319 131.934 277.562C132.034 277.468 132.165 277.417 132.303 277.417H249.901C250.037 277.417 250.169 277.468 250.269 277.562C253.244 280.319 254.95 284.229 254.95 288.289V289.756C254.95 291.925 253.189 293.69 251.025 293.69ZM132.518 278.506C129.859 281.048 128.338 284.601 128.338 288.289V289.756C128.338 291.325 129.613 292.603 131.179 292.603H251.025C252.591 292.603 253.865 291.325 253.865 289.756V288.289C253.865 284.601 252.345 281.048 249.686 278.506H132.518Z" fill="#171D34"/>
<path d="M248.41 286.097H133.792C133.492 286.097 133.25 285.854 133.25 285.554C133.25 285.253 133.492 285.01 133.792 285.01H248.41C248.71 285.01 248.952 285.253 248.952 285.554C248.952 285.854 248.71 286.097 248.41 286.097Z" fill="#171D34"/>
<path d="M298.719 286.866C297.315 289.087 294.382 289.747 292.166 288.34L213.967 238.712L219.049 230.667L297.248 280.296C299.464 281.703 300.123 284.642 298.719 286.864V286.866Z" fill="#CADDFF"/>
<path d="M294.696 289.621C293.728 289.621 292.75 289.355 291.874 288.8L213.675 239.172C213.422 239.011 213.345 238.674 213.506 238.421L218.588 230.377C218.665 230.255 218.788 230.168 218.927 230.137C219.069 230.106 219.215 230.132 219.336 230.208L297.536 279.836C298.73 280.595 299.557 281.772 299.868 283.155C300.178 284.537 299.932 285.958 299.175 287.155C298.17 288.747 296.451 289.619 294.696 289.619V289.621ZM214.715 238.544L292.455 287.88C293.404 288.483 294.531 288.678 295.627 288.432C296.723 288.186 297.658 287.526 298.26 286.573C298.861 285.623 299.056 284.493 298.81 283.394C298.564 282.296 297.906 281.358 296.956 280.756L219.215 231.418L214.715 238.543V238.544Z" fill="#171D34"/>
<path d="M183.272 245.038L177.523 254.139L192.706 263.774L198.455 254.673L183.272 245.038Z" fill="#99C1FB"/>
<path d="M192.707 264.327C192.605 264.327 192.503 264.299 192.417 264.244L177.233 254.608C176.981 254.447 176.904 254.111 177.064 253.858L182.813 244.758C182.89 244.636 183.013 244.549 183.152 244.518C183.295 244.487 183.441 244.511 183.562 244.589L198.745 254.224C198.997 254.385 199.074 254.722 198.914 254.974L193.165 264.074C193.088 264.196 192.965 264.283 192.826 264.314C192.787 264.322 192.746 264.327 192.707 264.327ZM178.272 253.979L192.538 263.033L197.707 254.851L183.441 245.797L178.272 253.979Z" fill="#171D34"/>
<path d="M174.452 250.424C173.384 252.114 173.885 254.352 175.573 255.423L192.389 266.094C194.075 267.165 196.308 266.662 197.376 264.971C198.444 263.281 197.943 261.043 196.256 259.973L179.439 249.301C177.753 248.231 175.52 248.733 174.452 250.424Z" fill="#307FF4"/>
<path d="M194.315 267.202C193.537 267.202 192.773 266.982 192.098 266.554L175.281 255.882C174.344 255.286 173.692 254.36 173.45 253.275C173.207 252.189 173.399 251.073 173.994 250.134C175.221 248.193 177.793 247.615 179.729 248.843L196.546 259.514C197.483 260.111 198.135 261.037 198.378 262.122C198.62 263.207 198.428 264.324 197.834 265.263C197.239 266.202 196.317 266.856 195.232 267.099C194.928 267.168 194.62 267.202 194.313 267.202H194.315ZM177.511 249.285C176.492 249.285 175.494 249.79 174.911 250.715C174.005 252.148 174.431 254.055 175.863 254.963L192.68 265.634C193.373 266.074 194.195 266.217 194.996 266.037C195.797 265.856 196.479 265.375 196.918 264.68C197.357 263.986 197.5 263.161 197.319 262.358C197.139 261.556 196.659 260.872 195.966 260.432L179.149 249.761C178.642 249.437 178.073 249.285 177.511 249.285Z" fill="#171D34"/>
<path d="M226.817 209.793L232.566 200.692L217.384 191.057L211.635 200.158L226.817 209.793Z" fill="#99C1FB"/>
<path d="M226.816 210.331C226.716 210.331 226.616 210.303 226.526 210.247L211.342 200.612C211.221 200.535 211.134 200.412 211.103 200.272C211.072 200.131 211.096 199.983 211.173 199.862L216.924 190.762C217.084 190.507 217.42 190.433 217.672 190.592L232.856 200.228C232.977 200.305 233.064 200.428 233.095 200.568C233.126 200.709 233.102 200.857 233.025 200.978L227.274 210.078C227.171 210.241 226.994 210.331 226.816 210.331ZM212.382 199.983L226.648 209.037L231.817 200.855L217.551 191.801L212.382 199.983Z" fill="#171D34"/>
<path d="M212.711 189.862C213.779 188.172 216.012 187.668 217.698 188.739L234.515 199.41C236.201 200.481 236.702 202.719 235.636 204.408C234.567 206.098 232.334 206.602 230.649 205.531L213.832 194.86C212.146 193.789 211.643 191.551 212.711 189.862Z" fill="#307FF4"/>
<path d="M232.575 206.638C231.796 206.638 231.031 206.418 230.358 205.99L213.541 195.318C212.603 194.722 211.952 193.796 211.71 192.711C211.467 191.625 211.659 190.509 212.254 189.569C213.479 187.629 216.053 187.051 217.989 188.279L234.806 198.952C236.742 200.18 237.321 202.76 236.094 204.701C235.499 205.642 234.575 206.293 233.492 206.536C233.187 206.605 232.879 206.64 232.573 206.64L232.575 206.638ZM215.771 188.72C214.752 188.72 213.754 189.226 213.171 190.151C212.732 190.845 212.589 191.67 212.77 192.473C212.95 193.275 213.43 193.959 214.123 194.399L230.94 205.07C231.633 205.51 232.455 205.653 233.256 205.472C234.057 205.292 234.739 204.811 235.178 204.116C236.084 202.681 235.656 200.776 234.226 199.868L217.409 189.195C216.901 188.873 216.333 188.719 215.771 188.719V188.72Z" fill="#171D34"/>
<path d="M207.347 198.226L202.324 202.881C199.113 205.858 196.302 209.241 193.963 212.945L187.254 223.566C184.914 227.27 183.065 231.264 181.754 235.446L179.703 241.988C179.064 244.025 179.872 246.239 181.672 247.38L198.161 257.845C200.109 259.081 202.667 258.718 204.195 256.987L209.919 250.506C211.705 248.485 213.325 246.324 214.767 244.043L224.197 229.117C225.637 226.837 226.893 224.444 227.953 221.961L231.349 214.003C232.257 211.878 231.492 209.407 229.542 208.169L213.053 197.704C211.253 196.561 208.912 196.776 207.347 198.226Z" fill="#307FF4"/>
<path d="M200.682 259.124C199.717 259.124 198.744 258.854 197.872 258.303L181.383 247.838C179.378 246.565 178.475 244.093 179.186 241.822L181.237 235.28C182.563 231.055 184.433 227.014 186.797 223.273L193.506 212.653C195.87 208.911 198.714 205.489 201.958 202.481L206.979 197.825C208.722 196.21 211.34 195.972 213.344 197.244L229.833 207.709C232.018 209.096 232.865 211.832 231.848 214.216L228.452 222.173C227.385 224.674 226.107 227.108 224.654 229.406L215.225 244.332C213.773 246.629 212.125 248.828 210.324 250.864L204.6 257.345C203.57 258.513 202.135 259.124 200.68 259.124H200.682ZM207.716 198.625L202.695 203.28C199.52 206.224 196.737 209.574 194.424 213.236L187.715 223.856C185.402 227.518 183.57 231.472 182.274 235.608L180.223 242.15C179.659 243.95 180.375 245.91 181.965 246.92L198.454 257.385C200.187 258.485 202.431 258.166 203.789 256.626L209.514 250.145C211.275 248.152 212.888 246.001 214.309 243.751L223.739 228.825C225.161 226.576 226.411 224.195 227.454 221.746L230.85 213.789C231.656 211.899 230.985 209.728 229.251 208.63L212.762 198.165C211.173 197.155 209.097 197.346 207.715 198.627L207.716 198.625Z" fill="#171D34"/>
<path d="M195.188 210.993L186.021 225.504L214.895 243.827L224.062 229.316L195.188 210.993Z" fill="#99C1FB"/>
<path d="M214.896 244.378C214.796 244.378 214.696 244.35 214.606 244.295L185.733 225.971C185.481 225.81 185.404 225.474 185.564 225.221L194.732 210.71C194.809 210.589 194.932 210.502 195.071 210.471C195.214 210.439 195.36 210.464 195.481 210.541L224.354 228.865C224.475 228.942 224.562 229.065 224.593 229.204C224.624 229.346 224.599 229.493 224.522 229.615L215.355 244.125C215.251 244.288 215.074 244.378 214.896 244.378ZM186.772 225.342L214.727 243.084L223.313 229.492L195.356 211.75L186.77 225.342H186.772Z" fill="#171D34"/>
<path d="M196.216 178.581L60.4407 243.088C56.078 245.16 50.87 243.173 48.9876 238.715L15.1182 158.481C13.3456 154.282 15.1903 149.432 19.299 147.48L155.075 82.9729C159.438 80.9007 164.646 82.8875 166.528 87.3456L200.397 167.58C202.17 171.778 200.325 176.629 196.216 178.581Z" fill="#5B9AF8"/>
<path d="M56.8122 244.457C55.7277 244.457 54.6399 244.258 53.5914 243.858C51.27 242.971 49.458 241.219 48.4898 238.927L14.6204 158.695C12.7299 154.214 14.6827 149.072 19.0683 146.989L154.844 82.4819C157.09 81.4146 159.605 81.3161 161.926 82.2028C164.248 83.0895 166.06 84.8399 167.028 87.1338L200.897 167.368C202.788 171.849 200.835 176.99 196.448 179.074L60.6719 243.58C59.44 244.165 58.1277 244.459 56.8106 244.459L56.8122 244.457ZM158.705 82.6905C157.547 82.6905 156.392 82.9499 155.308 83.4639L19.5319 147.971C15.6738 149.803 13.9536 154.328 15.6181 158.269L49.4875 238.502C50.3394 240.52 51.9334 242.061 53.9764 242.84C56.0193 243.62 58.2326 243.533 60.2067 242.594L195.982 178.087C199.841 176.254 201.561 171.731 199.896 167.788L166.027 87.5541C165.175 85.5361 163.581 83.9959 161.538 83.2159C160.616 82.8629 159.659 82.6888 158.704 82.6888L158.705 82.6905Z" fill="#171D34"/>
<path d="M56.8268 161.375L39.4529 169.629C37.0238 170.783 35.988 173.692 37.1394 176.127L42.0518 186.515C43.2031 188.949 46.1056 189.988 48.5347 188.834L65.9085 180.58C68.3376 179.426 69.3734 176.517 68.2221 174.082L63.3097 163.694C62.1584 161.26 59.2559 160.221 56.8268 161.375Z" fill="white"/>
<path d="M75.6756 199.193L54.316 209.341C52.7744 210.073 50.9297 209.415 50.199 207.868L49.5191 206.43C48.7885 204.884 49.4454 203.036 50.9887 202.303L72.3483 192.156C73.8899 191.423 75.7346 192.082 76.4653 193.628L77.1451 195.067C77.8758 196.614 77.2188 198.461 75.6756 199.193Z" fill="white"/>
<path d="M104.636 211.031L59.6478 232.405C58.7369 232.837 57.6491 232.448 57.2166 231.536L56.8152 230.687C56.3827 229.774 56.7726 228.684 57.6819 228.251L102.67 206.876C103.581 206.445 104.669 206.834 105.101 207.745L105.503 208.594C105.934 209.507 105.545 210.597 104.636 211.031Z" fill="#171D34"/>
<path d="M187.954 171.446L174.304 177.932C173.393 178.364 172.305 177.975 171.873 177.064L171.471 176.215C171.039 175.302 171.429 174.212 172.338 173.778L185.988 167.292C186.899 166.859 187.987 167.249 188.419 168.161L188.821 169.01C189.253 169.923 188.863 171.013 187.954 171.446Z" fill="#171D34"/>
<path d="M85.2095 186.046L106.57 175.898C108.111 175.166 109.956 175.825 110.688 177.371L111.368 178.81C112.099 180.355 111.441 182.205 109.899 182.937L88.5383 193.085C86.9972 193.817 85.1518 193.158 84.4207 191.612L83.7401 190.173C83.0096 188.628 83.6669 186.779 85.2095 186.046Z" fill="white"/>
<path d="M119.432 169.788L140.793 159.64C142.334 158.908 144.179 159.567 144.91 161.113L145.591 162.553C146.321 164.097 145.664 165.947 144.121 166.68L122.761 176.827C121.22 177.559 119.375 176.901 118.643 175.354L117.963 173.915C117.232 172.371 117.89 170.521 119.432 169.788Z" fill="white"/>
<path d="M153.657 153.529L175.018 143.381C176.559 142.649 178.402 143.308 179.133 144.853L179.814 146.292C180.544 147.837 179.887 149.686 178.344 150.419L156.984 160.567C155.442 161.299 153.597 160.64 152.866 159.094L152.185 157.655C151.455 156.11 152.112 154.261 153.655 153.528L153.657 153.529Z" fill="white"/>
<path d="M155.897 104.436L130.131 116.677C128.27 117.56 126.046 116.766 125.165 114.9L124.344 113.165C123.463 111.299 124.256 109.071 126.117 108.188L151.883 95.9464C153.745 95.063 155.968 95.8578 156.849 97.7231L157.67 99.4587C158.551 101.324 157.758 103.552 155.897 104.436Z" fill="#171D34"/>
<path d="M56.8118 244.457C55.7272 244.457 54.6394 244.259 53.5909 243.858C51.2695 242.971 49.4576 241.219 48.4894 238.927L26.8152 187.489C26.6989 187.212 26.8283 186.893 27.1035 186.776C27.3788 186.66 27.6982 186.79 27.8145 187.065L49.4887 238.503C50.3406 240.521 51.9346 242.062 53.9776 242.842C56.0205 243.621 58.2338 243.534 60.2079 242.595L195.984 178.089C199.842 176.256 201.562 171.732 199.897 167.79L166.028 87.5558C165.176 85.5378 163.582 83.9976 161.539 83.2176C159.496 82.4377 157.283 82.5247 155.309 83.4639L24.3431 145.685C24.0711 145.813 23.7484 145.698 23.6206 145.427C23.4928 145.156 23.6075 144.831 23.8778 144.703L154.842 82.4837C157.088 81.4163 159.603 81.3178 161.924 82.2045C164.246 83.0912 166.058 84.8416 167.026 87.1355L200.895 167.369C202.786 171.85 200.833 176.992 196.446 179.075L60.6699 243.582C59.4379 244.167 58.1256 244.461 56.8085 244.461L56.8118 244.457Z" fill="#171D34"/>
<path d="M26.8916 156.095L26.543 155.357L32.3584 152.609L32.7071 153.347L30.1899 154.536L34.3187 163.274L33.5231 163.65L29.3943 154.912L26.8916 156.095ZM38.7309 161.189L38.3891 160.466L40.0383 159.686L37.4749 154.261L35.8257 155.041L35.4839 154.317L37.8998 153.176L38.3252 154.001C38.5427 153.663 38.8855 153.265 39.3537 152.807C39.822 152.35 40.2591 152.002 40.6653 151.763L40.8244 151.688L41.2277 152.541L41.0686 152.616C40.6868 152.832 40.2405 153.161 39.7297 153.603C39.2285 154.04 38.8743 154.414 38.667 154.725L40.8339 159.31L43.1485 158.217L43.4903 158.94L38.7309 161.189ZM50.2027 155.768L49.8935 155.189C49.1955 156.108 48.5379 156.714 47.9206 157.006C47.3034 157.297 46.7161 157.315 46.1588 157.06C45.6014 156.804 45.1496 156.31 44.8032 155.577L42.6158 150.947L43.3825 150.585L45.57 155.214C45.7933 155.687 46.0887 156.025 46.4564 156.229C46.8291 156.418 47.2469 156.404 47.7099 156.185C48.1728 155.966 48.7822 155.384 49.538 154.437L46.9268 148.91L47.6935 148.548L50.9404 155.42L50.2027 155.768ZM52.9966 154.041L52.8292 153.2C53.9343 153.067 54.7473 152.877 55.2681 152.631C55.7889 152.385 56.1367 152.085 56.3116 151.731C56.4915 151.363 56.4926 150.991 56.3149 150.615C56.1372 150.239 55.8916 150.019 55.5781 149.954C55.2697 149.876 54.7199 149.923 53.9288 150.097C53.1376 150.27 52.4907 150.287 51.988 150.147C51.4945 150.026 51.111 149.676 50.8376 149.098C50.5642 148.519 50.5738 147.978 50.8665 147.473C51.1643 146.955 51.6604 146.532 52.3548 146.204C53.0492 145.876 53.8743 145.675 54.8303 145.6L54.949 146.376C54.0017 146.493 53.2772 146.671 52.7757 146.908C52.2742 147.144 51.9198 147.418 51.7126 147.728C51.5144 148.058 51.4927 148.387 51.6477 148.715C51.8026 149.043 52.0488 149.239 52.3861 149.304C52.7331 149.364 53.3163 149.312 54.1359 149.149C54.9554 148.986 55.5879 148.976 56.0332 149.12C56.474 149.254 56.8379 149.624 57.125 150.232C57.4121 150.84 57.4326 151.42 57.1865 151.973C56.9501 152.521 56.4557 152.973 55.7035 153.328C54.9513 153.684 54.0489 153.921 52.9966 154.041ZM57.2523 145.146L56.9106 144.423L58.3138 143.76L57.4867 142.009L58.185 141.502L59.0805 143.397L62.3933 141.832L62.7351 142.555L59.4223 144.121L60.9808 147.419C61.3272 148.152 61.6839 148.632 62.051 148.86C62.4232 149.073 62.889 149.048 63.4484 148.784C63.6605 148.683 63.9725 148.495 64.3842 148.218C64.7914 147.931 65.0633 147.72 65.1999 147.584L65.7084 148.211C65.5571 148.365 65.2537 148.597 64.7983 148.907C64.3526 149.212 64.0188 149.417 63.797 149.521C62.929 149.932 62.2288 149.985 61.6963 149.682C61.1593 149.37 60.6698 148.746 60.2278 147.81L58.6556 144.483L57.2523 145.146ZM73.9707 144.537L72.213 133.777L73.6018 133.12L80.6976 141.358L79.844 141.762L78.2187 139.858L74.3852 141.669L74.8098 144.141L73.9707 144.537ZM77.6889 139.223L73.3649 134.117L73.119 134.233L74.2459 140.85L77.6889 139.223ZM81.4905 141.426L82.4818 128.057L83.1675 128.122L82.1617 141.498L81.4905 141.426ZM93.8889 133.922L94.4256 134.571C93.6954 135.223 92.9927 135.708 92.3176 136.027C91.2085 136.551 90.204 136.56 89.3039 136.053C88.4089 135.532 87.5581 134.418 86.7514 132.711C85.9448 131.004 85.6196 129.642 85.7758 128.624C85.9275 127.597 86.5771 126.812 87.7248 126.27C88.4288 125.937 89.2324 125.74 90.1356 125.679L90.2459 126.512C89.4148 126.551 88.6907 126.716 88.0734 127.008C87.2151 127.413 86.748 128.035 86.6721 128.873C86.6013 129.697 86.9077 130.832 87.5913 132.279C88.2748 133.726 88.9741 134.681 89.689 135.145C90.404 135.61 91.1665 135.651 91.9766 135.268C92.5167 135.013 93.1541 134.564 93.8889 133.922Z" fill="white"/>
<path d="M162.776 76.4852C162.766 76.4852 162.754 76.4852 162.743 76.4852C162.443 76.4671 162.215 76.211 162.233 75.9105L163.039 62.157C163.057 61.8581 163.305 61.6217 163.613 61.6463C163.913 61.6644 164.14 61.9205 164.122 62.221L163.316 75.9745C163.3 76.2635 163.061 76.4869 162.776 76.4869V76.4852Z" fill="#171D34"/>
<path d="M166.994 77.0682C166.881 77.0682 166.766 77.0321 166.668 76.9582C166.429 76.7776 166.38 76.4377 166.56 76.1963L184.53 52.2508C184.71 52.0094 185.051 51.9618 185.29 52.1424C185.529 52.323 185.578 52.6646 185.398 52.9043L167.428 76.8498C167.322 76.9927 167.159 77.0666 166.994 77.0666V77.0682Z" fill="#171D34"/>
<path d="M170.103 80.5657C169.915 80.5657 169.731 80.4671 169.631 80.2898C169.484 80.0287 169.574 79.6954 169.836 79.5476L177.146 75.3933C177.408 75.2455 177.737 75.3375 177.886 75.5986C178.034 75.8596 177.942 76.1913 177.682 76.3407L170.372 80.4951C170.287 80.5427 170.195 80.5657 170.105 80.5657H170.103Z" fill="#171D34"/>
<path d="M237.422 117.673C248.35 106.721 248.35 88.9633 237.422 78.0108C226.495 67.0582 208.778 67.0583 197.85 78.0108C186.923 88.9633 186.923 106.721 197.85 117.673C208.778 128.626 226.495 128.626 237.422 117.673Z" fill="white"/>
<path d="M217.681 126.429C207.079 126.429 196.88 120.485 191.961 110.294C188.642 103.421 188.193 95.6624 190.696 88.4507C193.199 81.2389 198.355 75.4344 205.213 72.1077C219.37 65.2424 236.462 71.2013 243.312 85.39C250.162 99.5803 244.216 116.711 230.06 123.577C226.069 125.513 221.843 126.429 217.681 126.429ZM217.593 70.3425C213.589 70.3425 209.524 71.2243 205.686 73.0863C192.067 79.6905 186.348 96.1698 192.939 109.82C199.528 123.47 215.969 129.202 229.588 122.596C243.207 115.992 248.926 99.5129 242.336 85.8629C237.604 76.0616 227.793 70.3425 217.593 70.3425Z" fill="#171D34"/>
<path d="M235.516 115.762C245.391 105.865 245.391 89.8189 235.516 79.9219C225.642 70.0249 209.632 70.0249 199.758 79.9219C189.884 89.8189 189.884 105.865 199.758 115.762C209.632 125.659 225.642 125.659 235.516 115.762Z" fill="#F6BD3D"/>
<path d="M217.637 120.258C229.989 120.258 240.003 110.222 240.003 97.8414C240.003 85.4609 229.989 75.4246 217.637 75.4246C205.285 75.4246 195.271 85.4609 195.271 97.8414C195.271 110.222 205.285 120.258 217.637 120.258Z" fill="white"/>
<path d="M217.655 121.524C215.042 121.524 212.419 121.084 209.878 120.197C203.92 118.12 199.127 113.841 196.379 108.15C190.708 96.4014 195.631 82.2176 207.352 76.533C214.425 73.1028 222.711 73.4197 229.515 77.3786C229.774 77.5297 229.862 77.863 229.711 78.1224C229.561 78.3819 229.228 78.4705 228.969 78.3195C222.477 74.5412 214.572 74.2407 207.824 77.5132C202.406 80.1405 198.335 84.725 196.358 90.4211C194.381 96.1173 194.736 102.245 197.357 107.675C199.978 113.106 204.553 117.188 210.236 119.168C215.919 121.15 222.033 120.794 227.45 118.166C232.868 115.539 236.939 110.955 238.917 105.258C240.894 99.5623 240.539 93.4342 237.917 88.0041C237.786 87.7332 237.899 87.408 238.17 87.2767C238.44 87.147 238.764 87.2586 238.895 87.5295C241.643 93.2208 242.015 99.6444 239.942 105.616C237.87 111.588 233.602 116.393 227.924 119.147C224.667 120.726 221.171 121.523 217.657 121.523L217.655 121.524Z" fill="#171D34"/>
<path d="M221.883 110.621L220.531 107.822C218.518 108.689 216.352 109.084 214.922 108.979L214.139 105.104C215.7 105.183 217.735 104.961 219.645 104.034C221.321 103.221 222.155 102.017 221.586 100.838C221.046 99.7183 219.763 99.4671 217.232 99.7857C213.574 100.25 210.716 99.8185 209.335 96.9598C208.084 94.367 208.924 91.4491 211.771 89.3047L210.42 86.505L213.302 85.1077L214.553 87.7004C216.567 86.8334 218.089 86.6035 219.286 86.6052L220.041 90.349C219.121 90.395 217.442 90.3736 215.323 91.3999C213.413 92.326 213.194 93.4508 213.592 94.2767C214.062 95.2488 215.389 95.3686 218.343 95.0993C222.438 94.6396 224.632 95.5772 225.913 98.229C227.179 100.851 226.408 103.989 223.311 106.219L224.763 109.226L221.881 110.623L221.883 110.621Z" fill="#F6BD3D"/>
<path d="M291.622 82.1614C299.348 74.4184 299.348 61.8644 291.622 54.1213C283.897 46.3782 271.372 46.3782 263.646 54.1213C255.921 61.8644 255.921 74.4184 263.646 82.1614C271.372 89.9045 283.897 89.9045 291.622 82.1614Z" fill="white"/>
<path d="M277.622 88.5228C274.671 88.5228 271.732 87.871 268.982 86.5738C264.07 84.2569 260.351 80.1617 258.512 75.0419C256.672 69.9221 256.932 64.3917 259.244 59.4673C264.015 49.3049 276.146 44.9256 286.287 49.7072C296.428 54.4887 300.795 66.6479 296.025 76.812C293.713 81.7347 289.627 85.4621 284.519 87.3061C282.271 88.1173 279.942 88.5212 277.62 88.5212L277.622 88.5228ZM277.665 48.8599C270.438 48.8599 263.502 52.9567 260.227 59.932C258.04 64.5921 257.794 69.8285 259.534 74.6741C261.275 79.5197 264.794 83.3965 269.445 85.5886C274.095 87.7806 279.319 88.0286 284.154 86.2831C288.988 84.5377 292.856 81.0106 295.043 76.3489C299.56 66.7283 295.425 55.2178 285.825 50.6924C283.186 49.4477 280.404 48.8583 277.665 48.8583V48.8599Z" fill="#171D34"/>
<path d="M290.274 80.8099C297.255 73.8133 297.255 62.4694 290.274 55.4728C283.294 48.4761 271.976 48.4761 264.995 55.4728C258.014 62.4694 258.014 73.8133 264.995 80.8099C271.976 87.8066 283.294 87.8066 290.274 80.8099Z" fill="#F6BD3D"/>
<path d="M288.813 79.347C294.988 73.1583 294.988 63.1244 288.813 56.9358C282.639 50.7471 272.628 50.7471 266.453 56.9358C260.279 63.1245 260.279 73.1583 266.453 79.347C272.628 85.5356 282.639 85.5357 288.813 79.347Z" fill="white"/>
<path d="M277.608 85.0336C275.208 85.0336 272.771 84.518 270.459 83.4277C262.05 79.4622 258.428 69.3786 262.384 60.9501C266.34 52.5216 276.401 48.8895 284.81 52.8566C289.884 55.249 293.429 59.9977 294.292 65.5592C294.338 65.8565 294.135 66.134 293.839 66.1799C293.545 66.2259 293.265 66.0223 293.219 65.7251C292.412 60.5215 289.094 56.0782 284.346 53.8402C276.478 50.1292 267.066 53.5282 263.364 61.4132C259.663 69.2981 263.052 78.7332 270.919 82.4441C274.73 84.2405 279.012 84.4441 282.975 83.0139C286.938 81.5837 290.108 78.6921 291.902 74.8728C292.03 74.6002 292.354 74.4853 292.625 74.6117C292.897 74.7398 293.013 75.0632 292.885 75.3358C290.017 81.4474 283.939 85.0369 277.608 85.0369V85.0336Z" fill="#171D34"/>
<path d="M272.516 76.1634L273.449 74.1733C272.078 73.4508 270.899 72.4328 270.32 71.5986L272.098 69.4443C272.75 70.3392 273.775 71.3605 275.134 72.0009C276.325 72.5625 277.355 72.4853 277.748 71.6479C278.122 70.8515 277.689 70.0338 276.388 68.7809C274.506 66.973 273.472 65.2062 274.426 63.1751C275.291 61.3327 277.265 60.4986 279.708 61.1127L280.641 59.1226L282.689 60.0881L281.824 61.9304C283.195 62.6529 283.997 63.3902 284.529 64.0503L282.812 66.1307C282.376 65.6447 281.642 64.7087 280.137 63.9994C278.779 63.359 278.064 63.7383 277.789 64.3245C277.465 65.0158 277.989 65.8006 279.45 67.308C281.524 69.3605 281.986 70.9845 281.102 72.8695C280.227 74.7332 278.163 75.7037 275.564 74.9894L274.562 77.1256L272.514 76.1601L272.516 76.1634Z" fill="#F6BD3D"/>
<path d="M270.822 176.476C279.932 167.345 279.932 152.54 270.822 143.408C261.711 134.277 246.94 134.277 237.83 143.408C228.719 152.54 228.719 167.345 237.83 176.476C246.94 185.607 261.711 185.607 270.822 176.476Z" fill="#99C1FB"/>
<path d="M254.326 183.868C249.493 183.868 244.837 182.428 240.863 179.703C240.616 179.534 240.552 179.194 240.722 178.947C240.892 178.699 241.23 178.635 241.476 178.806C245.268 181.407 249.711 182.781 254.326 182.781C266.89 182.781 277.113 172.535 277.113 159.943C277.113 147.35 266.89 137.104 254.326 137.104C245.011 137.104 236.723 142.692 233.212 151.34C233.099 151.618 232.785 151.752 232.504 151.639C232.226 151.526 232.093 151.209 232.206 150.93C235.884 141.871 244.567 136.015 254.326 136.015C267.49 136.015 278.199 146.749 278.199 159.943C278.199 173.136 267.49 183.87 254.326 183.87V183.868Z" fill="#171D34"/>
<path d="M269.231 174.859C277.447 166.625 277.447 153.274 269.231 145.04C261.016 136.806 247.696 136.806 239.481 145.04C231.265 153.274 231.265 166.625 239.481 174.859C247.696 183.093 261.016 183.093 269.231 174.859Z" fill="white"/>
<path d="M272.773 160.332C272.524 149.074 262.571 141.678 254.806 141.678C254.798 141.678 254.789 141.678 254.781 141.678L254.806 159.346L272.773 160.332Z" fill="#CADDFF"/>
<path d="M253.23 178.034C253.23 178.642 253.722 179.133 254.326 179.133C254.931 179.133 255.422 178.64 255.422 178.034C255.422 177.428 254.931 176.936 254.326 176.936C253.722 176.936 253.23 177.428 253.23 178.034Z" fill="#99C1FB"/>
<path d="M272.377 158.842C271.771 158.842 271.281 159.335 271.281 159.941C271.281 160.547 271.773 161.039 272.377 161.039C272.982 161.039 273.473 160.547 273.473 159.941C273.473 159.335 272.982 158.842 272.377 158.842Z" fill="#99C1FB"/>
<path d="M236.276 158.842C235.67 158.842 235.18 159.335 235.18 159.941C235.18 160.547 235.671 161.039 236.276 161.039C236.88 161.039 237.372 160.547 237.372 159.941C237.372 159.335 236.88 158.842 236.276 158.842Z" fill="#99C1FB"/>
<path d="M262.846 143.98C262.685 144.26 262.78 144.618 263.059 144.78C263.337 144.941 263.694 144.846 263.856 144.567C264.017 144.287 263.922 143.93 263.643 143.767C263.365 143.606 263.008 143.701 262.846 143.98Z" fill="#99C1FB"/>
<path d="M270.251 168.483C269.972 168.322 269.615 168.417 269.453 168.696C269.292 168.975 269.388 169.333 269.666 169.496C269.945 169.657 270.302 169.561 270.464 169.282C270.624 169.003 270.529 168.645 270.251 168.483Z" fill="#99C1FB"/>
<path d="M238.985 150.389C238.707 150.228 238.35 150.324 238.187 150.603C238.027 150.882 238.122 151.24 238.4 151.402C238.679 151.563 239.036 151.468 239.198 151.189C239.359 150.91 239.264 150.552 238.985 150.389Z" fill="#99C1FB"/>
<path d="M269.667 150.389C269.388 150.55 269.292 150.908 269.454 151.189C269.614 151.468 269.971 151.565 270.252 151.402C270.53 151.241 270.627 150.883 270.465 150.603C270.304 150.324 269.947 150.227 269.667 150.389Z" fill="#99C1FB"/>
<path d="M238.401 168.483C238.123 168.643 238.026 169.001 238.188 169.282C238.349 169.561 238.706 169.658 238.986 169.496C239.264 169.335 239.361 168.977 239.199 168.696C239.038 168.417 238.681 168.32 238.401 168.483Z" fill="#99C1FB"/>
<path d="M263.857 175.318C263.697 175.039 263.339 174.942 263.059 175.105C262.781 175.266 262.684 175.624 262.846 175.904C263.007 176.184 263.364 176.281 263.644 176.118C263.923 175.957 264.019 175.599 263.857 175.318Z" fill="#99C1FB"/>
<path d="M245.804 143.98C245.644 143.701 245.287 143.604 245.007 143.767C244.728 143.928 244.631 144.286 244.794 144.567C244.954 144.846 245.311 144.943 245.591 144.78C245.87 144.619 245.967 144.261 245.804 143.98Z" fill="#99C1FB"/>
<path d="M245.804 175.591C245.644 175.312 245.287 175.215 245.007 175.378C244.728 175.538 244.631 175.896 244.794 176.177C244.954 176.456 245.311 176.553 245.591 176.391C245.87 176.23 245.967 175.872 245.804 175.591Z" fill="#99C1FB"/>
<path d="M252.784 152.248C252.671 158.448 253.343 160.186 254.209 160.202C255.077 160.218 255.811 158.506 255.924 152.306C256.006 147.874 255.304 142.338 254.897 139.544C254.835 139.117 254.353 139.109 254.276 139.532C253.767 142.312 252.864 147.816 252.782 152.248H252.784Z" fill="#5B9AF8"/>
<path d="M258.929 158.563C254.479 158.435 253.58 158.709 253.553 159.621C253.527 160.532 254.22 161.204 258.671 161.332C261.853 161.424 266.361 160.798 268.376 160.374C268.684 160.31 268.699 159.805 268.394 159.722C266.407 159.184 262.11 158.655 258.929 158.563Z" fill="#5B9AF8"/>
<path d="M259.325 161.885C259.095 161.885 258.872 161.882 258.655 161.875C254.443 161.754 252.965 161.159 253.011 159.604C253.044 158.471 254.117 158.243 254.469 158.169C255.281 157.997 256.62 157.951 258.943 158.02C262.182 158.113 266.485 158.642 268.535 159.197C268.912 159.299 269.167 159.658 269.156 160.071C269.144 160.483 268.868 160.828 268.486 160.906C266.461 161.332 262.428 161.885 259.325 161.885ZM257.138 159.077C255.968 159.077 255.19 159.128 254.693 159.233C254.104 159.358 254.099 159.494 254.095 159.635C254.087 159.941 254.066 160.655 258.686 160.788C261.32 160.864 265.014 160.425 267.3 160.025C265.122 159.58 261.587 159.182 258.912 159.105C258.24 159.085 257.65 159.076 257.138 159.076V159.077Z" fill="#171D34"/>
<path d="M253.049 157.662C251.93 158.291 251.53 159.711 252.159 160.834C252.787 161.956 254.204 162.356 255.324 161.726C256.443 161.097 256.843 159.676 256.214 158.553C255.587 157.432 254.17 157.031 253.049 157.662Z" fill="#5B9AF8"/>
<path d="M254.192 162.567C253.187 162.567 252.211 162.038 251.687 161.1C251.311 160.43 251.22 159.655 251.426 158.916C251.634 158.177 252.116 157.563 252.783 157.189C253.451 156.813 254.226 156.719 254.962 156.928C255.699 157.135 256.311 157.619 256.687 158.287C257.062 158.957 257.154 159.732 256.945 160.471C256.737 161.21 256.256 161.824 255.589 162.2C255.147 162.448 254.665 162.567 254.192 162.567ZM254.183 157.907C253.882 157.907 253.584 157.984 253.315 158.136C252.901 158.37 252.601 158.751 252.471 159.21C252.344 159.67 252.399 160.151 252.634 160.568C253.115 161.427 254.203 161.734 255.06 161.251C255.474 161.018 255.774 160.637 255.904 160.177C256.033 159.718 255.976 159.237 255.741 158.819C255.509 158.404 255.129 158.104 254.67 157.974C254.509 157.928 254.347 157.907 254.185 157.907H254.183Z" fill="#171D34"/>
<path d="M275.31 175.711C275.198 175.711 275.087 175.677 274.99 175.606C274.748 175.429 274.695 175.089 274.872 174.846C278.447 169.941 280.182 163.897 279.759 157.828C279.492 154 278.418 150.375 276.566 147.051C276.42 146.788 276.514 146.458 276.776 146.311C277.038 146.166 277.369 146.258 277.515 146.521C279.445 149.986 280.565 153.764 280.842 157.752C281.283 164.077 279.474 170.376 275.749 175.488C275.642 175.634 275.477 175.711 275.31 175.711Z" fill="#5B9AF8"/>
<path d="M276.422 178.635C276.302 178.635 276.181 178.596 276.08 178.514C275.847 178.325 275.811 177.982 276.001 177.749C280.55 172.133 282.78 165.062 282.277 157.841C281.954 153.202 280.491 148.68 278.05 144.764C277.892 144.509 277.969 144.173 278.222 144.015C278.475 143.856 278.811 143.933 278.97 144.187C281.506 148.253 283.023 152.949 283.358 157.765C283.881 165.263 281.566 172.603 276.843 178.433C276.737 178.566 276.579 178.635 276.422 178.635Z" fill="#5B9AF8"/>
<path d="M277.139 181.775C277.008 181.775 276.876 181.727 276.771 181.63C276.55 181.427 276.537 181.084 276.74 180.862C282.606 174.483 285.508 166.241 284.91 157.657C284.518 152.025 282.596 146.614 279.354 142.009C279.182 141.762 279.24 141.424 279.485 141.25C279.731 141.077 280.069 141.135 280.242 141.381C283.599 146.15 285.588 151.751 285.994 157.581C286.613 166.468 283.611 174.998 277.539 181.601C277.433 181.717 277.287 181.777 277.139 181.777V181.775Z" fill="#5B9AF8"/>
<path d="M232.992 175.711C232.825 175.711 232.659 175.634 232.553 175.487C228.828 170.376 227.019 164.077 227.46 157.752C227.738 153.764 228.857 149.985 230.787 146.521C230.933 146.258 231.265 146.166 231.526 146.31C231.788 146.457 231.881 146.788 231.735 147.051C229.884 150.374 228.81 154 228.542 157.828C228.12 163.896 229.855 169.941 233.429 174.845C233.606 175.088 233.554 175.428 233.311 175.606C233.215 175.676 233.103 175.711 232.992 175.711Z" fill="#5B9AF8"/>
<path d="M231.878 178.635C231.721 178.635 231.564 178.566 231.457 178.433C226.734 172.602 224.419 165.263 224.942 157.765C225.278 152.949 226.795 148.255 229.331 144.187C229.489 143.931 229.825 143.854 230.078 144.015C230.332 144.174 230.409 144.509 230.25 144.764C227.807 148.68 226.346 153.202 226.023 157.841C225.52 165.062 227.748 172.131 232.297 177.749C232.486 177.982 232.451 178.325 232.219 178.514C232.119 178.596 231.998 178.635 231.876 178.635H231.878Z" fill="#5B9AF8"/>
<path d="M231.161 181.775C231.015 181.775 230.87 181.716 230.761 181.599C224.69 174.997 221.687 166.466 222.306 157.58C222.713 151.751 224.701 146.148 228.057 141.38C228.229 141.133 228.568 141.076 228.813 141.248C229.059 141.421 229.117 141.76 228.945 142.007C225.702 146.613 223.781 152.023 223.389 157.655C222.791 166.24 225.693 174.481 231.559 180.86C231.762 181.082 231.749 181.425 231.528 181.629C231.423 181.726 231.292 181.773 231.159 181.773L231.161 181.775Z" fill="#5B9AF8"/>
<path d="M121.036 63.2325C116.947 63.7695 113.12 59.4181 112.326 53.3279C111.529 47.2376 114.11 42.0456 118.199 41.5086C122.288 40.9717 126.115 45.323 126.909 51.4133C127.706 57.5035 125.125 62.6956 121.036 63.2309V63.2325ZM118.785 45.9979C116.823 46.2557 115.546 49.392 115.997 52.8468C116.448 56.3016 118.487 59.0027 120.45 58.7449C122.412 58.4871 123.689 55.3509 123.236 51.896C122.786 48.4412 120.746 45.7401 118.784 45.9979H118.785Z" fill="#307FF4"/>
<path d="M97.882 48.3656C93.7929 48.9025 89.9659 44.5512 89.1714 38.4609C88.3752 32.3707 90.9554 27.1786 95.0445 26.6417C99.1336 26.1048 102.961 30.4561 103.755 36.5463C104.551 42.6366 101.971 47.8287 97.882 48.364V48.3656ZM95.631 31.131C93.6684 31.3888 92.3922 34.525 92.8427 37.9798C93.2932 41.4346 95.3329 44.1358 97.2955 43.878C99.2582 43.6202 100.534 40.4839 100.082 37.0291C99.6317 33.5743 97.592 30.8732 95.6294 31.131H95.631Z" fill="#307FF4"/>
<path d="M101.351 64.5362L118.489 26.443C119.086 25.1163 117.999 23.6483 116.559 23.8388H116.553C115.916 23.9225 115.368 24.3314 115.105 24.9176L97.9733 63.0108C97.377 64.3375 98.4648 65.8038 99.9032 65.615C100.54 65.5313 101.088 65.1241 101.351 64.5362Z" fill="#307FF4"/>
<path d="M77.1046 45.9667H84.2868V50.1719H77.1046V58.3738H72.6436V50.1719H65.4238V45.9667H72.6436V38.2952H77.1046V45.9667Z" fill="#307FF4"/>
<path d="M27.2192 86.6822C27.193 86.6822 27.1651 86.6806 27.1373 86.6757C26.8407 86.6313 26.6376 86.3538 26.6818 86.0566L27.1012 83.275C27.1455 82.9778 27.424 82.7742 27.7188 82.8186C28.0154 82.8629 28.2185 83.1404 28.1743 83.4376L27.7549 86.2192C27.7139 86.4885 27.4829 86.6822 27.2192 86.6822Z" fill="#171D34"/>
<path d="M26.2407 93.1633C26.2144 93.1633 26.1866 93.1617 26.1587 93.1567C25.8622 93.1124 25.6591 92.8349 25.7033 92.5377L26.1227 89.7561C26.1669 89.4589 26.4454 89.2537 26.7403 89.2997C27.0369 89.344 27.24 89.6215 27.1958 89.9187L26.7764 92.7003C26.7354 92.9696 26.5044 93.1633 26.2407 93.1633Z" fill="#171D34"/>
<path d="M25.094 88.2519C25.0678 88.2519 25.0399 88.2503 25.0121 88.2454L22.2369 87.825C21.9403 87.7807 21.7372 87.5032 21.7814 87.206C21.8257 86.9088 22.1042 86.7019 22.3991 86.7495L25.1743 87.1699C25.4708 87.2142 25.6739 87.4917 25.6297 87.7889C25.5888 88.0582 25.3578 88.2519 25.094 88.2519Z" fill="#171D34"/>
<path d="M31.5608 89.2324C31.5346 89.2324 31.5067 89.2307 31.4789 89.2258L28.7037 88.8055C28.4071 88.7611 28.204 88.4836 28.2482 88.1864C28.2925 87.8892 28.571 87.6856 28.8659 87.7299L31.6411 88.1503C31.9376 88.1946 32.1407 88.4721 32.0965 88.7693C32.0556 89.0386 31.8246 89.2324 31.5608 89.2324Z" fill="#171D34"/>
<path d="M19.0693 109.851C18.3272 109.851 17.5932 109.657 16.9314 109.276C15.9042 108.685 15.1702 107.72 14.8655 106.559C14.243 104.188 15.6322 101.728 17.9602 101.078C19.0824 100.764 20.257 100.912 21.2662 101.492C22.2934 102.083 23.0273 103.047 23.3321 104.209C23.9546 106.58 22.5653 109.04 20.2374 109.69C19.8508 109.799 19.4592 109.851 19.0693 109.851ZM18.2518 102.125C16.4907 102.618 15.4438 104.482 15.9156 106.281C16.1466 107.16 16.6987 107.887 17.4704 108.332C18.2256 108.767 19.1053 108.877 19.9441 108.643C21.7053 108.15 22.7521 106.286 22.2803 104.487C22.0493 103.608 21.4972 102.881 20.7239 102.436C19.9687 102.001 19.0906 101.892 18.2502 102.125H18.2518Z" fill="#171D34"/>
<path d="M19.0264 127.036C18.4284 127.036 17.8387 126.881 17.3062 126.573C16.4805 126.099 15.8908 125.322 15.6467 124.39C15.147 122.485 16.2626 120.509 18.1335 119.986C19.0362 119.734 19.9815 119.853 20.7941 120.319C21.6198 120.794 22.2095 121.57 22.4536 122.503C22.9533 124.408 21.8377 126.383 19.9668 126.907C19.6571 126.994 19.3409 127.036 19.028 127.036H19.0264ZM18.4235 121.035C17.1211 121.399 16.3446 122.78 16.6952 124.114C16.8655 124.764 17.2735 125.303 17.8452 125.631C18.4039 125.953 19.0526 126.033 19.6735 125.859C20.9759 125.495 21.7525 124.114 21.4019 122.78C21.2315 122.13 20.8236 121.592 20.2518 121.263C19.6932 120.941 19.0444 120.861 18.4235 121.035Z" fill="#171D34"/>
<path d="M130.042 8.20686C129.742 8.20686 129.5 7.96384 129.5 7.66335V4.86699C129.5 4.5665 129.742 4.32349 130.042 4.32349C130.342 4.32349 130.585 4.5665 130.585 4.86699V7.66335C130.585 7.96384 130.342 8.20686 130.042 8.20686Z" fill="#171D34"/>
<path d="M130.042 14.7191C129.742 14.7191 129.5 14.4761 129.5 14.1756V11.3809C129.5 11.0804 129.742 10.8374 130.042 10.8374C130.342 10.8374 130.585 11.0804 130.585 11.3809V14.1756C130.585 14.4761 130.342 14.7191 130.042 14.7191Z" fill="#171D34"/>
<path d="M128.188 10.0641H125.398C125.098 10.0641 124.855 9.82105 124.855 9.52056C124.855 9.22007 125.098 8.97705 125.398 8.97705H128.188C128.487 8.97705 128.73 9.22007 128.73 9.52056C128.73 9.82105 128.487 10.0641 128.188 10.0641Z" fill="#171D34"/>
<path d="M134.686 10.0641H131.896C131.596 10.0641 131.354 9.82105 131.354 9.52056C131.354 9.22007 131.596 8.97705 131.896 8.97705H134.686C134.986 8.97705 135.228 9.22007 135.228 9.52056C135.228 9.82105 134.986 10.0641 134.686 10.0641Z" fill="#171D34"/>
</g>
<defs>
<clipPath id="clip0_1276_49362">
<rect width="300" height="300" fill="white"/>
</clipPath>
</defs>
</svg>
