<svg width="36" height="36" viewBox="0 0 36 36" fill="none" xmlns="http://www.w3.org/2000/svg">
<g id="Capa_1" clip-path="url(#clip0_1138_41057)">
<g id="Group">
<g id="Group_2">
<path id="Vector" d="M7.51636 7.33594V33.1429C7.51636 34.4296 8.55937 35.4726 9.84602 35.4726H31.9782C33.2649 35.4726 34.3079 34.4296 34.3079 33.1429V7.33594H7.51636Z" fill="#FBFCFE"/>
<path id="Vector_2" d="M32.6907 7.33594V33.1429C32.6907 34.4296 31.6477 35.4726 30.3611 35.4726H31.9783C33.2649 35.4726 34.3079 34.4296 34.3079 33.1429V7.33594H32.6907Z" fill="#F5F9FF"/>
<g id="Group_3">
<path id="Vector_3" opacity="0.5" d="M15.848 27.697L6.7565 18.6055L3.46179 21.9002L12.5533 30.9917C12.6588 31.0972 12.8019 31.1565 12.9511 31.1565H13.4532L16.0128 28.5969V28.0947C16.0128 27.9456 15.9535 27.8026 15.848 27.697Z" fill="#307FF4"/>
<path id="Vector_4" d="M15.8479 27.697L6.75632 18.6055L5.94934 19.4124L15.3576 28.8207C15.4347 28.8978 15.4868 28.9951 15.5094 29.1001L16.0125 28.5969V28.0948C16.0126 27.9456 15.9533 27.8026 15.8479 27.697Z" fill="#307FF4"/>
<path id="Vector_5" d="M16.0128 30.5905V28.0913C16.0128 28.0234 15.9999 27.957 15.9766 27.8945L12.7543 31.1168C12.8167 31.1402 12.8832 31.153 12.9511 31.153H15.4503C15.7609 31.153 16.0128 30.9012 16.0128 30.5905Z" fill="#F5F9FF"/>
<path id="Vector_6" d="M3.67824 17.1732L2.03089 18.8205C1.57597 19.2754 1.57597 20.013 2.03089 20.4679L3.67824 22.1152L6.97294 18.8205L5.32559 17.1732C4.87067 16.7183 4.13316 16.7183 3.67824 17.1732Z" fill="#307FF4"/>
<path id="Vector_7" opacity="0.5" d="M3.69495 17.1577C3.70043 17.1629 3.70634 17.1674 3.71168 17.1728L6.16594 19.627L6.97284 18.8201L5.32556 17.1728C4.87606 16.7233 4.15099 16.7188 3.69495 17.1577Z" fill="#F5F9FF"/>
</g>
<path id="Vector_8" d="M31.9782 2.85547H9.84602C8.55937 2.85547 7.51636 3.89848 7.51636 5.18513V8.67973H34.3078V5.18506C34.3079 3.89848 33.2649 2.85547 31.9782 2.85547Z" fill="#F6BD3D"/>
<path id="Vector_9" opacity="0.5" d="M31.9783 2.85547H30.3611C31.6477 2.85547 32.6907 3.89848 32.6907 5.18513V8.67973H34.3079V5.18506C34.3079 3.89848 33.2649 2.85547 31.9783 2.85547Z" fill="#FBFCFE"/>
<g id="Group_4">
<path id="Vector_10" d="M11.0104 4.02188C11.0104 4.66523 11.5319 5.18674 12.1752 5.18674C12.8186 5.18674 13.3401 4.66523 13.3401 4.02188V1.69221C13.3401 1.04885 12.8186 0.527344 12.1752 0.527344C11.5319 0.527344 11.0104 1.04885 11.0104 1.69221V4.02188Z" fill="#307FF4"/>
<path id="Vector_11" d="M28.483 4.02188C28.483 4.66523 29.0045 5.18674 29.6479 5.18674C30.2913 5.18674 30.8128 4.66523 30.8128 4.02188V1.69221C30.8128 1.04885 30.2913 0.527344 29.6479 0.527344C29.0045 0.527344 28.483 1.04885 28.483 1.69221V4.02188Z" fill="#307FF4"/>
<path id="Vector_12" d="M16.8345 4.02188C16.8345 4.66523 17.356 5.18674 17.9993 5.18674C18.6427 5.18674 19.1642 4.66523 19.1642 4.02188V1.69221C19.1642 1.04885 18.6427 0.527344 17.9993 0.527344C17.356 0.527344 16.8345 1.04885 16.8345 1.69221V4.02188Z" fill="#307FF4"/>
<path id="Vector_13" d="M22.6589 4.02188C22.6589 4.66523 23.1804 5.18674 23.8238 5.18674C24.4672 5.18674 24.9887 4.66523 24.9887 4.02188V1.69221C24.9887 1.04885 24.4672 0.527344 23.8238 0.527344C23.1804 0.527344 22.6589 1.04885 22.6589 1.69221V4.02188Z" fill="#307FF4"/>
</g>
<path id="Vector_14" d="M29.6483 0.527344C29.334 0.527344 29.0493 0.65243 28.8397 0.854789C29.059 1.06664 29.196 1.36315 29.196 1.69221V4.02188C29.196 4.35087 29.059 4.64745 28.8397 4.8593C29.0493 5.06166 29.334 5.18674 29.6483 5.18674C30.2917 5.18674 30.8132 4.66523 30.8132 4.02188V1.69221C30.8132 1.04885 30.2917 0.527344 29.6483 0.527344Z" fill="#73C3FD"/>
<path id="Vector_15" d="M23.8242 0.527344C23.5099 0.527344 23.2252 0.65243 23.0156 0.854789C23.2349 1.06664 23.3719 1.36315 23.3719 1.69221V4.02188C23.3719 4.35087 23.2349 4.64745 23.0156 4.8593C23.2252 5.06166 23.5099 5.18674 23.8242 5.18674C24.4676 5.18674 24.9891 4.66523 24.9891 4.02188V1.69221C24.9891 1.04885 24.4676 0.527344 23.8242 0.527344Z" fill="#73C3FD"/>
<path id="Vector_16" d="M18 0.527344C17.6857 0.527344 17.4009 0.65243 17.1914 0.854789C17.4107 1.06664 17.5477 1.36315 17.5477 1.69221V4.02188C17.5477 4.35087 17.4108 4.64745 17.1914 4.8593C17.4009 5.06166 17.6857 5.18674 18 5.18674C18.6434 5.18674 19.1649 4.66523 19.1649 4.02188V1.69221C19.1649 1.04885 18.6433 0.527344 18 0.527344Z" fill="#73C3FD"/>
<path id="Vector_17" d="M12.1757 0.527344C11.8613 0.527344 11.5766 0.65243 11.3671 0.854789C11.5864 1.06664 11.7233 1.36315 11.7233 1.69221V4.02188C11.7233 4.35087 11.5864 4.64745 11.3671 4.8593C11.5766 5.06166 11.8613 5.18674 12.1757 5.18674C12.819 5.18674 13.3405 4.66523 13.3405 4.02188V1.69221C13.3405 1.04885 12.819 0.527344 12.1757 0.527344Z" fill="#73C3FD"/>
</g>
<g id="Group_5">
<path id="Vector_18" d="M31.9787 2.32973H31.3412V1.69221C31.3412 0.759094 30.5821 0 29.649 0C28.7158 0 27.9567 0.759094 27.9567 1.69221V2.32973H25.5169V1.69221C25.517 0.759094 24.7578 0 23.8248 0C22.8917 0 22.1325 0.759094 22.1325 1.69221V2.32973H19.6927V1.69221C19.6927 0.759094 18.9336 0 18.0005 0C17.0674 0 16.3083 0.759094 16.3083 1.69221V2.32973H13.8684V1.69221C13.8685 0.759094 13.1093 0 12.1763 0C11.2432 0 10.4841 0.759094 10.4841 1.69221V2.32973H9.84649C8.27114 2.32973 6.98956 3.61139 6.98956 5.18667V18.0916L5.6996 16.8017C5.03979 16.1419 3.96633 16.1419 3.30652 16.8017L1.65917 18.449C0.999354 19.1088 0.999354 20.1824 1.65917 20.8421L6.98956 26.1725V33.143C6.98956 34.7183 8.27121 36 9.84649 36H27.7857C28.0769 36 28.313 35.7639 28.313 35.4727C28.313 35.1814 28.0769 34.9453 27.7857 34.9453H9.84649C8.8527 34.9453 8.04424 34.1368 8.04424 33.143V27.2272L12.3462 31.5292C12.3588 31.5417 12.3718 31.5535 12.3854 31.5645C12.3946 31.5721 12.4042 31.5788 12.4137 31.5856C12.4182 31.5887 12.4225 31.5923 12.427 31.5953C12.4391 31.6034 12.4516 31.6106 12.4642 31.6176C12.4665 31.6189 12.4688 31.6204 12.4712 31.6217C12.4845 31.6288 12.498 31.635 12.5117 31.6408C12.5137 31.6417 12.5156 31.6428 12.5177 31.6436C12.531 31.6491 12.5445 31.6538 12.5581 31.6581C12.5609 31.659 12.5636 31.6602 12.5664 31.661C12.5792 31.6649 12.5921 31.6679 12.6051 31.6707C12.6089 31.6716 12.6127 31.6728 12.6165 31.6735C12.6291 31.676 12.6418 31.6776 12.6545 31.6792C12.6589 31.6797 12.6632 31.6806 12.6676 31.6811C12.6847 31.6827 12.702 31.6836 12.7191 31.6836H15.7954L16.4646 32.3528C16.5675 32.4558 16.7025 32.5073 16.8375 32.5073C16.9724 32.5073 17.1074 32.4558 17.2103 32.3528C17.4163 32.1469 17.4163 31.813 17.2103 31.607L16.5411 30.9379V27.8618C16.5411 27.8445 16.5402 27.8272 16.5386 27.81C16.5382 27.8062 16.5374 27.8025 16.5369 27.7987C16.5353 27.7854 16.5336 27.7721 16.531 27.7589C16.5303 27.7555 16.5293 27.7522 16.5285 27.7488C16.5255 27.7354 16.5224 27.722 16.5184 27.7087C16.5177 27.7064 16.5168 27.7041 16.516 27.7017C16.5116 27.6877 16.5067 27.6738 16.5011 27.6601C16.5004 27.6586 16.4997 27.6572 16.499 27.6557C16.493 27.6415 16.4865 27.6273 16.4791 27.6135C16.4782 27.6117 16.477 27.6101 16.476 27.6083C16.4688 27.5951 16.4612 27.582 16.4528 27.5694C16.4502 27.5655 16.4471 27.5618 16.4443 27.5579C16.4372 27.5477 16.43 27.5375 16.422 27.5278C16.4109 27.5142 16.3992 27.5011 16.3867 27.4886L12.0846 23.1865H30.2314C30.5226 23.1865 30.7587 22.9504 30.7587 22.6592C30.7587 22.368 30.5226 22.1318 30.2314 22.1318H11.5938C11.4389 22.1318 11.3 22.1991 11.2035 22.3054L8.04417 19.1462V9.20862H33.7809V12.8052C33.7809 13.0964 34.017 13.3325 34.3083 13.3325C34.5995 13.3325 34.8356 13.0964 34.8356 12.8052V5.18667C34.8357 3.61132 33.554 2.32973 31.9787 2.32973ZM15.4865 30.629H13.9923L15.4865 29.1348V30.629ZM4.42512 22.1166L5.32667 21.215L13.6207 29.509L12.7191 30.4106L4.42512 22.1166ZM14.3665 28.7632L6.07247 20.4692L6.97409 19.5676L15.2681 27.8616L14.3665 28.7632ZM2.4049 19.1948L4.05225 17.5475C4.30081 17.2989 4.70524 17.2989 4.9538 17.5475L6.22828 18.822L4.95401 20.0962C4.95394 20.0963 4.95387 20.0964 4.95387 20.0964C4.9538 20.0964 4.95373 20.0965 4.95373 20.0965L3.67938 21.3708L2.40497 20.0964C2.15635 19.8478 2.15635 19.4434 2.4049 19.1948ZM29.649 1.05469C30.0005 1.05469 30.2865 1.34065 30.2865 1.69221V4.02187C30.2865 4.37344 30.0005 4.6594 29.649 4.6594C29.2974 4.6594 29.0114 4.37344 29.0114 4.02187V2.85778C29.0114 2.85757 29.0114 2.85736 29.0114 2.85708C29.0114 2.8568 29.0114 2.85666 29.0114 2.85637V1.69221C29.0115 1.34065 29.2975 1.05469 29.649 1.05469ZM23.8248 1.05469C24.1763 1.05469 24.4623 1.34065 24.4623 1.69221V4.02187C24.4623 4.37344 24.1763 4.6594 23.8248 4.6594C23.4732 4.6594 23.1872 4.37344 23.1872 4.02187V2.85778C23.1872 2.85757 23.1872 2.85736 23.1872 2.85708C23.1872 2.8568 23.1872 2.85666 23.1872 2.85637V1.69221C23.1872 1.34065 23.4732 1.05469 23.8248 1.05469ZM17.363 1.69221C17.363 1.34065 17.649 1.05469 18.0006 1.05469C18.3521 1.05469 18.6381 1.34065 18.6381 1.69221V2.85637V2.85708C18.6381 2.85708 18.6381 2.8575 18.6381 2.85778V4.02187C18.6381 4.37344 18.3521 4.6594 18.0006 4.6594C17.6491 4.6594 17.363 4.37344 17.363 4.02187V1.69221ZM12.1763 1.05469C12.5278 1.05469 12.8138 1.34065 12.8138 1.69221V2.85637C12.8138 2.85659 12.8138 2.8568 12.8138 2.85708C12.8138 2.85736 12.8138 2.8575 12.8138 2.85778V4.02187C12.8138 4.37344 12.5279 4.6594 12.1763 4.6594C11.8247 4.6594 11.5388 4.37344 11.5388 4.02187V2.85778C11.5388 2.85757 11.5388 2.85736 11.5388 2.85708C11.5388 2.8568 11.5388 2.85666 11.5388 2.85637V1.69221C11.5388 1.34065 11.8247 1.05469 12.1763 1.05469ZM8.04424 8.15393V5.18667C8.04424 4.19287 8.85277 3.38442 9.84649 3.38442H10.4841V4.02187C10.4841 4.95499 11.2432 5.71409 12.1763 5.71409C13.1093 5.71409 13.8685 4.95499 13.8685 4.02187V3.38442H16.3084V4.02187C16.3084 4.95499 17.0674 5.71409 18.0006 5.71409C18.9337 5.71409 19.6928 4.95499 19.6928 4.02187V3.38442H22.1326V4.02187C22.1326 4.95499 22.8917 5.71409 23.8248 5.71409C24.7579 5.71409 25.517 4.95499 25.517 4.02187V3.38442H27.9569V4.02187C27.9569 4.95499 28.716 5.71409 29.6491 5.71409C30.5822 5.71409 31.3413 4.95499 31.3413 4.02187V3.38442H31.9788C32.9726 3.38442 33.7812 4.19295 33.7812 5.18667V8.15393H8.04424Z" fill="#171D34"/>
<path id="Vector_19" d="M34.3082 14.3867C34.017 14.3867 33.7809 14.6228 33.7809 14.9141V33.1424C33.7809 34.1362 32.9723 34.9448 31.9785 34.9448H29.8949C29.6037 34.9448 29.3676 35.1809 29.3676 35.4721C29.3676 35.7633 29.6037 35.9994 29.8949 35.9994H31.9785C33.5539 35.9994 34.8355 34.7178 34.8355 33.1424V14.9141C34.8355 14.6228 34.5994 14.3867 34.3082 14.3867Z" fill="#171D34"/>
<path id="Vector_20" d="M11.5939 12.7031H30.2314C30.5226 12.7031 30.7587 12.467 30.7587 12.1758C30.7587 11.8845 30.5226 11.6484 30.2314 11.6484H11.5939C11.3026 11.6484 11.0665 11.8845 11.0665 12.1758C11.0665 12.467 11.3026 12.7031 11.5939 12.7031Z" fill="#171D34"/>
<path id="Vector_21" d="M11.5939 16.1992H30.2314C30.5226 16.1992 30.7587 15.9631 30.7587 15.6719C30.7587 15.3806 30.5226 15.1445 30.2314 15.1445H11.5939C11.3026 15.1445 11.0665 15.3806 11.0665 15.6719C11.0665 15.9631 11.3026 16.1992 11.5939 16.1992Z" fill="#171D34"/>
<path id="Vector_22" d="M11.5939 19.6914H30.2314C30.5226 19.6914 30.7587 19.4553 30.7587 19.1641C30.7587 18.8728 30.5226 18.6367 30.2314 18.6367H11.5939C11.3026 18.6367 11.0665 18.8728 11.0665 19.1641C11.0665 19.4553 11.3026 19.6914 11.5939 19.6914Z" fill="#171D34"/>
<path id="Vector_23" d="M30.7588 26.1523C30.7588 25.8611 30.5227 25.625 30.2315 25.625H18.0006C17.7094 25.625 17.4733 25.8611 17.4733 26.1523C17.4733 26.4436 17.7094 26.6797 18.0006 26.6797H30.2315C30.5227 26.6797 30.7588 26.4436 30.7588 26.1523Z" fill="#171D34"/>
</g>
</g>
</g>
<defs>
<clipPath id="clip0_1138_41057">
<rect width="36" height="36" fill="white"/>
</clipPath>
</defs>
</svg>
