<svg width="80" height="80" viewBox="0 0 80 80" fill="none" xmlns="http://www.w3.org/2000/svg">
<g id="Frame">
<g id="Layer_32">
<path id="Vector" d="M29.0882 75.268C28.4109 76.2086 24.4978 77.8643 17.7999 77.8643C10.9518 77.8643 7.00081 76.0959 6.51163 75.4186C6.51163 69.21 11.5912 64.168 17.7999 64.168C23.9709 64.1681 29.013 69.135 29.0882 75.268Z" fill="#73C3FD"/>
<path id="Vector_2" d="M73.7634 75.7328C73.0861 76.6735 69.173 78.3291 62.4751 78.3291C55.627 78.3291 51.676 76.5607 51.1868 75.8834C51.1868 69.6749 56.2664 64.6328 62.4751 64.6328C68.6461 64.633 73.688 69.5998 73.7634 75.7328Z" fill="#73C3FD"/>
<path id="Vector_3" d="M25.9 66.2564C24.9491 65.1188 23.7945 64.2019 22.5041 63.5567C24.0152 62.1643 24.9491 60.1608 24.9491 57.9534C24.9491 53.7086 21.4853 50.2617 17.2404 50.2617C12.9955 50.2617 9.54871 53.7086 9.54871 57.9534C9.54871 60.1608 10.4826 62.1643 11.9938 63.5567C8.42807 65.4584 6 69.2108 6 73.5236C6 74.3047 6.23771 75.4762 7.4093 76.5459C9.46381 78.4137 13.5049 79.1778 17.2744 79.1778C18.1064 79.1778 18.9044 79.1438 19.6855 79.0759C20.6193 78.991 21.2985 78.159 21.2136 77.2251C21.1287 76.2913 20.3477 75.6121 19.3798 75.697C15.3557 76.0535 11.1108 75.3234 9.70153 74.033C9.3959 73.7443 9.3959 73.5745 9.3959 73.5236C9.3959 69.1938 12.9105 65.6621 17.2404 65.6451H17.2744C19.6006 65.6451 21.8079 66.6639 23.3021 68.4467C23.9134 69.1599 24.9831 69.2618 25.6962 68.6505C26.4263 68.0392 26.5112 66.9695 25.9 66.2564ZM17.2744 62.2494C17.2574 62.2494 17.2574 62.2494 17.2404 62.2494C14.8633 62.2494 12.9446 60.3307 12.9446 57.9536C12.9446 55.5934 14.8633 53.6578 17.2404 53.6578C19.6175 53.6578 21.5532 55.5934 21.5532 57.9536C21.5532 60.3137 19.6345 62.2323 17.2744 62.2494Z" fill="#171D34"/>
<path id="Vector_4" d="M21.5542 57.9521C21.5542 60.3122 19.6355 62.2309 17.2753 62.2479C17.2583 62.2479 17.2583 62.2479 17.2414 62.2479C14.8642 62.2479 12.9456 60.3292 12.9456 57.9521C12.9456 55.5919 14.8642 53.6562 17.2414 53.6562C19.6185 53.6562 21.5542 55.5919 21.5542 57.9521Z" fill="#73C3FD"/>
<path id="Vector_5" d="M70.0941 66.2564C69.1262 65.1188 67.9716 64.2019 66.6812 63.5567C68.1924 62.1643 69.1262 60.1608 69.1262 57.9534C69.1262 53.7086 65.6794 50.2617 61.4345 50.2617C57.1727 50.2617 53.7258 53.7086 53.7258 57.9534C53.7258 60.1608 54.6597 62.1643 56.1709 63.5567C52.6052 65.4584 50.1771 69.2108 50.1771 73.5236C50.1771 74.3047 50.4148 75.4762 51.6034 76.5459C53.6409 78.4137 57.699 79.1778 61.4515 79.1778C62.2835 79.1778 63.0985 79.1438 63.8626 79.0759C64.7965 78.991 65.4926 78.159 65.4077 77.2251C65.3228 76.2913 64.5078 75.6121 63.557 75.697C59.5498 76.0535 55.2879 75.3234 53.8787 74.033C53.573 73.7443 53.573 73.5745 53.573 73.5236C53.573 69.1769 57.0878 65.6621 61.4345 65.6451H61.4515C63.7947 65.6451 65.985 66.6639 67.4962 68.4467C68.1075 69.1599 69.1772 69.2618 69.8903 68.6505C70.6034 68.0392 70.6883 66.9695 70.0941 66.2564ZM61.4515 62.2494H61.4345C59.0574 62.2494 57.1217 60.3307 57.1217 57.9536C57.1217 55.5934 59.0574 53.6578 61.4345 53.6578C63.7947 53.6578 65.7303 55.5934 65.7303 57.9536C65.7303 60.3307 63.8116 62.2323 61.4515 62.2494Z" fill="#171D34"/>
<path id="Vector_6" d="M65.7313 57.9521C65.7313 60.3292 63.8126 62.2309 61.4524 62.2479H61.4355C59.0583 62.2479 57.1227 60.3292 57.1227 57.9521C57.1227 55.5919 59.0583 53.6562 61.4355 53.6562C63.7956 53.6562 65.7313 55.5919 65.7313 57.9521Z" fill="#73C3FD"/>
<path id="Vector_7" d="M58.4458 14.9274L42.8586 2.26073C40.7701 0.579758 37.9685 0.579758 35.88 2.26073L20.4117 14.8255C19.6816 15.4198 19.5628 16.4895 20.157 17.2196C20.7513 17.9498 21.821 18.0686 22.5511 17.4743L24.2321 16.116V30.4976C24.2321 32.9766 26.2527 34.9972 28.7317 34.9972H50.1088C52.6048 34.9972 54.6254 32.9766 54.6254 30.4976V16.2009L56.3064 17.5592C56.629 17.8139 57.0025 17.9328 57.3761 17.9328C57.8685 17.9328 58.3609 17.729 58.7005 17.3045C59.2778 16.5744 59.1759 15.5047 58.4458 14.9274ZM42.2304 31.6013H36.6102V24.351H42.2304V31.6013ZM51.2295 30.4976C51.2295 31.1089 50.7371 31.6013 50.1088 31.6013H45.6263V22.6531C45.6263 21.7192 44.8792 20.9551 43.9283 20.9551H34.9122C33.9783 20.9551 33.2143 21.7192 33.2143 22.6531V31.6013H28.7317C28.1204 31.6013 27.628 31.1089 27.628 30.4976V13.3483L38.0195 4.90952C38.8514 4.23035 39.8872 4.23035 40.7192 4.90952L51.2295 13.4332V30.4976Z" fill="#171D34"/>
<path id="Vector_8" d="M36.6166 24.3516H42.2368V31.6018H36.6166V24.3516Z" fill="#F6BD3D"/>
<path id="Vector_9" d="M40.7247 4.90782C39.8927 4.22864 38.857 4.22864 38.025 4.90782L27.6335 13.3466V30.4959C27.6335 31.1072 28.1259 31.5996 28.7372 31.5996H33.2198V22.6514C33.2198 21.7175 33.9839 20.9534 34.9177 20.9534H43.9338C44.8847 20.9534 45.6318 21.7175 45.6318 22.6514V31.5996H50.1144C50.7426 31.5996 51.235 31.1072 51.235 30.4959V13.4315L40.7247 4.90782ZM45.1054 17.0481C44.4432 17.7103 43.3735 17.7103 42.7113 17.0481L39.4343 13.7541L36.1571 17.0481C35.8175 17.3877 35.393 17.5575 34.9515 17.5575C34.5101 17.5575 34.0856 17.3877 33.746 17.0651C33.0838 16.4029 33.0838 15.3162 33.746 14.654L38.2286 10.1545C38.5512 9.83187 38.9757 9.66208 39.4341 9.66208C39.8926 9.66208 40.317 9.83187 40.6397 10.1545L45.1222 14.654C45.7846 15.3162 45.7676 16.3859 45.1054 17.0481Z" fill="#73C3FD"/>
<path id="Vector_10" d="M45.104 17.0501C44.4418 17.7123 43.3721 17.7123 42.7099 17.0501L39.4329 13.7561L36.1557 17.0501C35.8161 17.3897 35.3916 17.5595 34.9501 17.5595C34.5087 17.5595 34.0842 17.3897 33.7446 17.0671C33.0824 16.4049 33.0824 15.3182 33.7446 14.656L38.2272 10.1565C38.5498 9.83386 38.9743 9.66406 39.4327 9.66406C39.8911 9.66406 40.3156 9.83386 40.6382 10.1565L45.1208 14.656C45.7832 15.3182 45.7662 16.3879 45.104 17.0501Z" fill="#171D34"/>
<path id="Vector_11" d="M63.0553 45.526V46.8674C63.0553 47.8012 62.3082 48.5653 61.3574 48.5653C60.4235 48.5653 59.6594 47.8012 59.6594 46.8674V45.526C59.6594 44.3884 58.7425 43.4715 57.6219 43.4715H21.099C19.9784 43.4715 19.0445 44.3884 19.0445 45.526V46.8674C19.0445 47.8012 18.2974 48.5653 17.3466 48.5653C16.4127 48.5653 15.6486 47.8012 15.6486 46.8674V45.526C15.6486 42.5206 18.0937 40.0756 21.099 40.0756H37.7389V38.3776C37.7389 37.4438 38.503 36.6797 39.4369 36.6797C40.3707 36.6797 41.1348 37.4438 41.1348 38.3776V40.0756H57.6219C60.6103 40.0756 63.0553 42.5206 63.0553 45.526Z" fill="#171D34"/>
</g>
</g>
</svg>
