<svg width="48" height="48" viewBox="0 0 48 48" fill="none" xmlns="http://www.w3.org/2000/svg">
<g clip-path="url(#clip0_1807_55052)">
<path d="M2.51475 40.3249C2.51475 40.3249 1.74508 45.9339 6.27303 47.2724H19.4132C23.9411 45.9338 23.1715 40.3249 23.1715 40.3249L13.0369 36.9141L2.51475 40.3249Z" fill="#FCD0A3"/>
<path d="M14.4479 36.9142H11.2382C9.80072 36.9142 8.63538 35.7488 8.63538 34.3113V30.4141H17.0509V34.3113C17.0509 35.7488 15.8855 36.9142 14.4479 36.9142Z" fill="#FCD0A3"/>
<path d="M22.7702 25.4948H22.784C23.9778 25.4948 24.9451 24.5267 24.9451 23.3337C24.9451 22.1399 23.9778 21.1719 22.784 21.1719C22.7685 21.1719 22.753 21.1719 22.7374 21.1727H2.94876C2.9332 21.1719 2.91772 21.1719 2.90216 21.1719C1.70841 21.1719 0.741089 22.1399 0.741089 23.3337C0.741089 24.5266 1.70841 25.4948 2.90216 25.4948H2.91604" fill="#FCD0A3"/>
<path d="M17.0509 32.5156C17.0509 32.5156 23.1713 33.2852 23.1713 36.2184C23.1713 39.1516 23.1713 40.3258 23.1713 40.3258H19.4131V47.2734H6.27298V40.3259H2.51471C2.51471 40.3259 2.51471 39.1517 2.51471 36.2185C2.51471 33.2853 8.63526 32.5156 8.63526 32.5156" fill="#73C3FD"/>
<path d="M17.0505 33.9922V34.3148C17.0505 35.7525 15.8857 36.9174 14.4479 36.9174H13.0374C11.6006 36.9174 10.4348 35.7525 10.4348 34.3148V34.0531C12.6398 34.1084 14.8457 34.0878 17.0505 33.9922Z" fill="#FCD0A3"/>
<path d="M17.0508 30.4141V33.9892L17.0499 33.9883C14.8449 34.0839 12.6391 34.1045 10.4342 34.0492V34.3109C10.4342 35.7486 11.6 36.9135 13.0367 36.9135H11.238C9.80119 36.9135 8.63538 35.7486 8.63538 34.3109V30.4141H17.0508Z" fill="#FCD0A3"/>
<path d="M22.2732 15.5274C15.9866 14.918 9.69986 14.918 3.41326 15.5274C2.92543 19.4361 2.7817 23.345 2.98216 27.2538C3.12805 30.0992 5.40491 32.364 8.2509 32.4984C11.3123 32.643 14.3739 32.643 17.4353 32.4984C20.2813 32.364 22.5582 30.0992 22.7041 27.2538C22.9046 23.345 22.761 19.4361 22.2732 15.5274Z" fill="#FCD0A3"/>
<path d="M22.6845 19.4223C20.6774 21.4303 16.7028 17.4153 16.7028 17.4153C16.8153 18.1421 16.6109 18.8502 15.823 19.413C15.265 19.8115 14.6338 19.987 13.9802 20.0132C11.3607 20.1182 8.39143 17.8148 8.39143 17.8148C7.86244 19.2694 6.3019 19.2403 5.00857 18.9215C3.81839 18.6279 2.813 17.8401 2.23909 16.7569C1.25246 14.8952 -0.0849326 11.7459 1.27871 10.3823C3.27636 8.38464 5.75415 10.3823 5.75415 10.3823C5.75415 10.3823 8.16069 9.4791 11.2322 8.83947C11.2331 8.83947 11.235 8.83853 11.2359 8.83853C14.9114 8.07326 19.5379 7.68313 22.1366 9.66381C24.819 11.7084 24.6924 17.4153 22.6845 19.4223Z" fill="#171D34"/>
<path d="M42.2595 27.2539C46.5635 27.2539 46.6858 32.6498 47.2968 34.3608C47.2968 34.3608 42.6703 33.5579 41.2253 30.2011" fill="#F6BD3D"/>
<path d="M22.0699 40.3249C22.0699 40.3249 21.3003 45.9339 25.8282 47.2724H38.9684C43.4963 45.9338 42.7266 40.3249 42.7266 40.3249L32.592 36.9141L22.0699 40.3249Z" fill="#FCD0A3"/>
<path d="M34.0032 36.9142H30.7935C29.356 36.9142 28.1906 35.7488 28.1906 34.3113V30.4141H36.6061V34.3113C36.6061 35.7488 35.4408 36.9142 34.0032 36.9142Z" fill="#FCD0A3"/>
<path d="M42.3253 25.4948H42.3392C43.533 25.4948 44.5003 24.5267 44.5003 23.3337C44.5003 22.1399 43.533 21.1719 42.3392 21.1719C42.3237 21.1719 42.3082 21.1719 42.2926 21.1727H22.5039C22.4884 21.1719 22.4729 21.1719 22.4573 21.1719C21.2636 21.1719 20.2963 22.1399 20.2963 23.3337C20.2963 24.5266 21.2636 25.4948 22.4573 25.4948H22.4712" fill="#FCD0A3"/>
<path d="M42.7269 36.2182V40.3258H38.9681V47.2734H25.8286V40.3258H22.0698C22.0698 40.3258 22.0698 39.1519 22.0698 36.2182C22.0698 33.2854 28.1904 32.5156 28.1904 32.5156H36.6063C36.6063 32.5156 42.7269 33.2854 42.7269 36.2182Z" fill="#73C3FD"/>
<path d="M28.7342 47.2734H25.8286V40.3258H22.0698C22.0698 40.3258 22.0698 39.1519 22.0698 36.2182C22.0698 33.2854 28.1904 32.5156 28.1904 32.5156H29.5996L29.6671 32.5681C28.1904 32.5681 26.1689 37.3818 28.7342 47.2734Z" fill="#046B74"/>
<path d="M36.6058 33.9922V34.3148C36.6058 35.7525 35.441 36.9174 34.0032 36.9174H32.5926C31.1559 36.9174 29.9901 35.7526 29.9901 34.3148V34.0531C32.195 34.1085 34.4009 34.0879 36.6058 33.9922Z" fill="#FCD0A3"/>
<path d="M36.606 30.418V33.9931L36.6051 33.9922C34.4001 34.0878 32.1943 34.1085 29.9894 34.0531V34.3148C29.9894 35.7525 31.1552 36.9174 32.592 36.9174H30.7932C29.3564 36.9174 28.1906 35.7525 28.1906 34.3148V30.418H36.606Z" fill="#FCD0A3"/>
<path d="M41.8283 15.5274C35.5417 14.918 29.255 14.918 22.9684 15.5274C22.4805 19.4361 22.3368 23.345 22.5373 27.2538C22.6832 30.0992 24.9601 32.364 27.806 32.4984C30.8675 32.643 33.929 32.643 36.9905 32.4984C39.8364 32.364 42.1133 30.0992 42.2592 27.2538C42.4598 23.345 42.3162 19.4362 41.8283 15.5274Z" fill="#FCD0A3"/>
<path d="M42.2268 19.8222C42.2268 19.8222 35.0653 19.4893 32.3989 15.0692C31.267 16.9477 29.3228 18.0872 27.4611 18.7765C24.9401 19.7125 22.571 19.8222 22.571 19.8222C22.571 19.8222 19.1863 8.81641 32.3988 8.81641C45.6114 8.81641 42.2268 19.8222 42.2268 19.8222Z" fill="#F6BD3D"/>
<path d="M26.0506 26.5094C27.0378 26.5094 27.8381 26.14 27.8381 25.6844C27.8381 25.2287 27.0378 24.8594 26.0506 24.8594C25.0634 24.8594 24.2632 25.2287 24.2632 25.6844C24.2632 26.14 25.0634 26.5094 26.0506 26.5094Z" fill="#EC6161"/>
<path d="M38.7461 26.5094C39.7333 26.5094 40.5336 26.14 40.5336 25.6844C40.5336 25.2287 39.7333 24.8594 38.7461 24.8594C37.7589 24.8594 36.9587 25.2287 36.9587 25.6844C36.9587 26.14 37.7589 26.5094 38.7461 26.5094Z" fill="#EC6161"/>
<path d="M23.1819 13.3865C15.4858 9.39978 14.4545 2.66932 17.9751 1.05468C21.4573 -0.541955 23.1819 4.20717 23.1819 4.20717C23.1819 4.20717 24.9061 -0.541862 28.3882 1.05468C28.576 1.14057 28.7505 1.24155 28.9118 1.35537C28.9123 1.35584 28.9132 1.35631 28.9142 1.35678C28.9379 1.37337 28.9607 1.39044 28.9834 1.40703C31.7579 3.48381 30.406 9.64403 23.1819 13.3865Z" fill="#307FF4"/>
<path d="M30.7752 41.69H30.786C31.7231 41.69 32.4822 40.9301 32.4822 39.9937C32.4822 39.0567 31.723 38.2969 30.786 38.2969C30.7738 38.2969 30.7617 38.2969 30.7495 38.2975H13.3419C13.3297 38.2969 13.3175 38.2969 13.3053 38.2969C12.3683 38.2969 11.6091 39.0567 11.6091 39.9937C11.6091 40.9301 12.3684 41.69 13.3053 41.69H13.3162" fill="#FCD0A3"/>
<path d="M29.4475 33.8666C24.513 33.3882 19.5786 33.3882 14.6441 33.8666C14.2612 36.9347 14.1484 40.0027 14.3057 43.0707C14.4203 45.3041 16.2075 47.0818 18.4413 47.1872C20.8443 47.3007 23.2473 47.3007 25.6503 47.1872C27.8841 47.0818 29.6713 45.3041 29.7859 43.0707C29.9432 40.0027 29.8304 36.9347 29.4475 33.8666Z" fill="#FCD0A3"/>
<path d="M29.7601 37.2401C29.7601 37.2401 24.1389 36.9788 22.0461 33.5094C21.1576 34.9839 19.6316 35.8783 18.1704 36.4194C16.1917 37.1541 14.3321 37.2401 14.3321 37.2401C14.3321 37.2401 11.6754 28.6016 22.0461 28.6016C32.4168 28.6016 29.7601 37.2401 29.7601 37.2401Z" fill="#F6BD3D"/>
<path d="M12.8432 28.1932C13.973 28.1932 15.016 27.5335 15.5005 26.5126C15.667 26.1618 15.5176 25.7424 15.1666 25.5759C14.8157 25.4095 14.3964 25.5588 14.2299 25.9098C13.977 26.4426 13.4327 26.7868 12.8432 26.7868C12.2536 26.7868 11.7092 26.4425 11.4564 25.9097C11.2899 25.5588 10.8706 25.4094 10.5196 25.5759C10.1688 25.7424 10.0193 26.1618 10.1858 26.5126C10.6704 27.5336 11.7134 28.1932 12.8432 28.1932Z" fill="#171D34"/>
<path d="M8.24161 23.9144C8.74001 23.9144 9.14405 23.3136 9.14405 22.5725C9.14405 21.8313 8.74001 21.2305 8.24161 21.2305C7.74321 21.2305 7.33917 21.8313 7.33917 22.5725C7.33917 23.3136 7.74321 23.9144 8.24161 23.9144Z" fill="#171D34"/>
<path d="M17.4447 23.9144C17.9424 23.9144 18.3471 23.3124 18.3471 22.5725C18.3471 21.8325 17.9423 21.2305 17.4447 21.2305C16.9471 21.2305 16.5422 21.8325 16.5422 22.5725C16.5422 23.3124 16.947 23.9144 17.4447 23.9144Z" fill="#171D34"/>
<path d="M34.7218 25.5759C34.3709 25.4095 33.9515 25.5589 33.785 25.9097C33.5321 26.4425 32.9878 26.7868 32.3983 26.7868C31.8087 26.7868 31.2643 26.4425 31.0115 25.9097C30.845 25.5589 30.4256 25.4093 30.0747 25.5759C29.7239 25.7424 29.5744 26.1619 29.7409 26.5127C30.2254 27.5335 31.2685 28.1931 32.3983 28.1931C33.5281 28.1931 34.5711 27.5334 35.0556 26.5126C35.2221 26.1618 35.0727 25.7424 34.7218 25.5759Z" fill="#171D34"/>
<path d="M27.7968 23.9144C28.2952 23.9144 28.6992 23.3136 28.6992 22.5725C28.6992 21.8313 28.2952 21.2305 27.7968 21.2305C27.2984 21.2305 26.8943 21.8313 26.8943 22.5725C26.8943 23.3136 27.2984 23.9144 27.7968 23.9144Z" fill="#171D34"/>
<path d="M36.9999 21.2305C36.5022 21.2305 36.0974 21.8325 36.0974 22.5725C36.0974 23.3124 36.5022 23.9144 36.9999 23.9144C37.4976 23.9144 37.9023 23.3124 37.9023 22.5725C37.9023 21.8325 37.4975 21.2305 36.9999 21.2305Z" fill="#171D34"/>
<path d="M47.9591 34.1261C47.8569 33.8399 47.7619 33.3946 47.6519 32.8791C47.397 31.6843 47.0797 30.1973 46.3403 28.9387C45.5423 27.5803 44.4175 26.7983 42.9918 26.603C42.9984 26.4416 43.0045 26.2802 43.0099 26.1186C44.2668 25.8159 45.2036 24.6829 45.2036 23.3344C45.2036 21.9703 44.2454 20.8266 42.9671 20.5395C42.9568 20.3297 42.9456 20.1201 42.9332 19.9109C43.1011 19.2979 43.7623 16.5251 42.837 13.7926C42.7124 13.4247 42.3131 13.2276 41.9455 13.352C41.5777 13.4766 41.3804 13.8757 41.5049 14.2435C42.1485 16.144 41.8783 18.1359 41.6857 19.0719C39.9933 18.8834 35.0188 18.0537 33.0014 14.7087C32.8742 14.4977 32.6458 14.3687 32.3993 14.3687C32.1529 14.3687 31.9245 14.4976 31.7972 14.7086C29.7792 18.0536 24.8043 18.8834 23.1122 19.0719C22.9139 18.1069 22.6346 16.0218 23.3557 14.0694C23.407 14.0563 23.4572 14.0378 23.5052 14.013C25.8777 12.7839 27.5941 11.3373 28.783 9.87461C29.8495 9.6418 31.0634 9.52226 32.3993 9.52226C36.0379 9.52226 38.673 10.3806 40.2313 12.0734C40.3699 12.2239 40.5591 12.3003 40.7488 12.3003C40.919 12.3003 41.0898 12.2389 41.2249 12.1144C41.5106 11.8513 41.5291 11.4065 41.266 11.1208C39.4304 9.12678 36.4472 8.11576 32.3993 8.11576C31.5132 8.11576 30.6744 8.16649 29.8868 8.26372C30.7164 6.79516 31.0512 5.38613 31.0239 4.24695C30.9813 2.47639 30.1275 1.08058 28.6815 0.417421C27.6301 -0.0646927 26.608 -0.104541 25.6431 0.299189C24.5056 0.775115 23.6926 1.78913 23.1817 2.63147C22.6708 1.78913 21.8578 0.775115 20.7203 0.299189C19.7555 -0.104541 18.7333 -0.0647864 17.6819 0.417421C16.2358 1.08058 15.382 2.47639 15.3395 4.24695C15.3145 5.28703 15.5763 6.40765 16.0892 7.5187C11.7597 7.63309 7.17209 9.1355 5.8647 9.59445C4.70574 8.83237 2.53098 8.13489 0.781418 9.88464C-0.827408 11.4935 0.348528 14.6886 1.61813 17.0854C1.83715 17.4994 2.11178 17.8755 2.42962 18.2072C2.36474 18.9824 2.31317 19.76 2.27511 20.5389C0.996597 20.8259 0.0380894 21.9697 0.0380894 23.3339C0.0380894 24.6818 0.974188 25.8144 2.2302 26.1178C2.24342 26.5096 2.26001 26.9008 2.27998 27.2914C2.39662 29.5745 3.71638 31.5156 5.62327 32.5056C5.52689 32.5382 5.43022 32.572 5.33337 32.6073C3.7266 33.1944 1.81118 34.2976 1.81118 36.219C1.81118 36.219 1.65095 41.9449 2.01192 43.4616C2.56004 45.7646 3.95528 47.3126 6.04735 47.9407C6.11832 47.9647 6.19408 47.9784 6.27322 47.9784L38.9684 47.9781C39.0375 47.9781 39.1042 47.9677 39.1672 47.9491C39.1672 47.9491 39.1792 47.9456 39.1825 47.9446C41.281 47.3188 42.6804 45.7693 43.2295 43.4619C43.5923 41.9376 43.4298 36.2198 43.4298 36.2198C43.4298 34.2981 41.5145 33.195 39.9077 32.608C39.8108 32.5726 39.7139 32.5387 39.6175 32.5061C40.1644 32.2222 40.6629 31.8604 41.0986 31.4341C43.0145 34.3007 46.9915 35.0232 47.1766 35.0553C47.2168 35.0623 47.257 35.0656 47.2969 35.0656C47.5023 35.0656 47.6999 34.9755 47.8348 34.8154C47.9959 34.6241 48.0432 34.3616 47.9591 34.1261ZM43.7971 23.3343C43.7971 23.8826 43.4926 24.3607 43.0441 24.6096C43.0537 23.7543 43.0464 22.8995 43.0237 22.0472C43.4834 22.2928 43.7971 22.7775 43.7971 23.3343ZM21.7725 22.0474C21.7498 22.9006 21.7425 23.7554 21.7521 24.6093C21.3039 24.3604 20.9994 23.8824 20.9994 23.3343C20.9995 22.7777 21.3131 22.2932 21.7725 22.0474ZM18.2682 1.69584C18.6529 1.51947 19.0174 1.43143 19.3681 1.43143C19.6442 1.43143 19.9118 1.4861 20.1739 1.59514C21.6903 2.22652 22.513 4.42809 22.5208 4.44919C22.6218 4.72728 22.886 4.91236 23.1818 4.91236C23.4776 4.91236 23.7418 4.72719 23.8428 4.44919C24.0657 3.83525 24.9212 2.12582 26.186 1.59664C26.7817 1.34742 27.4062 1.37987 28.0953 1.69584C29.0477 2.13257 29.5885 3.05057 29.618 4.2807C29.6492 5.57675 29.1063 7.06509 28.0894 8.4714C26.9507 10.046 25.2589 11.4658 23.1819 12.5926C21.1048 11.4658 19.4129 10.0461 18.2743 8.4714C17.2574 7.065 16.7145 5.57675 16.7456 4.2807C16.775 3.05057 17.3157 2.13257 18.2682 1.69584ZM1.77574 10.8792C3.2955 9.3594 5.23258 10.8661 5.31218 10.9294C5.50579 11.0855 5.76757 11.1279 6.00056 11.0405C6.06066 11.0179 11.9242 8.84165 16.8755 8.9206C16.9589 9.04624 17.0445 9.1715 17.1344 9.29564C18.3072 10.9176 19.9928 12.3811 22.0417 13.5651C21.2195 15.7706 21.4741 18.0421 21.7046 19.2186C20.3336 19.6465 17.9862 17.7091 17.2028 16.9194C16.9885 16.7029 16.6591 16.6489 16.3869 16.7858C16.1147 16.9228 15.9617 17.2195 16.0079 17.5206C16.0935 18.079 15.9106 18.4858 15.4147 18.8399C14.2419 19.678 12.5626 19.2411 11.3603 18.7273C9.9472 18.1233 8.83295 17.2671 8.82227 17.2589C8.64468 17.1211 8.41197 17.0764 8.19614 17.1388C7.98021 17.2012 7.80713 17.3629 7.73034 17.5742C7.62355 17.8678 7.29857 18.7614 5.17623 18.238C4.18443 17.9942 3.34069 17.3345 2.86101 16.4278C1.42264 13.7122 1.01694 11.638 1.77574 10.8792ZM1.4443 23.3341C1.4443 22.7769 1.7584 22.2922 2.21857 22.0466C2.19579 22.9013 2.18875 23.7562 2.19832 24.61C1.7493 24.3613 1.4443 23.8828 1.4443 23.3341ZM3.68441 27.2197C3.5479 24.5594 3.57443 21.8672 3.76195 19.1993C4.10211 19.3735 4.46299 19.5107 4.84 19.6033C6.96198 20.1267 8.05634 19.5364 8.61881 18.8344C9.66095 19.5213 11.7705 20.7185 13.8134 20.7184C14.6577 20.7184 15.4908 20.5138 16.2321 19.9842C16.6938 19.6545 17.0256 19.2603 17.2222 18.8138C17.5748 19.0982 17.9989 19.4132 18.4613 19.7015C19.6678 20.4536 20.624 20.7021 21.3718 20.6834C20.3293 21.1122 19.5931 22.1386 19.5931 23.3342C19.5931 24.6826 20.5299 25.8156 21.7866 26.1184C21.7999 26.5101 21.8153 26.9015 21.8354 27.2919C21.8459 27.4962 21.8666 27.6993 21.8967 27.9004C18.4346 27.9277 15.9705 28.8996 14.5729 30.7918C14.3092 31.1488 14.0978 31.5206 13.9286 31.8979C12.0525 31.9188 10.1563 31.8854 8.28455 31.7973C5.78942 31.6799 3.81174 29.7119 3.68441 27.2197ZM35.9031 33.2485V34.314C35.9031 35.3614 35.051 36.2135 34.0035 36.2135H30.7932C30.7565 36.2135 30.7205 36.2107 30.6843 36.2088C30.7865 35.4392 30.833 34.3916 30.6076 33.2929C31.2013 33.3037 31.7962 33.3112 32.3921 33.3112C33.5627 33.3113 34.7356 33.2902 35.9031 33.2485ZM30.5378 39.002H30.7857C31.3337 39.002 31.7796 39.4478 31.7796 39.9958C31.7796 40.5433 31.3337 40.9887 30.7857 40.9887H30.5535C30.5609 40.3257 30.5552 39.6629 30.5378 39.002ZM29.0893 37.8878C29.1727 39.5934 29.1713 41.3226 29.0837 43.0373C28.9871 44.9157 27.4968 46.3989 25.6172 46.4875C23.2471 46.5992 20.8439 46.5992 18.4745 46.4875C16.5942 46.3989 15.104 44.9158 15.0081 43.0373C14.9201 41.3286 14.9185 39.599 15.0019 37.8868C15.597 37.8172 16.5493 37.6672 17.6065 37.3506C19.5246 36.7762 21.0381 35.8701 22.045 34.7029C24.0812 37.0777 27.637 37.7205 29.0893 37.8878ZM13.5377 40.9888H13.3051C12.7577 40.9888 12.3122 40.5434 12.3122 39.9959C12.3122 39.4479 12.7576 39.0021 13.3051 39.0021H13.5534C13.536 39.6638 13.5304 40.3266 13.5377 40.9888ZM9.33813 33.2482C10.5085 33.2898 11.6849 33.3109 12.8568 33.3109C13.065 33.3109 13.2729 33.3098 13.4806 33.3084C13.2588 34.4029 13.3061 35.4471 13.4084 36.2135H11.2377C10.1903 36.2135 9.33813 35.3614 9.33813 34.314V33.2482ZM3.38907 43.1736C3.18617 42.3416 3.15898 41.5492 3.17192 41.0301H5.56992V46.2286C4.47181 45.6319 3.73917 44.6092 3.38907 43.1736ZM6.27312 39.6237H3.21749V36.2193C3.21749 34.6164 6.17196 33.6964 7.93173 33.3464V34.3141C7.93173 36.1369 9.41483 37.62 11.2377 37.62H12.9662C11.8032 37.7853 10.9058 38.7875 10.9058 39.9959C10.9058 41.3189 11.9821 42.3952 13.3051 42.3952H13.5717C13.5807 42.6336 13.5912 42.8716 13.6034 43.1093C13.6736 44.4846 14.2832 45.7066 15.2265 46.5722H6.97632V40.3269C6.97632 39.9385 6.66148 39.6237 6.27312 39.6237ZM41.8614 43.1364C41.515 44.5916 40.7794 45.627 39.6716 46.2289V41.0306H42.0706C42.0837 41.5395 42.0574 42.3127 41.8614 43.1364ZM42.0234 36.22V39.6243H38.9684C38.5801 39.6243 38.2652 39.9392 38.2652 40.3275V46.5718H28.8649C29.8079 45.7064 30.4175 44.4844 30.4882 43.1093C30.5004 42.8715 30.5107 42.6335 30.5197 42.3952H30.7857C32.1092 42.3952 33.186 41.3189 33.186 39.9959C33.186 38.7875 32.2882 37.7853 31.1247 37.62H34.0035C35.8264 37.62 37.3095 36.1369 37.3095 34.3141V33.3462C39.0693 33.6945 42.0234 34.6128 42.0234 36.22ZM36.9575 31.7974C34.7004 31.9041 32.4143 31.9304 30.1543 31.8779C30.0324 31.6086 29.8887 31.3422 29.7198 31.0819C29.5083 30.7561 29.0728 30.6636 28.7471 30.8749C28.4214 31.0865 28.3287 31.5219 28.5402 31.8477C29.598 33.477 29.3945 35.5211 29.2139 36.4845C27.795 36.3134 24.1515 35.6388 22.6486 33.1466C22.5213 32.9355 22.2928 32.8065 22.0464 32.8065C21.8 32.8065 21.5716 32.9355 21.4443 33.1466C19.9461 35.6308 16.2989 36.3102 14.8789 36.4835C14.6899 35.4738 14.4768 33.282 15.7095 31.6202C16.8489 30.0843 18.9809 29.3055 22.0464 29.3055C23.9692 29.3055 25.5405 29.6165 26.7169 30.23C27.0613 30.4097 27.486 30.276 27.6656 29.9316C27.8452 29.5872 27.7116 29.1625 27.3672 28.983C26.2736 28.4126 24.9206 28.0662 23.3348 27.9468C23.286 27.7084 23.2528 27.4656 23.2401 27.2196C23.1249 24.9818 23.1262 22.7164 23.2409 20.4759C24.9797 20.2934 29.7995 19.5074 32.3994 16.2929C34.9978 19.5065 39.8151 20.2929 41.5553 20.4758C41.6702 22.708 41.6718 24.9734 41.5569 27.2197C41.4288 29.7119 39.4516 31.6799 36.9575 31.7974ZM42.0359 30.2648C42.4539 29.5899 42.7458 28.8274 42.882 28.0093C45.0627 28.3681 45.7384 30.651 46.2764 33.1725C46.2913 33.2424 46.306 33.311 46.3205 33.3784C45.0448 32.9646 42.9932 32.0497 42.0359 30.2648Z" fill="#171D34"/>
<path d="M21.0939 41.9527C20.9274 41.6018 20.508 41.4523 20.1571 41.6189C19.8062 41.7854 19.6567 42.2049 19.8233 42.5558C20.2285 43.4095 21.1008 43.9612 22.0458 43.9612C22.9907 43.9612 23.863 43.4095 24.2682 42.5558C24.4348 42.2049 24.2853 41.7855 23.9345 41.6189C23.5834 41.4525 23.1641 41.6018 22.9976 41.9527C22.8241 42.3184 22.4504 42.5547 22.0458 42.5547C21.6411 42.5547 21.2675 42.3184 21.0939 41.9527Z" fill="#171D34"/>
<path d="M18.4339 40.4568C18.828 40.4568 19.1474 39.9829 19.1474 39.3983C19.1474 38.8137 18.828 38.3398 18.4339 38.3398C18.0399 38.3398 17.7205 38.8137 17.7205 39.3983C17.7205 39.9829 18.0399 40.4568 18.4339 40.4568Z" fill="#171D34"/>
<path d="M25.6576 40.4568C26.0509 40.4568 26.371 39.982 26.371 39.3983C26.371 38.8146 26.0509 38.3398 25.6576 38.3398C25.2642 38.3398 24.9442 38.8146 24.9442 39.3983C24.9442 39.982 25.2642 40.4568 25.6576 40.4568Z" fill="#171D34"/>
</g>
<defs>
<clipPath id="clip0_1807_55052">
<rect width="48" height="48" fill="white"/>
</clipPath>
</defs>
</svg>
