<svg width="300" height="300" viewBox="0 0 300 300" fill="none" xmlns="http://www.w3.org/2000/svg">
<g clip-path="url(#clip0_1276_49614)">
<path d="M272.657 32.1333C258.375 14.301 235.225 9.83686 220.429 6.98366C162.107 -4.26284 91.053 -9.64616 34.6734 53.2819C21.8453 67.5998 -21.6669 157.063 13.3344 225.413C44.2762 285.835 122.053 306.399 180.353 297.516C228.652 290.157 286.583 259.497 297.684 215.376C304.665 187.632 287.233 180.945 283.222 122.882C279.75 72.6275 290.126 53.9451 272.657 32.1333Z" fill="#99C1FB"/>
<path d="M145.395 15.4862C124.306 -1.4546 81.8829 13.023 77.1797 41.4036L73.1566 41.6698C72.345 41.7234 71.947 42.6844 72.4831 43.2961L84.7573 57.3069C85.2019 57.8142 86.014 57.7323 86.3482 57.1466L95.1429 41.7416C95.5308 41.062 95.0065 40.2237 94.2254 40.2753L89.802 40.5681C94.2687 16.9488 121.371 10.2205 135.65 18.175C136.308 18.5417 137.076 18.6531 137.808 18.474L145.127 16.6824C145.676 16.5482 145.835 15.8399 145.395 15.4862Z" fill="#307FF4"/>
<path d="M34.8859 266.591L54.4509 266.714C54.5777 266.714 54.6193 266.832 54.6193 266.945V283.591C54.6193 285.185 65.7355 289.325 65.844 289.115L65.8576 290.876C65.8584 291.204 65.5701 291.495 65.2024 291.495H64.958C64.9564 291.495 64.9549 291.495 64.9531 291.495H48.5489C47.7877 291.495 47.0358 291.325 46.3467 291.036L37.3274 287.239C35.7038 286.555 34.6797 285.087 34.6797 283.485V266.822C34.6797 266.709 34.7593 266.591 34.8859 266.591Z" fill="#5B9AF8"/>
<path d="M56.6006 265.745V282.394C56.6006 284.035 57.6568 285.531 59.3165 286.239L65.4007 288.836C65.7982 289.006 65.6627 289.538 65.2221 289.538H48.5053C47.7535 289.538 47.0112 289.39 46.3314 289.104L39.5902 286.266C37.9182 285.562 36.8516 284.06 36.8516 282.411V265.745C36.8516 265.677 36.9135 265.621 36.99 265.621H56.4624C56.5385 265.621 56.6006 265.676 56.6006 265.745Z" fill="white"/>
<path d="M65.2214 290.08H48.5046C47.6865 290.08 46.8618 289.915 46.1203 289.603L39.3792 286.765C37.5139 285.979 36.3086 284.27 36.3086 282.411V265.744C36.3086 265.377 36.6138 265.079 36.9891 265.079H56.4615C56.8365 265.079 57.1417 265.377 57.1417 265.744V282.394C57.1417 283.808 58.0785 285.122 59.5285 285.74L65.6127 288.337C66.0203 288.512 66.2452 288.925 66.1595 289.343C66.0709 289.777 65.6849 290.08 65.2214 290.08ZM37.3926 266.163V282.411C37.3926 283.833 38.3376 285.15 39.7999 285.766L46.541 288.604C47.1506 288.861 47.8297 288.996 48.5048 288.996H64.3956L59.103 286.737C57.2531 285.948 56.0578 284.243 56.0578 282.394V266.163L37.3926 266.163Z" fill="#171D34"/>
<path d="M93.0472 275.179L12.5992 275.354L11.2024 275.357L8.60529 275.363C7.86709 275.363 7.26077 274.787 7.16689 274.053L0.440525 221.486C0.276863 220.207 1.2092 219 2.49605 219L85.8457 219.075L93.0472 275.179Z" fill="#307FF4"/>
<path d="M5.57151 218.994C4.12067 218.994 2.94096 220.455 3.12674 221.898L9.90144 274.062C9.9958 274.796 10.6188 275.345 11.3565 275.345L11.9915 275.369L94.1116 275.345C94.9965 275.345 95.6799 274.565 95.5667 273.686L88.6554 220.46C88.5611 219.726 87.997 218.994 87.2593 218.994L5.57151 218.994Z" fill="white"/>
<path d="M11.991 275.911L11.335 275.886H11.3344C10.3481 275.886 9.49197 275.131 9.3632 274.131L2.5885 221.967C2.47562 221.09 2.76363 220.186 3.37863 219.487C3.95727 218.829 4.75625 218.451 5.57063 218.451H87.2584C88.3126 218.451 89.0695 219.437 89.192 220.39L96.1032 273.615C96.1773 274.191 96.0003 274.769 95.618 275.204C95.2367 275.637 94.6873 275.886 94.1108 275.886L11.991 275.911ZM5.57079 219.536C5.068 219.536 4.56555 219.779 4.19285 220.203C3.78935 220.661 3.59161 221.269 3.66369 221.828L10.4382 273.992C10.4979 274.454 10.8924 274.803 11.356 274.803L12.0118 274.827L94.1109 274.803C94.3801 274.803 94.6265 274.691 94.8044 274.488C94.9836 274.285 95.0634 274.024 95.0287 273.754L88.1175 220.53C88.0556 220.049 87.6958 219.536 87.2587 219.536H5.57079Z" fill="#171D34"/>
<path d="M9.32108 222.246C8.00163 222.246 6.92873 223.529 7.09764 224.796L13.2591 270.608C13.345 271.252 13.9117 271.735 14.5825 271.735L15.16 271.756L89.8472 271.735C90.6519 271.735 91.2736 271.05 91.1706 270.277L84.8847 223.533C84.7989 222.889 84.2859 222.246 83.6149 222.246H9.32108V222.246Z" fill="#5B9AF8"/>
<path d="M40.0859 247.386C41.4183 247.386 42.3621 246.305 42.194 244.973C42.0259 243.641 40.8095 242.561 39.4771 242.561C38.1447 242.561 37.2009 243.641 37.369 244.973C37.5371 246.305 38.7533 247.386 40.0859 247.386Z" fill="white"/>
<path d="M47.0371 247.386C48.3695 247.386 49.3133 246.305 49.1452 244.973C48.9771 243.641 47.7607 242.561 46.4283 242.561C45.0959 242.561 44.1521 243.641 44.3202 244.973C44.4882 246.305 45.7047 247.386 47.0371 247.386Z" fill="white"/>
<path d="M53.9902 247.386C55.3226 247.386 56.2664 246.305 56.0983 244.973C55.9302 243.641 54.7138 242.561 53.3814 242.561C52.049 242.561 51.1052 243.641 51.2733 244.973C51.4414 246.305 52.6576 247.386 53.9902 247.386Z" fill="white"/>
<path d="M233.474 148.064C233.474 129.474 225.42 101.793 186.629 103.474C188.815 79.932 167.585 47.5787 121.336 50.5361C99.0124 51.9636 94.4353 68.5171 92.0143 67.6893C60.879 57.0426 22.8918 82.0823 31.3557 119.938C14.056 121.741 -0.283548 135.316 0.119628 153.652C0.381422 165.564 7.54341 174.726 19.1567 174.726H207.367C221.402 174.726 233.105 163.351 233.463 148.957C233.471 148.66 233.474 148.362 233.474 148.064Z" fill="#307FF4"/>
<path d="M238.585 151.083C238.585 132.801 227.108 96.9331 188.728 98.5867C180.394 62.5425 162.78 52.0002 131.429 51.7326C100.812 51.4713 95.1771 72.6458 92.8198 71.7301C59.8801 58.9338 29.3346 87.8876 36.0257 121.486C18.9093 123.259 5.55273 138 5.55273 155.923C5.55273 156.003 5.55306 156.084 5.55355 156.165C5.63219 167.881 15.0496 177.303 26.5397 177.303H212.754C226.64 177.303 238.22 166.117 238.574 151.961C238.581 151.669 238.585 151.376 238.585 151.083Z" fill="#CADDFF"/>
<path d="M92.2016 157.38H46.411C46.019 157.38 45.7012 157.063 45.7012 156.671V87.8769C45.7012 87.4848 46.019 87.167 46.411 87.167H92.2016C92.5936 87.167 92.9114 87.4848 92.9114 87.8769V156.671C92.9114 157.063 92.5936 157.38 92.2016 157.38Z" fill="white"/>
<path d="M50.1961 100.234H92.6369C93.0874 100.234 93.456 99.8654 93.456 99.4149V87.8655C93.456 87.415 93.0874 87.0464 92.6369 87.0464H50.1961C49.7456 87.0464 49.377 87.415 49.377 87.8655V99.4149C49.377 99.8654 49.7456 100.234 50.1961 100.234Z" fill="#307FF4"/>
<path d="M53.5762 93.8434C53.5762 94.6541 54.2333 95.3113 55.0441 95.3113C55.8547 95.3113 56.5118 94.6542 56.5118 93.8434C56.5118 93.0328 55.8547 92.3757 55.0441 92.3757C54.2334 92.3757 53.5762 93.0328 53.5762 93.8434Z" fill="white"/>
<path d="M57.6875 93.7534C57.6875 94.564 58.3446 95.2212 59.1554 95.2212C59.966 95.2212 60.6231 94.5641 60.6231 93.7534C60.6231 92.9427 59.966 92.2856 59.1554 92.2856C58.3446 92.2855 57.6875 92.9427 57.6875 93.7534Z" fill="white"/>
<path d="M63.151 96.3054H90.7469C90.8712 96.3054 90.9722 96.2047 90.9722 96.0802V90.9755C90.9722 90.8512 90.8714 90.7502 90.7469 90.7502H63.151C63.0267 90.7502 62.9258 90.851 62.9258 90.9755V96.0802C62.9258 96.2047 63.0267 96.3054 63.151 96.3054Z" fill="#CADDFF"/>
<path d="M50.2254 114.475H92.6662C93.1167 114.475 93.4853 114.106 93.4853 113.656V102.106C93.4853 101.656 93.1167 101.287 92.6662 101.287H50.2254C49.7749 101.287 49.4062 101.656 49.4062 102.106V113.656C49.4062 114.106 49.7749 114.475 50.2254 114.475Z" fill="#307FF4"/>
<path d="M53.6055 108.084C53.6055 108.895 54.2626 109.552 55.0732 109.552C55.8838 109.552 56.5411 108.895 56.5411 108.084C56.5411 107.274 55.884 106.617 55.0732 106.617C54.2627 106.617 53.6055 107.274 53.6055 108.084Z" fill="white"/>
<path d="M57.7168 107.994C57.7168 108.805 58.3739 109.462 59.1845 109.462C59.9951 109.462 60.6524 108.805 60.6524 107.994C60.6524 107.183 59.9953 106.526 59.1845 106.526C58.3741 106.526 57.7168 107.183 57.7168 107.994Z" fill="white"/>
<path d="M63.1803 110.546H90.7762C90.9005 110.546 91.0015 110.445 91.0015 110.321V105.216C91.0015 105.092 90.9007 104.991 90.7762 104.991H63.1803C63.056 104.991 62.9551 105.092 62.9551 105.216V110.321C62.9552 110.445 63.056 110.546 63.1803 110.546Z" fill="#CADDFF"/>
<path d="M50.0144 128.776H92.4552C92.9057 128.776 93.2744 128.408 93.2744 127.957V116.408C93.2744 115.957 92.9057 115.589 92.4552 115.589H50.0144C49.5639 115.589 49.1953 115.957 49.1953 116.408V127.957C49.1953 128.408 49.5639 128.776 50.0144 128.776Z" fill="#307FF4"/>
<path d="M53.3945 122.386C53.3945 123.197 54.0516 123.854 54.8624 123.854C55.673 123.854 56.3301 123.197 56.3301 122.386C56.3301 121.575 55.673 120.918 54.8624 120.918C54.0518 120.918 53.3945 121.575 53.3945 122.386Z" fill="white"/>
<path d="M57.5059 122.295C57.5059 123.106 58.163 123.763 58.9737 123.763C59.7843 123.763 60.4415 123.106 60.4415 122.295C60.4415 121.485 59.7843 120.828 58.9737 120.828C58.1631 120.827 57.5059 121.485 57.5059 122.295Z" fill="white"/>
<path d="M62.9694 124.847H90.5652C90.6896 124.847 90.7905 124.747 90.7905 124.622V119.517C90.7905 119.393 90.6896 119.292 90.5652 119.292H62.9694C62.8451 119.292 62.7441 119.393 62.7441 119.517V124.622C62.7443 124.747 62.8451 124.847 62.9694 124.847Z" fill="#CADDFF"/>
<path d="M50.0457 143.017H92.4865C92.937 143.017 93.3056 142.649 93.3056 142.198V130.649C93.3056 130.198 92.937 129.83 92.4865 129.83H50.0457C49.5952 129.83 49.2266 130.198 49.2266 130.649V142.198C49.2266 142.649 49.5952 143.017 50.0457 143.017Z" fill="#307FF4"/>
<path d="M53.4258 136.627C53.4258 137.437 54.0829 138.095 54.8935 138.095C55.7041 138.095 56.3614 137.437 56.3614 136.627C56.3614 135.816 55.7043 135.159 54.8935 135.159C54.0829 135.159 53.4258 135.816 53.4258 136.627Z" fill="white"/>
<path d="M57.5371 136.536C57.5371 137.347 58.1942 138.004 59.0048 138.004C59.8154 138.004 60.4727 137.347 60.4727 136.536C60.4727 135.726 59.8156 135.069 59.0048 135.069C58.1942 135.069 57.5371 135.726 57.5371 136.536Z" fill="white"/>
<path d="M63.0007 139.088H90.5965C90.7208 139.088 90.8218 138.988 90.8218 138.863V133.758C90.8218 133.634 90.7208 133.533 90.5965 133.533H63.0007C62.8763 133.533 62.7754 133.634 62.7754 133.758V138.863C62.7756 138.988 62.8763 139.088 63.0007 139.088Z" fill="#CADDFF"/>
<path d="M50.1668 157.47H92.6076C93.0581 157.47 93.4267 157.101 93.4267 156.651V145.101C93.4267 144.651 93.0581 144.282 92.6076 144.282H50.1668C49.7163 144.282 49.3477 144.651 49.3477 145.101V156.651C49.3477 157.101 49.7163 157.47 50.1668 157.47Z" fill="#307FF4"/>
<path d="M53.5469 151.079C53.5469 151.889 54.204 152.547 55.0146 152.547C55.8252 152.547 56.4825 151.89 56.4825 151.079C56.4825 150.268 55.8254 149.611 55.0146 149.611C54.2041 149.611 53.5469 150.268 53.5469 151.079Z" fill="white"/>
<path d="M57.6582 150.989C57.6582 151.799 58.3153 152.457 59.1259 152.457C59.9365 152.457 60.5938 151.799 60.5938 150.989C60.5938 150.178 59.9367 149.521 59.1259 149.521C58.3155 149.521 57.6582 150.178 57.6582 150.989Z" fill="white"/>
<path d="M63.1217 153.541H90.7176C90.8419 153.541 90.9429 153.44 90.9429 153.316V148.211C90.9429 148.087 90.8419 147.986 90.7176 147.986H63.1217C62.9974 147.986 62.8965 148.086 62.8965 148.211V153.316C62.8966 153.44 62.9974 153.541 63.1217 153.541Z" fill="#CADDFF"/>
<path d="M294.902 96.3658C294.902 79.97 288.187 55.5565 255.845 57.0396C257.667 36.276 239.966 7.74125 201.405 10.3497C182.792 11.6087 178.976 26.2085 176.958 25.4782C150.998 16.088 119.326 38.1723 126.383 71.5595C111.959 73.1505 100.003 85.123 100.339 101.295C100.557 111.801 106.529 119.882 116.211 119.882H273.135C284.836 119.882 294.595 109.849 294.893 97.1539C294.899 96.892 294.902 96.6294 294.902 96.3658Z" fill="white"/>
<path d="M299.459 99.2204C299.459 83.2455 289.988 51.902 258.321 53.347C251.445 21.8499 236.911 12.6375 211.043 12.4037C185.78 12.1753 181.131 30.6787 179.186 29.8784C152.008 18.6963 126.804 43.9976 132.325 73.357C118.202 74.9071 107.182 87.7886 107.182 103.45C107.182 103.52 107.182 103.591 107.182 103.661C107.247 113.9 115.017 122.133 124.498 122.133H278.145C289.603 122.133 299.157 112.358 299.45 99.9882C299.455 99.7332 299.459 99.4773 299.459 99.2204Z" fill="#5B9AF8"/>
<path d="M278.144 122.675H124.497C114.717 122.675 106.706 114.147 106.639 103.665L106.639 103.45C106.639 87.7995 117.366 74.7692 131.688 72.8875C129.069 57.9101 134.233 43.1095 145.245 34.1468C154.984 26.2192 167.397 24.4717 179.314 29.3453C179.607 29.1671 180.256 28.2148 180.832 27.3698C184.003 22.7137 191.4 11.8594 210.584 11.8594C210.738 11.8594 210.891 11.86 211.047 11.8615C224.961 11.9872 234.843 14.8053 242.144 20.7304C250.037 27.1344 255.32 37.3278 258.752 52.7866C269.36 52.4009 278.311 55.6294 285.374 62.3784C295.478 72.0311 300 87.8373 300 99.2198C300 99.4809 299.997 99.7412 299.991 100.001C299.846 106.102 297.496 111.811 293.373 116.075C289.259 120.331 283.851 122.675 278.144 122.675ZM165.958 27.7207C158.766 27.7207 151.838 30.1782 145.929 34.9877C135.086 43.8125 130.077 58.4764 132.857 73.2566C132.885 73.4052 132.85 73.5582 132.76 73.6796C132.67 73.8007 132.534 73.879 132.383 73.8956C118.325 75.4385 107.723 88.1442 107.723 103.45L107.723 103.657C107.786 113.546 115.311 121.59 124.497 121.59H278.145C289.311 121.59 298.626 111.894 298.907 99.9754C298.913 99.7245 298.916 99.4726 298.916 99.22C298.916 88.0682 294.498 72.594 284.626 63.1622C277.683 56.5295 268.844 53.4112 258.345 53.8878C258.081 53.8981 257.847 53.7205 257.791 53.4623C251.398 24.1766 238.726 13.1955 211.038 12.9455C210.887 12.9441 210.736 12.9434 210.587 12.9434C191.97 12.9434 184.803 23.4661 181.728 27.9802C180.517 29.7577 179.849 30.7384 178.98 30.3791C174.653 28.5996 170.258 27.7207 165.958 27.7207Z" fill="#171D34"/>
<path d="M105.786 287.016C107.472 285.638 109.242 284.354 111.054 283.129C114.733 280.643 118.61 278.421 122.529 276.267C124.59 275.135 126.73 274.11 128.843 273.056C130.968 271.995 133.1 270.944 135.232 269.894C137.18 268.934 139.127 267.974 141.072 267.009C145.492 252.067 150.292 235.128 149.339 235.128L76.8701 233.082C75.1642 233.082 74.0199 234.47 74.319 236.176L83.1009 286.249C83.4001 287.955 85.0313 289.343 86.7372 289.343H102.864C103.815 288.542 104.823 287.802 105.786 287.016Z" fill="#307FF4"/>
<path d="M151.409 233.257H78.3739C76.7618 233.257 75.6842 234.564 75.9669 236.176L84.7488 286.249C85.0316 287.861 86.5676 289.168 88.1795 289.168H161.214C162.826 289.168 163.904 287.861 163.621 286.249L154.839 236.176C154.556 234.564 153.02 233.257 151.409 233.257Z" fill="white"/>
<path d="M161.213 289.71H88.1791C86.3185 289.71 84.54 288.2 84.2146 286.343L75.4327 236.27C75.2665 235.321 75.4883 234.426 76.0574 233.748C76.6167 233.082 77.4391 232.715 78.3734 232.715H151.408C153.268 232.715 155.047 234.226 155.373 236.082L164.154 286.156C164.321 287.104 164.099 288 163.53 288.678C162.97 289.343 162.148 289.71 161.213 289.71ZM78.3733 233.799C77.7648 233.799 77.237 234.029 76.8874 234.445C76.5276 234.873 76.3903 235.455 76.5004 236.082L85.2823 286.156C85.521 287.518 86.8205 288.626 88.1791 288.626H161.214C161.822 288.626 162.35 288.397 162.7 287.98C163.059 287.552 163.197 286.97 163.087 286.343L154.305 236.269C154.066 234.907 152.766 233.799 151.408 233.799H78.3733Z" fill="#171D34"/>
<path d="M148.7 235.978H81.7723C80.2951 235.978 79.3075 237.157 79.5667 238.612L87.6143 283.812C87.8733 285.267 89.2809 286.447 90.7581 286.447H157.686C159.163 286.447 160.151 285.267 159.892 283.812L151.844 238.612C151.585 237.158 150.177 235.978 148.7 235.978Z" fill="#5B9AF8"/>
<path d="M178.128 289.454H117.743H107.748H87.9279C86.7259 289.454 85.748 290.39 85.748 291.592C85.748 292.794 86.7259 293.729 87.9279 293.729H107.748H118.634H178.128C179.332 293.729 180.308 292.795 180.308 291.592C180.308 290.388 179.332 289.454 178.128 289.454Z" fill="#307FF4"/>
<path d="M178.129 294.271H87.9288C86.428 294.271 85.207 293.069 85.207 291.592C85.207 290.115 86.428 288.912 87.9288 288.912H178.129C179.656 288.912 180.851 290.089 180.851 291.592C180.851 293.094 179.656 294.271 178.129 294.271ZM87.9288 289.996C87.0104 289.996 86.2909 290.697 86.2909 291.592C86.2909 292.486 87.0103 293.187 87.9288 293.187H178.129C179.048 293.187 179.767 292.486 179.767 291.592C179.767 290.697 179.048 289.996 178.129 289.996H87.9288Z" fill="#171D34"/>
<path d="M113.08 263.268C114.412 263.268 115.356 262.188 115.188 260.856C115.02 259.523 113.804 258.443 112.471 258.443C111.139 258.443 110.195 259.523 110.363 260.856C110.531 262.188 111.748 263.268 113.08 263.268Z" fill="white"/>
<path d="M120.033 263.268C121.366 263.268 122.309 262.188 122.141 260.856C121.973 259.523 120.757 258.443 119.424 258.443C118.092 258.443 117.148 259.523 117.316 260.856C117.484 262.188 118.701 263.268 120.033 263.268Z" fill="white"/>
<path d="M128.547 262.63C129.403 261.718 129.259 260.192 128.224 259.22C127.19 258.249 125.657 258.201 124.8 259.112C123.944 260.024 124.089 261.551 125.123 262.523C126.158 263.494 127.691 263.542 128.547 262.63Z" fill="white"/>
<path d="M191.428 298.618L193.074 298.739L223.594 298.618C224.981 298.618 225.962 297.498 225.788 296.117L217.867 233.546C217.692 232.165 216.427 231.044 215.041 231.044L184.489 230.688C180.982 230.688 180.506 232.165 180.681 233.546L188.602 296.117C188.777 297.498 190.042 298.618 191.428 298.618Z" fill="#307FF4"/>
<path d="M193.365 298.618H225.531C226.917 298.618 227.899 297.495 227.724 296.109L219.804 233.339C219.629 231.953 218.363 230.829 216.977 230.829H184.811C183.425 230.829 182.443 231.953 182.618 233.339L190.538 296.109C190.713 297.495 191.979 298.618 193.365 298.618Z" fill="white"/>
<path d="M225.531 299.16H193.364C191.717 299.16 190.208 297.822 190 296.176L182.079 233.407C181.975 232.576 182.205 231.792 182.728 231.198C183.247 230.611 183.986 230.287 184.81 230.287H216.977C218.624 230.287 220.133 231.626 220.341 233.271L228.261 296.041C228.366 296.871 228.136 297.655 227.613 298.249C227.094 298.837 226.355 299.16 225.531 299.16ZM184.81 231.371C184.302 231.371 183.851 231.564 183.541 231.915C183.227 232.272 183.09 232.753 183.155 233.271L191.075 296.041C191.217 297.163 192.244 298.076 193.364 298.076H225.531C226.039 298.076 226.49 297.883 226.8 297.532C227.114 297.176 227.251 296.694 227.186 296.176L219.266 233.407C219.124 232.284 218.097 231.371 216.977 231.371L184.81 231.371Z" fill="#171D34"/>
<path d="M224.448 292.949L217.416 237.222C217.379 236.924 217.107 236.683 216.81 236.683H186.741C186.443 236.683 186.232 236.924 186.27 237.222L193.302 292.949C193.339 293.246 193.611 293.487 193.908 293.487H223.978C224.275 293.488 224.486 293.246 224.448 292.949Z" fill="#5B9AF8"/>
<path d="M201.635 235.044C202.154 235.044 202.522 234.623 202.456 234.104C202.391 233.584 201.917 233.164 201.398 233.164C200.878 233.164 200.51 233.584 200.576 234.104C200.641 234.623 201.116 235.044 201.635 235.044Z" fill="white"/>
<path d="M200.495 263.723C201.483 263.723 202.183 262.923 202.058 261.935C201.934 260.947 201.032 260.146 200.044 260.146C199.056 260.146 198.357 260.947 198.481 261.935C198.606 262.923 199.508 263.723 200.495 263.723Z" fill="white"/>
<path d="M205.65 263.723C206.637 263.723 207.337 262.923 207.213 261.935C207.088 260.947 206.186 260.146 205.198 260.146C204.21 260.146 203.511 260.947 203.635 261.935C203.76 262.923 204.662 263.723 205.65 263.723Z" fill="white"/>
<path d="M210.804 263.723C211.792 263.723 212.491 262.923 212.367 261.935C212.242 260.947 211.34 260.146 210.353 260.146C209.365 260.146 208.665 260.947 208.79 261.935C208.914 262.923 209.816 263.723 210.804 263.723Z" fill="white"/>
<path d="M127.569 205.004L124.226 204.959V170.552C124.226 169.704 123.703 169.194 122.855 169.194H116.773C116.059 169.194 115.555 169.596 115.555 170.311V204.836L112.563 204.795C112.072 204.788 111.749 205.329 112.011 205.745L119.095 217.011C119.329 217.382 119.859 217.4 120.117 217.045L128.106 205.988C128.401 205.581 128.071 205.011 127.569 205.004Z" fill="white"/>
<path d="M80.8751 197.416L77.6174 197.371V170.73C77.6174 169.882 76.9248 169.194 76.0768 169.194H69.9948C69.2798 169.194 68.5849 169.774 68.5849 170.489V197.248L65.6894 197.207C65.1978 197.2 64.9232 197.741 65.1852 198.157L72.2929 209.423C72.5267 209.795 73.0686 209.812 73.3263 209.458L81.3635 198.4C81.6587 197.993 81.3777 197.423 80.8751 197.416Z" fill="white"/>
<path d="M202.356 208.98L199.377 208.94V188.576C199.377 187.346 198.466 186.347 197.236 186.336L156.497 186.002C155.9 185.997 155.439 185.512 155.439 184.915L155.133 170.12C155.117 169.412 154.537 168.85 153.829 168.863L146.617 168.999C146.022 169.011 145.551 169.503 145.565 170.098L146.065 191.203C146.065 193.065 147.575 194.486 149.438 194.486H189.061C189.859 194.486 190.344 195.312 190.344 196.11V208.815L187.231 208.771C186.739 208.765 186.476 209.306 186.738 209.721L193.852 220.988C194.085 221.359 194.63 221.377 194.888 221.022L202.885 209.964C203.18 209.557 202.859 208.987 202.356 208.98Z" fill="white"/>
<path d="M213.157 147.492C213.051 147.492 212.944 147.462 212.85 147.397C212.604 147.227 212.541 146.89 212.711 146.644L232.599 117.715C232.769 117.468 233.106 117.406 233.352 117.575C233.599 117.745 233.662 118.082 233.492 118.329L213.604 147.257C213.499 147.41 213.329 147.492 213.157 147.492Z" fill="#171D34"/>
<path d="M220.126 151.005C219.959 151.005 219.795 150.928 219.688 150.782C219.512 150.54 219.565 150.202 219.806 150.025L237.253 137.29C237.495 137.113 237.833 137.166 238.01 137.408C238.187 137.65 238.134 137.989 237.892 138.165L220.446 150.9C220.349 150.971 220.237 151.005 220.126 151.005Z" fill="#171D34"/>
<path d="M24.4831 51.7833C24.4039 51.7833 24.3233 51.766 24.2472 51.7289C23.9779 51.5984 23.8654 51.2745 23.9956 51.005C30.9356 36.6817 41.8525 25.5158 56.4433 17.8173C56.7092 17.6782 57.036 17.7794 57.1756 18.0437C57.3154 18.3088 57.214 18.6364 56.9492 18.7761C42.5673 26.3639 31.8081 37.3665 24.9713 51.4778C24.8776 51.6708 24.6842 51.7833 24.4831 51.7833Z" fill="#171D34"/>
<path d="M16.456 54.658C16.3913 54.658 16.3255 54.6464 16.2612 54.6217C15.9819 54.514 15.8428 54.2003 15.9505 53.9213C20.1502 43.0223 26.2279 33.5299 34.0151 25.7078C41.4864 18.203 50.3508 12.4035 60.3623 8.47006C60.6409 8.36063 60.9551 8.49759 61.0647 8.77642C61.1743 9.05509 61.0371 9.36947 60.7585 9.47923C40.6043 17.3973 25.0505 33.319 16.9621 54.3109C16.879 54.526 16.6738 54.658 16.456 54.658Z" fill="#171D34"/>
<path d="M14.4724 61.7741C14.4325 61.7741 14.3919 61.7698 14.3513 61.7606C14.0595 61.694 13.8768 61.4035 13.9434 61.1117L14.4917 58.7061C14.5582 58.414 14.8496 58.2321 15.1406 58.2978C15.4324 58.3645 15.6149 58.655 15.5485 58.9468L15.0002 61.3524C14.9432 61.604 14.7196 61.7741 14.4724 61.7741Z" fill="#171D34"/>
<path d="M12.5524 70.1929C12.5126 70.1929 12.472 70.1887 12.4314 70.1795C12.1396 70.1128 11.9569 69.8224 12.0234 69.5306L12.5718 67.1253C12.6384 66.8332 12.9289 66.6513 13.2207 66.717C13.5125 66.7837 13.6951 67.0742 13.6286 67.3659L13.0803 69.7712C13.0229 70.0229 12.7996 70.1929 12.5524 70.1929Z" fill="#171D34"/>
<path d="M10.834 64.0617C10.7918 64.0617 10.7485 64.0568 10.7054 64.0461L8.34356 63.4706C8.05261 63.4 7.87453 63.1069 7.94514 62.8158C8.01591 62.5253 8.30949 62.3466 8.59995 62.4177L10.9618 62.9932C11.2528 63.0638 11.4309 63.3571 11.3603 63.648C11.3 63.8957 11.0783 64.0617 10.834 64.0617Z" fill="#171D34"/>
<path d="M19.0995 66.0753C19.0571 66.0753 19.014 66.0704 18.9709 66.0597L16.6092 65.4842C16.3182 65.4136 16.1402 65.1203 16.2108 64.8294C16.2817 64.5386 16.5743 64.3602 16.8656 64.4315L19.2273 65.007C19.5182 65.0776 19.6963 65.3708 19.6257 65.6618C19.5654 65.9095 19.3436 66.0753 19.0995 66.0753Z" fill="#171D34"/>
<path d="M214.673 206.218C214.673 206.218 214.673 206.218 214.672 206.218C214.373 206.218 214.131 205.976 214.131 205.676L214.132 203.209C214.132 202.91 214.375 202.667 214.674 202.667C214.674 202.667 214.674 202.667 214.674 202.667C214.973 202.667 215.216 202.91 215.216 203.21L215.215 205.677C215.215 205.976 214.972 206.218 214.673 206.218Z" fill="#171D34"/>
<path d="M214.669 214.854C214.669 214.854 214.669 214.854 214.669 214.854C214.369 214.854 214.127 214.611 214.127 214.311L214.128 211.844C214.128 211.545 214.371 211.302 214.67 211.302C214.67 211.302 214.67 211.302 214.67 211.302C214.97 211.302 215.212 211.545 215.212 211.845L215.211 214.312C215.211 214.611 214.968 214.854 214.669 214.854Z" fill="#171D34"/>
<path d="M211.632 209.256C211.63 209.256 211.627 209.256 211.624 209.256L209.194 209.219C208.895 209.215 208.656 208.968 208.66 208.669C208.665 208.372 208.906 208.135 209.202 208.135C209.205 208.135 209.207 208.135 209.21 208.135L211.641 208.172C211.94 208.177 212.179 208.423 212.174 208.722C212.17 209.019 211.928 209.256 211.632 209.256Z" fill="#171D34"/>
<path d="M220.139 209.386C220.136 209.386 220.133 209.386 220.13 209.386L217.7 209.349C217.401 209.344 217.161 209.098 217.166 208.799C217.171 208.502 217.412 208.265 217.708 208.265C217.711 208.265 217.713 208.265 217.716 208.265L220.147 208.302C220.446 208.307 220.685 208.553 220.68 208.852C220.676 209.149 220.434 209.386 220.139 209.386Z" fill="#171D34"/>
<path d="M115.735 142.819C115.622 142.819 115.508 142.784 115.41 142.711C115.171 142.531 115.122 142.192 115.302 141.952L126.141 127.5C126.321 127.26 126.661 127.212 126.9 127.391C127.139 127.571 127.188 127.911 127.008 128.15L116.169 142.603C116.062 142.744 115.9 142.819 115.735 142.819Z" fill="white"/>
<path d="M136.69 147.155C136.568 147.155 136.445 147.114 136.343 147.029C136.114 146.838 136.082 146.496 136.274 146.266L150.726 128.923C150.918 128.693 151.26 128.662 151.489 128.854C151.719 129.046 151.751 129.387 151.559 129.617L137.107 146.96C137 147.089 136.846 147.155 136.69 147.155Z" fill="white"/>
<path d="M184.785 100.224L184.789 105.183C184.791 106.686 183.053 108.193 179.561 109.359C172.577 111.69 161.179 111.789 153.878 109.609C153.758 109.573 153.64 109.537 153.522 109.5C149.823 108.335 147.965 106.787 147.963 105.235L147.959 100.275C147.961 101.828 149.819 103.376 153.519 104.54C153.636 104.577 153.755 104.613 153.874 104.649C161.176 106.829 172.573 106.73 179.557 104.399C183.049 103.234 184.788 101.727 184.785 100.224Z" fill="#F6BD3D"/>
<path d="M178.868 95.85C178.989 95.8859 179.107 95.9221 179.225 95.9594C186.507 98.2511 186.656 102.03 179.557 104.4C172.573 106.731 161.176 106.829 153.874 104.649C153.754 104.613 153.636 104.577 153.518 104.54C146.237 102.248 146.089 98.4696 153.187 96.1C160.17 93.769 171.567 93.6704 178.868 95.85Z" fill="#FFE9B9"/>
<path d="M180.826 94.3655L180.83 99.3251C180.832 100.828 179.094 102.335 175.602 103.501C168.618 105.832 157.22 105.93 149.919 103.75C149.799 103.714 149.681 103.678 149.563 103.641C145.864 102.477 144.006 100.929 144.004 99.3765L144 94.4169C144.002 95.969 145.86 97.5172 149.56 98.6814C149.677 98.7185 149.796 98.7548 149.915 98.7906C157.217 100.971 168.614 100.872 175.598 98.5409C179.09 97.3753 180.828 95.8685 180.826 94.3655Z" fill="#F6BD3D"/>
<path d="M174.909 89.9915C175.03 90.0275 175.148 90.0636 175.266 90.1009C182.548 92.3927 182.697 96.1715 175.598 98.5411C168.614 100.872 157.216 100.971 149.915 98.7908C149.795 98.755 149.677 98.7188 149.559 98.6816C142.278 96.3898 142.13 92.6111 149.228 90.2414C156.211 87.9107 167.608 87.812 174.909 89.9915Z" fill="#FFE9B9"/>
<path d="M184.141 87.2173L184.145 92.177C184.147 93.68 182.409 95.1867 178.917 96.3524C171.932 98.6835 160.535 98.7821 153.234 96.6021C153.114 96.5662 152.996 96.5301 152.878 96.4929C149.179 95.3287 147.32 93.7805 147.318 92.2284L147.314 87.2688C147.317 88.8209 149.175 90.3691 152.874 91.5333C152.992 91.5704 153.11 91.6067 153.23 91.6424C160.531 93.8224 171.929 93.7239 178.913 91.3927C182.405 90.227 184.143 88.7202 184.141 87.2173Z" fill="#F6BD3D"/>
<path d="M165.66 98.5317C161.185 98.5318 156.706 98.003 153.134 96.9364C153.012 96.9001 152.892 96.8633 152.773 96.8258C149.032 95.6484 146.971 94.0157 146.969 92.2283L146.965 87.2688V87.2685C146.965 87.0756 147.121 86.919 147.314 86.9188C147.314 86.9188 147.314 86.9188 147.314 86.9188C147.507 86.9188 147.663 87.0749 147.664 87.2677C147.666 88.7039 149.603 90.137 152.979 91.1995C153.095 91.2361 153.211 91.2718 153.33 91.3072C160.528 93.4565 171.955 93.3462 178.802 91.0609C181.975 90.0017 183.793 88.6008 183.791 87.2174V87.2171C183.791 87.0242 183.947 86.8676 184.14 86.8674C184.14 86.8674 184.141 86.8674 184.141 86.8674C184.333 86.8674 184.49 87.0236 184.49 87.2164C184.49 87.2173 184.49 87.2182 184.49 87.2192L184.494 92.1762C184.496 93.905 182.555 95.5058 179.027 96.6834C175.347 97.9118 170.505 98.5316 165.66 98.5317ZM147.665 89.0247L147.668 92.2275C147.67 93.6635 149.607 95.0965 152.983 96.1591C153.099 96.1956 153.215 96.2314 153.334 96.2667C160.533 98.4161 171.959 98.3055 178.806 96.0204C181.979 94.9612 183.797 93.5603 183.795 92.1768L183.793 88.973C182.938 90.0146 181.316 90.9584 179.023 91.7236C171.943 94.0867 160.569 94.198 153.13 91.9767C153.008 91.9403 152.888 91.9037 152.769 91.866C150.299 91.0886 148.561 90.1127 147.665 89.0247Z" fill="#171D34"/>
<path d="M178.224 82.8428C178.344 82.8788 178.462 82.915 178.581 82.9522C185.863 85.244 186.011 89.0228 178.913 91.3925C171.929 93.7236 160.531 93.8221 153.23 91.6422C153.11 91.6064 152.992 91.5701 152.874 91.5331C145.593 89.2413 145.444 85.4625 152.543 83.0929C159.526 80.762 170.923 80.6633 178.224 82.8428Z" fill="white"/>
<path d="M165.656 93.5722C161.181 93.5722 156.702 93.0434 153.13 91.9768C153.008 91.9405 152.888 91.9038 152.769 91.8661C149.041 90.6929 146.98 89.066 146.965 87.2852C146.95 85.5497 148.891 83.943 152.432 82.7611C159.511 80.3982 170.884 80.2869 178.323 82.5078H178.323C178.445 82.5443 178.565 82.581 178.685 82.6187C182.413 83.7919 184.475 85.4188 184.49 87.1997C184.505 88.9352 182.564 90.5418 179.023 91.7237C175.343 92.9522 170.501 93.5722 165.656 93.5722ZM165.813 81.6354C161.014 81.6354 156.214 82.2356 152.653 83.4241C149.47 84.4866 147.652 85.8917 147.664 87.2792C147.676 88.7113 149.613 90.1403 152.979 91.1995C153.095 91.2361 153.211 91.2718 153.33 91.3072C160.528 93.4564 171.955 93.3461 178.802 91.0608C181.985 89.9984 183.803 88.5933 183.791 87.2058C183.779 85.7737 181.841 84.3447 178.475 83.2854C178.359 83.2487 178.242 83.2131 178.124 83.1775C174.669 82.1463 170.241 81.6354 165.813 81.6354Z" fill="#171D34"/>
<path d="M175.981 85.6855L176.617 86.4521L174.402 86.7623C174.761 87.2973 174.7 87.6987 174.512 88.0134L171.478 88.1849C171.586 87.9427 171.868 87.5017 171.4 86.9381C171.207 86.7048 170.925 86.5647 170.609 86.4911C170.236 86.4042 169.815 86.4095 169.434 86.4628C168.602 86.5794 168.301 86.9271 168.046 87.7051C167.761 88.7843 166.687 89.3538 164.422 89.6711C162.938 89.8792 161.417 89.8506 160.197 89.5665C159.575 89.4217 159.032 89.2107 158.61 88.9309L156.042 89.2905L155.406 88.5239L157.798 88.1886C157.439 87.6539 157.471 87.0819 157.778 86.7068L160.919 86.5292C160.612 86.9389 160.466 87.4747 160.887 87.9831C161.08 88.2158 161.391 88.3889 161.789 88.4815C162.153 88.5663 162.589 88.5831 163.07 88.5156C164.027 88.3816 164.424 88.0468 164.573 87.3794C164.785 86.4153 165.571 85.6679 168.013 85.3257C169.478 85.1206 170.911 85.157 172.066 85.4259C172.657 85.5635 173.176 85.7621 173.59 86.0204L175.981 85.6855Z" fill="#F6BD3D"/>
<path d="M226.27 99.7104L226.274 104.915C226.276 106.492 224.452 108.074 220.787 109.297C213.458 111.743 201.497 111.847 193.835 109.559C193.709 109.521 193.585 109.483 193.461 109.444C189.579 108.223 187.629 106.598 187.627 104.969L187.623 99.7644C187.625 101.393 189.575 103.018 193.457 104.24C193.581 104.279 193.705 104.317 193.831 104.354C201.493 106.642 213.454 106.538 220.783 104.092C224.448 102.869 226.272 101.288 226.27 99.7104Z" fill="#F6BD3D"/>
<path d="M220.06 95.1203C220.186 95.1581 220.31 95.1961 220.434 95.2352C228.077 97.6403 228.232 101.606 220.783 104.093C213.454 106.539 201.493 106.642 193.831 104.355C193.705 104.317 193.581 104.279 193.457 104.24C185.816 101.835 185.66 97.8696 193.11 95.3828C200.438 92.9367 212.398 92.8331 220.06 95.1203Z" fill="#FFE9B9"/>
<path d="M227.34 92.4919L227.344 97.6967C227.346 99.274 225.522 100.855 221.857 102.078C214.528 104.525 202.567 104.628 194.905 102.341C194.779 102.303 194.655 102.265 194.532 102.226C190.65 101.004 188.7 99.3795 188.697 97.7506L188.693 92.5459C188.696 94.1747 190.646 95.7994 194.528 97.0212C194.651 97.0601 194.775 97.0981 194.901 97.1358C202.563 99.4235 214.524 99.3201 221.853 96.8737C225.518 95.6504 227.342 94.0691 227.34 92.4919Z" fill="#F6BD3D"/>
<path d="M221.13 87.9018C221.257 87.9395 221.381 87.9775 221.505 88.0165C229.147 90.4216 229.303 94.3871 221.853 96.8739C214.524 99.3202 202.563 99.4236 194.901 97.1359C194.775 97.0984 194.651 97.0603 194.528 97.0214C186.887 94.6163 186.731 90.6508 194.18 88.164C201.508 85.7182 213.468 85.6146 221.13 87.9018Z" fill="#FFE9B9"/>
<path d="M224.277 85.2173L224.281 90.4221C224.284 91.9993 222.459 93.5805 218.795 94.8038C211.466 97.2502 199.505 97.3536 191.843 95.0659C191.717 95.0283 191.593 94.9902 191.469 94.9513C187.587 93.7295 185.637 92.1048 185.635 90.476L185.631 85.2712C185.633 86.9001 187.583 88.5247 191.465 89.7466C191.589 89.7855 191.713 89.8235 191.839 89.8611C199.501 92.1488 211.462 92.0454 218.791 89.5991C222.455 88.3758 224.28 86.7946 224.277 85.2173Z" fill="#F6BD3D"/>
<path d="M218.068 80.6272C218.194 80.6649 218.318 80.7029 218.442 80.742C226.084 83.1471 226.24 87.1126 218.791 89.5993C211.462 92.0457 199.501 92.1491 191.839 89.8614C191.713 89.8237 191.589 89.7857 191.465 89.7468C183.824 87.3417 183.668 83.3762 191.118 80.8894C198.446 78.4435 210.406 78.3399 218.068 80.6272Z" fill="#FFE9B9"/>
<path d="M228.072 79.2244L228.076 84.4291C228.079 86.0064 226.254 87.5876 222.59 88.8109C215.261 91.2573 203.299 91.3606 195.638 89.073C195.512 89.0353 195.388 88.9973 195.264 88.9584C191.382 87.7365 189.432 86.1119 189.43 84.483L189.426 79.2783C189.428 80.9071 191.378 82.5318 195.26 83.7536C195.384 83.7926 195.508 83.8305 195.634 83.8682C203.295 86.1559 215.257 86.0525 222.586 83.6062C226.25 82.3829 228.075 80.8016 228.072 79.2244Z" fill="#F6BD3D"/>
<path d="M221.863 74.6345C221.989 74.6722 222.113 74.7102 222.237 74.7492C229.879 77.1543 230.035 81.1198 222.586 83.6066C215.257 86.0529 203.295 86.1563 195.634 83.8687C195.508 83.8311 195.384 83.793 195.26 83.7541C187.619 81.349 187.463 77.3835 194.912 74.8967C202.241 72.4509 214.201 72.3472 221.863 74.6345Z" fill="#FFE9B9"/>
<path d="M223.582 73.2886L223.586 78.4933C223.588 80.0706 221.764 81.6518 218.1 82.8751C210.77 85.3215 198.809 85.4249 191.147 83.1372C191.021 83.0996 190.897 83.0615 190.774 83.0226C186.892 81.8007 184.942 80.1761 184.94 78.5472L184.936 73.3425C184.938 74.9713 186.888 76.596 190.77 77.8178C190.893 77.8568 191.017 77.8947 191.143 77.9323C198.805 80.22 210.766 80.1166 218.096 77.6702C221.76 76.447 223.584 74.8658 223.582 73.2886Z" fill="#F6BD3D"/>
<path d="M217.372 68.6985C217.499 68.7362 217.623 68.7742 217.747 68.8132C225.389 71.2183 225.545 75.1838 218.096 77.6706C210.766 80.1169 198.805 80.2203 191.143 77.9326C191.017 77.8951 190.893 77.857 190.77 77.8182C183.129 75.4131 182.973 71.4476 190.422 68.9608C197.751 66.5148 209.711 66.4112 217.372 68.6985Z" fill="#FFE9B9"/>
<path d="M226.854 66.5989L226.858 71.8036C226.86 73.3809 225.036 74.9621 221.371 76.1854C214.042 78.6318 202.081 78.7352 194.419 76.4475C194.293 76.4098 194.169 76.3718 194.045 76.3329C190.163 75.1111 188.213 73.4864 188.211 71.8575L188.207 66.6528C188.209 68.2817 190.159 69.9063 194.041 71.1282C194.165 71.1671 194.289 71.2051 194.415 71.2427C202.077 73.5304 214.038 73.427 221.367 70.9807C225.032 69.7573 226.856 68.1762 226.854 66.5989Z" fill="#F6BD3D"/>
<path d="M207.459 78.4557C202.764 78.4558 198.066 77.901 194.319 76.7821C194.191 76.744 194.065 76.7055 193.94 76.6661C190.023 75.4331 187.864 73.7256 187.862 71.858L187.857 66.6533V66.653C187.857 66.4598 188.008 66.2988 188.207 66.3033C188.399 66.3033 188.556 66.4594 188.556 66.6522C188.556 66.6523 188.556 66.6524 188.556 66.6524V66.6554C188.561 68.1695 190.598 69.6781 194.146 70.7948C194.268 70.8333 194.39 70.8707 194.515 70.9079C202.072 73.1642 214.068 73.0482 221.256 70.6491C224.593 69.5351 226.506 68.0589 226.504 66.5992V66.599C226.504 66.406 226.66 66.2495 226.853 66.2493C226.853 66.2493 226.853 66.2493 226.853 66.2493C227.046 66.2493 227.203 66.4054 227.203 66.5981C227.203 66.5992 227.203 66.6002 227.203 66.6012L227.207 71.8031C227.209 73.6094 225.176 75.2834 221.481 76.5166C217.621 77.8053 212.542 78.4556 207.459 78.4557ZM188.558 68.4478L188.56 71.8571C188.562 73.3722 190.6 74.882 194.15 75.9994C194.272 76.0378 194.394 76.0754 194.519 76.1124C202.076 78.3689 214.072 78.2529 221.26 75.8537C224.597 74.7398 226.51 73.2637 226.508 71.8038L226.505 68.3935C225.62 69.4984 223.908 70.5004 221.477 71.3118C214.051 73.7908 202.119 73.9075 194.315 71.5772C194.187 71.539 194.061 71.5005 193.936 71.4612C191.319 70.6374 189.486 69.6017 188.558 68.4478Z" fill="#171D34"/>
<path d="M220.644 62.0078C220.77 62.0456 220.894 62.0835 221.018 62.1226C228.661 64.5277 228.816 68.4932 221.367 70.9799C214.038 73.4263 202.077 73.5297 194.415 71.242C194.289 71.2044 194.165 71.1663 194.041 71.1274C186.4 68.7223 186.244 64.7568 193.694 62.2701C201.022 59.8241 212.982 59.7205 220.644 62.0078Z" fill="white"/>
<path d="M207.455 73.2506C202.76 73.2506 198.062 72.6959 194.315 71.577C194.187 71.5388 194.061 71.5003 193.936 71.4609C190.033 70.2322 187.874 68.5308 187.858 66.6701C187.842 64.8568 189.875 63.1765 193.583 61.9389C201.009 59.4601 212.94 59.3434 220.744 61.6732C220.872 61.7115 220.997 61.75 221.123 61.7895C225.028 63.0183 227.187 64.7197 227.203 66.5805C227.218 68.3936 225.185 70.0739 221.477 71.3115C217.617 72.6002 212.538 73.2506 207.455 73.2506ZM207.62 60.7239C202.582 60.7239 197.543 61.3541 193.804 62.6018C190.457 63.7193 188.544 65.2 188.556 66.6641C188.569 68.1751 190.607 69.6805 194.146 70.7944C194.268 70.8329 194.391 70.8704 194.515 70.9075C202.072 73.1639 214.068 73.0478 221.256 70.6487C224.604 69.5312 226.517 68.0507 226.504 66.5866C226.491 65.0757 224.453 63.5702 220.913 62.4562C220.791 62.4177 220.669 62.3802 220.544 62.3429C216.917 61.2602 212.269 60.7239 207.62 60.7239Z" fill="#171D34"/>
<path d="M212.272 62.9396L211.345 63.7508C212.184 63.8594 212.816 63.9856 213.305 64.1169C213.645 64.208 213.916 64.3015 214.14 64.3934L212.32 65.3674C212.087 65.2828 211.77 65.1554 211.299 65.029C210.867 64.9131 210.305 64.798 209.558 64.7175C208.15 64.5654 207.4 64.7746 207.105 65.0327C206.757 65.3369 207.295 65.6119 208.799 66.1056C210.935 66.7704 211.396 67.3897 210.447 68.2192C209.509 69.0396 207.344 69.5925 204.641 69.508L203.566 70.4483L201.443 70.2191L202.444 69.3436C201.644 69.2398 200.907 69.0936 200.311 68.9336C199.849 68.8096 199.471 68.6774 199.213 68.5502L201.096 67.5419C201.43 67.697 201.862 67.8577 202.387 67.9983C202.91 68.1388 203.526 68.2594 204.23 68.3353C205.465 68.4683 206.541 68.3568 206.963 67.988C207.363 67.6382 206.922 67.3423 205.583 66.9391C203.643 66.3571 202.589 65.7255 203.61 64.8318C204.538 64.0208 206.608 63.5297 209.148 63.586L210.149 62.7104L212.272 62.9396Z" fill="#F6BD3D"/>
</g>
<defs>
<clipPath id="clip0_1276_49614">
<rect width="300" height="300" fill="white"/>
</clipPath>
</defs>
</svg>
