<svg width="640" height="640" viewBox="0 0 640 640" fill="none" xmlns="http://www.w3.org/2000/svg">
<path d="M640 489.469H0V489.789H640V489.469Z" fill="#73C3FD"/>
<path d="M159.777 508.836H117.381V509.156H159.777V508.836Z" fill="#73C3FD"/>
<path d="M103.964 508.836H79.3965V509.156H103.964V508.836Z" fill="#73C3FD"/>
<path d="M269.509 513.547H244.943V513.867H269.509V513.547Z" fill="#73C3FD"/>
<path d="M397.588 520.691H342.301V521.011H397.588V520.691Z" fill="#73C3FD"/>
<path d="M330.905 520.691H322.799V521.011H330.905V520.691Z" fill="#73C3FD"/>
<path d="M580.278 513.547H460.373V513.867H580.278V513.547Z" fill="#73C3FD"/>
<path d="M303.377 432.383H56.2105C52.1824 432.383 48.9043 429.105 48.9043 425.077V77.6441C48.9043 73.616 52.1824 70.3379 56.2105 70.3379H303.377C307.404 70.3379 310.682 73.616 310.682 77.6441V425.077C310.682 429.105 307.404 432.383 303.377 432.383ZM56.2105 70.6592C52.3577 70.6592 49.2243 73.7926 49.2243 77.6454V425.078C49.2243 428.931 52.3577 432.065 56.2105 432.065H303.377C307.229 432.065 310.362 428.931 310.362 425.078V77.6441C310.362 73.7926 307.229 70.6579 303.377 70.6579L56.2105 70.6592Z" fill="#73C3FD"/>
<path d="M580.236 432.383H333.071C329.044 432.383 325.766 429.105 325.766 425.077V77.6441C325.766 73.616 329.044 70.3379 333.071 70.3379H580.236C584.265 70.3379 587.542 73.616 587.542 77.6441V425.077C587.544 429.105 584.265 432.383 580.236 432.383ZM333.071 70.6592C329.219 70.6592 326.086 73.7926 326.086 77.6454V425.078C326.086 428.931 329.219 432.065 333.071 432.065H580.236C584.089 432.065 587.222 428.931 587.222 425.078V77.6441C587.222 73.7926 584.089 70.6579 580.236 70.6579L333.071 70.6592Z" fill="#73C3FD"/>
<path d="M342.271 380.131H314.125V491.79H342.271V380.131Z" fill="#F6BD3D"/>
<path d="M336.925 491.792H342.271V476.586H331.32L336.925 491.792Z" fill="#F9FCD5"/>
<path d="M218.937 380.131H190.791V491.79H218.937V380.131Z" fill="#F6BD3D"/>
<path d="M342.273 380.131H214.271V482.46H342.273V380.131Z" fill="#F9FCD5"/>
<path d="M337.631 385.162V412.235H218.913V385.162H337.631ZM338.125 384.668H218.418V412.731H338.125V384.668Z" fill="#F6BD3D"/>
<path d="M219.617 491.792H214.271V476.586H225.222L219.617 491.792Z" fill="#F9FCD5"/>
<path d="M275.439 398.697C275.439 400.259 276.707 401.528 278.271 401.528C279.834 401.528 281.102 400.261 281.102 398.697C281.102 397.134 279.835 395.865 278.271 395.865C276.708 395.867 275.439 397.134 275.439 398.697Z" fill="#73C3FD"/>
<path d="M337.631 417.758V444.831H218.913V417.758H337.631ZM338.125 417.264H218.418V445.326H338.125V417.264Z" fill="#F6BD3D"/>
<path d="M275.439 431.294C275.439 432.857 276.707 434.126 278.271 434.126C279.834 434.126 281.102 432.858 281.102 431.294C281.102 429.73 279.835 428.463 278.271 428.463C276.708 428.464 275.439 429.731 275.439 431.294Z" fill="#73C3FD"/>
<path d="M337.631 450.355V477.429H218.913V450.355H337.631ZM338.125 449.861H218.418V477.924H338.125V449.861Z" fill="#F6BD3D"/>
<path d="M275.439 463.894C275.439 465.457 276.707 466.725 278.271 466.725C279.834 466.725 281.102 465.458 281.102 463.894C281.102 462.33 279.835 461.062 278.271 461.062C276.708 461.062 275.439 462.33 275.439 463.894Z" fill="#73C3FD"/>
<path d="M201.74 315.285H173.594V491.792H201.74V315.285Z" fill="#F6BD3D"/>
<path d="M196.396 491.792H201.741V476.586H190.791L196.396 491.792Z" fill="#F9FCD5"/>
<path d="M96.5463 315.285H68.4004V491.792H96.5463V315.285Z" fill="#F6BD3D"/>
<path d="M201.741 315.285H91.8828V482.461H201.741V315.285Z" fill="#F9FCD5"/>
<path d="M197.011 320.018V357.868H96.6117V320.018H197.011ZM197.593 319.436H96.0293V358.451H197.593V319.436Z" fill="#F6BD3D"/>
<path d="M197.011 362.469V462.867H149.189V362.469H197.011ZM197.594 361.887H148.605V463.452H197.594V361.887Z" fill="#F6BD3D"/>
<path d="M144.434 362.469V462.867H96.6117V362.469H144.434ZM145.017 361.887H96.0293V463.452H145.017V361.887Z" fill="#F6BD3D"/>
<path d="M97.2281 491.792H91.8828V476.586H102.833L97.2281 491.792Z" fill="#F9FCD5"/>
<path d="M143.98 338.945C143.98 340.509 145.248 341.776 146.812 341.776C148.375 341.776 149.643 340.509 149.643 338.945C149.643 337.382 148.376 336.113 146.812 336.113C145.248 336.115 143.98 337.382 143.98 338.945Z" fill="#73C3FD"/>
<path d="M154.115 410.275C154.115 411.838 155.382 413.106 156.947 413.106C158.511 413.106 159.778 411.839 159.778 410.275C159.778 408.712 158.511 407.443 156.947 407.443C155.382 407.443 154.115 408.711 154.115 410.275Z" fill="#73C3FD"/>
<path d="M133.844 410.275C133.844 411.838 135.111 413.106 136.675 413.106C138.238 413.106 139.506 411.839 139.506 410.275C139.506 408.712 138.239 407.443 136.675 407.443C135.112 407.443 133.844 408.711 133.844 410.275Z" fill="#73C3FD"/>
<path d="M130.656 266.072H118.783C118.783 266.072 120.844 277.048 120.844 283.507C120.844 289.966 111.812 315.284 124.72 315.284C137.626 315.284 128.595 289.965 128.595 283.507C128.594 277.047 130.656 266.072 130.656 266.072Z" fill="#F6BD3D"/>
<path d="M85.5078 292.029V299.744C85.5078 308.29 92.5005 315.283 101.048 315.283H108.763C117.309 315.283 124.302 308.29 124.302 299.744V292.029H85.5078Z" fill="#73C3FD"/>
<path d="M250.453 363.859C250.453 372.809 260.477 380.132 272.728 380.132H283.786C296.038 380.132 306.061 372.809 306.061 363.859H250.453Z" fill="#F6BD3D"/>
<path d="M543.495 350.759C536.788 356.234 527.531 366.259 519.049 380.363C513.399 389.756 509.994 399.598 508.499 412.6C508.531 397.881 508.577 382.067 508.628 367.142C510.332 363.301 514.223 354.45 517.015 347.456C526.329 324.12 529.798 318.382 538.176 298.254C549.349 271.407 560.798 239.552 557.52 242.098C550.84 247.284 525.239 295.223 522.471 302.085C512.953 325.688 510.302 342.892 508.655 359.495C508.706 345.477 508.761 332.605 508.815 322.673C508.987 290.279 509.538 279.824 509.807 276.6C510.842 274.962 512.066 273.052 512.778 272.023C518.791 263.328 521.111 255.92 526.777 242.951C534.807 224.574 541.721 191.947 539.7 193.593C531.283 200.445 524.643 215.177 515.919 233.948C507.196 252.719 509.689 263.513 507.959 279.545C507.595 282.691 507.317 294.563 507.116 311.018C504.853 293.488 500.609 281.936 492.865 271.439C483.339 258.528 474.124 249.806 467.363 245.25C460.602 240.696 479.038 272.412 487.855 286.255C495.707 298.583 502.939 309.461 507.017 320.175C506.8 342.475 506.7 370.714 506.7 397.001C504.678 385.038 501.376 372.157 496.97 362.182C491.676 350.197 483.531 331.815 477.048 325.58C475.49 324.083 483.827 359.833 489.176 369.34C494.526 378.846 498.453 387.805 501.821 393.194C502.607 394.451 505.213 399.299 506.702 402.087C506.716 434.177 506.88 462.493 507.159 472.131H508.545C508.45 469.644 508.435 453.321 508.464 431.715C511.803 419.984 519.438 406.598 525.738 394.385C532.615 381.053 550.204 345.283 543.495 350.759Z" fill="#F6BD3D"/>
<path fill-rule="evenodd" clip-rule="evenodd" d="M530.598 457.048H533.941L535.435 443.779H480.291L481.785 457.048H485.127L487.803 491.793H527.922L530.598 457.048Z" fill="#73C3FD"/>
<path d="M159.053 96.6367H87.3066V175.419H159.053V96.6367Z" fill="#F6BD3D"/>
<path d="M166.824 96.6367H92.7148V175.419H166.824V96.6367Z" fill="#73C3FD"/>
<path d="M160.613 169.211V102.846L98.9211 102.846L98.9211 169.211H160.613Z" fill="white"/>
<path opacity="0.7" d="M145.662 153.126V118.932H113.877V153.126H145.662Z" fill="#73C3FD"/>
<path d="M524.864 105.82H458.215V179.007H524.864V105.82Z" fill="#F6BD3D"/>
<path d="M532.083 105.82H463.238V179.007H532.083V105.82Z" fill="#73C3FD"/>
<path d="M526.316 173.239V111.588L469.007 111.588V173.239H526.316Z" fill="white"/>
<path opacity="0.7" d="M497.66 160.293C507.535 160.293 515.539 152.289 515.539 142.414C515.539 132.54 507.535 124.535 497.66 124.535C487.786 124.535 479.781 132.54 479.781 142.414C479.781 152.289 487.786 160.293 497.66 160.293Z" fill="#73C3FD"/>
<path d="M233.586 143.613H180.363V202.056H233.586V143.613Z" fill="#F6BD3D"/>
<path d="M239.351 143.613H184.375V202.056H239.351V143.613Z" fill="#73C3FD"/>
<path d="M234.746 197.45V148.219H188.982V197.45H234.746Z" fill="white"/>
<path opacity="0.7" d="M211.863 160.389L199.348 182.068H224.379L211.863 160.389Z" fill="#73C3FD"/>
<path opacity="0.7" d="M320 547.278C457.065 547.278 568.178 540.789 568.178 532.784C568.178 524.78 457.065 518.291 320 518.291C182.935 518.291 71.8223 524.78 71.8223 532.784C71.8223 540.789 182.935 547.278 320 547.278Z" fill="#73C3FD"/>
<path d="M447.034 209.195L434.338 204.047C434.338 204.047 417.583 234.604 412.784 236.147C406.254 238.246 392.748 244.081 384.723 245.175C383.641 246.439 381.857 250.428 382.027 251.882C392.794 255.472 416.449 250.704 421.512 246.945C433.055 238.37 447.034 209.195 447.034 209.195Z" fill="#E58A7B"/>
<path d="M450.943 202.26C453.304 211.014 440.48 228.598 440.48 228.598L423.633 219.147C423.633 219.147 426.774 211.919 430.619 204.558C436.828 192.671 448.246 192.27 450.943 202.26Z" fill="#307FF4"/>
<path opacity="0.2" d="M450.943 202.26C453.304 211.014 440.48 228.598 440.48 228.598L423.633 219.147C423.633 219.147 426.774 211.919 430.619 204.558C436.828 192.671 448.246 192.27 450.943 202.26Z" fill="#171D34"/>
<path opacity="0.2" d="M430.352 222.912L436.968 226.621L438.125 206.312C434.285 209.272 431.561 218.177 430.352 222.912Z" fill="#171D34"/>
<path d="M439.887 195.666C439.887 195.666 426.806 224.769 434.433 278.965C449.964 278.965 478.421 278.965 485.978 278.965C486.797 271.052 484.089 232.452 493.907 195.17C493.907 195.17 485.174 193.397 476.779 192.991C470.211 192.674 460.688 192.464 454.867 192.993C447.192 193.689 439.887 195.666 439.887 195.666Z" fill="#307FF4"/>
<path opacity="0.2" d="M439.887 195.666C439.887 195.666 426.806 224.769 434.433 278.965C449.964 278.965 478.421 278.965 485.978 278.965C486.797 271.052 484.089 232.452 493.907 195.17C493.907 195.17 485.174 193.397 476.779 192.991C470.211 192.674 460.688 192.464 454.867 192.993C447.192 193.689 439.887 195.666 439.887 195.666Z" fill="#171D34"/>
<path opacity="0.3" d="M427.934 533.943C427.853 535.318 447.396 536.432 471.584 536.432C495.773 536.432 515.446 535.318 515.527 533.943C515.607 532.569 496.064 531.455 471.876 531.455C447.688 531.454 428.014 532.569 427.934 533.943Z" fill="#171D34"/>
<path d="M463.54 499.403L454.367 502.938L462.233 523.353L471.405 519.819L463.54 499.403Z" fill="#E58A7B"/>
<path d="M503.104 524.103H493.467L489.932 501.785H499.569L503.104 524.103Z" fill="#E58A7B"/>
<path d="M492.848 522.986H503.675C504.069 522.986 504.395 523.26 504.457 523.644L505.859 532.21C506.005 533.098 505.257 533.939 504.347 533.924C500.571 533.859 498.747 533.637 493.987 533.637C491.058 533.637 485.005 533.942 480.959 533.942C477.003 533.942 476.62 529.942 478.298 529.58C485.818 527.955 488.747 525.715 491.249 523.579C491.7 523.194 492.272 522.986 492.848 522.986Z" fill="#171D34"/>
<path d="M460.764 519.613L471.031 516.628C471.415 516.517 471.81 516.682 471.98 517.026L475.785 524.701C476.179 525.496 475.713 526.494 474.822 526.738C471.104 527.753 468.604 528.388 463.948 529.741C460.732 530.675 457.46 532.198 454.282 533.212C452.082 533.913 446.914 533.942 444.238 533.942C440.281 533.942 439.399 529.77 441.095 529.579C445.387 529.098 445.963 529.321 448.332 528.133C452.249 526.168 455.279 524.541 458.67 520.989C459.261 520.372 459.954 519.849 460.764 519.613Z" fill="#171D34"/>
<path d="M386.346 245.083L375.741 240.621L371.375 252.369C371.375 252.369 377.495 253.479 384.483 252.369L386.346 245.083Z" fill="#E58A7B"/>
<path d="M367.86 240.332L367.58 248.149L371.375 252.368L375.741 240.62L367.86 240.332Z" fill="#E58A7B"/>
<path d="M463.575 499.381L454.4 502.922L458.462 513.443L467.636 509.902L463.575 499.381Z" fill="#CF6F64"/>
<path d="M499.573 501.791H489.932L491.759 513.294H501.4L499.573 501.791Z" fill="#CF6F64"/>
<path opacity="0.2" d="M432.797 264.305C432.981 266.62 433.205 268.987 433.48 271.42L471.81 258.977C477.795 257.188 483.004 253.426 486.556 248.284C486.7 244.864 486.897 241.274 487.187 237.524C487.318 235.697 487.476 233.828 487.647 231.935C487.832 229.962 488.042 227.949 488.278 225.924L432.797 264.305Z" fill="#171D34"/>
<path d="M445.311 222.322L444.006 222.167C444.766 215.78 449.534 210.731 454.571 210.852L454.533 212.168C450.184 212.041 445.995 216.594 445.311 222.322Z" fill="white"/>
<path d="M452.132 234.142C452.061 234.142 451.989 234.141 451.916 234.139L451.954 232.823C456.356 232.985 460.492 228.396 461.176 222.668L462.481 222.824C461.731 229.12 457.114 234.142 452.132 234.142Z" fill="white"/>
<path d="M476.054 168.318C474.258 175.369 472.122 188.286 476.778 192.99C476.778 192.99 473.526 200.142 460.425 200.142C448.453 200.142 454.866 192.99 454.866 192.99C462.838 191.113 462.977 185.28 461.929 179.801L476.054 168.318Z" fill="#E58A7B"/>
<path d="M470.297 173.004L461.938 179.797C462.19 181.093 462.369 182.408 462.386 183.686C464.829 186.119 469.734 179.954 470.237 176.809C470.487 175.243 470.51 173.735 470.297 173.004Z" fill="#CF6F64"/>
<path d="M447.57 168.231C448.795 170.425 450.957 171.791 453 172.245C456.073 172.93 457.618 170.103 456.771 167.257C456.008 164.696 453.49 161.254 450.402 161.844C447.359 162.427 446.169 165.723 447.57 168.231Z" fill="#CF6F64"/>
<path d="M452.642 145.665C447.854 147.859 446.167 166.876 452.186 169.688C458.204 172.499 461.709 141.511 452.642 145.665Z" fill="#171D34"/>
<path d="M477.515 157.708C476.37 167.255 476.182 172.873 471.073 177.772C463.388 185.143 451.86 180.772 450.141 171.242C448.594 162.665 450.728 148.494 460.296 144.695C469.721 140.952 478.661 148.162 477.515 157.708Z" fill="#E58A7B"/>
<path d="M461.79 150.613C468.871 148.802 474.083 147.568 472.223 153.479C469.745 161.354 466.773 168.982 470.76 169.338C473.185 169.555 483.938 164.991 482.572 160.378C481.383 156.359 486.381 155.275 487.303 153.226C490.622 145.845 481.139 146.804 482.826 142.338C484.469 137.99 475.185 130.641 470.041 134.232C461.715 140.044 447.404 139.961 454.928 130.427C460.315 123.6 450.703 125.002 450.703 125.002C450.703 125.002 456.509 128.446 446.736 133.771C436.376 139.413 445.859 154.689 461.79 150.613Z" fill="#171D34"/>
<path d="M481.212 168.231C479.729 170.425 477.408 171.791 475.311 172.245C472.157 172.93 470.945 170.103 472.125 167.257C473.189 164.696 476.11 161.254 479.129 161.844C482.103 162.427 482.907 165.723 481.212 168.231Z" fill="#E58A7B"/>
<path d="M434.433 278.964C434.433 278.964 425.782 356.4 425.106 385.789C424.404 416.358 454.428 511.733 454.428 511.733L469.802 505.277C469.802 505.277 451.901 418.144 454.388 388.121C457.099 355.393 468.316 278.963 468.316 278.963H434.433V278.964Z" fill="#307FF4"/>
<path opacity="0.2" d="M455.934 300.227C449.042 314.537 453.685 342.831 457.42 359.602C458.841 347.764 460.524 334.914 462.13 323.023C461.972 304.739 460.551 290.626 455.934 300.227Z" fill="#171D34"/>
<path d="M469.107 500.26C469.179 500.23 470.93 505.16 470.93 505.16L453.21 512.6L450.418 507.41L469.107 500.26Z" fill="#307FF4"/>
<path d="M452.719 278.965C452.719 278.965 459.338 352.613 463.724 380.205C468.528 410.42 487.398 511.067 487.398 511.067H505.049C505.049 511.067 494.472 412.859 492.474 382.944C490.306 350.476 485.978 278.965 485.978 278.965H452.719Z" fill="#307FF4"/>
<path d="M505.319 506.468C505.394 506.468 505.909 511.401 505.909 511.401H486.508L485.123 505.738L505.319 506.468Z" fill="#307FF4"/>
<path opacity="0.2" d="M498.555 500.637C498.472 500.637 498.402 500.575 498.393 500.491C498.297 499.598 488.759 410.934 486.965 384.056C485.018 354.889 481.102 290.217 481.063 289.567C481.058 289.476 481.127 289.398 481.216 289.393C481.22 289.393 481.224 289.393 481.227 289.393C481.312 289.393 481.387 289.46 481.392 289.547C481.43 290.196 485.346 354.868 487.294 384.033C489.087 410.906 498.623 499.563 498.719 500.456C498.729 500.547 498.664 500.627 498.574 500.636C498.567 500.637 498.56 500.637 498.555 500.637Z" fill="#171D34"/>
<path d="M462.878 160.377C462.832 161.154 462.384 161.785 461.876 161.785C461.368 161.785 460.993 161.155 461.039 160.377C461.084 159.6 461.533 158.969 462.041 158.969C462.549 158.969 462.924 159.6 462.878 160.377Z" fill="#171D34"/>
<path d="M454.093 160.377C454.047 161.154 453.599 161.785 453.091 161.785C452.583 161.785 452.208 161.155 452.254 160.377C452.3 159.6 452.748 158.969 453.256 158.969C453.764 158.969 454.139 159.6 454.093 160.377Z" fill="#171D34"/>
<path d="M456.863 160.764C456.863 160.764 454.833 165.249 452.76 167.412C454.06 168.696 456.432 168.108 456.432 168.108L456.863 160.764Z" fill="#FB554A"/>
<path d="M457.087 171.369C456.961 171.369 456.864 171.267 456.872 171.141C456.879 171.016 456.988 170.914 457.113 170.914C460.526 170.914 462.258 168.53 462.276 168.506C462.352 168.401 462.496 168.37 462.596 168.439C462.697 168.508 462.719 168.649 462.643 168.756C462.566 168.861 460.744 171.369 457.087 171.369Z" fill="#171D34"/>
<path d="M464.443 158.013C464.311 158.064 464.162 158.056 464.039 157.978C462.36 156.921 460.795 157.63 460.779 157.639C460.564 157.749 460.279 157.653 460.183 157.425C460.087 157.197 460.199 156.925 460.432 156.816C460.516 156.776 462.475 155.886 464.559 157.198C464.768 157.33 464.819 157.611 464.676 157.826C464.617 157.913 464.533 157.977 464.443 158.013Z" fill="#171D34"/>
<path d="M450.695 155.46C450.632 155.442 450.571 155.41 450.521 155.361C450.342 155.195 450.342 154.907 450.521 154.718C452.308 152.83 454.379 153.118 454.466 153.13C454.709 153.157 454.872 153.399 454.819 153.649C454.767 153.897 454.526 154.069 454.28 154.033C454.211 154.023 452.595 153.816 451.168 155.323C451.041 155.459 450.855 155.506 450.695 155.46Z" fill="#171D34"/>
<path d="M498.854 207.767L485.538 204.223C485.538 204.223 472.482 236.361 467.87 238.459C461.594 241.314 445.704 251.191 438.951 255.954C438.576 257.546 438.871 261.791 439.72 262.946C451.203 260.86 473.295 252.367 477.902 248.05C488.405 238.208 498.854 207.767 498.854 207.767Z" fill="#E58A7B"/>
<path d="M489.563 524.67C488.829 524.67 488.151 524.545 487.736 524.18C487.407 523.89 487.273 523.483 487.335 522.973C487.381 522.593 487.593 522.413 487.764 522.328C488.851 521.783 491.858 523.69 492.197 523.91C492.271 523.96 492.307 524.051 492.288 524.142C492.267 524.231 492.195 524.304 492.105 524.325C491.425 524.486 490.453 524.67 489.563 524.67ZM488.248 522.676C488.129 522.676 488.028 522.694 487.948 522.734C487.886 522.766 487.81 522.825 487.79 523.001C487.745 523.365 487.829 523.636 488.051 523.831C488.551 524.275 489.806 524.334 491.462 524.004C490.41 523.374 488.987 522.676 488.248 522.676Z" fill="#307FF4"/>
<path d="M492.051 524.331C492.014 524.331 491.976 524.322 491.943 524.304C490.977 523.761 489.173 521.65 489.441 520.575C489.488 520.38 489.652 520.044 490.202 519.977C490.562 519.932 490.881 520.032 491.157 520.269C492.224 521.184 492.29 523.966 492.293 524.083C492.295 524.167 492.25 524.247 492.177 524.292C492.138 524.318 492.094 524.331 492.051 524.331ZM490.336 520.424C490.302 520.424 490.268 520.428 490.232 520.432C489.934 520.467 489.899 520.604 489.885 520.662C489.726 521.297 490.862 522.893 491.809 523.646C491.744 522.833 491.531 521.211 490.849 520.625C490.691 520.489 490.524 520.424 490.336 520.424Z" fill="#307FF4"/>
<path d="M455.574 523.077C454.632 523.305 453.733 523.373 453.16 523.062C452.795 522.865 452.585 522.534 452.537 522.085C452.507 521.816 452.598 521.582 452.797 521.407C453.828 520.489 458.004 521.476 458.477 521.591C458.569 521.614 458.635 521.693 458.638 521.791C458.642 521.888 458.586 521.979 458.495 522.021C457.721 522.372 456.62 522.824 455.574 523.077ZM453.493 521.556C453.317 521.599 453.179 521.659 453.088 521.739C453.008 521.811 452.978 521.893 452.991 522.011C453.024 522.315 453.157 522.528 453.396 522.658C454.075 523.028 455.653 522.735 457.685 521.885C456.258 521.586 454.391 521.338 453.493 521.556Z" fill="#307FF4"/>
<path d="M458.452 522.035C458.42 522.042 458.388 522.042 458.356 522.038C457.116 521.808 454.466 520.336 454.442 519.234C454.435 518.977 454.557 518.623 455.164 518.413C455.604 518.248 456.057 518.282 456.482 518.49C457.873 519.176 458.6 521.634 458.631 521.738C458.653 521.814 458.632 521.899 458.576 521.962C458.541 521.999 458.498 522.023 458.452 522.035ZM455.425 518.801C455.381 518.811 455.336 518.827 455.29 518.841C454.894 518.98 454.897 519.143 454.897 519.197C454.913 519.857 456.752 521.073 458.051 521.483C457.793 520.776 457.171 519.35 456.259 518.901C455.985 518.765 455.71 518.732 455.425 518.801Z" fill="#307FF4"/>
<path d="M440.035 255.197L426.687 261.341L425.139 265.107L430.072 268.426C430.072 268.426 439.278 267.424 441.9 261.509L440.035 255.197Z" fill="#E58A7B"/>
<path d="M440.604 263.164C439.769 258.205 438.138 255.944 438.123 255.922L440.227 254.344C440.309 254.453 442.243 257.064 443.198 262.728L440.604 263.164Z" fill="#171D34"/>
<path d="M442.877 257.013C443.31 258.085 442.615 259.375 441.323 259.897C440.032 260.419 438.635 259.974 438.203 258.903C437.77 257.831 438.465 256.541 439.757 256.019C441.047 255.498 442.445 255.942 442.877 257.013Z" fill="#171D34"/>
<path d="M417.668 266.304L419.441 268.1L431.418 262.977L426.687 261.344L417.668 266.304Z" fill="#E58A7B"/>
<path opacity="0.2" d="M469.107 500.26C469.179 500.23 470.93 505.16 470.93 505.16L453.21 512.6L450.418 507.41L469.107 500.26Z" fill="#171D34"/>
<path opacity="0.2" d="M505.319 506.468C505.394 506.468 505.909 511.401 505.909 511.401H486.508L485.123 505.738L505.319 506.468Z" fill="#171D34"/>
<path d="M502.325 204.083C505.846 215.433 492.136 230.938 492.136 230.938L473.131 223.181C473.131 223.181 475.809 214.935 480.904 203.887C486.698 191.332 498.771 192.628 502.325 204.083Z" fill="#307FF4"/>
<path opacity="0.2" d="M502.325 204.083C505.846 215.433 492.136 230.938 492.136 230.938L473.131 223.181C473.131 223.181 475.809 214.935 480.904 203.887C486.698 191.332 498.771 192.628 502.325 204.083Z" fill="#171D34"/>
<path d="M313.439 90.3301H305.264V91.6459H313.439V90.3301Z" fill="#307FF4"/>
<path d="M419.331 142.504L418.342 164.467L419.655 164.526L420.644 142.563L419.331 142.504Z" fill="#307FF4"/>
<path d="M416.785 96.248H265.746L251.686 410.768H402.724L416.785 96.248Z" fill="#307FF4"/>
<path opacity="0.56" d="M412.276 100.564H261.237L247.178 415.085H398.216L412.276 100.564Z" fill="#F5F9FF"/>
<path opacity="0.07" d="M407.766 104.881H256.729L242.668 419.401H393.707L407.766 104.881Z" fill="#307FF4"/>
<path d="M390.574 242.057H261.657L260.58 266.128H389.499L390.574 242.057Z" fill="white"/>
<path d="M332.562 224.5H262.44L261.959 235.27H332.08L332.562 224.5Z" fill="#307FF4"/>
<path d="M387.671 307.008H258.752L257.676 331.079H386.595L387.671 307.008Z" fill="white"/>
<path opacity="0.47" d="M364.029 363.566H277.336L276.047 392.416H362.739L364.029 363.566Z" fill="#307FF4"/>
<path d="M358.232 396.885H271.54C271.499 396.885 271.459 396.867 271.43 396.838C271.402 396.808 271.386 396.767 271.389 396.726L272.679 367.876C272.682 367.794 272.75 367.73 272.83 367.73H359.522C359.563 367.73 359.603 367.748 359.632 367.778C359.66 367.807 359.676 367.848 359.673 367.889L358.383 396.739C358.38 396.821 358.312 396.885 358.232 396.885ZM271.699 396.58H358.086L359.361 368.035H272.974L271.699 396.58Z" fill="white"/>
<path d="M317.413 289.453H259.538L259.057 300.223H316.931L317.413 289.453Z" fill="#307FF4"/>
<path d="M362.376 164.326C362.054 171.534 359.441 178.19 355.253 183.597C348.929 191.791 339.023 197.119 328.118 197.119C317.214 197.119 307.797 191.791 302.206 183.597C298.502 178.19 296.484 171.535 296.807 164.326C297.617 146.214 312.952 131.535 331.051 131.535C349.163 131.534 363.185 146.214 362.376 164.326Z" fill="white"/>
<path d="M365.46 138.399C365.374 140.313 364.68 142.082 363.567 143.519C361.886 145.696 359.254 147.111 356.356 147.111C353.458 147.111 350.957 145.696 349.471 143.519C348.487 142.082 347.951 140.313 348.036 138.399C348.251 133.586 352.327 129.686 357.136 129.686C361.949 129.686 365.675 133.586 365.46 138.399Z" fill="#307FF4"/>
<path d="M275.539 254.093C275.444 256.223 273.639 257.95 271.509 257.95C269.379 257.95 267.729 256.223 267.824 254.093C267.919 251.963 269.724 250.236 271.854 250.236C273.985 250.235 275.635 251.963 275.539 254.093Z" fill="#171D34"/>
<path d="M292.802 254.093C292.708 256.223 290.903 257.95 288.773 257.95C286.643 257.95 284.993 256.223 285.088 254.093C285.183 251.963 286.987 250.236 289.117 250.236C291.247 250.236 292.898 251.963 292.802 254.093Z" fill="#171D34"/>
<path d="M310.068 254.093C309.973 256.223 308.169 257.95 306.039 257.95C303.909 257.95 302.259 256.223 302.353 254.093C302.448 251.963 304.253 250.236 306.383 250.236C308.513 250.235 310.163 251.963 310.068 254.093Z" fill="#171D34"/>
<path d="M272.636 319.043C272.542 321.173 270.737 322.9 268.607 322.9C266.477 322.9 264.827 321.173 264.922 319.043C265.017 316.914 266.821 315.186 268.951 315.186C271.081 315.187 272.731 316.914 272.636 319.043Z" fill="#171D34"/>
<path d="M289.9 319.043C289.805 321.173 288.001 322.9 285.871 322.9C283.741 322.9 282.091 321.173 282.186 319.043C282.28 316.914 284.085 315.186 286.215 315.186C288.346 315.187 289.995 316.914 289.9 319.043Z" fill="#171D34"/>
<path d="M307.164 319.043C307.069 321.173 305.264 322.9 303.134 322.9C301.004 322.9 299.354 321.173 299.449 319.043C299.544 316.914 301.349 315.186 303.479 315.186C305.609 315.186 307.26 316.914 307.164 319.043Z" fill="#171D34"/>
<path d="M324.427 319.043C324.333 321.173 322.528 322.9 320.398 322.9C318.268 322.9 316.618 321.173 316.713 319.043C316.808 316.914 318.612 315.186 320.742 315.186C322.872 315.187 324.522 316.914 324.427 319.043Z" fill="#171D34"/>
<path d="M341.691 319.043C341.596 321.173 339.792 322.9 337.662 322.9C335.532 322.9 333.882 321.173 333.977 319.043C334.071 316.914 335.876 315.186 338.006 315.186C340.136 315.187 341.786 316.914 341.691 319.043Z" fill="#171D34"/>
<path d="M343.342 153.366C343.014 160.69 336.811 166.628 329.486 166.628C322.162 166.628 316.489 160.69 316.816 153.366C317.144 146.04 323.347 140.104 330.672 140.104C337.996 140.104 343.669 146.041 343.342 153.366Z" fill="#307FF4"/>
<path d="M355.252 183.596C348.928 191.791 339.022 197.118 328.117 197.118C317.213 197.118 307.796 191.791 302.205 183.596C308.427 177.401 318.275 173.377 329.18 173.377C340.096 173.377 349.584 177.401 355.252 183.596Z" fill="#307FF4"/>
<path opacity="0.1" d="M343.342 153.366C343.014 160.69 336.811 166.628 329.486 166.628C322.162 166.628 316.489 160.69 316.816 153.366C317.144 146.04 323.347 140.104 330.672 140.104C337.996 140.104 343.669 146.041 343.342 153.366Z" fill="white"/>
<path opacity="0.1" d="M355.252 183.596C348.928 191.791 339.022 197.118 328.117 197.118C317.213 197.118 307.796 191.791 302.205 183.596C308.427 177.401 318.275 173.377 329.18 173.377C340.096 173.377 349.584 177.401 355.252 183.596Z" fill="white"/>
<path d="M166.921 271.928C165.709 274.586 164.432 277.511 163.312 280.364C162.184 283.244 161.057 286.127 160.075 289.05C158.168 294.897 156.38 300.798 155.499 306.715L155.208 308.6C155.184 308.826 155.201 309.149 155.301 309.553C155.488 310.366 155.995 311.454 156.708 312.521C158.149 314.681 160.192 316.867 162.395 318.897C164.592 320.959 166.98 322.932 169.46 324.804C171.917 326.694 174.507 328.543 177.042 330.276L174.656 334.768C168.566 332.105 162.894 328.922 157.4 324.927C154.699 322.869 152.032 320.653 149.669 317.658C148.504 316.148 147.359 314.441 146.608 312.189C146.245 311.065 145.992 309.794 145.99 308.419C145.999 308.103 146.016 307.659 146.038 307.446L146.1 306.81L146.228 305.538C146.925 298.753 148.427 292.231 150.408 285.905C151.406 282.746 152.471 279.619 153.687 276.551C154.928 273.462 156.153 270.498 157.706 267.389L166.921 271.928Z" fill="#E58A7B"/>
<path d="M175.25 329.515L184.295 324.926L181.959 334.866C181.959 334.866 175.748 336.601 172.859 333.588L175.25 329.515Z" fill="#E58A7B"/>
<path d="M192.577 326.558L190.171 334.775L181.957 334.868L184.294 324.926L192.577 326.558Z" fill="#E58A7B"/>
<path d="M205.354 224.002C205.354 224.002 206.138 226.887 207.382 229.062C206.314 230.06 205.354 229.713 205.354 229.713V224.002Z" fill="#FB554A"/>
<path d="M205.086 224.078C205.615 224.078 206.044 223.422 206.044 222.611C206.044 221.801 205.615 221.145 205.086 221.145C204.556 221.145 204.127 221.801 204.127 222.611C204.127 223.422 204.556 224.078 205.086 224.078Z" fill="#171D34"/>
<path d="M204.852 221.188L206.797 220.627C206.797 220.627 205.799 222.148 204.852 221.188Z" fill="#171D34"/>
<path d="M180.349 233.391C181.518 239.349 182.684 250.267 178.514 254.243C178.514 254.243 180.143 260.287 191.215 260.287C203.39 260.287 197.034 254.243 197.034 254.243C190.39 252.656 190.561 247.727 191.718 243.097L180.349 233.391Z" fill="#E58A7B"/>
<path d="M177.117 219.83C177.728 229.778 177.774 234.001 182.799 239.107C190.356 246.787 202.441 243.861 204.815 233.932C206.951 224.993 205.593 210.227 195.856 206.268C186.262 202.368 176.505 209.882 177.117 219.83Z" fill="#E58A7B"/>
<path d="M178.097 208.574C173.109 210.392 166.454 209.04 169.065 224.437C171.83 240.74 167.574 246.103 167.574 246.103C167.574 246.103 186.508 250.136 205.836 245.863C205.836 245.863 199.935 235.543 201.592 228.013C203.704 218.409 202.029 214.86 202.029 214.86C202.029 214.86 185.112 206.016 178.097 208.574Z" fill="#171D34"/>
<path d="M199.219 225.015C199.199 226.986 199.89 228.971 200.786 230.35C202.134 232.425 203.734 231.58 204.134 229.426C204.495 227.488 204.228 224.073 202.501 222.748C200.801 221.445 199.244 222.762 199.219 225.015Z" fill="#E58A7B"/>
<path d="M173.764 210.316C172.324 206.29 179.165 200.099 193.626 202.674C208.088 205.25 208.723 217.277 208.723 217.277L205.796 213.804L205.928 217.461L191.066 220.317L173.764 210.316Z" fill="#171D34"/>
<path d="M174.991 254.921C174.791 253.691 175.618 252.532 176.847 252.33C181.35 251.587 191.585 250.081 196.737 250.794C200.564 251.324 201.576 253.559 201.738 255.387C201.858 256.742 200.737 257.885 199.377 257.824L177.119 256.818C176.051 256.769 175.161 255.978 174.991 254.921Z" fill="#307FF4"/>
<path opacity="0.6" d="M174.991 254.921C174.791 253.691 175.618 252.532 176.847 252.33C181.35 251.587 191.585 250.081 196.737 250.794C200.564 251.324 201.576 253.559 201.738 255.387C201.858 256.742 200.737 257.885 199.377 257.824L177.119 256.818C176.051 256.769 175.161 255.978 174.991 254.921Z" fill="#171D34"/>
<path d="M187.854 478.544L196.103 484.27L209.917 465.549L201.667 459.822L187.854 478.544Z" fill="#E58A7B"/>
<path d="M168.596 478.166L177.323 483.136L189.548 463.336L180.822 458.367L168.596 478.166Z" fill="#E58A7B"/>
<path d="M209.909 465.554L202.791 475.205L194.539 469.475L201.657 459.824L209.909 465.554Z" fill="#CF6F64"/>
<path d="M180.816 458.371L189.546 463.343L183.239 473.547L174.51 468.575L180.816 458.371Z" fill="#CF6F64"/>
<path d="M194.813 317.426C194.813 317.426 227.044 358.047 220.997 396.891C216.112 428.266 187.828 470.751 187.828 470.751L174.529 464.141C174.529 464.141 188.979 435.906 198.468 405.976C202.447 393.424 200.751 379.597 193.312 368.732C176.985 344.886 150.829 359.074 168.423 317.427L194.813 317.426Z" fill="#307FF4"/>
<path opacity="0.6" d="M194.813 317.426C194.813 317.426 227.044 358.047 220.997 396.891C216.112 428.266 187.828 470.751 187.828 470.751L174.529 464.141C174.529 464.141 188.979 435.906 198.468 405.976C202.447 393.424 200.751 379.597 193.312 368.732C176.985 344.886 150.829 359.074 168.423 317.427L194.813 317.426Z" fill="#171D34"/>
<path opacity="0.4" d="M210.622 343.528L205.939 338.871C205.939 339.24 215.016 395.26 217.567 411.004C219.106 406.177 220.29 401.416 221 396.891C223.959 377.871 217.737 358.418 210.622 343.528Z" fill="#171D34"/>
<path d="M209.207 317.425C209.207 317.425 248.016 368.471 249.108 399.083C250.023 424.731 206.836 474.276 206.836 474.276L194.298 466.165C194.298 466.165 219.551 430.943 225.909 402.151C223.485 373.652 171.455 317.424 171.455 317.424H209.207V317.425Z" fill="#307FF4"/>
<path opacity="0.6" d="M209.207 317.425C209.207 317.425 248.016 368.471 249.108 399.083C250.023 424.731 206.836 474.276 206.836 474.276L194.298 466.165C194.298 466.165 219.551 430.943 225.909 402.151C223.485 373.652 171.455 317.424 171.455 317.424H209.207V317.425Z" fill="#171D34"/>
<path d="M161.194 256.525C157.038 257.505 153.066 272.593 153.066 272.593L169.275 283.413C169.275 283.413 174.677 271.488 172.791 266.264C170.826 260.824 166.442 255.287 161.194 256.525Z" fill="#307FF4"/>
<path opacity="0.2" d="M164.365 266.232L163.232 279.377L169.266 283.415C169.266 283.415 172.094 277.167 172.936 271.722L164.365 266.232Z" fill="#171D34"/>
<path d="M214.006 256.816C214.006 256.816 218.79 258.501 209.207 317.425C193.023 317.425 176.297 317.425 168.423 317.425C169.108 300.826 169.127 290.59 161.193 256.525C161.193 256.525 169.739 254.667 178.512 254.243C185.375 253.913 190.998 253.693 197.032 254.245C204.986 254.97 214.006 256.816 214.006 256.816Z" fill="#307FF4"/>
<path d="M218.149 266.172C219.073 268.725 220.051 271.487 221.068 274.14C222.045 276.831 223.059 279.518 224.104 282.193L227.243 290.233L228.037 292.243L228.435 293.247L228.634 293.749C228.669 293.839 228.663 293.831 228.65 293.822C228.595 293.798 228.547 293.544 227.754 293.023C227.365 292.781 226.712 292.548 226.082 292.536C225.448 292.513 224.947 292.668 224.659 292.793C224.081 293.068 224.072 293.187 224.085 293.168C224.122 293.149 224.241 293.035 224.372 292.877C224.931 292.205 225.607 291.047 226.2 289.895C226.805 288.721 227.377 287.467 227.947 286.195C229.08 283.644 230.11 280.981 231.159 278.315C232.195 275.641 233.172 272.927 234.14 270.206L237.053 262.037L241.985 263.28C241.009 269.123 239.747 274.846 238.243 280.589C237.509 283.467 236.659 286.32 235.687 289.2C235.203 290.643 234.662 292.081 234.04 293.548C233.393 295.027 232.752 296.484 231.608 298.178C231.307 298.607 230.967 299.06 230.492 299.559C229.99 300.051 229.41 300.644 228.159 301.206C227.537 301.474 226.672 301.711 225.674 301.671C224.679 301.643 223.671 301.29 222.973 300.857C221.555 299.951 221.064 299.088 220.645 298.44C220.45 298.115 220.284 297.78 220.168 297.538L219.925 297.041L219.439 296.048L218.471 294.06C217.207 291.396 215.967 288.719 214.794 286.012C213.631 283.298 212.499 280.569 211.4 277.82C210.35 275.028 209.31 272.323 208.385 269.354L218.149 266.172Z" fill="#E58A7B"/>
<path d="M214.006 256.816C218.909 257.983 224.416 272.468 224.416 272.468L209.847 284.883C209.847 284.883 200.405 269.089 202.316 263.874C204.305 258.443 207.602 255.29 214.006 256.816Z" fill="#307FF4"/>
<path d="M239.33 257.523L244.444 253.246L248.001 258.787L245.381 263.414C245.381 263.414 241.208 267.234 237.514 265.291C236.321 262.586 237.062 259.42 239.33 257.523Z" fill="#E58A7B"/>
<path d="M253.724 253.259L253.341 254.653L245.24 256.013L244.441 253.246L253.724 253.259Z" fill="#E58A7B"/>
<path d="M207.874 474.949L193.258 465.495L195.875 460.943L212.302 471.041L207.874 474.949Z" fill="#307FF4"/>
<path d="M183.018 482.465C181.855 482.465 180.326 481.728 179.399 481.213C179.316 481.167 179.268 481.076 179.279 480.98C179.288 480.887 179.353 480.807 179.443 480.777C179.837 480.652 183.304 479.59 184.286 480.414C184.441 480.545 184.614 480.785 184.559 481.186C184.487 481.717 184.244 482.092 183.837 482.295C183.601 482.412 183.322 482.465 183.018 482.465ZM180.139 481.068C181.729 481.877 183.009 482.176 183.624 481.87C183.887 481.739 184.038 481.495 184.089 481.122C184.116 480.921 184.045 480.833 183.98 480.779C183.464 480.345 181.542 480.683 180.139 481.068Z" fill="#171D34"/>
<path d="M179.516 481.243C179.452 481.243 179.391 481.217 179.346 481.171C179.287 481.109 179.265 481.022 179.288 480.941C179.322 480.823 180.12 478.043 181.435 477.409C181.786 477.241 182.141 477.232 182.49 477.377C183.043 477.61 183.098 478.014 183.078 478.233C182.989 479.384 180.643 480.974 179.572 481.235C179.555 481.24 179.535 481.243 179.516 481.243ZM181.997 477.752C181.879 477.752 181.76 477.781 181.64 477.839C180.856 478.217 180.198 479.717 179.884 480.629C181.01 480.156 182.547 478.899 182.602 478.197C182.611 478.084 182.586 477.935 182.303 477.817C182.202 477.774 182.099 477.752 181.997 477.752Z" fill="#171D34"/>
<path d="M201.303 487.997C199.862 487.997 197.852 486.145 196.753 485.007C196.682 484.934 196.666 484.825 196.71 484.734C196.757 484.645 196.872 484.594 196.954 484.605C197.461 484.67 201.912 485.272 202.541 486.529C202.661 486.772 202.651 487.031 202.511 487.278C202.276 487.692 201.934 487.931 201.498 487.986C201.435 487.993 201.37 487.997 201.303 487.997ZM197.595 485.179C199.213 486.75 200.626 487.621 201.439 487.512C201.723 487.476 201.938 487.324 202.098 487.042C202.159 486.935 202.165 486.84 202.115 486.741C201.773 486.058 199.396 485.468 197.595 485.179Z" fill="#171D34"/>
<path d="M197.735 485.139C197.406 485.139 197.112 485.118 196.88 485.075C196.798 485.059 196.729 485.002 196.7 484.924C196.672 484.844 196.686 484.755 196.739 484.689C196.812 484.601 198.544 482.513 200.18 482.37C200.692 482.33 201.126 482.466 201.497 482.783C202 483.215 201.966 483.599 201.848 483.845C201.442 484.697 199.23 485.139 197.735 485.139ZM197.405 484.659C198.835 484.738 201.121 484.263 201.419 483.64C201.445 483.587 201.52 483.429 201.189 483.146C200.912 482.909 200.592 482.81 200.222 482.844C199.148 482.938 197.949 484.078 197.405 484.659Z" fill="#171D34"/>
<path d="M179.867 479.895L169.01 476.825C168.615 476.714 168.217 476.897 168.053 477.267L164.388 485.506C164.008 486.361 164.536 487.421 165.452 487.663C169.255 488.668 171.142 488.961 175.916 490.311C178.854 491.142 183.058 492.66 187.115 493.806C191.081 494.927 192.52 491.003 190.934 490.162C183.821 486.392 183.261 483.808 181.315 480.944C180.964 480.429 180.446 480.059 179.867 479.895Z" fill="#307FF4"/>
<path d="M197.049 483.512L187.781 477.077C187.443 476.843 187.008 476.888 186.732 477.184L180.585 483.783C179.948 484.468 180.103 485.642 180.89 486.168C184.159 488.355 185.849 489.246 189.924 492.076C192.432 493.817 197.436 497.678 200.899 500.081C204.286 502.433 206.922 499.189 205.696 497.879C200.197 492.001 198.984 488.317 198.076 484.975C197.911 484.373 197.541 483.854 197.049 483.512Z" fill="#307FF4"/>
<path d="M189.535 471.598L172.822 463.292L174.553 458.77L192.391 467.513L189.535 471.598Z" fill="#307FF4"/>
<path d="M167.813 315.031L166.399 318.681C166.255 318.964 166.591 319.253 167.063 319.253H209.409C209.777 319.253 210.081 319.073 210.104 318.842L210.472 315.192C210.497 314.938 210.179 314.725 209.777 314.725H168.476C168.174 314.725 167.905 314.849 167.813 315.031Z" fill="#307FF4"/>
<path opacity="0.4" d="M167.813 315.031L166.399 318.681C166.255 318.964 166.591 319.253 167.063 319.253H209.409C209.777 319.253 210.081 319.073 210.104 318.842L210.472 315.192C210.497 314.938 210.179 314.725 209.777 314.725H168.476C168.174 314.725 167.905 314.849 167.813 315.031Z" fill="white"/>
<path d="M174.474 319.649H173.368C173.147 319.649 172.98 319.535 172.995 319.397L173.514 314.655C173.529 314.516 173.721 314.402 173.942 314.402H175.048C175.268 314.402 175.436 314.516 175.421 314.655L174.902 319.397C174.887 319.536 174.694 319.649 174.474 319.649Z" fill="#307FF4"/>
<path d="M200.595 319.649H199.489C199.269 319.649 199.101 319.535 199.116 319.397L199.635 314.655C199.65 314.516 199.842 314.402 200.063 314.402H201.169C201.389 314.402 201.557 314.516 201.542 314.655L201.023 319.397C201.008 319.536 200.815 319.649 200.595 319.649Z" fill="#307FF4"/>
<path opacity="0.7" d="M173.5 536.432C192.439 536.432 207.792 535.318 207.792 533.943C207.792 532.569 192.439 531.455 173.5 531.455C154.56 531.455 139.207 532.569 139.207 533.943C139.207 535.318 154.56 536.432 173.5 536.432Z" fill="#73C3FD"/>
<path d="M194.398 530.434C188.33 528.672 181.653 526.403 177.521 523.99C177.406 523.923 177.284 523.875 177.168 523.813V496.384H189.371C191.39 496.384 193.026 494.748 193.026 492.73C193.026 490.713 191.39 489.077 189.371 489.077H177.168V363.863H169.86V489.077H157.657C155.639 489.077 154.003 490.713 154.003 492.73C154.003 494.748 155.639 496.384 157.657 496.384H169.86V523.812C169.744 523.874 169.622 523.921 169.507 523.989C165.375 526.402 158.697 528.671 152.63 530.432C150.64 531.01 151.059 533.942 153.132 533.942H173.513H193.895C195.968 533.943 196.388 531.011 194.398 530.434Z" fill="#F6BD3D"/>
<path d="M196.277 377.917H150.753C147.107 377.917 144.123 374.934 144.123 371.287V357.753C144.123 354.107 147.107 351.123 150.753 351.123H196.277C199.923 351.123 202.907 354.107 202.907 357.753V371.287C202.907 374.934 199.923 377.917 196.277 377.917Z" fill="#307FF4"/>
<path d="M150.334 377.916V380.246C150.334 382.166 152.424 383.737 154.978 383.737H192.05C194.604 383.737 196.694 382.167 196.694 380.246V377.916H150.334Z" fill="#307FF4"/>
<path opacity="0.3" d="M150.334 377.916V380.246C150.334 382.166 152.424 383.737 154.978 383.737H192.05C194.604 383.737 196.694 382.167 196.694 380.246V377.916H150.334Z" fill="white"/>
</svg>
