<svg width="300" height="300" viewBox="0 0 300 300" fill="none" xmlns="http://www.w3.org/2000/svg">
<path d="M286.801 206.103C293.245 191.68 302.768 164.077 298.82 129.786C293.754 85.7904 269.162 51.16 245.278 31.727C166.024 -32.7578 21.3686 9.42534 2.36038 70.4193C-1.08816 81.4849 -0.0819442 92.1457 1.15625 105.264C5.09431 146.986 25.2854 159.337 38.9603 203.612C51.4052 243.904 39.2535 248.475 50.838 266.371C75.9678 305.194 148.213 306.961 197.871 288.183C216.945 280.97 263.217 258.879 286.801 206.103Z" fill="#99C1FB"/>
<path d="M287.779 71.8766C287.415 71.8766 287.05 71.8088 286.7 71.6728C285.939 71.3771 285.341 70.7968 285.014 70.0393C284.347 68.4937 285.039 66.6813 286.558 65.9998C287.291 65.6708 288.107 65.6492 288.856 65.9405C289.616 66.2362 290.215 66.8165 290.542 67.5743C291.208 69.1196 290.515 70.9315 288.998 71.6135C288.607 71.7886 288.193 71.8766 287.779 71.8766ZM287.777 66.8225C287.514 66.8225 287.251 66.8784 287.003 66.9896C286.022 67.43 285.577 68.6048 286.01 69.6087C286.221 70.0978 286.606 70.4713 287.093 70.661C287.569 70.8458 288.088 70.832 288.553 70.6231C289.533 70.1829 289.978 69.0077 289.545 68.0037C289.334 67.515 288.949 67.1412 288.462 66.9518C288.24 66.8656 288.008 66.8225 287.777 66.8225Z" fill="#171D34"/>
<path d="M275.366 55.2254C275.18 55.2254 274.999 55.1296 274.898 54.9576C274.845 54.8681 269.527 45.9135 258.404 35.4639C248.146 25.8255 230.709 12.9063 205.893 6.09265C205.604 6.01352 205.434 5.71454 205.514 5.42555C205.593 5.13623 205.893 4.96684 206.181 5.04613C231.229 11.9237 248.827 24.9692 259.179 34.7021C270.403 45.2546 275.781 54.3177 275.834 54.4078C275.985 54.6664 275.899 54.9988 275.641 55.1505C275.554 55.2013 275.46 55.2254 275.366 55.2254Z" fill="#171D34"/>
<path d="M280.916 57.3057C280.7 57.3057 280.496 57.176 280.412 56.963C280.378 56.8793 276.991 48.478 267.834 37.8075C259.384 27.961 244.151 14.1125 219.57 4.05534C219.292 3.94165 219.16 3.62497 219.273 3.34729C219.386 3.07059 219.702 2.93642 219.981 3.05044C244.788 13.2001 260.164 27.192 268.694 37.1428C277.952 47.9434 281.387 56.4782 281.421 56.5633C281.531 56.8418 281.394 57.1573 281.116 57.2675C281.05 57.2934 280.983 57.3057 280.916 57.3057Z" fill="#171D34"/>
<path d="M83.9887 44.5332C83.946 44.5332 83.9026 44.5283 83.859 44.5176C83.5679 44.4462 83.3896 44.1523 83.4611 43.861L84.1296 41.1346C84.2011 40.8435 84.4943 40.6661 84.7863 40.7367C85.0774 40.8081 85.2555 41.102 85.1842 41.3931L84.5156 44.1195C84.4548 44.3676 84.2329 44.5332 83.9887 44.5332Z" fill="#171D34"/>
<path d="M82.4321 50.8837C82.3893 50.8837 82.3459 50.8788 82.3023 50.8682C82.0112 50.7968 81.8331 50.5028 81.9044 50.2117L82.5726 47.4857C82.6439 47.1945 82.9376 47.0165 83.2291 47.0877C83.5202 47.1591 83.6983 47.4531 83.627 47.7442L82.9588 50.4702C82.8981 50.7179 82.6762 50.8837 82.4321 50.8837Z" fill="#171D34"/>
<path d="M81.7323 45.9012C81.6896 45.9012 81.6462 45.8963 81.6026 45.8857L78.8765 45.2171C78.5854 45.1457 78.4073 44.8518 78.4786 44.5607C78.5499 44.2699 78.8436 44.0928 79.135 44.1627L81.8611 44.8313C82.1522 44.9027 82.3305 45.1966 82.259 45.4879C82.1984 45.7354 81.9766 45.9012 81.7323 45.9012Z" fill="#171D34"/>
<path d="M88.0837 47.4582C88.041 47.4582 87.9976 47.4533 87.9541 47.4427L85.2281 46.7741C84.937 46.7027 84.7589 46.4088 84.8302 46.1177C84.9016 45.8265 85.1945 45.648 85.4866 45.7197L88.2127 46.3883C88.5038 46.4597 88.6819 46.7536 88.6106 47.0449C88.5498 47.2924 88.3278 47.4582 88.0837 47.4582Z" fill="#171D34"/>
<path d="M110.34 270.228C114.888 266.835 119.62 263.671 124.443 260.653C134.232 254.529 144.445 249.054 154.744 243.749C160.161 240.958 165.746 238.433 171.271 235.836C176.829 233.223 182.399 230.634 187.97 228.047C193.061 225.683 198.152 223.318 203.235 220.94C218.092 184.129 234.414 142.396 232.043 142.396L52.4361 137.357C48.1958 137.357 44.9914 140.776 45.2931 144.978L54.1497 268.341C54.4515 272.543 58.1467 275.962 62.3871 275.962H102.474C105.045 273.989 107.744 272.166 110.34 270.228Z" fill="#307FF4"/>
<path d="M56.125 138.288H237.67C241.417 138.288 244.676 141.307 244.942 145.014L253.799 268.376C254.063 272.055 251.279 275.031 247.559 275.031H66.014C62.2665 275.031 59.0072 272.012 58.7412 268.305L49.8845 144.943C49.8845 144.943 49.8845 144.943 49.8845 144.943C49.6205 141.264 52.4049 138.288 56.125 138.288Z" fill="white" stroke="#171D34"/>
<path d="M231.951 143.833H63.3068C59.5845 143.833 56.7817 146.824 57.0466 150.513L65.2738 265.109C65.5387 268.798 68.771 271.789 72.4931 271.789H241.137C244.859 271.789 247.662 268.798 247.397 265.109L239.17 150.513C238.905 146.824 235.673 143.833 231.951 143.833Z" fill="#99C1FB"/>
<path d="M60.8254 280.717L60.327 280.753L60.8254 280.717C60.6329 278.037 62.617 275.883 65.241 275.883H137.429C137.459 275.939 137.493 276.004 137.532 276.077C137.685 276.368 137.901 276.785 138.151 277.285C138.651 278.286 139.286 279.616 139.829 280.943C140.377 282.28 140.814 283.573 140.943 284.513C141.009 284.994 140.983 285.305 140.914 285.474C140.884 285.547 140.854 285.575 140.835 285.587C140.815 285.6 140.769 285.624 140.664 285.624H66.0121C63.3585 285.624 61.0197 283.424 60.8254 280.717Z" fill="#5B9AF8" stroke="#171D34"/>
<path d="M137.766 275.363L137.766 275.362L137.754 275.34H65.241C63.8262 275.34 62.5388 275.895 61.6049 276.898L137.766 275.363ZM137.766 275.363C138.166 276.096 139.346 278.312 140.278 280.587C140.744 281.726 141.141 282.862 141.349 283.823C141.453 284.304 141.507 284.726 141.504 285.074C141.5 285.428 141.439 285.662 141.355 285.805C141.221 286.03 140.995 286.166 140.664 286.166H66.0123M137.766 275.363L66.0123 286.166M60.3691 280.75L60.3691 280.75C60.2667 279.323 60.7229 277.971 61.6675 276.957L60.3691 280.75ZM60.3691 280.75C60.5804 283.687 63.0988 286.081 66.0123 286.081H140.664C140.772 286.081 140.91 286.068 141.043 285.996C141.191 285.915 141.26 285.797 141.278 285.766L141.281 285.762L141.281 285.762M60.3691 280.75L141.281 285.762M141.281 285.762C141.421 285.525 141.453 285.238 141.45 284.981C141.448 284.71 141.405 284.398 141.336 284.064C141.197 283.394 140.938 282.568 140.6 281.664C139.924 279.854 138.912 277.673 137.846 275.689L137.704 275.426M141.281 285.762L137.704 275.426M137.704 275.426L137.405 275.426M137.704 275.426L137.405 275.426M137.405 275.426L65.2408 275.426C63.8615 275.426 62.5887 275.967 61.6676 276.957L137.405 275.426ZM66.0123 286.166C63.0796 286.166 60.4981 283.74 60.284 280.756M66.0123 286.166L60.284 280.756M60.284 280.756C60.1787 279.288 60.6513 277.922 61.6048 276.898L60.284 280.756ZM140.851 285.506C140.83 285.541 140.806 285.581 140.664 285.581H66.0123C63.3685 285.581 61.0608 283.398 60.8678 280.714L140.851 285.506ZM140.851 285.506C141.411 284.564 139.521 279.863 137.405 275.926L140.851 285.506Z" fill="#171D34" stroke="#171D34"/>
<path d="M113.427 275.882H284.539C287.197 275.882 289.531 278.077 289.726 280.789C289.919 283.473 287.939 285.623 285.31 285.623H114.198C111.54 285.623 109.206 283.428 109.011 280.717C108.818 278.032 110.798 275.882 113.427 275.882Z" fill="#5B9AF8" stroke="#171D34"/>
<path d="M108.47 280.756L108.47 280.756C108.364 279.286 108.836 277.919 109.788 276.896C110.721 275.894 112.009 275.34 113.427 275.34H284.539C287.471 275.34 290.053 277.766 290.267 280.75C290.372 282.22 289.9 283.586 288.948 284.609L288.948 284.609C288.015 285.612 286.727 286.166 285.31 286.166H114.198C111.265 286.166 108.683 283.739 108.47 280.756ZM109.851 276.955C108.907 277.968 108.452 279.321 108.555 280.75L108.555 280.75C108.766 283.688 111.284 286.081 114.198 286.081H285.31C286.691 286.081 287.965 285.54 288.885 284.551C289.829 283.538 290.284 282.185 290.182 280.756L290.182 280.756C289.971 277.819 287.452 275.425 284.539 275.425L113.427 275.425C112.045 275.425 110.771 275.966 109.851 276.955Z" fill="#307FF4" stroke="#171D34"/>
<path d="M55.232 226.96C54.95 226.96 54.7118 226.742 54.6913 226.456L48.8444 145.017C48.6963 142.953 49.367 141.008 50.733 139.54C52.1108 138.06 54.0256 137.245 56.1248 137.245H94.9821C95.2817 137.245 95.5249 137.488 95.5249 137.788C95.5249 138.087 95.2817 138.33 94.9821 138.33H56.125C54.3306 138.33 52.6977 139.023 51.5279 140.28C50.3693 141.525 49.8006 143.179 49.9271 144.939L55.7739 226.378C55.7955 226.677 55.5704 226.937 55.2715 226.958C55.2585 226.959 55.2451 226.96 55.232 226.96Z" fill="#171D34"/>
<path d="M232.637 148.383H63.261C61.5035 148.383 60.1799 149.795 60.3051 151.537L60.4717 153.857C60.5967 155.599 62.1229 157.012 63.8806 157.012H233.256C235.014 157.012 236.337 155.6 236.212 153.857L236.046 151.537C235.92 149.795 234.394 148.383 232.637 148.383Z" fill="#5B9AF8"/>
<path d="M68.9316 186.923H126.987L130.164 231.174H72.1086L68.9316 186.923Z" fill="#99C1FB"/>
<path d="M139.514 167.638H97.2031L133.21 183.219L172.466 182.244C172.603 182.244 172.631 182.058 172.502 182.002L139.514 167.638Z" fill="#5B9AF8"/>
<path d="M172.565 182.787H170.736C170.437 182.787 170.194 182.543 170.194 182.244C170.194 182.014 170.336 181.818 170.538 181.739L139.401 168.18H100.193C99.8935 168.18 99.6504 167.937 99.6504 167.638C99.6504 167.338 99.8935 167.095 100.193 167.095H139.514C139.589 167.095 139.663 167.11 139.731 167.14L172.811 181.545C173.099 181.67 173.257 181.971 173.193 182.277C173.131 182.577 172.873 182.787 172.565 182.787ZM172.378 182.54C172.378 182.54 172.378 182.54 172.379 182.541L172.378 182.54Z" fill="#307FF4"/>
<path d="M130.832 182.255H65.377L97.1563 167.638L130.832 182.255Z" fill="white"/>
<path d="M130.832 182.799H65.3766C65.1216 182.799 64.9011 182.621 64.8467 182.372C64.792 182.123 64.9181 181.869 65.1499 181.763L96.9292 167.146C97.0698 167.081 97.2303 167.079 97.3724 167.141L131.048 181.758C131.284 181.86 131.416 182.115 131.363 182.366C131.311 182.618 131.089 182.799 130.832 182.799ZM67.8555 181.713H128.218L97.1624 168.233L67.8555 181.713Z" fill="#307FF4"/>
<path d="M170.058 186.876H127.002L130.177 231.095H173.233L170.058 186.876Z" fill="#99C1FB"/>
<path d="M87.2205 231.174H83.0482L79.8711 186.923H84.0434L87.2205 231.174Z" fill="white"/>
<path d="M97.99 231.174H93.8177L90.6406 186.923H94.813L97.99 231.174Z" fill="white"/>
<path d="M108.761 231.174H104.589L101.412 186.923H105.584L108.761 231.174Z" fill="white"/>
<path d="M119.531 231.174H115.359L112.182 186.923H116.354L119.531 231.174Z" fill="white"/>
<path d="M130.166 231.174H125.993L122.816 186.923H126.989L130.166 231.174Z" fill="white"/>
<path d="M76.4508 231.174H72.2785L69.1016 186.923H73.2739L76.4508 231.174Z" fill="white"/>
<path d="M140.933 231.174H136.761L133.584 186.923H137.756L140.933 231.174Z" fill="#5B9AF8"/>
<path d="M151.703 231.174H147.531L144.354 186.923H148.526L151.703 231.174Z" fill="#5B9AF8"/>
<path d="M162.472 231.174H158.3L155.123 186.923H159.295L162.472 231.174Z" fill="#5B9AF8"/>
<path d="M173.244 231.174H169.072L165.895 186.923H170.067L173.244 231.174Z" fill="#5B9AF8"/>
<path d="M147.33 186.93H170.062L169.728 182.274H126.672L127.006 186.93H135.597H147.33Z" fill="#5B9AF8"/>
<path d="M126.673 182.274H68.7676L69.1018 186.93H127.007L126.673 182.274Z" fill="white"/>
<path d="M127.007 187.473H69.1015C68.8166 187.473 68.5807 187.253 68.5603 186.969L68.226 182.313C68.2151 182.163 68.2673 182.015 68.3702 181.905C68.4728 181.794 68.6169 181.732 68.7673 181.732H126.673C126.957 181.732 127.193 181.952 127.214 182.236L127.548 186.891C127.559 187.041 127.507 187.189 127.404 187.3C127.302 187.41 127.157 187.473 127.007 187.473ZM69.6068 186.387H126.424L126.167 182.817H69.3502L69.6068 186.387Z" fill="#307FF4"/>
<path d="M72.0742 231.174H173.275L173.995 241.201H72.7941L72.0742 231.174Z" fill="#5B9AF8"/>
<path d="M136.822 231.353C136.541 231.353 136.302 231.136 136.282 230.85L133.171 188.38C133.149 188.081 133.374 187.821 133.673 187.799C133.971 187.774 134.233 188.002 134.254 188.301L137.364 230.771C137.386 231.07 137.161 231.33 136.862 231.352C136.849 231.353 136.836 231.353 136.822 231.353Z" fill="#307FF4"/>
<path d="M157.412 221.551C157.129 221.551 156.891 221.332 156.872 221.045L154.704 189.375C154.684 189.076 154.91 188.817 155.209 188.797C155.503 188.776 155.767 189.002 155.787 189.301L157.954 220.971C157.975 221.27 157.749 221.529 157.45 221.55C157.437 221.551 157.425 221.551 157.412 221.551Z" fill="#307FF4"/>
<path d="M130.038 229.955C129.756 229.955 129.518 229.737 129.497 229.451L126.589 188.95C126.568 188.651 126.793 188.391 127.092 188.37C127.393 188.351 127.651 188.573 127.672 188.872L130.58 229.374C130.602 229.673 130.377 229.932 130.078 229.954C130.065 229.955 130.051 229.955 130.038 229.955Z" fill="#307FF4"/>
<path d="M72.1592 230.078C71.8772 230.078 71.639 229.86 71.6185 229.574L68.6811 188.658C68.6595 188.359 68.8846 188.1 69.1836 188.078C69.4829 188.056 69.7426 188.282 69.7639 188.581L72.7013 229.496C72.7229 229.795 72.4978 230.055 72.1988 230.076C72.1857 230.077 72.1723 230.078 72.1592 230.078Z" fill="#307FF4"/>
<path d="M136.959 241.822C136.659 241.822 136.417 241.58 136.416 241.281C136.415 240.981 136.658 240.738 136.958 240.737L173.41 240.66L169.662 188.864C169.64 188.565 169.865 188.305 170.164 188.283C170.461 188.259 170.723 188.486 170.745 188.785L174.535 241.162C174.546 241.312 174.494 241.46 174.391 241.57C174.289 241.68 174.145 241.743 173.994 241.744L136.96 241.822C136.959 241.822 136.959 241.822 136.959 241.822Z" fill="#307FF4"/>
<path d="M135.599 187.473H127.008C126.723 187.473 126.487 187.253 126.467 186.969L126.132 182.313C126.121 182.163 126.174 182.015 126.276 181.905C126.379 181.794 126.523 181.732 126.674 181.732H136.391C136.691 181.732 136.934 181.975 136.934 182.274C136.934 182.574 136.691 182.817 136.391 182.817H127.257L127.513 186.387H135.599C135.899 186.387 136.142 186.63 136.142 186.93C136.142 187.23 135.899 187.473 135.599 187.473Z" fill="#307FF4"/>
<path d="M170.063 187.473H146.006C145.706 187.473 145.463 187.23 145.463 186.93C145.463 186.63 145.706 186.387 146.006 186.387H169.48L169.224 182.817H145.472C145.173 182.817 144.93 182.574 144.93 182.275C144.93 181.975 145.173 181.732 145.472 181.732H169.729C170.014 181.732 170.25 181.952 170.27 182.236L170.604 186.891C170.615 187.042 170.563 187.189 170.46 187.3C170.358 187.41 170.214 187.473 170.063 187.473Z" fill="#307FF4"/>
<path d="M161.947 256.985H88.8618C87.0098 256.985 85.4017 255.497 85.2699 253.661L85.1063 251.382C84.9746 249.547 86.369 248.059 88.2209 248.059H161.306C163.158 248.059 164.766 249.547 164.898 251.382L165.062 253.661C165.194 255.497 163.799 256.985 161.947 256.985Z" fill="white"/>
<path d="M235.738 256.515H187.183C186.054 256.515 185.068 255.599 184.988 254.486L179.322 175.56C179.322 175.56 179.322 175.56 179.322 175.56C179.244 174.477 180.057 173.604 181.159 173.604H229.713C230.843 173.604 231.829 174.52 231.909 175.632L237.575 254.558C237.653 255.641 236.84 256.515 235.738 256.515Z" fill="white" stroke="#171D34"/>
<path d="M229.062 217.85H188.121C187.658 217.85 187.256 217.477 187.223 217.018L186.77 210.707C186.737 210.248 187.086 209.876 187.549 209.876H228.489C228.953 209.876 229.355 210.248 229.388 210.707L229.841 217.018C229.874 217.477 229.525 217.85 229.062 217.85Z" fill="#73C3FD"/>
<path d="M230.238 232.719H189.297C188.834 232.719 188.432 232.347 188.399 231.888L187.946 225.577C187.913 225.118 188.261 224.746 188.725 224.746H229.665C230.128 224.746 230.53 225.118 230.563 225.577L231.017 231.888C231.049 232.347 230.701 232.719 230.238 232.719Z" fill="#73C3FD"/>
<path d="M231.249 246.802H190.309C189.845 246.802 189.443 246.43 189.41 245.971L188.957 239.66C188.924 239.201 189.273 238.829 189.736 238.829H230.677C231.14 238.829 231.542 239.201 231.575 239.66L232.028 245.971C232.061 246.43 231.712 246.802 231.249 246.802Z" fill="#73C3FD"/>
<path d="M215.484 201.412C219.403 196.81 218.57 189.665 213.624 185.453C208.678 181.242 201.491 181.559 197.572 186.161C193.653 190.764 194.486 197.909 199.432 202.12C204.378 206.332 211.565 206.015 215.484 201.412Z" fill="#73C3FD"/>
<path d="M210.023 191.142C210.168 193.165 208.631 194.805 206.59 194.805C204.549 194.805 202.776 193.165 202.631 191.142C202.485 189.119 204.022 187.479 206.064 187.479C208.105 187.479 209.878 189.119 210.023 191.142Z" fill="white"/>
<path d="M199.534 199.899C204.165 194.082 210.061 195.135 215.205 199.265C215.644 199.618 215.737 200.243 215.404 200.648C212.025 204.764 204.779 206.257 199.578 201.166C199.226 200.821 199.248 200.258 199.534 199.899Z" fill="white"/>
<path d="M209.604 51.88L207.681 53.2242C207.684 53.2281 207.687 53.2317 207.69 53.2356L175.002 77.466C177.098 80.5238 179.022 85.2636 178.657 89.8935C178.15 96.3098 172.687 110.119 155.264 106.585L191.768 141.892C193.501 141.268 196.203 140.213 196.429 140.029C210.733 128.395 219.608 109.893 219.623 89.9827C219.633 76.7213 219.765 60.4451 212.73 50.3408C212.73 50.3408 211.542 51.1167 209.604 51.88Z" fill="#171D34"/>
<path d="M185.304 62.4363L188.722 60.8834L219.555 36.4678C211.373 25.2422 200.161 14.6286 186.425 10.8721C186.425 10.8721 184.455 12.0134 183.007 12.425L174.531 54.8269C178.971 55.9955 182.772 58.744 185.304 62.4363Z" fill="white"/>
<path d="M194.946 140.987L193.582 138.911L172.486 105.485C169.278 107.658 163.904 108.83 159.693 108.827C148.778 108.819 139.718 99.0794 139.726 88.4965C139.734 77.9137 146.565 67.8725 157.48 67.8807C159.212 67.8818 162.807 67.1878 164.408 67.595L176.155 27.6522C176.167 27.655 173.429 27.0911 173.429 27.0911C168.954 26.1406 164.308 25.6317 159.54 25.6284C123.72 25.6016 94.6605 53.7335 94.6328 88.4628C94.6051 123.192 123.62 151.368 159.439 151.394C172.586 151.404 184.82 147.618 195.045 141.107C195.044 141.107 194.95 140.985 194.946 140.987Z" fill="#171D34"/>
<path d="M188.722 60.8834L222.973 34.9148C214.241 22.9345 201.349 14.2111 186.425 10.8718L177.949 53.2738C182.39 54.4425 186.19 57.1911 188.722 60.8834Z" fill="#171D34"/>
<path d="M224.935 87.9199C224.946 73.8603 220.411 60.8645 212.729 50.3246L212.723 50.3293C212.726 50.3331 212.729 50.3369 212.731 50.3408L177.7 76.8893C179.844 80.0163 181.1 83.8033 181.097 87.8858C181.092 94.4675 178.476 100.958 173.479 104.462C170.41 106.614 166.678 107.879 162.65 107.875C152.207 107.867 143.749 99.3663 143.757 88.8881C143.765 78.41 152.237 69.9223 162.679 69.9303C164.336 69.9318 165.943 70.1484 167.474 70.5514L175.95 28.1496C175.962 28.1519 175.974 28.1553 175.986 28.1576L176 28.0891C171.719 27.1483 167.274 26.6442 162.712 26.6409C128.445 26.6142 100.644 54.4687 100.617 88.8549C100.591 123.241 128.349 151.138 162.616 151.165C175.193 151.174 186.898 147.426 196.679 140.979C196.679 140.979 196.641 140.928 196.613 140.893C213.669 129.491 224.918 110.028 224.935 87.9199Z" fill="white"/>
<path d="M162.662 151.708C162.646 151.708 162.631 151.708 162.616 151.708C128.103 151.68 100.047 123.485 100.074 88.8542C100.087 72.0789 106.609 56.3128 118.44 44.4596C130.259 32.6184 145.964 26.0981 162.663 26.0981C162.68 26.0981 162.695 26.0981 162.712 26.0981C167.21 26.1014 171.72 26.5929 176.116 27.5593L176.639 27.6742L176.407 28.7988L176.375 28.7921L167.893 71.2232L167.336 71.0763C165.82 70.6774 164.253 70.4745 162.678 70.4731C162.673 70.4731 162.668 70.4731 162.663 70.4731C157.763 70.4731 153.157 72.3857 149.689 75.8603C146.217 79.3387 144.303 83.9655 144.299 88.8888C144.292 99.0511 152.523 107.325 162.65 107.333C162.655 107.333 162.659 107.333 162.665 107.333C166.442 107.333 170.073 106.187 173.166 104.017C177.718 100.826 180.548 94.6451 180.553 87.8857C180.556 84.0479 179.415 80.3515 177.251 77.1968L176.958 76.7701L212.831 49.5579L213.167 50.0053C221.231 61.0694 225.487 74.1805 225.477 87.9209C225.461 109.236 214.972 129.043 197.39 141.023L197.46 141.115L196.977 141.433C186.777 148.155 174.912 151.708 162.662 151.708ZM162.663 27.1835C146.252 27.1835 130.822 33.5897 119.208 45.2263C107.582 56.8745 101.172 72.369 101.16 88.8549C101.133 122.887 128.703 150.596 162.616 150.622C162.631 150.622 162.647 150.622 162.662 150.622C174.502 150.622 185.975 147.245 195.886 140.848L195.822 140.768L196.311 140.441C213.878 128.698 224.375 109.064 224.392 87.9196C224.402 74.6003 220.335 61.8837 212.622 51.1039L178.434 77.0133C180.535 80.2537 181.642 84.0012 181.639 87.886C181.633 95.1014 178.699 101.464 173.79 104.906C170.513 107.204 166.666 108.418 162.664 108.418C162.659 108.418 162.654 108.418 162.649 108.418C151.924 108.41 143.205 99.6484 143.213 88.8878C143.217 83.6752 145.244 78.7763 148.92 75.0933C152.593 71.4134 157.473 69.3874 162.663 69.3874C162.668 69.3874 162.673 69.3874 162.678 69.3874C164.154 69.3889 165.622 69.557 167.053 69.8881L175.326 28.4997C171.183 27.6291 166.941 27.1863 162.711 27.1835C162.696 27.1835 162.679 27.1835 162.663 27.1835Z" fill="#171D34"/>
<path d="M102.152 156.754C121.699 156.754 137.545 140.907 137.545 121.36C137.545 101.812 121.699 85.9661 102.152 85.9661C82.6042 85.9661 66.7578 101.812 66.7578 121.36C66.7578 140.907 82.6042 156.754 102.152 156.754Z" fill="#171D34"/>
<path d="M127.932 144.573C141.344 131.161 141.344 109.416 127.932 96.0046C114.52 82.593 92.7757 82.593 79.364 96.0046C65.9524 109.416 65.9524 131.161 79.364 144.573C92.7757 157.984 114.52 157.984 127.932 144.573Z" fill="#F6BD3D"/>
<path d="M124.026 140.668C135.281 129.413 135.281 111.165 124.026 99.9094C112.771 88.6543 94.523 88.6543 83.2678 99.9094C72.0127 111.165 72.0127 129.413 83.2678 140.668C94.523 151.923 112.771 151.923 124.026 140.668Z" fill="white"/>
<path d="M101.282 140.671L101.218 135.934C97.8746 135.83 94.621 134.976 92.7109 133.905L94.1275 128.05C96.2376 129.168 99.1944 130.176 102.436 130.132C105.278 130.093 107.209 128.969 107.181 126.974C107.155 125.079 105.543 123.904 101.836 122.708C96.4757 120.985 92.8012 118.541 92.7355 113.704C92.6759 109.315 95.7209 105.832 101.043 104.712L100.978 99.9747L105.866 99.9082L105.925 104.297C109.269 104.401 111.522 105.068 113.179 105.844L111.809 111.499C110.505 110.968 108.195 109.852 104.605 109.901C101.364 109.945 100.335 111.355 100.354 112.752C100.377 114.397 102.136 115.421 106.397 116.959C112.36 118.973 114.791 121.683 114.852 126.172C114.912 130.61 111.822 134.443 106.101 135.518L106.17 140.605L101.282 140.671Z" fill="#F6BD3D"/>
<path d="M62.735 98.3557C72.7507 88.34 72.7507 72.1014 62.735 62.0857C52.7193 52.0701 36.4807 52.0701 26.4651 62.0857C16.4494 72.1014 16.4494 88.34 26.4651 98.3557C36.4807 108.371 52.7193 108.371 62.735 98.3557Z" fill="#171D34"/>
<path d="M45.739 104.408C59.4829 104.408 70.6246 93.2664 70.6246 79.5225C70.6246 65.7786 59.4829 54.637 45.739 54.637C31.9951 54.637 20.8535 65.7786 20.8535 79.5225C20.8535 93.2664 31.9951 104.408 45.739 104.408Z" fill="#F6BD3D"/>
<path d="M60.5045 94.2893C68.6601 86.1337 68.6601 72.9107 60.5045 64.7551C52.3488 56.5994 39.1259 56.5994 30.9702 64.7551C22.8146 72.9107 22.8146 86.1337 30.9702 94.2893C39.1259 102.445 52.3488 102.445 60.5045 94.2893Z" fill="white"/>
<path d="M42.9977 94.1363L43.191 90.7086C40.7795 90.464 38.4709 89.6822 37.1445 88.8111L38.465 84.6506C39.9337 85.5659 42.02 86.4437 44.3652 86.576C46.4218 86.692 47.874 85.9776 47.9553 84.5343C48.0326 83.1632 46.9266 82.232 44.3075 81.1794C40.5198 79.6627 37.9876 77.7101 38.185 74.2101C38.3641 71.0348 40.7415 68.6713 44.6451 68.1314L44.8385 64.7036L48.3743 64.903L48.1953 68.0783C50.6068 68.3229 52.2021 68.9195 53.3602 69.564L52.0838 73.5823C51.168 73.1325 49.555 72.209 46.9571 72.0625C44.6119 71.9303 43.797 72.8979 43.74 73.9082C43.6728 75.0989 44.893 75.9278 47.895 77.2555C52.1033 79.013 53.7232 81.0952 53.5401 84.3426C53.3591 87.5539 50.9313 90.1679 46.7411 90.6556L46.5336 94.336L42.9977 94.1363Z" fill="#F6BD3D"/>
<path d="M132.977 291.502H48.6825C46.1619 291.502 43.9455 289.493 43.7319 287.015L39.6397 239.545C39.426 237.068 41.2963 235.059 43.8167 235.059H128.112C130.632 235.059 132.849 237.068 133.062 239.545L137.155 287.015C137.368 289.493 135.498 291.502 132.977 291.502Z" fill="#307FF4"/>
<path d="M58.3575 262.837H50.464C49.5382 262.837 48.7242 262.099 48.6457 261.189L47.9768 253.429C47.8983 252.519 48.5853 251.782 49.5109 251.782H57.4043C58.3301 251.782 59.144 252.519 59.2225 253.429L59.8914 261.189C59.97 262.099 59.2833 262.837 58.3575 262.837Z" fill="#5B9AF8"/>
<path d="M72.3197 284.308H50.3679C49.6212 284.308 48.9648 283.713 48.9014 282.979L48.7823 281.598C48.719 280.864 49.2729 280.269 50.0196 280.269H71.9714C72.7181 280.269 73.3747 280.864 73.4379 281.598L73.557 282.979C73.6203 283.713 73.0662 284.308 72.3197 284.308Z" fill="#99C1FB"/>
<path d="M64.0261 272.19H49.323C48.5763 272.19 47.9197 271.595 47.8564 270.861L47.7373 269.48C47.6741 268.746 48.228 268.151 48.9747 268.151H63.6778C64.4245 268.151 65.081 268.746 65.1444 269.48L65.2635 270.861C65.3267 271.595 64.7726 272.19 64.0261 272.19Z" fill="#99C1FB"/>
<path d="M85.3698 272.296H70.6668C69.92 272.296 69.2634 271.701 69.2002 270.967L69.0811 269.586C69.0179 268.852 69.5717 268.257 70.3185 268.257H85.0215C85.7683 268.257 86.4249 268.852 86.4881 269.586L86.6072 270.967C86.6706 271.701 86.1166 272.296 85.3698 272.296Z" fill="#99C1FB"/>
<path d="M105.854 272.296H91.1511C90.4044 272.296 89.7478 271.701 89.6846 270.967L89.5655 269.586C89.5022 268.852 90.0561 268.257 90.8028 268.257H105.506C106.253 268.257 106.909 268.852 106.972 269.586L107.092 270.967C107.155 271.701 106.601 272.296 105.854 272.296Z" fill="#99C1FB"/>
<path d="M127.198 272.402H112.495C111.748 272.402 111.092 271.807 111.028 271.073L110.909 269.692C110.846 268.958 111.4 268.363 112.147 268.363H126.85C127.596 268.363 128.253 268.958 128.316 269.692L128.435 271.073C128.499 271.807 127.945 272.402 127.198 272.402Z" fill="#99C1FB"/>
<path d="M132.054 292.044H48.5913C45.851 292.044 43.4324 289.85 43.2003 287.153L39.0866 239.432C38.9745 238.134 39.382 236.908 40.2335 235.98C41.0995 235.036 42.3151 234.516 43.6557 234.516H127.907C130.812 234.516 133.375 236.842 133.622 239.701L136.382 271.722C136.408 272.021 136.187 272.284 135.888 272.31C135.588 272.341 135.327 272.114 135.301 271.816L132.54 239.795C132.341 237.482 130.262 235.602 127.907 235.602H43.6557C42.6228 235.602 41.6914 235.997 41.0335 236.714C40.3897 237.415 40.0823 238.348 40.1678 239.339L44.2815 287.059C44.467 289.209 46.4001 290.959 48.5913 290.959H132.054C133.586 290.959 134.941 290.279 135.772 289.094C135.944 288.848 136.282 288.789 136.528 288.961C136.773 289.133 136.833 289.472 136.661 289.717C135.624 291.196 133.945 292.044 132.054 292.044Z" fill="#171D34"/>
</svg>
