<svg width="557" height="597" viewBox="0 0 557 597" fill="none" xmlns="http://www.w3.org/2000/svg">
<g clip-path="url(#clip0_190_5162)">
<path opacity="0.5" d="M2.65728 173.729C-15.0724 236.27 56.7589 369.07 191.066 423.395C325.416 477.72 458.833 454.057 489.107 370.565C501.441 336.403 465.026 297.584 473.18 259.821C479.136 224.063 585.876 157.031 548.994 78.2634C512.115 -0.550655 321.334 -22.9067 251.018 25.2752C180.659 73.5032 156.562 85.9338 139.362 92.3993C114.402 102.779 20.3442 111.236 2.65728 173.732V173.729Z" fill="#D5F0FF"/>
<path d="M278.364 596.999C425.158 596.999 544.158 588.655 544.158 578.363C544.158 568.07 425.158 559.727 278.364 559.727C131.57 559.727 12.5703 568.07 12.5703 578.363C12.5703 588.655 131.57 596.999 278.364 596.999Z" fill="#DFE6FF"/>
<path fill-rule="evenodd" clip-rule="evenodd" d="M464.736 8.02344L554.314 26.8867L534.789 39.9757L464.736 8.02344Z" fill="#307FF4"/>
<path fill-rule="evenodd" clip-rule="evenodd" d="M464.576 8.59375L534.79 39.9765L526.979 62.0099L464.576 8.59375Z" fill="#2C7EFE"/>
<path fill-rule="evenodd" clip-rule="evenodd" d="M510.299 47.7808L526.978 62.0089L524.372 46.4805L510.299 47.7808Z" fill="#0643A3"/>
<path fill-rule="evenodd" clip-rule="evenodd" d="M499.56 59.5706L524.129 46.1556L463.191 8.59375L499.56 59.5706Z" fill="#307FF4"/>
<path d="M532.593 67.6983L531.291 68.6728L529.259 66.0721L530.56 65.0977L532.593 67.6983ZM369.79 280.715L369.629 279.088L369.955 279.006H370.525L371.095 278.924H372.966L372.884 280.55H371.174L370.604 280.632H370.116L369.79 280.715ZM377.845 280.632V279.006H380.124L381.02 278.924L381.103 280.55L380.128 280.632H377.848H377.845ZM385.982 280.389L385.899 278.762L386.387 278.68L387.932 278.598L389.151 278.516L389.233 280.142L388.093 280.224L386.466 280.306L385.978 280.389H385.982ZM394.118 279.658L393.957 278.032H394.283L395.828 277.87L397.212 277.627L397.373 279.253L395.99 279.414L394.445 279.658H394.118ZM402.255 278.601L402.011 276.975L402.173 276.893L403.718 276.649L405.184 276.405L405.51 278.032L403.965 278.275L402.42 278.519L402.259 278.601H402.255ZM410.31 277.057L409.905 275.431H409.987L411.614 275.105L413.08 274.779L413.489 276.323L411.944 276.731L410.316 277.057H410.31ZM418.203 275.187L417.794 273.561L419.339 273.156L420.884 272.748H420.967L421.372 274.292L419.827 274.697L418.199 275.184L418.203 275.187ZM426.096 272.83L425.608 271.286L427.074 270.881L428.619 270.312H428.702L429.189 271.856H429.107L427.562 272.425L426.096 272.83ZM433.824 270.23L433.254 268.686L434.638 268.116L436.183 267.547H436.265L436.835 269.012L436.753 269.094L435.287 269.663L433.821 270.233L433.824 270.23ZM441.391 267.138L440.739 265.673L442.122 265.104L443.588 264.452L443.75 264.37L444.402 265.835L444.241 265.917L442.775 266.569L441.391 267.138ZM448.876 263.725L448.144 262.26L449.363 261.69L450.747 260.959L450.991 260.877L451.722 262.26L451.56 262.421L450.095 263.152L448.876 263.721V263.725ZM456.116 259.985L455.303 258.52L456.36 257.95L457.744 257.137L458.07 256.976L458.884 258.359L458.557 258.52L457.174 259.333L456.116 259.985ZM463.113 255.758L462.217 254.458L463.192 253.806L464.494 252.91L464.981 252.667L465.877 253.967L465.39 254.293L464.089 255.188L463.113 255.758ZM469.867 251.205L468.971 249.905L469.702 249.335L470.921 248.44L471.573 248.035L472.548 249.253L471.896 249.74L470.677 250.715L469.863 251.202L469.867 251.205ZM476.376 246.244L475.401 245.026L475.889 244.618L477.107 243.643L477.839 242.912L478.896 244.213L478.165 244.865L476.946 245.839L476.376 246.244ZM482.642 240.96L481.502 239.742L481.746 239.499L482.886 238.442L483.861 237.546L485 238.686L484.025 239.66L482.886 240.717L482.642 240.96ZM488.42 235.186L487.28 234.047L488.255 232.99L489.313 231.851L489.474 231.69L490.696 232.747L490.535 232.908L489.477 234.047L488.42 235.186ZM493.872 229.089L492.653 228.033L493.305 227.219L494.201 226.001L494.61 225.514L495.911 226.489L495.503 227.058L494.527 228.197L493.875 229.093L493.872 229.089ZM498.836 222.505L497.535 221.61L497.861 221.123L498.675 219.905L499.327 218.93L500.711 219.826L500.059 220.8L499.162 222.1L498.836 222.505ZM503.31 215.674L501.926 214.861V214.779L502.658 213.479L503.389 212.178L503.471 212.017L504.937 212.83L504.855 212.912L504.124 214.295L503.31 215.595V215.678V215.674ZM507.135 208.438L505.669 207.708L506.156 206.733L506.808 205.351L507.052 204.781L508.518 205.433L508.274 206.002L507.622 207.467L507.135 208.442V208.438ZM510.389 200.877L508.923 200.307L509.085 199.738L509.655 198.355L509.981 197.298L511.526 197.786L511.2 198.842L510.63 200.307L510.386 200.877H510.389ZM512.992 193.154L511.447 192.666V192.505L511.691 191.774L511.852 191.044L512.096 190.23L512.257 189.579L513.802 189.987L513.641 190.639L513.479 191.452L513.236 192.183L513.074 192.913L512.992 193.157V193.154ZM514.863 185.187L513.318 184.861L513.4 184.209L513.562 183.396L513.644 182.665L513.805 181.852V181.691L515.433 181.934V182.096L515.271 182.909L515.11 183.722L515.028 184.453L514.866 185.184L514.863 185.187ZM516.082 177.056L514.454 176.894V176.407L514.537 175.594L514.619 174.781L514.702 173.968V173.642L516.329 173.803V174.129L516.247 174.942L516.164 175.755L516.082 176.569V177.056ZM516.49 168.845H514.863V165.593H516.49V168.845ZM516.247 160.635L514.619 160.796V160.309L514.537 159.496L514.454 158.765L514.372 157.952V157.544L515.999 157.383V157.788L516.082 158.601L516.164 159.414L516.247 160.227V160.632V160.635ZM515.271 152.504L513.644 152.83V152.586L513.483 151.773L513.321 151.042L513.239 150.311L513.077 149.66L514.622 149.255L514.784 149.986L514.945 150.716L515.107 151.529L515.268 152.26V152.504H515.271ZM513.483 144.537L511.938 144.945L511.776 144.458L511.532 143.727L511.371 143.076L511.127 142.345L510.966 141.858L512.511 141.37L512.672 141.858L512.916 142.588L513.077 143.24L513.321 143.971L513.483 144.541V144.537ZM510.798 136.732L509.253 137.384L509.091 136.896L508.765 136.245L508.521 135.593L508.195 135.023L507.952 134.454L509.418 133.723L509.661 134.292L509.987 134.944L510.314 135.596L510.557 136.248L510.801 136.735L510.798 136.732ZM507.056 129.414L505.672 130.227L505.59 130.145L505.263 129.575L504.858 129.006L504.532 128.436L504.124 127.949L503.88 127.544L505.181 126.648L505.425 126.974L505.833 127.544L506.242 128.113L506.647 128.683L506.973 129.335L507.056 129.417V129.414ZM502.091 122.747L500.872 123.804L500.467 123.396L500.059 122.909L499.571 122.421L499.166 122.013L498.678 121.526L499.818 120.387L500.306 120.792L500.711 121.279L501.198 121.766L501.686 122.254L502.091 122.741V122.747ZM495.908 117.22L495.012 118.52L494.85 118.438L494.28 118.112L493.793 117.786L493.305 117.46L492.735 117.135L492.327 116.891L493.058 115.426L493.546 115.752L494.116 116.078L494.686 116.404L495.173 116.73L495.743 117.138L495.904 117.22H495.908ZM488.506 113.398L488.018 114.942L487.692 114.781L487.122 114.619L486.552 114.458L485.9 114.297L485.33 114.135L484.921 113.974L485.33 112.43L485.735 112.513L486.387 112.674L487.04 112.917L487.61 113.079L488.262 113.322L488.506 113.405V113.398ZM480.369 111.611L480.286 113.237H479.555L478.903 113.154H477.114L477.032 111.528H478.985L479.637 111.611H480.369ZM472.07 111.936L472.314 113.563H471.906L471.092 113.724L470.361 113.885L469.629 114.047L469.221 114.129L468.816 112.503L469.303 112.42L470.035 112.259L470.848 112.098L471.58 112.015L472.067 111.933L472.07 111.936ZM464.016 113.889L464.586 115.433L464.181 115.515L463.449 115.841L462.636 116.084L461.822 116.41L461.578 116.493L460.926 115.028L461.17 114.866L462.066 114.623L462.88 114.297L463.693 113.971L464.019 113.889H464.016ZM456.449 117.141L457.263 118.524L457.18 118.606L456.693 118.85L456.205 119.176L455.718 119.501L455.23 119.827L454.743 120.153L454.581 120.236L453.606 118.935L453.85 118.774L454.338 118.448L454.825 118.122L455.313 117.796L455.882 117.47L456.37 117.144H456.452L456.449 117.141ZM449.778 122.102L450.918 123.241V123.323L450.513 123.649L450.104 124.054L449.696 124.459L449.37 124.867L449.044 125.272L448.717 125.598L447.499 124.542L447.742 124.216L448.148 123.811L448.556 123.323L448.961 122.919L449.366 122.514L449.775 122.109L449.778 122.102ZM444.57 128.607L445.954 129.42L445.871 129.582L445.545 130.069L445.301 130.474L445.058 130.961L444.814 131.448L444.57 131.853L444.409 132.179L442.943 131.448L443.104 131.122L443.348 130.635L443.592 130.148L443.918 129.661L444.162 129.173L444.488 128.768L444.57 128.607ZM440.989 136.087L442.534 136.574L442.452 136.735L442.29 137.305L442.129 137.792L441.968 138.279L441.806 138.766L441.724 139.336L441.641 139.662L440.014 139.254L440.096 138.849L440.258 138.361L440.419 137.792L440.581 137.305L440.742 136.735L440.904 136.248L440.986 136.087H440.989ZM439.036 144.136L440.663 144.379V144.462L440.502 145.518L440.419 146.575L440.337 147.549L438.71 147.388L438.792 146.414L438.874 145.357L439.036 144.218V144.136ZM438.627 152.346L440.255 152.264V153.808L440.337 154.782L440.419 155.513L438.792 155.674L438.71 154.943V153.887L438.627 152.83V152.343V152.346ZM439.602 160.556L441.23 160.23L441.312 160.635L441.473 161.531L441.717 162.505L441.961 163.318L440.416 163.805L440.172 162.91L439.928 161.936L439.685 160.961L439.602 160.556ZM442.205 168.444L443.671 167.713L443.997 168.365L444.158 168.77L444.402 169.096L444.563 169.501L444.807 169.826L444.969 170.235L445.212 170.561L443.829 171.374L443.585 171.048L443.341 170.643L443.18 170.238L442.936 169.912L442.692 169.507L442.531 169.102L442.205 168.45V168.444ZM446.843 175.354L448.062 174.297L448.306 174.541L448.632 174.946L448.958 175.354L449.363 175.68L449.772 176.085L450.098 176.41L450.259 176.572L449.202 177.79L449.04 177.629L448.632 177.224L448.223 176.819L447.818 176.414L447.413 176.009L447.087 175.604L446.843 175.36V175.354ZM453.026 180.881L453.922 179.581L454.166 179.742L454.654 180.068L455.062 180.394L455.467 180.637L455.955 180.963L456.36 181.207L456.604 181.368L455.79 182.751L455.546 182.59L455.059 182.264L454.65 182.02L454.163 181.694L453.675 181.368L453.27 181.125L453.026 180.881ZM460.185 185.029L460.837 183.564L461.081 183.646L461.568 183.89L462.056 184.051L462.543 184.295L463.113 184.456L463.601 184.7L463.845 184.782L463.275 186.247L463.031 186.165L462.461 186.003L461.974 185.76L461.486 185.598L460.916 185.355L460.429 185.111L460.185 185.029ZM467.995 187.794L468.404 186.168L468.809 186.329L469.867 186.573L471.006 186.817L471.494 186.899L471.25 188.525L470.68 188.364L469.54 188.12L468.401 187.877L467.992 187.794H467.995ZM476.132 189.259L476.294 187.633L476.62 187.715L477.76 187.798L478.899 187.88L479.469 187.962L479.387 189.588L478.817 189.506L477.598 189.424L476.458 189.342L476.132 189.259ZM484.348 189.746V188.12H484.757L485.976 188.038H487.521L487.603 189.664H485.976L484.757 189.746H484.348ZM492.564 189.259L492.32 187.633L493.134 187.551L494.353 187.468L495.572 187.307L495.816 188.851L494.597 189.012L493.378 189.174L492.564 189.256V189.259ZM500.619 188.041L500.292 186.497H500.454L501.673 186.254L502.813 185.928L503.465 185.845L503.87 187.389L503.218 187.551L501.999 187.794L500.78 188.038H500.619V188.041ZM508.591 186.171L508.182 184.627L508.834 184.384L510.053 184.058L511.193 183.653H511.275L511.763 185.197H511.681L510.541 185.605L509.322 185.931L508.591 186.175V186.171ZM516.401 183.571L515.831 182.027L515.993 181.944L517.294 181.457L518.513 180.97L518.757 180.809L519.409 182.353L519.165 182.435L517.946 183.004L516.645 183.492L516.401 183.574V183.571ZM523.886 180.236L523.155 178.771L523.316 178.689L523.886 178.363L524.456 178.037L525.026 177.711L525.596 177.385L525.922 177.224L526.818 178.606L526.409 178.768L525.839 179.173L525.27 179.498L524.7 179.742L524.13 180.068L523.886 180.229V180.236ZM530.965 175.927L529.99 174.626L530.478 174.3L530.965 173.974L531.453 173.569L531.94 173.244L532.428 172.839L532.589 172.756L533.564 173.974L533.482 174.136L532.912 174.541L532.425 174.867L531.937 175.271L531.367 175.676L530.959 175.92L530.965 175.927ZM537.392 170.804L536.253 169.586L536.661 169.26L537.149 168.855L537.557 168.45L537.966 167.963L538.453 167.558L538.615 167.397L539.754 168.536L539.593 168.697L539.188 169.102L538.7 169.589L538.292 169.994L537.804 170.482L537.399 170.807L537.392 170.804ZM543.088 164.869L541.787 163.812L542.439 163.081L543.17 162.107L543.74 161.294L545.124 162.268L544.472 163.081L543.74 164.056L543.088 164.869ZM547.806 158.12L546.422 157.307L546.504 157.146L547.157 156.089L547.726 155.114L548.053 154.545L549.519 155.276L549.192 155.845L548.54 156.984L547.888 158.041L547.806 158.123V158.12ZM551.63 150.802L550.164 150.15L550.326 149.663L550.813 148.606L551.218 147.467L551.301 147.224L552.846 147.711L552.763 148.037L552.358 149.176L551.871 150.315L551.627 150.802H551.63ZM554.397 143.079L552.852 142.592L553.096 141.617L553.422 140.399L553.666 139.504L555.211 139.909L554.967 140.804L554.723 142.022L554.397 143.079ZM556.186 135.03L554.559 134.786L554.641 134.299L554.803 133.081L554.964 131.781V131.619L556.591 131.781V131.942L556.43 133.242L556.268 134.543L556.186 135.03ZM556.917 126.82H555.29L555.372 126.658V123.567H557V126.737L556.917 126.82ZM556.835 118.609L555.208 118.771V117.958L555.046 116.901L554.964 115.926V115.518L556.509 115.357L556.591 115.762L556.674 116.736L556.756 117.793L556.838 118.606L556.835 118.609ZM555.778 110.478L554.233 110.804L554.071 110.073L553.827 109.099L553.666 108.203L553.505 107.634L555.05 107.229L555.211 107.798L555.455 108.773L555.616 109.747L555.778 110.478ZM553.663 102.511L552.118 103.081L552.035 102.837L551.792 101.942L551.465 101.046L551.139 100.233L551.057 99.9897L552.523 99.4202L552.605 99.5815L552.931 100.477L553.258 101.372L553.584 102.268L553.666 102.511H553.663ZM550.569 94.8673L549.103 95.5982L548.942 95.1932L548.537 94.3801L548.128 93.567L547.723 92.7539H547.641L549.107 91.9407V92.023L549.512 92.8362L549.999 93.6493L550.408 94.4624L550.569 94.8673ZM546.666 87.6315L545.282 88.5269L544.956 87.9574L544.468 87.1443L543.981 86.4134L543.572 85.7616L544.956 84.8662L545.361 85.518L545.849 86.3311L546.336 87.1443L546.662 87.6315H546.666ZM542.271 80.8006L540.888 81.696L539.83 80.152L539.016 79.0953L540.4 78.1209L541.131 79.2599L542.271 80.8039V80.8006ZM537.471 74.2165L536.17 75.191L535.274 73.9729L534.217 72.5903L535.518 71.6158L536.575 72.9985L537.471 74.2165Z" fill="#307FF4"/>
<path d="M171.938 76.1953H384.794C407.465 76.1953 425.992 94.7293 425.992 117.365V532.719C425.992 555.374 407.465 573.888 384.794 573.888H171.938C149.284 573.888 130.74 555.374 130.74 532.719V117.365C130.74 94.7261 149.287 76.1953 171.938 76.1953Z" fill="#307FF4"/>
<path d="M173.006 517.084H383.723C396.086 517.084 406.107 506.833 406.107 494.192V148.557C406.107 135.912 396.086 125.664 383.723 125.664H173.006C160.642 125.664 150.621 135.915 150.621 148.557V494.188C150.621 506.833 160.642 517.081 173.006 517.081V517.084Z" fill="white"/>
<path d="M255.786 530.695H300.943C308.267 530.695 314.249 536.674 314.249 543.992C314.249 551.29 308.267 557.268 300.943 557.268H255.786C248.482 557.268 242.5 551.29 242.5 543.992C242.5 536.674 248.482 530.695 255.786 530.695Z" fill="white"/>
<path d="M256.269 534.504H300.461C305.683 534.504 309.959 538.774 309.959 543.995C309.959 549.213 305.686 553.466 300.461 553.466H256.269C251.047 553.466 246.771 549.213 246.771 543.995C246.771 538.777 251.044 534.504 256.269 534.504Z" fill="#15489D"/>
<path d="M235.883 98.5781H320.846C324.654 98.5781 327.777 100.866 327.777 103.654C327.777 106.443 324.654 108.718 320.846 108.718H235.883C232.075 108.718 228.969 106.446 228.969 103.654C228.969 100.863 232.072 98.5781 235.883 98.5781Z" fill="#0643A3"/>
<path d="M335.47 443.488H221.254C215.409 443.488 210.67 448.224 210.67 454.066V472.402C210.67 478.244 215.409 482.979 221.254 482.979H335.47C341.315 482.979 346.054 478.244 346.054 472.402V454.066C346.054 448.224 341.315 443.488 335.47 443.488Z" fill="#F6BD3D"/>
<path fill-rule="evenodd" clip-rule="evenodd" d="M184.626 355.497H372.103C377.558 355.497 381.979 351.781 381.979 347.195V333.345C381.979 328.76 377.558 325.043 372.103 325.043H184.626C179.171 325.043 174.75 328.76 174.75 333.345V347.195C174.75 351.781 179.171 355.497 184.626 355.497Z" fill="#2C7EFE"/>
<path fill-rule="evenodd" clip-rule="evenodd" d="M184.626 418.029H372.103C377.558 418.029 381.979 414.312 381.979 409.726V395.877C381.979 391.291 377.558 387.574 372.103 387.574H184.626C179.171 387.574 174.75 391.291 174.75 395.877V409.726C174.75 414.312 179.171 418.029 184.626 418.029Z" fill="#2C7EFE"/>
<path d="M198.632 343.679C200.365 343.679 201.771 342.334 201.771 340.674C201.771 339.014 200.365 337.668 198.632 337.668C196.898 337.668 195.492 339.014 195.492 340.674C195.492 342.334 196.898 343.679 198.632 343.679Z" fill="white"/>
<path d="M207.53 343.679C209.264 343.679 210.669 342.334 210.669 340.674C210.669 339.014 209.264 337.668 207.53 337.668C205.796 337.668 204.391 339.014 204.391 340.674C204.391 342.334 205.796 343.679 207.53 343.679Z" fill="white"/>
<path fill-rule="evenodd" clip-rule="evenodd" d="M220.769 340.674C220.769 342.333 219.362 343.679 217.63 343.679C215.897 343.679 214.49 342.333 214.49 340.674C214.49 339.014 215.897 337.668 217.63 337.668C219.362 337.668 220.769 339.014 220.769 340.674Z" fill="white"/>
<path fill-rule="evenodd" clip-rule="evenodd" d="M229.668 340.674C229.668 342.333 228.261 343.679 226.528 343.679C224.795 343.679 223.389 342.333 223.389 340.674C223.389 339.014 224.795 337.668 226.528 337.668C228.261 337.668 229.668 339.014 229.668 340.674Z" fill="white"/>
<path fill-rule="evenodd" clip-rule="evenodd" d="M239.699 340.674C239.699 342.333 238.292 343.679 236.559 343.679C234.827 343.679 233.42 342.333 233.42 340.674C233.42 339.014 234.827 337.668 236.559 337.668C238.292 337.668 239.699 339.014 239.699 340.674Z" fill="white"/>
<path d="M245.454 343.679C247.188 343.679 248.593 342.334 248.593 340.674C248.593 339.014 247.188 337.668 245.454 337.668C243.72 337.668 242.314 339.014 242.314 340.674C242.314 342.334 243.72 343.679 245.454 343.679Z" fill="white"/>
<path d="M255.554 343.679C257.287 343.679 258.693 342.334 258.693 340.674C258.693 339.014 257.287 337.668 255.554 337.668C253.82 337.668 252.414 339.014 252.414 340.674C252.414 342.334 253.82 343.679 255.554 343.679Z" fill="white"/>
<path d="M264.452 343.679C266.186 343.679 267.591 342.334 267.591 340.674C267.591 339.014 266.186 337.668 264.452 337.668C262.718 337.668 261.312 339.014 261.312 340.674C261.312 342.334 262.718 343.679 264.452 343.679Z" fill="white"/>
<path fill-rule="evenodd" clip-rule="evenodd" d="M201.777 403.752C201.777 405.411 200.37 406.757 198.637 406.757C196.905 406.757 195.498 405.411 195.498 403.752C195.498 402.093 196.905 400.746 198.637 400.746C200.37 400.746 201.777 402.093 201.777 403.752Z" fill="white"/>
<path fill-rule="evenodd" clip-rule="evenodd" d="M210.671 403.752C210.671 405.411 209.265 406.757 207.532 406.757C205.799 406.757 204.393 405.411 204.393 403.752C204.393 402.093 205.799 400.746 207.532 400.746C209.265 400.746 210.671 402.093 210.671 403.752Z" fill="white"/>
<path fill-rule="evenodd" clip-rule="evenodd" d="M220.771 403.752C220.771 405.411 219.364 406.757 217.632 406.757C215.899 406.757 214.492 405.411 214.492 403.752C214.492 402.093 215.899 400.746 217.632 400.746C219.364 400.746 220.771 402.093 220.771 403.752Z" fill="white"/>
<path fill-rule="evenodd" clip-rule="evenodd" d="M229.669 403.752C229.669 405.411 228.263 406.757 226.53 406.757C224.797 406.757 223.391 405.411 223.391 403.752C223.391 402.093 224.797 400.746 226.53 400.746C228.263 400.746 229.669 402.093 229.669 403.752Z" fill="white"/>
<path fill-rule="evenodd" clip-rule="evenodd" d="M239.701 403.752C239.701 405.411 238.294 406.757 236.561 406.757C234.829 406.757 233.422 405.411 233.422 403.752C233.422 402.093 234.829 400.746 236.561 400.746C238.294 400.746 239.701 402.093 239.701 403.752Z" fill="white"/>
<path fill-rule="evenodd" clip-rule="evenodd" d="M248.599 403.752C248.599 405.411 247.193 406.757 245.46 406.757C243.727 406.757 242.32 405.411 242.32 403.752C242.32 402.093 243.727 400.746 245.46 400.746C247.193 400.746 248.599 402.093 248.599 403.752Z" fill="white"/>
<path fill-rule="evenodd" clip-rule="evenodd" d="M258.695 403.752C258.695 405.411 257.288 406.757 255.555 406.757C253.823 406.757 252.416 405.411 252.416 403.752C252.416 402.093 253.823 400.746 255.555 400.746C257.288 400.746 258.695 402.093 258.695 403.752Z" fill="white"/>
<path fill-rule="evenodd" clip-rule="evenodd" d="M267.591 403.752C267.591 405.411 266.185 406.757 264.452 406.757C262.719 406.757 261.312 405.411 261.312 403.752C261.312 402.093 262.719 400.746 264.452 400.746C266.185 400.746 267.591 402.093 267.591 403.752Z" fill="white"/>
<path d="M236.111 471.789C234.761 471.789 233.469 471.595 232.237 471.21C231.002 470.824 230.024 470.327 229.299 469.718L230.409 467.226C231.101 467.769 231.954 468.22 232.975 468.583C233.996 468.945 235.041 469.126 236.108 469.126C237.014 469.126 237.745 469.027 238.305 468.829C238.865 468.632 239.277 468.365 239.541 468.03C239.804 467.694 239.936 467.312 239.936 466.884C239.936 466.357 239.748 465.936 239.369 465.613C238.991 465.294 238.5 465.037 237.9 464.849C237.301 464.662 236.632 464.484 235.901 464.319C235.169 464.155 234.435 463.961 233.703 463.74C232.972 463.519 232.303 463.23 231.704 462.878C231.104 462.525 230.613 462.051 230.234 461.459C229.856 460.866 229.668 460.112 229.668 459.19C229.668 458.269 229.918 457.393 230.422 456.613C230.923 455.833 231.69 455.207 232.718 454.74C233.746 454.272 235.051 454.035 236.629 454.035C237.666 454.035 238.694 454.167 239.712 454.43C240.733 454.694 241.619 455.072 242.377 455.566L241.366 458.058C240.592 457.597 239.794 457.255 238.971 457.034C238.147 456.814 237.357 456.702 236.602 456.702C235.713 456.702 234.995 456.81 234.441 457.021C233.891 457.235 233.486 457.515 233.232 457.86C232.979 458.206 232.85 458.601 232.85 459.046C232.85 459.572 233.035 459.994 233.407 460.316C233.776 460.636 234.263 460.889 234.863 461.07C235.462 461.251 236.134 461.429 236.876 461.6C237.617 461.771 238.351 461.966 239.086 462.18C239.817 462.394 240.483 462.673 241.086 463.019C241.685 463.365 242.173 463.832 242.542 464.425C242.911 465.017 243.098 465.765 243.098 466.67C243.098 467.575 242.848 468.441 242.344 469.221C241.843 470.001 241.073 470.627 240.038 471.094C239 471.562 237.693 471.799 236.115 471.799L236.111 471.789Z" fill="white"/>
<path d="M247.539 456.2C246.963 456.2 246.491 456.019 246.119 455.657C245.75 455.295 245.562 454.86 245.562 454.35C245.562 453.84 245.747 453.386 246.119 453.03C246.488 452.678 246.963 452.5 247.539 452.5C248.116 452.5 248.587 452.668 248.959 453.007C249.328 453.343 249.516 453.767 249.516 454.278C249.516 454.821 249.334 455.275 248.972 455.647C248.61 456.016 248.132 456.204 247.539 456.204V456.2ZM245.984 471.541V458.37H249.068V471.541H245.984Z" fill="white"/>
<path d="M258.694 470.953C257.442 470.953 256.312 470.687 255.3 470.15C254.289 469.617 253.492 468.873 252.906 467.918C252.322 466.964 252.029 465.848 252.029 464.564C252.029 463.28 252.322 462.187 252.906 461.235C253.489 460.281 254.289 459.543 255.3 459.017C256.312 458.49 257.442 458.227 258.694 458.227C259.814 458.227 260.815 458.447 261.705 458.892C262.594 459.336 263.306 460.027 263.839 460.962C264.373 461.9 264.64 463.099 264.64 464.564C264.64 466.029 264.373 467.23 263.839 468.178C263.306 469.123 262.594 469.824 261.705 470.275C260.815 470.726 259.814 470.953 258.694 470.953ZM259.089 476.504C257.87 476.504 256.684 476.343 255.521 476.023C254.362 475.704 253.41 475.236 252.672 474.631L254.055 472.313C254.632 472.79 255.36 473.172 256.239 473.459C257.119 473.745 258.012 473.89 258.918 473.89C260.364 473.89 261.428 473.557 262.1 472.892C262.775 472.228 263.111 471.227 263.111 469.897V467.553L263.358 464.57L263.259 461.584V458.378H266.198V469.551C266.198 471.935 265.588 473.689 264.373 474.818C263.154 475.944 261.395 476.507 259.092 476.507L259.089 476.504ZM259.161 468.34C259.936 468.34 260.624 468.178 261.233 467.859C261.843 467.54 262.314 467.095 262.653 466.526C262.989 465.96 263.161 465.304 263.161 464.564C263.161 463.823 262.993 463.171 262.653 462.602C262.317 462.035 261.843 461.598 261.233 461.295C260.624 460.992 259.932 460.837 259.161 460.837C258.391 460.837 257.692 460.989 257.076 461.295C256.46 461.598 255.982 462.035 255.643 462.602C255.307 463.168 255.136 463.823 255.136 464.564C255.136 465.304 255.304 465.956 255.643 466.526C255.979 467.092 256.457 467.536 257.076 467.859C257.692 468.178 258.387 468.34 259.161 468.34Z" fill="white"/>
<path d="M277.721 458.227C278.775 458.227 279.717 458.434 280.547 458.842C281.377 459.254 282.033 459.882 282.511 460.729C282.988 461.575 283.225 462.664 283.225 463.997V471.546H280.142V464.393C280.142 463.224 279.865 462.355 279.315 461.779C278.765 461.203 277.994 460.916 277.006 460.916C276.281 460.916 275.639 461.064 275.082 461.361C274.522 461.657 274.09 462.098 273.787 462.681C273.484 463.263 273.33 464.001 273.33 464.886V471.546H270.246V458.375H273.185V461.927L272.667 460.84C273.129 460.001 273.797 459.356 274.68 458.905C275.56 458.454 276.578 458.227 277.727 458.227H277.721Z" fill="white"/>
<path d="M301.688 471.788C299.32 471.788 297.465 471.123 296.124 469.789C294.783 468.456 294.111 466.534 294.111 464.018V454.277H297.32V463.897C297.32 465.671 297.702 466.965 298.466 467.768C299.231 468.575 300.314 468.976 301.711 468.976C303.108 468.976 304.188 468.575 304.943 467.768C305.701 466.962 306.079 465.671 306.079 463.897V454.277H309.239V464.018C309.239 466.534 308.567 468.459 307.226 469.789C305.885 471.123 304.037 471.788 301.685 471.788H301.688Z" fill="white"/>
<path d="M313.434 476.329V458.374H316.372V461.482L316.273 464.984L316.52 468.487V476.329H313.437H313.434ZM320.74 471.717C319.67 471.717 318.695 471.47 317.815 470.976C316.935 470.482 316.237 469.738 315.717 468.744C315.199 467.75 314.939 466.489 314.939 464.958C314.939 463.427 315.189 462.147 315.693 461.159C316.194 460.172 316.883 459.437 317.756 458.95C318.629 458.466 319.624 458.223 320.744 458.223C322.041 458.223 323.191 458.502 324.186 459.062C325.181 459.622 325.972 460.402 326.555 461.406C327.138 462.41 327.431 463.592 327.431 464.958C327.431 466.324 327.138 467.509 326.555 468.523C325.972 469.534 325.181 470.321 324.186 470.877C323.191 471.437 322.041 471.717 320.744 471.717H320.74ZM320.394 469.076C321.136 469.076 321.798 468.912 322.381 468.583C322.964 468.253 323.428 467.776 323.774 467.151C324.12 466.525 324.291 465.794 324.291 464.955C324.291 464.115 324.12 463.365 323.774 462.746C323.428 462.13 322.964 461.656 322.381 461.327C321.798 460.998 321.136 460.833 320.394 460.833C319.653 460.833 318.988 460.998 318.395 461.327C317.802 461.656 317.334 462.127 316.988 462.746C316.642 463.365 316.471 464.099 316.471 464.955C316.471 465.811 316.642 466.525 316.988 467.151C317.334 467.776 317.802 468.253 318.395 468.583C318.988 468.912 319.653 469.076 320.394 469.076Z" fill="white"/>
<path fill-rule="evenodd" clip-rule="evenodd" d="M278.387 307.991C322.112 307.991 357.756 272.325 357.756 228.63C357.756 184.935 322.112 149.27 278.387 149.27C234.663 149.27 198.973 184.935 198.973 228.63C198.973 272.325 234.617 307.991 278.387 307.991Z" fill="#F6BD3D"/>
<path fill-rule="evenodd" clip-rule="evenodd" d="M292.243 241.179C313.409 246.42 329.906 263.337 334.571 284.679C320.188 299.098 300.324 307.993 278.387 307.993C256.451 307.993 236.537 299.102 222.154 284.679C226.819 263.337 243.32 246.416 264.486 241.179C256.019 236.323 250.297 227.237 250.297 216.759C250.297 201.279 262.852 188.688 278.391 188.688C293.93 188.688 306.481 201.283 306.481 216.759C306.481 227.237 300.755 236.323 292.243 241.179Z" fill="white"/>
<path fill-rule="evenodd" clip-rule="evenodd" d="M351.438 355.178L337.316 341.128C335.89 338.494 334.615 334.076 333.047 333.227C329.588 332.104 320.621 328.082 321.586 330.514C321.807 331.298 327.176 333.461 328.817 335.953C328.141 338.3 323.81 341.391 326.797 343.008L333.755 345.839C336.634 349.118 339.909 353.417 343.239 357.861L351.438 355.178Z" fill="#FFCDAD"/>
<path fill-rule="evenodd" clip-rule="evenodd" d="M434.682 551.27L427.741 556.665C425.442 564.793 420.649 569.971 416.771 576.463L436.458 567.315L434.682 551.27Z" fill="#FFCDAD"/>
<path fill-rule="evenodd" clip-rule="evenodd" d="M426.338 539.927L437.387 538.992L436.033 556.733C435.308 558.751 427.952 560.16 427.738 556.667L426.338 539.927Z" fill="#FFCDAD"/>
<path fill-rule="evenodd" clip-rule="evenodd" d="M398.248 581.656C391.165 576.165 418.221 581.373 434.538 557.809C435.233 556.624 436.036 556.736 436.115 557.707C438.352 566.286 437.357 574.262 437.987 582.548L436.376 582.779C435.753 578.67 435.14 574.572 434.518 570.47C432.541 575.227 423.607 581.153 419.868 581.455C416.518 582.068 406.701 581.58 398.248 581.656Z" fill="#171D34"/>
<path fill-rule="evenodd" clip-rule="evenodd" d="M401.667 553.883L394.716 559.269C392.423 567.406 387.633 572.575 383.756 579.077L403.442 569.918L401.667 553.883Z" fill="#FFCDAD"/>
<path fill-rule="evenodd" clip-rule="evenodd" d="M393.316 542.529L404.365 541.594L403.021 559.334C402.297 561.362 394.94 562.771 394.716 559.265L393.316 542.525V542.529Z" fill="#FFCDAD"/>
<path fill-rule="evenodd" clip-rule="evenodd" d="M365.232 584.258C358.15 578.767 385.205 583.975 401.522 560.41C402.207 559.225 403.021 559.337 403.093 560.308C405.33 568.897 404.342 576.87 404.964 585.15L403.363 585.38C402.741 581.282 402.118 577.18 401.505 573.072C399.529 577.828 390.595 583.764 386.846 584.064C383.496 584.666 373.679 584.179 365.236 584.254L365.232 584.258Z" fill="#171D34"/>
<path fill-rule="evenodd" clip-rule="evenodd" d="M421.719 402.191L389.179 434.239C386.029 450.712 382.099 467.271 382.834 477.509L392.13 547.132C397.473 546.767 402.817 546.401 408.16 546.046L407.103 479.34L414.208 455.196L426.575 546.075L443.198 545.522L437.288 436.274L421.719 402.191Z" fill="#171D34"/>
<path fill-rule="evenodd" clip-rule="evenodd" d="M413.957 369.504C416.816 362.268 419.673 355.019 422.532 347.773C433.805 358.479 452.108 369.655 456.361 379.89C458.502 386.616 433.495 414.618 424.051 426.077C422.601 422.509 421.346 420.007 419.893 416.438C428.122 405.538 436.035 395.3 441.853 383.33C433.999 379.067 421.801 373.764 413.957 369.504Z" fill="#F6BD3D"/>
<path fill-rule="evenodd" clip-rule="evenodd" d="M431.226 357.42C424.42 353.565 417.601 349.72 410.795 345.875C404.582 348.272 394.521 349.97 392.153 353.088C367.805 377.926 386.711 388.767 344.969 347.327C341.938 349.631 340.907 350.184 337.916 353.608C349.696 369.466 372.318 413.177 393.454 381.633C392.39 403.284 387.198 420.508 386.124 442.15C399.074 454.459 430.267 448.5 439.215 443.187C438.065 413.572 432.376 387.022 431.226 357.417V357.42Z" fill="#F6BD3D"/>
<path fill-rule="evenodd" clip-rule="evenodd" d="M419.659 318.949L395.759 317.715C395.298 332.114 397.159 347.106 406.891 346.968C417.617 346.905 420.078 331.755 419.659 318.946V318.949Z" fill="#FFCDAD"/>
<path fill-rule="evenodd" clip-rule="evenodd" d="M400.893 325.62C396.577 324.764 394.327 324.044 392.723 320.343C389.682 313.331 395.941 308.92 402.369 308.861C404.338 308.851 406.957 308.248 410.41 308.327C420.039 308.545 424.799 318.691 423.261 326.387C421.587 334.759 419.812 334.226 423.485 342.525C427.105 350.712 438.902 356.493 425.814 367.304C414.613 376.551 396.05 368.459 402.128 349.283C404.299 342.433 412.857 332.412 405.455 327.316C404.796 326.871 401.001 325.65 400.893 325.62Z" fill="#171D34"/>
<path fill-rule="evenodd" clip-rule="evenodd" d="M407.038 335.168L405.395 330.338C405.609 328.584 407.009 326.638 409.091 328.222C411.278 330.424 408.125 334.091 407.038 335.164V335.168Z" fill="#FFCDAD"/>
<path fill-rule="evenodd" clip-rule="evenodd" d="M77.5684 453.689C81.3897 451.115 85.7876 455.151 87.8564 458.39C89.912 461.646 91.289 465.764 90.1162 468.931C86.7824 469.471 82.8689 467.266 80.217 464.685C77.5651 462.091 74.5113 457.021 77.5684 453.686V453.689Z" fill="#73C3FD"/>
<path d="M111.405 562.137L110.255 561.831C115.032 543.919 108.222 530.781 101.018 516.869C96.63 508.398 92.0905 499.638 90.0151 489.423C87.6696 477.868 88.8984 466 93.7739 453.148L94.8873 453.57C84.1843 481.792 93.2797 499.349 102.075 516.325C109.392 530.445 116.303 543.784 111.408 562.14L111.405 562.137Z" fill="#73C3FD"/>
<path fill-rule="evenodd" clip-rule="evenodd" d="M104.55 471.668C101.127 468.59 96.192 471.968 93.6917 474.897C91.2078 477.811 89.2543 481.695 89.9791 484.991C93.2009 486.005 97.3977 484.382 100.386 482.186C103.374 480.007 107.103 475.404 104.55 471.668Z" fill="#73C3FD"/>
<path fill-rule="evenodd" clip-rule="evenodd" d="M76.0002 494.522C78.1217 490.433 83.9229 491.875 87.2863 493.729C90.6497 495.599 93.8386 498.548 94.3129 501.903C91.6545 503.98 87.1611 503.904 83.5802 502.913C80.0159 501.903 74.9229 498.914 76.0002 494.522Z" fill="#73C3FD"/>
<path fill-rule="evenodd" clip-rule="evenodd" d="M112.683 501.085C108.562 499.021 104.711 503.6 103.093 507.073C101.459 510.566 100.622 514.829 102.204 517.809C105.587 517.914 109.191 515.224 111.49 512.331C113.786 509.421 116.142 504.005 112.686 501.082L112.683 501.085Z" fill="#73C3FD"/>
<path fill-rule="evenodd" clip-rule="evenodd" d="M91.6949 528.411C93.8164 524.322 99.6175 525.764 102.981 527.634C106.344 529.488 109.533 532.454 110.004 535.792C107.346 537.869 102.856 537.81 99.2717 536.802C95.7073 535.808 90.6143 532.803 91.6916 528.411H91.6949Z" fill="#73C3FD"/>
<path fill-rule="evenodd" clip-rule="evenodd" d="M105.319 441.631C101.445 439.149 97.1193 443.264 95.1197 446.556C93.1365 449.828 91.8452 453.986 93.0838 457.123C96.4407 457.607 100.308 455.319 102.907 452.686C105.506 450.052 108.442 444.916 105.322 441.634L105.319 441.631Z" fill="#73C3FD"/>
<path fill-rule="evenodd" clip-rule="evenodd" d="M133.26 524.207C129.995 519.259 122.748 521.886 118.689 524.727C114.608 527.568 110.931 531.802 110.783 536.15C114.493 538.442 120.238 537.763 124.678 535.992C129.119 534.221 135.263 529.698 133.257 524.207H133.26Z" fill="#F6BD3D"/>
<path fill-rule="evenodd" clip-rule="evenodd" d="M141.252 426.45C136.001 423.652 130.895 429.432 128.695 433.877C126.468 438.324 125.272 443.776 127.209 447.683C131.567 447.927 136.291 444.579 139.355 440.902C142.396 437.228 145.621 430.315 141.249 426.45H141.252Z" fill="#F6BD3D"/>
<path d="M112.474 570.159C103.691 547.24 110.751 529.184 118.226 510.067C127.196 487.125 136.473 463.4 118.934 428.679L120.479 427.898C128.484 443.743 131.673 458.817 130.23 473.977C128.955 487.375 124.32 499.23 119.837 510.696C112.487 529.493 105.546 547.247 114.088 569.541L112.471 570.159H112.474Z" fill="#F6BD3D"/>
<path fill-rule="evenodd" clip-rule="evenodd" d="M109.081 453.177C113.048 448.756 119.84 452.43 123.438 455.847C127.035 459.238 130.043 463.975 129.572 468.297C125.576 470.042 119.975 468.505 115.838 466.115C111.723 463.698 106.298 458.329 109.081 453.18V453.177Z" fill="#F6BD3D"/>
<path fill-rule="evenodd" clip-rule="evenodd" d="M148.796 478.618C145.528 473.647 138.28 476.274 134.202 479.138C130.147 481.979 126.467 486.186 126.322 490.539C130.009 492.856 135.777 492.152 140.221 490.404C144.638 488.636 150.779 484.086 148.799 478.618H148.796Z" fill="#F6BD3D"/>
<path fill-rule="evenodd" clip-rule="evenodd" d="M102.641 491.984C107.645 488.791 113.192 494.127 115.749 498.371C118.328 502.614 119.955 507.977 118.351 512.016C114.016 512.638 109.051 509.653 105.701 506.245C102.374 502.838 98.5888 496.211 102.641 491.981V491.984Z" fill="#F6BD3D"/>
<path fill-rule="evenodd" clip-rule="evenodd" d="M104.027 414.758C108.652 411.015 114.76 415.726 117.744 419.673C120.755 423.617 122.989 428.749 121.816 432.959C117.583 434.023 112.302 431.623 108.626 428.588C104.923 425.552 100.446 419.383 104.027 414.761V414.758Z" fill="#F6BD3D"/>
<path fill-rule="evenodd" clip-rule="evenodd" d="M36.4637 457.32C39.8139 452.955 46.3234 455.868 49.8548 458.752C53.4126 461.656 56.5356 465.79 56.3906 469.81C52.8131 471.68 47.5522 470.676 43.599 468.75C39.6196 466.827 34.2631 462.235 36.4637 457.323V457.32Z" fill="#F6BD3D"/>
<path d="M115.756 567.159L114.027 567.265C112.666 545.284 100.04 533.018 86.6714 520.031C78.5082 512.1 70.065 503.897 63.8587 493.112C56.8353 480.905 53.7486 467.003 54.4173 450.605L56.1468 450.675C54.6841 486.541 71.5573 502.935 87.8771 518.786C101.492 532.014 114.353 544.507 115.753 567.156L115.756 567.159Z" fill="#F6BD3D"/>
<path fill-rule="evenodd" clip-rule="evenodd" d="M73.7379 467.498C68.7207 465.285 64.3953 470.981 62.679 475.204C60.966 479.454 60.2413 484.57 62.2969 488.023C66.3159 487.967 70.4403 484.55 72.9868 480.942C75.5398 477.357 78.0435 470.757 73.7379 467.501V467.498Z" fill="#F6BD3D"/>
<path fill-rule="evenodd" clip-rule="evenodd" d="M50.0879 504.046C50.9477 498.634 58.0501 498.074 62.5369 498.904C67.05 499.756 71.7608 501.909 73.5595 505.494C71.3293 508.862 66.2133 510.462 61.8155 510.666C57.4209 510.896 50.4997 509.435 50.0879 504.042V504.046Z" fill="#F6BD3D"/>
<path fill-rule="evenodd" clip-rule="evenodd" d="M94.0285 497.677C88.5996 496.893 85.9477 503.517 85.4239 508.057C84.9001 512.6 85.5755 517.732 88.4711 520.524C92.3419 519.361 95.3891 514.963 96.8913 510.819C98.3934 506.674 99.0424 499.665 94.0285 497.677Z" fill="#F6BD3D"/>
<path fill-rule="evenodd" clip-rule="evenodd" d="M80.5977 536.456C81.4575 531.044 88.5599 530.484 93.0467 531.314C97.5598 532.166 102.271 534.319 104.069 537.904C101.839 541.272 96.7494 542.869 92.3252 543.076C87.9307 543.307 81.0358 541.842 80.5977 536.453V536.456Z" fill="#F6BD3D"/>
<path fill-rule="evenodd" clip-rule="evenodd" d="M63.2861 433.242C57.9791 431.869 54.6387 438.18 53.6274 442.638C52.5897 447.098 52.7017 452.28 55.3042 455.335C59.2639 454.637 62.7788 450.601 64.7093 446.647C66.6595 442.667 68.0463 435.764 63.2894 433.242H63.2861Z" fill="#F6BD3D"/>
<path fill-rule="evenodd" clip-rule="evenodd" d="M180.325 462.147C177.054 458.21 171.078 461.156 167.879 463.981C164.658 466.805 161.904 470.792 162.177 474.535C165.573 476.171 170.455 475.032 174.076 473.073C177.719 471.141 182.552 466.657 180.322 462.15L180.325 462.147Z" fill="#73C3FD"/>
<path d="M111.93 567.623L110.197 567.583C110.685 546.353 122.248 534.215 134.489 521.366C149.145 505.983 164.299 490.076 161.637 456.642L163.363 456.504C164.582 471.808 162.2 484.921 156.08 496.584C150.671 506.888 143.084 514.855 135.744 522.558C123.74 535.157 112.404 547.061 111.93 567.619V567.623Z" fill="#73C3FD"/>
<path fill-rule="evenodd" clip-rule="evenodd" d="M145.893 472.996C150.505 470.768 154.741 475.92 156.504 479.808C158.263 483.695 159.132 488.452 157.321 491.774C153.552 491.85 149.586 488.801 147.082 485.532C144.552 482.263 141.999 476.193 145.893 472.996Z" fill="#73C3FD"/>
<path fill-rule="evenodd" clip-rule="evenodd" d="M169.294 506.291C168.302 501.26 161.658 500.991 157.471 501.932C153.307 502.897 148.991 505.053 147.43 508.496C149.637 511.545 154.47 512.855 158.584 512.904C162.699 512.954 169.096 511.318 169.294 506.291Z" fill="#73C3FD"/>
<path fill-rule="evenodd" clip-rule="evenodd" d="M128.047 501.905C133.081 500.99 135.782 507.083 136.451 511.294C137.097 515.53 136.675 520.337 134.046 523.036C130.403 522.121 127.379 518.131 125.84 514.293C124.279 510.477 123.435 503.962 128.047 501.908V501.905Z" fill="#73C3FD"/>
<path fill-rule="evenodd" clip-rule="evenodd" d="M141.977 537.65C140.986 532.62 134.318 532.35 130.154 533.291C125.99 534.256 121.652 536.412 120.113 539.856C122.32 542.904 127.13 544.214 131.268 544.264C135.382 544.313 141.78 542.677 141.977 537.65Z" fill="#73C3FD"/>
<path fill-rule="evenodd" clip-rule="evenodd" d="M154.42 440.645C159.328 439.16 162.675 444.931 163.789 449.066C164.879 453.177 164.978 458.033 162.672 460.979C158.953 460.459 155.507 456.818 153.55 453.2C151.593 449.559 150.055 443.166 154.417 440.641L154.42 440.645Z" fill="#73C3FD"/>
<path fill-rule="evenodd" clip-rule="evenodd" d="M114.327 565.984L122.059 576.601L129.79 587.251H114.327H98.8672L106.599 576.601L114.327 565.984Z" fill="#0643A3"/>
<path fill-rule="evenodd" clip-rule="evenodd" d="M155.063 547.805C153.376 567.553 135.778 583.088 114.329 583.088C92.8803 583.088 75.2824 567.553 73.5957 547.805H155.066H155.063Z" fill="#2C7EFE"/>
<path fill-rule="evenodd" clip-rule="evenodd" d="M105.81 579.718C90.9104 576.601 79.5814 564.661 78.3164 550.051H82.253C84.1934 563.281 93.302 574.379 105.81 579.718Z" fill="white"/>
<path fill-rule="evenodd" clip-rule="evenodd" d="M76.0457 161.062C57.7494 165.418 43.2447 179.142 21.1172 188.11C25.5117 231.021 41.0112 273.287 77.5083 293.322H79.1225C115.626 273.287 131.122 231.021 135.514 188.11C113.393 179.146 98.8815 165.418 80.5852 161.062H76.0424H76.0457Z" fill="white"/>
<path fill-rule="evenodd" clip-rule="evenodd" d="M76.4341 172.27C61.2344 175.891 49.184 187.284 30.8086 194.734C34.4619 230.377 47.3326 265.48 77.6497 282.114H78.9871C109.311 265.48 122.178 230.377 125.828 194.734C107.453 187.284 95.3991 175.891 80.2027 172.27H76.4341Z" fill="#8DAFDB"/>
<path fill-rule="evenodd" clip-rule="evenodd" d="M78.8191 172.27V282.114H77.6497C47.3326 265.48 34.4586 230.377 30.8086 194.734C49.184 187.284 61.2377 175.891 76.4341 172.27H78.8191Z" fill="#98B9E1"/>
<path fill-rule="evenodd" clip-rule="evenodd" d="M78.8254 185.395C88.583 185.395 96.5913 191.834 96.5913 199.705V215.78C96.5913 223.651 88.5797 230.09 78.8254 230.09C69.0513 230.09 61.043 223.651 61.043 215.78V199.705C61.043 191.834 69.0546 185.395 78.8254 185.395ZM78.8254 191.834C84.3894 191.834 88.9421 195.501 88.9421 199.981V218.828C88.9421 223.309 84.3894 226.976 78.8254 226.976C73.2449 226.976 68.7087 223.309 68.7087 218.828V199.981C68.7087 195.501 73.2449 191.834 78.8254 191.834Z" fill="white"/>
<path fill-rule="evenodd" clip-rule="evenodd" d="M61.8758 211.59H95.754C99.0186 211.59 101.7 213.868 101.7 216.646V247.127C101.7 249.906 99.0219 252.184 95.754 252.184H61.8758C58.5947 252.184 55.9297 249.906 55.9297 247.127V216.646C55.9297 213.868 58.5947 211.59 61.8758 211.59Z" fill="#4B76BA"/>
<path fill-rule="evenodd" clip-rule="evenodd" d="M78.8219 219.336C82.5905 219.336 85.6377 222.394 85.6377 226.16C85.6377 229.011 83.8951 231.46 81.4046 232.474L83.6118 240.092H74.0123L76.2194 232.474C73.7323 231.464 71.9863 229.014 71.9863 226.16C71.9863 222.394 75.0368 219.336 78.8153 219.336H78.8219Z" fill="#15489D"/>
</g>
<defs>
<clipPath id="clip0_190_5162">
<rect width="557" height="597" fill="white"/>
</clipPath>
</defs>
</svg>
