<svg width="80" height="80" viewBox="0 0 80 80" fill="none" xmlns="http://www.w3.org/2000/svg">
<g id="Capa_1" clip-path="url(#clip0_998_205727)">
<g id="Group">
<path id="Vector" fill-rule="evenodd" clip-rule="evenodd" d="M60.3481 77.2182L77.2139 60.3729C78.6441 58.9444 78.6441 56.6049 77.2139 55.1764L74.4331 52.4035C73.003 50.9749 70.665 50.9749 69.2348 52.4035L69.1597 52.4741L52.44 69.1736L52.3691 69.2488C50.9389 70.6772 50.9389 73.0124 52.3691 74.4408L55.1499 77.2182C55.4333 77.5013 55.7564 77.7313 56.1017 77.9036H59.3961C59.7416 77.7313 60.0603 77.5013 60.3481 77.2182Z" fill="#F6BD3D"/>
<path id="Vector_2" fill-rule="evenodd" clip-rule="evenodd" d="M52.44 69.1742L69.1597 52.4748L61.8448 45.1687C50.8903 38.9641 42.0214 53.1869 44.4611 61.2048L52.44 69.1742Z" fill="#FCD0A3"/>
<path id="Vector_3" fill-rule="evenodd" clip-rule="evenodd" d="M20.3248 77.9035H23.6192C23.9647 77.7311 24.2834 77.5011 24.5712 77.218L27.352 74.4407C28.7822 73.0122 28.7822 70.6771 27.352 69.2486L27.2767 69.1735L10.557 52.4741L10.4861 52.4035C9.05593 50.9749 6.71359 50.9749 5.28343 52.4035L2.50718 55.1764C1.07687 56.6049 1.07687 58.9444 2.50718 60.3729L19.3684 77.2182C19.6562 77.5011 19.9794 77.7311 20.3248 77.9035Z" fill="#307FF4"/>
<path id="Vector_4" fill-rule="evenodd" clip-rule="evenodd" d="M47.1709 59.8193L57.4965 49.5104L61.8448 45.1674L63.2131 43.801C64.7228 42.2883 64.7228 39.8207 63.2131 38.3126C61.7033 36.8001 59.228 36.8001 57.7181 38.3126L59.0951 36.9327C60.6094 35.4247 60.6094 32.9526 59.0951 31.4444C57.5851 29.9319 55.11 29.9319 53.6001 31.4444L54.9772 30.0646C56.4915 28.5566 56.4915 26.0844 54.9772 24.5763C53.4673 23.0682 50.9922 23.0682 49.4822 24.5763L50.8637 23.201C52.3736 21.6885 52.3736 19.2207 50.8637 17.7082C49.9472 16.7971 48.6809 16.4346 47.4897 16.6291C46.7103 16.753 45.962 17.1112 45.3642 17.7082L39.8605 23.2097L40.0375 23.3866L40.0684 23.4177C41.5784 24.9257 41.5784 27.3979 40.0684 28.906C38.5586 30.4185 36.0834 30.4185 34.5734 28.906C36.0834 30.4185 36.0834 32.8862 34.5734 34.3987C33.0592 35.9068 30.5884 35.9068 29.074 34.3987C30.5884 35.9068 30.5884 38.379 29.074 39.8871C27.5642 41.3951 25.0934 41.3951 23.579 39.8871C25.0934 41.3951 25.0934 43.8674 23.579 45.3754C22.0692 46.8879 19.594 46.8879 18.084 45.3754L17.8759 45.1674L10.5567 52.4735L27.2762 69.1729L34.2634 62.1941C36.2426 60.1466 40.8786 61.9377 44.4608 61.2035C45.4795 60.9957 46.4092 60.5799 47.1709 59.8193Z" fill="#73C3FD"/>
<path id="Vector_5" fill-rule="evenodd" clip-rule="evenodd" d="M34.5736 28.9069C36.0836 30.4194 38.5588 30.4194 40.0686 28.9069C41.5786 27.3988 41.5786 24.9266 40.0686 23.4186L40.0377 23.3875C37.7042 23.2195 33.2409 19.173 32.9753 16.3336C31.4608 14.8211 28.9902 14.8211 27.4759 16.3336C25.9659 17.8417 25.9659 20.3139 27.4759 21.8219L28.8574 23.2017L34.5736 28.9069Z" fill="#FCD0A3"/>
<path id="Vector_6" fill-rule="evenodd" clip-rule="evenodd" d="M29.0742 34.3984C30.5886 35.9066 33.0594 35.9066 34.5736 34.3984C36.0836 32.8859 36.0836 30.4183 34.5736 28.9058L28.8573 23.2008C27.343 21.6883 24.8722 21.6883 23.3623 23.2008C21.848 24.7088 21.848 27.1766 23.3623 28.6891L24.7394 30.0645L29.0742 34.3984Z" fill="#FCD0A3"/>
<path id="Vector_7" fill-rule="evenodd" clip-rule="evenodd" d="M23.5792 39.8871C25.0936 41.395 27.5644 41.395 29.0742 39.8871C30.5886 38.3789 30.5886 35.9068 29.0742 34.3986L24.7394 30.0646C23.2295 28.5566 20.7544 28.5566 19.2444 30.0646C17.7301 31.5771 17.7301 34.0449 19.2444 35.5574L22.003 38.3125L23.5792 39.8871Z" fill="#FCD0A3"/>
<path id="Vector_8" fill-rule="evenodd" clip-rule="evenodd" d="M18.0842 45.3769C19.5942 46.8894 22.0694 46.8894 23.5792 45.3769C25.0936 43.8689 25.0936 41.3966 23.5792 39.8886L22.003 38.3141C20.4886 36.8016 18.0178 36.8016 16.5036 38.3141C14.9936 39.8222 14.9936 42.2898 16.5036 43.8025L17.8762 45.1689L18.0842 45.3769Z" fill="#FCD0A3"/>
<path id="Vector_9" fill-rule="evenodd" clip-rule="evenodd" d="M39.8605 23.21L45.3642 17.7084C45.962 17.1114 46.7103 16.7533 47.4897 16.6294L36.8583 14.6172C34.7595 14.2191 32.7714 14.2059 32.9751 16.3331C33.2408 19.1724 37.704 23.2189 40.0375 23.387L39.8605 23.21Z" fill="#FCD0A3"/>
</g>
<path id="Vector_10" d="M39.8605 10.1656C40.7295 10.1656 41.4341 9.46109 41.4341 8.59203V1.57359C41.4341 0.704531 40.7295 0 39.8605 0C38.9914 0 38.2869 0.704531 38.2869 1.57359V8.59203C38.287 9.46109 38.9916 10.1656 39.8605 10.1656Z" fill="#171D34"/>
<path id="Vector_11" d="M78.325 54.0596L75.5452 51.2876C74.5563 50.2999 73.2383 49.7559 71.8339 49.7559C70.936 49.7559 70.0739 49.9793 69.31 50.3979L64.0716 45.1657L64.3267 44.9109C66.4519 42.7815 66.4511 39.3214 64.3266 37.1992C63.5674 36.4385 62.62 35.9314 61.5874 35.7179C61.7295 35.2271 61.8044 34.7131 61.8044 34.187C61.8044 32.7253 61.2366 31.3546 60.2088 30.331C59.4494 29.5704 58.5022 29.0632 57.4696 28.8498C57.6117 28.359 57.6866 27.8451 57.6866 27.3188C57.6866 25.857 57.1188 24.4865 56.0892 23.4613C55.3117 22.6848 54.356 22.1932 53.3524 21.984C53.8892 20.1329 53.4305 18.0503 51.9742 16.5915C50.7622 15.3845 49.1172 14.8657 47.5321 15.0338L37.1516 13.069C35.5685 12.7687 33.5914 12.5701 32.3436 13.7084C32.2649 13.7803 32.1846 13.8629 32.1053 13.9549C30.1703 13.2496 27.9136 13.6696 26.3639 15.2174C25.336 16.2442 24.7697 17.6142 24.7697 19.0751C24.7697 19.6013 24.8442 20.1153 24.9863 20.6062C23.9547 20.8195 23.0086 21.326 22.2519 22.0842C21.2219 23.1099 20.6539 24.4784 20.6528 25.9376C20.6524 26.4651 20.7272 26.9807 20.87 27.4729C19.838 27.6857 18.8913 28.1913 18.1322 28.9495C17.1022 29.9784 16.535 31.3492 16.535 32.8093C16.535 33.9279 16.8689 34.9932 17.4877 35.8932C16.7064 36.1581 15.9908 36.5988 15.3916 37.1974C13.265 39.3214 13.2642 42.7817 15.393 44.9142L15.6472 45.1673L10.4081 50.3968C8.46112 49.4801 6.06221 49.8235 4.45549 51.4282L1.67393 54.202C0.684553 55.1901 0.139866 56.5082 0.139709 57.9134C0.139709 59.3187 0.684553 60.637 1.67393 61.6253L5.14533 65.0924C5.76018 65.7067 6.75658 65.706 7.37065 65.0912C7.98487 64.4764 7.98424 63.4799 7.3694 62.8659L3.89799 59.3987C3.50393 59.0051 3.2869 58.4776 3.2869 57.9135C3.2869 57.3496 3.50393 56.8223 3.89705 56.4296L6.67877 53.6557C7.37377 52.9613 8.43752 52.8581 9.24533 53.341C9.30221 53.4265 9.36799 53.5079 9.4433 53.5832C9.57799 53.7184 9.7319 53.822 9.89549 53.8978L25.8475 69.8264C25.9233 69.9915 26.0274 70.147 26.1631 70.2829C26.2953 70.4154 26.4461 70.5176 26.6061 70.5929C26.9435 70.9743 27.1299 71.4615 27.1299 71.9812C27.1299 72.5453 26.9128 73.0726 26.5188 73.4662L23.7399 76.2418C22.9188 77.0593 21.5831 77.0592 20.7646 76.2443L17.293 72.7726C16.6785 72.1581 15.6822 72.1581 15.0677 72.7724C14.4531 73.387 14.453 74.3832 15.0675 74.9978L18.5414 78.472C19.5641 79.4901 20.9069 79.9992 22.2502 79.9992C23.5939 79.9992 24.9383 79.4895 25.9621 78.4703L28.7427 75.6929C29.7321 74.7046 30.2769 73.3865 30.2769 71.981C30.2769 70.9781 29.998 70.0203 29.4792 69.1943L35.3755 63.3053C35.3817 63.2989 35.3881 63.2924 35.3944 63.2862C36.0696 62.5882 37.9497 62.7189 39.768 62.8451C41.0599 62.9348 42.5002 63.0348 43.9074 62.8726L50.3642 69.3218C49.946 70.0845 49.7227 70.9454 49.7227 71.842C49.7227 73.2459 50.2675 74.5632 51.2569 75.5515L54.0377 78.3289C55.0264 79.3165 56.3444 79.8606 57.7488 79.8606C59.153 79.8606 60.471 79.3165 61.4599 78.3289L78.3256 61.4835C79.315 60.4954 79.8599 59.1773 79.8599 57.772C79.8602 56.3668 79.3153 55.0487 78.325 54.0596ZM36.5656 16.1612L43.3917 17.4532L39.306 21.5374C38.6739 21.2337 37.8077 20.6671 36.8574 19.7581C35.5566 18.5137 34.626 17.077 34.5414 16.1809C34.5413 16.1804 34.5413 16.1799 34.5413 16.1795C34.5413 16.1793 34.5413 16.1792 34.5413 16.179C34.5352 16.1146 34.5336 16.0632 34.5344 16.024C34.7399 15.974 35.2867 15.9185 36.5656 16.1612ZM28.5878 17.4442C29.385 16.6478 30.6235 16.5559 31.5242 17.1659C32.0347 19.3062 33.8605 21.246 34.6819 22.032C35.2906 22.6145 37.2439 24.3609 39.2155 24.8409C39.4822 25.2232 39.6274 25.679 39.6274 26.1599C39.6274 26.7795 39.3891 27.3587 38.9549 27.7924C38.5219 28.2262 37.9417 28.4649 37.3211 28.4649C36.7003 28.4649 36.1202 28.2262 35.6852 27.7904L35.685 27.7903L35.6842 27.7895L28.5877 20.7057C28.155 20.2737 27.9167 19.6945 27.9167 19.0751C27.9169 18.4556 28.1552 17.8763 28.5878 17.4442ZM24.476 24.3109C24.9089 23.8773 25.4885 23.6384 26.1081 23.6384C26.7286 23.6384 27.31 23.8778 27.7458 24.3131L33.4602 30.016C34.36 30.9173 34.36 32.3838 33.4633 33.282C33.028 33.7156 32.4458 33.9543 31.8241 33.9543C31.2024 33.9543 30.6202 33.7156 30.1867 33.2838L30.1866 33.2837L25.8514 28.9495C25.8447 28.9428 25.8374 28.9365 25.8305 28.9296L24.4742 27.574C24.0391 27.1393 23.7996 26.559 23.8 25.9399C23.8006 25.3229 24.0394 24.7456 24.476 24.3109ZM20.3563 31.1762C20.7896 30.7435 21.3703 30.5053 21.9919 30.5053C22.6083 30.5053 23.1841 30.7401 23.6155 31.1653L27.9639 35.5117C28.3975 35.9435 28.6364 36.5221 28.6364 37.1409C28.6364 37.7595 28.3975 38.3381 27.9622 38.7717C27.5291 39.2042 26.9489 39.4424 26.3285 39.4424C25.7071 39.4424 25.125 39.2035 24.6913 38.7717L23.1149 37.1971C23.1146 37.1967 23.1141 37.1963 23.1138 37.196L20.3564 34.442C19.9217 34.0078 19.6824 33.4278 19.6824 32.809C19.6824 32.1904 19.9217 31.6103 20.3563 31.1762ZM17.6156 39.4242C18.0508 38.9895 18.6324 38.7501 19.2531 38.7501C19.8736 38.7501 20.455 38.9893 20.8902 39.4237L22.4688 41.0004C22.9024 41.4323 23.1413 42.0109 23.1413 42.6296C23.1413 43.2484 22.9024 43.8268 22.4655 44.2621C22.0325 44.6957 21.4524 44.9346 20.8317 44.9346C20.211 44.9346 19.6308 44.6959 19.1947 44.259L18.9971 44.0621C18.9944 44.0595 18.9924 44.0567 18.9899 44.0542C18.9869 44.0514 18.9838 44.0489 18.9808 44.046L17.6172 42.6878C16.7174 41.7859 16.7166 40.322 17.6156 39.4242ZM49.6835 57.3081C49.0692 56.6931 48.0728 56.6926 47.4581 57.3067L46.0581 58.7048C44.7278 60.0351 42.3174 59.8676 39.9861 59.7059C37.4547 59.5299 34.8371 59.3484 33.1431 61.0874L27.3471 66.8765L12.8528 52.4035L17.9822 47.2834C18.83 47.8031 19.8083 48.0817 20.8319 48.0817C22.2941 48.0817 23.6655 47.5148 24.6897 46.4887C25.7208 45.4618 26.2888 44.0914 26.2888 42.6295C26.2888 42.6159 26.2878 42.6024 26.2878 42.5888C26.3014 42.589 26.315 42.5898 26.3286 42.5898C27.7889 42.5898 29.1591 42.0246 30.1847 41.0003C31.2158 39.9734 31.7838 38.6028 31.7838 37.141C31.7838 37.1274 31.7828 37.114 31.7828 37.1004C31.7966 37.1004 31.8103 37.1013 31.8242 37.1013C33.2841 37.1013 34.655 36.5368 35.6875 35.5085C36.7594 34.4349 37.2896 33.0215 37.2794 31.611C37.2935 31.611 37.3075 31.612 37.3216 31.612C38.7839 31.612 40.155 31.0451 41.1808 30.0174C42.2088 28.9907 42.775 27.6207 42.775 26.1598C42.775 25.1382 42.4972 24.1615 41.9792 23.3153L46.475 18.8213C46.81 18.4878 47.2231 18.2784 47.6561 18.192C47.703 18.187 47.7492 18.1795 47.795 18.1704C48.4897 18.0746 49.2192 18.2888 49.7505 18.8181C50.6503 19.7195 50.6503 21.186 49.7538 22.0842L48.3846 23.4478C48.38 23.4523 48.3752 23.4563 48.3706 23.461L46.7938 25.0354C46.1788 25.6495 46.1781 26.6459 46.7924 27.2607C47.4067 27.8757 48.403 27.8762 49.0177 27.2621L50.3924 25.8893C50.3927 25.889 50.393 25.8887 50.3933 25.8884L50.6011 25.6813C51.5035 24.7873 52.9653 24.7892 53.8667 25.6893C54.3005 26.1212 54.5394 26.6998 54.5394 27.3185C54.5394 27.9371 54.3005 28.5157 53.8633 28.951L52.4863 30.3309C52.4861 30.331 52.486 30.3312 52.4858 30.3315L50.9089 31.902C50.2931 32.5153 50.2911 33.5117 50.9044 34.1273C51.5177 34.7431 52.5139 34.7449 53.1297 34.1318L54.7138 32.5542C55.1467 32.1204 55.7269 31.8817 56.3475 31.8817C56.9683 31.8817 57.5486 32.1204 57.9847 32.5573C58.4185 32.9893 58.6572 33.5679 58.6572 34.1865C58.6572 34.8051 58.4185 35.3837 57.9822 35.8181L55.2369 38.5645C54.6225 39.1792 54.6227 40.1754 55.2372 40.7898C55.5446 41.097 55.9471 41.2504 56.3497 41.2504C56.7525 41.2504 57.1553 41.0967 57.4625 40.7893L58.808 39.4434C58.8156 39.436 58.8239 39.4296 58.8316 39.422C59.2646 38.9882 59.8447 38.7495 60.4653 38.7495C61.086 38.7495 61.6663 38.9882 62.1008 39.4235C62.9997 40.3215 62.9989 41.7856 62.101 42.6853L60.733 44.0517C60.7325 44.0521 60.7319 44.0526 60.7314 44.0531C60.731 44.0535 60.7305 44.0542 60.73 44.0546L58.5588 46.2232C57.9439 46.8374 57.9433 47.8337 58.5574 48.4487C58.8647 48.7564 59.2678 48.9103 59.6708 48.9103C60.0733 48.9103 60.4756 48.7568 60.7828 48.4501L61.8449 47.3893L66.935 52.4735L52.4421 66.9489L47.2492 61.7623C47.6113 61.5295 47.9577 61.2557 48.2828 60.9306L49.6821 59.5331C50.2971 58.9193 50.2977 57.9229 49.6835 57.3081ZM76.1019 59.2568L59.2361 76.1021C58.8416 76.4962 58.3135 76.7132 57.7491 76.7132C57.1847 76.7132 56.6566 76.4962 56.2619 76.102L53.4811 73.3246C53.0871 72.9312 52.87 72.4046 52.87 71.842C52.87 71.2795 53.0871 70.7529 53.4811 70.3593L70.3469 53.514C70.7416 53.1198 71.2697 52.9028 71.8341 52.9028C72.3985 52.9028 72.9266 53.1198 73.3221 53.5149L76.1019 56.287C76.496 56.6806 76.713 57.2078 76.713 57.7718C76.713 58.336 76.496 58.8634 76.1019 59.2568Z" fill="#171D34"/>
<path id="Vector_12" d="M18.9653 8.83992C19.2725 9.14649 19.6747 9.29961 20.0769 9.29961C20.48 9.29961 20.8833 9.14555 21.1907 8.83758C21.8046 8.22242 21.8036 7.22617 21.1885 6.61227L15.4544 0.88961C14.8394 0.275548 13.843 0.276485 13.2291 0.891798C12.6152 1.50695 12.6161 2.5032 13.2313 3.11711L18.9653 8.83992Z" fill="#171D34"/>
<path id="Vector_13" d="M59.644 9.29955C60.0464 9.29955 60.4489 9.14611 60.7561 8.8394L66.4858 3.11658C67.1006 2.50252 67.1012 1.50611 66.487 0.89127C65.873 0.27627 64.8767 0.275801 64.2617 0.89002L58.532 6.61283C57.9172 7.22689 57.9165 8.2233 58.5308 8.83815C58.8381 9.14565 59.2411 9.29955 59.644 9.29955Z" fill="#171D34"/>
<path id="Vector_14" d="M9.81562 67.6892C9.2064 68.3089 9.21484 69.3053 9.83468 69.9145L9.83922 69.9189C10.145 70.2195 10.542 70.3692 10.9389 70.3692C11.3462 70.3692 11.7536 70.2115 12.0622 69.8976C12.6714 69.2779 12.6606 68.2793 12.0409 67.6701C11.4212 67.0609 10.425 67.0695 9.81562 67.6892Z" fill="#171D34"/>
<path id="Vector_15" d="M53.5322 55.0428C53.7716 55.0428 54.0144 54.9883 54.2423 54.8735C55.0183 54.4821 55.33 53.5358 54.9387 52.7599C54.5473 51.9839 53.6009 51.6721 52.8251 52.0635L52.8164 52.0678C52.0405 52.4592 51.7331 53.4033 52.1244 54.1792C52.4006 54.7274 52.9562 55.0428 53.5322 55.0428Z" fill="#171D34"/>
</g>
<defs>
<clipPath id="clip0_998_205727">
<rect width="80" height="80" fill="white"/>
</clipPath>
</defs>
</svg>
