<svg width="24" height="24" viewBox="0 0 24 24" fill="none" xmlns="http://www.w3.org/2000/svg"> <path d="M11.1696 8.27657C11.2903 8.15586 11.3581 7.99214 11.3581 7.82143C11.3581 7.65072 11.2903 7.487 11.1696 7.36629C11.0488 7.24557 10.8851 7.17776 10.7144 7.17776C10.5437 7.17776 10.38 7.24557 10.2593 7.36629L8.44384 9.18171L7.93341 8.71629C7.80658 8.60789 7.64258 8.55304 7.47606 8.56333C7.30954 8.57362 7.15355 8.64825 7.04104 8.77144C6.92853 8.89463 6.86832 9.05674 6.87313 9.22351C6.87795 9.39028 6.94741 9.54865 7.06684 9.66514L8.03112 10.5459C8.1533 10.6571 8.31362 10.717 8.47881 10.7132C8.644 10.7094 8.80137 10.6421 8.91827 10.5253L11.1683 8.27529L11.1696 8.27657ZM11.1696 13.7949C11.2294 13.8546 11.2769 13.9255 11.3093 14.0036C11.3417 14.0817 11.3584 14.1654 11.3584 14.25C11.3584 14.3346 11.3417 14.4183 11.3093 14.4964C11.2769 14.5745 11.2294 14.6454 11.1696 14.7051L8.91955 16.9551C8.80243 17.0721 8.6447 17.1394 8.4792 17.143C8.31371 17.1466 8.15321 17.0862 8.03112 16.9744L7.06684 16.0937C6.94741 15.9772 6.87795 15.8189 6.87313 15.6521C6.86832 15.4853 6.92853 15.3232 7.04104 15.2C7.15355 15.0768 7.30954 15.0022 7.47606 14.9919C7.64258 14.9816 7.80658 15.0365 7.93341 15.1449L8.44384 15.6116L10.2593 13.7949C10.319 13.735 10.3899 13.6875 10.468 13.6551C10.5461 13.6227 10.6298 13.606 10.7144 13.606C10.799 13.606 10.8827 13.6227 10.9608 13.6551C11.0389 13.6875 11.1098 13.735 11.1696 13.7949ZM13.2858 14.5714C13.1153 14.5714 12.9518 14.6392 12.8313 14.7597C12.7107 14.8803 12.643 15.0438 12.643 15.2143C12.643 15.3848 12.7107 15.5483 12.8313 15.6689C12.9518 15.7894 13.1153 15.8571 13.2858 15.8571H16.5001C16.6706 15.8571 16.8341 15.7894 16.9547 15.6689C17.0753 15.5483 17.143 15.3848 17.143 15.2143C17.143 15.0438 17.0753 14.8803 16.9547 14.7597C16.8341 14.6392 16.6706 14.5714 16.5001 14.5714H13.2858ZM12.643 8.78571C12.643 8.61522 12.7107 8.4517 12.8313 8.33115C12.9518 8.21059 13.1153 8.14286 13.2858 8.14286H16.5001C16.6706 8.14286 16.8341 8.21059 16.9547 8.33115C17.0753 8.4517 17.143 8.61522 17.143 8.78571C17.143 8.95621 17.0753 9.11972 16.9547 9.24028C16.8341 9.36084 16.6706 9.42857 16.5001 9.42857H13.2858C13.1153 9.42857 12.9518 9.36084 12.8313 9.24028C12.7107 9.11972 12.643 8.95621 12.643 8.78571ZM6.85726 3C5.83429 3 4.85321 3.40638 4.12985 4.12973C3.4065 4.85309 3.00012 5.83416 3.00012 6.85714V17.1429C3.00012 18.1658 3.4065 19.1469 4.12985 19.8703C4.85321 20.5936 5.83429 21 6.85726 21H17.143C18.166 21 19.147 20.5936 19.8704 19.8703C20.5937 19.1469 21.0001 18.1658 21.0001 17.1429V6.85714C21.0001 5.83416 20.5937 4.85309 19.8704 4.12973C19.147 3.40638 18.166 3 17.143 3H6.85726ZM4.28584 6.85714C4.28584 6.17516 4.55675 5.5211 5.03899 5.03887C5.52123 4.55663 6.17528 4.28571 6.85726 4.28571H17.143C17.825 4.28571 18.479 4.55663 18.9613 5.03887C19.4435 5.5211 19.7144 6.17516 19.7144 6.85714V17.1429C19.7144 17.8248 19.4435 18.4789 18.9613 18.9611C18.479 19.4434 17.825 19.7143 17.143 19.7143H6.85726C6.17528 19.7143 5.52123 19.4434 5.03899 18.9611C4.55675 18.4789 4.28584 17.8248 4.28584 17.1429V6.85714Z" fill="#171D34"/> </svg>