<svg width="300" height="300" viewBox="0 0 300 300" fill="none" xmlns="http://www.w3.org/2000/svg">
<path d="M175.71 278.07H69.9057C41.3865 278.07 15.7822 259.433 6.6564 231.446C6.45022 230.814 6.24718 230.174 6.0465 229.524C-1.85081 203.965 -6.13905 174.183 20.1074 134.376C46.3539 94.5681 28.3494 57.2299 62.095 43.6373C95.8406 30.0446 123.218 46.9937 161.65 30.4885C200.082 13.9832 276.947 14.9543 281.633 81.9465C286.32 148.94 267.572 146.026 275.071 168.357C282.57 190.689 307.88 283.896 175.71 278.07Z" fill="#99C1FB"/>
<path d="M61.7104 144.39C61.4109 144.39 61.168 144.147 61.168 143.847V141.042C61.168 140.743 61.4109 140.5 61.7104 140.5C62.0098 140.5 62.2527 140.743 62.2527 141.042V143.847C62.2527 144.147 62.0098 144.39 61.7104 144.39Z" fill="#171D34"/>
<path d="M61.7104 150.923C61.4109 150.923 61.168 150.68 61.168 150.381V147.576C61.168 147.276 61.4109 147.033 61.7104 147.033C62.0098 147.033 62.2527 147.276 62.2527 147.576V150.381C62.2527 150.68 62.0098 150.923 61.7104 150.923Z" fill="#171D34"/>
<path d="M59.8472 146.254H57.0424C56.7429 146.254 56.5 146.011 56.5 145.712C56.5 145.412 56.7429 145.169 57.0424 145.169H59.8472C60.1466 145.169 60.3895 145.412 60.3895 145.712C60.3894 146.011 60.1466 146.254 59.8472 146.254Z" fill="#171D34"/>
<path d="M66.3804 146.254H63.5756C63.2761 146.254 63.0332 146.011 63.0332 145.712C63.0332 145.412 63.2761 145.169 63.5756 145.169H66.3804C66.6798 145.169 66.9226 145.412 66.9226 145.712C66.9226 146.011 66.6798 146.254 66.3804 146.254Z" fill="#171D34"/>
<path d="M71.5614 159.814C71.1973 159.814 70.833 159.746 70.4834 159.61C69.7237 159.315 69.125 158.735 68.7985 157.978C68.1323 156.434 68.8243 154.623 70.3414 153.942C71.0741 153.613 71.8889 153.591 72.6368 153.882C73.3967 154.178 73.9954 154.757 74.3219 155.515C74.9885 157.059 74.2962 158.87 72.7787 159.551C72.389 159.726 71.9756 159.814 71.5614 159.814ZM71.5601 154.764C71.297 154.764 71.0344 154.82 70.7866 154.931C69.8067 155.371 69.3616 156.545 69.7945 157.548C70.0052 158.036 70.3898 158.41 70.8766 158.599C71.3514 158.784 71.8697 158.771 72.3347 158.562C73.3144 158.122 73.7594 156.948 73.3265 155.945C73.1157 155.456 72.7312 155.083 72.2444 154.893C72.0221 154.807 71.7909 154.764 71.5601 154.764Z" fill="#171D34"/>
<path d="M96.27 242.579L47.5803 252.465L37.3246 201.957L88.3897 191.588L98.1627 239.721L98.1627 239.722C98.4293 241.033 97.5816 242.313 96.2701 242.579L96.27 242.579Z" fill="#5B9AF8" stroke="#171D34"/>
<path d="M69.4881 181.741L69.4881 181.741L87.252 190.796L36.8337 201.034L21.7109 191.359L21.7109 191.359C21.1726 191.015 21.3162 190.179 21.9706 190.047L21.9707 190.047L65.5225 181.203C65.5226 181.203 65.5226 181.203 65.5227 181.203C66.8707 180.929 68.2699 181.12 69.4881 181.741Z" fill="#5B9AF8" stroke="#171D34"/>
<path d="M20.5844 191.34C20.6507 191.525 20.7565 191.683 20.8621 191.808C21.0763 192.063 21.3565 192.266 21.5757 192.407C21.5757 192.407 21.5757 192.407 21.5757 192.407L36.2951 201.871L46.4645 251.958L31.8157 242.144C31.8156 242.143 31.8156 242.143 31.8155 242.143C30.6925 241.39 29.9125 240.234 29.6391 238.92L29.1495 239.021L29.6391 238.92L20.3446 194.226C20.3445 194.225 20.3444 194.225 20.3444 194.224C20.0631 192.838 20.2832 191.923 20.5844 191.34Z" fill="#5B9AF8" stroke="#171D34"/>
<path d="M51.213 198.626L38.9081 201.125C37.7091 201.368 36.9344 202.538 37.1778 203.737L39.8158 216.73" stroke="#171D34" stroke-width="0.5" stroke-miterlimit="10"/>
<path d="M41.4851 224.949L46.7509 250.883" stroke="#171D34" stroke-width="0.5" stroke-miterlimit="10"/>
<path d="M27.5371 195.708L36.6686 201.579" stroke="#171D34" stroke-width="0.5" stroke-miterlimit="10"/>
<path d="M21.1887 189.922L20.959 190.844C20.8509 191.317 21.3645 191.738 21.7737 192.001L25.9382 194.679" stroke="#171D34" stroke-width="0.5" stroke-miterlimit="10"/>
<path d="M190.321 278.334H108.022C100.656 278.334 94.6855 272.363 94.6855 264.998V84.4294C94.6855 77.0641 100.656 71.0933 108.022 71.0933H190.321C197.686 71.0933 203.657 77.0641 203.657 84.4294V264.998C203.657 272.363 197.686 278.334 190.321 278.334Z" fill="#1C004F"/>
<path d="M191.109 273.197H107.235C102.914 273.197 99.4102 269.694 99.4102 265.373V84.0547C99.4102 79.7334 102.914 76.2297 107.235 76.2297H191.109C195.43 76.2297 198.934 79.7334 198.934 84.0547V265.372C198.934 269.694 195.431 273.197 191.109 273.197Z" fill="white"/>
<path d="M165.719 88.0841H132.625C128.537 88.0841 125.223 84.7701 125.223 80.6818V74.057C125.223 73.8398 125.398 73.6643 125.615 73.6643H173.122V80.6818C173.121 84.7701 169.807 88.0841 165.719 88.0841Z" fill="#1C004F"/>
<path d="M296.804 188.056H260.667C259.179 188.056 257.973 186.85 257.973 185.361V148.032C257.973 146.544 259.179 145.338 260.667 145.338H296.804C298.292 145.338 299.499 146.544 299.499 148.032V185.361C299.499 186.85 298.292 188.056 296.804 188.056Z" fill="#307FF4" stroke="#171D34"/>
<path d="M299.498 156.927H257.973V148.033C257.973 146.544 259.179 145.338 260.667 145.338H296.804C298.292 145.338 299.498 146.544 299.498 148.032V148.033V156.927Z" fill="#CADDFF" stroke="#171D34"/>
<path d="M288.287 168.337H293.969C294.312 168.337 294.589 168.06 294.589 167.718V162.036C294.589 161.694 294.311 161.417 293.969 161.417H288.287C287.945 161.417 287.668 161.695 287.668 162.036V167.718C287.667 168.06 287.945 168.337 288.287 168.337Z" fill="white"/>
<path d="M280.174 168.337H285.856C286.198 168.337 286.475 168.06 286.475 167.718V162.036C286.475 161.694 286.198 161.417 285.856 161.417H280.174C279.832 161.417 279.555 161.695 279.555 162.036V167.718C279.555 168.06 279.832 168.337 280.174 168.337Z" fill="white"/>
<path d="M268.62 147.61C268.114 147.61 267.703 147.199 267.703 146.692V141.674C267.703 141.167 268.114 140.757 268.62 140.757C269.127 140.757 269.538 141.167 269.538 141.674V146.692C269.538 147.199 269.127 147.61 268.62 147.61Z" fill="#171D34" stroke="#171D34"/>
<path d="M275.794 147.618C275.288 147.618 274.877 147.207 274.877 146.7V141.682C274.877 141.175 275.288 140.764 275.794 140.764C276.301 140.764 276.712 141.175 276.712 141.682V146.7C276.712 147.207 276.301 147.618 275.794 147.618Z" fill="#171D34" stroke="#171D34"/>
<path d="M282.636 147.612C282.13 147.612 281.719 147.202 281.719 146.695V141.676C281.719 141.17 282.13 140.759 282.636 140.759C283.142 140.759 283.553 141.17 283.553 141.676V146.695C283.553 147.202 283.143 147.612 282.636 147.612Z" fill="#171D34" stroke="#171D34"/>
<path d="M272 168.337H277.682C278.025 168.337 278.302 168.06 278.302 167.718V162.036C278.302 161.694 278.025 161.417 277.682 161.417H272C271.658 161.417 271.381 161.695 271.381 162.036V167.718C271.381 168.06 271.658 168.337 272 168.337Z" fill="white"/>
<path d="M263.887 168.337H269.569C269.911 168.337 270.188 168.06 270.188 167.718V162.036C270.188 161.694 269.91 161.417 269.569 161.417H263.887C263.545 161.417 263.268 161.695 263.268 162.036V167.718C263.268 168.06 263.545 168.337 263.887 168.337Z" fill="white"/>
<path d="M288.231 176.043H293.913C294.255 176.043 294.532 175.765 294.532 175.423V169.741C294.532 169.399 294.255 169.122 293.913 169.122H288.231C287.888 169.122 287.611 169.4 287.611 169.741V175.423C287.611 175.765 287.888 176.043 288.231 176.043Z" fill="white"/>
<path d="M280.115 176.043H285.797C286.14 176.043 286.417 175.765 286.417 175.423V169.741C286.417 169.399 286.139 169.122 285.797 169.122H280.115C279.773 169.122 279.496 169.4 279.496 169.741V175.423C279.496 175.765 279.774 176.043 280.115 176.043Z" fill="white"/>
<path d="M271.942 176.043H277.624C277.966 176.043 278.243 175.765 278.243 175.423V169.741C278.243 169.399 277.965 169.122 277.624 169.122H271.942C271.599 169.122 271.322 169.4 271.322 169.741V175.423C271.321 175.765 271.599 176.043 271.942 176.043Z" fill="white"/>
<path d="M263.826 176.043H269.508C269.851 176.043 270.128 175.765 270.128 175.423V169.741C270.128 169.399 269.85 169.122 269.508 169.122H263.826C263.484 169.122 263.207 169.4 263.207 169.741V175.423C263.207 175.765 263.484 176.043 263.826 176.043Z" fill="white"/>
<path d="M288.176 183.813H293.858C294.2 183.813 294.477 183.535 294.477 183.193V177.511C294.477 177.169 294.2 176.892 293.858 176.892H288.176C287.834 176.892 287.557 177.17 287.557 177.511V183.193C287.557 183.535 287.834 183.813 288.176 183.813Z" fill="white"/>
<path d="M280.055 183.813H285.737C286.079 183.813 286.356 183.535 286.356 183.193V177.511C286.356 177.169 286.078 176.892 285.737 176.892H280.055C279.713 176.892 279.436 177.17 279.436 177.511V183.193C279.436 183.535 279.713 183.813 280.055 183.813Z" fill="white"/>
<path d="M271.885 183.813H277.567C277.909 183.813 278.186 183.535 278.186 183.193V177.511C278.186 177.169 277.909 176.892 277.567 176.892H271.885C271.543 176.892 271.266 177.17 271.266 177.511V183.193C271.265 183.535 271.543 183.813 271.885 183.813Z" fill="white"/>
<path d="M263.768 183.813H269.45C269.792 183.813 270.069 183.535 270.069 183.193V177.511C270.069 177.169 269.791 176.892 269.45 176.892H263.768C263.425 176.892 263.148 177.17 263.148 177.511V183.193C263.148 183.535 263.425 183.813 263.768 183.813Z" fill="white"/>
<path d="M289.494 147.612C288.987 147.612 288.576 147.202 288.576 146.695V141.676C288.576 141.17 288.987 140.759 289.494 140.759C290 140.759 290.411 141.17 290.411 141.676V146.695C290.411 147.202 290 147.612 289.494 147.612Z" fill="#171D34" stroke="#171D34"/>
<path d="M239.279 181.29H130.866C127.625 181.29 124.774 178.707 124.499 175.52L119.236 114.468C118.961 111.282 121.367 108.698 124.608 108.698H233.021C236.263 108.698 239.113 111.282 239.388 114.468L244.651 175.52C244.926 178.707 242.52 181.29 239.279 181.29Z" fill="#307FF4"/>
<path d="M143.308 144.424H133.156C131.965 144.424 130.918 143.475 130.817 142.305L129.957 132.325C129.856 131.155 130.74 130.206 131.93 130.206H142.082C143.273 130.206 144.319 131.155 144.42 132.325L145.281 142.305C145.382 143.475 144.498 144.424 143.308 144.424Z" fill="#5B9AF8"/>
<path d="M161.264 172.039H133.032C132.072 172.039 131.227 171.274 131.146 170.329L130.993 168.553C130.911 167.609 131.624 166.844 132.584 166.844H160.816C161.777 166.844 162.621 167.609 162.703 168.553L162.856 170.329C162.937 171.274 162.224 172.039 161.264 172.039Z" fill="#99C1FB"/>
<path d="M150.6 156.453H131.69C130.73 156.453 129.885 155.688 129.804 154.744L129.651 152.967C129.57 152.024 130.282 151.258 131.242 151.258H150.152C151.112 151.258 151.957 152.023 152.038 152.967L152.191 154.744C152.273 155.688 151.56 156.453 150.6 156.453Z" fill="#99C1FB"/>
<path d="M178.049 156.59H159.139C158.179 156.59 157.335 155.825 157.253 154.881L157.1 153.104C157.019 152.16 157.731 151.395 158.691 151.395H177.601C178.562 151.395 179.406 152.16 179.487 153.104L179.641 154.881C179.722 155.825 179.01 156.59 178.049 156.59Z" fill="#99C1FB"/>
<path d="M204.397 156.59H185.487C184.527 156.59 183.682 155.824 183.601 154.88L183.448 153.104C183.366 152.16 184.079 151.394 185.039 151.394H203.949C204.909 151.394 205.754 152.16 205.835 153.104L205.988 154.88C206.07 155.824 205.357 156.59 204.397 156.59Z" fill="#99C1FB"/>
<path d="M231.846 156.726H212.936C211.976 156.726 211.131 155.961 211.05 155.017L210.897 153.24C210.816 152.296 211.528 151.531 212.488 151.531H231.398C232.358 151.531 233.203 152.296 233.284 153.24L233.437 155.017C233.519 155.961 232.806 156.726 231.846 156.726Z" fill="#99C1FB"/>
<path d="M238.089 181.988H130.748C127.223 181.988 124.113 179.166 123.814 175.697L118.523 114.323C118.379 112.654 118.903 111.077 119.999 109.883C121.112 108.669 122.676 108 124.4 108H232.756C236.492 108 239.789 110.992 240.106 114.669L243.656 155.851C243.689 156.235 243.405 156.574 243.021 156.607C242.634 156.647 242.299 156.355 242.265 155.972L238.715 114.789C238.458 111.815 235.785 109.396 232.756 109.396H124.4C123.071 109.396 121.874 109.904 121.027 110.827C120.199 111.729 119.804 112.928 119.914 114.203L125.205 175.577C125.443 178.342 127.929 180.592 130.748 180.592H238.089C240.06 180.592 241.803 179.717 242.871 178.193C243.092 177.877 243.527 177.802 243.844 178.022C244.159 178.244 244.236 178.679 244.015 178.995C242.681 180.897 240.521 181.988 238.089 181.988Z" fill="#171D34"/>
<path d="M223.474 35.038C223.475 35.0287 223.475 35.0195 223.476 35.0105L238.595 34.7194L239.032 34.7109L239.47 34.7194L254.589 35.0105C254.59 35.0195 254.59 35.0287 254.591 35.038C254.609 35.3449 254.626 35.7954 254.622 36.3623C254.615 37.4966 254.522 39.0933 254.18 40.935C253.495 44.6204 251.82 49.2645 247.861 53.1614C245.83 55.1604 244.311 56.7976 243.263 58.2157C242.217 59.6318 241.611 60.8696 241.461 62.0685C241.309 63.2851 241.635 64.3944 242.314 65.5299C242.985 66.6513 244.018 67.8265 245.317 69.1884C246.08 69.9891 246.877 70.7816 247.681 71.5811C252.336 76.2103 257.226 81.0734 257.218 89.1148H239.479H238.586H220.848C220.839 81.0743 225.728 76.2119 230.383 71.5827C231.187 70.7827 231.984 69.9896 232.748 69.1883C234.047 67.8262 235.08 66.6509 235.75 65.5296C236.43 64.394 236.755 63.2848 236.603 62.0681C236.453 60.8693 235.847 59.6317 234.801 58.2155C233.754 56.7976 232.235 55.1604 230.204 53.1614C226.245 49.2645 224.569 44.6204 223.885 40.935C223.543 39.0933 223.45 37.4966 223.442 36.3623C223.438 35.7954 223.456 35.3449 223.474 35.038Z" fill="white" stroke="#171D34"/>
<path d="M259.609 90.2365V90.2368C259.609 91.1155 258.898 91.8267 258.019 91.8267H220.045C219.166 91.8267 218.455 91.1151 218.455 90.2365C218.455 89.358 219.167 88.6462 220.045 88.6462H258.019C258.897 88.6462 259.609 89.3579 259.609 90.2365Z" fill="#307FF4" stroke="#171D34"/>
<path d="M259.609 34.1383V34.1386C259.609 35.0167 258.898 35.7285 258.019 35.7285H220.045C219.166 35.7285 218.455 35.0169 218.455 34.1383C218.455 33.2598 219.167 32.5481 220.045 32.5481H258.019C258.897 32.5481 259.609 33.2597 259.609 34.1383Z" fill="#307FF4" stroke="#171D34"/>
<path d="M231.821 50.646H246.558C247.055 50.646 247.325 51.1953 247.005 51.5557L240.304 59.117C240.216 59.217 240.167 59.3429 240.167 59.4735V82.3446C240.167 82.6508 240.428 82.8987 240.751 82.8987H253.276C253.531 82.8987 253.756 83.0553 253.833 83.2859L254.672 85.8034C254.791 86.1607 254.51 86.5243 254.115 86.5243H223.975C223.593 86.5243 223.313 86.1812 223.41 85.8302L224.11 83.2945C224.176 83.0513 224.408 82.8814 224.672 82.8806L237.607 82.8357C237.929 82.8349 238.189 82.587 238.189 82.2817V59.5955C238.189 59.4672 238.142 59.3421 238.056 59.2429L231.37 51.5518C231.057 51.1906 231.328 50.646 231.821 50.646Z" fill="#73C3FD"/>
<path d="M67.1572 92.5273C67.1572 91.0706 65.9767 89.8901 64.52 89.8901H25.6C24.1434 89.8901 22.9629 91.0706 22.9629 92.5273V113.558C22.9629 115.015 24.1434 116.196 25.6 116.196H57.6764L60.6953 120.31C61.6357 121.592 63.2624 121.473 64.0069 120.068L66.6165 115.142C66.951 114.7 67.1572 114.155 67.1572 113.558V92.5273Z" fill="#5B9AF8"/>
<path d="M59.7701 99.3143H29.9846C29.5195 99.3143 29.1426 98.9373 29.1426 98.4722C29.1426 98.0071 29.5195 97.6301 29.9846 97.6301H59.7701C60.2352 97.6301 60.6122 98.0071 60.6122 98.4722C60.6122 98.9365 60.2352 99.3143 59.7701 99.3143Z" fill="white"/>
<path d="M50.7176 103.259H29.9846C29.5195 103.259 29.1426 102.882 29.1426 102.417C29.1426 101.951 29.5195 101.574 29.9846 101.574H50.7176C51.1827 101.574 51.5596 101.951 51.5596 102.417C51.5596 102.882 51.1827 103.259 50.7176 103.259Z" fill="white"/>
<path d="M55.7471 107.286H29.9846C29.5195 107.286 29.1426 106.909 29.1426 106.444C29.1426 105.979 29.5195 105.602 29.9846 105.602H55.7471C56.2122 105.602 56.5892 105.979 56.5892 106.444C56.59 106.909 56.2122 107.286 55.7471 107.286Z" fill="white"/>
<path d="M147.881 252.902C161.537 252.902 172.607 241.832 172.607 228.177C172.607 214.521 161.537 203.451 147.881 203.451C134.226 203.451 123.156 214.521 123.156 228.177C123.156 241.832 134.226 252.902 147.881 252.902Z" fill="#171D34"/>
<path d="M165.893 244.393C175.262 235.024 175.262 219.833 165.893 210.464C156.523 201.095 141.333 201.095 131.964 210.464C122.595 219.833 122.595 235.024 131.964 244.393C141.333 253.762 156.523 253.762 165.893 244.393Z" fill="#F6BD3D"/>
<path d="M163.164 241.665C171.027 233.802 171.027 221.054 163.164 213.192C155.302 205.329 142.554 205.329 134.691 213.192C126.829 221.054 126.829 233.802 134.691 241.665C142.554 249.527 155.302 249.527 163.164 241.665Z" fill="white"/>
<path d="M147.277 241.667L147.232 238.358C144.896 238.285 142.623 237.689 141.289 236.94L142.279 232.85C143.753 233.631 145.818 234.335 148.083 234.304C150.068 234.277 151.417 233.493 151.398 232.099C151.38 230.775 150.253 229.954 147.664 229.118C143.919 227.915 141.352 226.208 141.306 222.828C141.265 219.763 143.392 217.329 147.11 216.547L147.065 213.238L150.479 213.191L150.52 216.257C152.856 216.33 154.43 216.796 155.587 217.338L154.631 221.288C153.72 220.917 152.106 220.138 149.598 220.172C147.334 220.203 146.615 221.188 146.628 222.163C146.644 223.313 147.873 224.028 150.85 225.103C155.015 226.509 156.714 228.403 156.756 231.538C156.798 234.639 154.64 237.316 150.643 238.067L150.691 241.621L147.277 241.667Z" fill="#F6BD3D"/>
<path d="M168.255 219.569C173.545 219.569 177.833 215.281 177.833 209.992C177.833 204.702 173.545 200.414 168.255 200.414C162.966 200.414 158.678 204.702 158.678 209.992C158.678 215.281 162.966 219.569 168.255 219.569Z" fill="#5B9AF8"/>
<path d="M165.02 209.788L166.305 212.67C166.435 212.962 166.822 213.026 167.038 212.791L171.841 207.571" stroke="white" stroke-width="1.5236" stroke-miterlimit="10" stroke-linecap="round"/>
<path d="M168.23 217.904C172.615 217.904 176.169 214.349 176.169 209.965C176.169 205.58 172.615 202.026 168.23 202.026C163.845 202.026 160.291 205.58 160.291 209.965C160.291 214.349 163.845 217.904 168.23 217.904Z" stroke="white" stroke-width="0.5" stroke-miterlimit="10"/>
<path d="M96.8815 90.9019C110.537 90.9019 121.607 79.832 121.607 66.1767C121.607 52.5213 110.537 41.4514 96.8815 41.4514C83.2261 41.4514 72.1562 52.5213 72.1562 66.1767C72.1562 79.832 83.2261 90.9019 96.8815 90.9019Z" fill="#171D34"/>
<path d="M114.893 82.3926C124.262 73.0236 124.262 57.8333 114.893 48.4643C105.523 39.0952 90.3332 39.0952 80.9642 48.4643C71.5951 57.8333 71.5951 73.0236 80.9642 82.3926C90.3332 91.7617 105.523 91.7617 114.893 82.3926Z" fill="#F6BD3D"/>
<path d="M112.164 79.6646C120.027 71.8021 120.027 59.0544 112.164 51.1918C104.302 43.3293 91.554 43.3293 83.6915 51.1918C75.8289 59.0544 75.8289 71.8021 83.6915 79.6646C91.554 87.5272 104.302 87.5272 112.164 79.6646Z" fill="white"/>
<path d="M96.2768 79.6673L96.2318 76.3578C93.8963 76.285 91.6234 75.6888 90.2891 74.9403L91.2787 70.8502C92.7527 71.6315 94.8182 72.3352 97.0826 72.3044C99.0684 72.2774 100.417 71.4926 100.398 70.099C100.38 68.7752 99.2534 67.9543 96.6638 67.1183C92.919 65.9148 90.3521 64.2076 90.3062 60.8283C90.2646 57.7627 92.3918 55.3295 96.1095 54.5471L96.0645 51.2376L99.4785 51.1912L99.5202 54.2568C101.856 54.3296 103.43 54.7959 104.587 55.3377L103.631 59.288C102.72 58.9171 101.106 58.1377 98.598 58.1717C96.3337 58.2025 95.6152 59.1879 95.6285 60.1634C95.6442 61.313 96.8733 62.0281 99.8498 63.1026C104.015 64.5093 105.714 66.4027 105.756 69.5381C105.798 72.6386 103.64 75.3161 99.6429 76.0672L99.6912 79.6208L96.2768 79.6673Z" fill="#F6BD3D"/>
<path d="M142.071 53.9529C149.991 53.9529 156.412 47.5324 156.412 39.6123C156.412 31.6922 149.991 25.2717 142.071 25.2717C134.151 25.2717 127.73 31.6922 127.73 39.6123C127.73 47.5324 134.151 53.9529 142.071 53.9529Z" fill="#171D34"/>
<path d="M152.518 49.0176C157.952 43.5836 157.952 34.7733 152.518 29.3393C147.083 23.9053 138.273 23.9053 132.839 29.3393C127.405 34.7733 127.405 43.5836 132.839 49.0176C138.273 54.4517 147.083 54.4517 152.518 49.0176Z" fill="#F6BD3D"/>
<path d="M150.935 47.4355C155.496 42.8753 155.496 35.4817 150.935 30.9214C146.375 26.3611 138.981 26.3611 134.421 30.9214C129.861 35.4817 129.861 42.8753 134.421 47.4355C138.981 51.9958 146.375 51.9958 150.935 47.4355Z" fill="white"/>
<path d="M141.719 47.437L141.693 45.5175C140.338 45.4753 139.02 45.1295 138.246 44.6953L138.82 42.3231C139.675 42.7762 140.873 43.1844 142.186 43.1665C143.338 43.1509 144.12 42.6956 144.109 41.8874C144.099 41.1196 143.445 40.6434 141.943 40.1586C139.771 39.4606 138.283 38.4704 138.256 36.5104C138.232 34.7324 139.466 33.3211 141.622 32.8674L141.596 30.9478L143.576 30.9209L143.6 32.699C144.955 32.7412 145.868 33.0117 146.539 33.3259L145.984 35.6171C145.456 35.4019 144.52 34.9499 143.065 34.9696C141.752 34.9875 141.335 35.559 141.343 36.1248C141.352 36.7915 142.065 37.2063 143.791 37.8295C146.207 38.6454 147.192 39.7436 147.217 41.562C147.241 43.3604 145.989 44.9133 143.671 45.349L143.699 47.41L141.719 47.437Z" fill="#F6BD3D"/>
<path d="M287.617 211.467C287.27 211.356 286.902 211.309 286.528 211.331C285.713 211.38 284.966 211.749 284.423 212.371C283.315 213.638 283.42 215.576 284.658 216.689C285.255 217.226 286.026 217.496 286.827 217.448C287.642 217.399 288.389 217.03 288.932 216.408C290.039 215.141 289.934 213.204 288.697 212.09C288.379 211.804 288.012 211.594 287.617 211.467ZM286.07 216.278C285.819 216.198 285.586 216.064 285.384 215.882C284.585 215.163 284.52 213.909 285.24 213.085C285.59 212.684 286.07 212.446 286.592 212.415C287.102 212.384 287.592 212.556 287.971 212.897C288.769 213.616 288.834 214.871 288.115 215.694C287.764 216.095 287.284 216.333 286.762 216.365C286.524 216.379 286.29 216.349 286.07 216.278Z" fill="#171D34"/>
<path d="M272.533 224.116C272.412 224.077 272.264 224.131 272.146 224.273C272.084 224.347 265.877 231.759 255.429 239.379C245.792 246.407 230.47 255.055 212.203 256.345C211.991 256.36 211.788 256.609 211.752 256.901C211.715 257.193 211.859 257.417 212.071 257.402C230.509 256.1 245.974 247.365 255.701 240.266C266.247 232.57 272.526 225.068 272.588 224.993C272.766 224.778 272.811 224.444 272.689 224.245C272.648 224.179 272.594 224.136 272.533 224.116Z" fill="#171D34"/>
<path d="M276.788 223.297C276.647 223.252 276.474 223.332 276.354 223.517C276.307 223.59 271.529 230.88 262.294 239.121C253.773 246.726 239.604 256.721 220.499 261.148C220.283 261.198 220.1 261.472 220.089 261.76C220.078 262.047 220.243 262.241 220.46 262.191C239.741 257.723 254.046 247.622 262.652 239.934C271.992 231.59 276.842 224.183 276.89 224.109C277.047 223.867 277.054 223.538 276.906 223.375C276.872 223.337 276.831 223.311 276.788 223.297Z" fill="#171D34"/>
<path d="M228.687 213.383C228.387 213.383 228.145 213.14 228.145 212.84V210.044C228.145 209.743 228.387 209.5 228.687 209.5C228.987 209.5 229.229 209.743 229.229 210.044V212.84C229.229 213.14 228.987 213.383 228.687 213.383Z" fill="#171D34"/>
<path d="M228.687 219.896C228.387 219.896 228.145 219.653 228.145 219.352V216.557C228.145 216.257 228.387 216.014 228.687 216.014C228.987 216.014 229.229 216.257 229.229 216.557V219.352C229.229 219.653 228.987 219.896 228.687 219.896Z" fill="#171D34"/>
<path d="M226.832 215.241H224.042C223.742 215.241 223.5 214.998 223.5 214.697C223.5 214.397 223.742 214.154 224.042 214.154H226.832C227.132 214.154 227.374 214.397 227.374 214.697C227.374 214.998 227.132 215.241 226.832 215.241Z" fill="#171D34"/>
<path d="M233.33 215.241H230.54C230.241 215.241 229.998 214.998 229.998 214.697C229.998 214.397 230.241 214.154 230.54 214.154H233.33C233.63 214.154 233.873 214.397 233.873 214.697C233.873 214.998 233.63 215.241 233.33 215.241Z" fill="#171D34"/>
<path d="M128.986 117.272L128.983 116.66L133.807 116.632L133.81 117.244L131.722 117.256L131.764 124.504L131.104 124.508L131.062 117.26L128.986 117.272ZM135.424 124.483L135.42 123.883L136.788 123.875L136.762 119.375L135.395 119.383L135.391 118.783L137.395 118.772L137.423 119.468C137.678 119.306 138.037 119.144 138.5 118.981C138.963 118.819 139.371 118.72 139.723 118.686L139.855 118.686L139.859 119.394L139.727 119.394C139.399 119.42 138.991 119.503 138.504 119.641C138.025 119.78 137.666 119.922 137.426 120.068L137.448 123.871L139.368 123.861L139.372 124.461L135.424 124.483ZM144.939 124.429L144.913 123.937C144.147 124.341 143.508 124.545 142.996 124.548C142.484 124.551 142.079 124.377 141.781 124.027C141.483 123.676 141.332 123.197 141.329 122.589L141.307 118.749L141.943 118.746L141.965 122.586C141.967 122.978 142.061 123.301 142.246 123.556C142.44 123.803 142.729 123.925 143.113 123.923C143.497 123.921 144.095 123.718 144.909 123.313L144.883 118.729L145.519 118.725L145.551 124.425L144.939 124.429ZM147.386 124.139L147.538 123.514C148.332 123.773 148.945 123.902 149.376 123.899C149.808 123.897 150.14 123.803 150.371 123.618C150.61 123.424 150.728 123.172 150.727 122.86C150.725 122.548 150.628 122.32 150.435 122.177C150.25 122.026 149.861 121.885 149.268 121.752C148.675 121.619 148.23 121.426 147.933 121.172C147.636 120.933 147.486 120.574 147.483 120.094C147.48 119.614 147.658 119.249 148.017 118.999C148.383 118.741 148.854 118.61 149.43 118.607C150.006 118.604 150.631 118.728 151.304 118.98L151.14 119.545C150.458 119.325 149.91 119.216 149.494 119.219C149.078 119.221 148.75 119.295 148.511 119.44C148.272 119.602 148.153 119.818 148.155 120.09C148.156 120.362 148.262 120.574 148.47 120.725C148.687 120.875 149.1 121.025 149.709 121.174C150.318 121.322 150.751 121.516 151.008 121.754C151.266 121.985 151.396 122.352 151.399 122.856C151.401 123.36 151.232 123.761 150.889 124.059C150.555 124.357 150.076 124.507 149.452 124.511C148.828 124.515 148.139 124.391 147.386 124.139ZM153.095 119.438L153.092 118.838L154.256 118.832L154.247 117.38L154.883 117.256L154.892 118.828L157.64 118.812L157.643 119.412L154.895 119.428L154.911 122.164C154.914 122.772 155.005 123.211 155.182 123.482C155.368 123.745 155.692 123.875 156.156 123.873C156.332 123.872 156.604 123.842 156.972 123.784C157.34 123.718 157.591 123.661 157.727 123.612L157.874 124.199C157.723 124.256 157.443 124.317 157.035 124.384C156.636 124.45 156.344 124.484 156.16 124.485C155.44 124.489 154.947 124.304 154.681 123.929C154.415 123.547 154.279 122.968 154.275 122.192L154.259 119.432L153.095 119.438ZM164.655 124.316L166.866 116.444L168.018 116.437L170.235 124.285L169.527 124.289L169.025 122.479L165.845 122.498L165.351 124.312L164.655 124.316ZM168.865 121.88L167.542 117.04L167.338 117.041L166.009 121.897L168.865 121.88ZM170.753 124.582L175.659 115.805L176.104 116.067L171.186 124.843L170.753 124.582ZM181.558 123.404L181.718 124.015C181.015 124.227 180.383 124.335 179.823 124.338C178.904 124.343 178.218 124.031 177.766 123.402C177.322 122.764 177.097 121.737 177.089 120.321C177.08 118.905 177.291 117.876 177.719 117.234C178.147 116.583 178.837 116.255 179.789 116.25C180.373 116.247 180.982 116.367 181.615 116.612L181.427 117.213C180.85 116.976 180.305 116.859 179.793 116.862C179.081 116.866 178.566 117.141 178.25 117.687C177.941 118.225 177.79 119.093 177.796 120.293C177.803 121.493 177.976 122.364 178.315 122.906C178.654 123.449 179.16 123.718 179.832 123.714C180.28 123.711 180.855 123.608 181.558 123.404Z" fill="white"/>
</svg>
