<svg width="80" height="80" viewBox="0 0 80 80" fill="none" xmlns="http://www.w3.org/2000/svg">
<g id="Capa_1" clip-path="url(#clip0_998_205654)">
<g id="Group">
<g id="Group_2">
<g id="Group_3">
<g id="Group_4">
<g id="Group_5">
<path id="Vector" d="M76.2267 36.6289L76.2397 76.2409C76.2397 77.6706 75.0806 78.8297 73.6509 78.8297H6.34906C4.91938 78.8297 3.76031 77.6706 3.76031 76.2409L3.74734 36.6289H76.2267Z" fill="#73C3FD"/>
</g>
<g id="Group_6">
<path id="Vector_2" d="M64.5533 1.17203C65.3892 1.17203 66.1738 1.57578 66.6597 2.25594L78.6339 21.5669C78.7609 21.7717 78.8281 22.008 78.8281 22.2489L78.8152 36.1145C78.8152 36.8294 78.2356 37.4087 77.5209 37.4087H2.45312C1.73828 37.4087 1.15891 36.8292 1.15891 36.1145L1.17187 22.2489C1.17187 22.008 1.23922 21.7717 1.36625 21.5669L13.3405 2.25594C13.8264 1.57563 14.6109 1.17188 15.4469 1.17188L64.5533 1.17203Z" fill="#73C3FD"/>
</g>
<g id="Group_7">
<path id="Vector_3" d="M28.3958 73.6509H10.1875C9.49719 73.6509 8.9375 73.0912 8.9375 72.4009V60.6641C8.9375 59.9737 9.49719 59.4141 10.1875 59.4141H28.3958C29.0861 59.4141 29.6458 59.9737 29.6458 60.6641V72.4011C29.6458 73.0913 29.0863 73.6509 28.3958 73.6509Z" fill="white"/>
</g>
<g id="Group_8">
<path id="Vector_4" d="M28.3958 59.4141H10.1875C9.49719 59.4141 8.9375 59.9737 8.9375 60.6641V64.5911H29.6458V60.6641C29.6458 59.9736 29.0863 59.4141 28.3958 59.4141Z" fill="#307FF4"/>
</g>
</g>
<g id="Group_9">
<g id="Group_10">
<path id="Vector_5" d="M47.7656 21.8802V22.6614H32.2344V21.8802L34.823 1.17188H45.177L47.7656 21.8802Z" fill="white"/>
</g>
<g id="Group_11">
<path id="Vector_6" d="M32.2344 36.6289V43.8816C32.2344 44.5964 32.8139 45.1758 33.5286 45.1758H46.4712C47.1861 45.1758 47.7655 44.5963 47.7655 43.8816V36.6289H32.2344Z" fill="white"/>
</g>
<g id="Group_12">
<path id="Vector_7" d="M32.2344 21.8789H47.7656V37.4102H32.2344V21.8789Z" fill="white"/>
</g>
</g>
<g id="Group_13">
<path id="Vector_8" d="M64.5911 73.6498C72.454 73.6498 78.8281 67.2757 78.8281 59.4128C78.8281 51.5499 72.454 45.1758 64.5911 45.1758C56.7282 45.1758 50.3541 51.5499 50.3541 59.4128C50.3541 67.2757 56.7282 73.6498 64.5911 73.6498Z" fill="#F6BD3D"/>
</g>
<g id="Group_14">
<path id="Vector_9" d="M70.4731 52.7064L64.9392 50.4928C64.7158 50.4034 64.4664 50.4034 64.2428 50.4928L58.7089 52.7064C58.353 52.8488 58.1195 53.1934 58.1195 53.5769V61.8742C58.1195 65.5028 61.0891 68.5416 64.717 68.4722C68.2328 68.405 71.0622 65.5339 71.0622 62.002V53.5769C71.0625 53.1934 70.8291 52.8488 70.4731 52.7064Z" fill="white"/>
</g>
</g>
</g>
<g id="Group_15">
<path id="Vector_10" d="M77.5339 38.5834C78.8938 38.5834 80 37.4772 80 36.1173V22.2489C80 22.0098 79.9645 21.7737 79.8972 21.5469C79.8934 21.5341 79.8892 21.5216 79.885 21.5091C79.8236 21.3138 79.7389 21.1255 79.6298 20.9494L67.6556 1.63844C67.6422 1.61672 67.628 1.59563 67.6133 1.57469C66.9088 0.58875 65.765 0 64.5533 0H45.177H34.823H15.4467C14.235 0 13.0913 0.58875 12.3867 1.57453C12.3719 1.59547 12.3577 1.61672 12.3444 1.63828L0.369844 20.9495C0.260781 21.1258 0.176094 21.3142 0.114688 21.5097C0.110625 21.5219 0.106562 21.5339 0.102969 21.5462C0.0354687 21.7733 0 22.0095 0 22.2489V36.1173C0 37.4772 1.10625 38.5834 2.46609 38.5834H2.58844V76.2395C2.58844 78.3131 4.27547 80 6.34891 80H60.0859C60.7333 80 61.2578 79.4755 61.2578 78.8281C61.2578 78.1808 60.7333 77.6562 60.0859 77.6562H6.34906C5.56781 77.6562 4.93234 77.0208 4.93234 76.2395V38.5834H11.7709C12.4183 38.5834 12.9428 38.0589 12.9428 37.4116C12.9428 36.7642 12.4183 36.2397 11.7709 36.2397H3.76344C3.7625 36.2397 3.76141 36.2395 3.76047 36.2395C3.75937 36.2395 3.75844 36.2397 3.7575 36.2397H2.46625C2.39875 36.2397 2.34391 36.1847 2.34391 36.1173V23.0522H31.0627V36.2397H16.4584C15.8111 36.2397 15.2866 36.7642 15.2866 37.4116C15.2866 38.0589 15.8111 38.5834 16.4584 38.5834H31.0625V43.8828C31.0625 45.2427 32.1687 46.3489 33.5286 46.3489H46.4714C47.8312 46.3489 48.9375 45.2427 48.9375 43.8828V38.5834H75.0677V48.1259C72.3163 45.5706 68.6333 44.0052 64.5909 44.0052C56.0945 44.0052 49.1822 50.9175 49.1822 59.4141C49.1822 67.9105 56.0945 74.8228 64.5909 74.8228C68.6333 74.8228 72.3163 73.2573 75.0677 70.702V76.2394C75.0677 77.0206 74.4322 77.6561 73.6509 77.6561H64.7734C64.1261 77.6561 63.6016 78.1806 63.6016 78.828C63.6016 79.4753 64.1261 79.9998 64.7734 79.9998H73.6509C75.7244 79.9998 77.4114 78.3128 77.4114 76.2394V67.9523C79.0458 65.5067 80 62.5698 80 59.4141C80 56.2581 79.0458 53.3214 77.4116 50.8756V38.5834H77.5339ZM64.5911 72.4791C57.387 72.4791 51.5261 66.6181 51.5261 59.4141C51.5261 52.21 57.387 46.3489 64.5911 46.3489C71.7952 46.3489 77.6562 52.21 77.6562 59.4141C77.6562 66.6181 71.7952 72.4791 64.5911 72.4791ZM77.5339 36.2397H76.2427C76.2416 36.2397 76.2406 36.2395 76.2397 36.2395C76.2387 36.2395 76.2377 36.2397 76.2367 36.2397H48.9375V23.0522H77.6562V36.1173C77.6562 36.1847 77.6012 36.2397 77.5339 36.2397ZM33.4062 23.052H46.5938V36.2395H33.4062V23.052ZM65.687 2.91094L76.7227 20.7083H48.8002L46.5045 2.34375H64.5531C64.9989 2.34375 65.4203 2.55531 65.687 2.91094ZM44.1425 2.34375L46.4381 20.7083H33.5619L35.8575 2.34375H44.1425ZM14.3131 2.91094C14.5798 2.55531 15.0011 2.34375 15.4469 2.34375H33.4955L31.1998 20.7083H3.27734L14.3131 2.91094ZM46.4714 44.0052H33.5286C33.4611 44.0052 33.4062 43.9502 33.4062 43.8828V38.5834H46.5938V43.8828C46.5938 43.9502 46.5389 44.0052 46.4714 44.0052Z" fill="#171D34"/>
<path id="Vector_11" d="M7.76562 72.4009C7.76562 73.7364 8.85203 74.8228 10.1875 74.8228H28.3958C29.7313 74.8228 30.8177 73.7364 30.8177 72.4009V60.6641C30.8177 59.3286 29.7313 58.2422 28.3958 58.2422H10.1875C8.85203 58.2422 7.76562 59.3286 7.76562 60.6641V72.4009ZM28.3958 72.4791H10.1875C10.1445 72.4791 10.1094 72.4439 10.1094 72.4009V65.763H28.4739V72.4009C28.4739 72.4441 28.4389 72.4791 28.3958 72.4791ZM10.1875 60.5859H28.3958C28.4388 60.5859 28.4739 60.6211 28.4739 60.6641V63.4192H10.1094V60.6641C10.1094 60.6211 10.1445 60.5859 10.1875 60.5859Z" fill="#171D34"/>
<path id="Vector_12" d="M14.1147 67.3008C13.4673 67.3008 12.9428 67.8253 12.9428 68.4727V69.7669C12.9428 70.4142 13.4673 70.9387 14.1147 70.9387C14.762 70.9387 15.2866 70.4142 15.2866 69.7669V68.4727C15.2866 67.8255 14.762 67.3008 14.1147 67.3008Z" fill="#171D34"/>
<path id="Vector_13" d="M19.2917 67.3008C18.6444 67.3008 18.1198 67.8253 18.1198 68.4727V69.7669C18.1198 70.4142 18.6444 70.9387 19.2917 70.9387C19.9391 70.9387 20.4636 70.4142 20.4636 69.7669V68.4727C20.4636 67.8255 19.9389 67.3008 19.2917 67.3008Z" fill="#171D34"/>
<path id="Vector_14" d="M24.4689 67.3008C23.8216 67.3008 23.297 67.8253 23.297 68.4727V69.7669C23.297 70.4142 23.8216 70.9387 24.4689 70.9387C25.1162 70.9387 25.6408 70.4142 25.6408 69.7669V68.4727C25.6408 67.8255 25.1161 67.3008 24.4689 67.3008Z" fill="#171D34"/>
<path id="Vector_15" d="M71.4977 51.8558L65.0484 49.2761C65.0472 49.2756 65.0458 49.2752 65.0445 49.2745L65.0262 49.2672C65.0162 49.2631 65.0059 49.2605 64.9958 49.2567C64.973 49.2483 64.95 49.2398 64.9264 49.2328C64.9125 49.2286 64.8983 49.2256 64.8841 49.2219C64.8619 49.2161 64.8398 49.2102 64.817 49.2058C64.7986 49.2022 64.7798 49.2 64.7612 49.1972C64.7427 49.1945 64.7242 49.1911 64.7053 49.1892C64.6292 49.1817 64.5525 49.1817 64.4763 49.1892C64.4573 49.1911 64.4391 49.1945 64.4203 49.1972C64.4017 49.1998 64.3831 49.202 64.3645 49.2058C64.3419 49.2102 64.3197 49.2162 64.2975 49.2219C64.2834 49.2255 64.2692 49.2286 64.2553 49.2328C64.2317 49.2398 64.2089 49.2483 64.1861 49.2567C64.1759 49.2605 64.1656 49.2633 64.1556 49.2672L64.1373 49.2745C64.1361 49.275 64.1348 49.2755 64.1336 49.2761L57.6844 51.8558C57.2394 52.0339 56.9477 52.4647 56.9477 52.9439V62.0038C56.9477 66.2183 60.3763 69.647 64.5908 69.647C68.8053 69.647 72.2341 66.2183 72.2341 62.0038V52.9439C72.2344 52.4648 71.9427 52.0339 71.4977 51.8558ZM69.8906 62.0038C69.8906 64.9259 67.5133 67.3033 64.5911 67.3033C61.6691 67.3033 59.2917 64.9259 59.2917 62.0038V53.7373L63.4192 52.0864V56.8269C63.4192 57.4742 63.9437 57.9987 64.5911 57.9987C65.2384 57.9987 65.763 57.4742 65.763 56.8269V52.0864L69.8906 53.7373V62.0038Z" fill="#171D34"/>
</g>
</g>
</g>
<defs>
<clipPath id="clip0_998_205654">
<rect width="80" height="80" fill="white"/>
</clipPath>
</defs>
</svg>
