<svg width="24" height="24" viewBox="0 0 24 24" fill="none" xmlns="http://www.w3.org/2000/svg">
<path d="M5.08659 19.6815C6.27279 21 8.18259 21 12.0004 21C15.8191 21 17.728 21 18.9142 19.6815C20.1004 18.3648 20.1004 16.2426 20.1004 12C20.1004 7.7574 20.1004 5.6361 18.9142 4.3176C17.728 3 15.8182 3 12.0004 3C8.18169 3 6.27279 3 5.08659 4.3176C3.90039 5.637 3.90039 7.7574 3.90039 12C3.90039 16.2426 3.90039 18.3639 5.08659 19.6815Z" stroke="#171D34" stroke-width="1.35"/>
<path d="M7.5 8.4001C7.5 7.9816 7.5 7.7728 7.5459 7.6009C7.60727 7.37218 7.72773 7.16363 7.89518 6.99618C8.06263 6.82873 8.27118 6.70827 8.4999 6.6469C8.6736 6.6001 8.8824 6.6001 9.3 6.6001H14.7C15.1185 6.6001 15.3273 6.6001 15.4992 6.646C15.7279 6.70737 15.9365 6.82783 16.1039 6.99528C16.2714 7.16273 16.3918 7.37128 16.4532 7.6C16.5 7.7737 16.5 7.9825 16.5 8.4001C16.5 8.8177 16.5 9.0274 16.4541 9.1993C16.3927 9.42802 16.2723 9.63657 16.1048 9.80402C15.9374 9.97147 15.7288 10.0919 15.5001 10.1533C15.3273 10.2001 15.1176 10.2001 14.7 10.2001H9.3C8.8815 10.2001 8.6727 10.2001 8.5008 10.1542C8.27208 10.0928 8.06353 9.97237 7.89608 9.80492C7.72863 9.63747 7.60817 9.42892 7.5468 9.2002C7.5 9.0265 7.5 8.8177 7.5 8.4001Z" stroke="#171D34" stroke-width="1.35"/>
<path d="M8.4 14.6999C8.89706 14.6999 9.3 14.297 9.3 13.7999C9.3 13.3028 8.89706 12.8999 8.4 12.8999C7.90294 12.8999 7.5 13.3028 7.5 13.7999C7.5 14.297 7.90294 14.6999 8.4 14.6999Z" fill="#171D34"/>
<path d="M8.4 18.3C8.89706 18.3 9.3 17.8971 9.3 17.4C9.3 16.9029 8.89706 16.5 8.4 16.5C7.90294 16.5 7.5 16.9029 7.5 17.4C7.5 17.8971 7.90294 18.3 8.4 18.3Z" fill="#171D34"/>
<path d="M11.9996 14.6999C12.4967 14.6999 12.8996 14.297 12.8996 13.7999C12.8996 13.3028 12.4967 12.8999 11.9996 12.8999C11.5026 12.8999 11.0996 13.3028 11.0996 13.7999C11.0996 14.297 11.5026 14.6999 11.9996 14.6999Z" fill="#171D34"/>
<path d="M11.9996 18.3C12.4967 18.3 12.8996 17.8971 12.8996 17.4C12.8996 16.9029 12.4967 16.5 11.9996 16.5C11.5026 16.5 11.0996 16.9029 11.0996 17.4C11.0996 17.8971 11.5026 18.3 11.9996 18.3Z" fill="#171D34"/>
<path d="M15.6012 14.6999C16.0982 14.6999 16.5012 14.297 16.5012 13.7999C16.5012 13.3028 16.0982 12.8999 15.6012 12.8999C15.1041 12.8999 14.7012 13.3028 14.7012 13.7999C14.7012 14.297 15.1041 14.6999 15.6012 14.6999Z" fill="#171D34"/>
<path d="M15.6012 18.3C16.0982 18.3 16.5012 17.8971 16.5012 17.4C16.5012 16.9029 16.0982 16.5 15.6012 16.5C15.1041 16.5 14.7012 16.9029 14.7012 17.4C14.7012 17.8971 15.1041 18.3 15.6012 18.3Z" fill="#171D34"/>
</svg>
